<?xml version="1.0" encoding="UTF-8" standalone="no"?><!DOCTYPE svg PUBLIC "-//W3C//DTD SVG 1.1//EN" "http://www.w3.org/Graphics/SVG/1.1/DTD/svg11.dtd"><svg width="100%" height="100%" viewBox="0 0 150 150" version="1.1" xmlns="http://www.w3.org/2000/svg" xmlns:xlink="http://www.w3.org/1999/xlink" xml:space="preserve" xmlns:serif="http://www.serif.com/" style="fill-rule:evenodd;clip-rule:evenodd;stroke-linejoin:round;stroke-miterlimit:2;"><path id="base" d="M150,75c0,-41.394 -33.606,-75 -75,-75c-41.394,0 -75,33.606 -75,75c0,41.394 33.606,75 75,75c41.394,0 75,-33.606 75,-75Z" style="fill:#333;"/><path id="outline" d="M144,75c0,-38.082 -30.918,-69 -69,-69c-38.082,0 -69,30.918 -69,69c0,38.082 30.918,69 69,69c38.082,0 69,-30.918 69,-69Z" style="fill:#ff7600;"/><path id="core" d="M141,75c0,-36.426 -29.574,-66 -66,-66c-36.426,0 -66,29.574 -66,66c0,36.426 29.574,66 66,66c36.426,0 66,-29.574 66,-66Z" style="fill:#fff;"/><clipPath id="_clip1"><path d="M141,75c0,-36.426 -29.574,-66 -66,-66c-36.426,0 -66,29.574 -66,66c0,36.426 29.574,66 66,66c36.426,0 66,-29.574 66,-66Z"/></clipPath><g clip-path="url(#_clip1)"><g id="alex-clare"><path d="M82.029,112.365c-11.049,-6.005 -20.582,-13.475 -21.414,-29.356l0.585,-2.407c0,-0 0.246,-1.515 0.144,-2.744c-0.103,-1.229 0.082,-3.808 -0.164,-4.546c-0.246,-0.737 -0.778,-1.29 -1.147,-1.72c-0.368,-0.43 -2.477,-1.863 -2.846,-2.498c-0.369,-0.634 -1.495,-2.068 -1.781,-3.235c-0.287,-1.167 -0.922,-2.027 -0.656,-3.46c0.267,-1.434 1.004,-3.235 1.495,-3.727c0.492,-0.491 34.271,-23.78 34.271,-23.78l6.422,5.397c0,-0 2.82,4.578 3.359,6.005c0.54,1.427 1.219,2.298 1.341,3.255c0.122,0.957 0.505,2.402 0.174,2.907c-0.331,0.505 -0.836,1.01 -1.427,2.002c-0.592,0.992 -0.871,1.323 -0.801,1.967c0.069,0.644 0.331,1.549 0.661,2.28c0.331,0.731 1.236,2.489 1.341,3.29c0.104,0.801 0.074,4.248 0.039,4.875c-0.034,0.627 -1.125,30.482 -1.125,30.482l-18.471,15.013Z" style="fill:#e0c0b6;"/><path d="M61.401,79.895c-0,-0 -0.103,1.933 -0.026,2.242c0.077,0.309 1.005,3.119 1.263,3.892c0.258,0.773 2.242,4.639 2.474,5.206c0.232,0.567 2.268,4.149 2.655,4.665c0.386,0.515 2.577,3.84 2.938,4.33c0.361,0.489 1.495,1.443 1.778,1.752c0.284,0.309 1.031,1.753 1.392,2.191c0.361,0.438 0.721,0.824 1.005,0.979c0.283,0.155 0.825,0.309 1.701,0.644c0.876,0.335 2.809,0.954 3.505,1.289c0.696,0.335 1.65,0.902 1.985,0.928c0.335,0.026 1.237,-0.077 1.237,-0.077c-0,-0 0.438,-0.284 0.515,-0.567c0.077,-0.284 0.619,-1.16 0.928,-1.753c0.309,-0.593 2.268,-3.067 2.758,-3.35c0.489,-0.284 1.005,-1.134 1.237,-1.469c0.232,-0.336 0.386,-1.031 0.567,-2.062c0.18,-1.031 3.299,-5.619 3.299,-5.619l14.407,4.562l6.059,53.237l-61.947,0l7.254,-62.572l1.3,-4.538c-0,0 0.213,-0.969 0.331,-1.56c0.118,-0.591 0.808,-2.054 1.385,-2.35Z" style="fill:#fefcfd;"/><path d="M15.293,108.661l0.748,-3.621c-0,-0 0.728,-2.74 0.919,-3.372c0.192,-0.633 1.054,-2.357 1.437,-2.702c0.383,-0.345 1.226,-1.035 1.916,-0.479c0,-0 0.403,-0.517 1.15,-0.881c0.747,-0.364 3.41,-1.093 4.196,-1.399c0.786,-0.307 3.027,-1.322 3.966,-1.61c0.939,-0.287 4.694,-1.398 5.135,-1.532c0.441,-0.135 2.683,-0.786 3.545,-0.997c0.862,-0.211 3.046,-0.728 3.717,-0.881c0.67,-0.153 2.567,-0.862 3.161,-1.035c0.594,-0.172 3.162,-0.862 3.756,-0.881c0.594,-0.019 2.203,-0.173 2.203,-0.173c0,0 1.935,-0.594 2.587,-0.9c0.651,-0.307 2.414,-1.035 2.931,-1.399c0.518,-0.364 1.418,-0.996 1.686,-1.303c0.269,-0.306 0.882,-1.245 1.131,-1.322c0.249,-0.076 0.172,0.211 0.172,0.211c0,-0 -0.076,2.28 -0.115,2.663c-0.038,0.383 0.269,2.395 0.422,3.008c0.153,0.614 0.594,2.472 0.613,2.951c0.019,0.479 0.019,4.905 -0,5.442c-0.019,0.536 0.728,11.994 0.805,13.086c0.076,1.092 0.939,15.29 0.996,16.076c0.058,0.785 1.029,12.634 0.939,13.048c-3.252,14.84 -52.417,-12.712 -48.016,-31.998Zm87.903,29.378l-0.626,-1.949c-0,0 -0.348,-0.278 -0.453,-1.218c-0.104,-0.94 -0.557,-3.168 -0.557,-3.62c0,-0.453 -0.487,-2.994 -0.731,-3.794c-0.243,-0.801 -0.522,-2.68 -0.696,-3.411c-0.174,-0.731 -0.278,-1.462 -0.487,-2.646c-0.209,-1.183 -0.383,-2.054 -0.522,-3.307c-0.139,-1.253 -0.174,-1.81 -0.348,-2.784c-0.174,-0.975 -0.418,-2.68 -0.801,-3.934c-0.383,-1.253 -0.905,-3.863 -1.044,-4.559c-0.139,-0.697 -0.244,-1.602 -0.383,-2.019c-0.139,-0.418 -0.139,-0.696 -0.383,-1.393c-0.243,-0.696 -0.592,-1.496 -0.592,-1.496l-0.417,-0.975c-0,0 0.87,-0.313 1.601,-0.661c0.731,-0.348 1.497,-0.662 1.949,-1.149c0.453,-0.487 1.01,-0.975 1.253,-1.392c0.244,-0.418 2.715,-4.734 2.715,-4.734c0,-0 1.601,-0.209 2.089,-0.035c0.487,0.174 3.237,1.218 3.863,1.427c0.627,0.209 3.795,1.149 4.908,1.81c1.114,0.661 3.029,1.601 3.516,1.88c0.487,0.278 2.019,1.114 2.819,1.566c0.801,0.453 1.671,0.87 2.333,1.149c0.661,0.278 1.601,0.522 2.227,0.731c0.627,0.209 1.532,0.835 2.089,1.497c0.557,0.661 1.949,3.48 2.227,4.594c0.279,1.114 0.766,4.804 0.836,5.848c0.069,1.044 -13.645,22.834 -13.645,22.834l-12.74,1.74Z" style="fill:#3a4467;"/><path d="M66.303,53.822c-0,0 0.355,7.3 0.711,8.295c0.355,0.996 3.768,6.068 5.404,6.423c1.635,0.356 9.148,2.11 11.234,2.11c2.086,-0 3.247,-0.261 4.029,-0.854c0.782,-0.592 3.176,-2.014 4.859,-2.085c1.683,-0.071 2.536,0.355 3.247,0.284c0.711,-0.071 1.043,-0.877 1.469,-1.019c0.427,-0.142 1.47,-0.047 1.896,0.19c0.427,0.237 2.062,1.659 2.062,1.659c0,-0 0.071,-1.47 0.166,-2.157c0.095,-0.687 0.119,-2.157 0.237,-2.441c0.119,-0.285 0.332,0.734 0.285,1.517c-0.048,0.782 -0.19,2.133 -0,2.82c0.189,0.687 0.142,1.28 0.284,1.683c0.142,0.403 0.285,0.403 0.522,0.806c0.237,0.402 0.734,0.758 0.734,1.09c0,0.332 0.166,1.019 0.142,1.232c-0.023,0.214 0.19,0.451 -0.118,0.759c-0.308,0.308 -0.356,0.853 -0.332,1.114c0.024,0.26 0,1.777 -0.047,2.18c-0.048,0.403 0.023,0.498 0.047,1.043c0.024,0.545 -0.024,0.498 0.119,1.043c0.142,0.545 0.047,0.26 0.213,1.066c0.166,0.806 -0.047,1.493 -0.047,2.181c-0,0.687 -0,0.592 0.094,1.137c0.095,0.546 -0.071,0.569 0.474,1.707c0.546,1.138 0.498,0.687 0.546,1.209c0.047,0.521 -0.38,0.189 -0,0.758c0.379,0.569 0.639,0.474 0.45,1.138c-0.19,0.663 -0.285,0.711 -0.403,1.327c-0.119,0.616 -0.142,-0.024 -0.071,1.067c0.071,1.09 0.024,0.592 0.142,1.398c0.119,0.806 0.356,0.758 -0.047,1.469c-0.403,0.711 -0.261,0.356 -0.877,1.067c-0.617,0.711 -0.38,0.142 -0.806,0.877c-0.427,0.735 -0.142,0.877 -0.782,1.09c-0.64,0.213 -0.948,-0.166 -2.204,0.308c-1.257,0.474 -1.754,0.545 -2.347,0.64c-0.592,0.095 -0.521,0.047 -1.256,0.19c-0.735,0.142 -0.569,-0.048 -1.659,-0c-1.09,0.047 -0.498,-0.048 -1.991,0.213c-1.493,0.261 -1.043,0.142 -2.394,0.427c-1.351,0.284 -1.564,0.64 -2.299,0.782c-0.734,0.142 -1.114,0.142 -1.445,-0.119c-0.332,-0.26 0.26,-0.095 -0.735,-0.64c-0.996,-0.545 -0.427,-0.592 -1.849,-0.971c-1.422,-0.38 -0.972,-0.024 -2.441,-0.735c-1.47,-0.711 -1.351,-0.996 -2.252,-1.114c-0.9,-0.119 -1.659,-0.379 -2.228,-0.332c-0.568,0.048 -0.497,0.142 -2.322,-0.758c-1.825,-0.901 -0.83,-0.735 -2.204,-1.209c-1.375,-0.474 -1.707,-0 -2.465,-1.067c-0.759,-1.066 -1.043,-1.185 -1.256,-1.682c-0.214,-0.498 -0.593,-0.783 -0.64,-1.659c-0.048,-0.877 -0.071,-0.806 -0.214,-2.086c-0.142,-1.28 -0.237,-1.446 -0.379,-2.512c-0.142,-1.067 -0.118,-1.067 -0.261,-1.778c-0.142,-0.711 -1.351,-1.825 -1.066,-2.726c0.284,-0.9 0.45,-1.967 0.237,-2.844c-0.213,-0.877 -0.285,-1.09 -0.356,-1.445c-0.071,-0.356 -0.094,-0.617 -0.284,-1.399c-0.19,-0.782 -0.261,-1.28 -0.45,-1.872c-0.19,-0.593 -0.166,-1.422 -0.474,-2.939c-0.309,-1.517 -0.237,-1.446 -0.403,-2.062c-0.166,-0.616 -0.948,-0.782 -1.209,-1.944c-0.261,-1.161 -0.284,-1.232 -0.403,-2.014c-0.118,-0.782 -0.213,-1.019 -0.308,-1.683c-0.095,-0.664 -0.356,-1.517 -0.332,-2.394c0.024,-0.877 4.053,-5.759 4.053,-5.759Zm-5.024,26.176c0,0 -0.617,-3.613 -1.02,-4.703c-0.403,-1.09 -1.327,-3.65 -1.683,-4.266c-0.355,-0.616 -0.734,-1.375 -0.734,-1.375c-0,0 1.517,1.612 2.204,1.944c0.687,0.332 0.64,0.474 0.64,0.474c-0,-0 0.663,1.161 0.64,1.801c-0.024,0.64 -0.047,6.125 -0.047,6.125Zm39.446,-5.78c0,0 -1.076,-0.391 -1.728,-0.489c-0.653,-0.098 -1.697,-0.228 -2.74,-0.196c-1.044,0.033 -0.359,-0.065 -1.729,-0.065c-1.37,0 -1.305,-0.196 -2.218,-0.033c-0.913,0.164 -0.783,0 -1.5,0.457c-0.718,0.457 -0.196,0.261 -1.109,0.718c-0.914,0.456 -0.816,-0.49 -1.142,0.652c-0.326,1.142 -0.881,1.011 -0.261,1.5c0.62,0.49 -0.391,0.294 1.631,0.588c2.022,0.293 1.892,0.326 3.327,0.358c1.435,0.033 1.99,-0.032 3.099,-0.163c1.109,-0.13 1.663,-0.163 2.12,-0.456c0.456,-0.294 1.207,-0.979 1.337,-1.24c0.131,-0.261 0.065,-0.326 0.294,-0.62c0.228,-0.293 0.619,-1.011 0.619,-1.011Z" style="fill:#5a322e;"/><path d="M103.351,43.233c0,-0 1.329,-0.049 2.018,-0.443c0.688,-0.394 1.672,-1.328 1.574,-2.263c-0.099,-0.935 -0.64,-1.771 -0.738,-2.558c-0.098,-0.788 -0.049,-1.23 -0.541,-2.067c-0.492,-0.836 -1.968,-1.869 -2.263,-2.214c-0.296,-0.344 -1.602,-1.579 -2.091,-2.348c-0.489,-0.768 -0.733,-1.519 -1.554,-2.375c-0.821,-0.856 -1.205,-1.223 -2.009,-1.537c-0.803,-0.315 -3.493,-0.891 -4.349,-1.136c-0.856,-0.244 -1.834,-0.699 -3.389,-1.065c-1.555,-0.367 -2.585,-0.559 -3.633,-0.577c-1.048,-0.017 -3.564,0.07 -5.013,0.157c-1.45,0.088 -2.026,0.105 -3.022,0.297c-0.996,0.193 -1.345,0.612 -2.306,0.769c-0.961,0.157 -2.847,0.541 -3.004,0.576c-0.157,0.035 -0.856,-0.436 -1.101,-0.524c-0.244,-0.087 -1.24,0.193 -1.694,0.455c-0.454,0.262 -1.52,0.803 -1.485,1.1c0.035,0.297 0.14,0.576 0.14,0.576c0,0 -0.437,0.489 -1.38,0.804c-0.943,0.314 -2.236,0.943 -3.214,1.52c-0.978,0.576 -2.078,1.048 -2.655,1.502c-0.576,0.454 -2.498,1.781 -3.406,2.393c-0.908,0.611 -2.271,2.305 -2.9,2.987c-0.628,0.681 -2.847,3.877 -3.266,4.524c-0.419,0.646 -1.258,2.829 -1.52,3.388c-0.262,0.559 -0.838,2.551 -1.013,3.127c-0.174,0.576 -0.349,2.428 -0.349,3.109c-0,0.681 0.856,3.791 1.17,4.507c0.315,0.716 1.101,2.201 1.45,2.62c0.349,0.419 0.489,0.436 0.838,1.065c0.35,0.629 0.315,0.42 0.577,1.066c0.262,0.646 0.541,0.856 0.821,1.292c0.279,0.437 0.664,0.577 0.664,0.577c-0,-0 0.104,-0.14 0.139,-0.472c0.035,-0.332 0.088,-0.559 0.297,-0.995c0.21,-0.437 0.21,-0.542 0.437,-0.664c0.227,-0.122 0.541,-0.419 1.38,-0.647c0.838,-0.227 2.079,-0.279 3.127,-0.663c1.048,-0.385 3.423,-1.083 4.331,-1.66c0.909,-0.576 3.319,-1.572 3.826,-1.886c0.506,-0.315 1.275,-0.629 1.816,-0.873c0.542,-0.245 1.013,-0.542 1.503,-0.874c0.489,-0.332 0.733,-0.524 1.624,-1.013c0.891,-0.489 1.45,-0.821 2.096,-1.205c0.646,-0.384 1.17,-0.524 1.712,-1.031c0.541,-0.506 1.397,-1.013 1.956,-1.467c0.559,-0.454 1.223,-1.013 2.009,-1.677c0.786,-0.664 1.135,-0.891 1.555,-1.327c0.419,-0.437 2.777,-1.904 3.406,-2.289c0.628,-0.384 2.288,-1.118 4.104,-1.467c1.817,-0.349 4.402,-0.506 5.45,-0.209c1.048,0.296 2.184,0.716 3.005,1.222c0.821,0.507 1.886,2.952 1.886,2.952c0,0 0.611,-0.681 0.926,-0.943c0.314,-0.262 1.485,-1.432 1.607,-1.624c0.122,-0.193 0.451,-0.492 0.451,-0.492Z" style="fill:#584c44;"/></g></g></svg>