<?xml version="1.0" encoding="UTF-8" standalone="no"?><!DOCTYPE svg PUBLIC "-//W3C//DTD SVG 1.1//EN" "http://www.w3.org/Graphics/SVG/1.1/DTD/svg11.dtd"><svg width="100%" height="100%" viewBox="0 0 150 150" version="1.1" xmlns="http://www.w3.org/2000/svg" xmlns:xlink="http://www.w3.org/1999/xlink" xml:space="preserve" xmlns:serif="http://www.serif.com/" style="fill-rule:evenodd;clip-rule:evenodd;stroke-linejoin:round;stroke-miterlimit:2;"><path id="base" d="M150,75c0,-41.394 -33.606,-75 -75,-75c-41.394,0 -75,33.606 -75,75c0,41.394 33.606,75 75,75c41.394,0 75,-33.606 75,-75Z" style="fill:#333;"/><path id="outline" d="M144,75c0,-38.082 -30.918,-69 -69,-69c-38.082,0 -69,30.918 -69,69c0,38.082 30.918,69 69,69c38.082,0 69,-30.918 69,-69Z" style="fill:#ff7600;"/><path id="core" d="M141,75c0,-36.426 -29.574,-66 -66,-66c-36.426,0 -66,29.574 -66,66c0,36.426 29.574,66 66,66c36.426,0 66,-29.574 66,-66Z" style="fill:#fff;"/><clipPath id="_clip1"><path d="M141,75c0,-36.426 -29.574,-66 -66,-66c-36.426,0 -66,29.574 -66,66c0,36.426 29.574,66 66,66c36.426,0 66,-29.574 66,-66Z"/></clipPath><g clip-path="url(#_clip1)"><g id="cage"><path d="M61.159,34.117c-0,-0 -1.848,5.988 -2.548,7.644c-0.701,1.656 -0.446,2.675 -0,3.503c0.446,0.828 1.528,2.293 1.528,2.293c0,0 -0.7,0.701 -1.019,1.338c-0.318,0.637 -0.489,1.227 0.085,1.8c0.573,0.574 0.699,1.094 0.763,1.859c0.063,0.764 0.792,2.21 0.473,3.229c-0.318,1.019 -0.11,1.775 0.208,3.049c0.319,1.274 0.892,1.975 1.338,3.185c0.446,1.21 0.828,2.484 1.847,3.185c1.019,0.701 2.675,1.147 3.758,0.892c1.083,-0.255 2.039,0.064 2.039,0.064c-0,-0 -0,0.764 -0.51,1.274c-0.51,0.509 -0.892,1.783 -0.764,3.121c0.127,1.338 -3.185,8.536 -3.185,8.536l-0.51,29.046l28.983,3.376l1.847,-40.321l-4.076,-4.459c-0,-0 -2.357,-2.739 -2.676,-5.478c-0.318,-2.739 0.51,-6.243 0.51,-6.243l5.287,-10.956l-19.619,-15.224l-13.759,5.287Z" style="fill:#5f779a;"/><path d="M69.002,66.936c-0,-0 -0.388,4.995 -0.042,6.066c0.347,1.072 0.756,3.025 0.725,4.159c-0.032,1.134 0.577,6.914 0.577,6.914c0,-0 0.504,0.157 0.819,0.661c0.315,0.505 2.867,8.097 3.277,9.232c0.409,1.134 4.19,8.475 4.19,8.475c0,-0 2.867,-4.569 3.308,-5.734c0.441,-1.166 3.119,-6.333 3.56,-7.467c0.441,-1.134 2.615,-6.49 2.804,-7.278c0.189,-0.788 0.567,-2.048 1.04,-2.93c0.472,-0.882 0.914,-1.323 1.008,-2.331c0.095,-1.009 0.032,-1.859 0.347,-2.584c0.315,-0.725 0.787,-1.575 0.913,-2.331c0.126,-0.756 0.756,-3.686 0.378,-4.537c-0.378,-0.851 -1.449,-2.678 -1.858,-3.119c-0,-0 2.205,2.142 2.835,2.709c0.63,0.567 2.174,1.576 3.151,1.954c0.976,0.378 0.787,0.189 1.953,0.787c1.166,0.599 1.323,0.441 1.953,0.977c0.63,0.536 0.788,0.945 1.796,1.512c1.008,0.567 2.142,0.662 3.34,1.576c1.197,0.913 2.804,1.26 3.875,1.732c1.071,0.473 1.827,0.756 2.804,1.166c0.977,0.41 0.913,0.221 2.237,0.725c1.323,0.504 2.048,0.693 2.615,0.756c0.567,0.063 2.103,0.126 2.426,1.197c0.323,1.071 0.606,3.151 0.606,3.812c0,0.662 0.945,3.34 1.103,4.253c0.157,0.914 0.882,3.718 1.008,4.191c0.126,0.472 0.63,2.111 1.008,2.867c0.378,0.756 0.882,2.3 1.008,3.402c0.126,1.103 0.095,5.01 0.032,5.797c-0.063,0.788 -0.032,16.163 -0,17.391c0.031,1.229 0.157,5.01 0.157,5.01c-35.037,26.977 -65.121,26.716 -90.805,2.25c-0,-0 -0.029,-1.449 0.041,-2.203c0.071,-0.755 0.213,-2.075 0.401,-3.89c0.189,-1.816 1.108,-6.72 1.462,-8.04c0.354,-1.32 1.698,-6.177 1.933,-7.262c0.236,-1.084 1.132,-6.177 1.297,-7.238c0.165,-1.061 1.273,-5.847 1.745,-8.016c0.471,-2.169 1.509,-5.494 2.004,-7.569c0.495,-2.074 2.145,-6.53 2.853,-7.026c0.707,-0.495 1.296,-0.613 1.485,-0.33c0,0 0.165,0.165 1.014,0.024c0.849,-0.141 3.065,-0.66 4.668,-1.132c1.603,-0.471 6.225,-1.744 7.403,-2.499c1.179,-0.754 5.4,-2.428 6.343,-3.277c0.943,-0.849 2.587,-2.162 3.203,-2.802Z" style="fill:#6195ce;"/><path d="M87.797,78.916c-0.171,0.147 -0.336,0.289 -0.476,0.44c-0.351,0.378 -0.621,0.648 -1.053,1.053c-0.432,0.405 -0.351,0.297 -0.999,0.864c-0.648,0.567 -0.621,0.621 -1.107,0.918c-0.486,0.297 -0.459,0.162 -1.215,0.486c-0.756,0.324 -0.567,0.243 -1.161,0.513c-0.594,0.27 -0.351,0.351 -1.161,0.513c-0.81,0.162 0.162,0.459 -1.431,0.162c-1.593,-0.297 -2.781,-0.162 -3.51,-0.351c-0.729,-0.189 -0.594,-0.216 -1.161,-0.378c-0.567,-0.162 -0.864,-0.216 -1.35,-0.486c-0.486,-0.27 -0.756,-0.351 -1.296,-0.972c-0.54,-0.621 -0.378,-0.405 -0.81,-0.864c-0.432,-0.459 -0.972,-1.026 -0.972,-1.026l-0.26,-0.417c-0.17,-1.888 -0.439,-5.29 -0.551,-5.051c0,-0 1.756,2.66 1.999,3.011c0.243,0.351 0.378,0.864 0.621,1.107c0.243,0.243 0.297,0.405 0.729,0.702c0.432,0.297 0.243,0.081 0.837,0.486c0.594,0.405 1.107,0.675 1.539,0.837c0.432,0.162 0.54,0.189 1.296,0.297c0.756,0.108 1.161,0.162 2.079,0.135c0.918,-0.027 1.215,0.027 1.62,-0.054c0.405,-0.081 0.864,-0.162 1.188,-0.297c0.324,-0.135 1.485,-0.756 1.836,-0.891c0.351,-0.135 1.026,-1.026 1.323,-1.323c0.297,-0.297 1.08,-0.918 1.242,-1.134c0.162,-0.216 0.972,-0.838 1.215,-1.108c0.243,-0.27 0.594,-0.675 0.837,-0.999c0.243,-0.324 0.621,-0.648 0.81,-1.08c0.189,-0.432 0.648,-1.161 0.783,-1.404c0.135,-0.243 0.432,-0.513 0.486,-0.945c0.054,-0.432 0.378,-1.566 0.378,-1.809c0,-0.243 0.324,-2.43 0.297,-2.673c-0.027,-0.243 -0.243,-0.945 -0.513,-1.674c-0.196,-0.528 -0.432,-0.945 -0.027,-1.161c0.405,-0.216 0.81,-0.351 1.08,0.216c0.27,0.567 0.189,0.729 0.405,1.08c0.216,0.351 0.378,0.027 0.486,0.999c0.108,0.972 0.27,1.35 0.162,2.106c-0.108,0.756 -0.189,1.242 -0.27,1.62c-0.081,0.378 -0.486,1.215 -0.648,1.782c-0.162,0.567 -0.351,0.702 -0.54,1.242c-0.189,0.54 -0.459,1.242 -0.621,1.944c-0.162,0.702 0.054,0.675 -0.27,1.269c-0.194,0.356 -0.426,0.672 -0.656,0.973c-0.905,1.863 -2.588,4.741 -3.448,5.724c-1.134,1.296 -4.077,4.266 -5.886,5.4c-1.809,1.134 -3.834,1.728 -4.59,1.755c-0.756,0.027 -0.432,0.513 -0.432,0.513c-0,-0 0.189,0.27 0.378,0.513c0.189,0.243 0.135,0.351 0.027,0.648c-0.108,0.297 -0.324,0.297 -0.486,0.621c-0.162,0.324 -0.603,0.358 -0.702,0.135c-0.108,-0.243 -0.324,-1.188 -0.54,-1.674c-0.216,-0.486 -0.513,-1.971 -0.513,-1.971c0.216,0.189 1.971,0.567 3.186,0.324c1.215,-0.243 3.375,-1.35 5.049,-2.619c1.674,-1.269 3.402,-3.213 4.401,-4.32c0.727,-0.806 1.769,-2.643 2.366,-3.707Z" style="fill:#718ba6;"/><path d="M63.386,25.258c0,0 -0.27,0.496 -0.947,1.173c-0.676,0.676 -1.398,2.254 -1.804,2.886c-0.405,0.631 -0.631,0.721 -1.127,0.992c-0.496,0.27 -0.947,1.262 -0.947,1.849c0,0.586 -0.271,1.307 -0.316,2.254c-0.045,0.947 0.091,2.21 -0.225,3.337c-0.316,1.128 -0.812,1.534 -0.586,2.21c0.225,0.676 1.443,1.172 1.443,1.172c-0,0 0.27,-1.082 0.36,-1.533c0.091,-0.451 0.947,-1.172 0.947,-1.172c0,-0 0.271,0.451 0.812,0.406c0.541,-0.045 1.263,-0.587 1.308,-1.173c0.045,-0.586 0.27,-0.586 0.225,-1.353c-0.045,-0.766 0.587,0.045 0.587,0.045c-0,0 0.586,0.451 1.037,0.451c-0,0 -0.496,-0.406 -0.406,-1.307c0.09,-0.902 0.992,-2.12 1.804,-1.534c0.811,0.587 2.164,1.669 2.886,1.894c0.721,0.226 1.533,0.361 2.255,0.316c-0,0 -1.624,-0.406 -2.075,-0.992c-0.451,-0.586 -0.992,-1.398 -0.902,-2.21c0.09,-0.811 0.541,0 0.722,0.361c0.18,0.361 1.172,1.443 2.3,1.669c1.127,0.225 2.615,0.18 3.607,0.631c0.992,0.451 1.398,-0.271 1.894,0.902c0.496,1.172 0.947,3.292 1.353,3.833c0.406,0.541 1.037,1.172 1.488,1.353c0,-0 -1.533,-2.03 -1.398,-2.841c0,-0 0.992,0.992 1.263,1.398c0.27,0.405 0.902,0.856 0.902,1.623c-0,0.767 0.721,1.353 0.721,2.3c0,0.947 0.181,1.398 0.181,2.119c-0,0.722 -0.316,1.353 -0.136,1.894c0.181,0.541 1.038,1.669 1.759,1.263c0.722,-0.406 0.316,-1.082 1.173,-1.353c0.856,-0.27 1.488,0.045 2.48,0.18c0.992,0.136 2.705,-0.36 2.705,-0.36c0,-0 -0.947,-0.992 -1.894,-1.083c-0.947,-0.09 -0.811,-1.397 -0.631,-2.029c0.18,-0.631 0.992,-1.533 1.578,-1.758c0.587,-0.226 1.939,-0.497 2.661,0.315c0.722,0.812 1.443,2.616 1.172,3.563c-0.27,0.947 -1.037,2.615 -1.803,3.472c-0.767,0.857 -2.03,2.029 -2.526,2.345c-0.496,0.316 -0.947,0.586 -0.947,0.586c0,0 0,1.037 0.406,1.714c0.406,0.676 1.398,1.353 1.533,2.074c0.136,0.722 0.046,2.074 0.587,2.074c0.541,0 1.623,-0.135 1.668,-0.721c0.045,-0.586 0.316,-1.488 0.812,-2.12c0.496,-0.631 1.488,-2.209 1.488,-2.75c0,-0.541 -0.045,-0.722 0.316,-1.353c0.36,-0.631 0.586,-1.037 1.037,-1.939c0.451,-0.902 0.857,-1.488 1.082,-2.21c0.226,-0.721 0.406,-0.902 0.992,-1.127c0.586,-0.226 0.767,-0.677 0.632,-1.308c-0.136,-0.631 -0.271,-0.812 -0.542,-1.127c-0.27,-0.316 0,-1.218 0.406,-1.534c0.406,-0.315 -0.045,-0.405 -0.09,-0.947c-0.045,-0.541 0.857,-0.811 -0.496,-1.082c-1.353,-0.27 -1.894,-0.225 -1.894,-0.225c0,-0 1.669,-0.857 2.029,-1.038c0.361,-0.18 0.632,-0.676 1.218,-0.225c0.586,0.451 1.082,0.271 1.082,0.271c0,-0 -0.902,-0.812 -1.308,-1.218c-0.405,-0.406 -1.037,-0.812 -1.037,-0.812c0,0 -0.18,-0.631 0.361,-0.676c0.541,-0.045 0.496,-0.586 1.172,-0.226c0,0 -1.533,-0.541 -1.939,-0.496c0,0 0.045,-0.902 -0.09,-1.533c-0.135,-0.631 -0.225,-0.045 -0.947,-0.361c0,0 -0.27,0.406 -0.676,0.767c-0.406,0.361 -0.722,0.045 -0.722,-0.541c0,-0.586 -0.315,-0.406 -0.27,-1.308c0.045,-0.902 0.406,-0.766 -0.045,-1.172c-0.451,-0.406 -1.579,-0.496 -1.579,-0.496c0,-0 -0.811,-0.136 -0.496,-0.451c0.316,-0.316 1.128,-0.992 1.624,-0.902c-0,-0 -0.722,-0.181 -1.173,-0c0,-0 1.849,-3.202 0.767,-5.096c-0,0 -0.992,2.12 -1.624,2.706c-0.631,0.586 -0.947,0.27 -1.352,-0.136c-0.406,-0.405 0.09,-1.172 -0.677,-1.172c-0.766,0 -1.082,0.135 -1.443,-0.316c-0.361,-0.451 -0.451,-2.475 0.135,-2.886c0,0 -1.307,0.357 -1.894,0.898c-0.586,0.541 -2.232,-1.092 -1.668,-2.526c-0,0 -1.173,0.361 -1.488,0.812c-0.316,0.451 -2.435,0.677 -3.247,0.857c-0.812,0.18 -0.09,0.135 -1.173,0.27c-1.082,0.136 -1.127,0.091 -2.119,0.091c-0.992,-0 -0.767,-0.361 -2.029,0.045c-1.263,0.406 -0.947,0.315 -2.345,0.451c-1.398,0.135 -1.218,-0 -2.3,0.09c-1.082,0.09 -1.894,0.09 -2.796,0.27c-0.902,0.181 -1.488,0.1 -2.841,0.546Z" style="fill:#101b1d;"/></g></g></svg>