<?xml version="1.0" encoding="UTF-8" standalone="no"?><!DOCTYPE svg PUBLIC "-//W3C//DTD SVG 1.1//EN" "http://www.w3.org/Graphics/SVG/1.1/DTD/svg11.dtd"><svg width="100%" height="100%" viewBox="0 0 150 150" version="1.1" xmlns="http://www.w3.org/2000/svg" xmlns:xlink="http://www.w3.org/1999/xlink" xml:space="preserve" xmlns:serif="http://www.serif.com/" style="fill-rule:evenodd;clip-rule:evenodd;stroke-linejoin:round;stroke-miterlimit:2;"><path id="base" d="M150,75c0,-41.394 -33.606,-75 -75,-75c-41.394,0 -75,33.606 -75,75c0,41.394 33.606,75 75,75c41.394,0 75,-33.606 75,-75Z" style="fill:#333;"/><path id="outline" d="M144,75c0,-38.082 -30.918,-69 -69,-69c-38.082,0 -69,30.918 -69,69c0,38.082 30.918,69 69,69c38.082,0 69,-30.918 69,-69Z" style="fill:#ff7600;"/><path id="core" d="M141,75c0,-36.426 -29.574,-66 -66,-66c-36.426,0 -66,29.574 -66,66c0,36.426 29.574,66 66,66c36.426,0 66,-29.574 66,-66Z" style="fill:#fff;"/><clipPath id="_clip1"><path d="M141,75c0,-36.426 -29.574,-66 -66,-66c-36.426,0 -66,29.574 -66,66c0,36.426 29.574,66 66,66c36.426,0 66,-29.574 66,-66Z"/></clipPath><g clip-path="url(#_clip1)"><g id="daft"><path d="M15.049,107.072c0,0 1.96,-4.227 2.333,-4.973c0.372,-0.745 1.863,-3.822 2.041,-4.163c0.178,-0.34 1.895,-3.936 2.381,-4.924c0.486,-0.988 2.754,-4.924 3.288,-5.281c0.535,-0.356 1.118,-0.729 2.074,-0.826c0.956,-0.097 4.633,-0.664 5.362,-0.664c0.728,-0 6.009,-0.324 6.722,-0.324c0.713,-0 5.929,-0.324 6.56,-0.356c0.632,-0.033 0.859,-0.146 0.859,-0.146c-0,-0 -0.178,-0.357 0.551,-0.535c0.729,-0.178 1.62,-0.34 2.284,-0.664c0.664,-0.324 1.587,-1.037 2.219,-1.425c0.632,-0.389 1.328,-0.843 1.328,-0.843c0,0 0.34,0.583 0.583,0.697c0.243,0.113 0.26,-0.178 0.486,-0.373c0.227,-0.194 0.47,-0.583 0.616,-0.972c0.146,-0.388 0.923,-1.652 1.134,-1.976c0.21,-0.324 0.745,-0.696 0.955,-0.696c0.211,-0 0.162,-0.486 0.162,-0.486l0.098,-2.576l19.486,-0.609l-1.667,7.955c0,-0 0.276,0.418 0.531,0.653c0.255,0.234 0.326,1.183 0.326,1.591c0,0.409 -0.04,2.49 0.153,2.664c0.194,0.173 1.133,1.01 1.296,1.265c0.164,0.255 1.174,1.286 1.409,1.531c0.234,0.245 0.898,0.775 1.224,0.918c0.327,0.143 1.592,1.357 1.847,1.582c0.255,0.224 0.939,0.561 1.265,0.704c0.327,0.143 1.194,0.541 1.46,0.714c0.265,0.174 1.653,0.929 1.969,1.143c0.316,0.214 0.367,0.204 0.98,0.449c0.612,0.245 0.918,0.286 1.275,0.52c0.357,0.235 0.582,0.358 0.776,0.5c0.193,0.143 0.297,0.216 0.428,0.229c0.132,0.013 0.5,-0.539 0.631,-0.723c0.132,-0.184 1.512,-1.788 1.709,-1.959c0.197,-0.171 1.327,-1.143 1.419,-1.524c0.092,-0.382 0.079,-4.193 0.079,-4.193c0,-0 -0.144,-0.46 0.027,-0.684c0.17,-0.223 0.814,-0.618 0.775,-0.92c-0.039,-0.302 -0.25,-0.539 -0.394,-0.788c-0.145,-0.25 -0.355,-1.052 -0.342,-1.459c0.013,-0.408 0.026,-0.881 -0.145,-0.855c-0.17,0.026 -0.709,-0.092 -0.775,-0.46c-0.066,-0.368 0.197,-1.157 0.197,-1.157l10.633,-4.324l16.365,-5.533l2.195,2.944l-3.733,1.801c-0,-0 0.894,2.168 0.986,2.457c0.092,0.29 0.302,0.184 0.552,0.079c0.249,-0.105 2.681,-0.88 3.18,-0.578c0.5,0.302 1.21,1.998 1.341,2.248c0.132,0.249 1.42,1.524 1.709,1.616c0.289,0.092 4.587,0.342 5.849,0.211c1.262,-0.132 3.102,-0.395 3.509,-0.395c0.408,0 5.442,-0.092 6.822,0.132c1.38,0.223 -1.741,60.32 -1.741,60.32c-98.818,17.608 -120.487,-5.154 -125.642,-36.559Z" style="fill:#181818;"/><path d="M55.4,119.456c-0,0 -0.483,0.02 -0.463,-0.563c0.021,-0.583 -0.06,-3.297 -0.14,-4.041c-0.081,-0.743 -0.543,-1.929 -1.026,-2.512c-0.482,-0.584 -1.065,-1.528 -1.306,-1.89c-0.241,-0.362 -0.362,-1.267 0.301,-1.649c0.664,-0.382 3.157,-1.99 3.8,-2.392c0.643,-0.402 1.467,-0.824 2.272,-0.865c0.804,-0.04 1.427,-0.321 1.99,-0.442c0.563,-0.12 1.005,-0.301 1.608,-0.02c0.603,0.282 1.005,0.824 1.166,1.206c0.161,0.382 0.121,0.724 0.402,1.066c0.282,0.342 0.603,0.764 0.684,1.367c0.08,0.603 -0,0.724 0.261,1.025c0.261,0.302 0.523,1.548 0.161,1.91c-0.362,0.362 -1.608,1.407 -2.272,1.809c-0.663,0.402 -1.668,1.005 -2.372,1.186c-0.704,0.181 -1.287,-0.181 -1.829,-0.14c-0.543,0.04 -1.247,-0.121 -1.589,0.12c-0.341,0.242 -0.482,0.483 -0.904,0.624c-0.422,0.14 -0.463,0.04 -0.563,0.763c-0.101,0.724 -0.442,2.312 -0.181,3.438Zm11.62,-11.298c-0,-0 0.281,0.1 0.482,0.704c0.201,0.603 0.382,1.769 0.242,2.131c-0.141,0.361 0.784,0.502 0.784,0.502c-0,0 1.045,-0.563 1.005,-0.985c-0.04,-0.422 -0.503,-1.086 -0.784,-1.367c-0.282,-0.281 -1.367,-1.528 -1.729,-0.985Zm-18.556,0.603c0,0 -0.523,-0.302 -0.402,-0.523c0.121,-0.221 1.166,-1.749 1.347,-2.03c0.181,-0.282 2.01,-2.614 2.412,-2.714c0.403,-0.101 1.006,-0.201 1.006,0.663c-0,0.865 -0.141,1.589 -0.322,1.97c-0.181,0.382 -0.804,1.146 -1.106,1.287c-0.301,0.141 -1.809,0.483 -2.111,0.704c-0.301,0.221 -0.502,0.402 -0.824,0.643Zm15.761,-4.362c0,-0 0.664,0.542 0.805,1.166c0.14,0.623 0.422,1.206 0.824,1.387c0.402,0.181 1.829,0.522 2.091,0.341c0.261,-0.18 0.382,-1.266 -0.041,-1.789c-0.422,-0.522 -1.246,-1.146 -1.688,-1.186c-0.443,-0.04 -1.83,-0.201 -1.991,0.081Zm-10.514,-1.81c0,0 1.568,1.186 2.031,1.267c0.462,0.08 0.583,-0 0.884,-0.221c0.302,-0.222 2.513,-2.212 2.573,-2.433c0.061,-0.221 0.061,-0.342 -0.241,-0.623c-0.301,-0.282 -0.784,-0.724 -1.266,-0.664c-0.483,0.061 -1.689,0.945 -2.111,1.187c-0.422,0.241 -1.669,1.246 -1.87,1.487Zm6.574,-2.754c0,0 -0.04,0.382 -0.281,0.503c-0.242,0.12 -0.423,0.402 -0.724,0.241c-0.302,-0.161 -0.724,-0.583 -0.724,-0.583c0,-0 1.407,-0.221 1.729,-0.161Zm1.267,-2.372c-0,-0 -0.262,-0.221 -0.684,0.02c-0.422,0.241 -1.97,1.347 -2.151,1.528c-0.181,0.181 -0.04,0.502 0.623,0.321c0.664,-0.18 1.508,-0.12 1.81,0.081c0.301,0.201 0.884,0.301 1.085,0.12c0.201,-0.18 0.523,-1.065 0.382,-1.367c-0.141,-0.301 -0.683,-0.261 -0.965,-0.361c-0.281,-0.101 -0.382,-0.141 -0.1,-0.342Zm-13.675,-38.849c0.006,-0.175 0.065,-1.101 0.669,-1.551c0.67,-0.498 0.876,-0.841 1.443,-0.79c0,0 -0.034,-1.356 0.172,-1.717c0.206,-0.361 0.79,-1.769 1.305,-2.439c0.515,-0.67 0.859,-1.013 0.979,-1.872c0.12,-0.859 0.447,-1.46 0.807,-2.061c0.361,-0.601 0.773,-1.872 1.202,-2.524c0.43,-0.653 1.941,-2.645 2.559,-3.264c0.619,-0.618 1.684,-1.631 2.439,-2.146c0.756,-0.516 3.538,-1.718 4.517,-1.89c0.979,-0.171 5.067,-0.395 5.96,-0.24c0.893,0.155 4.396,0.996 5.152,1.408c0.756,0.413 3.469,2.027 4.208,2.662c0.738,0.636 2.49,2.422 2.902,3.023c0.412,0.601 1.22,2.679 1.34,3.246c0.12,0.567 -2.181,25.762 -2.181,25.762l-8.124,4.603c0,-0 -0.704,-1.048 -0.704,-1.271c-0,-0 -1.408,-0.086 -2.748,-0.121c-1.34,-0.034 -4.311,-0.034 -5.032,0c-0.592,0.029 -2.696,0.224 -3.177,0.739c-0.147,0.157 -0.911,-0.275 -1.306,-0.515c-0.395,-0.241 -6.148,-3.332 -6.509,-4.242c-0.36,-0.911 -0.876,-4.002 -0.876,-4.002c0,-0 -0.532,0.292 -0.893,0.326c-0.36,0.035 -2.147,-0.103 -2.421,-0.257c-0.275,-0.155 -1.495,-2.061 -1.598,-2.422c-0.103,-0.361 -0.429,-0.12 -0.618,-0.292c-0.189,-0.172 -0.412,-2.593 -0.326,-3.95c0.086,-1.357 0.326,-4.036 0.704,-4.156c0.071,-0.023 0.121,-0.038 0.155,-0.047Zm0,0c-0,0.019 -0,0.03 -0,0.03c-0,-0 0.147,-0.068 0,-0.03Z" style="fill:#abacb3;"/><path d="M63.518,71.929l0.029,0.78l7.578,0.165l-0.01,-0.751l-7.597,-0.194Zm-11.426,-8.131c0,0 -0.975,0.283 -0.994,-0.526c-0.02,-0.809 -0.614,-7.322 -0.614,-7.322c-0,0 0.448,0.01 0.448,-0.409c0,-0.419 0.049,-0.848 0.049,-0.848c-0,-0 1.501,-1.024 2.652,-1.199c1.15,-0.176 6.112,-0.819 7.76,-0.878c1.647,-0.058 8.637,-0.058 9.388,-0.068c0.751,-0.01 5.703,0.409 6.473,0.497c0.771,0.088 2.555,0.38 2.555,0.38c-0,0 -0.244,7.634 -0.215,8.394c0.03,0.761 -0.029,0.985 -0.029,0.985c0,0 -0.078,0.614 -0.322,0.643c-0.243,0.03 -7.156,0.02 -7.721,0.01c-0.565,-0.01 -9.496,-0.029 -10.178,-0.049c-0.682,-0.019 -8.319,0.166 -9.252,0.39Z" style="fill:#181818;"/><path d="M81.354,80.208c0,-0 -0.91,-1.742 -1.267,-5.187c-0.356,-3.445 -0.435,-11.444 -0.396,-14.136c0.04,-2.693 0.515,-9.028 1.822,-11.483c1.307,-2.455 3.682,-6.494 6.177,-8.117c2.494,-1.624 4.751,-3.326 7.84,-4.079c3.088,-0.752 7.642,-1.306 9.978,-1.069c2.336,0.238 5.9,1.347 6.969,2.099c1.069,0.752 3.682,2.376 4.039,3.762c0.356,1.385 4.276,27.044 4.276,27.044l-39.438,11.166Z" style="fill:#181818;"/><path d="M68.82,136.614c0.219,0.02 0.768,0.745 0.921,1.074c0.154,0.329 0.987,1.58 0.79,1.865c-0.198,0.285 -1.097,1.557 -2.347,2.018c-1.25,0.46 -3.115,-0.943 -3.312,-1.558c-0.198,-0.614 -0.395,-1.206 -0.263,-1.491c0.131,-0.285 1.096,-0.812 1.469,-0.943c0.373,-0.132 2.018,-1.031 2.742,-0.965Zm-7.567,3.356c-0,-0 1.513,-1.207 1.886,-1.141c0.373,0.066 1.163,1.623 1.163,1.623l-3.049,-0.482Zm13.884,-4.541c0.202,0.491 0.592,1.426 0.109,2.062c-0.482,0.636 -1.074,1.097 -1.776,1.294c-0.702,0.198 -1.557,0.527 -1.93,0.154c-0.373,-0.373 -0.571,-1.185 -0.571,-1.645c0,-0.461 -0.109,-0.571 -0.219,-0.768c-0.11,-0.197 -0.153,-0.636 0.285,-0.833c0.439,-0.198 1.952,-0.571 2.61,-0.549c0.658,0.022 1.338,-0.088 1.492,0.285Zm-12.048,-12.253c-0.135,-0.296 -0.351,-0.543 -0.527,-0.789c-0.233,-0.326 -0.116,-0.606 -0.233,-1.026c-0.116,-0.419 -0.256,-0.606 -0.606,-0.256c-0.35,0.35 -0.28,0.187 -0.21,0.909c0.07,0.723 0.21,2.495 -0.046,2.798c-0.257,0.303 -0.373,0.116 -0.886,0.326c-0.513,0.21 -0.14,0.28 -0.537,0.443c-0.396,0.163 -0.909,0.14 -1.608,0.093c-0.7,-0.046 -1.073,-0.07 -1.189,-0.326c-0.117,-0.256 0.046,-0.373 0.489,-0.35c0.443,0.024 0.49,-0.046 1.259,-0.209c0.77,-0.164 0.98,-0.164 1.306,-0.304c0.326,-0.139 0.536,-0.699 0.536,-0.932c0,-0.233 -0.536,-0.257 -1.096,-0.047c-0.559,0.21 -2.471,0.886 -2.774,0.979c0,0 -0.303,-1.142 -0.21,-1.701c0.094,-0.56 0.35,-1.189 0.35,-1.189c-0,-0 -0.699,0.233 -0.909,0.512c-0.21,0.28 -0.863,0.84 -0.793,1.632c0.07,0.793 0.023,1.399 0.886,2.378c0,0 0.723,1.049 0.28,1.259c-0.443,0.21 -0.723,0.257 -0.979,1.236c-0.257,0.979 -0.746,3.916 -0.63,4.383c0.117,0.466 0.49,1.585 0.77,2.028c0.279,0.443 0.652,0.816 1.072,1.818c0.42,1.003 0.863,2.169 0.863,2.169l-0.956,-0.304c-0,0 -1.119,-1.981 -1.259,-2.494c-0.14,-0.513 -0.583,-1.562 -0.653,-2.285c-0.07,-0.722 -0.233,-2.564 -0,-3.52c0.233,-0.956 0.863,-3.171 1.096,-3.31c0.233,-0.14 0.303,0.116 0.513,-0.117c0.209,-0.233 -0.21,-0.28 -0.49,-0.56c-0.28,-0.279 -1.002,-1.328 -0.979,-1.725c0.023,-0.396 0.583,-2.518 0.909,-2.867c0.326,-0.35 0.303,-0.653 0.303,-0.653c0,-0 0.07,-0.979 0.396,-1.422c0.327,-0.443 1.539,-1.306 1.889,-1.329c0.35,-0.023 1.282,0.023 1.282,0.023c0,0 0.816,-0.466 0.979,-0.792c0.163,-0.327 1.352,-0.583 1.352,-0.583c0,-0 0.816,-0.35 1.189,-0.28c0.373,0.07 0.63,0.07 0.63,0.07c-0,0 1.212,-1.795 1.678,-2.425c0.467,-0.629 2.075,-1.701 2.611,-2.028c0.537,-0.326 1.772,-1.026 2.075,-0.979c0,0 0.21,-0.49 0.56,-0.723c0.35,-0.233 0.559,-0.303 1.049,-0.233c0.49,0.07 2.028,0.513 2.611,0.793c0.583,0.28 1.888,1.142 2.098,1.492c0.21,0.35 0.024,1.026 -0.606,1.166c-0.629,0.139 -1.329,0.139 -2.168,-0.257c-0.839,-0.396 -0.699,-0.396 -1.189,-0.186c-0.49,0.209 -0.443,0.582 -0.723,1.072c-0.28,0.49 -0.419,1.259 -0.513,1.725c-0.093,0.466 -0.163,0.303 -0.699,0.77c-0.536,0.466 -0.629,0.489 -0.653,0.815c-0.023,0.327 0.117,0.723 -0.443,1.026c-0.559,0.303 -0.443,0.14 -0.909,0.77c-0.466,0.629 -0.653,0.746 -0.769,1.142c-0.117,0.396 -0,0.49 0.233,0.816c0.233,0.326 0.163,0.979 -0.117,1.632c-0.28,0.653 -0.699,1.096 -1.049,1.305c-0.35,0.21 -0.769,0.303 -1.445,0.35c-0.676,0.047 -1.865,0.093 -2.122,-0.256c-0.256,-0.35 -0.093,-0.723 -0.186,-1.166c-0.013,-0.061 -0.03,-0.12 -0.05,-0.177c0.693,-0.077 2.352,-0.248 3.523,-0.266c0,0 -0.781,-0.093 -1.652,-0.102c-0.704,-0.007 -1.466,0.041 -1.924,0.238Zm-1.354,9.446c0.401,0.145 0.395,1.009 0.351,1.447c-0.044,0.439 0.285,1.887 0.614,2.26c0.329,0.372 0.768,0.965 0.198,1.184c-0.57,0.219 -3.268,0.921 -3.751,0.79c-0.482,-0.132 -1.425,-1.645 -1.447,-2.238c-0.022,-0.592 0.065,-2.018 0.46,-2.303c0.395,-0.285 2.852,-1.403 3.575,-1.14Zm6.866,-1.492c0.372,0.118 0.526,0.943 0.68,1.36c0.153,0.417 0.109,1.426 0.219,1.799c0.11,0.373 0.351,0.57 0.285,0.68c-0.066,0.109 -0.373,0.416 -0.943,0.658c-0.57,0.241 -3.509,0.68 -3.97,0.263c-0.461,-0.417 -1.119,-1.689 -0.965,-2.457c0.153,-0.767 0.789,-1.886 1.36,-1.952c0.57,-0.066 2.917,-0.482 3.334,-0.351Zm3.07,3.554c0,-0 1.097,-0.198 1.777,-0.527c0.68,-0.329 1.864,-0.965 2.237,-1.645c0.373,-0.68 0.417,-1.426 0.241,-1.798c-0.175,-0.373 -0.592,-1.229 -1.338,-1.229c-0.745,0 -3.246,0.198 -3.706,0.549c-0.461,0.351 -0.834,0.614 -0.812,1.272c0.022,0.658 0.373,0.877 0.658,0.877c0.285,0 -0.153,0.154 -0.307,0.483c-0.153,0.329 0.132,1.228 0.527,1.491c0.394,0.263 0.723,0.527 0.723,0.527Zm-12.261,-7.655c0,-0 -0.482,3.378 1.799,4.869c-0,0 0.219,0.351 -0.197,0.351c-0.417,-0 -1.843,0.702 -2.04,0.899c-0.198,0.198 -2.545,0.373 -3.027,-2.083c-0.483,-2.457 0.68,-3.159 1.93,-3.554c1.25,-0.395 1.535,-0.482 1.535,-0.482Zm11.554,-2.531c-0.199,-0.01 -0.386,-0.017 -0.565,-0.035c-0.417,-0.044 -0.789,-0.088 -0.789,-0.308c-0,-0.219 0.394,-1.754 0.658,-2.39c0.263,-0.636 0.548,-1.799 0.855,-2.545c0.307,-0.745 1.294,-1.601 1.952,-1.952c0.658,-0.351 1.952,-1.338 3.224,-1.996c1.272,-0.658 1.141,-0.044 1.382,0.154c0.241,0.197 2.369,2.588 2.873,2.939c0.505,0.351 2.808,2.851 3.027,3.093c0.22,0.241 2.15,2.741 2.303,3.005c0.154,0.263 0.132,0.679 -0.131,0.811c-0.264,0.132 -1.865,1.535 -2.501,1.842c-0.636,0.308 -2.347,2.304 -3.092,2.852c-0.746,0.548 -1.382,1.272 -1.602,1.447c-0.219,0.176 -0.329,0.439 -0.614,0.439c-0.285,0 -1.228,-0.526 -1.228,-0.526c0.965,-0.385 0.526,-0.987 0.219,-1.141c-0.307,-0.153 -0.965,-0.395 -1.535,-0.592c-0.57,-0.197 -0.746,-0.526 -0.746,-0.526c0,-0 0.088,-0.066 0.417,-0.154c0.329,-0.088 0.461,-0.79 0.483,-1.031c0.021,-0.241 -0.044,-0.482 -0.395,-0.702c-0.351,-0.219 -0.11,-0.592 -0.154,-1.162c-0.044,-0.57 -0.724,-1.097 -1.053,-1.228c-0.149,-0.06 -0.487,-0.084 -0.863,-0.102c0.317,0.118 0.587,0.249 0.732,0.321c0.307,0.153 0.811,0.877 0.899,1.426c0.088,0.548 -0.439,1.074 -0.702,1.513c-0.263,0.439 -1.447,0.855 -1.798,0.987c-0.351,0.132 -1.649,0.604 -2.04,0.548c-0.461,-0.065 -0.943,-0.636 -1.097,-1.009c-0.153,-0.373 -0.153,-0.877 0,-1.074c0.154,-0.198 0.461,-0.307 0.461,-0.307c-0,-0 0.131,-0.066 -0.307,-0.198c-0.439,-0.131 -0.527,-0.526 -0.505,-1.031c0.022,-0.504 0.22,-0.833 0.834,-1.074c0.36,-0.142 0.887,-0.238 1.398,-0.294Zm-3.219,5.251c0.113,-0.489 0.132,-1.887 0.044,-2.282c-0.088,-0.394 -0.351,-1.754 -0.351,-2.105c0,-0.351 0.044,-0.373 -0.351,-0.395c-0.395,-0.022 -2.062,0.395 -2.632,0.636c-0.57,0.241 -1.118,0.702 -1.689,0.746c-0.57,0.044 -0.614,-0.263 -1.009,-0.132c-0.394,0.132 -0.658,1.097 -0.723,1.492c-0.066,0.394 -0.22,0.921 0.065,1.052c0.285,0.132 0.483,0.242 0.483,0.242c-0,-0 -0.241,0.373 -0.198,0.724c0.044,0.351 0.373,0.855 0.593,1.03c0.219,0.176 0.68,0.242 0.965,0.242c0.285,-0 0.416,-0.242 0.767,-0.154c0.351,0.088 0.593,0.154 0.856,0.176c0.263,0.022 1.272,-0.264 1.864,-0.483c0.592,-0.219 1.25,-0.504 1.316,-0.789Zm15.555,-9.221c-0.064,-0.223 3.354,2.481 3.354,2.481c-0,0 -3.662,-3.815 -4.038,-4.209c-0.376,-0.393 -2.703,-3.422 -2.703,-3.422c-0,0 2.943,2.806 3.233,3.166c0.291,0.359 3.833,4.739 3.833,4.739l1.163,1.557c0,-0 -4.739,-3.952 -4.842,-4.312Zm-23.582,-1.405c0,0 -0.251,0.286 -0.501,0.612c-0.251,0.327 -0.501,0.694 -0.501,0.857c-0,0 0.233,0.723 1.002,-1.469Zm6.388,1.283c-0,-0 -0.326,-0.234 -0.772,-0.376c-0.446,-0.143 -1.012,-0.196 -1.489,0.166c-0,-0 1.188,0.419 2.261,0.21Zm-1.958,-3.194c-0,-0 -1.469,-0.094 -1.935,0.699c-0,0 0.233,0.35 0.489,0.513c0.257,0.163 0.933,-0.629 1.446,-1.212Zm1.585,-1.516c-0,0 -0.082,0.199 -0.117,0.455c-0.035,0.256 -0.023,0.571 0.164,0.804c-0,0 -0.024,-0.746 -0.047,-1.259Zm4.476,-3.87c0,0 -0.653,0 -1.072,0.583c-0.42,0.583 -0.164,0.839 -0.164,0.839c0,0 0.28,-0.093 0.443,-0.489c0.164,-0.396 0.49,-0.676 0.793,-0.933Zm56.814,-46.13c-0.024,0.818 -0.15,5.099 -0.216,5.859c-0.073,0.84 -0.438,1.023 -0.438,1.023l-0.329,0.84c-0,0 -0.585,0.878 -1.097,1.28c-0.511,0.402 -1.535,1.096 -1.535,1.096c0,-0 -0.877,0.585 -1.608,0.731c-0.731,0.146 -2.631,0.694 -2.631,0.694c0,0 0,-1.973 -0.402,-2.083c0,0 -4.678,1.17 -6.03,1.718c-1.352,0.548 -6.176,1.681 -8.04,2.302c-1.864,0.621 -7.163,2.229 -8.113,2.595c-0.95,0.365 -3.545,1.315 -3.801,1.352c-0.256,0.037 -0.987,0.256 -1.352,0.329c-0.365,0.073 -3.874,1.06 -5.482,1.608c-1.608,0.548 -4.495,1.681 -5.116,1.352c-0,0 -1.206,-3.179 -1.279,-3.837c-0.073,-0.658 -0.256,-1.718 -0.256,-1.718l-0.475,-1.717c-0,-0 2.631,-1.17 3.983,-1.718c1.352,-0.548 8.625,-2.851 10.306,-3.362c1.681,-0.512 8.588,-3.034 10.087,-3.618c1.498,-0.585 4.093,-1.243 4.239,-2.814c0.146,-1.572 0.292,-9.868 0.402,-11.11c0.11,-1.243 0.183,-6.98 2.083,-9.027c1.9,-2.046 4.788,-3.508 5.153,-3.801c0.365,-0.292 -0.219,-2.704 -0.548,-3.362c-0.329,-0.658 -4.014,-3.105 -5.914,-3.543c0,-0 3.356,-0.294 4.269,-0.111c0.914,0.182 1.718,0.731 2.12,1.096c0.402,0.365 3.618,3.253 3.618,3.253c-0,-0 1.169,1.717 1.279,2.887c0,-0 3.143,3.837 3.764,5.153c0.621,1.315 2.229,5.957 2.485,6.468c0.256,0.512 1.133,1.023 1.243,1.535c0.109,0.512 0.475,4.641 0.402,5.592c-0.073,0.95 0.256,2.558 -0.475,2.923c-0.136,0.068 -0.231,0.111 -0.296,0.135Zm0.003,-0.134c-0.009,0.007 -0.079,0.067 -0.113,0.111c-0.033,0.045 -0.03,0.075 0.11,0.023l0.003,-0.134Z" style="fill:#f4a243;"/></g></g></svg>