<?xml version="1.0" encoding="UTF-8" standalone="no"?><!DOCTYPE svg PUBLIC "-//W3C//DTD SVG 1.1//EN" "http://www.w3.org/Graphics/SVG/1.1/DTD/svg11.dtd"><svg width="100%" height="100%" viewBox="0 0 150 150" version="1.1" xmlns="http://www.w3.org/2000/svg" xmlns:xlink="http://www.w3.org/1999/xlink" xml:space="preserve" xmlns:serif="http://www.serif.com/" style="fill-rule:evenodd;clip-rule:evenodd;stroke-linejoin:round;stroke-miterlimit:2;"><path id="base" d="M150,75c0,-41.394 -33.606,-75 -75,-75c-41.394,0 -75,33.606 -75,75c0,41.394 33.606,75 75,75c41.394,0 75,-33.606 75,-75Z" style="fill:#333;"/><path id="outline" d="M144,75c0,-38.082 -30.918,-69 -69,-69c-38.082,0 -69,30.918 -69,69c0,38.082 30.918,69 69,69c38.082,0 69,-30.918 69,-69Z" style="fill:#ff7600;"/><path id="core" d="M141,75c0,-36.426 -29.574,-66 -66,-66c-36.426,0 -66,29.574 -66,66c0,36.426 29.574,66 66,66c36.426,0 66,-29.574 66,-66Z" style="fill:#fff;"/><clipPath id="_clip1"><path d="M141,75c0,-36.426 -29.574,-66 -66,-66c-36.426,0 -66,29.574 -66,66c0,36.426 29.574,66 66,66c36.426,0 66,-29.574 66,-66Z"/></clipPath><g clip-path="url(#_clip1)"><g id="eminem"><path d="M78.763,85.13c-4.793,-2.727 -9.463,-4.053 -15.412,-20.013l0.039,-3.949c-0,0 0.038,-1.648 -0.384,-1.955c-0.421,-0.307 -0.766,0.192 -1.265,-0.153c-0.498,-0.345 -0.958,-1.151 -1.227,-1.841c-0.268,-0.69 -0.651,-1.687 -0.728,-2.53c-0.077,-0.843 -0.077,-0.958 -0.153,-1.61c-0.077,-0.652 0.038,-2.377 0.038,-2.377c-0,-0 -0.307,-0.537 -0.307,-1.035c0,-0.499 -0.191,-0.997 -0.498,-1.457c-0.307,-0.46 -0.882,-0.997 -0.345,-1.227c0.537,-0.23 0.958,-0.268 0.958,-0.268c0,-0 -0.115,-1.496 -0.306,-2.071c-0.192,-0.575 -0.499,-3.067 -0.614,-3.527c-0.115,-0.46 0.192,-8.933 0.192,-8.933c1.929,-3.843 4.575,-6.38 8.243,-7.054c9.262,-2.022 15.811,0.873 20.166,7.745l3.105,7.667c-0,0 0.345,0.767 0.652,0.537c0.306,-0.23 0.421,-0.613 1.15,-0.613c0.728,-0 1.227,-0.192 1.725,0.69c0.498,0.881 0.767,3.105 0.652,3.718c-0.115,0.614 -0.614,2.569 -0.652,3.489c-0.038,0.92 -0.345,1.955 -0.728,2.876c-0.384,0.92 -0.921,2.223 -1.687,2.798c-0.767,0.575 -1.917,0.499 -1.917,0.499l0.268,0.843l1.84,7.783c0.381,13.207 -5.104,18.989 -12.805,21.968Z" style="fill:#dfc2b0;"/><path d="M59.785,47.55c0,0 -1.432,-4.067 -1.56,-4.775c-0.129,-0.708 -0.129,-2.381 -0.322,-3.025c-0.193,-0.644 -0.258,-1.802 -0.258,-2.768c0,-0.966 -0.129,-1.931 0.129,-2.961c0.257,-1.03 0.515,-2.51 0.837,-3.025c0.322,-0.515 0.579,-1.996 1.287,-2.832c0.708,-0.837 1.481,-2.511 1.931,-3.09c0.451,-0.579 0.966,-0.837 1.996,-1.674c1.029,-0.836 1.094,-1.223 1.737,-1.544c0.644,-0.322 1.481,-0.902 2.318,-0.966c0.837,-0.064 1.545,-0.322 2.059,-0.579c0.515,-0.258 1.867,-0 3.09,0.128c1.223,0.129 2.253,0.129 3.09,0.194c0.837,0.064 0.901,-0.258 1.673,0.128c0.773,0.387 0.837,0.837 1.674,1.095c0.837,0.257 2.446,0.901 2.446,0.901c-0,-0 1.223,0.45 1.867,0.708c0.643,0.257 1.48,1.351 1.931,1.802c0.45,0.451 1.673,1.802 2.059,2.51c0.387,0.708 1.738,2.189 1.738,3.541c0,1.351 0.773,3.282 0.773,4.377c-0,1.094 0.515,2.51 0.515,3.282c-0,0.773 0.134,2.258 0.134,2.258c-0,-0 -0.842,-0.198 -1.229,0.446c-0.386,0.644 -0.579,0.644 -0.836,1.352c-0.258,0.708 -0.065,4.441 -0.065,4.441c0,-0 -0.579,-1.352 -0.836,-2.124c-0.258,-0.773 -0.515,-0.386 -0.58,-1.288c-0.064,-0.901 0.515,-1.094 -0.064,-1.931c-0.579,-0.836 -0.258,-0.708 -0.901,-1.48c-0.644,-0.772 -1.674,-2.575 -2.382,-3.025c-0.708,-0.451 -0.386,-0.193 -1.094,-0.58c-0.708,-0.386 -0.644,-1.48 -0.644,-1.48c0,-0 0.837,-0.386 0.515,-1.03c-0.322,-0.644 -0.45,-1.995 -1.03,-2.961c-0.579,-0.965 -1.03,-1.738 -2.06,-2.253c-1.029,-0.515 -2.252,-0.901 -3.54,-0.772c-1.287,0.129 -3.411,0.257 -4.763,0.45c-1.352,0.193 -2.832,0.129 -4.313,0.387c-1.48,0.257 -0.708,-0.065 -2.768,0.386c-2.059,0.45 -1.609,-0 -2.574,0.643c-0.966,0.644 -1.223,0.58 -1.481,1.223c-0.257,0.644 -0.836,1.223 -0.901,1.867c-0.064,0.644 -0.386,1.416 -0.45,2.639c-0.065,1.223 -0.194,1.545 -0.194,2.317c0,0.773 0.065,1.159 0.194,2.446c0.128,1.288 0.337,4.904 0.852,6.642Z" style="fill:#453a36;"/><path d="M31.504,125.611c-0,-0 0.066,-1.421 0.066,-2.048c-0,-0.628 0.198,-2.048 0.66,-2.676c0.463,-0.627 2.312,-1.883 2.544,-2.312c0.231,-0.429 0.528,-0.991 0.429,-1.817c-0.099,-0.825 0.132,-4.558 0.099,-5.285c-0.033,-0.726 -0.099,-5.615 0.231,-6.54c0.331,-0.925 1.685,-4.294 1.553,-4.888c-0.132,-0.595 -1.718,-1.52 -1.619,-2.114c0.099,-0.595 1.256,-1.916 1.355,-2.907c0.099,-0.991 -0.099,-4.096 0.132,-4.757c0.231,-0.66 1.057,-1.09 1.123,-2.08c0.066,-0.991 0.462,-6.309 0.726,-7.532c0.265,-1.222 1.553,-5.417 1.586,-6.209c0.033,-0.793 -0.231,-1.057 -0.132,-1.355c0.099,-0.297 0.462,-0.759 0.627,-1.156c0.166,-0.396 0.199,-1.42 0.298,-1.816c0.099,-0.397 0.462,-0.066 0.726,-0.661c0.265,-0.595 1.322,-1.222 2.048,-1.652c0.727,-0.429 3.502,-1.783 4.757,-2.312c1.255,-0.528 6.804,-2.774 7.762,-2.84c0.958,-0.066 2.048,-0.364 2.841,-0.694c0.792,-0.33 4.063,-1.057 4.063,-1.057c-0,-0 0.264,0.694 0.528,1.387c0.264,0.694 1.189,2.147 1.883,2.841c0.693,0.694 2.279,2.444 2.279,2.444c-0,0 -0.033,1.09 0.099,1.652c0.132,0.561 0.297,1.849 0.528,2.708c0.232,0.859 0.892,2.874 1.256,3.667c0.363,0.792 0.958,2.114 1.651,2.741c0.694,0.628 1.751,1.289 2.808,1.685c1.057,0.396 2.708,0.495 3.897,0.561c1.19,0.066 3.337,-0.33 3.865,-0.429c0.529,-0.099 2.874,-1.189 3.501,-1.85c0.628,-0.66 1.751,-2.015 2.18,-2.973c0.43,-0.957 1.553,-3.534 1.586,-4.591c0.033,-1.057 0.363,-5.054 0.33,-5.945c-0.033,-0.892 -0.099,-9.348 -0.099,-9.348c0,-0 0.099,-0.33 0.463,0.495c0.363,0.826 0.858,3.039 1.486,3.336c0.628,0.298 3.765,0.925 4.492,1.157c0.727,0.231 2.114,0.759 2.775,0.891c0.66,0.132 1.949,0.496 2.708,0.826c0.76,0.33 2.511,0.925 3.237,1.189c0.727,0.265 2.445,0.925 3.204,1.222c0.76,0.298 2.577,1.057 3.436,1.52c0.858,0.462 2.246,1.156 2.741,1.519c0.496,0.364 1.916,1.189 2.312,1.553c0.397,0.363 2.213,1.684 2.544,2.147c0.33,0.462 0.528,0.594 0.429,0.958c0,-0 0.661,0.198 0.859,0.627c0.198,0.43 0.495,2.973 0.33,3.468c-0.165,0.496 -0.264,1.289 -0.198,1.685c0.066,0.396 0.628,0.76 0.925,1.552c0.297,0.793 0.892,3.138 0.793,3.634c-0.099,0.495 -0.133,0.892 -0.033,1.255c0.099,0.363 1.156,1.387 1.321,2.246c0.165,0.859 0.099,3.402 0.033,3.832c-0.066,0.429 0.561,0.495 0.627,0.66c0.067,0.166 -0.627,0.793 -0.66,1.156c-0.033,0.364 0.826,1.289 0.925,1.982c0.099,0.694 0.892,3.436 0.991,4.195c0.099,0.76 0.033,3.799 -0.298,4.393c0,0 0.661,0.694 0.793,1.123c0.132,0.43 0.76,1.454 0.76,2.313c-0,0.858 0.66,2.774 0.76,3.6c0.099,0.826 0.264,2.675 0.759,3.799c0.496,1.123 1.586,3.435 1.586,3.435c-32.476,33.547 -65.211,38.648 -98.267,8.39Z" style="fill:#1c1a1b;"/><path d="M78.611,109.415c0.184,0.016 0.259,0.38 0.37,0.491c0.111,0.111 0.444,0.12 0.454,0.277c0.009,0.158 -0.315,0.454 -0.407,0.555c-0.093,0.102 -0.084,0.815 0.018,0.944c0.102,0.13 1.111,0.296 1.212,0.148c0.102,-0.148 0.269,-0.444 0.417,-0.444c0.148,0 0.324,0.38 0.444,0.481c0.12,0.102 0.398,0.204 0.398,0.398c-0,0.195 -0.361,0.398 -0.463,0.5c-0.102,0.102 -0.074,0.472 -0.268,0.491c-0.195,0.018 -0.333,-0.269 -0.435,-0.408c-0.102,-0.138 -1.083,-0.203 -1.203,-0.018c-0.12,0.185 -0.222,3.017 -0.037,3.155c0.185,0.139 0.453,0.213 0.463,0.408c0.009,0.194 -0.38,0.305 -0.537,0.444c-0.158,0.139 -0.139,0.314 -0.37,0.333c-0.232,0.018 -0.296,-0.194 -0.398,-0.287c-0.102,-0.092 -0.565,-0.194 -0.565,-0.398c0,-0.203 0.38,-0.324 0.463,-0.472c0.083,-0.148 0.231,-2.943 0.037,-3.109c-0.194,-0.167 -1.083,-0.167 -1.24,0.009c-0.157,0.176 -0.296,0.389 -0.472,0.37c-0.176,-0.018 -0.278,-0.213 -0.407,-0.361c-0.13,-0.148 -0.444,-0.212 -0.444,-0.462c-0,-0.25 0.36,-0.287 0.416,-0.417c0.056,-0.129 0.222,-0.601 0.398,-0.583c0.176,0.019 0.278,0.195 0.389,0.306c0.111,0.111 1.184,0.046 1.212,-0.093c0.028,-0.139 0.176,-0.962 0.018,-1.073c-0.157,-0.111 -0.398,-0.158 -0.407,-0.333c-0.009,-0.176 0.37,-0.223 0.509,-0.389c0.139,-0.167 0.222,-0.481 0.435,-0.463Zm-9.184,-29.22c-0.14,-0.528 -0.272,-0.969 0.121,-0.969c0.394,-0 0.485,0.393 0.576,0.757c0.091,0.363 0.303,1.242 0.333,1.605c0.03,0.363 0.151,0.636 0.333,1.151c0.182,0.515 -0.03,0.605 0.303,1.272c0.333,0.666 0.394,0.575 0.485,1.06c0.09,0.484 0.151,0.969 0.242,1.241c0.091,0.273 0.182,1.151 0.303,1.696c0.121,0.545 0.121,0.485 0.212,1.03c0.09,0.545 0.272,0.666 0.393,1.242c0.121,0.575 0.152,0.696 0.303,1.181c0.152,0.484 0.03,0.091 0.242,0.757c0.212,0.666 0.212,1.363 0.394,1.877c0.182,0.515 0.424,0.576 0.424,0.97c0,0.393 -0.121,0.121 0.061,0.817c0.181,0.697 0.242,0.666 0.454,1.363c0.212,0.697 0.091,0.666 0.333,1.302c0.242,0.636 0.697,1.454 0.787,2.181c0.091,0.727 0.303,0.999 0.485,1.575c0.182,0.575 0.242,0.726 0.394,1.211c0.151,0.484 0.817,2.302 0.969,2.695c0.151,0.394 0.212,0.485 0.303,0.788c0.091,0.302 0.484,0.393 0.484,0.393c0,0 0.455,0.152 0.727,0c0.273,-0.151 0.606,-0.333 0.727,-0.908c0.121,-0.576 0.242,-0.909 0.484,-1.363c0.243,-0.454 0.212,0.03 0.455,-0.939c0.242,-0.969 0.121,-1.09 0.303,-1.363c0.181,-0.272 0.636,-1.15 0.817,-1.726c0.182,-0.575 0.364,-0.818 0.545,-1.211c0.182,-0.394 0.122,-0.364 0.424,-1.03c0.303,-0.666 0.576,-1.181 0.636,-1.787c0.061,-0.605 0.121,-1.06 0.303,-1.574c0.182,-0.515 0.212,-0.455 0.485,-1.182c0.272,-0.726 0.333,-0.817 0.454,-1.302c0.121,-0.484 0.212,-0.575 0.273,-1.272c0.06,-0.696 0.363,-1.332 0.454,-1.665c0.091,-0.334 0.212,-0.485 0.363,-1c0.152,-0.515 0.394,-1.272 0.545,-1.908c0.152,-0.636 0.031,-0.181 0.303,-0.969c0.273,-0.787 0.182,-0.606 0.394,-1.423c0.212,-0.818 0.242,-1 0.424,-1.969c0.182,-0.969 0.182,-1.272 0.272,-1.574c0.091,-0.303 0.122,-0.455 0.243,-0.848c0.121,-0.394 0.424,-1.454 0.424,-1.454l0.333,-0.364c-0,0 0.272,0.424 0.272,0.758c0,0.333 -0.03,0.757 -0.121,1.241c-0.091,0.485 -0.181,0.667 -0.272,1.121c-0.091,0.454 -0.061,0.757 -0.424,1.605c-0.364,0.848 -0.394,0.727 -0.485,1.151c-0.091,0.424 -0.121,0.363 -0.182,0.817c-0.06,0.455 0.152,0.182 -0.121,0.909c-0.272,0.727 -0.242,0.606 -0.363,1.12c-0.121,0.515 -0,0.091 -0.152,0.727c-0.151,0.636 -0.151,0.485 -0.242,1.03c-0.091,0.545 0.424,-0.909 -0.181,0.787c-0.606,1.696 -0.546,1.666 -0.636,1.939c-0.091,0.272 -0.122,0.302 -0.182,0.666c-0.061,0.363 0.03,0.242 -0.152,0.636c-0.181,0.393 -0.302,0.636 -0.424,0.908c-0.121,0.273 -0.272,0.515 -0.272,0.788c-0,0.272 0.212,0.121 -0.091,0.575c-0.303,0.454 -0.363,0.515 -0.575,1.121c-0.212,0.605 -0.122,0.363 -0.334,1.15c-0.212,0.788 -0.06,0.546 -0.333,1.333c-0.272,0.787 -0.181,0.787 -0.363,1.242c-0.182,0.454 -0.303,0.454 -0.666,1.181c-0.364,0.727 -0.273,0.393 -0.545,1.029c-0.273,0.636 -0.334,0.757 -0.485,1.212c-0.151,0.454 -0.454,1.544 -0.818,2.332c-0.363,0.787 -0.242,0.454 -0.424,0.969c-0.181,0.515 0.212,0.666 -0.303,0.908c-0.514,0.243 0.061,0.303 -0.575,0.273c-0.636,-0.03 -1.302,0.242 -1.666,-0.091c-0.363,-0.333 -0.424,-0.212 -0.696,-0.909c-0.273,-0.696 -0.394,-0.878 -0.576,-1.665c-0.181,-0.788 -0.03,-0.666 -0.454,-1.878c-0.424,-1.211 -0.484,-1.241 -0.666,-1.968c-0.182,-0.727 -0.212,-0.879 -0.363,-1.545c-0.152,-0.666 0.151,-0.121 -0.303,-1.12c-0.455,-1 -0.333,-0.727 -0.667,-1.605c-0.333,-0.879 -0.787,-2.817 -0.938,-3.513c-0.152,-0.697 -0.031,-0.455 -0.334,-1.242c-0.302,-0.787 -0.212,-0.727 -0.514,-1.393c-0.303,-0.666 -0.364,-1.333 -0.545,-2.029c-0.182,-0.697 -0.212,-0.697 -0.424,-1.514c-0.212,-0.818 -0.334,-1.484 -0.364,-1.848c-0.03,-0.363 -0.333,-2.18 -0.333,-2.18c-0,-0 -0.303,-0.545 -0.454,-0.969c-0.152,-0.424 -0.455,-1.969 -0.576,-2.423Z" style="fill:#d9d6d0;"/></g></g></svg>