<?xml version="1.0" encoding="UTF-8" standalone="no"?><!DOCTYPE svg PUBLIC "-//W3C//DTD SVG 1.1//EN" "http://www.w3.org/Graphics/SVG/1.1/DTD/svg11.dtd"><svg width="100%" height="100%" viewBox="0 0 150 150" version="1.1" xmlns="http://www.w3.org/2000/svg" xmlns:xlink="http://www.w3.org/1999/xlink" xml:space="preserve" xmlns:serif="http://www.serif.com/" style="fill-rule:evenodd;clip-rule:evenodd;stroke-linejoin:round;stroke-miterlimit:2;"><path id="base" d="M150,75c0,-41.394 -33.606,-75 -75,-75c-41.394,0 -75,33.606 -75,75c0,41.394 33.606,75 75,75c41.394,0 75,-33.606 75,-75Z" style="fill:#333;"/><path id="outline" d="M144,75c0,-38.082 -30.918,-69 -69,-69c-38.082,0 -69,30.918 -69,69c0,38.082 30.918,69 69,69c38.082,0 69,-30.918 69,-69Z" style="fill:#ff7600;"/><path id="core" d="M141,75c0,-36.426 -29.574,-66 -66,-66c-36.426,0 -66,29.574 -66,66c0,36.426 29.574,66 66,66c36.426,0 66,-29.574 66,-66Z" style="fill:#fff;"/><clipPath id="_clip1"><path d="M141,75c0,-36.426 -29.574,-66 -66,-66c-36.426,0 -66,29.574 -66,66c0,36.426 29.574,66 66,66c36.426,0 66,-29.574 66,-66Z"/></clipPath><g clip-path="url(#_clip1)"><g id="metric"><path d="M75.357,71.058c-8.465,-2.327 -12.09,-7.613 -14.957,-13.362l4.045,-3.93c1.141,-1.11 2.395,-20.67 4.125,-27.6c1.412,-2.476 3.598,-4.807 6.663,-6.973c10.47,3.84 14.834,11.072 16.93,19.564l-6.159,23.555l-10.647,8.746Z" style="fill:#fcd8c4;"/><path d="M45.455,96.788c0,0 -0.309,2.783 -0.433,3.556c-0.123,0.772 -0.123,4.235 -0.247,4.915c-0.124,0.68 -0.649,4.575 -0.742,5.657c-0.093,1.082 0,4.236 0.062,4.947c0.062,0.711 0.773,5.039 0.804,5.595c0.031,0.557 0.773,4.854 0.865,5.719c0.093,0.866 0.371,4.019 0.371,4.761c0,0.742 0.217,4.73 0.217,4.73l9.429,3.555c-0,0 -0.711,-2.504 -1.484,-3.802c-0.773,-1.299 -0.618,-2.226 -0.804,-3.154c-0.185,-0.927 -0.495,-6.121 -0.556,-7.512c-0.062,-1.391 -0.031,-5.503 0.123,-6.585c0.155,-1.082 0.433,-6.275 0.402,-7.234c-0.031,-0.958 0.062,-5.626 0.217,-6.368c0.154,-0.742 0.216,-1.36 0.989,-2.04c0.773,-0.68 0.031,-4.236 0.031,-4.236l-9.244,-2.504Zm52.524,-3.606c0,0.279 1.855,7.111 2.071,8.131c0.217,1.02 0.309,2.875 0.34,3.833c0.031,0.959 0.186,11.129 0.309,11.779c0.124,0.649 0.217,1.804 -0.185,2.226c-0.402,0.421 -6.09,-11.697 -6.09,-11.697l0.278,-12.273c0,-0 3.277,-2.277 3.277,-1.999Z" style="fill:#fddbc0;"/><path d="M37.927,91.724c0,-0 0.35,1.005 0.918,1.486c0.569,0.481 1.924,1.574 2.755,2.011c0.83,0.438 3.497,2.274 4.153,2.492c0.656,0.219 2.492,1.356 3.322,1.705c0.831,0.35 2.405,1.224 3.148,1.312c0.743,0.087 1.661,0.218 1.661,0.218c0,0 0.27,3.894 0.294,4.356c0.025,0.461 -0.024,5.954 -0.024,7.047c-0,1.094 0.219,2.406 0.437,3.013c0.219,0.608 0.656,3.84 0.341,4.691c-0.316,0.85 -0.535,3.499 -0.316,4.179c0.218,0.681 0.923,2.795 0.753,3.937c-0.17,1.142 -0.729,7.752 -0.778,8.093c-0.048,0.34 0.828,2.731 0.828,2.731c17.101,5.859 33.791,5.616 49.883,-3.515c-0,0 -0.499,-2.814 -0.888,-3.788c-0.39,-0.975 -1.311,-3.844 -1.612,-4.358c-0.301,-0.514 -0.762,-1.452 -0.868,-1.895c-0.106,-0.443 -0.496,-3.454 -0.602,-4.411c-0.107,-0.956 -0.992,-3.79 -1.471,-4.623c-0.478,-0.832 -1.257,-1.488 -1.452,-2.373c-0.195,-0.886 -0.496,-2.409 -0.762,-2.923c-0.265,-0.514 -1.275,-2.852 -1.417,-3.312c-0.141,-0.461 -0.212,-0.673 -0.177,-1.01c0.036,-0.337 0.053,-1.63 0.177,-2.002c0.124,-0.372 -0.035,-6.199 -0.212,-6.713c-0,0 -0.337,-0.407 -0.142,-0.549c0.195,-0.142 0.939,-0.496 0.939,-0.496c-0,0 2.515,-0.992 2.922,-1.169c0.408,-0.177 2.02,-0.903 2.64,-1.24c0.62,-0.336 2.533,-1.151 2.958,-1.47c0.425,-0.319 0.584,-0.62 0.992,-0.62c0.407,0 0.974,-0.425 1.062,-0.496c0.089,-0.071 0.054,-0.62 0.302,-0.726c0.248,-0.106 1.098,-0.797 1.31,-0.939c0.213,-0.142 0.443,-0.39 0.372,-0.638c-0.071,-0.248 -0.301,-0.761 -0.46,-1.098c-0.16,-0.336 -0.762,-1.133 -0.815,-1.789c-0.053,-0.655 -0.425,-2.675 -0.655,-3.365c-0.231,-0.691 -0.957,-3.578 -1.116,-4.074c-0.16,-0.496 -0.939,-3.702 -1.028,-4.092c-0.088,-0.39 -1.151,-4.287 -1.275,-4.783c-0.124,-0.495 -1.328,-3.985 -1.452,-4.286c-0.124,-0.301 -1.24,-2.746 -2.604,-3.932c-1.364,-1.187 -2.037,-1.683 -2.533,-1.825c-0.496,-0.142 -2.055,-0.708 -2.445,-0.797c-0.389,-0.088 -1.612,-0.762 -1.93,-0.868c-0.319,-0.106 -1.843,-0.761 -2.268,-0.744c-0.425,0.018 -3.507,-2.054 -3.772,-2.196c-0.266,-0.142 -0.55,-1.115 -1.187,-1.205c-0,0 0.035,0.371 -0.018,0.761c-0.053,0.39 -0.549,3.489 -0.903,4.127c-0.355,0.638 -1.152,2.303 -1.417,2.693c-0.266,0.389 -2.764,2.408 -3.189,2.621c-0.425,0.213 -1.204,0.213 -2.037,0.195c-0.832,-0.018 -1.7,0.088 -2.55,0.372c-0.851,0.283 -1.329,0.638 -2.285,0.744c-0.957,0.106 -2.179,0.088 -2.728,-0.284c-0.549,-0.372 -2.143,-2.479 -2.639,-3.046c-0.496,-0.567 -1.364,-0.974 -1.736,-1.665c-0.372,-0.691 -0.479,-0.709 -0.603,-1.453c-0.124,-0.744 -1.824,-3.79 -1.824,-3.79l-6.093,1.753c-0,0 -1.949,0.957 -2.374,1.134c-0.425,0.177 -1.966,0.797 -2.462,1.134c-0.496,0.336 -1.789,1.718 -2.179,2.143c-0.389,0.425 -1.293,1.523 -1.558,1.984c-0.266,0.46 -0.727,1.062 -0.992,1.612c-0.266,0.549 -0.762,1.363 -0.904,1.789c-0.141,0.425 -0.212,0.814 -0.265,1.169c-0.053,0.354 -0.213,1.116 -0.319,1.399c-0.106,0.283 -0.514,0.903 -0.62,1.169c-0.106,0.266 -0.549,1.187 -0.903,1.612c-0.355,0.425 -0.62,0.956 -0.691,1.24c-0.071,0.283 -0.284,1.045 -0.248,1.541c0.035,0.496 -0.089,0.956 -0.195,1.24c-0.106,0.283 -0.532,1.275 -0.602,1.576c-0.071,0.301 -0.089,0.691 -0.213,1.152c-0.124,0.46 -0.283,1.115 -0.354,1.257c-0.071,0.142 -0.354,0.868 -0.549,1.24c-0.195,0.372 -0.461,0.868 -0.514,1.399c-0.053,0.532 -0.089,0.939 -0.159,1.134c-0.071,0.195 -0.213,0.407 -0.337,0.709c-0.124,0.301 -0.212,0.584 -0.336,0.885c-0.124,0.301 -0.815,1.754 -0.992,2.09c-0.178,0.337 -0.248,0.656 -0.496,1.099c-0.248,0.442 -0.248,0.496 -0.443,0.868c-0.195,0.371 -0.745,0.997 -1.179,1.446Z" style="fill:#fafafa;"/><path d="M74.574,22.166c-0.113,0.213 -2.114,1.208 -2.488,1.558c-0.375,0.351 -1.607,1.825 -1.97,2.404c-0.362,0.58 -1.365,3.758 -1.462,4.579c-0.096,0.822 -0.012,3.601 -0.144,4.168c-0.133,0.568 -0.399,1.124 -0.568,1.341c-0.169,0.218 -0.133,0.761 -0.145,1.1c-0.012,0.338 0.012,1.522 0.108,1.933c0.097,0.411 0.363,1.003 0.629,1.244c0.265,0.242 0.814,0.833 1.025,1.647c0.211,0.813 0.181,2.17 0.482,2.893c0.301,0.723 0.994,2.17 1.838,3.134c0.844,0.964 2.291,2.079 3.134,2.561c0.844,0.483 2.863,1.959 3.195,2.14c-0,-0 -1.417,0.512 -2.923,0.151c-1.507,-0.362 -2.863,-1.085 -2.863,-1.085c-0,-0 0.602,1.476 0.964,1.928c0.362,0.452 1.567,2.17 1.567,2.17c0,0 -1.778,-1.748 -2.019,-2.109c-0.241,-0.362 -1.838,-1.869 -1.838,-1.869c-0,0 -0.181,0.874 0.09,1.477c0.271,0.603 0.211,3.526 -0.633,4.038c-0.844,0.512 -2.674,0.083 -2.674,0.083c0,-0 2.205,-0.043 2.374,-2.078c0.17,-2.035 -0.508,-3.731 -0.508,-3.731c-0,0 0.424,1.739 -0.297,2.671c-0.721,0.933 -3.307,2.544 -4.24,2.544c-0.933,0 -1.865,-0.551 -1.865,-0.551c-0,-0 -0.339,-0.085 -1.654,0.381c-1.314,0.467 -4.804,1.335 -4.804,1.335c-0,0 1.879,-1.419 2.345,-1.631c0.467,-0.212 1.399,-1.06 1.399,-1.06c0,-0 0.679,-0.975 0.848,-1.484c0.17,-0.509 0.297,-0.848 0.891,-1.23c0.593,-0.381 1.473,-1.067 1.593,-1.427c0.12,-0.36 0.381,-1.22 0.641,-2.021c0.26,-0.8 0.2,-2.14 0.34,-2.96c0.14,-0.82 0.54,-2.741 0.54,-3.721c-0,-0.98 -0.32,-3.401 -0.14,-4.421c0.18,-1.02 0.02,-2.581 0.08,-3.401c0.06,-0.82 0.36,-5.261 0.68,-6.121c0.32,-0.86 0.52,-2.721 1.34,-3.801c0.82,-1.08 2.701,-3.601 3.201,-4.161c0.5,-0.56 1.72,-1.58 2.521,-1.86c0.8,-0.281 2.2,-0.921 3.32,-1.081c1.121,-0.16 2.681,-0.3 3.441,-0.28c0.76,0.02 2.721,0.12 3.481,0.52c0.76,0.4 1.64,0.6 2.26,1.181c0.62,0.58 3.141,3.14 3.641,3.64c0.5,0.501 2.461,4.261 3.061,5.782c0.6,1.52 2.18,5.401 2.64,6.741c0.461,1.341 1.661,5.502 1.661,6.762c-0,1.26 -0.14,2.02 -0,3.141c0.14,1.12 0.24,2.4 0.08,3.7c-0.16,1.301 0.08,3.201 0.16,4.041c0.08,0.841 0.18,1.921 0.8,2.781c0.62,0.86 1.36,1.94 1.921,2.661c0.56,0.72 2.8,2.26 2.82,3.32c0.02,1.061 -0.2,2.481 -0.3,2.901c-0.1,0.42 -0.16,1.44 0.04,1.92c0.2,0.481 1.28,0.06 1.68,0.02c0.401,-0.04 0.961,-0.22 0.961,-0.22c-0,0 -1.161,0.841 -1.581,0.881c-0.42,0.04 -1.02,0.06 -1.26,-0.401c-0.24,-0.46 -0.58,-1.22 -0.7,-1.66c-0.12,-0.44 -0.22,-0.68 -0.26,-1.56c-0.04,-0.88 -0.08,-1.321 -0.34,-1.881c-0.26,-0.56 -0.4,-0.96 -0.66,-1.32c-0.26,-0.36 -0.44,-0.98 -0.581,-0.8c-0.14,0.18 -0.44,0.22 -0.3,0.78c0.14,0.56 0.18,0.6 0.3,0.96c0.121,0.36 0.381,1.801 0.381,1.801c-0,-0 -0.374,-0.692 -0.954,-1.272c-0.58,-0.58 -0.8,-0.821 -1.16,-1.101c-0.36,-0.28 -0.781,-0.56 -1.161,-0.68c-0.38,-0.12 -0.786,-0.247 -1.146,-0.327c-0.361,-0.08 -0.361,-1.021 -0.361,-1.021c0,-0 0,-0.841 -0.14,-1.061c-0.14,-0.22 -0.82,-1.28 -0.82,-1.28c0,0 -0.06,0.64 -0.06,1.06c0,0.42 0,0.841 0.18,1.401c0.18,0.56 0.8,2.52 0.8,2.52c0,0 -1.36,0.66 -1.72,-0.44c-0.36,-1.1 -0.6,-2.74 -0.66,-3.061c-0.06,-0.32 -0.38,-1.56 -0.38,-1.56c-0,0 -0.14,0.78 -0.36,1.12c-0.22,0.34 -1.04,0.54 -0.96,1.441c0.08,0.9 0.22,1.84 0.26,2.68c0.04,0.84 0.22,1.741 0.16,2.201c-0.06,0.46 0.02,6.381 -0.14,6.761c-0.16,0.38 -0.4,2.481 -0.661,2.661c-0.26,0.18 -0.36,-0.24 -0.42,-0.62c-0.06,-0.38 -0.06,-2.561 -0.12,-3.261c-0.06,-0.7 0.16,-2.921 0.14,-3.421c-0.02,-0.5 -0.06,-1.96 -0.08,-2.38c-0.02,-0.42 -0.04,-1.501 -0.04,-1.901c0,-0.4 -0.14,-0.96 -0.18,-1.44c-0.04,-0.48 -0.08,-0.6 -0.08,-0.6c0,-0 0.08,0.18 -0.3,0.34c-0.38,0.16 -0.54,0.4 -0.54,0.4c0,-0 -0.28,-0.3 -0.38,-0c-0.1,0.3 -0.08,0.4 -0.06,0.8c0.02,0.4 0.08,1.1 0.12,1.42c0.04,0.321 -0.22,1.141 -0.48,0.541c-0.26,-0.601 -0.6,-1.261 -0.74,-1.761c-0.14,-0.5 -0.2,-1.08 -0.26,-1.72c-0.06,-0.64 -0.16,-2.761 -0.2,-3.381c-0.04,-0.62 -0.4,-1.22 -0.621,-1.42c-0.22,-0.2 -0.7,-0.54 -0.94,-0.8c-0.24,-0.261 -0.52,-0.841 -0.54,-1.161c-0.02,-0.32 0.04,-1.18 0.04,-1.58c0,-0.4 0.08,-1.4 0.08,-1.78c0,-0.381 0.06,-1.101 0.08,-1.401c0.02,-0.3 -0.06,-0.6 0.14,-0.96c0.2,-0.36 0.56,-0.9 0.8,-1.36c0.24,-0.46 0.581,-0.901 0.641,-1.241c0.06,-0.34 0.54,-2.14 0.4,-2.48c-0.14,-0.34 -0.18,-1.04 0.02,-1.12c0.2,-0.08 0.9,-0.14 1.24,-0.28c0.34,-0.141 0.98,-0.661 0.98,-0.661c0,0 -0.48,-0.16 -0.34,-0.64c0.14,-0.48 0.22,-0.78 0.24,-1.2c0.02,-0.42 -0.38,-1.16 -0.38,-1.16c0,-0 -0.3,0.36 -0.44,0.86c-0.14,0.5 -0.72,0.6 -0.72,0.6c-0,0 -0.14,-1.1 -0.1,-1.64c0.04,-0.54 0.14,-1.801 0.1,-2.201c-0.04,-0.4 0.02,-0.84 -0.24,-1.2c-0.26,-0.36 -1.321,-1.681 -1.561,-1.921c-0.24,-0.24 -1.32,-1.34 -1.96,-1.86c-0.64,-0.52 -1.44,-1.24 -1.88,-1.6c-0.441,-0.36 -2.321,-2.541 -2.561,-2.761c-0.24,-0.22 -0.78,-0.88 -1.16,-1.24c-0.38,-0.36 -0.58,-0.68 -0.881,-1.021c-0.3,-0.34 -0.62,-0.66 -0.92,-0.96c-0.3,-0.3 -0.48,-0.68 -0.72,-0.84c-0.24,-0.16 -0.499,-0.337 -1.15,0.882Z" style="fill:#fbdfc6;"/></g></g></svg>