<?xml version="1.0" encoding="UTF-8" standalone="no"?><!DOCTYPE svg PUBLIC "-//W3C//DTD SVG 1.1//EN" "http://www.w3.org/Graphics/SVG/1.1/DTD/svg11.dtd"><svg width="100%" height="100%" viewBox="0 0 150 150" version="1.1" xmlns="http://www.w3.org/2000/svg" xmlns:xlink="http://www.w3.org/1999/xlink" xml:space="preserve" xmlns:serif="http://www.serif.com/" style="fill-rule:evenodd;clip-rule:evenodd;stroke-linejoin:round;stroke-miterlimit:2;"><path id="base" d="M150,75c0,-41.394 -33.606,-75 -75,-75c-41.394,0 -75,33.606 -75,75c0,41.394 33.606,75 75,75c41.394,0 75,-33.606 75,-75Z" style="fill:#333;"/><path id="outline" d="M144,75c0,-38.082 -30.918,-69 -69,-69c-38.082,0 -69,30.918 -69,69c0,38.082 30.918,69 69,69c38.082,0 69,-30.918 69,-69Z" style="fill:#ff7600;"/><path id="core" d="M141,75c0,-36.426 -29.574,-66 -66,-66c-36.426,0 -66,29.574 -66,66c0,36.426 29.574,66 66,66c36.426,0 66,-29.574 66,-66Z" style="fill:#fff;"/><clipPath id="_clip1"><path d="M141,75c0,-36.426 -29.574,-66 -66,-66c-36.426,0 -66,29.574 -66,66c0,36.426 29.574,66 66,66c36.426,0 66,-29.574 66,-66Z"/></clipPath><g clip-path="url(#_clip1)"><g id="mom-jeans"><path d="M87.579,61.151c-0.012,0.924 -0.365,1.205 -0.641,1.796c-0.28,0.601 -0.08,2.002 -0.12,3.403c-0.04,1.402 1.202,3.644 1.202,3.644c-2.442,10.523 -6.448,16.745 -11.452,20.22c-0.573,3.966 -13.95,-16.488 -12.853,-23.864c0.257,-1.725 -0.08,-3.003 -0.08,-3.003c-0.44,-0.12 -0.961,-0.32 -1.482,-0.841c-0.52,-0.52 -0.28,-1.001 -0.56,-1.521c-0.28,-0.521 -0.881,-0.601 -1.161,-1.281c-0.281,-0.681 1.041,-4.044 1.041,-4.044c-0.604,-0.79 1.796,-6.495 3.083,-7.368c1.437,-0.975 10.05,-6.727 10.05,-6.727c4.856,-2.732 11.297,4.145 12.721,12.51l2.091,-0.509c0,-0 1.021,5.287 0.288,6.178c-0.501,0.608 -1.272,1.14 -2.127,1.407Z" style="fill:#f6b16f;"/><path d="M63.802,64.638c0.214,0.184 0.671,2.964 0.796,3.507c0.126,0.542 0.939,3.464 1.357,4.027c0.417,0.564 2.274,2.734 2.462,3.193c0.188,0.459 0.543,1.586 0.981,2.441c0.438,0.856 1.127,1.857 1.586,2.525c0.459,0.668 1.231,1.523 1.586,2.066c0.354,0.542 0.563,1.481 1.356,1.753c0.793,0.271 1.231,0.772 2.462,0.647c1.231,-0.126 0.856,0.271 1.941,-0.376c1.085,-0.647 1.648,-0.981 1.982,-1.753c0.334,-0.772 2.17,-3.192 2.504,-3.86c0.334,-0.668 0.271,-0.96 0.73,-1.732c0.46,-0.772 1.044,-1.669 1.211,-2.149c0.167,-0.48 0.083,-1.649 0.188,-1.816c-0,0 0.542,-1.022 1.043,-1.732c0.501,-0.709 0.835,-1.44 0.897,-2.045c0.063,-0.605 0.313,-2.566 0.313,-2.566c0,-0 1.023,0.354 1.44,0.897c0.417,0.542 0.647,0.626 1.356,1.377c0.71,0.751 1.273,1.273 1.732,1.523c0.459,0.251 3.214,0.814 4.257,1.211c1.043,0.396 2.462,0.396 3.067,0.605c0.606,0.209 0.96,0.209 2.797,0.96c1.836,0.751 2.629,1.085 2.984,1.711c0.354,0.626 2.065,2.65 2.337,3.234c0.271,0.584 0.563,1.252 1.064,2.024c0.501,0.772 1.252,2.191 1.44,2.546c0.187,0.355 1.606,3.673 1.669,3.902c0.063,0.23 0.918,1.252 1.127,1.836c0.208,0.585 0.77,7.917 0.748,8.688c-0.022,0.771 0.22,1.322 0.198,2.049c-0.022,0.726 -0.22,3.391 -0.176,5.065c0.044,1.674 0.132,2.357 0.044,3.26c-0.088,0.903 0.572,6.079 0.705,7.511c0.132,1.431 -0.045,2.753 -0,4.118c0.044,1.366 -0.022,2.445 0.044,3.106c0.066,0.66 -0.177,2.797 -0.177,2.797c0,-0 -0.088,0.264 -0.11,1.718c-0.022,1.454 0.198,1.696 0.132,3.039c-0.066,1.344 -0.088,2.643 -0.088,2.643l0.044,2.687c-26.804,19.577 -54.23,22.581 -82.751,-3.619l0.158,-2.209c0,-0 0.316,-2.105 0.316,-2.578c-0,-0.474 -0.316,-2.683 -0.158,-4.577c0.158,-1.894 0.473,-2.736 0.579,-4.156c0.105,-1.421 0.263,-3.104 0.42,-4.946c0.158,-1.841 0,-2.525 0.158,-4.313c0.158,-1.789 0.316,-1.105 0.263,-4.051c-0.052,-2.946 0.316,-10.47 0.053,-11.68c-0.263,-1.21 -0.421,-2.262 -0.316,-3.261c0.105,-1 0.105,-1.315 0.369,-2.21c0.263,-0.894 0.263,-2.367 0.683,-3.104c0.421,-0.736 0.632,-1.578 1.579,-2.472c0.947,-0.895 1.104,-0.737 1.841,-1.473c0.737,-0.737 0.473,-0.474 1.683,-1.737c1.21,-1.262 1.053,-1.262 1.737,-1.788c0.683,-0.526 0.947,-0.895 1.946,-1.578c1,-0.684 1.684,-1.263 2.841,-1.631c1.157,-0.369 1.526,-0.369 2.473,-0.789c0.947,-0.421 1.578,-0.316 2.84,-1.158c1.263,-0.842 3.052,-1.789 4.262,-1.894c1.21,-0.105 3.893,-0.894 4.945,-1.631c1.052,-0.736 0.842,-0.684 1.578,-1.42c0.737,-0.737 0.684,-1.052 1.158,-1.578c0.473,-0.526 0.893,-1.148 1.314,-0.784Z" style="fill:#424737;"/><path d="M61.268,60.604c0,0 -1.13,-0.224 -1.528,-1.003c-0.398,-0.78 -1.062,-4.231 -1.128,-4.862c-0.067,-0.63 -0.249,-1.941 0.448,-2.488c0.697,-0.548 1.758,-1.212 2.306,-1.328c0.547,-0.116 0.946,0.664 0.929,1.245c-0.017,0.58 0.083,2.837 0.116,3.733c0.033,0.896 0.083,1.294 0,2.123c-0.083,0.83 -0.133,1.062 -0.348,0.946c-0.216,-0.116 -0.913,-0.531 -1.195,-0.298c-0.282,0.232 -1.158,1.06 0.4,1.932Z" style="fill:#f2ac49;"/><path d="M85.667,50.733c0,0 0.231,1.74 0.38,2.32c0.149,0.581 0.415,0.996 0.581,1.776c0.166,0.779 0.199,-0.067 0.414,1.493c0.216,1.559 0.365,1.576 0.415,2.472c0.05,0.896 -0.033,1.51 0,2.124c0.033,0.613 0.282,0.365 0.515,-0.432c0.232,-0.796 0.215,-0.58 0.531,-1.294c0.315,-0.713 0.547,-0.995 0.779,-1.443c0.233,-0.448 1.25,-1.48 0.802,-2.342c-0.448,-0.863 -0.58,-0.888 -1.028,-1.236c-0.448,-0.349 -0.598,-0.465 -1.261,-1.178c-0.664,-0.714 -1.481,-2.028 -2.128,-2.26" style="fill:#f2ac49;"/><path d="M89.926,59.251c0,0 -0.382,-0.733 -0.382,-1.338c-0,-0.606 0.175,-1.371 -0.224,-2.168c-0.398,-0.797 -0.573,-1.18 -1.131,-1.674c-0.558,-0.494 -0.622,-0.924 -1.052,-1.323c-0.431,-0.398 -2.551,-2.869 -2.885,-3.06c-0.335,-0.191 -0.925,-0.893 -2.056,-1.562c-1.132,-0.67 -1.738,-1.387 -3.093,-1.658c-1.355,-0.271 -5.961,-0.255 -7.125,-0.175c-1.163,0.079 -5.212,0.94 -6.535,1.833c-1.323,0.892 -2.099,3.329 -2.789,4.14c-0.343,0.403 -1.399,0.926 -2.531,0.91c-1.132,-0.016 -1.123,-0.416 -1.358,-0.496c-0.289,-0.098 0.542,-4.427 0.542,-4.427c-0,0 0.271,-1.849 0.637,-2.582c0.367,-0.733 1.164,-3.698 1.69,-4.383c0.526,-0.686 0.924,-1.259 1.291,-1.865c0.366,-0.606 3.044,-3.108 3.985,-3.682c0.94,-0.574 0.733,-0.67 2.12,-1.227c1.386,-0.558 1.386,-0.59 3.028,-0.877c1.642,-0.287 3.22,-1.036 4.144,-1.116c0.925,-0.08 2.056,-0.08 3.045,-0.032c0.988,0.048 2.98,0.239 3.745,0.797c0.766,0.558 0.893,0.877 1.387,1.275c0.494,0.399 0.574,0.542 1.18,0.893c0.605,0.351 1.673,0.924 2.327,1.721c0.653,0.797 1.514,1.531 1.737,2.073c0.223,0.541 0.367,2.008 0.271,2.725c-0.095,0.717 -0.35,0.861 -0.159,1.769c0.191,0.909 0.191,0.734 0.446,1.754c0.255,1.02 0.622,3.283 0.654,4.272c0.032,0.988 -0,1.036 0.175,1.864c0.175,0.829 0.335,0.415 0.367,1.658c0.031,1.243 -0,1.753 -0.032,2.232c-0.032,0.478 -0.064,1.785 -0.176,2.343c-0.111,0.558 -0.589,0.988 -1.243,1.386Z" style="fill:#4e3f2b;"/></g></g></svg>