<?xml version="1.0" encoding="UTF-8" standalone="no"?><!DOCTYPE svg PUBLIC "-//W3C//DTD SVG 1.1//EN" "http://www.w3.org/Graphics/SVG/1.1/DTD/svg11.dtd"><svg width="100%" height="100%" viewBox="0 0 150 150" version="1.1" xmlns="http://www.w3.org/2000/svg" xmlns:xlink="http://www.w3.org/1999/xlink" xml:space="preserve" xmlns:serif="http://www.serif.com/" style="fill-rule:evenodd;clip-rule:evenodd;stroke-linejoin:round;stroke-miterlimit:2;"><path id="base" d="M150,75c0,-41.394 -33.606,-75 -75,-75c-41.394,0 -75,33.606 -75,75c0,41.394 33.606,75 75,75c41.394,0 75,-33.606 75,-75Z" style="fill:#333;"/><path id="outline" d="M144,75c0,-38.082 -30.918,-69 -69,-69c-38.082,0 -69,30.918 -69,69c0,38.082 30.918,69 69,69c38.082,0 69,-30.918 69,-69Z" style="fill:#ff7600;"/><path id="core" d="M141,75c0,-36.426 -29.574,-66 -66,-66c-36.426,0 -66,29.574 -66,66c0,36.426 29.574,66 66,66c36.426,0 66,-29.574 66,-66Z" style="fill:#fff;"/><clipPath id="_clip1"><path d="M141,75c0,-36.426 -29.574,-66 -66,-66c-36.426,0 -66,29.574 -66,66c0,36.426 29.574,66 66,66c36.426,0 66,-29.574 66,-66Z"/></clipPath><g clip-path="url(#_clip1)"><g id="say-anything"><path d="M73.821,23.35c0,-0 -10.619,3.207 -10.775,4.982c-0.155,1.775 -0.467,3.893 -0.529,4.703c-0.062,0.809 -0.529,1.962 -0.249,3.083c0.28,1.121 0.311,1.027 0.28,2.242c-0.031,1.214 0.187,3.176 0.218,4.141c0.031,0.966 0.312,3.239 0.592,4.329c0.28,1.09 1.37,3.021 1.931,3.675c0.56,0.654 0.685,0.996 0.903,1.214c0.218,0.218 0.342,6.509 0.342,6.509c4.791,5.804 10.883,6.891 18.996,0.654c-0.96,-4.768 -1.778,-9.468 -1.152,-13.484c-0,-0 2.694,-3.738 2.522,-6.384c-0.281,-4.328 -11.998,-16.745 -13.079,-15.664Z" style="fill:#c3a6b2;"/><path d="M84.293,48.955c0.006,-0.01 0.413,-0.234 0.703,-0.053c0.503,0.315 1.479,1.983 1.731,2.519c0.252,0.535 0.315,1.857 0.976,2.927c0.661,1.071 7.648,85.694 7.648,85.694c-13.071,3.882 -26.022,4.454 -38.8,0.263l3.814,-82.598c0,-0 2.657,-3.743 5.844,-5.856c0.059,0.08 0.129,0.175 0.237,0.327c0.361,0.505 0.24,0.601 0.625,1.467c0.385,0.866 0.385,1.106 0.89,1.78c0.505,0.673 0.698,1.203 1.203,1.66c0.505,0.457 0.745,1.924 1.659,2.164c0.915,0.241 2.237,0.698 2.983,1.059c0.746,0.361 0.217,0.457 1.636,0.337c1.419,-0.121 1.683,-0.554 2.429,-0.866c0.746,-0.313 2.502,-1.54 3.007,-2.045c0.505,-0.505 1.01,-0.962 1.419,-1.636c0.409,-0.673 0.577,-1.371 0.866,-1.852c0.289,-0.481 1.154,-1.106 1.01,-1.756c-0.144,-0.649 -0.12,-2.02 -0.144,-2.357c-0.024,-0.337 -0.193,-0.312 0.264,-1.178Z" style="fill:#c5cfd9;"/><path d="M60.957,140.988c-0,0 0.641,-7.225 0.934,-7.308c0.293,-0.084 1.055,0.44 1.767,0.858c0.712,0.419 0.419,0.252 1.739,0.838c1.319,0.586 1.465,0.754 2.282,1.026c0.817,0.272 0.943,0.126 1.068,0.587c0.126,0.46 0.475,0.244 1.056,0.143c0.779,-0.134 0.953,-0.514 1.79,-0.284c0.838,0.231 1.53,0.07 1.928,0.07c0.398,0 0.917,-0.136 1.315,0.22c0.398,0.356 0.948,0.416 1.555,0.081c0.607,-0.335 2.545,-1.079 3.299,-1.205c0.754,-0.125 1.754,-0.037 2.801,-0.079c1.047,-0.042 2.057,-0.29 2.581,-0.604c0.523,-0.315 0.952,-0.248 1.371,-0.416c0.419,-0.167 5.382,0.775 5.382,0.775l-0.712,5.571c-10.294,3.479 -20.309,2.838 -30.156,-0.273Z" style="fill:#3b3230;"/><path d="M40.586,125.847c-0.223,-0.806 -0.44,-1.578 -0.57,-1.82c-0.277,-0.515 -0.555,-1.664 -0.673,-2.298c-0.119,-0.635 -0.397,-1.031 -0.357,-1.982c0.04,-0.951 -0.079,-2.061 -0.119,-2.853c-0.04,-0.793 0.04,-1.189 -0.158,-1.903c-0.199,-0.713 -0.397,-2.1 -0.516,-2.694c-0.119,-0.595 -0.277,-1.823 -0.079,-3.012c0.198,-1.189 0.04,-6.381 0.079,-7.292c0.04,-0.912 0.119,-2.695 0.357,-4.042c0.238,-1.348 0.674,-2.616 0.634,-3.845c-0.04,-1.228 -0.079,-1.981 -0.119,-3.13c-0.039,-1.15 1.07,-4.161 1.427,-4.796c0.357,-0.634 1.387,-2.219 1.347,-2.932c-0.039,-0.713 -0.356,-1.387 0.238,-2.457c0.595,-1.07 0.753,-2.695 0.793,-3.607c0.039,-0.911 0.792,-2.694 1.149,-3.844c0.357,-1.149 0.594,-1.545 0.832,-2.259c0.238,-0.713 0.674,-1.704 1.031,-2.417c0.356,-0.713 0.277,-1.07 1.07,-1.902c0.792,-0.832 1.149,-1.031 1.624,-1.744c0.476,-0.713 0.516,-0.713 0.991,-1.546c0.476,-0.832 0.515,-0.951 1.268,-1.664c0.753,-0.713 1.229,-0.832 1.268,-1.347c0.04,-0.516 0.04,-1.11 0.635,-1.189c0.594,-0.08 1.307,-0.119 1.624,-0.278c0.317,-0.158 0.516,-0.158 0.793,-1.506c0.277,-1.347 1.268,-1.03 2.14,-1.149c0.872,-0.119 1.823,-0.198 2.497,-0.396c0.673,-0.198 0.554,-0.397 0.951,-0.595c0.396,-0.198 0.832,-0.634 1.189,-0.832c0.356,-0.198 1.268,-1.189 1.268,-1.189c-0,0 0.396,-0.436 0.951,-0.713c0.555,-0.278 1.11,-0.555 1.664,-0.674c0.412,-0.088 -0.118,0.951 -0.158,1.387c-0.04,0.436 0.04,0.832 -0.278,1.149c-0.317,0.318 -2.258,1.189 -2.338,2.061c-0.079,0.872 0.08,4.994 0.159,5.945c0.079,0.951 0.515,8.362 0.515,9.471c0,1.11 0.357,9.194 0.357,10.066c-0,0.872 0.594,4.597 0.555,5.945c-0.04,1.347 -0,3.804 0.158,4.676c0.159,0.872 0.594,3.289 0.555,4.28c-0.04,0.991 -1.189,4.795 -1.189,5.905c-0,1.11 0.436,1.585 0.357,3.091c-0.08,1.506 -0.317,2.893 -0.317,4.716c-0,1.823 -0.278,4.835 -0.595,6.103c-0.317,1.268 -0.951,3.844 -0.991,5.786c-0.039,1.942 0.634,5.469 0.634,6.698c0,1.228 -0.634,4.2 -0.832,5.033c-0.198,0.832 0.04,2.338 -0.396,2.774c-0.078,0.077 -0.282,0.187 -0.282,0.187c0.002,0.373 0.22,0.78 0.41,0.971c0.19,0.19 0.217,0.516 -0,0.951c-0.218,0.435 -0.87,1.197 -0.87,1.197l-14.872,-4.733c-0,0 -0.912,-1.268 -1.506,-2.972c-0.595,-1.704 -1.11,-3.091 -2.061,-3.448c-0.951,-0.357 -1.308,-0.674 -1.585,-1.189c-0.13,-0.241 -0.347,-1.014 -0.57,-1.82l-0.089,-0.323Zm46.669,-73.193c0,-0 0.198,0.158 0.397,0.594c0.198,0.436 0.237,0.674 0.753,0.911c0.515,0.238 0.277,-0.198 0.792,0.317c0.515,0.516 0.912,0.833 1.506,0.436c0.594,-0.396 1.585,-0.317 2.021,0.436c0.436,0.753 0.476,1.189 1.308,1.348c0.832,0.158 1.863,0.634 1.902,1.228c0.04,0.595 0.119,0.872 0.119,0.872c0,0 0.793,0.079 1.387,0.436c0.595,0.357 1.031,0.753 1.744,0.991c0.713,0.238 1.585,0.832 2.18,1.427c0.594,0.594 1.307,2.14 1.822,2.853c0.516,0.713 2.259,2.417 2.656,3.329c0.396,0.911 1.307,4.478 1.743,5.588c0.436,1.109 1.11,2.14 1.031,2.655c-0.079,0.515 0.475,0.792 0.594,1.625c0.119,0.832 0.555,1.506 0.832,2.06c0.278,0.555 -0.079,2.576 0.08,3.012c0.158,0.436 0.475,6.42 0.238,7.015c-0.238,0.594 0.198,2.14 0.158,3.21c-0.04,1.07 0.198,0.991 0.317,2.021c0.119,1.03 0.555,1.783 0.277,2.417c-0.277,0.634 -0.396,0.238 -0.039,1.625c0.357,1.387 0.792,1.467 1.07,2.933c0.277,1.466 0.634,2.259 0.674,3.012c0.039,0.753 0.317,1.783 -0.04,2.576c-0.357,0.792 -0.595,0.832 -0.832,1.743c-0.238,0.912 -0.159,1.11 -0.198,1.823c-0.04,0.714 -0.317,1.942 -0.476,2.378c-0.159,0.436 -0.238,1.982 -0.476,3.289c-0.237,1.308 -0.079,1.625 -0.356,2.735c-0.278,1.11 -0.674,2.417 -0.872,2.893c-0.198,0.475 -0.159,0.832 -0.555,1.744c-0.396,0.911 -0.515,2.259 -0.793,2.853c-0.277,0.594 -0.435,1.664 -0.634,2.219c-0.198,0.555 -0.356,1.427 -0.634,1.982c-0.277,0.555 -0.396,0.872 -0.515,1.308c-0.119,0.435 -1.902,3.328 -1.902,3.328l-12.84,3.726c-0,-0 -1.07,-0.357 -1.902,-1.031c-0.833,-0.673 -1.784,-1.347 -2.061,-1.981c-0.278,-0.634 -0.278,-0.951 -0.674,-1.784c-0.396,-0.832 -0.872,-1.466 -1.149,-1.981c-0.278,-0.515 -0.595,-1.625 -0.396,-2.299c0.198,-0.673 0.396,-2.219 0.317,-2.972c-0.08,-0.753 -0,-2.18 0.079,-2.932c0.079,-0.753 0.475,-3.607 0.158,-4.637c-0.317,-1.031 -0.158,-0.674 -0.634,-1.665c-0.475,-0.99 -0.673,-1.07 -0.792,-2.06c-0.119,-0.991 -0.278,-8.56 -0.278,-9.432c0,-0.872 0.476,-4.637 -0.119,-6.341c-0.594,-1.704 -0.951,-10.225 -0.634,-11.414c0.317,-1.188 0.555,-3.21 0.595,-4.042c0.039,-0.832 -0.159,-4.121 0.119,-5.191c0.277,-1.07 0.554,-2.893 0.594,-4.043c0.04,-1.149 0.515,-4.676 0.634,-6.42c0.119,-1.743 0.595,-6.737 0.753,-8.084c0.159,-1.348 0.753,-3.21 0.634,-4.122c-0.119,-0.911 0.198,-1.625 0.159,-2.259c-0.04,-0.634 0.119,-1.307 0.158,-2.258Z" style="fill:#181a1c;"/><path d="M53.695,128.224c0.554,0.037 4.195,3.041 4.262,3.818c0.067,0.777 -0.577,2.087 -0.955,2.398c0,0 0.6,1.066 0.911,1.554c0.311,0.489 1.11,1.377 1.287,1.976c0.178,0.599 0.489,2.331 0.489,2.331l-13.099,-4.507c0,0 -0.777,-2.109 -0.51,-2.73c0.266,-0.622 2.109,-1.954 2.597,-2.22c0.489,-0.267 3.463,-1.777 3.952,-2.176c0.488,-0.4 0.733,-0.466 1.066,-0.444Zm43.647,0.033c0.571,0.084 0.502,0.642 1.087,1.032c0.586,0.39 2.119,1.478 2.621,1.617c0.501,0.139 2.397,1.338 2.955,1.45c0.557,0.111 1.226,0.501 1.031,1.533c-0.195,1.031 -9.785,5.102 -9.785,5.102c-0,-0 -0.112,-0.586 0.028,-1.171c0.139,-0.586 0.53,-0.892 0.418,-1.617c-0.111,-0.725 -0.139,-2.091 -0.697,-2.76c-0.558,-0.669 -1.115,-1.115 -1.031,-1.561c0.083,-0.446 1.059,-1.729 1.533,-2.258c0.474,-0.53 1.354,-1.438 1.84,-1.367Z" style="fill:#ba9e9e;"/><path d="M63.005,30.523c0,0 0.35,-0.511 0.7,-1.131c0.351,-0.619 -0.053,-0.646 0.351,-1.104c0.404,-0.458 0.538,-0.889 0.781,-0.216c0.242,0.674 0.188,1.132 0.458,1.482c0.269,0.35 -0.27,0.673 0.7,0.808c0.97,0.134 1.347,0.054 1.347,0.054c-0,-0 -0.781,-0.539 -0.728,-1.132c0.054,-0.592 0.755,-0.565 0.997,-0.673c0.242,-0.108 0.889,0.215 1.481,-0.323c0.593,-0.539 0.431,-0.512 1.024,-0.727c0.593,-0.216 1.239,-1.374 1.885,-1.428c0.647,-0.054 0.647,0.673 0.431,1.239c-0.215,0.566 -0.511,0.781 0.108,0.97c0.62,0.188 0.835,0.08 1.805,0.054c0.969,-0.027 1.4,-0.243 1.67,-0c0.269,0.242 0.323,0.35 0.646,0.835c0.323,0.484 0.781,0.7 1.266,0.619c0.485,-0.081 1.024,-0.215 1.32,0.323c0.296,0.539 -0.108,1.293 -0.162,1.643c-0.053,0.35 -0.026,0.512 0.162,0.97c0.189,0.458 0.62,0.458 0.647,1.616c0.026,1.158 0.134,1.347 0.026,1.913c-0.107,0.565 -0.215,0.565 0,1.104c0.216,0.539 0,0.754 -0.053,1.643c-0.054,0.889 -0.243,0.485 0.134,1.535c0.377,1.051 0.216,1.105 0.701,1.239c0.484,0.135 0.188,0.27 0.781,0.135c0.592,-0.135 0.511,0.269 1.077,-0.216c0.566,-0.484 0.189,0.054 0.673,-0.619c0.485,-0.673 0.997,-0.7 1.105,-1.535c0.108,-0.835 -0.108,-0.97 0.188,-1.293c0.297,-0.324 0.755,-0.754 1.105,-0.566c0.35,0.189 0.727,0.673 0.835,1.239c0.107,0.566 -0.162,1.913 -0.216,2.29c-0.054,0.377 -0.458,1.185 -0.673,1.508c-0.216,0.323 -1.104,1.185 -1.535,1.508c-0.431,0.324 -1.078,0.566 -1.078,0.566c0,0 0.431,0.889 0.485,1.266c0.054,0.377 0.081,1.32 0.135,1.993c0.054,0.674 0.08,0.997 0.08,0.997c0,-0 1.213,-0.727 1.293,-1.212c0.081,-0.485 0.324,-0.647 0.377,-0.997c0.054,-0.35 0.458,-0.943 0.674,-1.32c0.215,-0.377 0.108,-0.727 0.054,-1.05c-0.054,-0.323 -0.108,-0.593 0.107,-0.997c0.216,-0.404 0.189,-0.592 0.27,-1.212c0.081,-0.619 0.646,-0.781 0.646,-0.781c0,-0 0.458,-0.135 0.458,-0.889c0,-0.754 -0.135,-0.619 0.054,-0.889c0.189,-0.269 0.027,-0.323 0.35,-1.239c0.323,-0.916 0.377,-0.943 0,-1.373c-0.377,-0.431 -0.377,-0.809 0.135,-1.24c0.512,-0.43 0.808,-0.942 0.404,-1.319c-0.404,-0.377 -0.943,-0.324 -0.916,-0.781c0.027,-0.458 0.242,-0.405 0.566,-1.159c0.323,-0.754 0.323,-1.05 0.081,-1.4c-0.243,-0.35 -0.782,-0.35 -0.835,-0.781c-0.054,-0.431 0.323,-0.674 -0.054,-1.051c-0.377,-0.377 -0.243,-0.512 -0.512,-1.562c-0.269,-1.051 -0.081,-0.97 -0.997,-1.616c-0.916,-0.647 -1.05,-1.051 -1.777,-1.428c-0.728,-0.377 -1.105,-0.296 -1.401,-0.512c-0.296,-0.215 -0.269,-1.319 -0.404,-1.589c-0.135,-0.269 -1.966,-0.592 -2.37,-0.996c-0.404,-0.404 -0.62,-0.755 -1.132,-0.835c-0.511,-0.081 -3.609,-0.512 -3.986,-0.431c-0.377,0.08 -1.32,0.161 -2.074,0.161c-0.754,0 -1.805,-0.054 -1.805,-0.054c0,0 -1.751,0.297 -2.101,0.485c-0.35,0.189 -1.535,0.808 -1.535,0.808c-0,0 -1.428,0.647 -1.724,1.158c-0.296,0.512 -1.535,1.32 -1.778,1.913c-0.242,0.592 -1.427,0.727 -1.508,1.347c-0.081,0.619 -0.269,2.02 -0.323,2.478c-0.054,0.458 0.027,1.239 1.104,1.777Z" style="fill:#181a1c;"/></g></g></svg>