<?xml version="1.0" encoding="UTF-8" standalone="no"?><!DOCTYPE svg PUBLIC "-//W3C//DTD SVG 1.1//EN" "http://www.w3.org/Graphics/SVG/1.1/DTD/svg11.dtd"><svg width="100%" height="100%" viewBox="0 0 150 150" version="1.1" xmlns="http://www.w3.org/2000/svg" xmlns:xlink="http://www.w3.org/1999/xlink" xml:space="preserve" xmlns:serif="http://www.serif.com/" style="fill-rule:evenodd;clip-rule:evenodd;stroke-linejoin:round;stroke-miterlimit:2;"><path id="base" d="M150,75c0,-41.394 -33.606,-75 -75,-75c-41.394,0 -75,33.606 -75,75c0,41.394 33.606,75 75,75c41.394,0 75,-33.606 75,-75Z" style="fill:#333;"/><path id="outline" d="M144,75c0,-38.082 -30.918,-69 -69,-69c-38.082,0 -69,30.918 -69,69c0,38.082 30.918,69 69,69c38.082,0 69,-30.918 69,-69Z" style="fill:#ff7600;"/><path id="core" d="M141,75c0,-36.426 -29.574,-66 -66,-66c-36.426,0 -66,29.574 -66,66c0,36.426 29.574,66 66,66c36.426,0 66,-29.574 66,-66Z" style="fill:#fff;"/><clipPath id="_clip1"><path d="M141,75c0,-36.426 -29.574,-66 -66,-66c-36.426,0 -66,29.574 -66,66c0,36.426 29.574,66 66,66c36.426,0 66,-29.574 66,-66Z"/></clipPath><g clip-path="url(#_clip1)"><g id="the-strokes"><path d="M83.491,89.604c-12.266,-2.042 -20.934,-7.795 -19.447,-24.016c-0,-0 0.159,-3.72 -0.159,-5.154c-0.319,-1.435 -1.435,-3.56 -1.648,-4.836c-0.212,-1.275 -0.425,-3.985 -0.159,-6.429c0.266,-2.444 -0.266,-3.826 -0.266,-3.826c1.484,-8.433 6.486,-13.015 13.922,-14.93c6.685,3.959 12.921,18.18 18.756,41.551c4.65,10.607 -2.149,14.707 -10.999,17.64Z" style="fill:#e6bda2;"/><path d="M67.117,73.666c-0,0 2.739,3.858 3.935,4.861c1.195,1.003 5.091,3.973 6.326,4.513c1.234,0.54 3.664,1.427 6.056,1.157c2.392,-0.27 5.246,-1.234 5.941,-1.851c0.694,-0.618 6.684,-5.752 7.108,-6.293c0.425,-0.54 1.841,8.299 1.841,8.299l-2.639,72.946l-23.653,-0.315l-9.303,-85.624l4.388,2.307Z" style="fill:#17111c;"/><path d="M26.278,122.071c0,0 0.242,-2.027 0.29,-2.703c0.048,-0.675 0.193,-2.075 0.434,-2.702c0.242,-0.628 1.448,-4.151 1.641,-5.357c0.193,-1.207 0.965,-4.875 1.014,-6.322c0.048,-1.448 1.206,-6.274 1.737,-7.336c0.531,-1.062 1.303,-2.703 1.4,-3.427c0.096,-0.724 2.895,-6.129 3.281,-6.949c0.386,-0.821 0.531,-2.462 0.773,-2.848c0.241,-0.386 0.916,-1.592 1.158,-2.171c0.241,-0.58 0.241,-1.641 0.917,-2.317c0.675,-0.676 1.399,-1.4 1.399,-1.4c0,0 0.386,-0.675 0.386,-1.351c0,-0.675 1.062,-1.062 1.69,-1.592c0.627,-0.531 3.619,-1.593 4.922,-1.834c1.303,-0.242 4.102,-0.773 4.102,-0.773l15.444,1.448c-0,0 1.351,2.317 1.303,2.751c-0.048,0.435 -0.483,0.869 -0.241,1.448c0.241,0.579 1.592,3.668 1.93,4.44c0.338,0.772 2.075,5.164 2.655,6.708c0.579,1.545 2.702,9.025 3.33,11.293c0.627,2.269 3.33,13.079 3.619,14.575c0.29,1.496 1.593,7.433 1.641,9.025c0.048,1.593 1.158,7.867 0,11.535c-1.158,3.667 -0.841,4.565 -1.448,5.887c-4.501,9.817 -58.803,-9.604 -53.377,-20.028Zm62.885,19.353c-0,-0 -0.145,-1.689 -0.097,-2.703c0.048,-1.013 0,-4.536 0.097,-5.936c0.096,-1.4 0.53,-1.834 0.434,-2.896c-0.097,-1.061 -0.29,-2.316 0.145,-3.137c0.434,-0.82 0.193,-3.957 0.434,-4.971c0.241,-1.013 0.579,-1.64 0.917,-2.509c0.338,-0.869 -0.193,-1.689 0.386,-2.51c0.579,-0.82 0.821,-0.675 0.917,-1.834c0.097,-1.158 -0.386,-1.544 0.241,-2.413c0.628,-0.868 0.676,-2.027 0.58,-2.654c-0.097,-0.627 0.048,-1.689 0.193,-2.847c0.144,-1.159 0.048,-2.124 -0.097,-2.848c-0.145,-0.724 -0.241,-1.641 -0.289,-2.606c-0.049,-0.965 0.386,-4.054 0.289,-5.405c-0.096,-1.352 0.724,-7.239 0.724,-8.108c-0,-0.869 0.048,-3.137 -0.048,-4.199c-0.097,-1.062 -0.097,-2.558 0.048,-3.426c0.145,-0.869 0.342,-3.893 2.996,-4.907c2.655,-1.013 10.903,1.625 10.903,1.625c0,-0 3.475,1.448 3.475,2.22c0,0.772 -0.627,0.82 -0.627,0.82c-0,0 0.724,0.531 1.206,1.496c0.483,0.966 1.014,1.11 1.593,2.558c0.579,1.448 0.82,4.585 1.11,6.178c0.289,1.592 0.724,3.619 0.724,5.357c-0,1.737 0.724,4.971 0.772,6.081c0.048,1.11 0.772,5.694 0.917,6.997c0.145,1.304 0.241,4.634 0.289,5.551c0.049,0.916 0.338,3.571 0.483,4.922c0.145,1.351 0.145,2.413 0.29,3.716c0.144,1.303 0.241,2.896 0.241,2.896c-8.09,8.758 -18.068,13.426 -29.246,15.492Z" style="fill:#25262c;"/><path d="M68.534,72.639c-0.233,-0.311 2.449,11.062 2.814,12.338c0.407,1.427 2.543,7.841 3.244,9.877c0.718,2.085 2.896,8.776 3.707,10.398c0.811,1.622 1.911,2.809 2.462,3.331c0.55,0.521 2.52,1.65 3.504,1.564c0.985,-0.087 2.258,-1.134 2.955,-1.449c0.72,-0.325 2.166,-2.886 2.461,-3.91c0.276,-0.955 1.433,-5.178 1.651,-6.169c0.051,-0.228 1.247,-6.387 1.275,-7.415c0.023,-0.872 0.492,-9.152 0.347,-9.905c-0.144,-0.753 -0.289,-1.767 -0.55,-2.085c-0.261,-0.319 -0.637,-1.101 -0.724,-1.709c-0.087,-0.609 -0.724,-1.999 -0.666,-4.461l-0.292,-0.757c-0,-0 -0.085,3.509 0.089,4.291c0.174,0.782 0.348,1.94 0.724,2.607c0.377,0.666 0.608,0.84 0.666,1.824c0.058,0.985 -0.318,10.253 -0.434,11.528c-0.116,1.274 -0.927,6.98 -1.796,9.529c-0.869,2.549 -2.143,5.242 -3.447,6.227c-1.303,0.985 -2.548,1.911 -4.228,0.492c-1.68,-1.419 -2.868,-2.896 -3.534,-4.373c-0.666,-1.477 -1.795,-3.968 -2.317,-5.735c-0.521,-1.767 -1.882,-5.677 -2.491,-7.849c-0.608,-2.172 -1.882,-6.488 -2.201,-7.357c-0.319,-0.869 -1.622,-6.198 -1.796,-6.98c-0.173,-0.782 -0.727,-2.926 -1.423,-3.852Zm21.819,-0.839c0,0 0.026,-0.352 -0.264,-0.149c-0.293,-0.098 -0.195,5.674 0.114,6.404c0.263,0.623 0.467,1.938 0.611,2.43c0.145,0.493 0.084,1.104 -0.09,1.799c-0.174,0.695 -0.666,2.259 -1.043,2.838c-0.376,0.579 -1.477,2.114 -2.143,2.578c-0.666,0.463 -2.143,1.593 -3.562,1.274c-1.42,-0.318 -3.997,-1.564 -4.548,-2.114c-0.55,-0.55 -2.519,-3.186 -2.983,-3.765c-0.463,-0.58 -1.882,-2.375 -2.404,-2.926c-0.521,-0.55 -1.882,-2.722 -2.288,-3.128c-0.405,-0.405 -2.263,-4.316 -2.466,-4.547c-0.202,-0.232 -0.579,0.087 -0.289,0.521c0.289,0.435 1.162,2.955 1.452,3.36c0.289,0.406 0.782,1.159 1.158,1.825c0.377,0.666 0.927,1.535 1.101,1.911c0.174,0.377 1.158,1.101 1.448,1.449c0.29,0.347 0.753,1.129 1.13,1.622c0.376,0.492 0.492,0.492 0.897,1.216c0.406,0.724 0.811,1.014 1.275,1.593c0.463,0.579 0.811,1.043 1.245,1.332c0.435,0.29 1.014,0.551 1.651,0.927c0.637,0.377 1.767,0.811 2.433,0.985c0.666,0.174 0.637,0.376 1.825,0.29c1.187,-0.087 1.564,-0.087 1.882,-0.261c0.319,-0.174 0.696,-0 1.217,-0.637c0.521,-0.638 1.245,-1.014 1.477,-1.362c0.232,-0.347 0.811,-1.013 1.13,-1.882c0.318,-0.869 0.898,-1.651 0.898,-1.97c-0,-0.318 0.173,-1.39 0.173,-1.853c0,-0.464 0.029,-0.927 -0.087,-1.391c-0.115,-0.463 -0.26,-1.216 -0.376,-1.593c-0.116,-0.376 -0.348,-0.914 -0.406,-1.436c-0.058,-0.521 -0.087,-0.866 -0.087,-1.503c-0,-0.637 -0.017,-0.766 0.012,-1.229c0.029,-0.464 0.11,-2.318 -0.093,-2.608Z" style="fill:#b3a9a1;"/><path d="M64.404,61.219c-0,-0 0.226,0.712 0.42,1.133c0.195,0.421 0.648,0.972 0.713,1.619c0.065,0.648 0.518,1.036 1.101,1.522c0.582,0.486 1.91,0.842 2.428,0.971c0.518,0.13 1.457,0.194 1.489,0.551c0.033,0.356 -0.007,0.966 0.109,1.623c0.138,0.782 0.237,2.166 0.237,2.166c-0,-0 -0.151,0.355 -0.605,0.905c-0.453,0.551 -0.254,1.029 -0.448,2.227c-0.195,1.198 -0.491,2.371 -1.171,2.468c-0.68,0.097 -0.906,0.097 -1.651,0.81c-0.745,0.712 -2.234,2.784 -3.043,3.464c-0.81,0.68 -2.947,2.202 -4.436,2.299c-1.49,0.097 -4.663,-0.518 -5.569,-0.032c-0.907,0.485 -2.008,0.388 -2.817,0.291c-0.809,-0.097 -0.971,-0.518 -1.392,-0.518c-0.421,-0 -0.259,0.194 -0.939,0.032c-0.68,-0.162 -0.907,-0.777 -1.133,-1.165c-0.227,-0.389 -0.486,-0.356 -0.389,-1.036c0.097,-0.68 0.291,-1.166 0.648,-1.749c0.356,-0.583 1.424,-2.363 1.813,-3.4c0.388,-1.036 1.262,-3.075 1.327,-3.691c0.065,-0.615 0.227,-0.68 0.777,-1.295c0.551,-0.615 0.454,-0.518 0.939,-1.327c0.486,-0.81 0.421,-0.713 1.036,-1.328c0.616,-0.615 1.036,-0.874 1.619,-1.133c0.583,-0.259 0.939,-0.259 1.651,-0.745c0.713,-0.485 1.069,-0.68 1.749,-1.392c0.68,-0.712 2.396,-1.489 3.043,-1.845c0.648,-0.357 1.49,-1.393 2.494,-1.425Zm26.388,2.979c-1.856,-1.163 -2.112,7.994 1.068,10.393c1.39,1.048 1.748,1.846 3.529,2.331c1.781,0.486 2.299,0.972 3.076,1.49c0.777,0.518 1.651,1.424 2.979,1.554c1.327,0.129 2.72,0.194 4.241,-0.097c1.522,-0.292 3.368,-0.551 3.821,-1.101c0.453,-0.551 0.809,-0.777 1.489,-0.874c0.68,-0.098 1.295,0.097 1.36,-0.518c0.065,-0.616 0.615,-1.457 0.292,-1.878c-0.324,-0.421 -0.486,-0.357 -0.68,-0.81c-0.195,-0.453 0.55,-1.101 -0.615,-1.198c-1.166,-0.097 -1.684,0.13 -2.299,-0.291c-0.616,-0.421 -3.303,-2.299 -4.404,-3.141c-1.101,-0.842 -3.788,-2.234 -4.889,-2.881c-1.101,-0.648 -4.5,-2.688 -5.407,-3.335c-0.906,-0.648 -2.784,-1.587 -2.784,-1.587l-0.777,1.943Z" style="fill:#7c675e;"/><path d="M67.801,24.814c0,0 6.291,-0.809 6.974,-0.976c0.684,-0.168 1.52,-0.377 2.413,-0.433c0.893,-0.055 0.739,0.084 1.785,0.21c1.047,0.125 1.381,0.293 1.953,0.014c0.572,-0.279 1.018,-0.907 1.646,-0.53c0.628,0.376 1.506,0.822 1.897,1.241c0.39,0.418 1.632,0.934 2.134,1.423c0.502,0.488 1.018,0.53 0.948,0.92c-0.069,0.391 0.14,0.837 0.67,1.228c0.53,0.39 1.158,1.088 1.939,1.813c0.781,0.725 1.729,1.883 1.98,2.315c0.251,0.433 1.13,3.543 1.395,4.073c0.265,0.53 1.004,1.771 1.186,2.162c0.181,0.39 1.534,3.319 1.855,3.696c0.32,0.377 0.572,0.711 0.85,1.283c0.279,0.572 0.447,1.73 0.238,2.469c-0.21,0.739 -0.893,2.078 -0.907,2.552c-0.014,0.475 -0.098,1.814 -0.335,3.041c-0.237,1.228 -0.418,2.078 -0.446,2.525c-0.028,0.446 0.028,1.381 -0.154,1.869c-0.181,0.488 -0.195,2.468 -0.683,3.082c-0.488,0.614 -0.753,1.423 -1.116,1.939c-0.362,0.516 -0.906,1.255 -1.13,1.953c-0.223,0.697 -0.167,1.59 -0.125,2.203c0.042,0.614 -0,1.339 0.056,1.688c0.055,0.349 -0.851,0.154 -0.907,0.67c-0.056,0.516 0.181,1.297 0.432,1.604c0.252,0.306 1.2,1.143 1.381,1.227c0.182,0.084 -1.646,-0.335 -1.897,-0.711c-0.251,-0.377 -0.753,-0.684 -0.753,-0.684c0,0 -0.641,0.502 -0.404,0.991c0.237,0.488 0.962,1.199 1.116,1.339c0.153,0.139 0.209,-0.014 0.348,0.641c0.14,0.656 -0.474,1.116 -0.432,1.562c0.042,0.447 -0.112,1.06 -0.112,1.06c0,0 -0.753,-1.032 -1.311,-2.259c-0.558,-1.228 -0.795,-1.144 -0.53,0.279c0.265,1.422 0.321,2.064 0.321,2.064c-0,0 -1.465,-1.618 -1.855,-2.566c-0.391,-0.949 -1.2,-2.33 -1.395,-2.65c-0.195,-0.321 -0.111,2.691 0.042,3.235c0.153,0.544 0.837,2.051 0.837,2.051c-0,-0 -1.395,-0.949 -1.674,-1.869c-0.279,-0.921 -0.307,-4.519 -0.335,-5.147c-0.028,-0.628 0.028,-1.981 0.084,-2.79c0.056,-0.809 0.181,-1.604 -0.07,-2.273c-0.251,-0.67 -0.488,-1.116 -0.809,-1.66c-0.321,-0.544 -0.92,-1.464 -1.157,-2.008c-0.237,-0.544 -0.447,-0.642 -0.419,-1.325c0.028,-0.684 0.056,-1.325 0.321,-1.744c0.265,-0.418 0.516,-0.586 0.683,-1.283c0.168,-0.698 0.419,-1.353 0.196,-1.841c-0.223,-0.488 -0.53,-0.488 -0.809,-0.767c-0.279,-0.279 -0.516,-0.461 -0.977,-0.851c-0.46,-0.391 -0.781,-1.046 -0.781,-1.046c0,-0 -0.153,1.171 0.084,1.45c0.237,0.279 0.488,0.949 0.488,0.949c0,-0 -1.004,-0.572 -1.102,-0.837c-0.097,-0.265 -0.516,-1.06 -0.53,-1.339c-0.014,-0.279 0.084,-0.572 -0.083,-1.395c-0.168,-0.823 -0.265,-1.255 -0.433,-1.716c-0.167,-0.46 -2.51,-1.966 -3.208,-1.855c-0.697,0.112 -11.897,0.154 -11.897,0.154l-6.598,-0.223c0,-0 -0.307,-1.423 -0.321,-1.869c-0.013,-0.447 0.042,-1.493 0.112,-1.981c0.07,-0.488 0.363,-1.813 0.586,-2.455c0.223,-0.641 0.014,-0.558 0.39,-1.339c0.377,-0.781 0.586,-1.213 0.67,-1.743c0.084,-0.53 -0.112,-1.13 -0.112,-1.13c0,-0 -0.53,0.279 -1.004,1.799c-0.474,1.521 -0.934,4.45 -0.934,4.296c-0,-0.153 -0.014,-3.905 0.237,-4.519c0.251,-0.614 1.715,-3.347 1.715,-3.347c0,-0 -0.878,1.004 -1.116,1.59c-0.237,0.585 -0.446,0.376 -0.446,0.376c0,0 0.405,-1.492 0.809,-2.19c0.405,-0.697 1.451,-1.869 2.092,-2.496c0.642,-0.628 1.507,-1.479 1.507,-1.479c-0,0 -1.242,0.377 -1.702,0.6c-0.46,0.223 -2.232,1.799 -2.232,1.799c0,0 1.702,-2.022 2.218,-2.399c0.516,-0.376 3.292,-2.134 3.766,-2.371c0.474,-0.237 2.176,-1.116 2.887,-1.339Zm24.945,37.201c0,0 -0.031,-2.184 0.229,-2.184c0.26,0 0.229,0.364 0.25,0.541c0.021,0.177 -0.104,1.092 -0.479,1.643Zm1.207,-2.714c-0,-0 -0.271,-2.34 -0.177,-3.162c0.094,-0.822 0.531,-2.059 0.416,-2.361c0,-0 0.624,1.206 0.666,1.789c0.041,0.582 -0.219,1.747 -0.302,2.319c-0.083,0.572 -0.218,0.994 -0.603,1.415Zm-32.75,-8.342c-0.466,0.278 -1.244,0.961 -1.504,1.075c0,0 0.705,-0.954 0.749,-1.291c0.044,-0.338 0.264,-1.043 0.264,-1.836c0,-0.792 1.791,0.911 1.791,0.911c0,-0 -0.287,0.919 -0.542,1.63c0.058,0.396 -0.031,1.095 0.04,1.364c0.097,0.368 0.205,1.721 0.195,2.067c-0.011,0.346 -0.152,0.682 -0.347,1.082c-0.194,0.4 -1.06,1.72 -1.06,1.72c-0,0 0.606,-2.921 0.649,-3.559c0.029,-0.421 -0.126,-2.079 -0.235,-3.163Zm17.521,-0.695c-0,0 -0.532,-0.382 -1.088,-0.943c-0.557,-0.561 -1.139,-1.301 -1.241,-2.015c-0.204,-1.428 1.241,1.717 2.329,2.958Zm3.348,-3.571c-0,-0 -0,1.822 0.398,2.429c0.398,0.607 1.115,1.125 1.115,1.125c0,-0 -0.358,-0.438 -0.796,-1.593c-0.438,-1.155 -0.697,-1.434 -0.717,-1.961Z" style="fill:#240f08;"/><path d="M83.735,46.319c0,-0 -2.254,-2.081 -2.774,-2.341c-0.52,-0.261 -0.412,-0.152 -2.059,-0.044c-1.648,0.109 -2.58,0.044 -3.143,-0.152c-0.564,-0.195 -2.363,-0.758 -4.01,-0.823c-1.648,-0.065 -11.402,-0.282 -12.095,-0.109c-0.694,0.174 -0.954,0.369 -0.824,0.694c0.13,0.325 0.325,0.564 0.368,0.845c0.044,0.282 0.022,2.623 0.174,3.208c0.152,0.586 0.672,2.06 1.105,2.341c0.434,0.282 1.734,0.781 2.428,0.629c0.694,-0.152 1.994,-1.279 2.254,-1.994c0.26,-0.715 0.564,-2.146 1.062,-2.146c0.499,-0 0.542,1.214 0.911,1.756c0.368,0.542 0.997,2.081 1.994,2.319c0.997,0.238 3.837,0.238 4.812,-0c0.975,-0.238 2.124,-1.192 2.579,-1.734c0.456,-0.542 1.236,-1.496 2.255,-1.799c1.018,-0.304 2.406,-0.781 4.963,-0.65Z" style="fill:#060100;"/></g></g></svg>