<?xml version="1.0" encoding="UTF-8" standalone="no"?><!DOCTYPE svg PUBLIC "-//W3C//DTD SVG 1.1//EN" "http://www.w3.org/Graphics/SVG/1.1/DTD/svg11.dtd"><svg width="100%" height="100%" viewBox="0 0 150 150" version="1.1" xmlns="http://www.w3.org/2000/svg" xmlns:xlink="http://www.w3.org/1999/xlink" xml:space="preserve" xmlns:serif="http://www.serif.com/" style="fill-rule:evenodd;clip-rule:evenodd;stroke-linejoin:round;stroke-miterlimit:2;"><path id="base" d="M150,75c0,-41.394 -33.606,-75 -75,-75c-41.394,0 -75,33.606 -75,75c0,41.394 33.606,75 75,75c41.394,0 75,-33.606 75,-75Z" style="fill:#333;"/><path id="outline" d="M144,75c0,-38.082 -30.918,-69 -69,-69c-38.082,0 -69,30.918 -69,69c0,38.082 30.918,69 69,69c38.082,0 69,-30.918 69,-69Z" style="fill:#ff7600;"/><path id="core" d="M141,75c0,-36.426 -29.574,-66 -66,-66c-36.426,0 -66,29.574 -66,66c0,36.426 29.574,66 66,66c36.426,0 66,-29.574 66,-66Z" style="fill:#fff;"/><clipPath id="_clip1"><path d="M141,75c0,-36.426 -29.574,-66 -66,-66c-36.426,0 -66,29.574 -66,66c0,36.426 29.574,66 66,66c36.426,0 66,-29.574 66,-66Z"/></clipPath><g clip-path="url(#_clip1)"><g id="tree"><path d="M102.428,48.162c-1.536,-17.58 -51.003,-26.609 -50.175,6.321c0,-0 -1.836,2.347 -1.821,2.495c0.087,0.878 0.219,3.469 0.702,4.698c0.483,1.23 1.493,2.239 1.493,2.898c-0,0.659 -0.044,0.966 0.131,1.361c0.176,0.395 0.352,2.503 0.352,3.249c-0,0.746 0.159,2.077 0.775,2.556c0.615,0.479 1.204,0.356 1.204,0.356c-0,-0 0.944,3.9 1.122,4.406c0.178,0.507 1.259,2.682 1.587,3.449c0.329,0.766 1.109,1.902 1.355,2.545c0.246,0.643 0.766,3.626 0.794,4.447c0.027,0.821 0.041,5.911 0.041,5.911c16.037,10.004 32.31,21.029 38.31,-12.525c-0,-0 -0.921,-2.646 -0.731,-3.501c0.19,-0.856 0.91,-3.368 0.964,-4.088c0.054,-0.719 0.217,-1.561 0.217,-1.561c0,-0 1.82,0.013 2.105,-0.57c0.285,-0.584 0.584,-2.092 0.625,-2.825c0.041,-0.733 0.027,-1.833 0.231,-1.983c0.203,-0.149 0.244,-0.366 0.285,-0.624c0.041,-0.258 -0,-1.657 0.149,-1.915c0.15,-0.258 0.842,-1.67 0.992,-2.417c0.149,-0.747 0.516,-1.562 0.448,-2.675c-0.068,-1.114 0.013,-2.078 -0.544,-2.798c-0.556,-0.719 -0.76,-0.869 -1.29,-0.665c-0.529,0.204 -1.928,1.127 -1.928,1.127c0,-0 0.15,-1.086 0.204,-1.548c0.054,-0.462 0.285,-0.951 0.421,-1.304c0.136,-0.353 1.371,-0.842 1.371,-0.842l0.611,-3.978Z" style="fill:#f1b3a8;"/><path d="M103.895,88.387c0.17,0.313 0.63,2.245 0.602,2.71c-0.027,0.466 -0.465,2.601 -0.575,2.957c-0.109,0.356 0,0.821 0.028,1.369c0.027,0.548 -0.028,1.451 0.411,1.506c0.438,0.055 0.136,0.137 1.259,0.383c1.122,0.246 2.519,0.821 2.929,0.958c0.411,0.137 2.245,0.822 2.985,1.041c0.739,0.219 1.615,0.602 2.381,0.766c0.767,0.165 4.518,1.26 5.366,1.479c0.849,0.219 6.599,1.697 7.475,1.943c0.876,0.247 6.269,2.191 7.446,2.738c1.178,0.548 6.653,6.872 6.653,6.872c-43.81,43.435 -84.726,48.709 -121.736,2.473c0,0 1.694,-1.536 2.056,-1.871c0.363,-0.334 1.897,-1.589 2.343,-1.896c0.446,-0.307 3.095,-1.59 3.709,-1.813c0.613,-0.223 3.876,-1.645 4.741,-1.98c0.864,-0.334 4.155,-1.422 5.075,-1.729c0.92,-0.306 3.709,-1.561 4.88,-1.952c1.172,-0.39 5.689,-1.868 6.414,-2.147c0.726,-0.279 5.243,-2.482 5.885,-2.677c0.641,-0.196 0.832,-0.405 0.832,-0.405c0,-0 -0.028,-2.016 -0.18,-2.286c-0.152,-0.27 -0.574,-1.046 -0.633,-1.4c-0.059,-0.355 -0.539,-1.839 -0.607,-2.202c-0.067,-0.362 -0.135,-0.767 -0.084,-1.062c0.05,-0.296 0.278,-1.68 0.407,-1.808c1.769,-1.766 8.657,4.037 9.474,4.302c0.833,0.271 2.687,-0.115 3.121,-0.188c0.434,-0.074 1.999,-0.517 2.63,-0.697c0.631,-0.18 1.933,-0.59 2.318,-0.729c0.385,-0.139 1.852,-0.852 2.212,-0.983c0.361,-0.131 1.59,-0.688 2.155,-0.868c0.565,-0.181 2.138,-0.689 2.286,-0.721c0.147,-0.033 0.745,0.532 0.966,0.762c0.221,0.229 0.893,0.876 0.893,0.876c0,0 7.014,-0.055 7.673,-0.25c0.659,-0.194 0.454,-0.367 1.383,-0.389c0.93,-0.021 2.834,-0.038 3.307,0.281c1.68,1.134 11.438,-3.633 11.073,-4.151c-0,-0 0.393,0.688 0.447,0.788Z" style="fill:#3749a7;"/><path d="M88.591,91.645c-0,-0 0.164,1.916 0.027,2.628c-0.137,0.712 -0.274,1.971 -0.328,2.628c-0.055,0.657 -0.055,1.451 -0.055,1.999c-0,0.548 -0,1.752 -0.082,2.327c-0.082,0.575 -0.164,1.917 -0.192,2.464c-0.027,0.548 -0.219,1.533 -0.356,1.78c-0.137,0.246 -0.164,1.067 -0.191,1.451c-0.028,0.383 -0.165,1.478 -0.055,2.053c0.109,0.575 0.055,1.068 -0.192,1.67c-0.246,0.602 -0.739,1.533 -0.821,1.917c-0.082,0.383 -0.767,0.684 -0.767,0.684c0,-0 -0.328,-0.11 -0.356,0.438c-0.027,0.548 0.165,0.575 0.274,0.821c0.11,0.247 0.055,0.219 0.082,0.657c0.028,0.438 -0.027,0.794 0.082,1.232c0.11,0.438 0.712,1.506 0.794,1.89c0.083,0.383 0.575,2.381 0.822,3.449c0.246,1.068 0.328,1.26 0.438,1.834c0.109,0.575 0.301,1.287 0.274,2.136c-0.028,0.849 -0.055,1.341 -0,2.026c0.054,0.684 0.301,1.287 0.273,1.588c-0.027,0.301 0.301,2.19 0.356,3.011c0.055,0.822 0.137,2.191 0.219,3.231c0.082,1.04 0.426,4.017 0.466,4.38c0.529,4.826 -15.148,5.618 -15.551,1.588c0,0 0.082,-0.328 0.055,-0.766c-0.028,-0.438 -0.247,-3.067 -0.301,-4.025c-0.055,-0.958 -0.274,-3.915 -0.274,-4.709c-0,-0.794 -0.329,-2.957 -0.466,-4.106c-0.136,-1.15 -0.602,-3.067 -0.574,-3.642c0.027,-0.575 0.383,-0.958 0.438,-1.615c0.054,-0.657 0.301,-1.177 0.574,-1.451c0.274,-0.274 1.342,-0.575 2.081,-0.849c0.739,-0.274 1.123,-0.52 2.327,-0.602c1.205,-0.082 1.533,-0.411 1.67,-0.849c0.137,-0.438 0.247,-0.931 -0.356,-1.588c-0.602,-0.657 -1.615,-2.053 -2.053,-2.382c-0.438,-0.328 -2.108,-1.451 -2.546,-1.533c-0.438,-0.082 -0.903,-0.301 -1.314,-1.204c-0.411,-0.904 -0.794,-1.534 -0.876,-2.464c-0.082,-0.931 -0.055,-4.271 0.027,-4.764c0.082,-0.493 0.466,-4.216 0.383,-5.092c-0.082,-0.876 -0.027,-3.97 -0.027,-4.6c0,-0.63 0.246,-2.847 0.246,-2.847c0,-0 0.767,-0.137 1.287,-0.055c0.52,0.082 2.902,-0.164 3.477,-0.192c0.575,-0.027 2.026,-0.219 2.574,-0.219c0.547,0 1.259,-0.054 2.272,-0.027c1.013,0.027 2.71,-0.411 3.559,-0.438c0.849,-0.027 2.136,-0 2.656,0.137Zm-11.718,27.569c-0.363,-0.08 -0.383,-0.629 -0.465,-1.314c-0.082,-0.684 -0.575,-2.026 -0.219,-2.327c0.356,-0.301 0.52,0.164 1.013,0.466c0.492,0.301 0.575,0.629 0.931,1.095c0.355,0.465 0.848,1.232 0.383,1.478c-0.466,0.246 -1.15,0.712 -1.643,0.602Z" style="fill:#f6246b;"/><path d="M58.207,81.322c-0.363,-0 -1.725,0.742 -2.074,0.893c-0.348,0.152 -2.104,0.576 -2.316,0.742c-0.212,0.167 0.061,2.226 0.045,2.68c-0.015,0.454 -0.272,2.256 -0.272,2.876c-0,0.621 0.166,1.953 1.378,2.407c1.211,0.455 2.921,0.788 3.542,0.954c0.621,0.167 1.529,0.651 1.893,1.105c0.363,0.455 1.347,1.454 1.514,1.575c-0,-0 2.536,0.589 4.489,-0.062c0,0 -2.718,-0.014 -3.657,-0.877c-0.938,-0.863 -1.786,-3.391 -2.089,-3.875c-0.303,-0.485 -0.606,-1.635 -0.56,-2.468c0.045,-0.833 -0.454,-2.907 -0.621,-3.573c-0.166,-0.666 -0.515,-1.348 -0.742,-1.802c-0.227,-0.454 -0.393,-0.575 -0.53,-0.575Zm34.367,10.464c-0,-0 0.803,-1.713 1.166,-2.046c0,-0 0,-3.165 -0.045,-3.679c-0.046,-0.515 0.045,-1.272 0.045,-1.272c0,-0 1.12,-2.014 1.575,-3.104c0.454,-1.09 2.059,-4.193 2.24,-4.663c0,0 0.061,-0.242 0.53,0.318c0.469,0.56 0.5,0.788 0.969,1.272c0.469,0.484 1.62,1.574 1.999,1.832c0.378,0.257 1.589,1.65 1.771,2.619c0.182,0.969 0.636,2.634 0.696,3.194c0.061,0.561 0,1.969 -0.711,3.119c-0.712,1.151 -1.424,2.486 -2.151,2.849c-0.726,0.363 -0.938,0.575 -2.573,0.515c-1.635,-0.061 -2.665,-0.212 -3.467,-0.364c-0.803,-0.151 -1.862,-0.318 -2.044,-0.59Z" style="fill:#ecc44b;"/><path d="M51.469,54.23c-0,-0 -0.203,-0.018 -0.589,-0.534c-0.387,-0.515 -0.589,-0.754 -0.755,-0.957c-0.165,-0.202 0.019,-0.092 -0.478,-0.478c-0.497,-0.387 -0.755,-1.16 -1.013,-1.657c-0.257,-0.497 -0.846,-1.307 -1.012,-1.822c-0.165,-0.515 -0.294,-0.755 -0.276,-1.289c0.018,-0.533 -0.129,-2.116 -0.092,-2.963c0.037,-0.846 0.074,-0.902 0.11,-1.491c0.037,-0.589 -0.073,-0.846 0.129,-1.399c0.203,-0.552 0.295,-0.773 0.405,-1.085c0.111,-0.313 0.608,-1.749 0.994,-2.32c0.387,-0.57 0.497,-0.552 0.828,-1.196c0.332,-0.644 -0.22,-0.11 0.479,-1.012c0.699,-0.902 1.067,-1.51 1.601,-2.043c0.534,-0.534 2.283,-2.411 2.779,-2.89c0.497,-0.478 0.534,-0.515 1.197,-0.939c0.662,-0.423 2.061,-0.883 2.926,-1.564c0.865,-0.681 2.209,-1.546 3.093,-1.988c0.883,-0.442 3.57,-1.509 4.969,-1.859c1.399,-0.35 1.785,-0.57 3.7,-0.883c1.914,-0.313 3.239,-0.424 4.159,-0.387c0.921,0.037 7.326,0.129 8.78,0.368c1.454,0.239 5.393,0.921 6.037,1.307c0.644,0.387 2.319,1.252 2.963,1.657c0.644,0.404 1.454,0.809 1.988,1.233c0.534,0.423 3.515,2.208 3.828,2.466c0.313,0.258 1.178,1.344 1.51,1.675c0.331,0.331 0.938,0.626 1.638,1.417c0.699,0.792 2.521,4.712 2.65,4.896c0.129,0.184 0.681,1.381 0.847,2.282c0.165,0.902 0.662,3.313 0.515,3.958c-0.147,0.644 -0.386,2.024 -0.313,2.392c0.074,0.368 -0.221,1.491 -0.46,2.007c-0.239,0.515 -0.994,1.251 -1.288,1.638c-0.295,0.386 -0.645,1.877 -1.51,2.08c-0.865,0.202 -1.251,-0.056 -1.251,-0.056c-0,0 0.129,-0.791 -0.019,-1.435c-0.147,-0.645 -0.644,-2.154 -0.957,-2.559c-0.313,-0.405 -1.233,-1.454 -1.877,-1.877c-0.644,-0.423 -2.282,-1.767 -2.871,-2.043c-0.589,-0.276 -3.829,-1.27 -5.025,-1.178c-1.196,0.092 -1.951,0.276 -3.166,0.202c-1.215,-0.073 -1.38,-0.405 -2.337,-0.092c-0.957,0.313 -0.7,0.442 -1.933,0.497c-1.233,0.056 -3.976,-0.46 -3.976,-0.46c0,0 -4.012,0.902 -4.932,0.755c-0.921,-0.147 -0.792,-0.276 -2.209,-0.552c-1.417,-0.276 -0.166,-0.313 -2.503,-0.295c-2.338,0.019 -3.46,1.344 -4.804,1.822c-1.344,0.479 -2.614,1.528 -4.528,1.62c-1.914,0.092 -3.515,-0.515 -3.994,0.294c-0.478,0.81 -0.534,2.007 -0.902,2.596c-0.368,0.589 -1.086,1.822 -1.38,2.116c-0.295,0.295 -0.423,2.135 -0.423,2.135l-1.252,-0.11Z" style="fill:#72442c;"/><path d="M94.507,36.302c0.131,-0.236 -0.714,0.768 -1.071,1.345c-0.357,0.576 -1.647,3.101 -1.976,3.678c-0.329,0.576 -1.647,3.486 -2.196,3.898c-0.549,0.411 -3.843,2.25 -4.748,2.525c-0.906,0.274 -5.49,2.552 -6.259,3.046c-0.768,0.495 -4.309,3.212 -4.83,3.596c-0.522,0.384 -2.471,1.098 -3.322,1.153c-0.851,0.055 -4.831,0.576 -6.176,0.988c-1.345,0.412 -6.587,2.251 -7.301,2.525c-0.713,0.275 -1.262,0.083 -1.647,-0.109c-0.384,-0.193 -1.921,-1.537 -2.003,-1.785c-0.083,-0.247 0.466,-0.85 0.631,-1.043c0.165,-0.192 0.192,-1.866 -0,-2.442c-0.192,-0.577 -0.714,-0.961 -1.18,-0.522c-0.467,0.439 -1.236,1.565 -1.208,2.114c0.027,0.549 0.659,2.415 1.098,2.772c0.439,0.357 2.525,3.733 2.827,3.98c0.302,0.247 2.745,2.745 3.404,3.129c0.658,0.384 1.29,2.059 4.913,1.619c3.623,-0.439 6.505,-1.152 7.301,-1.592c0.796,-0.439 1.812,-0.96 2.059,-2.333c0.247,-1.372 0.219,-3.046 0.411,-3.87c0.193,-0.823 1.455,-2.031 2.828,-1.043c1.372,0.988 3.074,2.086 4.199,2.141c1.126,0.055 3.788,-0.22 4.639,-0.576c0.851,-0.357 3.184,-2.141 4.145,-2.882c0.96,-0.742 1.948,-1.84 2.25,-2.279c0.302,-0.439 0.824,-1.839 0.879,-2.525c0.055,-0.686 0.274,-2.635 0.357,-3.513c0.082,-0.879 0.631,-2.635 0.796,-3.239c0.164,-0.604 1.317,-4.063 1.509,-4.611c0.192,-0.549 0.796,-2.553 1.043,-2.937c0.247,-0.385 -0.219,-0 -0.549,0.054c-0.329,0.055 -0.96,-1.015 -0.823,-1.262Z" style="fill:#ff152c;"/></g></g></svg>