<?xml version="1.0" encoding="UTF-8" standalone="no"?><!DOCTYPE svg PUBLIC "-//W3C//DTD SVG 1.1//EN" "http://www.w3.org/Graphics/SVG/1.1/DTD/svg11.dtd"><svg width="100%" height="100%" viewBox="0 0 150 150" version="1.1" xmlns="http://www.w3.org/2000/svg" xmlns:xlink="http://www.w3.org/1999/xlink" xml:space="preserve" xmlns:serif="http://www.serif.com/" style="fill-rule:evenodd;clip-rule:evenodd;stroke-linejoin:round;stroke-miterlimit:2;"><path id="base" d="M150,75c0,-41.394 -33.606,-75 -75,-75c-41.394,0 -75,33.606 -75,75c0,41.394 33.606,75 75,75c41.394,0 75,-33.606 75,-75Z" style="fill:#2c2c2c;"/><path id="outline" d="M144,75c0,-38.082 -30.918,-69 -69,-69c-38.082,0 -69,30.918 -69,69c0,38.082 30.918,69 69,69c38.082,0 69,-30.918 69,-69Z" style="fill:#78387b;"/><path id="core" d="M141,75c0,-36.426 -29.574,-66 -66,-66c-36.426,0 -66,29.574 -66,66c0,36.426 29.574,66 66,66c36.426,0 66,-29.574 66,-66Z" style="fill:#d8d8d8;"/><clipPath id="_clip1"><path d="M141,75c0,-36.426 -29.574,-66 -66,-66c-36.426,0 -66,29.574 -66,66c0,36.426 29.574,66 66,66c36.426,0 66,-29.574 66,-66Z"/></clipPath><g clip-path="url(#_clip1)"><g id="ascian"><path d="M68.197,48.847l11.512,2.007l-5.716,6.862l-5.796,-8.869Z" style="fill:#dcab95;"/><path d="M71.839,47.482c-0,0 0.314,4.923 1.286,5.207c0,-0 0.494,-1.092 0.479,-1.287c-0.015,-0.194 0.015,-0.299 0.015,-0.299c0,-0 0.299,-0.03 0.554,-0.03c0.254,0 0.434,0.539 1.092,0.599c0.658,0.059 1.032,-0.195 1.481,-0.165c0.449,0.03 0.868,0.269 0.733,0.643c-0.134,0.374 -0.224,0.943 -0.224,0.943l2.544,0.628l1.78,-10.488l-7.107,-1.257l-2.633,5.506" style="fill:#a41b2c;"/><path d="M105.462,56.102c-0.038,0.038 -0.1,0.051 -0.081,-0.332c0.027,-0.538 -0.941,-2.446 -1.237,-3.145c-0.295,-0.699 -0.537,-2.017 -0.537,-2.017l3.495,1.506c-0,-0 1.398,-1.21 1.451,-1.721c0.054,-0.511 -0.672,-0.753 -1.344,-1.183c-0.672,-0.43 -2.608,-1.667 -3.199,-2.419c-0.592,-0.753 0.914,-1.21 1.801,-0.941c0.887,0.268 3.791,2.123 3.791,2.123l-0.323,-0.645c0,0 -0.537,-0.376 -0.914,-0.914c-0.376,-0.538 -1.398,-1.694 -2.151,-2.554c-0.752,-0.86 -0.618,-1.801 -0.349,-2.231c0.269,-0.43 1.29,0.215 1.828,0.43c0.538,0.215 2.554,1.855 2.554,1.855c-0.215,-0.269 -0.376,-0.995 -0.672,-1.506c-0.296,-0.51 -1.183,-2.365 -1.183,-2.903c0,-0.538 1.102,-0.538 1.102,-0.538l3.952,5.028c-0.564,-1.882 -0.752,-5.915 -0.51,-6.399c0.242,-0.484 0.645,-0.215 0.645,-0.215l0.941,2.043l1.586,5.7c-0,-0 0.699,-1.076 1.264,-1.855c0.564,-0.78 1.505,-0.35 1.505,-0.35l0.027,3.092c-0,-0 0.78,0.134 1.425,0.296c0.645,0.161 2.258,1.29 2.527,1.935c0.269,0.646 -0.134,3.253 -0.188,3.979c-0.054,0.726 -0.242,5.485 -0.484,6.211c-0.242,0.726 -1.317,2.285 -1.801,3.038c-0.484,0.752 -2.124,3.011 -2.716,4.22c-0.591,1.21 -0.753,2.097 -1.183,2.85c-0.43,0.753 -1.855,2.151 -2.339,2.689c-0.484,0.537 -0.967,2.231 -1.532,2.957c-0.565,0.726 -2.312,2.07 -4.302,2.769c-1.989,0.699 -6.076,-0.726 -7.017,-1.29c-0.94,-0.565 -6.586,-3.925 -7.769,-4.598c-1.183,-0.672 -1.452,-1.075 -2.689,-0.51c-1.236,0.564 -0.43,2.312 -0.242,2.93c0.189,0.618 1.56,4.06 1.909,5.753c0.35,1.694 1.183,4.598 1.264,5.646c0.08,1.049 1.532,3.845 2.258,6.883c0.726,3.038 1.586,2.554 1.909,3.118c0.323,0.565 0.43,2.5 0.43,2.5c0,0 0.807,1.398 1.667,3.227c0.86,1.828 3.414,6.909 4.463,9.947c1.048,3.038 4.543,13.308 6.587,19.1c2.043,5.792 6.344,9.275 8.468,11.023c2.124,1.747 -74.954,0.537 -74.954,0.537c-0,0 1.129,-1.29 4.489,-5.592c3.361,-4.301 3.63,-6.049 3.979,-7.312c0.35,-1.264 1.613,-5.915 1.855,-6.937c0.242,-1.021 0.941,-3.683 1.156,-4.436c0.216,-0.752 1.13,-2.285 1.882,-3.468c0.753,-1.183 3.173,-6.748 3.952,-7.742c0.78,-0.995 3.711,-4.033 4.033,-4.974c0.323,-0.941 0.323,-1.828 0.645,-2.473c0.323,-0.646 0.457,-1.372 0.457,-3.119c0,-1.748 -0.833,-3.925 -1.075,-5.135c-0.242,-1.21 -1.237,-3.818 -1.801,-4.382c-0.565,-0.565 -1.99,-3.388 -2.554,-4.033c-0.565,-0.645 -3.011,-1.425 -4.087,-2.016c-1.075,-0.592 -1.855,-1.425 -1.855,-1.425c-0.08,0.215 -2.097,2.5 -2.446,3.065c-0.35,0.564 -0.753,1.72 -1.345,3.011c-0.591,1.29 -2.231,4.92 -2.473,5.861c-0.242,0.941 -0.672,7.016 -0.726,8.414c-0.054,1.398 -0.968,3.119 -0.995,4.275c-0.026,1.156 2.017,1.102 2.017,1.102c-0.215,0.484 -0.941,5.673 -1.076,7.044c-0.134,1.371 0.027,2.85 0.081,3.146c0.054,0.295 0.242,0.941 0.484,1.21c0.242,0.268 0.161,1.182 -0.054,1.478c-0.215,0.296 -0.484,0.027 -0.484,0.027c0,0 0,0.323 0.108,0.645c0.107,0.323 0.349,1.479 -0.054,1.613c-0.403,0.135 -1.237,-0.295 -1.237,-0.295c0,-0 -0.053,0.806 -0.322,0.967c-0.269,0.162 -0.807,0.027 -0.807,0.027l-2.85,-1.586l-0.887,0.161c0,0 -0.161,-0.188 -0.295,0.431c-0.135,0.618 -0.995,0.295 -1.103,-0.162c-0.107,-0.457 -0.134,-3.387 -0.134,-3.387c-0,-0 -0.699,-2.285 -1.21,-2.662c-0.511,-0.376 -2.366,-1.344 -3.334,-1.263c-0.968,0.08 -0.564,1.236 -0.349,1.935c0.215,0.699 0.376,4.248 0.376,4.248c0,0 -2.554,-5.699 -2.957,-6.99c-0.403,-1.29 -2.366,-8.146 -2.285,-8.952c0.08,-0.807 0.994,-2.581 1.828,-4.087c0.833,-1.505 0.887,-6.829 0.968,-8.092c0.08,-1.264 0.215,-5.108 0.215,-5.108l16.104,-21.562c-0,0 6.855,-4.221 7.581,-4.516c0.726,-0.296 1.586,-0.888 1.586,-0.888c0,0 0.215,0 0.108,-0.564c-0.108,-0.565 -0.484,-2.366 -0.188,-3.092c0.295,-0.726 2.661,-2.823 3.172,-3.307c0.511,-0.484 1.479,-4.543 1.963,-6.264c0.484,-1.72 4.624,-8.684 5.807,-9.544c1.183,-0.86 5.321,-3.262 6.129,-3.199c1.882,0.146 4.544,3.806 5.001,4.397c0.457,0.592 1.022,3.952 1.129,4.893c0.108,0.941 0.161,4.275 -0.054,5.269c-0.215,0.995 -0.672,3.092 -0.86,4.114c-0.188,1.021 -0.055,3.294 -0.055,3.294c-0,-0 7.152,-1.873 10.884,1.379c0.417,0.364 8.63,5.902 8.63,5.902c-0,0 0.436,0.259 0.973,-0.278c0.507,-0.507 2.946,-3.805 3.227,-4.185c0.015,-0.016 0.026,-0.036 0.026,-0.036l-0.026,0.036Zm-34.789,-4.338c-0,0 2.016,3.038 3.495,3.092c1.479,0.054 2.446,-0.592 3.253,-1.667c0.806,-1.075 2.204,-2.661 2.204,-2.661c0,-0 0.216,-3.764 0.189,-4.678c-0.027,-0.914 -0.672,-2.85 -1.802,-2.796c-1.129,0.053 -1.559,-0.027 -2.339,1.398c-0.779,1.424 -1.344,2.742 -2.123,3.763c-0.78,1.022 -1.856,2.501 -2.877,3.549Z" style="fill:#232124;"/><path d="M38.483,106.984c0,0 0.198,2.468 0.469,3.098c0.27,0.631 1.008,1.459 1.278,1.441c0,0 -0.108,0.649 -0.144,1.063c-0.036,0.414 0.126,1.981 -0.108,2.287c-0.234,0.306 -0.99,0.865 -1.135,1.045c-0.144,0.18 1.081,4.179 1.459,4.845c0.379,0.667 2,2.648 2,2.648c-0,-0 -1.351,-3.152 -1.261,-4.215c0.09,-1.063 -0.108,-5.908 -0,-6.25c0.108,-0.342 0.324,-0.486 0.306,-0.865c-0.018,-0.378 -0.306,-0.72 -1.117,-0.558c0,0 0.739,-0.792 0.361,-1.243c-0.379,-0.45 -0.721,-0.9 -1.063,-1.783c-0.342,-0.882 -0.576,-1.243 -1.045,-1.513Zm10.573,15.076c0,-0 -4.78,-1.898 -6.599,-3.681c-0,-0 0.601,-1.831 0.403,-2.479c0,-0 3.08,3.674 6.196,6.16Zm-19.528,-32.807c-0,0 2.628,-3.243 3.48,-4.38c0.852,-1.136 3.575,-5.019 4.143,-6.44c0.568,-1.42 2.699,-3.101 3.457,-3.882c0.758,-0.782 2.296,-3.457 2.675,-3.741c0.379,-0.284 0.166,-0.994 0.568,-1.468c0.403,-0.473 2.486,-2.936 2.557,-3.291c0,0 -1.515,0.829 -2.059,1.539c-0.545,0.71 -1.847,1.918 -1.847,1.918c-0,-0 0.166,-1.799 0.639,-3.031c0.474,-1.231 1.871,-3.385 2.439,-4.238c0.568,-0.852 0.828,-0.804 1.018,-1.302c0.189,-0.497 0.237,-0.947 0.568,-1.444c0.331,-0.497 0.805,-0.213 0.687,-1.681c-0.119,-1.468 -0.237,-2.888 0.26,-4.498c0.497,-1.61 1.373,-2.249 1.373,-2.249c0,-0 -0.663,1.87 -0.757,3.291c-0.095,1.42 0.378,3.101 0.639,3.077c0.26,-0.023 1.065,-0.97 1.207,-1.965c0.142,-0.994 0.521,-4.048 3.125,-4.687c0,-0 -1.231,2.912 -1.16,4.285c0.071,1.373 0.048,1.586 0.592,1.61c0.545,0.023 1.776,0.118 2.273,-0.308c0.497,-0.426 1.184,-0.876 1.373,-1.444c0,-0 1.468,1.42 1.208,2.817c-0.261,1.397 -0.426,1.894 -0.426,1.894c-0,0 1.231,0.852 1.515,1.255c-0,-0 0.592,-3.646 1.207,-4.664c0,-0 1.373,2.652 1.16,4.285c-0.213,1.634 -0.781,5.398 -1.42,6.061c-0,0 -0.829,-2.959 -3.528,-4.356c0,-0 -1.278,4.924 -2.154,5.682c-0,-0 -0.9,-2.746 -1.018,-3.409c-0,-0 -2.131,2.036 -2.605,2.746c0,0 2.439,2.415 2.699,2.841c0.261,0.426 0.45,1.089 0.095,1.847c-0.355,0.757 -2.51,4.806 -3.48,5.374l-0.19,-3.504c0,0 -0.213,-0.9 -1.089,-0.947c-0.876,-0.047 -1.633,0.189 -1.681,0.687c-0.047,0.497 0.071,1.846 -0.236,2.154c-0.308,0.308 -2.037,0.639 -2.226,0.995c-0.189,0.355 -0.402,2.249 0,2.438c0.403,0.189 1.563,0.639 1.563,0.639c-0,0 -1.492,0.805 -2.036,0.971c-0.545,0.166 -1.918,0.876 -3.315,1.136c-1.397,0.261 -1.681,0.166 -2.249,0.545c-0.568,0.379 -5.256,4.688 -9.044,6.842Zm71.742,-30.193c-0,0 -1.505,-0.266 -2.184,-0.485c-0.679,-0.218 -3.712,-1.504 -3.809,-1.601c-0.097,-0.097 -5.581,-3.276 -6.673,-3.688c-1.091,-0.413 -2.038,-0.558 -2.669,-0.51c-0.63,0.049 -2.11,0.194 -2.11,0.194l-0.146,-2.377c0,-0 -1.189,-0.558 -1.577,-0.583c-0.388,-0.024 1.189,-0.194 1.892,-0.048c0.704,0.145 0.971,0.121 0.971,0.121c-0,0 0.048,-2.936 -0.218,-3.615c-0,0 0.727,0.776 0.849,1.092c-0,-0 2.596,1.14 3.324,2.183c0.728,1.044 1.019,1.214 1.456,1.432c0.436,0.218 2.765,1.286 3.93,1.965c1.165,0.68 3.615,2.524 4.392,3.3c0.776,0.776 1.941,1.771 2.572,2.62Zm9.645,-26.507c0.228,0.186 3.919,3.217 5.767,6.834l-0.545,0.546c-0,-0 -0.082,0.981 -0,1.362c0.082,0.382 0.109,1.881 0.164,2.263c0.054,0.381 0.165,0.865 0.514,0.403c0.311,-0.412 0.53,-0.836 1.112,-1.176c0.153,-0.089 0.707,-4.697 0.426,-5.448l-0.001,-0.004c0.123,0.298 1.87,4.574 1.764,6.388c-0.109,1.881 -1.308,1.99 -1.444,1.336c-0.136,-0.654 0.082,-1.69 -0.109,-2.017c-0.191,-0.327 -0.736,-0.082 -1.036,0.245c-0.3,0.327 -0.654,1.418 -0.545,2.154c0.109,0.735 -0.327,1.608 0.136,2.207c0.464,0.6 0.845,0.9 0.845,0.9l0.082,0.627c-0,-0 -0.327,0.027 -0.3,0.518c0.027,0.49 -0.191,0.681 0.327,1.035l0.218,0.382c0,-0 -0.191,0.354 -0.191,0.709l0.246,1.144l-0.818,1.172l-0.163,-0.654l-0.246,0.845l-0.599,0c-0,0 -0.055,-2.153 -0.954,-2.099c-0.9,0.055 -1.044,2.071 -1.044,2.071l-1.219,-0.437c0,0 -0.545,-1.908 -0.409,-2.535c0.137,-0.627 0.682,-1.717 0.736,-2.262c0.055,-0.545 0.082,-0.79 -0.19,-0.872c-0.273,-0.082 -0.709,-0.191 -0.9,-0.382c-0.191,-0.191 -2.235,-2.862 -2.508,-3.216c-0.272,-0.354 -2.015,-2.338 -2.015,-2.338c0,0 0.871,0.294 1.143,0.621c0.273,0.327 1.477,1.355 1.637,1.571c0.203,0.272 1.062,1.727 1.28,2.081c0.218,0.354 0.817,1.036 0.817,1.036c0,-0 0.164,-0.763 0.409,-0.981c0,-0 -0.218,-1.254 -0.518,-1.854c-0.299,-0.599 -1.553,-2.589 -1.826,-2.698c-0.272,-0.109 -0.79,-0.027 -0.79,-0.027c-0,-0 -0.109,-1.282 -0.409,-1.69c-0.295,-0.403 -2.779,-4.497 -3.094,-4.812l-0.013,-0.013c0.004,0.003 0.008,0.007 0.013,0.013c0.303,0.274 5.47,4.956 5.629,5.22l-0.136,0.546c-0,-0 0.408,0.79 0.735,1.444c0.328,0.654 0.764,1.499 0.9,2.017c0.136,0.518 0.382,1.254 0.736,1.418c0.354,0.163 1.008,0.436 1.226,0.354c0.218,-0.082 -0.136,-3.653 -0.299,-3.98c-0.164,-0.327 -0.682,-1.744 -0.927,-1.962l-0.462,-0c0.032,-0.002 0.544,-0.15 -3.163,-8.014l0.011,0.009Zm-24.737,15.832c0,-0 0.922,0.873 1.043,1.31c0.122,0.437 0.364,1.213 0.364,1.213c0,0 -1.261,-0.582 -1.383,-0.849c-0.121,-0.267 -0.024,-1.674 -0.024,-1.674Zm18.936,-2.621c-0,0 1.734,0.454 2.955,1.531c1.222,1.078 2.443,1.207 2.443,1.207c-0,-0 -1.121,-0.776 -2.285,-1.595c-1.163,-0.819 -1.619,-1.085 -3.113,-1.143Z" style="fill:#b3b3b7;"/></g></g></svg>