<?xml version="1.0" encoding="UTF-8" standalone="no"?><!DOCTYPE svg PUBLIC "-//W3C//DTD SVG 1.1//EN" "http://www.w3.org/Graphics/SVG/1.1/DTD/svg11.dtd"><svg width="100%" height="100%" viewBox="0 0 150 150" version="1.1" xmlns="http://www.w3.org/2000/svg" xmlns:xlink="http://www.w3.org/1999/xlink" xml:space="preserve" xmlns:serif="http://www.serif.com/" style="fill-rule:evenodd;clip-rule:evenodd;stroke-linejoin:round;stroke-miterlimit:2;"><path id="base" d="M150,75c0,-41.394 -33.606,-75 -75,-75c-41.394,0 -75,33.606 -75,75c0,41.394 33.606,75 75,75c41.394,0 75,-33.606 75,-75Z" style="fill:#2c2c2c;"/><path id="outline" d="M144,75c0,-38.082 -30.918,-69 -69,-69c-38.082,0 -69,30.918 -69,69c0,38.082 30.918,69 69,69c38.082,0 69,-30.918 69,-69Z" style="fill:#78387b;"/><path id="core" d="M141,75c0,-36.426 -29.574,-66 -66,-66c-36.426,0 -66,29.574 -66,66c0,36.426 29.574,66 66,66c36.426,0 66,-29.574 66,-66Z" style="fill:#d8d8d8;"/><clipPath id="_clip1"><path d="M141,75c0,-36.426 -29.574,-66 -66,-66c-36.426,0 -66,29.574 -66,66c0,36.426 29.574,66 66,66c36.426,0 66,-29.574 66,-66Z"/></clipPath><g clip-path="url(#_clip1)"><g id="excalibur"><path d="M108.382,44.067l-0,-0.924c-0,-0 -0.19,-0.925 -0.451,-1.091c-0.261,-0.166 -0.522,-0.404 -0.522,-0.404c0,0 0.593,-0.379 0.878,-0.355c0.284,0.023 1.067,-0.024 1.067,-0.024l0.427,-0.877c-0,-0 0.521,0.047 0.261,-0.332c-0.261,-0.38 -0.783,-0.475 -0.783,-0.475l-0.237,-0.284c-0,-0 1.707,-0.166 1.944,-0.19c0.238,-0.024 0.356,-0.237 1.186,-0.569c0.83,-0.332 2.49,-0.569 2.941,-0.688c0.451,-0.119 5.858,-0.711 6.403,-0.83c0.546,-0.119 1.138,-0.095 2.087,-0.213c0.949,-0.119 1.779,-0.332 2.134,-0.38c0.356,-0.047 1.257,-0.024 1.257,-0.024l0.641,0.143l0.142,-0.427l0.522,-0.048l0.047,0.57l0.19,0.426c-0,0 0.142,0.261 0.332,0.736c0.19,0.474 0.166,0.996 0.142,1.565c-0.024,0.569 -0.047,0.806 0.024,1.067c0.071,0.261 0.142,0.806 0.142,0.806c0,0 0.498,0.356 0.427,0.569c-0.071,0.214 -0.261,0.973 -0.261,0.973c0,-0 -0.071,0.759 -0.284,0.854c-0.214,0.094 -0.949,0.355 -1.305,0.521c-0.355,0.166 -1.091,0.569 -1.992,0.569c-0.901,0 -1.138,-0.047 -1.778,0.143c-0.641,0.19 -1.447,0.427 -2.159,0.498c-0.711,0.071 -0.853,0.047 -1.067,0.118c-0.213,0.072 -0.403,0.261 -0.806,0.309c-0.403,0.047 -1.304,0.095 -1.304,0.095c-0,-0 -1.352,0.403 -1.661,0.545c-0.308,0.142 -0.592,0.332 -0.711,0.688c-0.119,0.355 -0.356,1.233 -0.474,1.565c-0.119,0.332 -0.356,1.209 -0.759,1.826c-0.403,0.617 -0.38,1.162 -0.925,1.376c-0.546,0.213 -1.138,0.45 -1.138,0.45l0.023,-0.688c0,0 0.475,-0.26 0.901,-0.592c0.427,-0.333 0.736,-1.542 0.854,-1.945c0.119,-0.403 0.285,-1.091 0.19,-1.471c-0.095,-0.379 -0.261,-0.735 -0.593,-0.711c-0.332,0.024 -1.447,-0.617 -1.447,-0.617l1.423,-1.707c0,-0 -0.071,-0.285 0.238,-0.64c0.308,-0.356 0.45,-0.427 0.45,-0.427c0,-0 -0.024,-0.475 -0.379,-0.475c-0.356,0 -0.973,0.427 -1.139,0.664c-0.166,0.238 -0.355,0.688 -0.355,0.688l-3.534,0.973l-1.209,-1.329Z" style="fill:#6e7988;"/><path d="M79.046,51.135c0.355,0.023 1.612,0.498 1.897,0.427c0.284,-0.072 2.229,-0.38 2.632,-0.593c0.403,-0.214 1.305,-1.186 1.684,-1.898c0.379,-0.711 1.209,-3.154 1.708,-3.438c0.498,-0.285 2.181,-0.475 2.703,-0.593c0.522,-0.119 1.518,-0.237 1.921,-0.285c0.403,-0.047 2.87,-0.498 4.079,-0.711c1.21,-0.214 2.111,-0.214 2.917,-0.498c0.806,-0.285 1.257,-0.498 1.257,-0.498l0.308,-1.376c0,0 -0.095,-0.356 -0.142,-0.593c-0.047,-0.237 -0.024,-0.664 -0.095,-0.925c-0.071,-0.26 -0.142,-0.498 -0.142,-0.924c-0,-0.427 0.047,-0.427 0.047,-0.807c0,-0.379 0.119,-0.261 0,-0.688c-0.118,-0.426 -0.142,-0.403 -0.213,-0.758c-0.071,-0.356 0.024,-0.759 -0.19,-0.902c-0.213,-0.142 -0.545,-0.094 -0.545,-0.094l-0.119,0.45l-0.213,0.119l-0.166,-0.309c-0,0 -11.431,1.162 -12.048,1.328c-0.616,0.166 -1.328,0.332 -1.826,0.451c-0.498,0.119 -1.47,0.332 -1.731,0.451c-0.261,0.118 -0.569,0.213 -0.569,0.213l-0.475,0.166l-0.403,0.214l-1.494,0.047l-0.047,0.19c-0,-0 0.569,-0.095 0.759,0.189c0.189,0.285 0.047,0.475 0.047,0.475l-0.427,0.403l-0.45,0.569c-0,0 -1.542,-0.166 -1.684,0.142c-0.142,0.309 0.688,0.593 0.759,0.902c0.071,0.308 -0.19,1.754 -0.19,1.754l-0.996,5.336c-0,0 1.091,2.04 1.447,2.064Zm5.691,-4.815l0.332,0.048c0,-0 0.854,0.261 -0.166,1.921c-1.02,1.66 -1.399,2.205 -1.684,2.205c-0.284,0 -0.996,-1.019 -0.996,-1.019l0.878,-2.467l1.162,-0.688l0.474,0Zm-2.134,-1.067l0.356,0.617l-0.854,-0l0.498,-0.617Zm2.277,-0.854c-0,0 0.142,0.475 0.332,0.57c0.189,0.095 -0.617,0.521 -0.807,0.593c-0.189,0.071 -0.427,0.189 -0.569,-0c-0.142,-0.19 -0.545,-0.783 -0.403,-0.831c0.142,-0.047 1.447,-0.332 1.447,-0.332Z" style="fill:#6e7988;"/><path d="M113.268,52.761c-0.099,0.377 -0.829,0.419 -0.944,0.457c-0.116,0.039 -0.617,0.303 -0.752,0.317c-0.135,0.014 -1.493,-0.231 -1.661,-0.281c-0.169,-0.05 -2.155,-0.584 -2.223,-0.611c-0.069,-0.028 -0.166,0.011 -0.207,0.077c-0.041,0.066 -0.501,1.181 -0.556,1.303c-0.056,0.121 -0.469,0.969 -0.538,1.077c-0.068,0.107 -0.804,1.217 -0.862,1.308c-0.058,0.091 -0.126,1.372 -0.149,1.413c-0.022,0.041 -0.628,0.322 -0.718,0.298c-0.091,-0.025 -1.235,-1.003 -1.436,-1.144c-0.201,-0.14 -0.867,-0.677 -0.972,-0.754c-0.105,-0.077 -0.686,-0.496 -0.752,-0.491c-0.066,0.006 -0.342,1.452 -0.369,1.675c-0.028,0.223 -0.455,3.405 -0.493,3.57c-0.039,0.165 -0.243,0.559 -0.347,0.73c-0.105,0.171 -0.81,1.653 -0.887,1.782c-0.077,0.13 -1.948,1.232 -2.077,1.328c-0.13,0.096 -1.32,0.832 -1.391,0.884c-0.072,0.053 -0.535,-0.005 -0.595,-0.063c-0.061,-0.058 -0.851,-1.89 -0.887,-1.956c-0.036,-0.066 -0.675,-0.452 -0.738,-0.449c-0.064,0.003 -0.681,0.254 -0.984,0.309c-0.303,0.055 -2.002,0.584 -2.096,0.592c-0.094,0.008 -2.116,-0.391 -2.311,-0.383c-0.196,0.008 -1.548,-0.457 -1.587,-0.457c-0.038,-0 -1.102,0.228 -1.162,0.237c-0.061,0.008 -1.124,-0.733 -1.152,-0.728c-0.027,0.006 -0.818,0.309 -0.972,0.381c-0.154,0.071 -2.113,1.063 -2.261,1.156c-0.149,0.094 -1.389,0.846 -1.562,0.981c-0.174,0.135 -1.65,1.033 -1.777,1.116c-0.127,0.082 -1.419,0.876 -1.512,0.867c-0.094,-0.008 -2.383,-0.195 -2.534,-0.209c-0.152,-0.014 -1.394,-0.333 -1.496,-0.355c-0.102,-0.022 -2.589,-0.323 -2.766,-0.339c-0.176,-0.017 -0.837,0.295 -0.975,0.366c-0.137,0.072 -2.107,0.967 -2.165,1.006c-0.058,0.038 -0.454,0.873 -0.493,0.986c-0.038,0.113 -0.116,2.815 -0.113,3.003c0.003,0.189 -0.171,2.157 -0.165,2.309c0.005,0.151 -0.231,1.815 -0.251,2.407c-0.019,0.593 0.361,1.73 0.386,1.821c0.025,0.091 -0,2.179 0.008,2.339c0.008,0.16 0.386,2.215 0.411,2.413c0.024,0.198 -0.111,0.92 -0.113,1.03c-0.003,0.11 1.126,1.375 1.192,1.468c0.066,0.094 -0.344,1.331 -0.385,1.507c-0.042,0.176 -0.458,2.201 -0.444,2.256c0.014,0.055 0.587,0.766 0.631,0.846c0.044,0.08 0.347,0.68 0.413,0.804c0.066,0.124 0.65,1.311 0.749,1.476c0.1,0.166 0.54,1.827 0.56,1.918c0.019,0.091 1.363,1.542 1.393,1.583c0.031,0.042 -0.061,2.5 -0.007,2.438c0.053,-0.061 1.21,-1.421 1.594,-1.863c0.384,-0.442 1.363,-1.606 2.024,-2.309c0.661,-0.702 1.444,-1.594 1.84,-2.032c0.396,-0.438 2.151,-2.181 2.462,-2.55c0.312,-0.369 1.668,-1.518 2.079,-1.898c0.411,-0.38 2.074,-1.894 2.358,-2.128c0.284,-0.234 3.008,-2.382 3.069,-2.412c0.062,-0.031 2.908,-0.119 3.02,-0.123c0.111,-0.004 0.146,-0.069 0.146,-0.069c0.199,-0.127 2.554,-1.233 2.735,-1.291c0.18,-0.058 2.228,-0.53 2.339,-0.534c0.111,-0.004 1.222,0.161 1.46,0.192c0.238,0.031 1.167,0.111 1.452,0.138c0.284,0.027 1.986,0.123 2.082,0.162c0.096,0.038 0.772,0.595 0.948,0.791c0.177,0.196 1.76,2.017 2.152,2.458c0.391,0.442 1.886,1.714 2.224,1.971c0.338,0.257 2.328,1.702 2.562,1.905c0.234,0.204 3.799,2.175 4.018,2.263c0.219,0.088 3.196,2.02 3.426,2.189c0.231,0.169 2.155,1.499 2.309,1.587c0.154,0.088 2.574,1.644 2.781,1.778c0.208,0.135 2.989,1.825 3.457,2.09c0.469,0.265 2.344,1.406 2.482,1.425c0.138,0.019 1.202,0.227 1.298,0.227c0.096,-0 0.622,-0.215 0.799,-0.246c0.177,-0.031 0.803,-0.084 1.51,-0.154c0.707,-0.069 1.832,-0.376 2.116,-0.365c0.285,0.012 0.869,0.143 1.041,0.146c0.173,0.004 0.999,-0.026 0.999,-0.026c0,-0 0.023,-0.093 0.361,-0.492c0.338,-0.4 2.597,-1.579 2.693,-1.579c0.096,0 0.85,0.439 0.85,0.439l0.834,0.618l-8.238,15.354l-0.787,-0.643c-0,-0 -1.622,-2.134 -1.794,-2.418c-0.173,-0.284 -1.193,-3.392 -1.193,-3.392c0,0 -1.789,-0.321 -2.12,-0.405c-0.331,-0.084 -3.406,-0.028 -6.143,0.032c-2.738,0.061 -3.918,-0.051 -4.282,-0.065c-0.363,-0.014 -3.671,-0.396 -4.035,-0.489c-0.363,-0.093 -2.739,-0.41 -2.865,-0.475c-0.126,-0.066 -2.008,-1.473 -2.283,-1.673c-0.275,-0.2 -2.483,-1.868 -2.572,-1.952c-0.088,-0.084 -1.299,-2.031 -1.458,-2.33c-0.158,-0.298 -1.141,-1.873 -1.267,-2.087c-0.126,-0.214 -0.806,-1.523 -0.871,-1.677c-0.066,-0.154 -0.452,-1.02 -0.452,-1.02c-0,-0 -0.895,0.927 -1.076,1.085c-0.182,0.159 -0.494,0.718 -0.601,0.876c-0.108,0.158 -1.086,1.738 -1.221,1.91c-0.135,0.173 -0.993,1.528 -1.123,1.701c-0.13,0.172 -0.895,0.904 -1.025,1.043c-0.13,0.14 -1.952,1.859 -2.166,2.046c-0.215,0.186 -2.148,2.026 -2.302,2.176c-0.154,0.149 -1.561,1.523 -1.687,1.649c-0.125,0.126 -1.313,0.745 -1.551,0.862c-0.238,0.116 -2.362,1.272 -2.516,1.383c-0.154,0.112 -1.905,1.011 -2.134,1.133c-0.228,0.121 -1.966,1.556 -2.162,1.658c-0.195,0.103 -2.301,1.132 -2.93,1.445c-0.629,0.312 -2.344,1.038 -2.702,1.108c-0.359,0.07 -2.302,0.299 -2.721,0.345c-0.419,0.047 -3.206,0.322 -3.266,0.359c-0.061,0.037 0.289,0.838 0.34,0.955c0.051,0.116 0.033,0.629 0.07,0.694c0.037,0.065 0.866,1.151 1.002,1.365c0.135,0.215 0.652,1.426 0.764,1.552c0.111,0.126 2.39,1.812 2.478,1.891c0.089,0.079 0.443,0.811 0.508,0.885c0.065,0.075 3.122,0.793 3.294,0.867c0.172,0.075 1.696,1.132 1.738,1.202c0.042,0.07 0.233,0.522 0.275,0.643c0.042,0.121 0.838,1.943 0.894,2.041c0.056,0.098 1.104,1.081 1.263,1.286c0.158,0.205 1.738,2.264 1.752,2.329c0.014,0.065 -0.131,0.405 -0.131,0.62c0,0.214 0.019,0.512 0.047,0.591c0.028,0.08 -0.555,1.091 -0.625,1.123c-0.069,0.033 -1.765,0.033 -1.835,0.056c-0.07,0.023 -0.303,0.345 -0.359,0.429c-0.056,0.084 0.084,1.435 0.051,1.491c-0.032,0.056 -0.708,0.843 -0.787,0.848c-0.079,0.004 -1.934,-0.038 -2.162,-0.038c-0.228,0 -3.182,0.163 -3.354,0.14c-0.173,-0.023 -1.589,-0.75 -1.738,-0.829c-0.149,-0.079 -1.836,-0.727 -1.938,-0.802c-0.103,-0.074 -1.24,-1.779 -1.347,-1.938c-0.107,-0.158 -1.188,-1.803 -1.379,-2.068c-0.191,-0.266 -0.685,-1.165 -0.713,-1.244c-0.028,-0.079 -0.647,-1.808 -0.685,-1.896c-0.037,-0.089 -1.132,-1.077 -1.285,-1.221c-0.154,-0.145 -1.473,-0.774 -1.766,-0.923c-0.294,-0.149 -2.861,-1.099 -2.963,-1.164c-0.103,-0.066 -2.055,-2.796 -2.088,-2.88c-0.032,-0.084 -0.139,-1.723 -0.125,-1.966c0.014,-0.242 0.447,-1.812 0.563,-1.924c0.117,-0.112 1.636,-0.899 1.706,-0.918c0.069,-0.018 0.871,-0.046 0.871,-0.046c-0,-0 -0.746,-0.732 -1.002,-1.007c-0.256,-0.275 -1.267,-1.43 -1.416,-1.593c-0.149,-0.163 -0.592,-0.662 -0.69,-0.671c-0.098,-0.009 -2.86,-1.356 -3.103,-1.463c-0.242,-0.107 -1.043,-0.522 -1.23,-0.703c-0.186,-0.182 -1.411,-1.011 -1.765,-1.221c-0.355,-0.21 -0.802,-0.396 -0.912,-0.415c-0.111,-0.018 -3.019,-0.927 -3.411,-1.076c-0.391,-0.149 -1.067,-0.685 -1.192,-0.783c-0.126,-0.098 -0.559,-1.067 -0.559,-1.067c-0,0 0.125,-0.139 1.346,-1.053c1.221,-0.913 1.528,-1.402 1.612,-1.472c0.084,-0.07 0.876,-0.932 0.876,-0.932c-0,0 -0.895,-1.053 -0.978,-1.188c-0.084,-0.135 -1.244,-1.84 -1.347,-1.966c-0.102,-0.126 -2.222,-2.096 -2.325,-2.204c-0.102,-0.107 -1.784,-1.765 -1.957,-1.97c-0.172,-0.205 -1.514,-1.584 -1.695,-1.766c-0.182,-0.182 -0.737,-0.829 -0.816,-0.955c-0.079,-0.126 -0.969,-1.007 -1.085,-1.17c-0.117,-0.163 -1.342,-1.239 -1.44,-1.369c-0.098,-0.131 -1.365,-1.23 -1.477,-1.342c-0.112,-0.112 -1.155,-1.118 -1.262,-1.272c-0.108,-0.154 -1.296,-2.083 -1.366,-2.18c-0.069,-0.098 -0.796,-1.421 -0.843,-1.496c-0.046,-0.075 -0.498,-0.494 -0.564,-0.582c-0.065,-0.089 -0.997,-1.687 -1.099,-1.897c-0.103,-0.209 -1.822,-3.177 -1.882,-3.289c-0.061,-0.112 -0.187,-1.495 -0.205,-1.761c-0.019,-0.266 -0.271,-3.196 -0.271,-3.196c0,-0 -0.759,-0.177 -0.834,-0.326c-0.074,-0.149 -0.498,-2.726 -0.489,-2.968c0.01,-0.242 0.173,-1.272 0.177,-1.533c0.005,-0.261 -0.275,-4.035 -0.209,-4.244c0.065,-0.21 0.521,-2.064 0.675,-2.437c0.154,-0.373 1.09,-2.055 1.258,-2.278c0.168,-0.224 1.58,-1.84 1.864,-2.181c0.284,-0.34 3.089,-3.005 3.419,-3.307c0.331,-0.303 1.566,-1.505 1.617,-1.64c0.051,-0.136 0.103,-0.914 0.131,-1.258c0.028,-0.345 0.2,-2.078 0.274,-2.213c0.075,-0.136 0.741,-1.268 1.016,-1.776c0.275,-0.507 1.044,-1.975 1.146,-2.161c0.103,-0.187 1.389,-1.897 1.505,-2.046c0.117,-0.149 0.485,-0.251 0.485,-0.251l0.051,-0.788c0.172,-0.256 0.648,-0.424 0.648,-0.424c-0,0 -0.261,-1.644 -0.247,-1.714c0.014,-0.07 0.097,-0.862 0.111,-1.174c0.014,-0.312 0.108,-0.997 0.108,-0.997l1.118,-1.053l-0.033,-0.326c0,-0 0.21,-1.086 0.485,-1.785c0.275,-0.699 0.736,-3.96 0.834,-4.016c0.097,-0.056 1.654,-0.661 1.654,-0.661c-0,-0 0.871,-0.066 1.556,0.004c0.685,0.07 2.134,0.722 2.688,0.909c0.554,0.186 2.698,0.885 3.336,1.113c0.638,0.229 3.079,1.188 3.42,1.328c0.34,0.14 2.143,1.277 2.762,1.705c0.62,0.429 2.507,2.181 2.814,2.39c0.308,0.21 1.897,1.161 1.897,1.161l0.74,-0.019c0,-0 0.839,-0.503 1.291,-0.825c0.452,-0.321 1.482,-1.123 1.482,-1.123c1.043,0.485 1.747,0.331 1.747,0.331l0.181,-0.074c0,-0 0.089,-0.089 0.844,0.065c0.754,0.154 3.107,1.155 3.401,1.384c0.293,0.23 -0.042,0.424 -0.042,0.424l-0.419,0.429l-2.815,2.399l-4.03,3.392l-1.14,1.527c0.059,-0.018 0.846,-0.256 1.288,-0.396c0.46,-0.145 1.103,-0.542 1.406,-0.662c0.302,-0.119 2.148,-0.472 2.81,-0.624c0.662,-0.151 3.006,-0.724 3.214,-0.768c0.208,-0.044 1.399,-0.441 1.613,-0.448c0.215,-0.006 0.511,0.24 0.605,0.252c0.095,0.013 0.549,-0.264 0.631,-0.327c0.081,-0.063 0.504,-0.145 0.586,-0.196c0.082,-0.05 0.535,-0.624 0.674,-0.687c0.139,-0.063 0.718,-0.119 0.718,-0.119c0.372,-0.574 1.311,-0.99 1.67,-1.097c0.36,-0.107 1.267,-0.202 1.992,-0.208c0.724,-0.006 0.958,-0.17 1.096,-0.202c0.139,-0.031 0.883,-0.113 1.084,-0.138c0.202,-0.025 0.939,-0.164 1.147,-0.214c0.208,-0.051 0.479,-0.139 0.769,0.126c0.29,0.264 -0.025,0.781 -0.246,1.033c-0.22,0.252 -0.996,0.473 -1.229,0.58c-0.233,0.107 -0.554,0.328 -0.939,0.391c-0.384,0.063 -0.535,0.075 -0.832,0.132c-0.296,0.057 -0.636,0.189 -0.794,0.265c-0.157,0.075 -0.327,0.605 -0.409,0.857c-0.082,0.252 -0.586,0.964 -0.737,1.455c-0.152,0.492 -0.845,2.112 -0.845,2.112c0.303,0.548 0.334,0.976 0.334,0.976c0.517,0.315 1.538,1.002 1.538,1.002c0.012,-0.245 0.182,-0.479 0.296,-0.661c0.113,-0.183 0.933,-0.038 0.933,-0.038c-0,-0 -0.713,-0.202 -0.952,-0.372c-0.239,-0.17 -0.019,-1.046 0.132,-1.279c0.152,-0.233 0.826,-0.347 0.826,-0.347c-0,0 -1.147,-0.309 -1.16,-0.945c-0.012,-0.637 0.788,-0.794 1.084,-0.769c0.296,0.025 0.731,-0.006 0.731,-0.006l0.486,-0.46c-0,-0 0.214,0.119 0.346,0.157c0.132,0.038 0.734,0.267 0.982,0.256c0.248,-0.01 0.756,0.127 0.93,0.222c0.174,0.095 0.19,0.946 -0.09,1.226c-0.28,0.28 -1.722,0.661 -1.722,0.661c-0,-0 0.264,-0 0.343,0.037c0.079,0.037 0.465,0.428 0.597,0.708c0.132,0.28 -0.243,0.977 -0.28,1.109c-0.037,0.133 -0.671,0.164 -0.671,0.164c0,0 0.211,0.254 0.28,0.428c0.069,0.175 -0.238,0.677 -0.322,0.74c-0.085,0.063 -0.851,0.159 -1.21,0.164c-0.36,0.005 -0.481,-0.116 -0.481,-0.116c-0,-0 -0.116,0.005 -0.212,0.068c-0.095,0.064 -0.285,0.27 -0.734,0.365c-0.449,0.095 -2.135,-0.423 -2.304,-0.465c-0.169,-0.042 -1.062,-0.206 -1.337,-0.312c-0.275,-0.106 -0.861,-0.576 -0.951,-0.639c-0.09,-0.064 -0.232,-0.058 -0.396,-0.074c-0.164,-0.016 -0.909,0.354 -1.089,0.465c-0.179,0.111 -1.315,1.548 -1.622,1.833c-0.306,0.286 -1.236,1.131 -1.236,1.131c-0.032,0.206 2.673,0.587 2.864,0.576c0.19,-0.01 1.569,-0.121 1.939,-0.116c0.37,0.005 1.321,0.19 1.559,0.201c0.237,0.01 1.432,-0.111 1.775,-0.132c0.344,-0.022 3.831,-0.043 4.201,-0.122c0.37,-0.079 2.246,-2.082 2.378,-2.219c0.132,-0.138 0.549,-0.851 0.74,-1.041c0.19,-0.191 1.088,-0.872 1.194,-0.957c0.105,-0.084 1.109,-0.702 1.432,-0.882c0.322,-0.18 1.543,-0.983 1.833,-1.094c0.291,-0.111 1.903,-0.528 3.567,-1.057c1.665,-0.528 2.373,-0.914 2.721,-0.967c0.349,-0.053 5.395,-0.354 5.591,-0.349c0.195,0.006 0.999,-0.443 1.11,-0.438c0.111,0.005 1.093,0.354 1.162,0.343c0.069,-0.01 0.254,-0.19 0.423,-0.338c0.169,-0.148 0.909,-1.035 1.273,-1.294c0.365,-0.259 0.693,-0.096 0.904,-0.048c0.211,0.048 1.009,0.38 1.051,0.47c0.043,0.09 -0.1,0.386 -0.1,0.386c0,0 2.658,0.169 2.732,0.169c0.074,0 0.275,-0.158 0.407,-0.206c0.132,-0.047 0.644,-0.09 0.898,-0.111c0.254,-0.021 1.099,-0.005 1.274,0.016c0.174,0.021 2.208,0.137 2.546,0.18c0.339,0.042 1.491,0.348 1.639,0.375c0.148,0.026 0.813,0.327 1.078,0.444c0.264,0.116 -0.006,0.475 -0.074,0.544c-0.069,0.069 -0.746,0.481 -0.862,0.502c-0.116,0.021 -1.622,-0.095 -1.971,-0.074c-0.348,0.021 -2.351,-0.211 -2.43,-0.174c-0.08,0.037 -0.471,0.317 -0.471,0.317c0,-0 0.666,0.443 0.729,0.56c0.064,0.116 0.184,1.531 0.171,1.637c-0.014,0.107 -0.477,0.389 -0.514,0.435c-0.037,0.046 -0.009,0.477 -0.009,0.477c0.014,0.518 -0.181,1.281 -0.269,1.392c-0.088,0.111 -0.416,0.199 -0.425,0.255c-0.01,0.055 0.143,0.513 0.134,0.615c-0.009,0.102 -0.179,0.863 -0.179,0.863Z" style="fill:#3d4750;"/></g></g></svg>