<?xml version="1.0" encoding="UTF-8" standalone="no"?><!DOCTYPE svg PUBLIC "-//W3C//DTD SVG 1.1//EN" "http://www.w3.org/Graphics/SVG/1.1/DTD/svg11.dtd"><svg width="100%" height="100%" viewBox="0 0 150 150" version="1.1" xmlns="http://www.w3.org/2000/svg" xmlns:xlink="http://www.w3.org/1999/xlink" xml:space="preserve" xmlns:serif="http://www.serif.com/" style="fill-rule:evenodd;clip-rule:evenodd;stroke-linejoin:round;stroke-miterlimit:2;"><path id="base" d="M150,75c0,-41.394 -33.606,-75 -75,-75c-41.394,0 -75,33.606 -75,75c0,41.394 33.606,75 75,75c41.394,0 75,-33.606 75,-75Z" style="fill:#2c2c2c;"/><path id="outline" d="M144,75c0,-38.082 -30.918,-69 -69,-69c-38.082,0 -69,30.918 -69,69c0,38.082 30.918,69 69,69c38.082,0 69,-30.918 69,-69Z" style="fill:#78387b;"/><path id="core" d="M141,75c0,-36.426 -29.574,-66 -66,-66c-36.426,0 -66,29.574 -66,66c0,36.426 29.574,66 66,66c36.426,0 66,-29.574 66,-66Z" style="fill:#d8d8d8;"/><clipPath id="_clip1"><path d="M141,75c0,-36.426 -29.574,-66 -66,-66c-36.426,0 -66,29.574 -66,66c0,36.426 29.574,66 66,66c36.426,0 66,-29.574 66,-66Z"/></clipPath><g clip-path="url(#_clip1)"><g id="fragile"><path d="M31.776,40.646l0.164,3.555l2.962,-0.715l0.838,-0.98l-1.512,-3.147l-2.452,1.287Z" style="fill:#2c240d;"/><path d="M15.734,36.366l-3.632,11.589l1.38,15.257l7.883,-2.506l6.612,-32.586l-12.243,8.246Z" style="fill:#606054;"/><path d="M21.898,59.343l-8.642,1.409l2.177,31.608l1.308,-0.096l-0.25,-7.869l5.407,-25.052Zm16.475,-15.198l-2.885,-2.05c-0,-0 -0.623,-0.304 -1.033,0.182c-0.41,0.486 0.107,1.184 0.107,1.184l2.505,2.02c-0,-0 0.911,0.456 1.397,-0.182c0.486,-0.638 -0.091,-1.154 -0.091,-1.154Zm-13.974,1.523l33.306,-16.87l7.215,-22.048l-36.078,15.794l-4.443,23.124Z" style="fill:#040404;"/><path d="M78.88,59.292c0,-0 -0.131,-5.01 -1.64,-6.345c-1.51,-1.334 -6.782,-3.435 -9.298,-4.244c-2.516,-0.81 -6.498,-1.816 -7.701,-1.619c-1.204,0.197 -1.926,1.356 -1.926,1.356c0,0 -0.415,1.247 -0.765,1.816c-0.35,0.569 -1.225,1.225 -1.291,1.663c-0.066,0.437 0.109,3.697 -0.066,4.069c-0.175,0.372 -4.332,4.223 -4.507,4.573c-0.175,0.35 -0.371,0.787 -0.59,1.115c-0.219,0.329 -4.573,4.179 -4.835,4.485c-0.263,0.307 -0.175,1.401 -0.657,2.013c-0.481,0.613 -1.75,2.363 -1.947,2.625c-0.197,0.263 -0.787,0.679 -0.831,0.985c-0.044,0.306 0.087,1.75 -0.066,1.947c-0.153,0.197 -0.525,0.831 -0.722,1.335c-0.197,0.503 -0.153,1.378 -0.153,1.772c0,0.393 0.088,1.028 0.044,1.662c-0.044,0.635 1.138,1.094 1.378,1.948c0.241,0.853 -0.087,2.844 -0.044,3.5c0.044,0.656 -0.043,1.422 -0.087,1.772c-0.044,0.35 -0.613,1.378 -0.547,1.816c0.066,0.437 0.219,2.21 0.175,3.172c-0.044,0.963 -0.284,8.598 -0.372,9.845c-0.087,1.247 -0.897,8.598 -0.962,9.911c-0.066,1.312 -0.547,2.888 -0.657,3.391c-0.109,0.503 -0.175,3.347 -0.175,4.091c0,0.744 0.722,3.785 0.875,4.769c0.153,0.985 0.7,1.138 0.81,2.473c0.109,1.334 0.153,3.412 0.175,4.266c0.022,0.853 0.494,2.61 0.022,3.741c-2.871,6.87 37.008,15.444 39.677,10.196l13.154,-4.88l0.1,-3.475c0,0 -0.14,-0.441 0.763,-0.421c0.904,0.02 0.784,0.482 0.784,0.482l-0.061,2.349l4.298,-1.084c0,-0 -0.181,-1.004 -0.602,-1.446c-0.422,-0.442 -2.732,-2.37 -3.133,-3.233c-0.402,-0.864 -0.924,-2.912 -1.326,-3.354c-0.401,-0.442 -0.381,-2.852 -0.321,-4.438c0.06,-1.587 -0.02,-9.098 -0.02,-9.098c-0,0 4.9,-3.334 5.864,-3.956c0.964,-0.623 6.728,-5.483 7.752,-6.286c1.024,-0.803 5.161,-4.94 6.065,-5.764c0.904,-0.823 3.334,-2.711 3.494,-3.233c0.161,-0.522 -0.181,-2.912 -0.201,-3.494c-0.02,-0.583 0.02,-2.511 0.041,-2.932c0.02,-0.422 0.1,-0.764 0.361,-0.964c0.261,-0.201 0.582,-0.422 0.623,-0.683c0.04,-0.261 1.687,-0.02 1.887,-0.482c0.201,-0.462 0.121,-2.149 -0.241,-2.551c-0.361,-0.401 -1.687,-0.763 -2.068,-0.823c-0.382,-0.06 -0.382,-1.024 -0.462,-1.546c-0.08,-0.523 -0.582,-1.266 -1.004,-1.828c-0.422,-0.562 -1.065,-1.546 -1.788,-1.627c-0.722,-0.08 -2.53,0.482 -2.952,0.703c-0.421,0.221 -1.667,1.727 -1.887,1.768c-0.221,0.04 -0.201,-0.342 0.1,-0.683c0.301,-0.342 1.406,-2.551 2.028,-3.314c0.623,-0.763 1.426,-2.169 1.326,-2.57c-0.101,-0.402 -0.743,-1.125 -1.306,-1.165c-0.562,-0.04 -1.646,1.345 -2.168,1.807c-0.523,0.462 -2.33,2.912 -2.631,3.394c-0.302,0.482 -1.406,2.751 -1.727,3.294c-0.322,0.542 -1.306,1.807 -1.607,2.389c-0.301,0.583 -0.382,2.692 -0.623,3.113c-0.241,0.422 -0.622,1.988 -0.682,2.511c-0.061,0.522 -0.382,1.084 -0.603,1.305c-0.221,0.221 -1.124,0.924 -1.767,1.325c-0.643,0.402 -3.133,2.27 -4.258,1.908c0,0 -0.562,-4.016 -0.622,-4.458c-0.06,-0.442 -1.928,-4.278 -2.832,-5.864c-0.904,-1.587 -4.659,-6.688 -5.342,-7.531c-0.683,-0.844 -1.627,-1.828 -1.807,-2.29c-0.181,-0.461 -0.743,-2.47 -1.145,-2.972c-0.402,-0.502 -1.446,-1.466 -1.586,-1.787c-0.141,-0.321 0.12,-2.069 -0.543,-2.711c-0.662,-0.643 -3.856,-3.977 -4.137,-5.443c-0.281,-1.466 -0.505,-2.061 -0.505,-2.061Z" style="fill:#181713;"/><path d="M16.671,91.626c0,-0 0.041,0.75 -0.304,0.771c-0.345,0.02 -0.528,-0.751 -0.528,-0.751l-0.588,-34.904c-0,-0 0.02,-0.447 0.345,-0.508c0.324,-0.061 0.446,0.568 0.446,0.568l0.629,34.824Zm17.546,-58.573l0.078,0.236l0.063,0.55l6.057,3.852l0.767,1.163l16.862,10.32l2.792,1.903l0.917,0.041l15.835,9.443l1.643,1.232l1.108,0.11l11.812,7.158l0.15,2.436l-2.107,0.246l-6.419,-4.434c-0,-0 -1.082,-1.259 -1.41,-1.697c-0.329,-0.438 -1.013,-1.109 -1.519,-1.41c-0.507,-0.301 -1.027,-0.109 -1.697,-0.629c-0.671,-0.521 -1.164,-1.082 -1.766,-1.273c-0.602,-0.192 -3.476,-1.903 -3.476,-1.903l-13.509,-8.444l-19.791,-12.264c-0,0 -0.698,-0.137 -1.191,-0.328c-0.493,-0.192 -1.41,-0.63 -1.82,-0.931c-0.411,-0.301 -4.736,-2.97 -4.736,-2.97l-1.769,0.166c-2.035,1.532 -8.02,6.057 -8.937,6.949c0,-0 -5.991,10.735 -7.365,12.272c-0,-0 0.199,-2.047 0.17,-2.367c-0.029,-0.321 -0.146,-6.613 -0.146,-6.613l1.865,-3.409l0.407,2.914c0,-0 11.158,-9.148 12.847,-10.08l0.142,-0.078l-0.016,-0.584l-4.843,-0.143l-1.155,-0.837l6.16,-0.089l0.019,-0.046l0.28,-0.326l-5.354,-2.92l0.753,-0.904l5.238,3.084l0.24,-0.28l0.678,-0.207l1.108,0.239l-0.015,-9.231l0.97,-0.804l0.08,10.887Zm-12.858,23.465c-0,0 -0.548,0.954 -0.264,1.137c0.284,0.182 1.299,-0.447 1.299,-0.447l10.207,-12.48c0,0 1.096,-0.101 1.299,-0.284c0.203,-0.183 0.325,-1.806 0.183,-2.05c-0.142,-0.243 -0.731,-0.994 -0.974,-0.893c-0.244,0.102 -1.198,2.111 -1.279,2.314c-0.081,0.203 -10.471,12.703 -10.471,12.703Z" style="fill:#2c240d;"/><path d="M99.774,78.385l-9.284,-5.718c-0,0 -0.464,0.126 -0.636,-0.029c-0.31,-0.281 -0.088,-0.724 -0.088,-0.724l2.57,-3.088c0,0 0.444,-0.502 0.843,-0.192c0.224,0.175 0.192,0.635 0.192,0.635l9.083,5.781l-2.68,3.335Z" style="fill:#11100b;"/><path d="M115.812,97.532c0,0 0.163,1.98 0.252,2.408c0.088,0.429 0.561,1.803 0.738,2.349c0.178,0.547 0.695,1.626 0.99,2.039c0.296,0.414 1.049,1.522 1.758,1.655c0.709,0.133 1.389,0.34 1.596,-0.325c0.207,-0.665 0.295,-2.497 0.34,-3.117c0.044,-0.621 0.206,-2.675 0.074,-3.118c-0.133,-0.443 -1.049,-2.334 -1.242,-2.703c-0.192,-0.37 -1.108,-2.305 -1.285,-2.66c-0.177,-0.354 -2.024,-0.561 -2.024,-0.561l-1.197,4.033Zm1.965,-3.058c0,-0 1.153,1.463 1.448,2.024c0.296,0.561 1.049,1.965 1.226,2.778c0.178,0.812 0.518,1.108 0.473,2.216c-0.044,1.108 -0.34,2.29 -0.354,2.94c-0.015,0.65 0.088,1.034 -0.237,1.034c-0.325,-0 -0.665,0.088 -0.945,-0.177c-0.281,-0.266 -1.315,-1.936 -1.655,-2.482c-0.34,-0.547 -0.901,-2.084 -1.064,-2.837c-0.162,-0.754 -0.236,-3.014 -0.236,-3.014l1.344,-2.482Zm-15.697,-19.662l7.424,4.725l-2.94,3.029l-7.178,-4.42l2.694,-3.334Z" style="fill:#11100b;"/><path d="M58.963,27.417l1.984,21.723l16.304,5.467c-0,-0 0.652,-1.555 1.982,-1.383c1.33,0.172 3.787,0.344 4.898,-0.079c1.111,-0.422 1.69,-1.33 1.737,-1.971c0.047,-0.642 -0.125,-1.283 0.172,-1.737c0.297,-0.454 0.783,-0.704 1.033,-1.205c0.25,-0.501 0.141,-1.393 0.141,-1.393c-0,0 0.688,-0.548 0.86,-1.205c0.173,-0.657 -0.281,-2.895 -0.062,-3.192c0.219,-0.297 0.767,-0.391 1.22,-0.485c0.454,-0.094 0.924,-0.83 0.752,-1.503c-0.173,-0.672 -1.16,-1.741 -1.238,-2.43c-0.079,-0.688 0.156,-2.128 0.735,-2.848c0.579,-0.719 0.8,-1.716 0.847,-2.515c0.047,-0.798 -0.72,-2.691 -0.876,-3.849c-0.157,-1.158 -0.814,-3.584 -1.424,-5.102c-0.611,-1.517 -6.369,-5.257 -6.369,-5.257l-22.696,8.964Z" style="fill:#d7b298;"/><path d="M88.235,24.994c0,0 0.803,0.02 1.077,-0.528c0.274,-0.548 0.979,-1.097 1.096,-1.449c0.118,-0.352 0.411,-0.959 0.098,-1.586c-0.313,-0.626 -0.43,-0.45 -0.842,-1.233c-0.411,-0.783 -0.352,-1.253 -0.195,-2.271c0.156,-1.018 0.959,-0.763 -0.196,-1.547c-1.155,-0.783 -1.801,-1.018 -2.937,-1.468c-1.135,-0.45 -3.602,-1.527 -4.972,-1.605c-1.371,-0.078 -1.292,0.196 -3.054,-0.039c-1.762,-0.235 -5.795,-0.353 -6.422,-0.451c-0.626,-0.097 -0.822,-0.43 -1.82,-0.567c-0.999,-0.137 -4.19,1.116 -5.364,1.527c-1.175,0.411 -1.782,0.176 -2.565,0.548c-0.783,0.372 -2.31,1.409 -2.799,1.86c-0.49,0.45 -1.841,3.524 -2.35,4.248c-0.509,0.724 -0.567,0.842 -1.174,1.449c-0.607,0.607 -0.803,0.92 -1.057,1.507c-0.255,0.587 -0.568,0.959 -0.686,1.586c-0.117,0.626 -0.489,1.37 -0.332,1.997c0.156,0.626 0.489,1.037 0.274,1.742c-0.216,0.705 -0.666,2.095 -0.705,2.545c-0.039,0.45 0.215,2.369 0.372,3.015c0.156,0.646 0.293,0.744 0.45,1.409c0.157,0.666 0.313,1.273 0.47,2.663c0.157,1.39 1.214,3.837 1.86,4.62c0.646,0.783 0.665,0.862 1.155,1.449c0.489,0.587 1.116,1.409 1.409,1.703c0.294,0.294 0.588,0.783 1.155,0.489c0.568,-0.293 1.645,-0.881 1.801,-1.076c0.157,-0.196 1.097,-0.274 1.097,-0.901c-0,-0.626 -0.411,-1.429 -0.47,-1.801c-0.059,-0.372 0.509,-1.586 0.568,-2.212c0.058,-0.627 -0.02,-0.822 -0,-1.508c0.019,-0.685 0.274,-0.391 -0.039,-1.331c-0.314,-0.94 -0.568,-3.563 -0.138,-4.189c0.431,-0.627 1.175,-1.743 2.076,-1.449c0.9,0.294 2.76,1.644 3.132,1.938c0.372,0.294 1.057,1.077 2.056,0.176c0.998,-0.9 2.075,-2.643 2.505,-2.995c0.431,-0.352 1.312,-0.959 1.86,-1.429c0.548,-0.47 2.467,-2.545 2.819,-3.035c0.353,-0.489 0.353,-0.391 0.979,-1.409c0.627,-1.018 2.134,-2.212 2.721,-2.467c0.588,-0.254 1.116,-0.548 1.919,-0.802c0.803,-0.255 1.527,-0.059 2.29,0.391c0.764,0.45 1.351,0.744 1.802,1.116c0.45,0.372 0.685,0.979 1.076,1.37Z" style="fill:#684833;"/></g></g></svg>