<?xml version="1.0" encoding="UTF-8" standalone="no"?><!DOCTYPE svg PUBLIC "-//W3C//DTD SVG 1.1//EN" "http://www.w3.org/Graphics/SVG/1.1/DTD/svg11.dtd"><svg width="100%" height="100%" viewBox="0 0 150 150" version="1.1" xmlns="http://www.w3.org/2000/svg" xmlns:xlink="http://www.w3.org/1999/xlink" xml:space="preserve" xmlns:serif="http://www.serif.com/" style="fill-rule:evenodd;clip-rule:evenodd;stroke-linejoin:round;stroke-miterlimit:2;"><path id="base" d="M150,75c0,-41.394 -33.606,-75 -75,-75c-41.394,0 -75,33.606 -75,75c0,41.394 33.606,75 75,75c41.394,0 75,-33.606 75,-75Z" style="fill:#2c2c2c;"/><path id="outline" d="M144,75c0,-38.082 -30.918,-69 -69,-69c-38.082,0 -69,30.918 -69,69c0,38.082 30.918,69 69,69c38.082,0 69,-30.918 69,-69Z" style="fill:#78387b;"/><path id="core" d="M141,75c0,-36.426 -29.574,-66 -66,-66c-36.426,0 -66,29.574 -66,66c0,36.426 29.574,66 66,66c36.426,0 66,-29.574 66,-66Z" style="fill:#d8d8d8;"/><clipPath id="_clip1"><path d="M141,75c0,-36.426 -29.574,-66 -66,-66c-36.426,0 -66,29.574 -66,66c0,36.426 29.574,66 66,66c36.426,0 66,-29.574 66,-66Z"/></clipPath><g clip-path="url(#_clip1)"><g id="link"><path d="M110.727,26.053c0,0 8.664,2.688 13.627,2.564c4.962,-0.124 17.679,32.194 17.679,32.194c-0,0 -1.303,9.719 -11.993,11.848c-10.69,2.13 -14.164,1.386 -14.164,1.386l-19.726,-28.411l0.207,-1.321c-0,0 3.412,-5.148 5.417,-7.692c2.006,-2.543 8.064,-9.639 8.953,-10.568Zm-71.335,44.035c-0,-0 -0.095,-1.247 -0.378,-1.624c-0.283,-0.378 -0.604,-0.51 -0.585,-1.133c0.019,-0.624 0.094,-1.096 -0.057,-1.908c-0.151,-0.812 -0.472,-2.662 -0.661,-3.38c-0.189,-0.717 -0.661,-1.737 -0.208,-2.266c0.454,-0.528 6.629,-3.229 7.327,-3.55c0.699,-0.321 6.704,-2.813 7.535,-2.719c0.831,0.094 2.625,0.925 2.87,1.435c0.246,0.51 0.227,1.851 0.246,2.7c0.018,0.85 -0.246,1.775 0.169,2.474c0.416,0.699 0.649,1.382 0.537,1.876c-0.136,0.598 -1.028,0.843 -1.103,1.618c-0.076,0.774 0.057,1.605 0.227,2.077c0.17,0.472 1.303,3.097 1.303,3.097c-5.603,1.611 -11.213,3.152 -17.222,1.303Z" style="fill:#888795;"/><path d="M130.521,61.034c0,0 -0.265,1.138 -0.026,1.852c0.238,0.715 0.899,1.191 1.084,1.588c0.185,0.397 0.45,1.217 0.45,1.217l5.556,3.889l4.709,-2.17l-3.042,-9.365c-0,-0 -1.879,-1.746 -2.858,-2.328c-0.979,-0.582 -5.873,5.317 -5.873,5.317Z" style="fill:#542a12;"/><path d="M82.003,67.824l1.533,14.453c-0.152,3.373 0.969,6.147 1.717,9.096l7.768,1.84c0.153,-0.424 0.372,-1.272 1.351,-1.036c-0,0 0.53,0.811 1.164,0.995c0.633,0.184 1.982,0.123 2.514,-0.163c0.531,-0.286 1.594,-1.309 2.351,-1.738c0.756,-0.429 2.023,-1.145 3.066,-1.656c1.042,-0.511 2.351,-1.399 2.911,-1.908c4.348,-3.948 12.297,-24.458 8.782,-21.416l-33.157,1.533Z" style="fill:#ddbda8;"/><path d="M81.642,123.117c0,-0 7.882,3.632 9.144,4.533c1.262,0.902 5.589,4.121 7.315,6.053c1.726,1.932 3.168,3.786 3.168,3.786c-12.288,4.393 -24.27,5.644 -36.008,4.405l16.381,-18.777Zm-10.189,-52.617l6.981,-3.094c0,-0 5.554,17.096 5.713,17.652c0.158,0.555 0.793,1.309 1.269,1.785c0.476,0.476 0.555,0.079 0.992,1.23c0.436,1.15 0.714,2.657 0.714,2.657l0.238,0.437c-0,-0 0.952,-0.635 1.467,-0.873c0.516,-0.238 0.754,-0.198 1.508,-0.516c0.753,-0.317 1.467,-0.595 1.467,-0.595l2.817,3.213l-0.397,1.071c0,0 -0.04,0.476 -0.397,0.556c-0.357,0.079 -1.309,-0.159 -1.309,-0.159l-9.48,4.8c-8.682,-7.819 -11.998,-17.384 -11.583,-28.164Zm-53.486,5.396c0,-0 8.41,-1.743 10.486,-1.82c2.077,-0.077 10.072,14.303 10.072,14.303c0,0 -5.332,-0.025 -7.075,-0.128c-1.743,-0.102 -2.614,-0.307 -3.281,-0.384c-0.666,-0.077 -0.179,-0.257 -1.717,-0.128c-1.538,0.128 -8.485,-11.843 -8.485,-11.843Zm81.963,-29.642c-0,0 0.944,-1.867 1.498,-2.154c0.554,-0.287 1.6,-0.452 2.093,-0.924c0.492,-0.471 2.01,-1.641 3.159,-1.538c1.149,0.102 7.243,1.682 8.844,3.139c1.6,1.457 1.272,11.634 1.272,11.634l-6.915,-0.718l-9.951,-9.439Z" style="fill:#c4bdb2;"/><path d="M79.103,70.575c0,-0 -2.956,-0.141 -3.66,-0.366c0,-0 0.535,0.619 1.014,0.76c-0,-0 -0.591,0.084 -1.661,-0.141c-0,0 1.267,1.07 1.745,1.267c0,0 -0.337,0.197 -0.788,0.028c0,0 1.492,1.521 2.14,1.802c-0,0 -1.802,0.422 -2.45,0.366c0,0 2.385,0.846 3.094,1.339c1.01,0.702 1.92,3.578 3.267,1.686c0.254,-0.356 1.609,-1.139 3.017,-1.59c1.407,-0.45 0.11,-3.18 0.11,-3.18l-5.828,-1.971Z" style="fill:#c0a771;"/><path d="M82.003,67.824c-3.602,-9.692 -7.143,-5.425 -5.621,-0.592c0.103,0.329 1.287,2.044 1.471,2.494c0.184,0.449 1.35,2.023 1.534,2.371c0.183,0.347 1.165,1.983 1.43,2.432c0.266,0.45 0.757,1.002 1.186,1.186c0.429,0.184 0.795,-0.142 1.104,-0.184c6.99,-0.945 1.175,-7.986 -1.104,-7.707Z" style="fill:#ddbda8;"/><path d="M132.5,70.475c-0,0 -1.435,-1.872 -1.602,-2.142c-0.166,-0.271 -0.166,-1.456 -0.104,-1.872c0.063,-0.416 0.437,-1.436 1.082,-0.749c-0,-0 0.208,-0.978 0.811,-0.916c0.603,0.063 0.77,0.791 0.77,1.228c-0,-0 1.04,-1.103 1.706,-0.853c-0,-0 -0.624,0.894 0.457,1.498c1.082,0.603 0.853,0.332 0.853,0.332c0,0 0,0.312 0.167,0.645c0.166,0.333 0.582,0.645 1.019,0.936c0.437,0.292 0.894,0.396 0.894,0.396c0,-0 -0.707,-0.77 -0.853,-1.02c-0.145,-0.249 0.063,-0.603 0.312,-0.915c0.25,-0.312 0.791,-0.728 1.061,-0.686c0.271,0.041 0.416,0.52 0.624,0.561c0.208,0.042 0.146,-0.208 0.375,-0.249c0.229,-0.042 0.749,0.145 0.749,0.145l0.229,1.706c-0,-0 -0.812,0.707 -1.269,0.77c-0.458,0.062 -0.978,0.062 -0.978,0.062c-0,0 -0.624,1.144 -1.207,1.207c-0.582,0.062 -0.748,-0.146 -1.04,-0.146c-0.291,-0 -1.04,0.229 -1.331,0.27c-0.291,0.042 -0.811,-0.291 -1.207,-0.27c-0.395,0.021 -0.832,0.166 -1.518,0.062Z" style="fill:#bd9685;"/><path d="M64.166,143.8c-0,0 2.472,-3.039 3.201,-3.242c0.73,-0.202 1.662,-0.77 1.986,-1.337c0.324,-0.567 1.094,-1.58 1.743,-2.35c0.648,-0.77 1.459,-1.5 2.026,-2.351c0.567,-0.851 0.932,-1.58 1.216,-2.229c0.283,-0.648 1.378,-1.823 2.593,-2.593c1.216,-0.77 1.297,-1.419 2.229,-1.783c0.932,-0.365 1.662,-0.851 2.107,-1.135c0.446,-0.284 1.338,-1.337 2.432,-1.499c1.094,-0.163 1.621,-0.244 2.31,-0.284c0.689,-0.041 1.661,0.081 1.175,-0.324c-0.486,-0.406 -1.431,-1.199 -2.282,-1.604c-0.851,-0.405 -1.732,-1.1 -2.32,-1.494c-2.473,-1.66 -26.118,19.397 -25.548,19.875l7.132,2.35Zm-23.221,-29.137l-16.291,13.576l14.751,7.011l1.54,-20.587Zm48.286,-21.724c0.946,0.163 1.949,0.118 2.412,0.614c0.349,3.208 -0.609,5.637 -3,7.858c-0.192,0.653 -8.434,1.679 -8.105,0.527c0.127,-0.444 1.256,-6.889 1.256,-6.889c0,-0 1.094,0.324 2.351,0.324c1.256,0 1.823,-0.04 3.08,-0.567c1.047,-0.439 1.7,-1.273 2.006,-1.867Zm-44.825,-1.573c0,-0 8.291,-4.26 8.737,-4.098c0.446,0.162 -3.971,13.333 -3.971,13.333l-4.766,-9.235Zm-19.509,-18.241c0,-0 3.769,2.553 4.134,3.363c0.365,0.811 1.094,1.176 1.783,1.946c0.689,0.77 2.431,1.783 2.958,2.431c0.527,0.649 1.175,2.553 1.378,3.728c0.203,1.176 0.284,2.553 0.851,3.769c0,0 -1.905,-0.405 -2.553,-0.364c-0.648,0.04 -3.039,0.162 -3.728,0.081c-0.689,-0.081 -1.945,-0.527 -2.391,-0.487c-0,0 0.648,0.608 2.067,1.094c1.418,0.487 1.823,0.406 2.431,1.257c0.608,0.851 0.973,1.864 0.973,1.864c-0,-0 0.607,-0.081 1.013,0.284c0.405,0.364 1.119,1.132 1.783,1.702c1.709,1.466 9.367,-4.375 8.713,-6.16c-0.159,-0.434 -7.052,-13.536 -7.052,-13.536l-12.36,-0.972Zm73.269,-27.395c0,-0 -0.972,-1.135 -0.405,-1.418c0.568,-0.284 1.581,-0.689 2.229,-0.244c0.648,0.446 2.107,1.014 2.877,1.338c0.77,0.324 3.364,1.54 4.053,2.107c0.689,0.567 2.796,2.715 3.404,3.688c0.608,0.972 1.094,3.161 0.891,4.133c-0.202,0.973 -13.049,-9.604 -13.049,-9.604Z" style="fill:#6e5d41;"/><path d="M29.864,117.624c-0,-0 -2.345,3.588 -2.431,4.486c-0.087,0.897 3.125,3.386 3.125,3.386c0,-0 2.402,-0.811 3.039,-1.071c0.637,-0.261 1.852,-1.418 2.142,-1.766c0.289,-0.347 1.707,-1.794 1.967,-2.228c0.261,-0.434 1.1,-1.707 1.448,-2.113c0.347,-0.405 1.012,-1.476 1.012,-1.476c0,0 -0.405,1.91 -0.607,2.345c-0.203,0.434 -0.637,2.17 -0.666,2.836c-0.029,0.665 -0.231,2.576 -0.376,3.328c-0.145,0.752 -0.492,1.939 -0.55,2.634c-0.058,0.694 -0.174,2.17 -0.174,2.17c4.099,6.273 11.647,9.339 21.706,10.072c-0,-0 2.662,-0.608 3.068,-0.753c0.405,-0.145 1.476,-1.158 2.46,-1.534c0.984,-0.376 2.431,-1.678 2.98,-2.402c0.55,-0.723 2.171,-2.489 2.808,-3.154c0.636,-0.666 2.141,-2.316 2.633,-2.894c0.492,-0.579 1.505,-2.055 2.055,-2.663c0.55,-0.608 1.765,-2.257 2.836,-2.605c1.071,-0.347 3.184,-1.244 4.255,-1.36c1.07,-0.116 2.633,0.145 2.286,-0.608c-0.347,-0.752 -0.81,-1.157 -1.852,-1.534c-1.042,-0.376 -2.431,-1.07 -3.184,-1.678c-0.752,-0.608 -1.765,-1.563 -2.604,-1.708c-0.84,-0.144 -0.84,-0.405 -1.216,-1.07c-0.376,-0.666 -0.666,-1.708 -1.476,-2.229c-0.81,-0.521 -2.634,-0.984 -3.039,-0.955c-0.405,0.029 0.753,-0.405 1.563,-0.492c0.81,-0.087 0.724,-0.666 0.897,-0.926c0.174,-0.26 2.605,-3.155 3.271,-3.357c0.665,-0.203 3.357,-0.145 4.167,-0.232c0.81,-0.086 3.56,-0.029 4.486,-1.36c0.926,-1.331 1.186,-2.257 1.534,-2.749c0.347,-0.492 1.302,-1.216 1.823,-1.795c0.521,-0.578 0.781,-1.678 0.781,-1.678c0,-0 0.608,-0 1.129,-0.116c0.521,-0.116 1.476,0.087 1.939,-0.145c0.463,-0.231 1.013,-0.26 0.868,-0.781c-0.144,-0.521 -0.26,-1.939 -0.463,-2.199c-0.202,-0.261 -0.781,-1.853 -0.81,-2.345c-0.029,-0.492 -0.174,-0.955 -0.174,-0.955c0,0 -0.751,-0.363 -1.069,-0.565c-0,-0 0.056,0.536 -0.059,1.289c-0.116,0.752 -0.406,1.968 -0.521,2.344c-0.116,0.376 0.058,0.116 -0.261,0.608c-0.318,0.492 -0.579,0.723 -1.071,1.071c-0.492,0.347 -0.839,0.549 -1.302,0.81c-0.463,0.26 -1.071,0.608 -1.65,0.868c-0.578,0.261 -1.649,0.666 -2.141,0.868c-0.492,0.203 -2.026,0.782 -2.287,0.898c-0.26,0.115 -0.231,-0.203 -0.057,-0.492c0.173,-0.29 0.607,-1.216 0.665,-1.592c0.058,-0.376 0.145,-0.782 0.463,-1.187c0.319,-0.405 0.811,-0.984 0.811,-1.418c-0,-0.434 0.058,-0.81 -0.434,-1.36c-0.492,-0.55 -0.898,-1.042 -1.274,-1.505c-0.376,-0.463 -0.984,-1.505 -1.505,-2.084c-0.521,-0.579 -1.592,-1.794 -1.823,-2.112c-0.232,-0.319 -1.968,-2.75 -2.257,-3.039c-0.29,-0.29 -0.898,-1.852 -0.84,-2.75c0.058,-0.897 -0.058,-3.038 -0.115,-3.588c-0.058,-0.55 -0.348,-4.399 -0.637,-4.718c-0.29,-0.318 -0.897,-2.199 -0.839,-2.72c0.057,-0.521 0.665,-0.579 0.405,-0.955c-0.261,-0.376 -0.55,-0.174 -0.608,-0.781c-0.058,-0.608 0.81,-1.853 1.042,-1.997c0.231,-0.145 0.694,-0.058 1.157,-0.261c0.463,-0.202 1.113,-0.627 1.113,-0.627c-0,-0 -0.418,-0.646 -0.794,-1.341c-0.376,-0.694 -0.721,-2.512 -0.432,-2.28c0.29,0.231 2.405,1.891 2.998,2.132c1.183,0.481 4.41,-0.102 4.409,-0.315c-0.002,-0.323 27.088,-6.859 27.609,-6.801c0.521,0.058 1.505,0.087 1.505,-0.26c-0,-0.348 -0.753,-0.84 -0.984,-1.071c-0.232,-0.232 -0.463,-0.55 -0.203,-0.984c0.261,-0.434 0.637,-2.026 0.377,-2.402c-0.261,-0.377 -1.476,-2.779 -1.882,-3.097c-0.405,-0.318 -1.939,-1.476 -2.344,-1.707c-0.405,-0.232 -3.212,-1.766 -4.167,-2.084c-0.955,-0.319 -3.386,-1.939 -3.82,-2.287c-0.435,-0.347 -4.573,-3.328 -5.21,-3.762c-0.636,-0.434 -5.556,-2.865 -7.698,-3.965c-2.142,-1.099 -10.071,-4.254 -12.734,-4.804c-2.662,-0.55 -8.509,-1.534 -10.968,-1.331c-2.46,0.202 -5.268,0.579 -7.93,0.781c-2.663,0.203 -8.538,0.724 -11.49,0.811c-2.952,0.086 -10.766,-0.666 -12.82,-1.1c-2.055,-0.434 -4.573,-1.331 -3.184,0.637c1.389,1.968 3.01,3.154 4.283,3.935c1.274,0.782 5.441,3.387 8.48,4.486c3.039,1.1 6.454,2.345 10.129,3.386c3.676,1.042 6.483,1.795 8.422,2.46c1.939,0.666 5.094,1.708 7.119,3.531c2.026,1.823 5.152,5.441 6.107,6.57c0.955,1.128 1.418,2.604 1.418,2.604c-0,0 -1.505,1.216 -1.765,1.65c-0.261,0.434 -0.955,1.852 -1.245,2.084c-0.289,0.231 -0.492,0.579 -0.926,0.607c-0.434,0.029 -1.476,0.435 -1.852,0.521c-0.376,0.087 -1.303,-0.318 -2.055,-0.318c-0.752,0 -1.707,0.376 -2.026,0.434c-0.318,0.058 -6.627,1.563 -6.627,1.563l-6.425,0.145c-0,-0 -1.939,-0.203 -2.807,-0.145c-0.869,0.058 -1.766,0.405 -2.518,0.868c-0.753,0.463 -1.245,0.637 -1.852,0.955c-0.608,0.319 -0.782,0.955 -1.795,0.782c-1.013,-0.174 -2.373,-0.521 -3.067,-0.29c-0.695,0.232 -1.1,0.347 -1.39,0.55c-0.289,0.203 -1.562,0.318 -2.604,0.289c-1.042,-0.028 -4.023,0.203 -4.37,0.348c-0.348,0.144 -2.952,0.81 -4.399,0.897c-1.447,0.087 -3.994,-0.029 -4.544,0.203c-0.55,0.231 -0.926,0.897 -0.868,1.418c0.058,0.521 0.463,1.678 0.463,1.678l0.144,0.319c0,-0 1.505,0.086 1.882,-0.058c0.376,-0.145 1.736,-0 2.373,-0.116c0.636,-0.116 1.013,-0.29 1.649,-0.174c0.637,0.116 1.882,0.261 2.374,0.434c0.492,0.174 1.678,0.463 2.286,0.724c0.608,0.26 2.547,1.1 2.923,1.563c0.376,0.463 1.244,0.752 1.91,0.955c0.666,0.202 1.1,-0 1.621,0.463c0.521,0.463 1.099,0.608 1.707,1.476c0.608,0.868 2.286,4.225 2.373,4.746c0.087,0.521 0.405,2.489 0.319,2.952c-0.087,0.463 -0.695,1.505 -1.245,1.939c-0.55,0.434 -1.91,2.026 -2.778,2.518c-0.868,0.492 -1.65,1.071 -2.286,1.042c-0.637,-0.029 -1.158,-0.492 -1.361,-0.666c0,0 0.319,0.897 1.013,1.65c0.695,0.752 1.042,0.984 1.766,1.331c0.723,0.347 1.273,0.579 1.678,0.695c0,-0 1.389,-0.463 1.968,-0.869c0.579,-0.405 1.881,-1.591 2.2,-1.736c0.318,-0.145 0.029,1.1 -0.029,1.447c-0.058,0.347 0.27,3.017 0.246,3.459c-0.05,0.915 -0.494,1.606 -0.494,1.606l-13.325,16.988Zm22.7,-28.558c-0,-0 -1.225,0.019 -1.925,0.214c-0.7,0.194 -2.197,0.564 -2.527,0.622c-0,-0 -1.283,2.352 -1.847,2.722c-0,-0 0.447,0.777 0.875,1.535c0.427,0.759 0.564,1.906 0.758,2.236c0.194,0.331 0.778,0.058 1.03,-0.097c0.253,-0.156 0.797,-1.069 1.011,-1.75c0.214,-0.68 0.564,-2.294 0.836,-3.013c0.272,-0.719 0.37,-1.536 1.789,-2.469Z" style="fill:#62745c;"/><path d="M8.512,93.076l13.181,-11.971c0,0 1.659,1.121 2.309,2.197c0.65,1.076 1.278,2.869 1.592,4.013c0.314,1.143 0.941,3.429 0.65,4.281c-0.292,0.852 -0.516,1.435 -1.076,1.524c-0.561,0.09 -1.435,0.606 -1.659,1.166c-0.224,0.56 -0.157,1.188 -0.986,1.502c-0.83,0.314 -4.102,1.255 -4.349,1.636c-0.247,0.381 -0.404,0.964 -0.695,1.166c-0.291,0.202 -1.569,0.673 -2.085,0.964c-0.515,0.291 -0.941,0.784 -1.322,1.166c-0.381,0.381 -5.56,-7.644 -5.56,-7.644Zm123.206,-32.681c-1.067,0.793 -2.329,2.59 -3.061,2.93c-0.733,0.34 -1.178,0.785 -1.413,0.131c-0.236,-0.654 -0.654,-1.91 -0.811,-2.485c-0.157,-0.576 -0.183,-0.811 -2.041,-1.125c-1.857,-0.314 -7.509,-1.047 -8.137,-1.282c-0.628,-0.236 -3.819,-0.733 -4.003,-1.178c-0.183,-0.445 -0.183,-1.648 0.21,-1.962c0.392,-0.314 1.622,-0.811 2.04,-1.517c0.419,-0.707 1.596,-2.564 1.57,-4.396c-0.026,-1.831 -0.261,-3.61 -0.837,-4.395c-0.576,-0.785 -2.015,-1.57 -2.172,-1.701c0,0 -0.026,-0.366 0.367,-0.523c0.392,-0.157 0.863,-0.602 1.596,-0.236c0.732,0.367 2.302,0.785 2.878,1.152c0.575,0.366 1.962,0.68 2.224,1.334c0.261,0.654 0.444,0.837 0.444,0.837c0,0 0.55,-0.183 0.89,0.131c0.34,0.314 1.962,1.334 2.407,1.805c0.445,0.471 0.811,0.864 1.334,1.047c0.523,0.183 1.021,0.131 1.439,0.209c0.419,0.079 3.14,1.936 3.741,2.172c0.602,0.235 1.466,0.497 1.963,0.863c0.497,0.366 1.857,1.256 2.354,1.439c0.498,0.183 1.361,0.549 1.701,0.523c0,0 0.34,0.079 0.419,0.628c0.078,0.55 -0,1.962 -0.236,2.59c-0.235,0.628 -0.68,1.308 -1.334,1.596c-0.654,0.288 -2.512,0.654 -3.532,1.413Z" style="fill:#283637;"/><path d="M53.076,68.282c-0.851,-0.362 -1.999,-0.342 -2.315,-0.578c-0.315,-0.237 -0.21,-0.816 0.526,-0.868c0.737,-0.053 2.973,-0.079 3.367,-0.185c0.395,-0.105 0.895,-0.473 1.421,-0.526c0.526,-0.052 2.367,-0.342 3.367,-0.421c0.999,-0.078 1.42,0 1.762,0.079c0.342,0.079 1.762,0.29 2.262,0.316c0.5,0.026 1.473,0.605 2.262,1.263c0.789,0.657 5.156,5.26 5.472,5.892c0.315,0.631 2.551,4.919 2.814,5.55c0.263,0.631 1.973,7.654 1.894,8.444c-0.079,0.789 -0.395,1.236 -0.684,1.394c-0.289,0.157 -0.289,0.526 -0.289,0.526c-0,-0 0.973,3.603 1.026,4.235c0.052,0.631 0.1,0.573 0.1,0.573c-0,0 0.524,-0.262 0.697,-0.234c0.172,0.027 0.655,1.007 0.697,1.325c0.041,0.317 0.648,3.354 0.359,3.602c-0.29,0.248 -0.539,0.483 -0.539,0.483c0,0 0.152,0.559 0.2,0.711c0.049,0.152 0.387,0.09 0.47,0.166c0.082,0.075 0.138,1.18 0.041,1.4c-0.097,0.221 -0.359,0.463 -0.359,0.622c0,0.158 -0.055,0.372 0.035,0.669c0.089,0.297 1.18,2.615 1.414,2.995c0.235,0.38 1.836,2.781 2.092,3.043c0.255,0.263 0.593,0.642 0.51,1.298c-0.083,0.655 -0.034,1.553 -0.372,1.649c-0.339,0.097 -3.106,-0.593 -3.43,-0.814c-0.325,-0.221 -1.017,-0.564 -1.154,-0.564c-0.137,-0 -0.286,0.373 -0.758,0.571c-0.472,0.199 -0.97,0.709 -1.429,0.684c-0.46,-0.025 -1.554,-0.062 -1.753,-0.323c-0.199,-0.261 -0.236,-0.51 -0.373,-0.522c-0.136,-0.013 -4.971,0.882 -6.562,0.721c-1.591,-0.162 -8.476,-1.529 -10.079,-2.163c-1.603,-0.634 -9.036,-4.486 -9.868,-5.182c-0.833,-0.696 -2.212,-2.747 -2.212,-2.747c-0,-0 -0.274,-0.609 -0.473,-0.584c-0.199,0.025 -0.348,1.106 -0.522,1.342c-0.174,0.236 -0.658,0.174 -0.758,0.721c-0.099,0.547 0.211,1.727 0.249,2.088c0.037,0.36 -0.05,1.205 -0.323,1.516c-0.274,0.311 -0.622,0.621 -0.87,0.907c-0.249,0.286 -1.119,1.144 -1.591,1.566c-0.473,0.423 -2.523,2.685 -2.573,3.244c-0.05,0.559 -0.994,2.411 -1.305,2.722c-0.311,0.311 -0.721,1.044 -1.342,1.379c-0.622,0.336 -1.765,1.243 -2.349,1.368c-0.584,0.124 -1.728,0.447 -1.939,0.596c-0.211,0.149 -0.683,1.029 -0.808,1.193c-0.124,0.164 -0.882,-0.967 -1.019,-1.315c-0.137,-0.348 -0.584,-1.752 -0.485,-2.299c0.1,-0.547 0.224,-1.529 0.435,-2.15c0.212,-0.621 0.324,-1.417 0.535,-1.939c0.211,-0.522 1.193,-1.131 1.504,-1.367c0.31,-0.236 1.23,-0.621 1.429,-0.845c0.199,-0.224 0.398,-0.435 0.286,-0.758c-0.112,-0.323 -0.398,-0.51 -0.224,-1.032c0.174,-0.522 0.323,-1.628 0.572,-2.175c0.248,-0.547 0.348,-1.354 0.721,-1.454c0.372,-0.099 1.789,-0.969 2.15,-1.23c0.36,-0.261 2.336,-2.498 2.61,-2.958c0.273,-0.46 1.131,-1.181 1.429,-1.181c0.298,0 1.019,0.46 1.33,0.485c0.31,0.025 2.572,0.137 2.709,0.211c0.137,0.075 0.075,0.684 0.236,0.746c0.162,0.062 0.286,-1.367 0.51,-1.255c0.224,0.111 1.479,2.373 3.306,3.405c1.827,1.031 6.537,3.728 8.376,4.362c1.84,0.634 6.674,2.772 8.402,2.871c1.728,0.1 2.921,0.224 4.288,-0.049c1.367,-0.274 4.176,-0.895 4.412,-1.032c0.236,-0.137 0.348,-0.385 0.547,-0.497c0.199,-0.112 0.211,-2.014 0.136,-2.399c-0.074,-0.385 0.05,-2.113 -0.198,-2.274c-0.249,-0.162 -0.473,-0.386 -0.56,-0.771c-0.087,-0.385 -0.236,-1.031 -0.124,-1.168c0.112,-0.137 0.174,-0.597 0.062,-0.758c-0.112,-0.162 -0.236,-0.224 -0.373,-0.41c-0.136,-0.187 -0.373,-2.237 -0.397,-2.561c-0.025,-0.323 -0.013,-1.789 0.012,-2.025c0.025,-0.237 0.05,-0.174 -0.087,-0.622c-0.137,-0.447 -1.367,-3.057 -1.653,-3.467c-0.286,-0.41 -0.485,-0.808 -1.131,-1.156c-0.646,-0.348 -1.305,-0.448 -1.802,-1.168c-0.497,-0.721 -1.578,-2.834 -1.914,-3.654c-0.336,-0.821 -1.081,-2.971 -1.429,-3.617c-0.348,-0.646 -2.058,-3.934 -2.859,-5.158c-0.92,-1.404 -2.485,-4.598 -3.952,-5.816c-1.467,-1.218 -2.224,-1.993 -3.798,-2.662Zm-9.204,40.007c0.172,-0.19 0.675,0.42 1.056,0.763c0.382,0.344 2.965,1.832 3.818,2.049c0.852,0.216 1.412,-0.115 2.265,0.381c0.852,0.497 0.967,0.738 1.883,0.98c0.916,0.242 3.639,0.586 4.822,0.611c1.184,0.025 2.164,0.064 2.889,0.064c0.725,-0 2.697,-0.051 3.703,-0.153c1.005,-0.102 2.901,-0.649 3.626,-0.509c0.725,0.14 2.049,0.84 2.71,0.802c0.662,-0.039 1.247,-0.662 1.565,-0.408c0.319,0.255 0.942,-0.076 0.306,0.395c-0.636,0.471 -1.692,1.26 -2.303,1.845c-0.611,0.585 -0.662,1.692 -1.235,2.138c-0.572,0.445 -0.801,0.801 -1.285,0.979c-0.483,0.179 -0.941,0.675 -2.392,0.777c-1.45,0.101 -2.239,0.292 -3.232,0.14c-0.992,-0.153 -1.17,-0.484 -1.539,-0.649c-0.369,-0.166 -0.509,-0.039 -1.133,-0.153c-0.623,-0.115 -1.489,-0.433 -2.023,-0.127c-0.535,0.305 -2.303,1.018 -2.901,1.03c-0.598,0.013 -1.171,-0.025 -1.438,-0.369c-0.267,-0.343 -0.751,-1.247 -0.751,-1.247c0,0 -1.158,0.7 -2.112,0.904c-0.954,0.203 -1.642,0.712 -2.138,0.585c-0.496,-0.127 -1.209,-0.534 -1.819,-1.107c-0.611,-0.573 -1.082,-0.649 -1.006,-1.578c0.077,-0.929 -0.381,-1.679 0.446,-2.036c0.827,-0.356 1.679,-0.534 1.679,-0.534c0,-0 -2.303,-2.227 -2.583,-2.723c-0.28,-0.496 -1.514,-2.151 -0.878,-2.85Zm-27.296,-16.268c0,-0 0.982,0.739 1.305,1.412c0.322,0.672 0.78,1.802 0.578,2.286c-0.202,0.484 -0.148,1.277 -0.081,1.627c0.067,0.349 0.955,1.492 1.291,1.533c0.336,0.04 1.399,-0.565 1.372,-0.888c-0.027,-0.322 -0.592,-0.86 -0.444,-1.089c0.148,-0.229 1.076,-1.277 1.009,-1.748c-0.068,-0.471 -0.955,-2.784 -1.197,-3.241c-0.242,-0.457 -0.888,-2.205 -1.735,-2.447c0,-0 0.78,-0.995 1.157,-1.479c0.376,-0.485 1.949,-2.542 2.111,-3.093c0.161,-0.552 0.511,-1.318 0.47,-2.031c-0.04,-0.713 0.35,-4.774 0.081,-5.177c-0.269,-0.403 -1.761,-1.708 -3.133,-2.447c-1.372,-0.74 -4.559,-2.367 -5.46,-2.34c-0.901,0.027 -4.209,0.148 -5.379,1.049c-1.169,0.901 2.246,21.434 2.246,21.434c0,0 1.614,-0.833 1.99,-1.223c0.377,-0.39 2.38,-2.017 3.819,-2.138Z" style="fill:#542a12;"/><path d="M127.934,47.065c0.17,-0.199 3.098,1.096 3.219,1.497c0.122,0.4 -1.044,3.446 -1.183,4.142c-0.139,0.696 -0.818,3.811 -1.88,5.116c-1.061,1.305 -2.088,2.68 -4.176,2.576c-2.089,-0.105 -6.295,-0.95 -6.399,-1.281c-0.105,-0.33 0.261,-0.295 0.8,-0.313c0.54,-0.017 3.563,-0.512 4.311,-0.912c0.748,-0.4 1.549,-0.348 2.523,-3.185c0.975,-2.837 2.367,-7.153 2.785,-7.64Z" style="fill:#66493a;"/><path d="M115.083,61.046c-0.394,-0.39 -3.678,-0.558 -3.984,-0.757c-0.305,-0.199 -0.717,-1.062 -1.952,-1.261c-1.235,-0.199 -4.528,0.69 -5.099,0.956c-0.571,0.265 -4.342,0.279 -5.377,0.292c-1.036,0.013 -3.214,0.903 -3.718,1.168c-0.505,0.266 -1.926,1.049 -2.324,1.275c-0.398,0.226 -5.67,0.279 -6.254,0.146c-0,0 2.496,1.036 3.266,1.142c0,0 -7.581,0.053 -8.989,-0.252c0,-0 2.775,1.022 3.758,1.248c-0,-0 -3.997,0.199 -4.435,0.093c-0,-0 2.802,0.916 3.651,1.062c0,0 -2.164,0.584 -3.824,0.186c0,0 -0.465,-0.093 -0.345,0.159c0.119,0.253 1.047,3.261 6.744,3.792c-0,0 -1.884,-0.153 -3.252,-0.512c-1.367,-0.358 0.04,0.823 0.452,1.487c0.411,0.664 0.58,1.595 0.61,2.165c0.054,0.994 -2.742,5.041 -4.58,5.563c-0,-0 1.314,0.186 1.872,-0.319c-0,0 -1.672,3.536 -8.698,3.333c0,0 0.816,0.598 1.494,0.625c-0,-0 -4.223,0.531 -5.219,0.876c0,-0 5.351,2.032 8.127,1.527c2.775,-0.505 3.691,-1.182 4.116,-1.554c-0,0 -1.142,2.643 -1.992,3.2c0,0 2.43,-1.553 2.696,-1.859c-0,0 0.345,1.076 0.517,1.235c0.173,0.16 0.956,-0.823 1.036,-1.088c0.08,-0.266 1.487,-4.05 1.501,-4.263c0.013,-0.212 0.783,-2.908 0.478,-3.837c-0,-0 1.327,3.173 4.089,5.444c0,-0 -1.288,-1.925 -1.42,-4.13c-0,0 -0.093,-0.066 0.65,0.77c0,0 -0.717,-1.141 -0.823,-3.12c-0.106,-1.978 -0.133,-3.466 0.04,-4.09c-0,0 4.979,1.474 9.069,1.355c-0,-0 -1.806,1.022 -7.091,0.119c0,0 2.523,2.43 8.777,2.005c0,0 -1.62,1.633 -5.351,1.833c0,-0 3.28,0.863 6.931,-0.651c0,0 0.598,-0.212 0.611,-0.027c0.013,0.186 -2.576,1.886 -4.873,2.417c-0,0 4.448,0.478 9.109,-3.293c-0,0 0.544,-0.425 0.597,-0.305c0.054,0.119 -0.756,2.138 -2.137,3.12c-0,0 1.102,-0.584 2.297,-1.978c1.195,-1.395 4.289,-5.086 4.594,-5.737c0,0 0.133,-0.411 0.266,0.133c0.132,0.545 0.411,2.35 0.332,2.762c-0.08,0.412 -2.736,4.236 -6.042,6.002c-3.306,1.766 -2.417,2.071 -1.673,1.739c0.743,-0.332 5.125,-1.593 7.476,-4.634c-0,0 -0.784,4.077 -1.62,5.086c-0.837,1.009 -1.541,1.885 -1.833,2.337c-0.292,0.451 -0.345,1.022 -1.208,1.5c-0.863,0.478 -1.301,0.438 -1.633,0.545c-0.332,0.106 2.536,-0.093 3.094,-0.465c-0,-0 -1.66,2.377 -2.324,2.868c-0.664,0.491 -1.753,1.421 -1.793,1.54c-0.04,0.12 -1.726,2.311 -3.758,3.466c0,-0 1.913,-0.624 3.453,-1.779c-0,-0 -1.408,2.177 -4.329,3.611c0,0 2.988,-0.491 5.604,-3.014c2.615,-2.523 3.014,-2.974 3.505,-3.452c0.491,-0.478 2.549,-3.333 2.669,-3.705c0.119,-0.372 0.664,-2.563 0.89,-2.881c0.225,-0.319 0.544,-0.677 1.035,-0.784c0.492,-0.106 0.717,-0.478 1.182,-0.982c0.465,-0.505 1.833,-1.979 2.47,-2.789c-0,0 -1.341,2.563 -2.231,3.439c0,0 4.023,-4.474 4.422,-5.284c0.398,-0.81 1.075,-3.426 1.062,-3.878c-0.013,-0.451 -0.199,-1.381 -0.783,-1.819c-0.585,-0.438 -2.005,-1.129 -2.191,-1.341c-0.186,-0.212 0.199,-0.876 0.358,-1.288c0.16,-0.412 0.744,-3.187 0.664,-3.32c-0.08,-0.132 -0.664,-0.079 -0.876,0.014c-0.213,0.093 -0.784,0.186 -0.877,-0.146c-0.093,-0.332 0.148,-2.244 -0.656,-3.041Z" style="fill:#c0a771;"/></g></g></svg>