<?xml version="1.0" encoding="UTF-8" standalone="no"?><!DOCTYPE svg PUBLIC "-//W3C//DTD SVG 1.1//EN" "http://www.w3.org/Graphics/SVG/1.1/DTD/svg11.dtd"><svg width="100%" height="100%" viewBox="0 0 150 150" version="1.1" xmlns="http://www.w3.org/2000/svg" xmlns:xlink="http://www.w3.org/1999/xlink" xml:space="preserve" xmlns:serif="http://www.serif.com/" style="fill-rule:evenodd;clip-rule:evenodd;stroke-linejoin:round;stroke-miterlimit:2;"><path id="base" d="M150,75c0,-41.394 -33.606,-75 -75,-75c-41.394,0 -75,33.606 -75,75c0,41.394 33.606,75 75,75c41.394,0 75,-33.606 75,-75Z" style="fill:#2c2c2c;"/><path id="outline" d="M144,75c0,-38.082 -30.918,-69 -69,-69c-38.082,0 -69,30.918 -69,69c0,38.082 30.918,69 69,69c38.082,0 69,-30.918 69,-69Z" style="fill:#78387b;"/><path id="core" d="M141,75c0,-36.426 -29.574,-66 -66,-66c-36.426,0 -66,29.574 -66,66c0,36.426 29.574,66 66,66c36.426,0 66,-29.574 66,-66Z" style="fill:#d8d8d8;"/><clipPath id="_clip1"><path d="M141,75c0,-36.426 -29.574,-66 -66,-66c-36.426,0 -66,29.574 -66,66c0,36.426 29.574,66 66,66c36.426,0 66,-29.574 66,-66Z"/></clipPath><g clip-path="url(#_clip1)"><g id="nook"><path d="M68.274,129.185c-0,-0 -0.143,2.955 -0.072,3.454c0.072,0.498 0.143,1.78 0.178,2.385c0.036,0.606 -0.035,2.208 -0.035,2.208c-0,-0 0.89,1.389 1.282,1.674c0.391,0.284 1.744,0.961 2.991,1.068c1.246,0.107 3.382,-0 4.094,-0.463c0.713,-0.463 1.389,-0.499 1.603,-1.175c0.213,-0.677 0.605,-2.706 0.463,-3.347c-0.143,-0.641 0.071,-1.959 0.071,-1.959l-10.575,-3.845Zm19.156,1.246c0,0 1.994,1.068 2.706,1.175c0.712,0.107 3.276,0.107 4.416,-0.819c1.139,-0.926 1.068,-0.748 1.032,-1.673c-0.035,-0.926 -0.035,-1.923 -0.391,-2.208c-0,-0 1.709,-2.421 2.207,-3.561c0.499,-1.139 -8.937,-0.035 -8.937,-0.035l-1.033,7.121Zm-33.791,-26.776c0,-0 -3.81,-0.962 -5.733,-0.677c-1.922,0.285 -5.305,0.677 -6.801,2.065c-1.495,1.389 -3.382,4.095 -3.453,6.231c-0.072,2.137 -0,4.914 1.994,7.371c1.994,2.457 1.887,2.315 4.522,3.596c2.635,1.282 6.48,2.671 9.542,2.172c3.063,-0.498 6.125,-1.602 7.941,-2.741c1.816,-1.14 2.872,-3.469 4.415,-4.024c3.716,-1.335 -7.565,-14.836 -12.427,-13.993Z" style="fill:#7b440f;"/><path d="M92.917,77.956c-0.021,-0.114 1.122,-0.403 4.539,3.453c4.02,4.538 4.771,8.036 3.453,7.236l-7.992,-10.689Z" style="fill:#e2c56b;"/><path d="M63.192,113.656c-0,0 0.855,2.116 1.26,3.304c0.404,1.189 1.259,2.591 1.354,3.946c0.095,1.355 0,5.776 0.048,6.347c0.047,0.57 0.808,2.068 1.949,3.066c1.141,0.998 4.944,2.662 7.155,3.066c2.21,0.404 5.134,0.476 7.154,0.262c2.021,-0.214 5.919,-1.878 6.252,-2.448c-0,-0 0.475,-1.403 0.618,-2.092c0.143,-0.69 0.57,-2.33 0.713,-2.924c0.143,-0.594 0.214,-1.236 0.214,-1.236c-0,0 2.757,0.285 3.946,0.071c1.188,-0.214 4.064,-0.95 4.777,-1.426c0.713,-0.475 2.377,-1.307 2.544,-2.947c0.166,-1.64 0.285,-3.28 0.237,-3.946c-0.047,-0.666 -0.023,-3.375 -0.023,-3.375c-0,-0 0.404,-0.309 0.784,-0.88c0.38,-0.57 1.141,-0.927 1.165,-2.115c0.024,-1.189 -3.114,-0.927 -3.114,-0.927l-36.7,-0.238l-0.333,4.492Z" style="fill:#b7b397;"/><path d="M61.496,75.51c-0,-0 -4.525,5.131 -5.354,6.222c-0.828,1.091 -4.606,6.04 -5.03,6.606c-0.424,0.565 -1.05,1.353 -1.535,1.596c-0.485,0.242 -1.697,1.474 -1.758,1.797c-0.06,0.324 -0.161,0.849 0.061,1.354c0.222,0.505 0.465,1.192 0.606,1.616c0.141,0.424 0.545,0.646 0.545,0.646c0,0 0.465,-0.101 0.687,-0.505c0.222,-0.404 11.555,12.444 11.555,12.444c0,0 0,3.536 0.202,4.081c0.202,0.546 0.586,1.798 0.849,2.02c0.262,0.222 0.747,0.485 0.99,0.828c0.242,0.344 0.444,0 0.444,0c0,0 0.101,-2.686 0.081,-3.252c-0.02,-0.566 0.687,0.121 0.687,0.121c-0,0 0.161,2.566 0.404,3.232c0.242,0.667 0.283,0.99 1.01,1.314c0.727,0.323 3.313,0.828 3.717,0.888c0.404,0.061 4.707,0.364 5.454,0.364c0.748,0 7.414,-0.121 9.252,-0.303c1.839,-0.182 8,-1.717 9.01,-2.081c1.01,-0.363 4.546,-1.474 5.091,-1.777c0.545,-0.303 1.636,-0.788 2.566,-1.273c0.929,-0.485 1.494,-0.849 2.04,-1.152c0.545,-0.303 1.414,-0.828 1.677,-1.151c0.262,-0.323 1.535,-1.556 1.838,-2.121c0.303,-0.566 0.525,-0.849 0.505,-1.293c-0.02,-0.445 -0.101,-3.05 -0.384,-3.98c-0.283,-0.929 -1.091,-4.747 -1.333,-5.434c-0.243,-0.687 -1.717,-4.868 -2.344,-6.101c-0.626,-1.232 -3.313,-5.555 -3.717,-5.979c-0.404,-0.424 -3.696,-3.717 -4.141,-4.243c-0.444,-0.525 -1.98,-2.242 -2.606,-2.545c-0.626,-0.303 -2.343,-1.677 -2.343,-1.677l-0.323,-2.727l-28.403,2.465Z" style="fill:#eff0de;"/><path d="M50.522,93.01c0,-0 -0.373,-0.072 -0.932,1.84c-0.559,1.912 -0.794,3.648 -0.589,4.972c0.206,1.324 0.324,2.353 1.471,3.559c1.148,1.207 2.324,2.53 3.236,3.178c0.912,0.647 4.325,2.883 6.266,3.589c1.942,0.706 5.119,1.882 6.09,1.853c0.971,-0.029 2.265,-0.706 2.559,-1.265c0.295,-0.559 1.118,-1.971 0.912,-2.883c-0.206,-0.912 -1.118,-2.265 -2.235,-3.148c-1.118,-0.882 -3.354,-3.265 -4.825,-3.971c-1.471,-0.706 -4.119,-2.354 -4.442,-2.648c-0.324,-0.294 -0.423,-0.48 -0.677,-0.912c-0.319,-0.544 -6.74,-4.494 -6.834,-4.164Zm-6.133,-55.164c0,0 -1.45,-3.365 -0.519,-7.005c0.93,-3.639 4.761,-7.962 6.512,-8.838c1.751,-0.876 5.938,-2.216 7.99,-0.438c2.052,1.779 2.134,3.53 2.134,3.53c0,-0 1.806,-0.711 3.421,-1.177c1.614,-0.465 6.184,-1.532 6.375,-1.669c0,0 0.684,-2.517 1.396,-4.022c0.711,-1.505 2.353,-4.406 4.706,-5.117c2.353,-0.711 4.953,-0.684 6.978,0.438c2.025,1.122 3.694,2.846 4.296,4.296c0.602,1.45 0.848,3.283 0.821,4.104c-0.028,0.821 -0.055,2.271 -0.52,2.819c-0,-0 4.624,2.243 6.266,3.666c1.642,1.423 6.512,7.115 7.579,9.441c1.068,2.325 2.655,5.801 3.065,8.099c0.411,2.298 1.314,4.706 1.231,6.43c-0.082,1.724 -0.574,4.214 -0.574,4.214c-0,0 0.793,0.985 2.873,1.314c2.08,0.328 3.913,0.437 4.241,1.012c0.329,0.575 0,2.025 -0.273,2.682c-0.274,0.656 -1.341,2.243 -1.998,3.092c-0.657,0.848 -4.269,4.433 -4.953,4.843c-0.684,0.41 -5.609,3.01 -13.435,4.816c-7.826,1.806 -6.43,1.505 -6.43,1.505c-0,-0 0.574,2.107 0.711,2.435c0,0 -5.472,-1.368 -5.938,-1.477c-0.465,-0.11 -8.81,1.997 -16.198,0.985c-7.388,-1.013 -12.15,-2.025 -15.242,-4.324c-3.092,-2.298 -4.843,-4.241 -6.266,-7.251c-1.423,-3.01 -2.107,-3.612 -2.408,-5.281c-0.301,-1.669 -0.848,-6.43 -0.492,-8.866c0.355,-2.435 1.423,-8.557 4.651,-14.256Z" style="fill:#c4731c;"/></g></g></svg>