<?xml version="1.0" encoding="UTF-8" standalone="no"?><!DOCTYPE svg PUBLIC "-//W3C//DTD SVG 1.1//EN" "http://www.w3.org/Graphics/SVG/1.1/DTD/svg11.dtd"><svg width="100%" height="100%" viewBox="0 0 150 150" version="1.1" xmlns="http://www.w3.org/2000/svg" xmlns:xlink="http://www.w3.org/1999/xlink" xml:space="preserve" xmlns:serif="http://www.serif.com/" style="fill-rule:evenodd;clip-rule:evenodd;stroke-linejoin:round;stroke-miterlimit:2;"><path id="base" d="M150,75c0,-41.394 -33.606,-75 -75,-75c-41.394,0 -75,33.606 -75,75c0,41.394 33.606,75 75,75c41.394,0 75,-33.606 75,-75Z" style="fill:#2c2c2c;"/><path id="outline" d="M144,75c0,-38.082 -30.918,-69 -69,-69c-38.082,0 -69,30.918 -69,69c0,38.082 30.918,69 69,69c38.082,0 69,-30.918 69,-69Z" style="fill:#78387b;"/><path id="core" d="M141,75c0,-36.426 -29.574,-66 -66,-66c-36.426,0 -66,29.574 -66,66c0,36.426 29.574,66 66,66c36.426,0 66,-29.574 66,-66Z" style="fill:#d8d8d8;"/><clipPath id="_clip1"><path d="M141,75c0,-36.426 -29.574,-66 -66,-66c-36.426,0 -66,29.574 -66,66c0,36.426 29.574,66 66,66c36.426,0 66,-29.574 66,-66Z"/></clipPath><g clip-path="url(#_clip1)"><g id="pubg"><path d="M73.879,63.232c-0,0 -0.593,3.834 -1.152,4.443c-0.56,0.609 -2.469,1.185 -3.884,0.922c-1.415,-0.263 -3.999,-1.3 -4.591,-1.86c-0.593,-0.559 -2.321,-1.925 -2.601,-3.653c-0.279,-1.728 -0.246,-3.917 1.613,-5.612c1.86,-1.695 12.228,1.531 12.228,1.531l-1.613,4.229Z" style="fill:#4d5866;"/><path d="M72.927,57.209c0,-0 1.112,1.994 0.818,3.989c-0.295,1.994 -0.262,2.779 0.392,2.844c-0,0 -0.131,0.36 0.294,0.491c0.425,0.13 0.424,0.663 0.381,1.024c-0.065,0.556 0.359,1.045 0.433,1.231c0.075,0.186 0.137,0.77 0.125,0.957c-0.013,0.186 -0.354,1.661 -0.354,1.661c0,0 2.886,4.069 5.259,3.291c1.836,-0.602 2.619,-0.843 3.221,-0.421c0.602,0.421 2.394,2.261 2.739,2.588c2.118,2.003 1.422,6.551 2.379,10.432c1.348,5.466 6.2,9.944 5.84,9.617c8.125,-3.704 13.303,-10.973 13.576,-24.173c0,0 -0.662,1.054 -1.384,-3.672c-0.723,-4.727 -0.934,-5.72 -0.994,-6.744c-0.06,-1.023 -0.15,-7.706 -0.15,-7.706c-11.235,-3.319 -22.063,-1.402 -32.575,4.591Z" style="fill:#9b7363;"/><path d="M61.671,57.89c-0,-0 -0.529,3.83 -0.142,5.067c0.387,1.238 4.294,2.412 5.287,2.502c0.993,0.09 5.931,-6.331 6.744,-6.499c0.812,-0.168 1.663,-0.155 3.004,-0.155c1.341,0 6.473,-0.077 7.453,0.129c0.98,0.207 3.778,0.452 4.861,0.232c1.084,-0.219 2.012,-0.219 2.837,-1.044c0.825,-0.825 1.698,-3.365 1.698,-3.365c-0,-0 0.88,1.19 1.311,1.553c0.431,0.362 2.881,1.639 3.985,1.656c0,-0 -1.829,2.674 -3.019,3.588c-1.19,0.915 -4.21,2.433 -5.9,2.847c-1.691,0.414 -7.005,2.381 -8.264,3.174c-0,0 -0.69,-0.69 -1.277,-0.672c-0.586,0.017 -1.397,0.534 -1.949,0.948c-0.552,0.415 -2.295,1.553 -2.571,1.501c-0.276,-0.051 -0.517,-1.242 -0.345,-1.604c0,-0 -0.932,0.794 -1.087,1.466c-0.155,0.673 -0.103,2.761 -0.017,3.227c0.086,0.465 1.415,1.759 1.673,1.759c0.259,0 2.105,-0.448 2.882,-1.018c0.776,-0.569 2.398,-1.725 2.95,-2.156c0.552,-0.431 1.57,-1.346 2.881,-1.863c1.311,-0.518 8.143,-3.158 8.798,-3.347c0,-0 1.519,4.296 1.846,4.416c0.328,0.121 1.984,-0.914 1.967,-1.328c-0.017,-0.414 -1.018,-3.571 -1.035,-3.882c0,0 0.138,0.069 0.345,0.259c0.207,0.19 1.208,-1.242 1.605,-1.863c0.396,-0.621 3.226,-5.176 3.519,-5.694c0,0 0.587,0.052 1.277,-0.138c0.69,-0.189 3.088,-1.242 3.778,-1.57c0.69,-0.327 3.002,-1.466 3.347,-1.984c0.345,-0.517 0.517,-1.759 0.466,-2.415c-0.052,-0.656 -0.121,-2.26 -0.121,-2.26c-0,0 0.828,0.017 1.259,-0.207c0.432,-0.224 0.742,-0.569 0.656,-1.018c-0.086,-0.448 -1.777,-4.52 -2.07,-4.762c-0.294,-0.241 -1.156,-0.31 -1.156,-0.31c-0,-0 -1.242,-4.33 -1.829,-5.693c-0.587,-1.363 -2.053,-4.106 -3.657,-6.142c-1.605,-2.036 -4.227,-4.054 -6.591,-5.176c-2.363,-1.121 -6.159,-2.156 -9.213,-2.053c-3.053,0.104 -5.952,0.535 -8.729,1.812c-2.778,1.276 -4.192,2.001 -5.831,3.64c-1.639,1.639 -2.847,3.364 -3.123,3.916c-0,0 -1.587,0.846 -2.139,1.294c-0.552,0.449 -1.053,1.346 -1.036,1.725c0,0 -2.363,0.604 -4.192,1.95c-1.829,1.346 -2.156,3.364 -2.501,4.451c-0.345,1.087 -0.259,5.331 -0.328,6.09c-0,-0 -0.932,1.277 -1.156,2.087c-0.224,0.811 -0.173,2.675 0.224,3.761c0.397,1.087 1.868,2.643 2.625,3.168Z" style="fill:#4d5866;"/><path d="M125.905,80.934c-0,-0 -0.109,-3.988 -0.096,-4.247c0.014,-0.26 0.164,-0.205 0.151,-0.424c-0.014,-0.218 -0.233,-4.67 -0.342,-5.189c-0.109,-0.519 -0.314,-3.127 -0.328,-3.742c-0.013,-0.614 -0.013,-5.845 0.014,-7.06c0.027,-1.215 -0.123,-8.399 -0.136,-8.74c-0.014,-0.341 0.054,-0.792 -0.055,-1.01c-0.109,-0.219 -1.489,-1.23 -1.489,-1.448c0,-0.219 0.11,-4.438 0.151,-4.78c0.041,-0.341 0.109,-6.459 0.191,-6.718c0.082,-0.26 0.177,-0.356 0.177,-0.356l0.451,0c0.082,0 0.041,-1.324 0.041,-1.324c-0,-0 -0.56,-0.642 -0.574,-0.997c-0.013,-0.355 0.055,-4.261 0.055,-4.261l-2.595,-3.168l-0.027,5.64c0,-0 -0.396,1.994 -0.765,2.199c-0.368,0.204 -1.952,0.314 -1.98,0.682c-0.027,0.369 -0.382,10.707 -0.45,11.035c-0.069,0.327 -0.902,1.229 -0.984,1.638c-0.082,0.41 -1.024,15.882 -1.024,15.882c0,0 0.041,1.216 -0.095,1.489c-0.137,0.273 -0.328,0.123 -0.369,0.819c-0.041,0.697 0.041,1.284 0.041,1.625c-0,0.342 0.068,0.587 0.095,0.902c0.028,0.314 0.096,0.505 0.11,0.983c0.013,0.478 -0,0.833 -0.069,1.106c-0.068,0.273 0.178,1.488 0.192,1.816c0.013,0.328 -0.041,0.874 -0.041,0.874c-0,0 -0.287,-0.123 -0.56,0.26c-0.273,0.382 -0.26,0.792 -0.123,0.956c0.136,0.163 0.683,0.068 0.683,0.068c-0,-0 -0,0.546 -0.028,0.928c-0.027,0.383 -0.259,0.547 -0.259,0.547l-0.287,0.259c-0,0 0.314,0.355 0.314,0.478c0,0.123 -0.055,0.915 -0.055,0.915l10.065,2.363Z" style="fill:#262c3c;"/><path d="M106.866,67.772c0,0 1.161,-0.032 1.419,0.312c0.258,0.344 1.011,3.472 1.258,4.096c0.247,0.623 1.354,3.816 1.784,4.149c0.43,0.333 3.226,1.543 3.944,1.851c0.719,0.308 13.006,5.028 14.392,5.592c1.385,0.565 4.361,1.847 4.951,2.078c0.59,0.231 2.308,1.616 2.924,1.924c0.616,0.308 2.027,0.872 2.155,2.36c0.007,0.081 3.058,2.362 3.309,2.781c30.153,50.594 -60.294,55.59 -65.234,49.504l-8.442,-1.199c-0,-0 0.498,-0.362 0.498,-0.951c-0,-0.588 -0.656,-1.946 -1.154,-2.195c-0.498,-0.249 -4.979,0.588 -6.111,1.946c-1.132,1.358 -17.382,-4.549 -17.382,-4.549c0,0 0.227,-1.199 0.159,-2.173c-0.068,-0.973 -0.294,-2.353 -0.159,-2.897c0.136,-0.543 2.286,-2.217 2.467,-2.761c0.181,-0.543 0.34,-2.263 0.498,-2.761c0.159,-0.498 1.041,-2.897 1.268,-3.644c0.226,-0.746 1.493,-4.843 1.561,-5.635c0.068,-0.792 0.611,-4.617 0.702,-5.658c0.09,-1.041 0.339,-3.757 0.453,-4.956c0.113,-1.2 0.633,-5.274 0.724,-5.975c0.09,-0.702 0.724,-2.512 1.403,-3.486c0.679,-0.973 1.878,-2.942 2.127,-3.394c0.249,-0.453 1.064,-1.517 1.132,-1.834c0.068,-0.317 0.091,-0.882 0.407,-0.995c0.317,-0.114 0.702,-0.317 0.86,-0.498c0.159,-0.181 2.399,-1.698 2.988,-2.037c0.588,-0.34 2.173,-0.928 3.327,-1.494c1.154,-0.566 5.273,-2.218 6.45,-2.671c1.177,-0.452 10.298,-2.648 11.158,-3.643c-0,-0 0.724,-1.245 0.316,-1.947c-0.407,-0.701 -0.52,-2.919 -0.271,-3.191c0.249,-0.271 1.38,-1.041 1.38,-1.041c0,0 1.539,1.109 2.286,1.969c0.747,0.86 1.381,2.852 1.449,3.938c0.068,1.086 -0.023,0.543 -0.023,0.543c0,0 0.883,0.724 1.086,0.973c0.204,0.249 1.155,1.223 1.517,1.743c0.362,0.521 1.086,2.263 1.222,2.693c0.136,0.43 0.679,1.675 1.471,3.124c0.792,1.448 1.765,2.512 1.765,2.512c0,-0 0.792,-0.747 1.336,-1.517c0.543,-0.769 1.629,-1.81 2.082,-2.331c0.452,-0.52 1.81,-2.421 2.059,-3.01c0.249,-0.588 0.589,-1.358 0.385,-2.467c-0.204,-1.109 -0.815,-2.037 -0.747,-2.784c0.068,-0.746 0.905,-3.349 1.086,-4.005c0.182,-0.657 0.159,-0.996 0.498,-1.336c0.34,-0.339 1.63,-1.72 1.901,-1.991c0.272,-0.272 1.63,-1.155 2.037,-1.381c0.408,-0.226 1.2,-0.724 1.223,-0.996c0.022,-0.271 0.106,-0.685 0.106,-0.685Z" style="fill:#e6eef4;"/><path d="M115.179,78.128c0,-0 0.732,1.254 1.025,1.463c0.292,0.209 1.17,0.209 1.316,0.335c0.147,0.125 1.067,2.257 1.443,2.633c0.376,0.377 1.944,2.112 2.445,2.279c0.502,0.167 2.467,0.439 2.697,0.627c0.23,0.188 0.836,1.317 1.024,1.944c0.188,0.627 1.526,3.428 1.693,3.909c0.168,0.481 1.004,3.741 1.108,4.828c0.105,1.087 0.836,4.16 0.795,6.773c-0.042,2.613 0.104,7.4 1.567,9.051c1.463,1.651 2.759,-2.676 2.759,-2.676c0,0 -0.397,-1.964 -0.355,-2.926c0.042,-0.962 0.021,-6.166 -0.042,-6.793c-0.062,-0.628 -0.104,-2.739 -0.397,-3.387c-0.292,-0.648 -0.439,-1.233 -0.502,-1.881c-0.062,-0.648 -0.397,-2.759 -0.418,-3.01c-0.02,-0.251 -0.146,-0.878 -0.334,-1.401c-0.188,-0.522 -0.564,-1.588 -0.69,-2.696c-0.125,-1.108 0.021,-1.003 0.042,-1.463c0.021,-0.46 0.063,-0.836 -0.084,-1.296c-0.146,-0.46 -1.191,-2.132 -1.651,-2.592c-0.46,-0.46 -1.171,-1.045 -1.63,-1.045c-0.46,-0 -0.753,-0.314 -1.025,-0.523c-0.271,-0.209 -0.627,-0.334 -0.71,-0.69c-0.084,-0.355 0.041,-0.585 -0.105,-0.731c-0.146,-0.147 -1.693,-0.377 -2.216,-0.607c-0.522,-0.23 -1.463,-0.648 -2.006,-0.731c-0.544,-0.084 -1.38,-0.481 -1.693,-0.397c-0.314,0.083 -1.129,0.564 -1.485,0.773c-0.355,0.209 -2.32,0.314 -2.571,0.23Z" style="fill:#826e67;"/><path d="M79.533,80.298c0,-0 -1.092,0.518 -1.511,0.799c-0.474,0.319 -0.949,0.794 -1.409,1.358c-0.46,0.564 -1.087,1.484 -1.588,2.09c-0.502,0.606 -1.924,2.32 -2.697,2.655c-0.773,0.334 -2.968,0.815 -3.365,1.129c-0.397,0.313 -0.816,1.756 -0.983,1.965c-0.167,0.209 -0.71,0.94 -0.899,1.233c-0.188,0.292 -0.397,1.672 -0.794,2.048c-0.397,0.377 -0.606,0.983 -0.711,1.296c-0.104,0.314 -1.087,2.843 -1.191,3.47c-0.105,0.627 -1.087,5.498 -1.15,6.083c-0.062,0.585 -0.33,6.275 -0.36,6.826c-0.031,0.552 0.03,6.739 0.183,7.811c0.154,1.072 0.296,3.921 0.422,4.142l0.978,0c0.346,0 0.851,0.158 1.008,0.568c0.158,0.409 0.505,1.639 0.599,2.238c0.095,0.599 0.536,5.138 0.631,5.8c0.094,0.662 0.347,1.639 0.63,2.301c0.284,0.662 0.725,3.405 1.387,4.098c0.662,0.694 1.072,0.725 1.009,1.545c-0.063,0.82 -0.252,1.45 -0.252,1.45l-6.462,-0.599c-0,0 -0.253,-0.473 0.031,-0.756c0.284,-0.284 0.441,0.094 0.378,-1.135c-0.063,-1.23 -0.157,-2.774 -0.189,-3.783c-0.031,-1.009 0.126,-1.576 -0.252,-2.238c-0.378,-0.662 -0.693,-1.671 -0.693,-2.522c-0,-0.851 0.315,-6.147 0.252,-6.998c-0.063,-0.852 -0.851,-6.62 -0.946,-7.692c-0.095,-1.072 -0.977,-8.543 -0.977,-9.52c-0,-0.977 -0,-7.124 0.252,-7.44c0.252,-0.315 0.63,-2.395 0.694,-3.026c0.063,-0.63 0.441,-1.324 0.441,-1.324l-0.189,-0.41c-0,0 0.63,-1.67 1.04,-2.175c0.41,-0.504 0.441,-1.103 0.536,-1.418c0.094,-0.316 0.157,-1.072 0.41,-1.293c0.252,-0.221 0.315,-0.914 0.851,-1.828c0.536,-0.914 0.662,-0.883 1.009,-1.513c0.346,-0.631 1.26,-0.915 1.891,-1.293c0.63,-0.378 0.63,-0.819 1.072,-1.103c0.441,-0.284 1.544,-1.45 2.616,-1.923c1.072,-0.473 1.734,-1.229 2.837,-1.419c1.104,-0.189 2.428,0.032 2.869,0.19c0.441,0.157 1.418,0.661 2.592,0.313" style="fill:#826e67;"/><path d="M85.793,79.085c0,-0 0.112,3.773 0.298,4.791c0.186,1.018 2.793,6.305 3.339,6.951c0.546,0.645 3.55,3.649 3.773,3.81c0,0 -0.558,0.559 -0.633,1.204c-0.074,0.646 0.844,2.867 0.857,3.525c0.012,0.658 0.273,2.123 0.484,2.284c0.211,0.161 0.471,0.236 0.471,0.236c0,-0 -0.434,2.544 -0.608,3.699c-0.173,1.154 -0.633,5.349 -0.62,6.342c0.012,0.993 0.111,7.373 0.409,8.453c0.298,1.08 0.671,6.777 0.819,7.646c0.149,0.869 0.472,9.251 0.547,10.202c0.074,0.952 7.968,-0.277 7.807,-3.206c-0.162,-2.929 -0.435,-6.963 -0.608,-8.564c-0.174,-1.602 -0.596,-7.348 -0.844,-8.527c-0.249,-1.18 -0.844,-5.102 -1.031,-6.045c-0.186,-0.943 -1.241,-5.573 -1.39,-6.231c-0.149,-0.658 -1.229,-3.537 -1.216,-3.711c0.012,-0.174 0.149,-0.435 0.149,-0.435c-0,0 0.223,-2.259 0.409,-2.954c0.187,-0.695 0.621,-3.14 0.472,-3.562c0,-0 0.894,-0.807 1.427,-1.316c0.534,-0.509 1.862,-1.862 2.433,-2.904c0.571,-1.043 1.279,-1.676 1.775,-2.445c0.497,-0.77 1.589,-2.495 2.172,-3.339c0.584,-0.844 1.974,-3.873 2.247,-4.518c0.273,-0.646 0.521,-1.49 0.633,-1.577c-0,0 -2.42,-2.072 -2.718,-2.395c-0,-0 -0.46,1.204 -0.906,2.433c-0.447,1.228 -0.733,3.289 -1.329,4.121c-0.595,0.831 -2.234,3.016 -2.83,3.798c-0.595,0.782 -1.464,2.259 -2.544,3.276c-1.08,1.018 -2.594,2.433 -2.88,2.52c-0.285,0.087 -0.347,0.211 -0.633,0.037c-0.285,-0.173 -2.743,-1.911 -3.202,-2.557c-0.459,-0.645 -2.122,-3.09 -2.557,-4.021c-0.434,-0.931 -1.787,-3.19 -2.11,-4.096c-0.323,-0.906 -1.167,-2.445 -1.167,-2.445c0,-0 -0.186,-0.178 -0.695,-0.48Z" style="fill:#252c2e;"/></g></g></svg>