<?xml version="1.0" encoding="UTF-8" standalone="no"?><!DOCTYPE svg PUBLIC "-//W3C//DTD SVG 1.1//EN" "http://www.w3.org/Graphics/SVG/1.1/DTD/svg11.dtd"><svg width="100%" height="100%" viewBox="0 0 150 150" version="1.1" xmlns="http://www.w3.org/2000/svg" xmlns:xlink="http://www.w3.org/1999/xlink" xml:space="preserve" xmlns:serif="http://www.serif.com/" style="fill-rule:evenodd;clip-rule:evenodd;stroke-linejoin:round;stroke-miterlimit:2;"><path id="base" d="M150,75c0,-41.394 -33.606,-75 -75,-75c-41.394,0 -75,33.606 -75,75c0,41.394 33.606,75 75,75c41.394,0 75,-33.606 75,-75Z" style="fill:#2c2c2c;"/><path id="outline" d="M144,75c0,-38.082 -30.918,-69 -69,-69c-38.082,0 -69,30.918 -69,69c0,38.082 30.918,69 69,69c38.082,0 69,-30.918 69,-69Z" style="fill:#78387b;"/><path id="core" d="M141,75c0,-36.426 -29.574,-66 -66,-66c-36.426,0 -66,29.574 -66,66c0,36.426 29.574,66 66,66c36.426,0 66,-29.574 66,-66Z" style="fill:#d8d8d8;"/><clipPath id="_clip1"><path d="M141,75c0,-36.426 -29.574,-66 -66,-66c-36.426,0 -66,29.574 -66,66c0,36.426 29.574,66 66,66c36.426,0 66,-29.574 66,-66Z"/></clipPath><g clip-path="url(#_clip1)"><g id="ramirez"><path d="M67.544,108.63c-0,-0 -0.8,-2.118 -1.083,-3.012c-0.282,-0.895 -0.565,-2.119 -0.165,-2.989c0.401,-0.871 0.706,-2.001 0.471,-2.495c-0.235,-0.494 -2,-2.142 -2.306,-2.636c-0.306,-0.494 -2.565,-5.554 -2.871,-6.142c-0.306,-0.588 -0.659,0.612 -0.589,1.412c0.071,0.8 -6.636,-6.99 -6.636,-6.99c-0,0 -0.047,-0.07 -0.636,0.918c-0.588,0.989 -0.988,1.53 -1.553,2.142c-0.565,0.612 -2.048,2.424 -2.353,2.494l-0.142,1.365l-3.318,0.189c0,-0 -0.659,-2.189 -1.059,-3.319c-0.4,-1.129 -1.412,-3.742 -1.436,-4.377c-0.023,-0.636 0.848,-0.541 1.342,-0.612c0.494,-0.071 0.941,-0.094 1.741,-0.706c0.801,-0.612 2.707,-2.73 2.895,-3.107c0.188,-0.376 -0.824,-1.976 -0.988,-2.706c-0.165,-0.73 -0.071,-0.894 0.117,-1.459c0.189,-0.565 1.695,-2.589 1.695,-2.589c-0,0 -6.472,-10.896 -7.178,-11.955c-0.706,-1.059 -4.613,-7.225 -5.107,-7.978c-0.494,-0.753 -1.483,-2.071 -1.294,-2.707c0.188,-0.635 1.223,-3.6 1.223,-3.6l-1.482,-2.589c-0,-0 -0.353,-0.777 -0.142,-1.177c0.212,-0.4 0.165,-0.518 0.165,-0.518l-4.189,-7.178c0,0 -0.918,-0.07 -1.318,-0.588c-0.4,-0.518 -0.682,-1.082 -0.07,-1.177l0.447,-0.023l-3.577,-3.789c-0,-0 -0.918,-1.059 -0.683,-1.812c0.235,-0.753 0.918,-0.353 1.436,0.47c0.517,0.824 1.035,0.142 0.682,-0.376c-0.353,-0.518 -0.965,-1.53 -0.141,-1.553c0.824,-0.024 2.094,0.094 2,0.847c-0.094,0.753 0.189,1.365 0.495,1.788c0.306,0.424 1.317,2.519 1.317,2.519c0,-0 0.965,0.094 1.13,0.329c0.165,0.235 -0.07,1.389 -0.07,1.389l5.036,8.189c-0,0 0.212,-0.776 0.541,-1.388c0.33,-0.612 1.224,-0.541 1.483,-0.659c0.259,-0.118 0.306,-2.801 0.659,-3.271c0.353,-0.471 3.342,-0.447 3.718,-0.306c0.377,0.141 0.683,2.4 0.283,2.753c-0.401,0.353 -1.742,2.589 -1.742,2.589l1.53,0.188c-0,0 0.047,1.295 0.306,1.742c0.259,0.447 9.084,16.45 9.084,16.45c-0,0 5.201,10.167 5.577,10.638c0.377,0.47 0.565,0.07 0.895,0.918c0.329,0.847 0.329,1.294 0.588,1.647c0.259,0.353 1.224,0.777 1.742,1.13c0.517,0.353 0.635,0.117 0.635,0.117c0,0 0.706,-0.871 1.247,-0.682c0.542,0.188 1.154,0.894 0.659,1.341c-0.494,0.447 -0.376,2.236 -0.211,2.448c0.164,0.212 -0.142,1.176 -0.142,1.176l9.142,20.181l-7.8,9.096Z" style="fill:#1d161a;"/><path d="M59.758,66.315c-0,-0 -0.879,-1.734 -1.618,-2.728c-0.74,-0.994 -1.364,-1.456 -1.596,-2.219c-0.231,-0.763 -0.462,-2.312 -1.733,-2.127c-1.272,0.185 -1.234,2.438 -0.763,3.329c0.482,0.912 0.151,1.841 0.648,2.4c2.276,2.562 -5.736,3.635 -8.232,0.899c0,-0 -0.745,-0.784 -1.3,-1.362c-0.555,-0.578 -0.469,-1.231 -1.07,-1.531c-0.601,-0.301 -1.421,0.149 -1.444,0.634c-0.023,0.486 0.239,2.262 0.748,3.094c0.508,0.832 1.333,1.53 1.795,1.784c0.463,0.254 14.565,-2.173 14.565,-2.173Z" style="fill:#d3a378;"/><path d="M54.441,91.868c-0.004,-0.576 0.011,-1.165 0.074,-1.392c0.141,-0.502 0.985,-1.285 1.567,-1.064c0.583,0.221 0.904,1.265 0.904,1.265c0,0 6.961,2.851 7.506,2.528c0.546,-0.323 0.11,-1.24 0.324,-1.051c0.863,0.761 0.594,1.961 0.493,2.769c-0.101,0.809 -0.445,1.193 -0.586,1.678c-0.142,0.485 -0.324,1.071 -0.364,1.658c-0.041,0.586 -0.283,1.415 -0.344,2.183c-0.061,0.768 -0.242,1.172 -0.141,1.576c0.101,0.405 1.01,1.537 1.152,1.88c0.141,0.344 0.505,0.809 0.687,1.152c0.182,0.344 0.485,1.375 0.627,1.82c0.141,0.444 0.242,1.273 0.384,1.778c0.141,0.506 -0.122,1.254 -0.384,1.718c-0.263,0.465 -0.93,1.233 -0.93,1.233l-0.667,0.263l-0.586,0.991c-0,-0 -1.011,0.161 -1.739,0.222c-0.727,0.061 -2.509,0.237 -2.547,-0.081c-0.093,-0.793 -1.593,-2.342 -2.243,-2.345c-0.507,-0.001 -1.294,-0.889 -1.496,-1.091c-0.202,-0.202 -0.425,-1.395 -0.404,-2.042c0.02,-0.646 0.283,-1.374 0.283,-1.374c-0,-0 -1.921,-0.182 -1.901,-0.526c0.021,-0.343 2.022,-0.566 2.022,-0.566c-0,0 0.04,-0.222 -0.101,-0.485c-0.142,-0.263 -0.95,-1.213 -1.294,-1.657c-0.344,-0.445 -1.193,-3.376 -1.415,-3.942c-0.222,-0.566 -0.242,-1.091 -0.404,-1.698c-0.162,-0.606 -0.202,-1.192 -0.202,-1.597c-0,-0.404 0.283,-0.808 0.404,-1.051c0.121,-0.242 0.203,-0.909 0.102,-1.192c-0.101,-0.283 0.119,-0.97 0.543,-1.374c0.206,-0.196 0.464,-0.217 0.676,-0.186Z" style="fill:#22160c;"/><path d="M54.365,85.778c-0,0 7.531,6.166 7.225,5.578c-0.306,-0.588 -0.659,0.612 -0.589,1.412c0.071,0.8 -0.07,3.601 -0.164,4.566c-0.095,0.964 0.094,2.588 -0.636,3.412c-0.729,0.824 -0.588,0.965 -1.624,0.377c-1.035,-0.589 -2.164,-1.645 -2.281,-2.351c-0.118,-0.706 0.233,-1.941 0.256,-2.788c0.024,-0.848 -0.022,-3.687 -0.093,-4.722c-0.07,-1.036 0.071,-2.448 -0.329,-3.154c-0.4,-0.706 -1.765,-2.33 -1.765,-2.33Z" style="fill:#1d161a;"/><path d="M97.446,65.291c-0,-0 -0.592,-0.843 -0.789,-1.471c-0.198,-0.627 -0.377,-5.773 -0.377,-5.773l2.779,-3.658c0,-0 0.682,2.797 0.574,3.191c-0.107,0.395 -0.287,2.744 -0.143,3.228c0.143,0.484 0.054,1.363 0.054,1.363c-0,-0 -0.467,-1.184 -0.879,-1.399c-0.412,-0.215 -0.466,0.789 -0.448,1.596c0.018,0.807 -0.449,2.205 -0.771,2.923Z" style="fill:#331e11;"/><path d="M62.651,93.773c-0.426,-0.097 -1.412,-0.274 -1.537,-0.313c-1.097,-0.335 -1.301,-0.576 -1.559,-1.08c-0.257,-0.503 -0.111,-1.779 0.247,-1.97c0.358,-0.19 2.686,-0.268 3.603,0.112c0.918,0.381 1.325,1.537 1.668,2.228c0.174,0.351 -1.38,1.262 -2.422,1.023Z" style="fill:#d3a378;"/><path d="M53.285,79.076c-0,0 3.999,2.52 5.409,3.26c1.411,0.74 4.67,3.167 5.503,3.768c0.832,0.601 6.241,3.884 7.767,5.063c1.526,1.179 6.312,-3.144 6.312,-3.144l-1.827,-3.606c0,-0 -4.755,-2.365 -8.092,-4.321c-1.054,-0.618 -1.965,-1.195 -2.542,-1.644c-2.404,-1.873 -8.461,-4.092 -8.461,-4.092l-4.069,4.716Z" style="fill:#d3a378;"/><path d="M57.446,96.97c-0.524,-0.092 -1.11,0.67 -1.688,0.578c-0.578,-0.093 -1.248,-0.578 -1.364,-1.087c-0.115,-0.508 0.347,-1.294 0.509,-1.687c0.162,-0.393 -0.509,-0.532 -0.509,-1.203c0,-0.67 0.833,-1.826 0.717,-2.057c-0.116,-0.231 -0.185,-1.248 0.023,-1.595c0.208,-0.347 2.936,-0.393 3.375,-0.023c0.44,0.37 0.578,0.578 0.602,0.947c0.023,0.37 -0.093,0.301 -0.139,0.555c-0.046,0.255 0.832,0.555 0.855,1.226c0.023,0.67 -0.37,1.387 -0.393,1.71c-0.023,0.324 0.162,1.364 0.093,1.804c-0.07,0.439 -0.625,1.086 -2.081,0.832Z" style="fill:#d3a378;"/><path d="M68.012,80.394c2.537,1.452 6.481,2.575 7.54,2.977c1.797,0.683 7.129,-9.798 7.129,-9.798c0,0 1.593,-0.785 2.024,-1.073c0.431,-0.287 1.294,-2.12 1.258,-3.126c-0.036,-1.006 0.072,-4.924 -0.323,-5.606c-0.396,-0.683 -2.408,-2.193 -2.768,-3.199c-0.359,-1.006 -0.862,-2.623 -1.293,-3.27c-0.432,-0.647 -0.827,-0.288 -0.971,-1.042c-0.143,-0.755 -0.395,-1.761 -0.251,-2.48c0.144,-0.719 0.287,-1.473 0.108,-2.516c-0.114,-0.656 1.155,-5.366 2.659,-7.641c0.884,-1.336 2.336,-0.84 2.336,-0.84l11.716,7.044c-0,-0 1.185,0.215 1.868,0.539c0.683,0.323 1.438,0.719 1.33,1.761c-0.108,1.042 -0.144,2.695 -0.791,3.162c-0.647,0.468 -1.617,0.539 -1.617,0.539c0,0 0,1.258 -0.251,2.049c-0.252,0.79 -0.971,2.623 -1.222,2.731c-0,0 0.215,2.516 0.539,3.558c0.323,1.042 0.467,1.833 0.683,2.084c0.215,0.252 0.721,-0.706 1.586,-0.98c0.865,-0.273 3.504,-0.576 4.513,-0.173c1.009,0.404 3.561,2.567 4.181,3.966c0.62,1.398 1.337,10.965 1.284,12.603c-0.053,1.639 0.687,6.845 -4.361,10.096c-5.047,3.25 -6.792,3.514 -6.792,3.514l-33.173,20.893c-0,0 -0.023,0.957 -1.336,0.334c-1.313,-0.623 -2.559,-2.003 -3.338,-3.649c-0.142,-0.302 -0.437,-1.005 -0.823,-1.952l5.291,-2.86c1.178,1.411 2.532,2.531 3.458,2.629c1.899,0.199 7.396,-12.893 6.297,-14.292c-1.1,-1.399 -2.032,-4.608 -3.798,-5.597c-0.938,-0.525 -3.535,-3.051 -4.217,-3.291l1.525,-7.094Z" style="fill:#d3a378;"/><path d="M58.32,139.597c-0,0 0.036,-1.385 0.218,-2.005c0.183,-0.62 0.584,-1.203 0.73,-1.641c0.146,-0.437 0.218,-1.276 0.073,-2.005c-0.146,-0.73 -0.11,-1.058 -0.073,-2.006c0.036,-0.948 -0.256,-1.349 -0.183,-2.224c0.073,-0.875 -0.364,-0.109 0.183,-1.386c0.547,-1.276 0.765,-2.333 1.057,-3.062c0.292,-0.73 1.896,-3.428 2.151,-4.23c0.256,-0.802 0.146,-0.656 0.766,-1.677c0.62,-1.021 0.985,-1.532 0.985,-2.334c-0,-0.802 -0.064,-3.326 0.374,-4.128c0.437,-0.802 2.42,-2.443 2.903,-2.951c0.749,-0.788 27.028,1.467 27.434,2.824c0.208,0.694 5.045,12.756 5.957,14.433c0.911,1.677 1.962,7.062 2.383,7.98c2.767,6.028 -42.329,10.187 -44.958,4.412Z" style="fill:#bd8254;"/><path d="M81.081,113.785c3.479,0.229 8.462,0.576 8.832,0.669c0.567,0.141 2.805,3.513 2.578,3.881c-0.227,0.368 -1.246,-0.142 -2.011,-0.368c-0.546,-0.162 -5.838,-0.309 -9.597,-0.411c0.015,-0.984 0.061,-2.653 0.198,-3.771Zm-3.078,3.689c-0.195,-0.006 -0.363,-0.012 -0.498,-0.017c-2.125,-0.085 -2.692,-0 -2.692,-0c0,-0 -0.056,0.51 -0.34,0.623c-0.283,0.113 -6.515,-0.113 -6.799,-0.34c-0.283,-0.227 -0.311,-0.793 -0.311,-0.793l-1.219,0.198c0,0 -0.113,-2.465 0.199,-4.108l0.906,-0.028l0.114,-0.368c-0,-0 7.394,-0 7.677,0.085c0.283,0.085 -0.057,0.708 -0.057,0.708c0,-0 2.493,0.142 2.748,0.142c0.021,-0 0.113,0.004 0.264,0.013c-0.016,1.122 -0.033,2.869 0.008,3.885Zm-12.604,-4.992c0,-0 -0.227,0.65 -0.396,1.584c-0.17,0.935 -0.282,2.154 -0.051,3.293c0,0 0.657,-3.899 0.447,-4.877Z" style="fill:#361c15;"/><path d="M97.535,51.394c-0.143,0.341 -0.627,0.646 -0.753,0.897c-0.125,0.251 -0.143,0.807 -0.089,1.613c0.053,0.807 -0.574,2.923 -0.574,2.923c-0,0 -0.646,-1.847 -0.986,-2.456c-0.341,-0.61 -0.682,-1.184 -1.112,-1.614c-0.431,-0.431 -1.471,-2.098 -1.883,-2.564c-0.412,-0.467 -0.717,-0.933 -1.56,-1.596c-0.843,-0.664 -2.062,-1.56 -2.385,-1.847c-0.323,-0.287 -1.147,-1.291 -1.147,-1.291c-0,-0 -0.377,-0.323 -0.574,-0.43c-0.197,-0.108 -0.323,-0.251 -0.735,0.071c-0.413,0.323 -1.04,0.502 -1.507,0.915c-0.466,0.412 -0.914,0.645 -1.542,1.237c-0.627,0.592 -0.555,0.323 -0.95,0.986c-0.394,0.664 -0.538,0.682 -0.628,1.471c-0.089,0.789 -0.269,4.052 -0.322,4.715c-0,0 -0.233,-0.986 -0.233,-1.47c-0,-0.484 -0.054,-0.717 -0.413,-1.04c-0.358,-0.323 -0.717,-0.681 -0.717,-1.596c-0,-0.914 -0,-4.465 -0.054,-5.343c-0.054,-0.879 -0.107,-1.775 -0.107,-2.457c-0,-0.681 0.161,-1.775 0.627,-2.349c0.466,-0.574 3.837,-2.797 4.447,-3.192c0.61,-0.394 1.668,-1.022 2.475,-1.362c0.806,-0.341 2.062,-0.628 2.707,-0.538c0.023,0.003 0.053,0.025 0.091,0.065c0.476,0.016 0.885,0.111 1.114,0.118c0.51,0.014 2.096,1.019 2.719,1.246c0.623,0.226 1.671,0.736 2.166,1.118c0.496,0.383 0.241,2.351 1.416,2.945c1.175,0.595 0.75,0.581 1.416,1.36c0.665,0.778 0.156,0.538 0.439,1.387c0.283,0.85 0.679,2.082 0.722,2.719c0.042,0.637 -0.127,0.694 -0.368,1.302c-0.241,0.609 -0.113,0.807 -0.156,1.487c-0.042,0.68 -0.311,1.133 -0.495,1.274c-0.185,0.142 -0.312,0.156 -0.539,0.538c-0.226,0.383 -0.51,0.758 -0.51,0.758Z" style="fill:#331e11;"/><path d="M104.21,91.106c0.522,-0.169 1.135,-0.874 1.757,-1.174c1.392,-0.671 2.185,-3.775 2.608,-4.943c0.423,-1.169 0.675,-5.186 0.675,-5.186c0.541,0.296 0.756,3.05 0.73,3.815c-0.022,0.645 -0.179,1.272 -0.552,1.943c-0.373,0.671 -1.109,2.802 -1.848,3.878c-0.641,0.936 -1.655,1.707 -2.602,2.625c-0.326,0.316 -0.661,0.633 -0.776,0.713c-0.249,0.174 -0.771,1.666 -1.268,2.462c-0.497,0.795 -4.077,6.737 -4.649,7.433c-0.572,0.696 -2.81,3.754 -2.959,4.65c-0.149,0.895 -0.149,5.817 -0.149,5.817c0,0 -1.74,-0.497 -3.058,-0.621c-1.318,-0.125 -5.768,-0.846 -7.011,-0.97c-1.243,-0.124 -7.483,-1.044 -9.025,-0.97c-1.541,0.075 -7.956,-0.323 -9.597,0.05c0,0 0.746,-2.909 1.517,-4.127c0.771,-1.218 1.417,-3.133 2.088,-4.525c0.672,-1.392 1.467,-3.605 1.368,-4.699c-0.1,-1.094 -0.398,-3.729 -0.995,-4.525c-0.596,-0.795 -1.193,-2.262 -1.193,-3.058c-0,0 0.226,0.161 1.196,0.732c0.97,0.572 3.751,2.674 4.199,2.998c0.447,0.323 5.42,2.461 6.389,2.958c0.97,0.497 5.321,1.939 5.918,2.064c0.596,0.124 2.013,0.298 2.511,-0.224c0.497,-0.522 3.083,-2.859 3.754,-3.58c0.671,-0.721 3.63,-4.6 4.251,-5.146c0.622,-0.547 1.915,-1.741 1.915,-1.741c-0,0 0.571,1.144 1.367,1.716c0.709,0.509 2.635,1.358 3.439,1.635Z" style="fill:#3d3020;"/><path d="M66.274,77.896c0.051,0.22 -0.21,0.616 -0.324,0.707c-0.234,0.187 -1.373,1.451 -1.732,1.997c-0.359,0.546 -1.575,2.293 -1.794,2.964c-0.218,0.67 -0.296,2.792 -0.296,2.792c-0.088,-0.127 -0.257,-0.257 -0.471,-0.394c-0.657,-0.416 -1.745,-0.886 -2.274,-1.463c-0.702,-0.764 -2.028,-2.417 -2.34,-2.589c-0.312,-0.171 -1.794,-1.029 -2.028,-1.139c-0.234,-0.109 -1.185,-0.592 -1.404,-0.764c-0.218,-0.171 -1.669,-1.451 -2.324,-1.872c-0.655,-0.421 -1.404,-1.31 -1.7,-1.684c-0.297,-0.375 -1.225,-1.04 -1.662,-1.398c-0.437,-0.359 -1.208,-1.176 -1.427,-1.394c-0.218,-0.219 -0.577,-1.389 -0.577,-1.779c0,-0.39 0.024,-0.909 0.024,-1.376c-0,-0.468 -0.53,-1.17 -0.936,-1.825c-0.406,-0.656 -0.942,-0.854 -0.942,-1.151c-0,-0.296 1.23,-1.45 1.495,-1.747c0.266,-0.296 0.546,-0.327 0.734,-0.156c0.187,0.172 1.107,0.702 1.622,0.546c0.515,-0.156 0.967,-0.187 2.542,-0.265c1.576,-0.078 1.061,0.141 2.106,0.312c1.045,0.172 1.326,-0.015 1.872,-0.281c0.546,-0.265 0.047,-1.279 0.047,-1.279c-0,0 0.53,-0.218 1.341,-0.171c0.811,0.047 0.624,0.265 1.466,0.421c0.843,0.156 1.81,0.093 2.153,0.093c0.343,0 0.702,1.404 0.811,1.576c0.109,0.171 0.343,2.652 0.468,3.572c0.037,0.27 0.076,0.456 0.119,0.588c0.119,1.021 0.268,1.978 0.374,2.22c0.282,0.652 1.239,2.381 2.262,2.932c1.024,0.551 2.637,1.338 2.795,2.007Zm-5.02,-0.369c-0.033,-0.381 -1.715,-2.106 -2.605,-2.059c-0.889,0.047 -2.916,4.321 -2.698,4.789c0.218,0.468 1.451,1.528 2.621,1.31c1.169,-0.218 0.904,-1.326 1.403,-2.184c0.5,-0.858 1.311,-1.497 1.279,-1.856Z" style="fill:#4d3629;"/><path d="M85.307,71.645c-0,-0 -0.945,0.92 -1.765,1.019c-0.821,0.099 -1.417,0.124 -2.536,0.721c-1.119,0.597 -1.542,1.392 -2.934,2.561c-1.392,1.168 -3.133,4.326 -3.555,4.624c-0.423,0.298 -1.716,1.268 -2.039,1.442c-0.323,0.174 -0.348,0.182 -0.348,0.182c0,0 1.659,0.788 2.556,1.146c0.808,0.322 3.983,1.581 5.126,1.954c1.144,0.373 5.124,1.911 5.596,2.234c0.472,0.323 0.52,-1.091 0.844,-1.787c0.323,-0.696 1.516,-2.536 1.939,-3.207c0.423,-0.671 2.586,-3.53 3.182,-4.177c0.597,-0.646 2.437,-3.008 2.437,-3.356c-0,-0.348 0.497,-3.182 0.646,-3.729c0.067,-0.246 0.548,-1.607 1.33,-2.682c0.958,-1.318 2.339,-2.278 2.202,-2.497c-0.145,-0.232 -1.39,0.923 -2.637,1.98c-0.889,0.754 -1.884,1.308 -2.377,1.588c-0.807,0.458 -2.744,0.964 -3.764,1.586c-1.019,0.621 -1.864,1.417 -2.934,1.74c-1.069,0.323 -2.262,0.721 -2.784,0.622c-0.522,-0.1 0.124,-0.174 0.497,-0.473c0.373,-0.298 0.721,-0.373 1.318,-1.491Z" style="fill:#3d3020;"/><path d="M90.077,113.578c-0.246,0.18 0.443,1.022 1.09,2.351c0.647,1.329 1.329,2.317 1.908,2.828c0.579,0.511 0.749,0.817 2.453,1.09c1.703,0.273 1.363,-0.647 2.112,0.579c0.75,1.227 0.818,2.249 1.09,2.998c0.273,0.75 0.58,2.147 1.091,2.896c0.511,0.75 1.805,2.726 2.112,3.543c0.307,0.818 0.681,1.806 0.886,2.351c0.204,0.545 -0.102,1.84 1.601,1.738c1.704,-0.102 5.451,-1.67 5.451,-1.67c0,0 3.509,-2.657 3.305,-3.645c-0.204,-0.988 -0.068,-2.01 -0.613,-2.521c-0.545,-0.511 -1.431,-2.658 -1.431,-2.658c-0,0 0.545,0.954 1.363,1.942c0.817,0.988 1.09,1.125 1.09,1.125c-0,-0 0.681,-0.443 0.613,-0.886c-0.068,-0.443 -0.136,-1.159 -0.784,-1.465c-0.647,-0.307 -0.408,-0 -0.988,-0.545c-0.579,-0.545 -2.146,-2.351 -2.487,-3.032c-0.34,-0.682 -0.579,-0.988 -0.613,-1.738c-0.034,-0.75 -0.307,-2.419 1.022,-2.555c0,-0 -0.783,0.17 -1.09,-0.852c-0.307,-1.022 -0.068,-0.954 -0.579,-1.806c-0.511,-0.851 -0.273,-0.851 -1.09,-1.601c-0.818,-0.749 0.034,-1.226 -1.261,-1.056c-1.295,0.17 -2.112,0.204 -2.044,0.681c0.068,0.477 0.477,0.511 0.034,0.716c-0.443,0.204 0.341,-0.102 -0.988,-0.136c-1.329,-0.035 -1.67,-0.103 -2.521,0.17c-0.852,0.272 -0.375,0.375 -1.567,0.409c-1.193,0.034 -0.477,-0 -1.636,-0.068c-1.158,-0.069 -0.92,-0.137 -2.282,0.102c-1.363,0.238 -4.736,0.34 -5.247,0.715Z" style="fill:#3e4542;"/></g></g></svg>