<?xml version="1.0" encoding="UTF-8" standalone="no"?><!DOCTYPE svg PUBLIC "-//W3C//DTD SVG 1.1//EN" "http://www.w3.org/Graphics/SVG/1.1/DTD/svg11.dtd"><svg width="100%" height="100%" viewBox="0 0 150 150" version="1.1" xmlns="http://www.w3.org/2000/svg" xmlns:xlink="http://www.w3.org/1999/xlink" xml:space="preserve" xmlns:serif="http://www.serif.com/" style="fill-rule:evenodd;clip-rule:evenodd;stroke-linejoin:round;stroke-miterlimit:2;"><path id="base" d="M150,75c0,-41.394 -33.606,-75 -75,-75c-41.394,0 -75,33.606 -75,75c0,41.394 33.606,75 75,75c41.394,0 75,-33.606 75,-75Z" style="fill:#2c2c2c;"/><path id="outline" d="M144,75c0,-38.082 -30.918,-69 -69,-69c-38.082,0 -69,30.918 -69,69c0,38.082 30.918,69 69,69c38.082,0 69,-30.918 69,-69Z" style="fill:#78387b;"/><path id="core" d="M141,75c0,-36.426 -29.574,-66 -66,-66c-36.426,0 -66,29.574 -66,66c0,36.426 29.574,66 66,66c36.426,0 66,-29.574 66,-66Z" style="fill:#d8d8d8;"/><clipPath id="_clip1"><path d="M141,75c0,-36.426 -29.574,-66 -66,-66c-36.426,0 -66,29.574 -66,66c0,36.426 29.574,66 66,66c36.426,0 66,-29.574 66,-66Z"/></clipPath><g clip-path="url(#_clip1)"><g id="steve"><path d="M54.481,52.089l-22.527,32.967l5.948,9.175l12.339,1.013l15.06,-23.982l-10.82,-19.173Zm39.042,15.692l15.25,13.605l13.541,2.025l4.366,-12.149l-15.17,-15.774l-17.987,12.293Zm-31.069,-35.878l-0.886,29.361l28.791,1.392l10.188,-6.518l0.569,-28.474l-38.662,4.239Z" style="fill:#ecb787;"/><path d="M62.327,31.903l-0.316,11.137l3.354,0.063l-0,-4.113l21.957,0.633l0.063,3.987l2.974,0.316l0.19,7.973l1.835,-1.076l-0,-4.05l2.278,-1.139l0.38,6.708l2.847,-1.456l-0.19,4.05l2.974,-0.569l0.886,-26.956l-26.893,-1.013l-12.339,5.505Z" style="fill:#8f6a34;"/><path d="M47.457,62.213l6.644,-10.504l7.766,-0.072l-0.317,9.635l28.817,1.393l3.662,-2.342l2.974,-6.146l14.301,0.759l5.112,5.55l-4.1,13.623l-12.523,-0.753l-1.526,-1.359l-0.062,18.817l-4.366,3.417l-0.19,4.556l-2.341,1.898l-6.454,-2.278l-0.063,-2.72l-18.857,-4.683l-0.815,-19.437l-0.496,0.834l-5.396,-9.872l-11.77,-0.316Z" style="fill:#54b5ae;"/><path d="M65.928,90.998l-0.057,6.144l2.594,0.759l-1.518,2.215l7.023,10.82l-6.644,21.008l12.384,4.608l3.911,-0.203l0.917,-3.456l2.81,0.553l10.604,-32.191l-3.796,-1.772l4.429,-2.847l-0.372,-5.84l-4.369,3.435l-0.195,4.43l-2.309,1.992l-6.48,-2.273l-0.051,-2.671l-18.881,-4.711Z" style="fill:#4f348a;"/><path d="M67.357,131.929l-2.51,7.248l13.679,4.79l6.265,-1.835l2.594,-8.796l-2.974,-0.506l-1.083,3.274l-3.486,0.29l-12.485,-4.465Z" style="fill:#776d60;"/></g></g></svg>