<?xml version="1.0" encoding="UTF-8" standalone="no"?><!DOCTYPE svg PUBLIC "-//W3C//DTD SVG 1.1//EN" "http://www.w3.org/Graphics/SVG/1.1/DTD/svg11.dtd"><svg width="100%" height="100%" viewBox="0 0 150 150" version="1.1" xmlns="http://www.w3.org/2000/svg" xmlns:xlink="http://www.w3.org/1999/xlink" xml:space="preserve" xmlns:serif="http://www.serif.com/" style="fill-rule:evenodd;clip-rule:evenodd;stroke-linejoin:round;stroke-miterlimit:2;"><path id="base" d="M150,75c0,-41.394 -33.606,-75 -75,-75c-41.394,0 -75,33.606 -75,75c0,41.394 33.606,75 75,75c41.394,0 75,-33.606 75,-75Z" style="fill:#2c2c2c;"/><path id="outline" d="M144,75c0,-38.082 -30.918,-69 -69,-69c-38.082,0 -69,30.918 -69,69c0,38.082 30.918,69 69,69c38.082,0 69,-30.918 69,-69Z" style="fill:#78387b;"/><path id="core" d="M141,75c0,-36.426 -29.574,-66 -66,-66c-36.426,0 -66,29.574 -66,66c0,36.426 29.574,66 66,66c36.426,0 66,-29.574 66,-66Z" style="fill:#d8d8d8;"/><clipPath id="_clip1"><path d="M141,75c0,-36.426 -29.574,-66 -66,-66c-36.426,0 -66,29.574 -66,66c0,36.426 29.574,66 66,66c36.426,0 66,-29.574 66,-66Z"/></clipPath><g clip-path="url(#_clip1)"><g id="tracer"><path d="M128.161,93.463c-0,-0 7.869,-0.322 8.191,-0.297c0.322,0.025 1.608,2.4 2.351,3.687c0.742,1.287 -4.554,11.309 -4.554,11.309l-10.566,-7.424l4.578,-7.275Z" style="fill:#605f5c;"/><path d="M115.886,97.765c0,0 4.032,4.086 3.652,4.475c-0.175,0.18 0.474,5.624 1.074,8.179c1.4,5.96 5.44,4.881 4.609,1.557c-0,-0 5.403,-9.134 4.141,-9.373c-0.674,-0.128 -1.578,-1.484 -2.537,-3.04c-0.777,-1.26 0.055,-4.297 -0.702,-5.275c-0.637,-0.823 -10.237,3.477 -10.237,3.477Zm-58.111,-9.828l-0.453,13.049c-0,0 8.532,-6.193 7.998,-9.136c-0.7,-3.858 -7.545,-3.913 -7.545,-3.913Zm24.039,-34.315c-0,-0 0.373,-0.841 0.062,-1.619c-0.311,-0.779 -1.469,-3.86 -2.055,-4.515c-1.434,-1.603 0.588,-15.216 2.242,-14.013c7.969,-5.808 14.141,-3.018 21.695,4.295c1.156,1.355 -0.254,6.838 -0.521,7.195c-0.367,0.492 -1.121,1.215 -1.557,1.588c-0.436,0.374 0.561,13.639 0.561,13.639l-18.933,9.933c-1.912,-4.841 -3.333,-9.912 -1.494,-16.503Z" style="fill:#cfad90;"/><path d="M69.021,112.161c0,-0 28.829,-0.75 30.286,-0.724c1.458,0.026 11.378,23.429 11.378,23.429c-15.097,8.04 -31.518,9.561 -48.744,7.123c0,0 -0.064,-3.194 0.16,-4.503c0.223,-1.31 0.766,-6.229 1.245,-7.635c0.48,-1.405 5.141,-16.881 5.675,-17.69Zm47.313,-14.178c0,0 1.886,2.595 2.574,3.247c-0,-0 0.899,-1.404 3.037,-2.454c2.137,-1.051 3.563,-1.086 4.143,-0.977c-0,-0 -0.613,-2.234 -0.033,-3.61c0.579,-1.377 -9.141,1.005 -9.721,3.794Zm-59.035,-9.593c0,0 2.364,1.182 3.227,2.907c0.862,1.725 1.53,4.748 1.434,6.025c0,0 3.241,-1.794 3.006,-3.725c-0.2,-1.637 -3.386,-6.772 -7.667,-5.207Z" style="fill:#f4af1a;"/><path d="M119.57,103.744c0,-0 0.101,-1.357 0.126,-1.633c0.025,-0.277 -2.362,-2.89 -2.412,-3.192c-0.051,-0.301 7.94,-3.794 8.367,-3.719c0,0 -0.402,2.79 1.357,4.649c0,0 1.508,-1.357 2.01,-1.91c0.503,-0.552 2.413,-2.889 2.262,-3.467c-0.151,-0.578 -1.583,-1.96 -1.583,-1.96c-0,-0 2.538,-5.478 3.844,-7.865c0,-0 -9.624,-0.503 -10.553,-0.503c-0,0 0.955,-1.03 1.08,-1.482c0.126,-0.453 0.503,-1.382 0.327,-1.759c-0.176,-0.377 -2.186,-1.634 -2.412,-2.161c-0.227,-0.528 -0.302,-5.001 -0.076,-5.352c0.226,-0.352 0.88,-0.377 0.98,-0.704c0.101,-0.327 1.583,-5.352 1.533,-5.729c-0.05,-0.377 -2.588,-4.146 -3.066,-4.724c-0.477,-0.578 -18.066,-10.026 -18.066,-10.026l-0.377,-0.955c-0,0 1.683,-3.995 2.035,-4.422c-0,-0 -2.613,-0.83 -2.94,-0.905c0,-0 -1.784,1.357 -2.136,1.483c0,-0 0.327,0.527 0.327,0.804c-0,-0 -3.116,1.331 -3.87,1.306c0,0 -0.955,0.553 -1.859,0.779c-0.905,0.226 -1.759,0.704 -1.91,1.835c-0.151,1.13 -0.377,2.211 -0.402,2.638c-0.025,0.427 -1.784,5.654 -2.437,6.458c-0.654,0.804 -2.563,4.045 -3.418,4.774c-0.854,0.729 -2.663,1.231 -3.266,1.457c-0.603,0.227 -0.051,-1.105 0.025,-1.608c0.075,-0.502 0.628,-1.608 1.055,-2.11c0.427,-0.503 1.106,-1.357 1.809,-1.533c0.704,-0.176 1.307,-0.779 1.659,-1.232c0.351,-0.452 1.105,-1.356 1.156,-1.658c0.05,-0.301 -0.201,-3.392 -0.201,-3.392c-0,-0 -1.006,0.176 -1.684,0.452c-0.678,0.277 -2.261,0.427 -2.814,-0.553c-0.553,-0.98 -2.438,-4.397 -2.815,-4.824c0,-0 -4.975,1.834 -6.332,2.211c-1.357,0.377 -7.664,2.136 -8.091,2.613c-0.427,0.478 0.533,0.354 0.98,0.27c0.95,-0.179 7.674,2.651 7.509,3.286c0,-0 0.356,0.138 0.582,0.465c0,-0 -0.729,1.658 -0.603,2.286c0,0 -1.834,1.131 -1.432,2.538c-0,0 -2.965,1.784 -3.342,2.563c-0.377,0.779 -1.407,2.212 -1.156,3.769l-0.101,9.398c0,0 -11.81,-2.462 -12.664,-2.563c-0.854,-0.1 1.03,6.056 1.231,6.584c0,-0 -1.733,0.779 -2.186,1.156c-0.452,0.376 1.558,2.914 1.558,2.914c0,0 3.82,0.277 4.573,1.357c0.754,1.081 2.282,3.593 2.382,4.397c0.101,0.804 -0.129,0.747 -0.506,1.249c-0.377,0.503 -2.264,2.129 -2.264,2.129c0,0 1.821,1.12 2.172,1.397c0.352,0.276 0.905,0.603 1.408,0.1c0.502,-0.502 2.588,-1.96 3.141,-4.07c0.552,-2.111 1.583,7.035 1.532,9.071c-0.05,2.035 -0.954,7.89 -1.357,9.347c-0.402,1.458 -0.854,1.433 0.327,2.664c1.181,1.231 3.166,2.89 3.87,3.593c0.703,0.704 1.91,1.332 3.317,1.256c1.407,-0.075 6.231,-0.175 7.538,-0.778c1.307,-0.604 3.015,-1.86 3.644,-2.488c0.628,-0.628 2.638,-2.061 4.12,-2.84c1.483,-0.779 7.162,-2.387 7.991,-2.462c0.829,-0.075 1.533,-0.729 1.106,-1.181c-0.427,-0.452 -4.373,-4.523 -4.649,-5.026c-0.276,-0.502 0.234,-3.476 0.636,-4.733c0,0 11.315,-6.256 11.365,-5.779c0.05,0.478 2.875,1.542 4.232,1.944c-0,-0 -0.453,3.995 -0.227,4.498c0.227,0.502 1.885,0.98 3.141,1.256c1.257,0.276 3.393,0.603 4.9,0.352Zm-82.17,-22.108c-0,-0 -1.438,-5.267 -1.666,-5.762c-0.218,-0.471 -0.72,-1.437 -1.138,-1.813c-0,-0 0.879,-1.926 1.088,-2.511c0.209,-0.586 -0.168,-0.461 -0.461,-1.13c-0.293,-0.67 -2.101,-4.489 -2.352,-4.87c-0.25,-0.382 -1.8,-3.112 -1.824,-3.446c-0.024,-0.334 0.644,-0.727 0.62,-1.014c-0.024,-0.286 -0.047,-2.694 0.024,-3.147c0.072,-0.453 0.084,-2.778 -0.06,-3.1c-0.143,-0.322 -0.906,-3.911 -1.001,-4.364c-0.095,-0.453 -0.179,-4.96 -0.477,-6.057c-0.298,-1.097 -1.133,-2.492 -1.037,-2.885c0.095,-0.394 0.846,-0.787 1.705,-0.561c-0,0 -0.096,-1.204 -0.012,-1.323c0.083,-0.119 1.538,-0.108 2.587,1.657c1.049,1.765 2.957,6.224 3.434,7.488c0.477,1.264 0.978,2.992 1.109,3.243c-0,-0 0.25,-0.453 0.691,-0.394c0.441,0.06 0.847,0.668 0.847,0.668c-0,0 0.214,-0.131 0.167,-0.262c-0.048,-0.131 -0.108,-2.599 -0.012,-2.802c0.095,-0.203 0.453,-0.716 0.834,-0.692c0.382,0.024 1.753,1.276 2.027,2.504c0.275,1.228 0.358,4.65 0.465,5.032c0.108,0.381 1.252,1.884 1.455,2.313c0.203,0.429 0.608,2.587 0.62,4.125c0.012,1.538 -0.656,3.661 -1.049,4.173c-0.394,0.513 -1.026,1.014 -1.026,1.24c0,0.227 0.215,0.358 0.597,0.537c0.381,0.179 0.834,0.834 1.18,0.906c0.346,0.071 0.826,0.271 1.142,0.415c0.316,0.143 0.345,0.603 0.374,0.862c0.028,0.259 1.379,3.966 1.379,3.966c-3.005,3.355 -6.56,5.324 -10.23,7.004Z" style="fill:#6b5844;"/><path d="M80.284,141.344c-0,0 -2.58,-1.418 -5.514,-4.643c-2.934,-3.224 -6.965,-8.931 -7.255,-10.028c-0.29,-1.096 -0.742,-1.547 -0.774,-3.063c-0.032,-1.515 0.871,-4.321 1.064,-5.127c0.194,-0.806 0.161,-0.806 0.161,-1.547c0,-0.742 0.323,-1.387 0.677,-2.032c0.355,-0.645 0.452,-2.16 0.194,-2.483c-0.258,-0.322 -0.548,-0.322 -0.548,-0.322c-0,-0 -0.355,1.58 -0.548,2.257c-0.194,0.677 -0.613,3.16 -0.871,3.708c-0.258,0.548 -1.322,3.902 -1.806,5.062c-0.483,1.161 -1.709,6.191 -1.838,6.61c0,0 0.71,0.839 0.935,1.355c0.226,0.516 1.355,2.257 1.709,2.741c0.355,0.483 4.353,4.739 5.514,5.836c1.161,1.096 2.87,2.16 3.805,2.74c0.935,0.581 5.095,-1.064 5.095,-1.064Zm9.254,-1.096c-0,0 0.999,-3.676 1.967,-5.094c0.967,-1.419 5.513,-7.578 7.19,-8.513c-0,0 2.128,3.45 3.418,4.063c-0,-0 2.096,-0.839 2.483,-0.742c0.387,0.097 1.354,0.71 1.193,1c-0.162,0.29 -1.226,0.967 -1.58,1.161c-0,-0 1.999,0.322 2.612,1.064c0.612,0.741 4.804,-2 4.804,-2c-0,0 -1,-2.386 -1.193,-2.773c-0.194,-0.386 -0.161,-0.419 0.161,-0.548c0.323,-0.129 0.194,-0.774 -0.032,-1.128c-0.226,-0.355 -1.225,-0.742 -1.258,-1.354c-0.032,-0.613 0.42,-1.29 0,-1.806c-0.419,-0.516 -1.322,-0.387 -1.483,-0.677c-0.161,-0.29 -0.742,-1.838 -1.128,-2.612c-0.387,-0.774 0.322,-0.645 0.096,-0.967c-0.225,-0.323 -0.612,-0.871 -0.903,-1.226c-0.29,-0.354 -0.548,0.162 -0.677,-0.032c-0.129,-0.193 -0.387,-1.58 -0.516,-1.967c-0.129,-0.387 -1.386,-1.805 -1.612,-1.999c-0.226,-0.193 -3.966,-3.869 -4.321,-4.192c0,0 0.871,1.58 0.903,2.548c0,-0 0,0.806 -0.58,-0.291c-0.58,-1.096 -3.289,-4.61 -3.644,-4.997c-0.354,-0.387 -0.612,-0.194 -0.87,0.032c-0.258,0.226 -2.354,2.192 -2.644,2.354c-0.29,0.161 0.29,1.225 0.774,1.805c0.483,0.581 2.708,3.805 3.288,4.579c0.581,0.774 2.645,3.418 2.516,3.902c-0.129,0.483 -1,1.128 -1.355,1.128c-0.354,0 -0.129,-0.322 -0.483,-0.387c-0.355,-0.064 -2.032,1.29 -2.032,1.612c0,0.323 0.323,0.42 0.355,0.774c0.032,0.355 -5.288,6.385 -6.126,8.609c-0.839,2.225 -2.58,6.32 -2.258,8.642c0.323,2.321 2.935,0.032 2.935,0.032Zm-9.238,-63.572c0,-0 -5.567,-7.938 -5.473,-8.397c0.179,-0.882 1.274,-3.724 1.6,-4.035c0.327,-0.31 2.009,-1.437 2.189,-1.437c0.18,-0 1.16,0.49 1.094,0.67c-0.065,0.179 -0.539,0.751 -1.012,2.058c-0.474,1.306 3.087,5.145 3.806,4.606c0.718,-0.539 4.393,-2.761 5.586,-3.283c1.192,-0.523 5.016,-1.846 6.045,-2.173c1.029,-0.326 1.715,-1.437 1.715,-1.437c0.588,-0.997 2.489,-1.669 2.489,-1.669c1.421,0.228 4.183,2.122 4.183,2.122c-0.865,0.294 -2.653,2.013 -3.16,2.552c-0.506,0.539 -0.228,0.801 0.147,1.16c0.376,0.359 1.862,2.385 2.32,3.087c0.457,0.702 1.976,3.561 1.992,4.1c0.017,0.539 -0.147,3.071 0.147,3.708c0.294,0.637 1.34,1.404 1.863,1.813c0.49,0.383 1.556,1.687 1.685,1.846c0.005,0.005 0.009,0.011 0.013,0.016l-0.013,-0.016c-0.281,-0.32 -1.753,-0.598 -2.862,-0.164c-1.127,0.441 -1.764,1.176 -1.764,1.176c-0.31,-1.225 -2.09,-5.847 -3.168,-8.216c-1.078,-2.368 -4.639,-6.19 -4.966,-6.386c-0.327,-0.196 -0.572,-0.131 -1.045,-0.229c-0.474,-0.098 -3.937,0.8 -4.998,1.225c-1.062,0.425 -4.541,2.401 -6.077,3.79c-1.363,1.233 -2.181,2.718 -2.336,3.513Zm-8.03,-19.121c0,-0 2.549,1.137 2.919,1.616c-0,0 -0.836,1.233 -1.069,1.343c-0.233,0.11 -2.631,-1.658 -2.685,-1.877c-0.055,-0.219 0.465,-0.904 0.835,-1.082Zm24.625,-4.152c-0.052,0.697 -0.273,1.862 -1.071,3.125c-1.29,0.49 -2.434,0.914 -2.434,0.914l-0.035,1.058l-2.98,1.798l0.159,-4.355l3.191,-1.851l0.176,0.265c0,-0 0.229,0.035 0.547,-0.124c0.156,-0.078 1.278,-0.445 2.447,-0.83Zm1.737,-0.577c0.501,-0.17 0.887,-0.307 1.034,-0.374c0.582,-0.264 2.275,-1.022 3.28,-1.816c1.005,-0.793 1.075,0.053 0.934,0.406c-0.141,0.353 -1.005,1.516 -1.199,2.01c-0.194,0.494 -2.38,1.675 -3.931,2.327c-0.311,0.131 -0.711,0.291 -1.153,0.465c0.587,-1.386 0.864,-2.087 1.035,-3.018Z" style="fill:#302f2c;"/><path d="M120.291,108.558c0,0 1.535,3.984 1.931,4.034c0.396,0.049 2.796,-1.658 3.637,-3.019c0.842,-1.361 -0.816,13.041 -0.816,13.041c-0,0 -1.955,0.916 -3.341,-1.336c-1.386,-2.252 -2.475,-4.504 -2.673,-5.89c-0.198,-1.386 -0.198,-3.316 -0.049,-3.984c0.148,-0.668 1.361,-2.425 1.311,-2.846Zm-73.362,-35.598c-0.122,-0.273 -0.232,-0.507 -0.305,-0.627c-0.258,-0.431 -0.345,-1.408 -0.373,-1.667c-0.01,-0.084 -0.019,-0.188 -0.038,-0.296c1.168,-0.287 4.048,-0.746 2.785,2.119c1.413,0.758 0.855,3.202 -0.43,6.267l-1.055,0.149c1.256,7.391 8.754,18.462 8.754,18.462c-0,0 2.203,1.489 2.42,1.675c0.217,0.187 0.217,1.459 0.031,2.079c-0.186,0.621 -0.993,1.49 -1.179,1.738c-0.186,0.248 0.031,1.055 -0.373,1.427c-0.403,0.372 -1.613,0.869 -1.613,0.869c-0,-0 -0.217,0.744 -0.558,0.962c-0.342,0.217 -0.652,0.186 -0.652,0.186c-0,-0 -0.186,1.489 0.31,2.358c0,-0 -2.513,4.126 -2.978,4.499l-0.466,4.778l-1.148,2.327l-5.802,0.993l-1.303,-1.334l-0.217,-2.234l-6.299,-18.71l-0.62,-10.58l-3.506,-8.532c-0,-0 -0.31,-1.552 0.403,-2.265c0.499,-0.499 1.743,-1.53 2.774,-2.338c0.12,0.192 0.229,0.371 0.318,0.511c0.293,0.461 0.251,0.586 0.419,1.089c0.167,0.502 0.251,1.171 0.376,1.632c0.126,0.46 0.796,3.139 0.796,3.139l5.455,-3.735c0.025,-0.265 0.053,-0.515 0.082,-0.708c0.115,-0.758 0.644,-1.586 1.563,-2.046c0.597,-0.298 1.717,-1.43 2.429,-2.187Zm20.321,0.569c-0,0 -1.436,3.198 -1.664,3.361c-0.229,0.163 -2.382,2.219 -2.627,2.725c-0.245,0.505 -0.653,1.272 -0.75,1.68c-0.098,0.408 0.032,4.062 0.114,4.633c0.081,0.571 4.682,8.271 4.682,8.271c-0,0 1.011,0.8 1.207,1.387c0.196,0.587 0.783,3.54 0.767,3.72c-0.016,0.179 -0.392,-0.033 -0.408,0.163c-0.016,0.196 -0.016,1.24 0,1.436c0.016,0.195 0.473,0.065 0.473,0.244c0,0.18 -0.326,2.268 -0.326,2.48c-0,0.212 1.142,1.615 1.289,1.729c0.146,0.114 7.341,-0.098 7.7,-0.261c0.359,-0.163 1.289,-1.289 1.713,-1.892c0.424,-0.604 1.37,-1.371 1.68,-1.501c0.31,-0.131 1.338,-0.31 1.42,-0.636c0.081,-0.327 0.261,-2.382 0.016,-2.708c-0.245,-0.327 -2.186,-0.865 -2.561,-0.865c-0,-0 1.615,-1.224 2.12,-2.137c0.506,-0.914 2.219,-9.136 1.779,-10.066c-0.441,-0.93 -0.816,-1.044 -0.93,-1.583c-0.114,-0.538 -1.012,-4.796 -1.762,-5.383c-0,-0 -0.441,-0.147 -0.587,-0.082c-0.147,0.065 -0.31,-1.191 -0.359,-1.664c-0.049,-0.473 -9.707,-4.78 -9.707,-4.78l-3.279,1.729Zm36.872,19.046c0.227,0.092 0.424,0.154 0.574,0.176c0.502,0.073 1.131,-0.173 1.6,-0.413c-0.012,-0.246 -0.036,-0.452 0.004,-0.526c0.091,-0.167 1.727,-3.166 2.016,-3.257c0.267,-0.085 1.551,1.148 1.83,1.547c-0.44,0.988 -2.254,5.082 -2.21,5.5c0.022,0.213 0.511,0.559 1.167,0.913c0.295,0.193 0.53,0.336 0.53,0.336c-0.274,1.75 -3.105,3.744 -3.866,4.247c-0.761,0.502 -3.136,1.278 -3.79,1.431c-0.655,0.152 -2.42,0.274 -2.71,0.38c-0.289,0.107 -1.781,1.583 -2.146,1.659c-0.365,0.076 -1.653,-0.624 -1.653,-0.624c0,-0 0.207,-2.04 0.313,-2.405c0.107,-0.365 1.026,-0.708 1.057,-1.104c0.03,-0.395 -0.76,-1.302 -0.699,-1.652c0.059,-0.341 0.226,-0.556 0.828,-0.922c0.245,-0.06 0.661,0.02 0.792,-0.123c0.117,-0.126 0.227,-0.493 0.445,-0.796c0.376,-0.368 0.943,-1.236 0.943,-1.236c0.48,-0.346 3.14,-1.842 4.975,-3.131Zm1.44,-42.313l-2.47,5.124c-0,0 9.46,5.466 10.249,6.018c0.788,0.552 3.847,2.051 4.914,2.681c2.64,1.557 3.941,4.599 3.338,4.257c-0,0 0.079,4.441 0.446,4.599c0.368,0.158 0.947,0.105 1.183,-1.393c0.237,-1.498 1.288,-4.52 1.367,-4.704c0.078,-0.184 -2.26,-3.626 -3.233,-4.625c-0.972,-0.999 -6.859,-7.463 -6.859,-7.463l-8.935,-4.494Z" style="fill:#605f5c;"/><path d="M44.083,97.322c0.191,-0.049 0.668,0.382 0.575,0.557c-0.145,0.274 -0.562,4.184 0.884,5.845c1.175,1.35 1.824,1.574 2.903,0.926c0,0 0.305,-0.177 0.229,0.507c-0.076,0.685 -1.002,1.306 -1.497,1.332c-0.494,0.025 -1.99,-0.558 -2.941,-2.752c-0.951,-2.194 -1.116,-4.565 -0.913,-5.326c0.202,-0.76 0.455,-1.012 0.76,-1.089Zm61.643,-2.393c-0,-0 -0.804,1.344 -2.874,2.346c-2.069,1.002 -3.506,1.463 -5.324,1.318c-0,-0 -0.514,-0.501 0.105,-0.514c0.62,-0.013 2.188,0.237 4.705,-1.292c0,0 1.925,-1.463 2.202,-1.581c0.276,-0.119 0.566,-0.409 1.186,-0.277Zm-35.815,-18.508c-1.081,-0.021 -3.122,0.089 -4.291,2.22c-1.169,2.131 -1.554,4.587 -1.51,5.712c0.045,1.125 -0.088,4.514 1.288,6.511c1.376,1.998 2.308,3.005 4.543,2.931c2.235,-0.074 3.507,-1.125 4.188,-2.25c0.681,-1.124 1.539,-4.647 1.465,-5.89c-0.074,-1.243 -0.163,-1.776 -0.518,-2.441c-0.355,-0.666 -0.858,-1.643 -0.977,-1.998c-0.118,-0.355 -0.517,-1.155 -0.636,-1.332c-0.118,-0.178 -0.251,-0.651 -0.251,-0.873c-0,-0.222 0.148,-0.503 0.103,-0.681c-0.044,-0.178 -0.251,-0.651 -0.251,-0.651c-0,-0 -0.874,-1.214 -3.153,-1.258Zm-0.532,1.347c-0.71,-0.024 -2.501,1.213 -2.945,2.131c-0.444,0.917 -1.11,4.143 -1.11,5.505c-0,1.361 0.37,4.661 1.317,5.52c0.947,0.858 2.382,1.924 3.463,1.509c1.08,-0.414 2.442,-1.554 2.693,-2.412c0,-0 -1.524,0.311 -2.486,-0.858c-0.962,-1.169 -1.421,-2.353 -1.376,-3.922c0.044,-1.569 0.962,-3.611 1.909,-4.01c0.947,-0.4 1.746,-0.311 2.012,-0.311c0,-0 -0.71,-1.229 -1.361,-1.806c-0.651,-0.577 -0.799,-1.302 -2.116,-1.346Zm46.815,-23.863c0,-0 2.813,-0.012 3.784,0.473c0.971,0.486 2.937,1.942 3.689,2.913c0.753,0.971 2.33,2.864 2.743,4.345c0.413,1.48 1.02,3.762 0.85,5.291c-0.17,1.529 -0.607,3.762 -0.947,4.442c-0.34,0.68 -1.286,1.772 -1.796,2.015c-0.51,0.242 -2.122,-0.122 -2.413,-0.413c-0,-0 0.702,-0.084 0.824,-0.473c0.121,-0.388 0.303,-1.02 0.303,-1.02c-0,0 0.436,0.279 0.97,0.134c0.534,-0.146 0.85,-0.801 1.044,-1.457c0.194,-0.655 0.461,-3.422 0.024,-4.854c-0.437,-1.432 -1.674,-4.03 -2.402,-5.073c-0.728,-1.044 -2.307,-2.646 -2.307,-2.646c0,0 -0.811,-1.152 -1.369,-1.589c-0.559,-0.437 -1.467,-1.093 -2.997,-2.088Z" style="fill:#64e1ee;"/><path d="M124.143,114.633c-0,-0 -1.958,1.975 -2.353,2.168c-0.395,0.193 -0.659,0.229 -0.738,0.343c-0.079,0.114 -0.035,0.393 0.957,2.072c0.992,1.678 1.229,1.88 1.229,1.88l2.029,-2.388c-0,0 -1.089,-1.563 -1.291,-2.248c-0.202,-0.684 -0.246,-0.816 -0.105,-1.123c0.14,-0.308 0.307,-0.627 0.272,-0.704Zm-88.234,-25.111c-0,-0 0.441,0.565 0.791,0.757c0.35,0.192 1.91,0.768 3.198,-0.441c1.288,-1.209 2.395,-2.915 2.666,-3.039c0.272,-0.125 1.379,-0.046 1.526,0.226c0.147,0.271 -0.791,4.904 -1.085,5.356c-0.294,0.451 -1.153,0.96 -1.458,1.491c-0.305,0.531 -0.644,2.904 -0.655,3.74c-0.011,0.836 -0.023,2.023 0.316,3.503c0.339,1.48 1.786,4.949 2.294,5.525c0.509,0.577 1.774,0.972 2.204,1.413c0.429,0.44 2.214,3.356 2.384,3.875c-0,0 -0.204,5.266 -0.317,5.492c-0.113,0.226 -0.745,0.508 -0.96,0.373c-0.215,-0.136 -2.61,-3.763 -2.881,-3.853c-0.272,-0.091 -1.334,0.384 -1.469,0.531c-0.136,0.147 0.7,1.943 0.779,2.034c0.079,0.09 0,1.74 -0.034,2.022c-0.034,0.283 -0.768,0.294 -0.971,0.226c-0.204,-0.067 -2.543,-4.293 -2.78,-4.802c-0.237,-0.508 -2.407,-5.74 -2.565,-6.079c-0.158,-0.339 -1.717,-4.542 -1.819,-5.186c-0.102,-0.644 -0.091,-5.492 -0.045,-5.967c0.045,-0.474 0.553,-3.706 0.519,-4.203c-0.034,-0.497 -0.158,-1.435 -0.135,-1.717c0.022,-0.283 0.214,-1.277 0.497,-1.277Zm89.542,28.58c-0,0 -0.975,-1.009 -1.062,-1.475c-0.088,-0.465 0.166,-2.212 0.202,-2.598c0.035,-0.387 0.14,-2.134 0.228,-2.397c0.088,-0.264 0.535,-1.581 0.597,-1.826c0.061,-0.246 0.562,-1.809 0.781,-2.151c0.22,-0.343 0.896,-1.238 1.3,-1.59c0.403,-0.351 0.798,-0.561 0.983,-0.798c0.184,-0.238 0.606,-1.818 0.702,-2.108c0.097,-0.289 0.299,-0.377 0.659,-0.368c0.36,0.008 1.036,-0 1.387,0.421c0.351,0.422 1.159,1.817 1.387,2.221c0.228,0.404 0.843,1.247 0.843,1.247c-2.141,4.222 -4.859,7.992 -8.007,11.422Zm-76.221,-46.342c-0,0 0.86,1.358 1.043,1.638c0.182,0.281 0.238,0.954 -0.042,1.291c-0.281,0.337 -0.491,1.473 -0.463,1.922c0.028,0.449 1.697,3.297 2.483,4.026c0.785,0.73 3.759,3.886 4.124,4.714c0.365,0.827 1.894,3.591 2.034,5.289c0.141,1.697 0.211,5.737 -0.098,6.804c-0.309,1.066 -0.771,2.258 -1.192,3.002c-0.421,0.743 -1.796,1.697 -2.301,2.483c-0.505,0.785 -1.417,2.665 -1.74,3.114c-0.322,0.449 -0.701,1.052 -1.613,0.982c-0.912,-0.07 -1.543,0.281 -2.02,-1.711c-0.477,-1.992 -1.15,-2.455 -1.529,-3.241c-0.379,-0.786 -2.062,-3.956 -2.245,-4.279c-0.182,-0.322 -0.617,-0.743 -1.319,-0.968c-0.701,-0.224 -0.729,0.014 -1.15,-0.954c-0.421,-0.968 -0.659,-1.753 -0.154,-2.272c0.505,-0.519 0.519,-0.59 0.547,-1.319c0.028,-0.73 0.673,-3.634 0.715,-4.756c0.042,-1.122 0.155,-1.627 -0.224,-2.595c-0.379,-0.968 -0.758,-1.501 -0.772,-2.076c-0.014,-0.576 0.646,-2.778 0.8,-3.536c0.154,-0.757 0.393,-2.483 0.617,-2.819c0.225,-0.337 1.319,-1.025 1.936,-1.642c0.617,-0.617 2.577,-2.397 2.563,-3.097Zm86.592,32.098c0,-0 -2.399,-4.068 -2.451,-4.402c-0.052,-0.334 0.031,-4.152 0.156,-4.35c0.125,-0.198 3.265,-1.377 3.443,-1.387c0.177,-0.011 1.523,0.698 1.773,1.418c0.25,0.72 -2.921,8.721 -2.921,8.721Zm-57.62,-10.135c-0.099,-0.157 4.035,-6.523 4.234,-6.55c0.2,-0.027 4.207,-0.386 6.87,-1.398c2.663,-1.012 6.511,-2.756 8.348,-4.899c-0,-0 1.038,-1.039 1.318,-1.052c0.279,-0.014 2.077,1.877 2.037,2.223c-0.04,0.346 -1.265,1.651 -1.451,1.691c-0.187,0.04 -0.067,0.879 -0.36,1.038c-0.293,0.16 -0.586,0.4 -0.692,0.64c-0.107,0.239 -0.133,1.97 -0.266,2.622c-0.134,0.653 -0.56,1.944 -1.239,2.264c-0.679,0.319 -5.059,1.597 -6.417,1.85c-1.358,0.253 -2.756,1.398 -3.634,1.984c-0.879,0.586 -2.184,1.505 -2.557,1.598c-0.372,0.093 -5.338,-0.666 -6.191,-2.011Zm-15.845,-8.061c0.136,0.025 0.142,0.746 0.343,0.958c0.201,0.213 1.419,1.172 1.478,1.373c0.06,0.201 0.793,2.602 1.03,3.111c0.236,0.508 1.928,3.004 2.105,3.146c0.178,0.142 0.083,1.053 -0.083,1.029c-0.165,-0.023 -1.644,-1.384 -1.904,-1.762c-0.26,-0.379 -2.33,-3.987 -2.543,-4.448c-0.213,-0.461 -0.864,-2.259 -0.899,-2.508c-0.036,-0.248 0.082,-0.97 0.473,-0.899Zm-29.963,-7.529c-0,-0 -0.064,0.708 0.637,0.736c0.702,0.028 2.876,-0.434 3.507,-0.687c0.632,-0.253 3.802,-1.992 4.476,-1.922c0.673,0.07 1.024,1.038 1.36,1.796c0.337,0.757 0.169,1.823 -0.266,2.441c-0.435,0.617 -0.645,0.701 -0.659,0.94c-0.015,0.238 -0.029,3.1 -0.113,3.268c-0.084,0.169 -2.357,2.273 -3.605,2.175c-0,-0 -0.842,-1.81 -1.094,-1.922c-0.253,-0.112 -1.978,0.224 -2.217,-0.056c-0.238,-0.281 -2.16,-4.223 -2.357,-4.672c-0.196,-0.449 -0.503,-1.207 0.331,-2.097Zm33.318,-1.487c0,-0 0.17,-2.091 0.792,-2.939c0.299,-0.408 2.147,-2.346 2.599,-2.586c0.452,-0.24 3.73,-2.261 4.578,-2.713c0.848,-0.452 5.511,-2.783 6.641,-2.713c1.13,0.071 3.349,1.046 3.391,1.639c0.042,0.594 -0.551,0.891 -0.82,1.484c-0.268,0.593 -1.441,3.956 -1.497,4.663c-0.057,0.706 -0.198,2.529 -0.438,2.924c-0.24,0.396 -1.258,0.848 -1.682,1.06c-0.423,0.212 -0.847,0.707 -1.088,0.65c-0.24,-0.056 -1.554,-0.48 -2.133,-0.791c-0.579,-0.311 -1.484,-1.06 -1.823,-1.625c-0.339,-0.565 -2.02,-2.261 -2.981,-2.444c-0.961,-0.184 -2.882,-0.241 -3.589,0.593c-0.706,0.834 -1.201,2.6 -1.95,2.798Zm38.344,-26.204c-0.156,-0.051 -0.338,-0.381 -0.103,-0.615c0.234,-0.235 0.498,-0.352 0.498,-0.352l3.835,-0c-0,-0 10.291,5.114 11.214,6.653c0.923,1.539 2.127,4.924 2.347,7.255c0.22,2.33 0.073,8.485 -0.029,9.1c-0,0 -0.469,-0.058 -0.572,-1.641c-0.103,-1.583 -0.293,-3.796 -0.557,-4.235c-0.264,-0.44 -2.726,-2.653 -2.828,-2.873c-0.103,-0.219 -0.103,-0.425 -0.264,-0.571c-0.161,-0.147 -0.484,-0.235 -0.557,-0.396c-0.073,-0.161 -0.264,-4.851 -0.396,-5.085c-0.132,-0.235 -1.084,-0.63 -1.436,-0.806c-0.352,-0.176 -9.321,-5.833 -11.152,-6.434Zm-0.909,13.673c-0,0 -4.939,-2.374 -5.085,-2.52c-0.147,-0.147 -0.294,-0.821 0.073,-0.806c-0,-0 -0.41,-1.524 0.41,-1.803c0.821,-0.278 0.88,-0.469 1.129,-0.733c0.249,-0.263 1.231,-1.758 1.612,-2.169c0.381,-0.41 3.195,-2.037 3.414,-2.125c0.22,-0.088 0.381,-0.234 0.66,-0.131c0.278,0.102 5.657,2.872 5.964,3.18c0.308,0.307 0.176,0.645 -0.014,0.982c-0.191,0.337 -0.909,1.729 -0.953,1.963c-0.044,0.235 -0.557,0.997 -0.952,1.246c-0.396,0.249 -2.462,1.466 -2.741,1.583c-0.278,0.117 -0.19,0.132 -0.19,0.132c-0,-0 0.146,0.967 -0.235,1.157c-0.381,0.191 -1.187,0.074 -1.392,0c-0.205,-0.073 -1.26,-0.044 -1.7,0.044Z" style="fill:#f1f1f3;"/><path d="M34.842,85.289l1.737,-0.036l1.249,1.936l-0.055,0.615l-1.248,1.104l-0.76,0.127l-1.014,-2.154l0.091,-1.592Zm69.398,-34.65l0.719,-0.422l10.441,4.844l0.281,1.175l-2.51,4.212c0,-0 -0.491,1.263 -1.702,0.403c-1.21,-0.86 -0.666,-1.526 -0.666,-1.526l1.947,-3.721l-7.212,-3.421l-1.112,1.966c0,-0 -1.877,0.965 -2.369,1.404l-0.544,0.035l0.492,-1l2.235,-3.949Z" style="fill:#f78d00;"/><path d="M81.024,39.01c0,0 0.602,1.569 1.281,1.386c0.68,-0.183 10.223,-5.882 10.902,-5.909c1.649,-0.064 4.86,3.742 3.738,3.817c0,0 -0.366,3.765 -0.941,4.523c-0.575,0.758 -4,4.941 -5.725,4.523c-1.725,-0.419 -7.294,-4.288 -7.712,-4.288c-0.418,0 -3.085,3.817 -3.085,3.817c0,0 -2.614,-2.64 -2.98,-4.967c-0.366,-2.327 4.522,-2.902 4.522,-2.902Z" style="fill:#e27200;"/><path d="M78.985,46.461c0,-0 0.654,1.15 0.968,1.072c-0,-0 0.287,-0.419 0.653,-1.151c0.366,-0.732 1.098,-2.875 1.673,-2.823c0.575,0.052 3.608,2.431 4.288,3.163c0.679,0.732 2.353,1.726 3.607,1.333c1.255,-0.392 3.739,-1.882 4.131,-2.326c0.392,-0.445 -0.183,-0.758 -1.15,-0.209c-0.968,0.549 -1.935,1.15 -2.928,0.967c-0.994,-0.183 -3.007,-1.36 -4.471,-2.275c-1.464,-0.914 -2.274,-1.568 -2.902,-1.594c-0.627,-0.026 -0.993,0.444 -1.699,1.228c-0.706,0.785 -1.908,2.379 -2.17,2.615Zm2.824,-7.634c-0,0 0.575,0.863 1.019,0.758c0.445,-0.104 8.575,-5.725 9.882,-6.013c1.307,-0.287 3.948,3.294 3.948,3.294l-0.706,0.68c-0,0 -0.575,-1.542 -2.144,-1.908c-1.568,-0.366 -1.934,-0.105 -2.771,0.34c-0.837,0.444 -3.581,2.352 -5.098,3.241c-1.516,0.889 -2.954,1.804 -3.607,1.7c-0.654,-0.105 -1.36,-0.497 -1.804,-1.203c-0.445,-0.706 1.281,-0.889 1.281,-0.889Z" style="fill:#c4c4c4;"/><path d="M106.487,36.919c0.139,0.415 -1.098,3.634 -1.385,3.738c-0.288,0.105 -0.889,-0.052 -1.02,-0.287c-0.13,-0.236 -0.235,-1.308 -0.679,-1.464c-0.445,-0.157 -1.778,0.209 -2.196,0.444c-0.419,0.235 -1.7,0.549 -1.778,0.915c-0.079,0.366 -0.889,3.895 -2.248,4.862l-0.131,-1.333c-0,0 -1.464,1.935 -2.092,2.144c-0.627,0.209 -1.96,-0.837 -1.62,-1.49c0.339,-0.654 2.535,-2.222 2.509,-2.954c-0.026,-0.732 0.236,-2.353 -0.732,-2.928c0,-0 2.493,-2.585 2.598,-2.846c0.749,-1.873 7.427,-2.844 8.774,1.199Z" style="fill:#373634;"/><path d="M77.844,45.06c0,0 0.218,3.273 1.129,4.754c-0,0 -2.776,-3.853 -3.066,-5.551c0,-0 -0.89,4.246 -0.631,5.986c-0,0 -3.014,-5.58 -1.163,-14.136c-0,-0 -5.981,3.71 -9.093,4.015c-0,0 3.356,-1.668 7.018,-6.265c-0,-0 3.356,-4.069 4.129,-4.659c0,0 -4.78,0.326 -7.486,-0.549c-2.705,-0.875 -4.455,-2.217 -4.841,-2.217c-0,-0 4.658,0.101 6.937,-0.773c2.278,-0.875 8.177,-3.092 9.337,-3.133c-0,-0 -2.787,-1.752 -3.418,-7.608c0,-0 3.418,4.905 7.975,5.108c-0,-0 -3.011,-6.308 -2.767,-10.924c0.244,-4.616 7.71,5.535 9.622,5.982c1.912,0.448 2.97,2.706 3.377,3.723c0,0 0.529,0.59 0.529,0.203c-0,-0.386 0.224,-5.207 0.447,-5.899c0,0 1.933,6.083 2.625,6.652c0.691,0.57 0.752,0.326 0.752,0.326c0,-0 -0.061,0.101 0.163,0.366c0.224,0.264 1.851,1.993 1.994,2.298c0.142,0.306 0.264,0.814 0.264,0.814c0,0 1.628,-1.526 2.217,-2.36c0,0 0,2.747 -0.467,3.56c-0,0 4.292,2.97 4.638,3.743c0.345,0.773 1.119,5.167 0.895,6.286c-0,0 -0.997,-1.912 -1.648,-2.644c-0,-0 -0.142,0.366 -0,0.773c0.142,0.407 0.285,3.031 0.02,3.255c-0.264,0.223 -0.345,0.244 -0.59,0.529c0,-0 -0.142,-0.184 -1.647,-0.468c-1.506,-0.285 -3.321,-0.495 -3.321,-0.495c0,0 0.063,-0.474 -0.222,-0.474c-0.285,0 -0.756,-0.019 -0.959,-0.019c-0.204,0 -0.157,0.296 -0.157,0.296c0,-0 -1.342,-0.102 -1.587,-0.081c-0.244,0.02 -0.183,0.162 -0.183,0.162c0,0 1.892,4.618 2.442,5.045c-0,0 -7.487,-5.106 -9.358,-8.015c-0,0 -1.16,0.956 -1.566,0.936c-0.407,-0.02 -0.468,-0.671 -0.468,-0.671c-0,-0 -7.344,6.692 -12.959,9.724c0,-0 0.689,1.78 1.087,2.405Z" style="fill:#2a2524;"/></g></g></svg>