<?xml version="1.0" encoding="UTF-8" standalone="no"?><!DOCTYPE svg PUBLIC "-//W3C//DTD SVG 1.1//EN" "http://www.w3.org/Graphics/SVG/1.1/DTD/svg11.dtd"><svg width="100%" height="100%" viewBox="0 0 150 150" version="1.1" xmlns="http://www.w3.org/2000/svg" xmlns:xlink="http://www.w3.org/1999/xlink" xml:space="preserve" xmlns:serif="http://www.serif.com/" style="fill-rule:evenodd;clip-rule:evenodd;stroke-linejoin:round;stroke-miterlimit:2;"><path id="base" d="M150,75c0,-41.394 -33.606,-75 -75,-75c-41.394,0 -75,33.606 -75,75c0,41.394 33.606,75 75,75c41.394,0 75,-33.606 75,-75Z" style="fill:#2c2c2c;"/><path id="outline" d="M144,75c0,-38.082 -30.918,-69 -69,-69c-38.082,0 -69,30.918 -69,69c0,38.082 30.918,69 69,69c38.082,0 69,-30.918 69,-69Z" style="fill:#78387b;"/><path id="core" d="M141,75c0,-36.426 -29.574,-66 -66,-66c-36.426,0 -66,29.574 -66,66c0,36.426 29.574,66 66,66c36.426,0 66,-29.574 66,-66Z" style="fill:#d8d8d8;"/><clipPath id="_clip1"><path d="M141,75c0,-36.426 -29.574,-66 -66,-66c-36.426,0 -66,29.574 -66,66c0,36.426 29.574,66 66,66c36.426,0 66,-29.574 66,-66Z"/></clipPath><g clip-path="url(#_clip1)"><g id="trecbuchet"><path d="M49.021,116.371l30.177,-0.084l3.093,1.589l5.1,-1.589l0.25,-3.761l-8.359,-3.929l1.923,-0.502l0.25,-3.009l-0.668,-1.923l3.511,2.842l1.922,-0.167l1.003,-1.505l11.871,5.685l3.176,-1.505l-0.083,-3.344l-1.338,-0.585l0.753,-16.134l12.539,-6.436l0.251,-1.338l20.815,-9.613l0.418,-3.762l-0.502,-5.684l-4.598,-5.1l-0.585,-3.929l-10.449,-3.343l-19.812,-5.35l-15.716,-4.682l-1.003,0.502l-5.684,-1.588l-0.669,-3.093l-2.006,-1.254l-3.762,1.421l-0.753,1.003l-1.504,-1.505l-3.595,-0.167l-1.839,-0.585l0,-3.678l-1.003,-1.589l-2.591,-1.839l-2.592,0.669l-0.585,2.09l-1.923,1.337l-6.854,2.926l-0,-2.34l-2.592,-2.09l-4.012,2.257l0.083,11.536l2.675,0.418l4.263,-2.09l0.168,-2.341l1.588,0.669l0.418,4.849l-9.195,7.439l-0.084,6.354l7.858,4.765l-3.846,21.901l-3.176,0.502l-0.92,2.591l-3.009,-0.836l-2.759,-1.003l-3.343,0.251l-1.004,1.839l-1.922,0.669l-0.251,2.424l2.006,1.421l-0.418,13.208l-2.508,1.923l3.093,3.511l3.511,-2.174l1.421,0l2.09,-1.086l7.273,2.842l-0.501,1.421l-2.676,2.591l4.347,3.261l2.843,-2.174Zm12.79,-5.016l1.839,-0.919l1.337,-0.418l1.672,1.672l-4.848,-0.335Zm33.521,-17.304l0.669,8.109l-2.592,-1.756l0.418,-4.681l1.505,-1.672Zm-14.88,-5.266l-2.758,1.672l0.668,1.922l-0.501,0.836l6.437,0.168l-1.004,-3.01l-2.842,-1.588Zm-29.174,-0.251l4.179,2.926l-0.167,1.17l-7.022,-1.17l0.836,-1.756l2.174,-1.17Zm17.722,-2.926l-1.421,1.338l-2.257,0.334l-0.335,-1.254l4.013,-0.418Zm-13.041,-21.902l-0,15.131l-4.514,0.084l2.341,-14.379l2.173,-0.836Zm12.957,7.357l1.588,7.774l-3.26,-0.167l1.672,-7.607Zm8.276,-17.555l4.43,21.902l-4.43,2.09l-0,-23.992Zm36.28,-3.009l-1.337,2.173l0.083,1.505l-0.501,0.501l-2.759,-1.588l-1.756,0.836l0.168,2.341l-3.929,2.591l0.083,1.254l-4.514,2.675l-2.591,4.932l-9.781,4.598l-7.607,-28.088l4.263,1.672l13.961,2.257l16.217,2.341Zm-47.482,8.693l-2.006,1.338l-1.505,1.17l0.418,9.53l3.093,-12.038Zm51.996,-7.105l1.254,0.836l0.585,5.517l6.103,2.006l1.421,-1.672l-0.167,-3.845l-4.264,-2.341l-4.932,-0.501Z" style="fill:#704b34;"/><path d="M113.931,58.348l3.423,0.767l-2.007,4.368l0.236,1.417l2.302,0.413l2.893,2.125l-0.327,-0.241l-3.451,-1.117l-1.417,1.83l0.355,2.479l1.357,0.945l-0.413,0.472l-3.66,-2.302l-0.295,-2.302l1.653,-1.594l-0.177,-1.83l-1.299,-1.003l-1.652,0.708l-1.24,0.413l-1.535,1.417l-0.472,1.712l-1.712,-0.709c0,0 -1.18,-0.649 -0.885,-1.357c0.295,-0.709 1.121,-2.184 1.121,-2.184l1.299,-1.417l1.417,-0l1.239,0.354l0.886,-0.472l2.361,-2.892Zm13.458,-1.948l2.715,0.177l4.545,4.073l0.177,3.305l-1.712,-0.531l-2.125,-1.948l-1.652,1.712l-2.243,-1.653l0.295,-5.135Zm-13.875,-5.893l0.459,-2.791l-30.017,-8.536l-0.992,0.501l0.335,6.257l13.956,2.22l16.259,2.349Z" style="fill:#fbfbef;"/><path d="M63.549,68.677l2.775,1.594l2.727,0.474l-4.026,17.883l-2.597,1.535l-3.483,-3.187l4.604,-18.299Zm33.055,13.695l2.893,2.125l1.298,5.666l13.695,-7.969l0.236,-5.43l-2.302,-1.476l-2.893,0.295l-12.927,6.789Zm-48.166,-18.948l5.725,1.062l-2.833,16.764l-2.538,0.944l-3.129,-1.593l2.775,-17.177Zm47.694,4.309l4.427,2.125l-0.177,3.719l-11.51,6.315l-0.886,-3.659l-1.18,-3.896l9.326,-4.604Zm-17.236,-5.195l2.538,0.296l2.303,-2.007l4.346,15.805l-2.34,2.257l-3.246,0.059l-3.601,-16.41Zm-9.845,8.207l1.581,0.057l-0.177,-9.503l-1.404,9.446Z" style="fill:#ed6de1;"/></g></g></svg>