<?xml version="1.0" encoding="UTF-8" standalone="no"?><!DOCTYPE svg PUBLIC "-//W3C//DTD SVG 1.1//EN" "http://www.w3.org/Graphics/SVG/1.1/DTD/svg11.dtd"><svg width="100%" height="100%" viewBox="0 0 150 150" version="1.1" xmlns="http://www.w3.org/2000/svg" xmlns:xlink="http://www.w3.org/1999/xlink" xml:space="preserve" xmlns:serif="http://www.serif.com/" style="fill-rule:evenodd;clip-rule:evenodd;stroke-linejoin:round;stroke-miterlimit:2;"><path id="base" d="M150,75c0,-41.394 -33.606,-75 -75,-75c-41.394,0 -75,33.606 -75,75c0,41.394 33.606,75 75,75c41.394,0 75,-33.606 75,-75Z" style="fill:#181a1f;"/><path id="outline" d="M144,75c0,-38.082 -30.918,-69 -69,-69c-38.082,0 -69,30.918 -69,69c0,38.082 30.918,69 69,69c38.082,0 69,-30.918 69,-69Z" style="fill:#9da5b4;"/><path id="core" d="M141,75c0,-36.426 -29.574,-66 -66,-66c-36.426,0 -66,29.574 -66,66c0,36.426 29.574,66 66,66c36.426,0 66,-29.574 66,-66Z" style="fill:#2c323c;"/><clipPath id="_clip1"><path d="M141,75c0,-36.426 -29.574,-66 -66,-66c-36.426,0 -66,29.574 -66,66c0,36.426 29.574,66 66,66c36.426,0 66,-29.574 66,-66Z"/></clipPath><g clip-path="url(#_clip1)"><g id="carrot"><path d="M80.847,41.538l-1.26,0.06l0.12,-4.681l-0.481,-3.241c0,-0 -1.32,-0.24 -2.82,-0.9c-1.501,-0.661 -3.481,-0.661 -6.362,-3.121c-2.881,-2.461 -2.881,-2.521 -3.721,-3.721c-0.841,-1.201 -1.141,-0.301 -1.141,-2.161c0,-1.861 0.6,-3.601 1.381,-5.102c0.78,-1.5 1.92,-1.62 1.14,-3.361c-0.78,-1.74 -1.5,-2.64 -1.08,-4.321c0.42,-1.68 -0.12,-3.781 1.26,-3.421c1.38,0.36 3.481,0.66 4.261,0.24c0.781,-0.42 1.261,-0.54 0.661,-2.04c-0.601,-1.501 -0.301,-1.381 -1.261,-2.581c-0.96,-1.201 -1.68,-2.281 -1.68,-2.281l0.24,-7.742l27.008,3.601l-1.381,4.141c0,0 1.201,1.38 1.861,2.041c0.66,0.66 0.96,0.9 1.62,1.14c0.661,0.24 1.141,0.3 1.741,-0.3c0.6,-0.6 0.78,-1.561 1.921,-0.9c1.14,0.66 1.44,0.06 1.98,1.2c0.54,1.14 -0.06,1.921 1.14,1.32c1.201,-0.6 1.741,-0.84 1.741,-0.84c-0,0 1.44,0.24 0.24,1.501c-1.2,1.26 -2.521,1.8 -4.681,1.98c-2.161,0.18 -4.022,0.84 -4.682,1.561c-0.66,0.72 -0.84,1.02 -0.36,1.5c0.48,0.48 1.921,1.621 3.061,1.561c1.14,-0.06 3.061,-1.441 5.282,-0.481c2.22,0.961 5.041,-0.24 5.041,-0.24c0,0 -3.961,2.281 -5.281,2.941c-1.321,0.66 -2.761,1.981 -3.662,2.941c-0.9,0.96 -4.081,3.061 -4.681,3.361c-0.6,0.3 -4.141,2.761 -5.462,3.661c-1.32,0.901 -1.74,1.801 -2.82,2.821c-1.081,1.02 -2.401,1.14 -3.121,2.881c-0.721,1.74 -2.161,2.941 -2.641,3.961c-0.48,1.02 -0.78,0.06 -0.36,1.741c0.42,1.68 0.12,2.941 -0,3.541c-0.12,0.6 -0.06,1.5 -0.06,1.5l-2.701,0.24Z" style="fill:#7ca421;"/><path d="M42,121c0,0 -2.306,2.107 -3,1c-0.694,-1.107 0.033,-2.568 1,-4c0.967,-1.432 2.15,-3.963 3,-4c0.85,-0.037 2,-2 2,-2c0,0 -2.688,2.033 -3,1c-0.312,-1.033 -0.571,-2.638 1,-3c1.571,-0.362 3.158,-0.807 4,-1c0.842,-0.193 1.883,0.466 2,-1c0.117,-1.466 0.83,-2.32 1,-4c0.17,-1.68 1,-6 1,-6c0,0 3.175,-3.956 4,-6c0.825,-2.044 1.571,-5.359 3,-7c1.429,-1.641 2.524,-2.815 4,-5c1.476,-2.185 1.696,-2.71 3,-4c1.304,-1.29 0.645,-1.102 2,-2c1.355,-0.898 2,-2 2,-2c0,0 -0.741,-3.225 0,-4c0.741,-0.775 1.984,-2.065 2,-3c0.016,-0.935 -1,-5 -1,-5c0,0 -0.914,-1.8 -1.002,-4.162c-0.073,-1.953 0.431,-4.989 0.558,-6.448c0.17,-1.941 0.803,-3.928 1.499,-4.944c0.782,-1.14 1.438,-2.168 2.945,-2.446c1.507,-0.278 4.114,-0.885 5.721,-1.257c1.441,-0.334 5.517,1.095 6.279,2.257c0.762,1.162 3.464,6.356 3,8c-0.464,1.644 -1.263,4.978 -2,6c-0.737,1.022 -0.764,3.097 -1,4c-0.236,0.903 1.072,2.048 1,3c-0.072,0.952 1.129,3.725 0.834,5.61c-0.179,1.136 -1.15,3.625 -0.834,4.39c0.316,0.765 1.466,2.296 2,3c0.534,0.704 10.267,13.994 11,15c0.733,1.006 6.84,10.52 8,12c1.16,1.48 3.901,6.2 4,7c0.099,0.8 4,5 4,5l2,2l0,1c0,0 0.634,4.111 0,4c-0.634,-0.111 -0.201,2.563 -1,3c-0.799,0.437 -2.706,0.339 -3,0c-0.294,-0.339 -2.047,-7.84 -3,-7c-0.953,0.84 -0.941,2.329 -2,2c-1.059,-0.329 -1.55,-0.456 -1,-2c0.55,-1.544 1.616,-4.796 1,-5c-0.616,-0.204 -2.501,-2.026 -3,-3c-0.499,-0.974 -2.848,-3.431 -5,-5.168c-1.895,-1.53 -3.357,-3.606 -5,-5.832c-1.643,-2.226 -3,-4 -3,-4c0,0 -2.76,-3.901 -4,-5c-1.24,-1.099 -3,-3 -3,-3c0,0 -0.322,2.998 -1,5c-0.678,2.002 -1.548,12.197 -2,15c-0.452,2.803 -1,6 -1,6c0,0 2.014,2.604 3,4c0.986,1.396 1.517,3.452 2.388,5.224c0.871,1.772 2.021,5.017 1.612,6.776c-0.409,1.759 -1.148,6.871 -1,9c0.148,2.129 -1,7 -1,7l-13,-1c0,0 -1.4,-2.965 -1,-4c0.4,-1.035 0,-4 0,-4c0,0 -0.626,1.534 -1.554,1.501c-0.929,-0.033 -1.446,-2.501 -1.446,-2.501c0,0 -0.632,0.086 -1,1c-0.368,0.914 -0.745,3.815 -1,4c-0.255,0.185 -1,6 -1,6l-12,-5l0,-6c0,0 0.787,-6.382 1,-8c0.213,-1.618 1.03,-3.739 1.778,-5.166c0.93,-1.775 0.562,-1.841 3.111,-4.39c2,-2 5.702,-4.526 6.501,-6.056c0.328,-0.629 0.587,-14.166 0.61,-15.388c0.023,-1.222 0,-5 0,-5c0,0 -6.15,5.62 -7,7c-0.85,1.38 -4.719,7.14 -6,9c-1.281,1.86 -2.723,2.928 -3,5c-0.277,2.072 -1.113,2.099 -1,3c0.113,0.901 1.832,2.438 1,3c-0.832,0.562 -1.394,1.604 -2,1c-0.606,-0.604 0.103,-0.833 -1,1c-1.103,1.833 -1.4,1.889 -2,2c-0.6,0.111 -0.68,-0.503 -1,-1c-0.32,-0.497 -1,0 -1,0c0,0 -1.519,1.499 -2,1c-0.481,-0.499 -1,-2 -1,-2Z" style="fill:#ff850f;"/></g></g></svg>