<?xml version="1.0" encoding="UTF-8" standalone="no"?><!DOCTYPE svg PUBLIC "-//W3C//DTD SVG 1.1//EN" "http://www.w3.org/Graphics/SVG/1.1/DTD/svg11.dtd"><svg width="100%" height="100%" viewBox="0 0 150 150" version="1.1" xmlns="http://www.w3.org/2000/svg" xmlns:xlink="http://www.w3.org/1999/xlink" xml:space="preserve" xmlns:serif="http://www.serif.com/" style="fill-rule:evenodd;clip-rule:evenodd;stroke-linecap:round;stroke-linejoin:round;stroke-miterlimit:1.5;"><path id="base" d="M150,75c0,-41.394 -33.606,-75 -75,-75c-41.394,0 -75,33.606 -75,75c0,41.394 33.606,75 75,75c41.394,0 75,-33.606 75,-75Z" style="fill:#181a1f;"/><path id="outline" d="M144,75c0,-38.082 -30.918,-69 -69,-69c-38.082,0 -69,30.918 -69,69c0,38.082 30.918,69 69,69c38.082,0 69,-30.918 69,-69Z" style="fill:#9da5b4;"/><path id="core" d="M141,75c0,-36.426 -29.574,-66 -66,-66c-36.426,0 -66,29.574 -66,66c0,36.426 29.574,66 66,66c36.426,0 66,-29.574 66,-66Z" style="fill:#2c323c;"/><clipPath id="_clip1"><path d="M141,75c0,-36.426 -29.574,-66 -66,-66c-36.426,0 -66,29.574 -66,66c0,36.426 29.574,66 66,66c36.426,0 66,-29.574 66,-66Z"/></clipPath><g clip-path="url(#_clip1)"><g id="chris"><path d="M21.67,84.569c-0.957,0.016 -5.24,4.255 -5.419,5.24c-0.179,0.985 -0.268,4.523 0.448,4.791c0.717,0.269 16.607,6.32 16.607,6.32c0.673,0.112 1.643,-7.179 1.105,-7.672c-0.385,-0.352 -10.054,-8.723 -12.741,-8.679Z" style="fill:#a9a5b4;"/><path d="M29.954,101.272l4.344,4.21c0,0 19.569,1.254 23.241,-1.209c3.672,-2.463 4.881,-6.896 4.881,-6.896l0.134,-15.226c0,0 -5.732,-5.239 -7.12,-2.06c-1.388,3.18 -2.911,10.255 -3.179,13.3c0,0 -0.224,0.672 -0.896,0.851c-0.672,0.179 -16.658,4.12 -18.136,5.06c-1.478,0.941 -3.269,1.97 -3.269,1.97Z" style="fill:#edaea7;"/><path d="M35.507,102.482c-0.283,2.519 -2.821,3.224 -4.523,3.089c-1.702,-0.134 -5.821,-3.089 -7.12,-3.672c-1.299,-0.582 -5.418,-3.448 -6.404,-4.209c-0.985,-0.761 -3.582,-2.955 -3.851,-4.075c-0.268,-1.119 -0.403,-2.284 0.09,-2.508c0.492,-0.224 1.564,0.417 2.034,0.932c0.47,0.515 1.073,2.246 3.295,2.919c0.479,0.146 1.836,0.583 1.836,0.583l0.671,-2.329c0,0 0.851,-1.881 1.209,-2.239c0.359,-0.358 1.03,-1.119 1.657,-1.209c0.627,-0.09 1.568,0.537 1.433,0.94c-0.134,0.403 -0.403,1.568 -0.403,1.568l0.09,1.298c0,0 0.268,-0.224 0.895,-0.492c0.627,-0.269 1.165,-0.941 1.613,-1.165c0.447,-0.224 1.432,-0.492 1.432,-0.492c0,0 0.986,0.627 0.896,1.164c-0.089,0.537 -0.089,0.985 -0.089,0.985c0,0 0.537,-0.268 1.029,-0.448c0.493,-0.179 0.896,-0.358 0.851,0.403c-0.044,0.762 0,1.075 -0.313,1.926c-0.314,0.851 -0.538,0.985 -0.582,1.97c-0.045,0.986 2.821,0.672 2.821,0.672c0,0 1.881,0.403 1.433,4.389Z" style="fill:#463940;"/><path d="M54.62,81.996c0,0 3.285,1.231 4.174,1.642c0.89,0.411 3.285,8.897 3.285,8.897l3.08,6.501l0.137,11.84l-0.274,7.391c0,0 -0.274,3.969 -0.616,6.022c-0.342,2.054 -0.753,3.901 -0.89,4.996c-0.136,1.095 -0.958,2.122 -0.616,3.354c0.343,1.232 0.685,2.121 0.548,2.874c-0.137,0.753 -1.3,2.258 -1.3,2.258c0,0 -0.268,3.748 -1.637,4.5c-1.369,0.753 41.398,5.561 41.398,5.561l6.228,-8.281l2.738,-5.475l0.273,-12.798l2.122,-14.645l4.927,-11.292c0,0 0.958,-13.277 0.822,-14.646c-0.137,-1.368 -1.369,-6.227 -2.327,-8.281c-0.958,-2.053 -5.133,-9.718 -6.296,-10.813c-1.164,-1.095 -3.08,-3.558 -4.723,-4.516c-1.642,-0.958 -3.627,-1.78 -4.995,-1.985c-1.369,-0.205 -2.327,-0.548 -3.696,-1.506c-1.369,-0.958 -1.3,0.137 -2.943,-0.958c-1.642,-1.095 -4.38,1.095 -4.38,1.095l-9.17,7.391c0,0 -13.482,0.685 -14.372,0.753c-0.89,0.069 -3.49,0.274 -4.448,0.411c-0.958,0.137 -1.711,-0.274 -2.259,0.89c-0.547,1.163 -2.737,8.759 -3.285,10.47c-0.547,1.711 -1.711,5.475 -1.505,8.35Z" style="fill:#5e4e4f;"/><path d="M58.041,41.96l2.67,12.182l23.788,2.903l5.936,-7.076c0,0 -4.334,-4.998 -4.814,-5.75c-0.479,-0.753 -4.722,-9.787 -4.722,-9.787l-22.858,7.528Z" style="fill:#b38373;"/><path d="M90.07,49.42c0,0 -0.274,0.342 -2.122,1.848c-1.847,1.505 -1.368,0.958 -2.327,1.984c-0.958,1.027 -1.574,1.232 -3.216,2.601c-1.643,1.369 -4.106,3.011 -7.117,3.764c-3.012,0.753 -4.312,0.889 -6.228,1.163c-1.916,0.274 -5.886,0.616 -7.049,1.027c-1.164,0.41 -2.395,1.026 -2.395,1.026l0.068,3.08c0,0 0.068,2.737 -0.068,4.175c-0.137,1.437 -0.411,7.049 -0.069,8.417c0.342,1.369 -0.137,5.954 0,7.118c0.137,1.163 0.069,4.38 0.069,5.406c0,1.027 0.068,2.532 0.136,3.217c0.069,0.684 0.343,2.6 0.548,4.517c0.205,1.916 0,2.669 0,2.669c0,0 0.411,0.889 0.411,1.505c0,0.616 -0.822,1.164 -0.959,2.601c-0.136,1.437 -0.41,2.121 -0.068,3.285c0.342,1.163 0.684,2.806 1.163,3.49c0.479,0.684 1.164,1.163 1.506,1.916c0.342,0.753 0.547,1.301 0.205,1.848c-0.342,0.548 -0.41,2.395 -0.41,2.395l1.163,1.027c0,0 1.095,0.547 1.437,-0.89c0.342,-1.437 1.232,-3.285 1.574,-5.064c0.343,-1.779 0.411,-2.806 0.616,-4.038c0.206,-1.232 -0.205,-2.464 1.232,-3.011c1.437,-0.548 2.669,-0.274 4.722,0.411c2.053,0.684 4.449,0.958 4.449,0.958c0,0 1.3,1.231 1.574,2.669c0.273,1.437 0.273,3.558 1.026,4.516c0.753,0.959 3.08,2.327 3.354,3.833c0.273,1.506 2.395,3.148 2.395,3.148c0,0 0.411,0.274 2.258,-1.095c1.848,-1.369 3.217,-2.122 3.217,-2.122l2.395,-3.079c0,0 0.753,0.205 1.164,0.684c0.41,0.479 3.353,0.479 3.353,0.479c0,0 0.205,-0.753 -0.411,-2.19c-0.616,-1.437 -2.669,-1.505 -1.642,-3.422c1.026,-1.916 0.821,-2.532 2.737,-3.9c1.917,-1.369 2.19,-1.78 2.875,-1.917c0.684,-0.137 2.874,-0.547 3.49,1.78c0.616,2.327 -0.069,3.353 1.026,3.216c1.095,-0.137 1.369,-2.737 1.164,-4.038c-0.205,-1.3 -0.89,-5.064 -1.027,-6.022c-0.137,-0.958 1.232,-3.353 0.274,-4.722c-0.958,-1.369 1.232,-3.148 -1.095,-4.38c-2.327,-1.232 -3.216,-1.232 -4.311,-2.395c-1.095,-1.164 -1.643,-2.669 -2.943,-3.901c-1.301,-1.232 -6.365,-5.886 -8.007,-7.118c-1.643,-1.231 -3.148,-3.011 -3.491,-4.106c-0.342,-1.095 -1.779,-1.369 -1.026,-2.464c0.753,-1.095 2.327,-2.053 2.943,-2.737c0.616,-0.684 1.232,-1.232 2.327,-2.464c1.094,-1.232 3.49,-2.258 3.9,-3.216c0.411,-0.958 0.959,-2.327 0.89,-3.97c-0.068,-1.642 0,-4.79 0,-5.406c0,-0.616 -4.654,-2.806 -5.68,-4.106Zm5.475,49.206c0,0 -0.548,2.121 0.137,4.174c0.684,2.053 0.616,3.08 1.984,3.217c1.369,0.137 2.669,0.068 3.217,-1.095c0.547,-1.164 1.095,-1.369 0.137,-2.532c-0.958,-1.164 -4.038,-2.738 -5.475,-3.764Zm-25.048,-8.76c0,0 -0.137,0.41 1.095,0.137c1.232,-0.274 2.327,-0.822 2.327,-0.822c0,0 0.068,0.959 0.068,1.985c0,1.027 0.137,1.027 0.206,2.395c0.068,1.369 0.273,2.738 0.752,3.628c0.479,0.889 0.479,0.41 1.301,1.574c0.821,1.163 0.821,1.231 1.505,2.326c0.685,1.095 0.548,1.78 0.548,1.78c0,0 -2.738,0.684 -3.901,0.547c-1.164,-0.137 -0.821,-0.342 -2.669,-0.342c-1.848,0 -3.97,0.068 -3.97,0.068c0,0 -0.342,-1.026 0.206,-1.368c0.547,-0.342 1.711,-0.958 1.711,-0.958c0,0 0.479,-0.958 0.479,-2.943c0,-1.985 0.342,-2.874 0.205,-3.764c-0.137,-0.89 -0.411,-2.943 0.137,-4.243Zm-8.144,13.14c0,0 -0.342,-1.164 0.205,-1.643c0.548,-0.479 1.095,0.342 1.027,0.958c-0.069,0.616 -0.753,0.821 -1.232,0.685Z" style="fill:#65563f;"/><path d="M132.624,86.875l-60.654,61.232" style="fill:none;stroke:#8c7d76;stroke-width:0.83px;"/><path d="M118.622,85.305c-0.793,-0.53 -5.518,-0.39 -8.248,-0.241c-2.331,0.127 -6.798,-0.248 -6.798,-0.248c0,0 0.099,3.871 0.943,5.111c0.843,1.241 1.538,2.184 1.737,3.424c0.198,1.241 -0.248,3.573 0.248,5.161c0.496,1.588 0.992,3.97 1.389,4.615c0.397,0.645 1.142,3.076 1.29,4.019c0.149,0.943 0.05,5.21 -0.148,7.493c-0.199,2.283 -0.397,10.073 -0.447,11.413c-0.05,1.34 -0.794,11.314 -0.794,12.257c0,0.943 6.401,0.744 6.401,0.744c0,0 0.05,-1.836 0.844,-3.374c0.794,-1.539 3.573,-13.001 3.92,-15.582c0.347,-2.58 0.397,-12.703 0.198,-16.821c-0.198,-4.119 -0.03,-17.632 -0.535,-17.971Z" style="fill:#f8c1bc;"/><path d="M89.659,34.774c0,0 -1.916,2.738 -2.737,3.764c-0.821,1.027 -1.643,1.643 -2.259,2.19c-0.616,0.548 -2.806,1.985 -5.201,2.806c-2.395,0.821 -4.174,1.027 -6.844,1.369c-2.669,0.342 -4.379,0.411 -7.185,0.753c-2.806,0.342 -3.559,0.753 -4.243,0.821c-0.685,0.068 -2.122,0.547 -2.122,0.547c0,0 -0.068,1.438 0,3.491c0.068,2.053 0,3.353 0.274,4.79c0.274,1.437 0.958,3.148 1.574,4.038c0.616,0.89 1.848,2.669 2.737,3.627c0.89,0.958 0.822,0.548 2.464,1.78c1.642,1.231 3.217,3.011 3.627,4.174c0.411,1.164 1.232,2.738 1.78,3.696c0.547,0.958 1.437,2.806 1.437,2.806c0,0 2.874,-3.422 3.285,-4.107c0.41,-0.684 1.711,-2.19 2.532,-3.216c0.821,-1.027 2.532,-2.943 3.422,-5.27c0.889,-2.327 1.368,-3.285 1.368,-4.653c0,-1.369 1.095,-4.175 1.232,-6.297c0.137,-2.121 0.069,-3.216 0.821,-5.132c0.753,-1.917 0.89,-2.601 1.232,-3.354c0.342,-0.752 1.574,-2.121 1.437,-3.079c-0.136,-0.958 -0.342,-1.437 0,-2.464c0.343,-1.027 1.369,-3.08 1.369,-3.08Z" style="fill:#6f5958;"/><path d="M53.34,39.951c0,0 -0.497,9.943 -0.994,11.932c0,0 6.534,-0.781 6.96,-2.131c0.426,-1.349 -0.443,-4.096 0.994,-4.918c1.437,-0.821 3.216,-1.779 4.311,-1.642c1.095,0.137 1.848,0.342 1.232,1.642c-0.616,1.301 -1.163,2.122 -1.163,2.122c0,0 1.369,-0.89 1.916,-1.642c0.548,-0.753 2.05,-2.333 2.05,-2.333c0,0 4.172,-2.853 3.149,0.416c-0.341,1.087 -1.777,2.875 -1.777,2.875c0,0 0.547,0.205 2.395,-1.574c1.848,-1.78 2.327,-2.539 2.807,-3.224c0.479,-0.684 1.713,-1.441 2.261,-1.783c0.547,-0.343 2.326,-0.069 2.326,-0.069c0,0 0.545,0.278 1.503,0.621c0.959,0.342 1.616,1.064 2.437,0.858c0.821,-0.205 1.814,0.176 2.224,-0.783c0.411,-0.958 0.266,-4.175 0.403,-5.544c0.137,-1.368 0.821,-0.821 0.411,-3.079c-0.411,-2.259 -0.342,-3.08 -1.3,-3.559c-0.959,-0.479 -16.151,-0.205 -16.151,-0.205l-15.994,12.02Z" style="fill:#936a56;"/><path d="M50.019,24.703c0,0 3.793,-3.459 5.988,-4.524c2.196,-1.064 4.79,-1.73 6.92,-2.927c2.129,-1.198 4.79,-1.863 5.987,-2.395c1.198,-0.533 3.26,-0.865 3.26,-0.865c0,0 0.599,1.53 1.597,3.26c0.998,1.73 2.928,5.389 3.526,6.853c0.599,1.463 0.932,2.195 0.932,2.195c0,0 1.331,0.266 2.129,0.2c0.798,-0.067 3.46,-1.264 4.657,-1.131c1.198,0.133 5.389,1.33 5.389,2.195c0,0.865 -2.794,1.53 -3.526,1.464c-0.732,-0.067 -4.923,0 -5.722,0.333c-0.798,0.332 -2.861,1.33 -4.59,1.862c-1.73,0.533 -4.724,1.664 -5.323,1.996c-0.599,0.333 -5.323,1.996 -6.653,2.662c-1.331,0.665 -6.986,4.191 -8.583,5.389c-1.597,1.197 -3.06,2.328 -4.191,3.925c-1.131,1.597 -1.93,3.061 -3.926,2.728c-1.996,-0.333 -3.06,-1.264 -2.927,-2.861c0.133,-1.597 0.066,-3.06 1.397,-4.058c1.331,-0.998 3.859,-2.595 4.79,-3.194c0.932,-0.599 1.863,-0.066 1.863,-2.129c0,-2.062 -2.062,-9.314 -2.994,-10.978Z" style="fill:#423837;"/><path d="M133.827,84.196c-0.69,-0.163 -3.669,4.484 -3.611,6.29c0.058,1.805 -3.553,23.471 -4.718,26.616c-1.165,3.145 -1.863,12.813 -10.6,20.792c-8.736,7.979 0.583,3.262 3.32,0.175c2.737,-3.087 9.027,-12.114 10.251,-19.86c1.223,-7.746 3.261,-18.405 3.261,-22.016c0,-3.61 0.932,-7.163 1.689,-8.445c0.757,-1.281 2.388,-3.086 0.408,-3.552Z" style="fill:#a6575d;"/></g></g></svg>