<?xml version="1.0" encoding="UTF-8" standalone="no"?><!DOCTYPE svg PUBLIC "-//W3C//DTD SVG 1.1//EN" "http://www.w3.org/Graphics/SVG/1.1/DTD/svg11.dtd"><svg width="100%" height="100%" viewBox="0 0 150 150" version="1.1" xmlns="http://www.w3.org/2000/svg" xmlns:xlink="http://www.w3.org/1999/xlink" xml:space="preserve" xmlns:serif="http://www.serif.com/" style="fill-rule:evenodd;clip-rule:evenodd;stroke-linejoin:round;stroke-miterlimit:2;"><path id="base" d="M150,75c0,-41.394 -33.606,-75 -75,-75c-41.394,0 -75,33.606 -75,75c0,41.394 33.606,75 75,75c41.394,0 75,-33.606 75,-75Z" style="fill:#181a1f;"/><path id="outline" d="M144,75c0,-38.082 -30.918,-69 -69,-69c-38.082,0 -69,30.918 -69,69c0,38.082 30.918,69 69,69c38.082,0 69,-30.918 69,-69Z" style="fill:#9da5b4;"/><path id="core" d="M141,75c0,-36.426 -29.574,-66 -66,-66c-36.426,0 -66,29.574 -66,66c0,36.426 29.574,66 66,66c36.426,0 66,-29.574 66,-66Z" style="fill:#2c323c;"/><clipPath id="_clip1"><path d="M141,75c0,-36.426 -29.574,-66 -66,-66c-36.426,0 -66,29.574 -66,66c0,36.426 29.574,66 66,66c36.426,0 66,-29.574 66,-66Z"/></clipPath><g clip-path="url(#_clip1)"><g id="homie"><path d="M58.319,147.635l-5.141,-24.151c16.046,-8.519 32.952,-12.342 50.751,-11.297l8.19,12.493l3.095,1.614c0,-0 10.833,-0.598 15.316,-0.658c4.484,-0.059 13.749,0.837 13.749,0.837l0.299,20.982l-86.259,0.18Z" style="fill:#d34532;"/><path d="M58.804,125.811c-1.385,1.091 -0.038,4.768 0.402,6.619c-0,-0 6.137,-4.252 11.391,-6.418c5.255,-2.166 12.636,-4.172 12.636,-4.172c-0,0 1.524,2.608 2.166,3.891c0.642,1.284 2.206,4.332 2.206,4.332c0,0 -7.822,1.966 -11.713,3.49c-3.891,1.524 -18.457,8.084 -18.457,8.084l30.932,1.022c0,-0 4.957,-9.828 18.544,-8.904c9.546,0.65 15.271,-1.686 8.05,-3.01c-7.22,-1.323 -19.374,-2.206 -19.374,-2.206c0,0 -1.363,-3.931 -2.808,-5.977c-1.444,-2.045 -3.128,-5.174 -3.128,-5.174l11.111,-0.441c-0,-0 1.885,2.647 3.048,4.733c1.164,2.086 2.688,4.773 2.688,4.773l2.928,-0.321c0,0 -1.484,-2.687 -2.527,-3.931c-1.043,-1.243 -1.444,-2.366 -1.444,-2.366l2.166,-0.321c-0,-0 -0.958,-4.189 -2.968,-4.493c-4.774,-0.722 -17.008,-0.882 -27.758,1.805c-8.117,2.03 -16.328,7.742 -18.091,8.985Z" style="fill:#1b100d;"/><path d="M114.401,125.856l-3.642,0.102c-0,-0 -5.141,-9.804 -5.685,-9.974c-0.545,-0.17 -4.936,-0.885 -4.936,-0.885l-4.698,-4.46l10.621,-5.072c-0,0 1.464,8.238 3.37,11.506c1.906,3.268 4.97,8.783 4.97,8.783Z" style="fill:#e8d073;"/><path d="M60.766,125.545c-9.598,4.558 -29.019,0.161 -29.398,-0.126c-3.567,0.348 3.534,-79.736 10.511,-84.524c22.138,0.407 42.712,0.228 61.724,-0.536c-2.681,6.183 -3.576,14.307 -1.763,25.374c-0,-0 1.898,4.467 2.577,5.962c0.68,1.496 0.884,5.778 1.088,8.633c0.204,2.855 0.476,11.76 0.476,13.596c-0,1.835 0.816,10.332 0.476,11.624c-0.34,1.291 -2.311,3.534 -3.943,4.078c-1.631,0.544 -3.671,1.496 -3.671,1.496l1.904,3.738l-0.403,0.219c-5.952,-0.249 -16.014,0.591 -22.418,2.069c-6.628,1.53 -14.146,6.173 -17.16,8.397Z" style="fill:#f5c898;"/><path d="M17.339,132.806c0,0 1.156,-1.767 2.719,-6.186c1.564,-4.418 3.875,-9.924 3.739,-13.391c-0.136,-3.467 0.544,-11.488 -0.544,-14.887c-1.088,-3.399 -2.311,-15.839 -1.563,-19.849c0.747,-4.011 4.554,-13.8 5.846,-15.363c-0,-0 0.679,-7.138 2.583,-13.052c1.903,-5.914 6.661,-16.79 8.021,-19.101c1.36,-2.311 2.175,-4.419 2.175,-4.419c0,0 8.973,-0.475 14.751,1.836c5.778,2.311 4.215,1.223 7.886,3.671c3.67,2.447 10.128,8.089 10.128,8.089c0,-0 1.164,-1.994 0.952,-2.447c-0.388,-0.826 -1.289,-10.505 -0.748,-13.188c0.512,-2.539 1.903,-5.846 2.991,-5.846c1.088,0 5.166,5.234 5.846,7.138c0,-0 9.653,-7.342 12.916,-7.342c3.263,0 9.924,14.207 11.216,17.674c1.291,3.467 4.962,14.887 4.758,20.733c-0.204,5.846 -1.495,16.518 -2.311,19.102c0,-0 -0.544,-6.594 -1.699,-10.741c-1.156,-4.146 -3.535,-10.06 -4.283,-11.08c0,0 -0.136,11.08 -0.34,12.78c0,-0 -3.603,-3.875 -5.166,-8.09c-1.564,-4.214 -2.923,-4.69 -4.894,-6.661c-1.972,-1.972 -7.75,-8.429 -8.973,-8.565c-1.224,-0.136 -2.991,-0.204 -3.535,-0.612c-0.544,-0.408 -0.748,-0.952 -1.836,-0.748c-1.087,0.204 -1.971,1.767 -1.971,1.767c0,0 -2.379,-1.087 -2.991,-1.223c-0.612,-0.136 -6.594,-0.476 -6.594,-0.476l1.7,1.224l-3.739,-0c-1.156,-0 -3.807,0.407 -3.807,0.407c0,0 -4.826,2.72 -6.118,3.671c-1.291,0.952 -3.738,3.739 -3.738,3.739c-0,-0 -0.816,4.283 -0.884,5.166c-0.068,0.884 -0.748,5.37 -0.816,6.798c-0.068,1.427 0.068,9.857 -0.068,11.556c-0.136,1.699 -0.34,6.526 -0.408,7.817c-0.068,1.292 -1.223,8.497 -1.767,9.653c-0.544,1.156 -1.495,3.603 -1.495,3.603c-0,-0 -0.816,-1.564 -1.496,-3.671c-0.68,-2.107 -0.952,-1.903 -3.467,-2.311c-2.515,-0.408 -4.826,0.544 -5.71,1.495c-0.884,0.952 -1.291,6.118 -1.291,7.546c-0,1.427 0.747,4.214 1.835,5.098c1.088,0.884 2.855,2.039 4.962,2.583c2.108,0.544 4.419,0.476 5.982,0.408c1.564,-0.068 3.535,0.068 3.535,0.068c0,0 4.147,7.613 4.962,8.837c0.816,1.224 5.031,8.973 5.303,9.517c0.272,0.544 -0.884,1.631 -0.884,1.631c-0,0 1.631,8.905 1.971,11.08c0.34,2.176 -43.369,5.235 -43.369,5.235l-0.272,-10.673Zm59.64,-109.229c-0,-0 2.744,3.92 3.528,4.268c-0,-0 -4.443,6.402 -5.27,8.362c-0,0 -0.697,-8.101 1.742,-12.63Z" style="fill:#e6d076;"/></g></g></svg>