<?xml version="1.0" encoding="UTF-8" standalone="no"?><!DOCTYPE svg PUBLIC "-//W3C//DTD SVG 1.1//EN" "http://www.w3.org/Graphics/SVG/1.1/DTD/svg11.dtd"><svg width="100%" height="100%" viewBox="0 0 150 150" version="1.1" xmlns="http://www.w3.org/2000/svg" xmlns:xlink="http://www.w3.org/1999/xlink" xml:space="preserve" xmlns:serif="http://www.serif.com/" style="fill-rule:evenodd;clip-rule:evenodd;stroke-linejoin:round;stroke-miterlimit:2;"><path id="base" d="M150,75c0,-41.394 -33.606,-75 -75,-75c-41.394,0 -75,33.606 -75,75c0,41.394 33.606,75 75,75c41.394,0 75,-33.606 75,-75Z" style="fill:#181a1f;"/><path id="outline" d="M144,75c0,-38.082 -30.918,-69 -69,-69c-38.082,0 -69,30.918 -69,69c0,38.082 30.918,69 69,69c38.082,0 69,-30.918 69,-69Z" style="fill:#9da5b4;"/><path id="core" d="M141,75c0,-36.426 -29.574,-66 -66,-66c-36.426,0 -66,29.574 -66,66c0,36.426 29.574,66 66,66c36.426,0 66,-29.574 66,-66Z" style="fill:#2c323c;"/><clipPath id="_clip1"><path d="M141,75c0,-36.426 -29.574,-66 -66,-66c-36.426,0 -66,29.574 -66,66c0,36.426 29.574,66 66,66c36.426,0 66,-29.574 66,-66Z"/></clipPath><g clip-path="url(#_clip1)"><g id="lags-journey"><path d="M106.703,113.559l-0.826,5.669c-0,0 -1.54,9.123 -1.952,10.775c-0.413,1.652 -1.277,3.717 -1.878,5.068c-0.6,1.352 -0.901,2.741 -1.914,4.355c-1.014,1.615 -0.789,1.727 -1.239,1.952c-0.451,0.226 -0.901,0.301 -1.014,-0.713c-0.112,-1.014 -0.375,-2.703 -0.375,-2.703c-0,0 -0.826,0.638 -1.352,1.427c-0.525,0.788 -1.164,1.764 -2.177,3.041c-0.436,0.549 -2.065,0.788 -1.765,-0.376c0.301,-1.164 0.13,-1.585 0.965,-2.947c1.427,-2.328 1.502,-3.942 2.515,-5.294c0.702,-0.935 1.652,-2.665 1.84,-3.416c0.188,-0.751 0.462,-7.114 0.424,-7.715c-0.037,-0.6 0.075,-7.546 0.075,-7.546l2.478,-3.266l6.195,1.689" style="fill:#b5826d;"/><path d="M75.698,145.039c0,-0 -11.134,-0.11 -13.726,-1.022c-2.591,-0.913 -1.861,-1.716 -4.636,-2.702c-2.774,-0.985 -5.475,-1.131 -6.789,-2.372c-1.315,-1.242 -1.534,-3.176 -1.461,-5.403c0.073,-2.227 1.168,-6.461 1.351,-8.433c0.183,-1.971 -0.329,-4.125 -0.438,-6.023c-0.11,-1.898 -0.219,-4.599 -0.183,-5.658c0.037,-1.059 -0.073,-2.592 -0.292,-2.92c-0.219,-0.329 -2.299,-0.511 -3.541,-0.694c-1.241,-0.182 -5.84,-0.84 -6.826,-1.314c-0.985,-0.475 -1.825,-0.548 -2.154,-1.497c-0.328,-0.949 -1.241,-3.577 -1.277,-4.855c-0.037,-1.277 -0.402,-4.563 0.073,-5.585c0.474,-1.022 0.876,-1.351 1.314,-2.154c0.438,-0.803 0.547,-1.423 0.693,-2.081c0.146,-0.657 0.329,-1.496 0.913,-2.847c0.584,-1.351 1.716,-5.987 2.592,-8.14c0.876,-2.154 4.928,-10.587 5.768,-12.229c0.839,-1.643 3.906,-3.614 5.804,-4.673c1.898,-1.059 8.123,-3.938 9.673,-4.745c1.591,-0.828 6.707,-2.766 6.707,-2.376l12.166,1.353c0,0 2.337,0.329 4.928,1.059c2.592,0.73 6.571,2.847 8.579,4.015c2.008,1.169 3.869,2.775 5.147,5.257c1.278,2.482 3.87,10.039 4.162,11.901c0.292,1.861 1.496,8.25 1.788,9.308c0.292,1.059 0.584,1.57 0.767,2.263c0.182,0.694 0.146,1.716 0.182,2.483c0.037,0.766 0.292,1.314 0.329,2.227c0.036,0.912 0.255,2.737 0.146,3.76c-0.11,1.022 -0.219,13.47 -0.475,13.798c-0.255,0.329 -7.41,-0.365 -8.396,0.11c-0.985,0.474 -1.095,2.446 -1.095,2.446c0,-0 -0.876,9.965 -0.949,11.279c-0.073,1.315 -0.176,3.391 -0.249,3.975c-0.073,0.584 -1.241,2.511 -1.497,3.132c-0.255,0.621 -0.873,1.97 -1.347,2.955c-0.475,0.986 -1.652,1.51 -1.835,1.948c-0.183,0.438 -1.679,2.045 -2.409,2.373c-0.73,0.329 -7.958,2.227 -13.507,2.081Z" style="fill:#5d5a6b;"/><path d="M67.302,60.239c0,0 2.811,4.198 8.36,4.344c5.548,0.146 7.3,-3.504 7.3,-3.504l-0.109,-6.024c-0,0 0.876,-0.912 1.168,-2.847c0.292,-1.935 0.329,-1.533 0.84,-3.723c0.511,-2.191 0.292,-2.811 0.036,-3.541c-0.255,-0.73 -0.474,-2.446 -0.584,-3.395c-0.109,-0.949 -0.255,-5.512 -0.876,-6.571c-0.621,-1.059 -6.543,-4.836 -7.082,-4.855c-1.022,-0.037 -9.272,5.001 -9.308,6.023c-0.037,1.022 -0.256,5.658 -0.621,6.534c-0.365,0.877 -1.57,1.278 -1.643,2.3c-0.073,1.022 0.584,2.811 1.241,3.943c0.657,1.131 0.657,1.204 0.877,2.19c0.219,0.986 0.839,3.979 0.839,4.673c0,0.693 -0.438,4.453 -0.438,4.453Z" style="fill:#aa847e;"/><path d="M62.009,100.649c-0,0 0.511,-0.511 2.117,-1.825c1.606,-1.314 2.446,-1.788 3.687,-2.701c1.241,-0.913 1.789,-0.913 2.482,-1.752c0.694,-0.84 2.446,-2.592 2.446,-0.475c0,2.117 -1.789,3.943 -2.19,4.198c-0.402,0.256 -0.511,0.621 -0.511,0.621c-0,-0 3.139,-0.037 3.76,-0.037c0.62,0 1.643,0.803 1.643,1.935c-0,1.132 -1.242,1.424 -1.242,1.424c0,-0 1.497,0.255 1.424,1.423c-0.073,1.168 -1.57,1.716 -1.57,1.716c0,0 0.584,1.278 0.073,1.679c-0.511,0.402 -0.985,0.913 -0.985,0.913c-0,-0 0.511,0.219 0.401,0.985c-0.109,0.767 -1.047,1.324 -1.96,1.506c-0.913,0.183 -4.797,0.453 -5.649,0.218c-1.072,-0.296 -1.537,-0.394 -3.107,-0.65c-1.569,-0.255 -2.774,-0.657 -5.001,-0.438c-2.226,0.219 -5.658,0.584 -6.899,0.584c-1.241,0 -2.847,-0.292 -3.249,-0.657c-0.401,-0.365 -0.746,-3.592 -0.637,-4.615c0.11,-1.022 1.241,-3.358 2.044,-4.052c0.803,-0.693 2.811,-0.693 2.811,-0.693c0,-0 7.63,1.095 10.112,0.693Z" style="fill:#a9897b;"/><path d="M65.44,44.031c0,0 -0.438,-5.038 -0.109,-6.79c0.328,-1.752 0.547,-4.599 1.496,-5.804c0.95,-1.205 2.629,-3.869 4.564,-4.307c1.934,-0.439 4.672,-1.059 6.169,-0.475c1.496,0.584 4.453,2.044 5.439,3.285c0.986,1.242 2.555,5.841 2.373,7.119c-0.183,1.277 -0.84,6.498 -0.84,6.498c0,-0 -0.693,-5.549 -1.862,-6.936c-1.168,-1.387 -3.285,-1.606 -4.344,-1.46c-1.043,0.143 -2.263,0.584 -2.263,0.584c0,-0 -1.351,-0.986 -3.577,-0.986c-2.133,-0 -2.957,0.438 -3.76,1.424c-0.803,0.985 -1.57,4.563 -1.862,5.694c-0.229,0.886 -1.022,2.154 -1.424,2.154Z" style="fill:#6a524a;"/></g></g></svg>