<?xml version="1.0" encoding="UTF-8" standalone="no"?><!DOCTYPE svg PUBLIC "-//W3C//DTD SVG 1.1//EN" "http://www.w3.org/Graphics/SVG/1.1/DTD/svg11.dtd"><svg width="100%" height="100%" viewBox="0 0 150 150" version="1.1" xmlns="http://www.w3.org/2000/svg" xmlns:xlink="http://www.w3.org/1999/xlink" xml:space="preserve" xmlns:serif="http://www.serif.com/" style="fill-rule:evenodd;clip-rule:evenodd;stroke-linejoin:round;stroke-miterlimit:2;"><path id="base" d="M150,75c0,-41.394 -33.606,-75 -75,-75c-41.394,0 -75,33.606 -75,75c0,41.394 33.606,75 75,75c41.394,0 75,-33.606 75,-75Z" style="fill:#181a1f;"/><path id="outline" d="M144,75c0,-38.082 -30.918,-69 -69,-69c-38.082,0 -69,30.918 -69,69c0,38.082 30.918,69 69,69c38.082,0 69,-30.918 69,-69Z" style="fill:#9da5b4;"/><path id="core" d="M141,75c0,-36.426 -29.574,-66 -66,-66c-36.426,0 -66,29.574 -66,66c0,36.426 29.574,66 66,66c36.426,0 66,-29.574 66,-66Z" style="fill:#2c323c;"/><clipPath id="_clip1"><path d="M141,75c0,-36.426 -29.574,-66 -66,-66c-36.426,0 -66,29.574 -66,66c0,36.426 29.574,66 66,66c36.426,0 66,-29.574 66,-66Z"/></clipPath><g clip-path="url(#_clip1)"><g id="lil-dan"><path d="M42.906,144.782c0,-0 -1.876,-3.823 -1.459,-6.464c0.417,-2.642 2.224,-5.074 1.668,-8.619c-0.556,-3.545 -1.46,-9.314 -4.796,-12.581c-3.337,-3.267 -6.881,-11.191 -7.299,-13.902c-0.417,-2.711 -1.112,-6.186 -1.112,-6.186c0,-0 -0.139,1.32 -1.807,1.251c-1.668,-0.07 -3.545,-1.877 -5.283,-5.908c-1.737,-4.032 -5.56,-17.516 -6.464,-18.976c-0.903,-1.46 -2.363,-5.561 -2.433,-7.507c-0.069,-1.946 1.043,-5.7 2.92,-6.395c1.877,-0.695 3.823,0.348 3.823,0.348l2.616,5.654c0,0 0.739,-10.338 0.669,-12.771c-0.069,-2.433 1.443,-16.107 4.154,-20.764c2.71,-4.657 9.678,-13.605 15.795,-17.15c6.117,-3.545 20,-4.459 26.325,-4.667c6.325,-0.209 29.611,9.939 34.268,13.623c4.657,3.684 9.975,3.966 12.895,9.596c2.919,5.63 5.228,23.777 5.228,26.627c-0,2.85 -0.061,8.609 -0.061,8.609c0,0 -0.407,2.92 1.261,0.627c1.668,-2.294 4.309,-7.16 5.978,-6.812c1.668,0.347 3.405,10.495 2.988,12.581c-0.417,2.085 -4.726,10.565 -5.977,12.998c-1.251,2.433 -3.754,9.105 -5.074,10.078c-1.321,0.974 -2.364,0.974 -2.364,0.974c0,-0 -1.668,9.522 -3.406,12.511c-1.737,2.989 -11.121,11.886 -11.121,11.886l19.74,19.949l-81.672,1.39Z" style="fill:#deb5af;"/><path d="M105.429,97.72c0.091,-0.617 0.239,-1.749 0.239,-2.548c-0,-1.151 1.687,-0.921 3.144,-0.691c1.456,0.231 2.223,3.911 2.3,5.598c0.077,1.687 -0.077,6.518 -0.077,7.668c0,1.15 -0.92,5.291 -1.687,6.978c-0.767,1.686 -1.38,2.53 -1.84,3.527c-0.46,0.997 -4.754,6.287 -6.134,7.668c-1.38,1.38 -3.604,5.29 -3.604,5.29l5.751,-16.179c-0,0 0.843,-1.533 1.073,-2.53c0.23,-0.997 1.227,-3.221 1.687,-5.061c0.46,-1.84 -0.613,-3.987 -1.303,-6.057c-0.691,-2.071 -1.994,-2.301 -3.758,-3.911c-1.763,-1.61 -3.45,-3.987 -5.367,-5.521c-1.917,-1.533 -3.987,-4.141 -5.444,-5.751c-1.457,-1.61 -1.764,-2.53 -2.684,-4.064c-0.92,-1.533 -1.457,-4.447 -1.457,-4.447l1.15,1.303c0,0 0.23,-0.69 0.537,-1.533c0.307,-0.844 1.764,-0.077 1.764,-0.077l0.383,1.841c0,-0 -0.46,1.303 -0.383,1.993c0.076,0.69 0.23,0.154 1.38,-0.077c1.15,-0.23 2.07,2.377 2.914,3.681c0.843,1.304 3.987,5.444 5.29,6.594c1.304,1.151 3.068,2.684 4.831,4.371c0.975,0.932 1.247,1.56 1.295,1.935c-0.039,0.271 -0.068,0.442 -0.068,0.442c-0,0 0.107,-0.138 0.068,-0.442Zm-59.57,19.382c-0,-0 -0.69,-1.994 -0.997,-4.064c-0.307,-2.071 -0.92,-5.445 -0.844,-6.365c0.077,-0.92 -0.46,-2.683 0.537,-3.987c0.997,-1.303 4.217,-4.064 5.674,-5.674c1.457,-1.61 4.448,-4.678 5.368,-5.368c0.92,-0.69 3.067,-3.373 3.987,-5.214c0.92,-1.84 2.991,-7.668 3.144,-8.358c0.153,-0.69 0.46,-3.067 0.46,-3.067c-0,0 -0.92,1.457 -1.61,2.837c-0.69,1.381 -2.684,4.371 -3.374,5.368c-0.69,0.997 -5.981,7.438 -7.591,8.894c-1.611,1.457 -5.291,7.132 -6.901,7.285c-1.611,0.153 -1.15,-1.38 -1.841,-2.684c-0.69,-1.303 -0.766,-1.763 -1.84,-1.993c-1.073,-0.231 -1.84,-0.537 -1.84,-0.537c-0,-0 0.613,-2.684 1.15,-4.371c0.537,-1.687 1.074,-3.987 0.153,-3.987c-0.92,-0 -2.453,3.067 -2.453,3.067l-1.15,3.527c-0,0 -0.537,-1.917 -0.844,-2.99c-0.307,-1.074 -0.69,-2.301 -0.69,-2.301c-0,0 -0.077,-2.683 0.153,-3.527c0.23,-0.843 0.767,-3.527 0.767,-3.527c0,-0 -1.84,2.914 -2.07,3.681c-0.23,0.766 -1.38,4.294 -1.994,5.827c-0.613,1.534 -0.92,5.751 -1.073,6.594c-0.154,0.844 0.613,5.598 0.843,6.441c0.23,0.844 1.61,3.834 2.07,4.678c0.46,0.843 2.531,3.45 3.144,4.217c0.614,0.767 2.607,2.76 3.374,3.527c0.767,0.767 4.447,1.61 6.288,2.071Zm65.636,-0.997c0,-0 0.92,-0.997 1.227,-3.757c0.307,-2.761 0.69,-6.825 0.537,-9.815c-0.154,-2.991 -0.384,-6.671 -1.074,-9.968c-0.69,-3.298 -1.533,-6.748 -1.533,-6.748c-0,-0 1.227,-0.46 1.993,0.383c0.767,0.844 1.994,1.687 2.301,3.604c0.306,1.917 0.153,4.908 0.767,7.515c0.613,2.607 1.917,7.897 1.533,9.278c-0.383,1.38 -4.294,8.281 -5.751,9.508Zm3.438,-48.722c-1.701,-1.506 -2.048,-1.378 -1.981,-3.266c0.077,-2.147 -0.46,-1.84 0.844,-2.991c1.303,-1.15 1.993,-1.073 1.917,-2.913c-0.077,-1.841 0.843,-3.297 0.843,-3.297c0,-0 2.147,1.993 -0.843,-1.841c-2.991,-3.834 -2.761,-4.064 -4.448,-5.597c-1.687,-1.534 -2.377,-1.534 -3.68,-2.684c-1.304,-1.15 -0.46,-1.534 1.763,-2.224c2.224,-0.69 3.834,-0.46 3.297,-1.763c-0.536,-1.304 -0.766,-1.304 -1.687,-2.224c-0.92,-0.92 -0.613,-0.307 -1.916,-2.684c-1.304,-2.377 -0.997,-3.604 -2.838,-2.913c-1.84,0.69 -3.91,0.996 -5.597,1.533c-1.687,0.537 -4.371,1.687 -5.751,1.38c0,0 1.84,0.154 3.604,-1.763c1.764,-1.917 1.84,-2.301 2.99,-3.221c1.151,-0.92 3.298,-2.607 3.681,-3.987c0.383,-1.38 10.582,3.604 10.582,3.604l6.824,15.796l-0.307,24.537c0,-0 -0.153,0.766 -2.454,-0.384c-0.977,-0.488 -1.428,-0.576 -1.806,-0.691c0.454,1.08 0.837,2.229 1.27,3.528c0.536,1.611 1.38,4.601 1.38,5.828c-0,1.227 -0.613,6.134 -0.613,7.514c-0,1.381 -0.921,12.729 -1.764,15.489c-0.224,0.734 -0.844,-3.987 -0.844,-6.517c0,-2.531 0.537,-4.141 -0.383,-6.058c-0.92,-1.917 -1.38,-3.144 -2.224,-4.907c-0.843,-1.764 -2.99,-6.978 -2.99,-6.978c-0,-0 2.684,3.757 3.144,4.984c0.46,1.227 1.533,3.451 1.84,4.064c0.307,0.613 0.69,-3.374 0.69,-3.374c0,0 0.537,-3.067 0.077,-3.987c-0.46,-0.92 -0.384,-2.454 -1.304,-3.527c-0.92,-1.074 -3.297,-5.061 -3.297,-5.061c0,-0 2.837,1.227 3.834,3.144c0.997,1.917 1.61,3.45 1.61,3.45l-1.073,-5.291l-1.994,-3.833l-0.396,-0.875Zm-70.056,26.207c0.676,-0.801 1.606,-1.13 2.075,-0.734c0.469,0.396 0.3,1.368 -0.376,2.169c-0.677,0.801 -1.606,1.13 -2.075,0.734c-0.469,-0.396 -0.301,-1.368 0.376,-2.169Zm5.372,-5.81c0.68,-0.343 1.464,-0.16 1.75,0.407c0.285,0.566 -0.035,1.305 -0.716,1.648c-0.68,0.342 -1.464,0.16 -1.75,-0.407c-0.285,-0.567 0.035,-1.305 0.716,-1.648Zm-21.248,-28.907c-0.215,-0.884 -0.373,-1.704 -0.395,-2.271c-0.077,-1.993 0.383,-2.76 0.23,-4.907c-0.153,-2.147 0.844,-3.987 1.074,-5.828c0.23,-1.84 0.536,-3.833 0.92,-5.597c0.383,-1.764 0.92,-2.3 1.457,-3.911c0.536,-1.61 0.306,-1.687 0.996,-3.834c0.691,-2.147 1.917,-3.68 1.917,-3.68c0,-0 3.528,-0.92 2.914,-2.837c-0.613,-1.917 1.534,-4.524 1.534,-4.524c-0,-0 1.687,1.457 3.067,3.68c1.38,2.224 2.914,4.218 2.914,4.218c-0,-0 -0.767,-1.227 -1.227,-4.064c-0.46,-2.837 -0.307,-4.908 -0.23,-5.674c0.076,-0.767 2.914,-2.991 2.914,-2.991c-0,0 0.23,1.917 -0,4.371c-0.23,2.453 -0.23,3.68 0.23,5.521c0.46,1.84 0.843,2.607 2.147,4.524c1.303,1.917 3.297,3.757 4.294,5.674c0.996,1.917 2.223,5.214 2.837,6.594c0.613,1.38 2.223,5.674 3.143,6.441c0.921,0.767 2.608,3.067 3.604,4.371c0.997,1.303 -0.536,1.073 -1.993,0.076c-1.457,-0.996 -3.221,-3.297 -3.221,-3.297c0,0 0,-2.914 -0.92,-4.217c-0.92,-1.304 -0.46,-1.764 -1.994,-3.757c-1.533,-1.994 -1.763,-2.071 -2.99,-3.681c-1.227,-1.61 -2.454,-3.067 -3.757,-5.444c-1.304,-2.377 -2.301,-3.604 -3.221,-3.144c-0.92,0.46 -1.303,0.077 -1.687,1.227c-0.383,1.15 -2.147,2.53 -2.453,3.604c-0.307,1.073 -0.154,4.141 -1.227,5.904c-1.074,1.764 -0.997,2.147 -1.994,3.681c-0.997,1.533 -1.84,2.07 -1.687,3.604c0.154,1.533 -0.843,2.683 -1.917,4.217c-1.073,1.533 -2.53,2.07 -1.073,3.45c1.457,1.381 2.453,0.46 2.99,1.534c0.085,0.169 0.137,0.348 0.163,0.533c0.595,0.282 1.007,0.791 0.374,1.614c-0.767,0.997 -1.534,0.92 -1.074,1.84c0.418,0.834 0.772,1.227 0.434,1.865c0.127,0.212 0.246,0.39 0.333,0.512c0.384,0.537 -0.383,2.224 -1.457,2.991c-1.073,0.766 -0.613,1.687 -0.613,1.687l0.613,1.84c0,-0 0.073,0.163 0.155,0.408c0.319,0.298 0.766,0.435 0.766,0.435c-0,0 0.383,0.614 -0.077,1.534c-0.46,0.92 -0.997,2.914 -1.457,3.757c-0.46,0.844 -0.997,2.761 -1.61,3.757c-0.614,0.997 -0.844,2.071 -1.15,3.144c-0.307,1.074 -1.227,4.524 -1.227,5.674c-0,0 -0.537,-3.373 -0.614,-4.217c-0.076,-0.843 -1.303,0.46 -1.303,-1.15c-0,-1.451 3.547,-9.125 4.25,-11.248l-0.218,-0.883c-0.613,-0.183 -1.887,0.189 -2.345,0.476c-0.614,0.383 -2.377,1.15 -2.531,0.307c-0.153,-0.844 0.69,-1.917 0.69,-1.917c0,-0 -0.383,-0.384 -1.073,-0.537c-0.69,-0.154 -0.69,-0.844 0.23,-2.07c0.92,-1.227 0.997,-1.764 1.073,-3.068c0.077,-1.303 0.384,-1.763 -0.306,-2.223c-0.69,-0.46 -0.614,-0.767 -0.077,-2.147c0.324,-0.834 0.649,-1.529 0.855,-1.947Zm25.609,24.409c0.479,-0.416 1.138,-0.443 1.471,-0.06c0.334,0.383 0.215,1.032 -0.264,1.449c-0.479,0.416 -1.138,0.444 -1.471,0.06c-0.334,-0.383 -0.215,-1.032 0.264,-1.449Zm3.705,-4.502c0.427,-0.41 0.964,-0.546 1.199,-0.302c0.235,0.244 0.079,0.776 -0.348,1.187c-0.427,0.41 -0.964,0.546 -1.199,0.302c-0.235,-0.244 -0.079,-0.776 0.348,-1.187Zm14.611,-2.548c0,0 -1.15,-0.69 -1.61,-3.374c-0.46,-2.684 -0.46,-3.91 0.46,-6.134c0.92,-2.224 0.23,-4.601 1.61,-5.521c1.38,-0.92 2.837,-0.997 3.681,1.457c0.843,2.454 2.76,5.137 1.687,7.361c-1.074,2.224 -2.454,2.454 -3.374,3.681c-0.92,1.227 -1.227,1.38 -2.454,2.53Zm-41.373,-8.012c-0.657,0.466 -1.183,0.804 -1.183,0.804c-0,0 -0.844,0.69 0.46,0.69c0.315,0 0.692,-0.013 1.083,-0.033l-0.36,-1.461Zm41.68,-9.931c-0.997,-0.766 -1.304,-0.536 -1.84,-2.837c-0.537,-2.3 -0.767,-2.99 -0.767,-4.14c-0,-1.151 -0.23,-3.758 0.92,-3.528c1.15,0.23 1.763,0 1.763,0c0,0 1.151,-1.686 1.917,-0.766c0.767,0.92 2.071,1.457 1.917,2.837c-0.153,1.38 -0.306,3.757 -0.92,5.061c-0.613,1.303 -1.763,3.22 -1.763,3.22c-0,0 -0.23,0.92 -1.227,0.153Zm6.978,-3.143c-0,-0 0.92,-3.528 1.073,-5.215c0.153,-1.686 0.307,-4.83 0.153,-7.284c-0.153,-2.454 0,-3.987 0.69,-5.904c0.691,-1.917 2.761,-6.211 4.371,-8.128c1.61,-1.917 2.607,-3.451 3.681,-4.064c1.073,-0.613 5.751,1.073 5.751,1.073c-0,0 -2.531,1.074 -4.754,2.838c-2.224,1.763 -3.374,2.3 -4.908,5.29c-1.533,2.991 -1.227,3.758 -2.07,5.905c-0.844,2.147 -0.92,6.21 -1.227,7.821c-0.307,1.61 -1.304,5.904 -2.76,7.668Zm4.83,-5.751c0,-0 -0.153,-0.46 0.23,-3.374c0.384,-2.914 1.15,-5.214 1.534,-6.518c0.383,-1.303 0.537,-2.684 0.997,-3.757c0.46,-1.074 1.84,-3.297 1.84,-3.297c-0,-0 1.15,0.383 0.23,1.84c-0.92,1.457 -0.92,1.304 -1.534,3.911c-0.613,2.607 -1.15,4.6 -1.38,5.674c-0.23,1.073 -1.227,3.374 -1.917,5.521Zm-29.061,-1.381c0.296,0 0.537,0.275 0.537,0.614c-0,0.338 -0.241,0.613 -0.537,0.613c-0.296,0 -0.537,-0.275 -0.537,-0.613c0,-0.339 0.241,-0.614 0.537,-0.614Zm-2.453,-4.83c0.677,-0 1.226,0.618 1.226,1.38c0,0.762 -0.549,1.38 -1.226,1.38c-0.678,0 -1.227,-0.618 -1.227,-1.38c-0,-0.762 0.549,-1.38 1.227,-1.38Zm20.549,2.53c0,0 0.844,-2.377 0.69,-3.91c-0.153,-1.534 -1.38,-4.908 -1.38,-4.908c0,0 3.144,3.527 2.531,5.598c-0.614,2.07 -1.841,3.22 -1.841,3.22Zm-2.914,-1.073c0,-0 -2.53,-0.997 -3.45,-2.684c-0.92,-1.687 -0.537,-4.371 0.307,-4.371c0.843,0 0.766,1.841 1.227,3.221c0.46,1.38 1.916,3.834 1.916,3.834Zm-20.473,-5.521c0.424,-0 0.767,0.55 0.767,1.227c0,0.677 -0.343,1.227 -0.767,1.227c-0.423,-0 -0.766,-0.55 -0.766,-1.227c-0,-0.677 0.343,-1.227 0.766,-1.227Zm-1.456,-3.067c0.338,-0 0.613,0.446 0.613,0.996c-0,0.551 -0.275,0.997 -0.613,0.997c-0.339,0 -0.614,-0.446 -0.614,-0.997c0,-0.55 0.275,-0.996 0.614,-0.996Zm24.537,-0.69c-0,-0 -0.307,-1.841 0.613,-2.454c0.92,-0.614 1.38,-1.457 1.994,-0.767c0.613,0.69 0.153,2.147 -0.614,2.454c-0.767,0.306 -1.993,0.767 -1.993,0.767Zm-26.378,-1.611c0.423,0 0.767,0.31 0.767,0.69c0,0.381 -0.344,0.691 -0.767,0.691c-0.423,-0 -0.767,-0.31 -0.767,-0.691c0,-0.38 0.344,-0.69 0.767,-0.69Zm20.627,0.767c-0,0 0.153,-2.377 -1.611,-3.067c-1.763,-0.69 -3.987,-1.764 -3.91,-2.914c0.077,-1.15 2.53,-2.147 3.374,-0.997c0.843,1.151 3.297,4.524 2.147,6.978Zm-22.16,-3.527c0.465,-0 0.843,0.378 0.843,0.843c0,0.466 -0.378,0.844 -0.843,0.844c-0.466,-0 -0.844,-0.378 -0.844,-0.844c0,-0.465 0.378,-0.843 0.844,-0.843Zm45.317,0.767c-0.872,-0.201 -0.154,-1.457 0.613,-2.224c0.767,-0.767 1.917,-0.537 2.684,-1.994c0.766,-1.456 3.834,-1.226 3.834,-1.226c-0,-0 0.306,1.226 -0.997,2.223c-1.304,0.997 -1.994,1.687 -3.067,2.147c-1.074,0.46 -1.074,1.074 -1.764,1.227c-0.69,0.153 -0.307,0.077 -1.303,-0.153Z" style="fill:#8c7988;"/><path d="M84.38,109.531l-0.859,-1.074l0.429,-1.217l2.077,-0.072l2.006,0.358l20.053,11.674l14.825,9.597c-0,-0 3.483,5.039 1.217,8.379c-3.333,4.911 -9.167,0.788 -9.167,0.788l-15.04,-13.751l-15.541,-14.682Z" style="fill:#e8e4e5;"/><path d="M24.271,69.91c0,0 -2.598,-5.476 -3.3,-8.004c-0.702,-2.528 -2.176,-9.619 -2.527,-13.551c-0.352,-3.932 -0,-13.762 1.263,-17.764c1.264,-4.002 5.126,-10.883 5.898,-12.147c0.773,-1.264 0.211,-8.496 0.141,-10.321c-0.071,-1.826 12.638,-4.915 12.638,-4.915l66.141,1.966c-0,-0 5.546,2.808 7.583,4.634c2.036,1.825 7.161,5.055 9.478,9.549c2.317,4.493 4.002,12.217 4.424,15.868c0.421,3.651 0.702,11.866 1.685,13.621c0.983,1.756 5.266,13.411 5.687,14.324c0.421,0.913 -1.896,-1.194 -1.896,-1.194l-4.704,-5.898c0,0 -0.07,1.404 0.843,3.651c0.912,2.247 -0.071,4.695 -0.562,5.467c-0.492,0.772 -3.651,5.477 -3.651,5.477l-1.966,2.036c-0,-0 0.632,-5.056 0.421,-7.092c-0.21,-2.036 -1.474,-15.086 -1.896,-17.613c-0.421,-2.528 -0.14,-5.688 -2.106,-9.268c-1.966,-3.581 -1.615,-4.985 -5.196,-7.303c-3.581,-2.317 -6.459,-4.914 -8.776,-4.423c-2.317,0.492 -10.743,-0.14 -11.796,-0.562c-1.053,-0.421 -5.968,-2.246 -7.724,-2.317c-1.755,-0.07 -1.474,1.194 -5.336,0.773c-3.861,-0.422 -9.057,-1.475 -12.498,-2.528c-3.44,-1.053 -5.513,-5.234 -6.496,-6.849c-0.983,-1.615 -4.283,-3.3 -5.055,-3.159c-0.773,0.14 -4.073,2.878 -5.969,4.493c-1.895,1.615 -6.984,6.077 -9.02,7.06c-2.036,0.983 -3.37,0.983 -4.494,1.615c-1.123,0.632 -3.44,1.474 -4.213,3.651c-0.772,2.176 -2.036,6.038 -2.387,8.004c-0.351,1.966 -0.632,6.46 -0.842,7.443c-0.211,0.983 -1.194,6.88 -1.405,8.776c-0.21,1.896 -0.983,4.985 -1.123,6.46c-0.14,1.474 -1.264,10.04 -1.264,10.04Z" style="fill:#d8b89a;"/></g></g></svg>