<?xml version="1.0" encoding="UTF-8" standalone="no"?><!DOCTYPE svg PUBLIC "-//W3C//DTD SVG 1.1//EN" "http://www.w3.org/Graphics/SVG/1.1/DTD/svg11.dtd"><svg width="100%" height="100%" viewBox="0 0 150 150" version="1.1" xmlns="http://www.w3.org/2000/svg" xmlns:xlink="http://www.w3.org/1999/xlink" xml:space="preserve" xmlns:serif="http://www.serif.com/" style="fill-rule:evenodd;clip-rule:evenodd;stroke-linejoin:round;stroke-miterlimit:2;"><path id="base" d="M150,75c0,-41.394 -33.606,-75 -75,-75c-41.394,0 -75,33.606 -75,75c0,41.394 33.606,75 75,75c41.394,0 75,-33.606 75,-75Z" style="fill:#181a1f;"/><path id="outline" d="M144,75c0,-38.082 -30.918,-69 -69,-69c-38.082,0 -69,30.918 -69,69c0,38.082 30.918,69 69,69c38.082,0 69,-30.918 69,-69Z" style="fill:#9da5b4;"/><path id="core" d="M141,75c0,-36.426 -29.574,-66 -66,-66c-36.426,0 -66,29.574 -66,66c0,36.426 29.574,66 66,66c36.426,0 66,-29.574 66,-66Z" style="fill:#2c323c;"/><clipPath id="_clip1"><path d="M141,75c0,-36.426 -29.574,-66 -66,-66c-36.426,0 -66,29.574 -66,66c0,36.426 29.574,66 66,66c36.426,0 66,-29.574 66,-66Z"/></clipPath><g clip-path="url(#_clip1)"><g id="rp"><path d="M99.834,57.254c-8.42,0.358 -7.713,11.127 -9.067,19.545c0,0 20.581,-0.215 21.532,-0.373c0.95,-0.159 6.707,-4.595 6.496,-6.814c-0.211,-2.218 -0.898,-6.813 -3.961,-8.82c-3.064,-2.007 -10.194,-3.749 -15,-3.538Zm-34.345,16.394l-31.18,0.403c0,-0 -2.289,-6.921 -1.021,-10.723c1.267,-3.803 3.327,-7.236 5.387,-8.556c2.06,-1.321 16.056,-1.585 16.056,-1.585c-0,0 8.91,18.402 10.758,20.461Z" style="fill:#feafc6;"/><path d="M43.998,147.128c-0,-0 -0.718,-5.743 0.43,-9.476c1.149,-3.732 2.01,-4.881 2.872,-9.905c0.861,-5.025 1.722,-10.911 1.005,-14.787c-0.718,-3.877 -1.723,-11.342 -1.723,-14.069c-0,-2.728 -2.728,-3.733 -4.594,-5.599c-1.867,-1.867 -4.164,-4.451 -8.758,-4.882c-4.594,-0.43 -26.262,-0.164 -28.559,-2.174c-2.297,-2.01 -3.302,-7.322 -2.297,-10.767c1.005,-3.446 3.876,-3.015 5.742,-3.015c1.867,0 28.847,1.026 30.713,0.739c1.867,-0.287 2.441,-0.574 5.456,-1.149c3.015,-0.574 5.024,-0.574 8.47,-0.143c3.445,0.43 5.599,-0.144 5.599,-0.144c-0,0 1.866,-3.015 -0,-5.455c-1.866,-2.441 -3.446,-4.594 -3.589,-7.896c-0.144,-3.302 -0.862,-7.752 -0,-11.485c0.861,-3.733 8.039,-9.906 8.039,-9.906l40.054,1.149c0,-0 -3.445,20.385 -5.312,23.975c-1.866,3.589 -4.594,9.044 -0.861,10.623c3.733,1.579 5.168,2.584 8.183,3.015c3.015,0.431 1.866,-0 7.609,0.431c5.742,0.43 31.44,-2.297 35.029,0.143c3.589,2.441 4.738,6.604 4.02,9.332c-0.718,2.727 -1.866,4.881 -4.881,4.737c-3.015,-0.143 -37.039,-1.292 -40.628,-1.722c-3.589,-0.431 -6.174,1.866 -10.48,6.891c-4.307,5.024 -6.604,12.92 -7.035,15.935c-0.431,3.015 -1.436,11.341 0.144,13.064c1.579,1.723 5.024,6.461 6.316,10.05c1.292,3.589 2.728,11.628 2.728,11.628l-21.391,1.723c0,-0 -1.005,-2.584 -1.866,-4.594c-0.861,-2.01 -1.866,-4.163 -1.866,-4.163c-0,-0 -0.718,0.574 -2.441,-1.58c-1.723,-2.153 -2.728,-4.019 -2.728,-4.019c0,-0 -0.861,2.871 -2.871,2.153c-2.01,-0.718 -3.158,-3.445 -3.158,-3.445c-0,-0 2.153,8.613 1.866,12.49c-0.287,3.876 -19.237,2.297 -19.237,2.297Z" style="fill:#efe3af;"/><path d="M89.216,121.536c0,0 0.965,-6.581 -3.234,-6.524c-4.198,0.057 -7.034,1.588 -8.793,3.177c-1.759,1.588 -2.667,5.73 -2.099,6.467c0.567,0.738 1.929,0 2.95,-0.794c1.021,-0.794 5.049,-4.028 5.049,-4.028c0,0 -3.631,4.028 -4.255,5.56c-0.624,1.532 -1.135,3.12 0.284,3.063c1.418,-0.056 5.503,-6.297 5.503,-6.297c-0,0 -1.418,2.553 -1.532,4.028c-0.113,1.475 -0.057,3.007 1.305,3.12c1.361,0.114 4.539,-5.219 4.822,-7.772Zm-42.776,-7.772c0.79,-0.615 1.854,-1.672 1.762,-1.523c-0.022,0.423 0.409,1.619 0.959,1.893c0.681,0.341 5.221,-1.392 6.81,0.651c1.588,2.042 0.17,3.234 -0.964,3.234c-1.135,-0 -1.759,0.51 -1.759,0.51c-0,0 0.454,0.454 1.815,0.908c1.362,0.454 2.496,2.326 1.475,3.177c-1.021,0.851 -2.666,0.737 -3.46,0.34c-0.795,-0.397 -1.816,-1.078 -1.816,-1.078c0,0 1.078,1.135 1.589,2.213c0.51,1.078 1.361,3.574 0.056,3.801c-1.304,0.227 -4.595,-1.872 -5.446,-2.78c-0.851,-0.908 -1.361,-3.007 -1.475,-3.801c-0.198,-1.387 -1.078,-6.354 0.454,-7.545Z" style="fill:#feafc6;"/><path d="M102.158,50.553c-0,-0 -0.56,2.986 -2.551,3.359c-1.99,0.373 -18.102,1.306 -23.95,0.809c-5.847,-0.498 -20.653,-3.111 -21.15,-3.982c-0.498,-0.871 -0.173,-10.337 -0.173,-10.337c-1.173,0.406 10.489,4.783 23.501,5.174c12.518,0.376 23.715,-2.045 24.512,-2.928c0.838,-0.93 -0.189,7.905 -0.189,7.905Z" style="fill:#f9cb0c;"/><path d="M54.478,57.832c-0,-0 4.019,13.638 8.183,17.658c4.163,4.02 13.495,10.193 13.495,10.193c-0,-0 3.992,-3.565 9.762,-5.886c12.49,-5.025 12.059,-19.094 12.059,-19.094c0,-0 -11.198,5.742 -20.099,5.025c-8.9,-0.718 -20.673,-5.169 -23.4,-7.896Z" style="fill:#99dbec;"/><path d="M51.21,49.309c-0,-0 -0.996,-4.044 0.124,-5.599c1.12,-1.555 2.177,-3.67 2.426,-5.786c0.249,-2.115 -1.182,-3.919 1.68,-5.474c2.861,-1.555 4.043,-0.809 5.412,-2.115c1.369,-1.306 12.193,-4.106 13.561,-4.106c1.369,0 10.7,1.431 13.437,2.364c2.737,0.933 6.656,1.618 7.901,1.929c1.244,0.311 8.958,4.728 9.704,5.972c0.747,1.244 0.871,12.939 0.871,12.939c-0,-0 -2.488,-1.306 -3.048,-2.799c-0.56,-1.493 0.684,-2.675 -1.182,-2.986c-1.866,-0.311 -3.048,1.306 -4.666,1.182c-1.617,-0.125 -15.738,-3.049 -17.916,-2.924c-2.177,0.124 -10.14,2.55 -11.446,2.799c-1.306,0.249 -7.962,4.106 -8.958,4.79c-0.995,0.684 -2.675,-2.861 -2.861,-4.728c-0.187,-1.866 -0.809,-3.421 -0.809,-3.421c-0,-0 -1.369,4.043 -2.115,4.914c-0.747,0.871 -1.182,1.804 -2.115,3.049Z" style="fill:#b97a57;"/><path d="M59.754,25.342l0.414,5.665c0,-0 2.485,-1.52 3.514,-1.949c1.03,-0.429 9.756,-2.665 10.7,-2.708c0.944,-0.043 0.944,0.429 0.944,0.429c-0,-0 -3.023,3.356 -3.152,7.603c-0.128,4.247 2.746,6.435 4.677,6.435c1.93,0 5.019,-1.888 4.29,-3.99c-0.729,-2.102 -2.269,-8.334 -1.957,-9.447c0.109,-0.39 0.557,-0.472 0.557,-0.472c0,0 2.941,0.805 6.03,1.62c3.089,0.815 7.422,1.759 8.022,1.545c0.601,-0.215 1.645,-4.041 1.088,-4.513c-0.558,-0.472 -3.757,-5.499 -3.757,-5.499l-1.973,-5.792l-9.653,-4.376l-11.069,4.762l-8.675,10.687Z" style="fill:#feafc6;"/><path d="M86.256,14.841c0,-0 0.644,0.042 1.588,-0.601c0.944,-0.644 1.415,-1.931 1.415,-1.931c0,0 2.337,1.874 3.41,3.59c1.072,1.716 1.673,2.403 2.145,5.192c0.472,2.788 0.257,5.277 0.257,5.277l-2.402,-0.043c-0,-0 -2.489,-2.231 -3.089,-3.604c-0.601,-1.373 -1.588,-3.089 -2.146,-4.891c-0.557,-1.802 -1.178,-2.303 -1.178,-2.989Zm-19.375,-3.252c-0,-0 -0.086,0.987 1.372,2.102c1.459,1.116 2.875,1.673 2.875,1.673c-0,0 -3,2.766 -4.072,4.654c-1.073,1.888 -1.073,4.29 -2.274,5.234c-1.201,0.944 -5.105,0.987 -5.105,0.987c-0,-0 -0.301,-2.617 0.214,-4.634c0.515,-2.016 1.63,-5.148 2.96,-6.521c1.33,-1.373 3.3,-3.023 4.03,-3.495Z" style="fill:#837e7f;"/><path d="M78.725,13.797c-2.44,0.022 -4.462,2.017 -6.778,1.974c-2.317,-0.043 -5.062,-1.128 -5.363,-3.69c-0.295,-2.508 3.469,-6.344 7.208,-6.392c6.692,-0.086 10.639,0.901 12.699,1.287c2.059,0.386 3.646,2.917 3.561,4.247c-0.086,1.33 -1.545,3.917 -2.875,3.904c-4.505,-0.043 -3.647,-1.373 -8.452,-1.33Z" style="fill:#fef200;"/></g></g></svg>