<?xml version="1.0" encoding="UTF-8" standalone="no"?><!DOCTYPE svg PUBLIC "-//W3C//DTD SVG 1.1//EN" "http://www.w3.org/Graphics/SVG/1.1/DTD/svg11.dtd"><svg width="100%" height="100%" viewBox="0 0 150 150" version="1.1" xmlns="http://www.w3.org/2000/svg" xmlns:xlink="http://www.w3.org/1999/xlink" xml:space="preserve" xmlns:serif="http://www.serif.com/" style="fill-rule:evenodd;clip-rule:evenodd;stroke-linejoin:round;stroke-miterlimit:2;"><path id="base" d="M150,75c0,-41.394 -33.606,-75 -75,-75c-41.394,0 -75,33.606 -75,75c0,41.394 33.606,75 75,75c41.394,0 75,-33.606 75,-75Z" style="fill:#181a1f;"/><path id="outline" d="M144,75c0,-38.082 -30.918,-69 -69,-69c-38.082,0 -69,30.918 -69,69c0,38.082 30.918,69 69,69c38.082,0 69,-30.918 69,-69Z" style="fill:#9da5b4;"/><path id="core" d="M141,75c0,-36.426 -29.574,-66 -66,-66c-36.426,0 -66,29.574 -66,66c0,36.426 29.574,66 66,66c36.426,0 66,-29.574 66,-66Z" style="fill:#2c323c;"/><clipPath id="_clip1"><path d="M141,75c0,-36.426 -29.574,-66 -66,-66c-36.426,0 -66,29.574 -66,66c0,36.426 29.574,66 66,66c36.426,0 66,-29.574 66,-66Z"/></clipPath><g clip-path="url(#_clip1)"><g id="weeb"><g><path d="M37.729,16.579l23.184,-9.379c2.826,17.161 -8.624,33.436 -10.898,27.939l-12.286,-18.56Z" style="fill:#91aec2;"/><path d="M57.412,28.138c0,-0 0.859,-1.784 1.057,-3.039c0.198,-1.255 1.255,-1.981 1.585,-3.633c0.33,-1.651 -0.198,-6.142 -0.198,-6.142l-2.444,-0.859c0,0 -0.066,-0.528 0.661,-1.519c0.726,-0.991 0.924,-2.906 0.924,-2.906l-11.228,-2.378l-6.209,11.955l15.852,8.521Z" style="fill:#f8ddcc;"/><path d="M35.286,15.918c-0,0 0.132,-1.519 0.33,-6.274c0.198,-4.756 1.453,-9.71 0.858,-10.965c-0.594,-1.255 21.863,-2.642 21.863,-2.642c-0,0 3.633,7.266 3.236,9.313c-0.396,2.048 -3.897,10.436 -3.897,10.436c0,0 1.189,-7.199 0.991,-9.445c-0.198,-2.246 0.925,-4.491 -2.444,-5.086c-3.368,-0.594 -6.803,0.463 -8.85,-0.66c-2.048,-1.123 -4.029,-1.85 -4.029,-1.85c-0,0 -1.718,-1.255 -2.312,2.576c-0.595,3.831 -1.717,13.012 -1.453,14.795c0.264,1.784 -4.293,-0.198 -4.293,-0.198Z" style="fill:#865955;"/></g><g><path d="M51.12,30.693c0,-0 12.434,1.179 15.334,-10.37c2.9,-11.55 23.591,3.932 18.479,11.353c-5.111,7.421 1.868,11.746 1.868,11.746l-21.133,10.222l-5.996,3.932l-8.552,-26.883Z" style="fill:#5bc0b3;"/><path d="M63.079,16.629c-0.359,-4.165 -0.333,-8.955 0.225,-11.678c0,0 2.58,-4.558 5.971,-4.509c3.391,0.049 9.567,1.636 9.616,3.307c0.049,1.671 -0.003,12.003 -1.772,15.345c-0.947,1.789 -4.475,4.692 -6.782,4.423c-2.45,-0.285 -6.422,-4.923 -7.258,-6.888Z" style="fill:#faefef;"/><path d="M61.785,38.311c0,-0 -2.359,-7.618 -2.211,-8.847c0.147,-1.229 1.327,-6.979 1.277,-9.19c-0.049,-2.212 -1.621,-11.599 -1.474,-14.4c0.147,-2.802 2.457,-7.569 2.457,-7.569c0,-0 17.742,-3.293 20.052,-0.934c2.31,2.359 3.342,5.259 2.114,8.208c-1.229,2.949 -0.885,4.816 -0.541,5.602c0.344,0.787 0.344,2.851 0.049,4.473c-0.295,1.622 -2.211,17.005 -2.261,18.283c-0.049,1.277 -0.098,-10.272 -0.884,-11.452c-0.787,-1.179 -1.278,-0.884 -1.72,0.246c-0.443,1.13 -2.409,7.261 -3.048,14.388c-0.638,7.126 -3.047,5.701 -3.145,3.293c-0.098,-2.409 0.393,-5.751 0.688,-7.667c0.295,-1.917 2.015,-6.242 2.359,-7.815c0.344,-1.572 0.442,-3.145 0.934,-4.472c0.491,-1.327 1.671,-7.47 1.376,-10.321c-0.295,-2.85 -0.049,-5.16 -0.934,-6.88c-0.884,-1.721 -5.308,-2.31 -7.667,-1.966c-2.359,0.344 -4.177,2.26 -5.111,4.03c-0.934,1.769 -0.786,3.637 -0.786,5.553c-0,1.917 -0.099,4.768 0.835,6.586c0.934,1.818 2.752,3.735 3.834,4.571c1.081,0.835 2.31,1.671 2.31,1.671c-0,-0 -0.05,0.983 -0.738,1.966c-0.688,0.982 -0.835,2.506 -2.015,3.145c-1.179,0.639 -1.671,0.983 -3.096,1.573c-1.425,0.589 -2.064,0.737 -2.556,2.457c-0.491,1.72 -0.098,5.468 -0.098,5.468Z" style="fill:#424662;"/></g><g><path d="M107.295,17.098l-16.059,-0.082c-3.63,3.648 -6.563,8.45 -8.237,14.41c-0.743,3.741 -0.379,5.302 1.01,8.332l2.299,5.321c8.781,8.103 11.647,37.826 34.279,-4.686l-13.292,-23.295Z" style="fill:#2b1a35;"/><path d="M84.095,41.674c-0,-0 -1.277,-0.979 -1.745,-2.214c-0.469,-1.234 -0.809,-4.426 -0.298,-5.66c0.51,-1.235 2.298,-5.619 3.915,-6.3c1.618,-0.681 6.257,-0.127 6.257,-0.127l3.661,-2.554c-0,-0 0.835,-0.991 0.212,-1.362c-3.683,-2.199 -8.78,-8.19 -6.086,-6.81l-0.724,-9.024l17.962,1.192l0.676,6.588c0,-0 -2.904,1.849 -3.797,3.211c-0.894,1.362 -1.065,1.192 -1.065,1.192c0,-0 -0.922,1.523 -0.751,2.459c0.17,0.936 -0.043,1.788 -0.043,1.788c-0,-0 -2.767,2.511 -3.49,3.447c-0.724,0.937 -2.597,2.724 -3.065,3.618c-0.468,0.894 -3.277,4.342 -3.277,4.342c-0,-0 -0.383,-4.81 -0.638,-5.023c-0.256,-0.213 -1.533,0.298 -1.533,0.298c0,0 -2.937,1.234 -4.001,2.596c-1.064,1.362 -2.085,2.171 -1.915,3.193c0.17,1.021 1.405,2.809 1.319,4.086c-0.085,1.277 -1.574,1.064 -1.574,1.064Z" style="fill:#f6e8da;"/><path d="M88.342,1.072c-0,-0 -2.503,4.48 -2.705,7.144c-0.202,2.665 0.848,8.519 -0.403,11.343c-1.833,4.135 -5.231,17.523 -5.231,17.523c0,-0 1.77,-5.45 3.774,-7.775c0.88,-1.021 2.102,-2.967 2.627,-3.168c0.525,-0.202 2.947,-1.131 3.593,-0.606c0.646,0.525 1.332,0.686 1.332,0.686c-0,0 -0.283,-0.968 -0.565,-1.372c-0.283,-0.404 -0.081,-1.009 -0.081,-1.009c-0,-0 0.121,0.161 0.767,0.565c0.646,0.404 1.413,0.726 1.413,0.726c-0,0 -0.243,-1.372 -0.767,-1.897c-0.525,-0.524 -0.808,-2.381 -0.808,-2.381c0,-0 -0.161,-0.283 0.687,0.403c0.847,0.687 3.027,3.108 3.027,3.108c-0,0 -0.323,-1.695 -0.807,-2.26c-0.485,-0.565 -2.979,-4.563 -2.979,-4.563c-0,-0 1.184,0.609 1.934,1.025c0.587,0.326 1.962,0.569 1.962,0.569c-0,0 -0.543,-0.445 -1.978,-1.544c-1.166,-0.894 -2.693,-8.727 -2.693,-8.727c-0,0 0.557,0.783 1.563,1.632c1.058,0.894 3.038,1.476 3.038,1.476c0,0 -0.462,-0.586 -1.108,-1.878c-0.646,-1.292 0.099,-1.714 0.099,-1.714l10.213,3.431c-0,-0 0.34,3.117 -0.396,3.99c-1.127,1.334 -2.147,1.58 -2.147,1.58c-0,0 0.876,0.317 1.845,-0.208c0.969,-0.524 1.993,-1.249 1.993,-1.249c0,0 0.127,0.811 -1.005,2.148c-1.855,2.191 -3.193,2.438 -3.193,2.438c-0,0 2.123,0.306 3.393,-0.492c1.116,-0.702 -1.177,1.602 -1.621,2.449c-0.444,0.848 -0.524,0.848 0.444,1.332c0.969,0.485 1.776,0.525 2.14,1.211c0.363,0.687 0.565,0.969 0.807,1.453c0.242,0.485 3.31,2.221 4.198,3.391c0.888,1.171 0.727,1.332 1.453,2.987c0.727,1.655 1.009,2.866 1.413,3.916c0.404,1.049 1.09,3.431 1.09,3.431l7.265,1.574l8.598,-16.227l-20.303,-11.504l-20.627,-13.28l-1.251,0.323Z" style="fill:#3e1933;"/></g><g><path d="M118.329,46.522l-28.283,26.036l16.892,18.287c15.278,20.641 21.329,2.942 25.339,-23.246l-13.948,-21.077Z" style="fill:#211f1e;"/><path d="M94.81,44.591c0,0 8.704,2.076 10.62,1.996c1.916,-0.079 6.787,0.08 6.787,0.08c0,0 1.198,1.358 0.958,2.555c-0.239,1.198 -0.718,2.795 -0.718,2.795c-0,0 1.357,0.08 2.874,-0.399c1.517,-0.479 3.434,-0.719 3.434,-0.719c-0,0 0.479,1.358 1.677,2.555c1.197,1.198 2.874,3.434 2.874,3.434c0,-0 -0.559,2.875 0.639,5.35c1.198,2.475 3.274,5.509 3.274,5.509l11.977,2.156l20.921,-23.954l-30.024,-5.59c0,0 -9.102,-1.277 -10.3,-1.198c-1.198,0.08 -1.757,0.4 -1.757,0.4c0,-0 0.24,-0.879 -0.399,-1.198c-0.639,-0.319 -10.54,0.16 -15.331,1.198c-4.791,1.038 -7.506,5.03 -7.506,5.03Z" style="fill:#6b615b;"/><path d="M128.502,49.312c0,-0 -2.337,-2.831 -3.235,-3.685c-0.899,-0.854 -2.382,-2.741 -2.652,-3.909c-0.269,-1.169 -0.404,-6.966 -0.404,-6.966l16.492,-1.752c-0,-0 0.449,7.594 -0.27,8.628c-0.719,1.033 -1.033,2.876 -1.662,3.954c-0.433,0.742 -1.663,2.157 -2.876,2.696c-1.214,0.54 -3.326,1.124 -3.326,1.124l-2.067,-0.09Z" style="fill:#fff8ef;"/><path d="M131.333,23.338c0,0 -2.651,0.63 -4.853,1.843c-2.202,1.213 -5.752,5.527 -6.426,7.19c-0.674,1.662 -0.764,4.763 -0.809,6.471c-0.045,1.707 0.491,6.399 0.491,6.399c-0,-0 0.157,-1.028 0.343,-1.966c0.14,-0.706 0.383,-0.999 0.383,-0.999c0,-0 0.086,0.52 0.716,1.868c0.629,1.348 6.201,7.325 6.201,7.325c-0,-0 -2.337,-3.281 -3.191,-5.123c-0.854,-1.842 -1.504,-4.951 -1.504,-5.94c-0,-1.864 -0.069,-4.44 0.606,-4.89c0.674,-0.449 0.806,2.749 0.806,2.749c0,0 0.946,-1.041 1.261,-1.67c0.314,-0.629 1.213,-1.303 1.213,-1.303c-0,-0 -0.01,0.492 0.17,1.301c0.18,0.809 0.234,1.44 0.234,1.44c0,-0 0.419,-0.614 0.575,-1.22c0.115,-0.447 0.234,-1.387 0.234,-1.387c0,0 0.659,1.13 1.161,1.657c0.672,0.707 0.99,2.195 0.99,2.195c0,-0 0.411,-0.931 0.635,-1.65c0.225,-0.719 0.495,-1.662 0.495,-1.662l6.291,3.19c-0,0 0.353,2.379 -0.18,4.179c-1.394,4.709 -3.812,9.795 -3.812,9.795c0,0 4.02,-2.988 5.87,-5.948c1.275,-2.04 3.379,-13.733 3.379,-13.733c0,0 -0.179,-3.1 -4.044,-6.021c-3.865,-2.921 -7.235,-4.09 -7.235,-4.09Z" style="fill:#f9f1ce;"/></g><g><path d="M104.417,141.666l3.65,-32.55l4.142,-4.34c0,-0 2.072,-0.79 3.551,-0.691c1.48,0.099 2.762,0.789 4.439,0.395c1.677,-0.395 3.748,-3.058 3.748,-3.058l3.157,-12.034l-0.737,-4.047c0,0 -0.69,-0.591 -3.748,-2.466c-3.058,-1.874 -5.576,-6.014 -6.661,-7c-1.085,-0.987 -1.973,-2.367 -1.973,-2.367c-0,-0 2.906,0.971 4.189,1.267c1.282,0.296 8.3,2.913 8.3,2.913l11.973,-5.956l8.779,-0.296l-7.793,71.512l-35.016,-1.282Z" style="fill:#97735d;"/><path d="M118.172,78.534c-0,0 -0.681,8.448 -0.681,10.089c-0,1.641 -1.014,6.37 -1.159,7.673c-0.144,1.303 -2.396,4.44 -2.732,5.476c-0.368,1.134 -0.07,3.123 -0.07,3.123c-0,-0 0.964,-0.164 3.377,-0.137c1.84,0.021 3.496,0.244 4.171,-0.016c1.428,-0.549 2.307,-1.438 2.79,-2.162c0.482,-0.724 0.818,-2.04 0.818,-2.04l2.365,2.751c0,-0 -0.483,1.061 -0.82,1.64c-0.338,0.58 -1.545,1.689 -0.386,2.075c1.158,0.387 1.93,0.483 1.93,0.483c-0,0 1.303,1.158 0.772,1.351c-0.531,0.193 -1.158,1.158 -1.158,1.158c-0,0 -0.193,1.159 1.062,1.496c1.254,0.338 1.496,0.869 1.496,0.869l2.798,1.255l1.738,-3.523c-0,-0 -0.724,-1.882 -0.965,-2.365c-0.242,-0.482 -0.483,-1.061 -0.773,-1.496c-0.289,-0.434 -0.723,-0.675 -0.241,-1.785c0.483,-1.11 0.628,-1.979 0.048,-2.654c-0.579,-0.676 -1.544,-1.159 -1.785,-1.931c-0.241,-0.772 -0.29,-3.909 -0.193,-5.501c0.096,-1.593 0.096,-6.273 0.096,-8.011c0,-1.737 0.628,-5.935 0.628,-5.935c-0,-0 1.544,-0.58 3.957,-1.786c2.413,-1.206 5.308,-3.137 5.308,-3.137c0,0 1.448,-0.241 3.137,-1.544c1.689,-1.303 0.917,-6.08 0.917,-6.08c-0,-0 -3.523,-2.462 -6.129,-2.896c-2.606,-0.434 -8.155,-0.096 -8.879,0.097c-0.724,0.193 -6.032,3.571 -7.046,4.632c-1.013,1.062 -3.266,5.409 -3.266,5.409c-0,0 2.22,0.724 3.378,1.158c1.158,0.435 3.378,1.593 3.378,1.593c0,-0 0.322,0.72 -0.305,2.505c-0.627,1.786 -1.331,3.232 -1.331,3.232c0,0 -1.458,-0.674 -2.689,-1.608c-1.42,-1.077 -3.556,-3.458 -3.556,-3.458Z" style="fill:#b6b4ba;"/></g><g><path d="M85.289,42.559c0,0 8.723,-3.271 12.413,-3.858c3.691,-0.587 7.968,-0.251 8.555,0.839c0.587,1.09 1.342,9.478 1.342,9.478c0,-0 1.342,2.348 2.013,3.271c0.671,0.922 -0.419,3.858 -1.342,3.774c-0.922,-0.084 -1.593,-0.252 -1.593,-0.252c-0,0 3.187,4.11 4.193,5.452c1.007,1.342 4.781,6.794 3.859,9.059c-0.923,2.264 -1.678,2.012 -1.678,2.012c0,0 -0.335,-2.432 -1.09,-3.271c-0.755,-0.838 -3.523,1.426 -3.271,2.517c0.251,1.09 0.755,2.851 0.755,2.851l-3.691,1.929c0,0 -3.774,-8.135 -3.019,-10.064c0.755,-1.929 -2.433,-10.149 -2.433,-10.149l-15.013,-13.588Z" style="fill:#c97bae;"/><path d="M69.305,46.003c-0,-0 -8.019,4.742 -10.791,7.248c-2.772,2.505 -5.194,6.047 -4.713,7.189c0.481,1.141 6.54,6.99 6.54,6.99c-0,-0 0.987,2.518 1.285,3.619c0.297,1.101 3.267,2.093 3.781,1.322c0.513,-0.771 0.803,-1.399 0.803,-1.399c0,0 1.202,5.06 1.616,6.686c0.414,1.626 2.292,7.985 4.635,8.687c2.342,0.702 2.62,-0.044 2.62,-0.044c-0,-0 -1.684,-1.787 -1.864,-2.901c-0.18,-1.114 3.32,-1.849 4.011,-0.969c0.692,0.88 1.748,2.376 1.748,2.376l3.817,-1.664c0,0 -3.969,-8.043 -5.945,-8.665c-1.975,-0.622 -6.378,-8.26 -6.378,-8.26l-1.165,-20.215Z" style="fill:#c97bae;"/><path d="M94.341,92.853c-0,0 -5.446,-3.334 -6.058,-4.335c-0.611,-1 -0.333,-7.28 -0.333,-7.28c0,0 -2.167,-0.611 -3.501,-1.389c-1.334,-0.778 -5.251,-2.22 -6.14,-3.442c-0.889,-1.223 -2.307,-5.227 -2.641,-6.061c-0.333,-0.834 -0.778,-2.001 -0.778,-2.001l0.056,-5.39c-0,-0 3.834,-4.613 4.946,-5.002c1.111,-0.389 12.615,-2.278 13.782,-1.889c1.167,0.389 5.78,5.779 5.946,7.002c0.167,1.223 0.334,4.112 0.223,4.89c-0.111,0.778 0.385,4.247 0.274,4.914c-0.111,0.667 -0.991,3.044 -0.991,3.044c-0,-0 -0.779,0.482 -0.779,1.26c-0,0.778 -1.561,4.564 -1.172,5.787c0.389,1.223 1.502,3.393 1.502,3.393l-0.279,2.22l-4.057,4.279Z" style="fill:#e3c7b0;"/><path d="M76.253,95.649c-0,0 -4.34,-2.867 -7.284,-0.929c-2.945,1.937 -11.546,11.08 -13.096,14.025c-1.55,2.945 1.085,16.118 1.705,15.575c0.62,-0.542 16.118,-7.671 20.767,-16.815c4.649,-9.143 -2.092,-11.856 -2.092,-11.856Z" style="fill:#2a2951;"/><path d="M113.866,155.655l-1.298,-5.31c0,0 -2.596,-7.316 -3.304,-8.496c-0.708,-1.181 -3.304,-6.137 -2.832,-8.379c0.472,-2.242 3.54,-8.025 4.248,-10.503c0.708,-2.478 1.416,-6.844 1.888,-10.384c0.472,-3.541 1.298,-8.261 1.298,-8.261c0,0 0.944,-3.304 1.18,-4.366c0.236,-1.062 1.652,-3.068 1.534,-4.367c-0.118,-1.298 0.708,-4.956 -1.534,-6.254c-2.242,-1.298 -5.428,-2.478 -5.428,-2.478l-9.901,-2.321c-1.147,2.769 -1.893,4.132 -2.372,4.563l-2.596,2.242c-0,0 -1.888,-0.354 -2.832,-0.944c-0.944,-0.59 -2.95,-1.888 -4.367,-2.95c-1.416,-1.062 -4.838,-2.596 -4.838,-2.596l-8.614,1.888c-0,-0 -3.659,6.962 -4.013,8.732c-0.354,1.771 -0.118,11.093 -0.118,13.217c0,2.125 -0.354,4.013 0.472,6.609c0.826,2.596 -1.416,17.583 -1.416,17.583l1.062,21.713l9.087,2.125l12.981,-0.472l10.739,0.118l10.974,-0.709Z" style="fill:#681c23;"/><path d="M77.224,114.36c0,-0 -3.223,-1.501 -4.223,-2.39c-1,-0.889 -2.779,-2.278 -3.223,-3.39c-0.445,-1.111 -2.279,-5.835 -3.057,-6.78c-0.778,-0.944 -3.056,-3.334 -3.001,-4.056c0.056,-0.723 0.611,-3.446 1.167,-4.224c0.556,-0.778 1,-1.778 1,-1.778l0.667,-6.891c0,-0 1.723,1.5 2.057,2.723c0.333,1.222 2.111,4.835 2.445,6.446c0.333,1.612 1.111,2.501 1.111,2.501c0,-0 -0.055,-2.445 -0.222,-3.557c-0.167,-1.111 0.445,-3.001 0.445,-3.001l1,-0.944c-0,-0 0.444,4.668 1.056,5.89c0.611,1.223 1.333,2.223 1.445,2.946c0.111,0.722 -0.112,7.446 0.444,8.558c0.556,1.111 2.668,1.5 2.668,1.5c-0,0 -0.167,2.612 -0.556,3.835c-0.389,1.223 -1.223,2.612 -1.223,2.612Z" style="fill:#e3c7b0;"/><path d="M88.409,87.495c0.105,0.758 0.719,1.768 0.921,2.098c0.887,1.455 3.101,3.438 3.101,3.438c-0,0 -2.36,-1.012 -2.927,-1.35c-2.141,-1.278 -3.52,-2.965 -3.52,-2.965c0,0 0.266,1.432 0.796,2.175c0.53,0.742 1.856,2.652 1.856,2.652c0,-0 -3.285,-2.069 -3.974,-2.758c-0.69,-0.69 -3.133,-3.13 -3.133,-3.13c0,0 -0.371,1.379 0.318,2.546c0.69,1.167 2.319,3.38 2.319,3.38c-0,-0 -3.486,-2.266 -4.122,-3.433c-0.637,-1.167 -2.917,-4.243 -2.917,-4.243c-0,0 -0.053,0.902 0.265,2.599c0.318,1.697 0.726,2.564 0.726,2.564c-0,-0 -2.052,-2.193 -2.211,-3.094c-0.159,-0.902 -1.91,-7.903 -2.122,-9.07c-0.212,-1.167 0.053,-1.91 -0.106,-3.236c-0.159,-1.326 -1.856,-4.826 -2.599,-6.418c-0.742,-1.591 -2.599,-4.826 -2.652,-4.349c-0.053,0.477 -0.106,2.334 0.212,3.395c0.318,1.061 4.615,8.38 4.615,8.38c-0,0 -3.554,-4.561 -4.509,-5.569c-0.954,-1.008 -1.326,-2.493 -1.538,-3.819c-0.212,-1.326 -0.848,-5.463 -0.902,-6.683c-0.053,-1.22 0.531,-4.562 1.008,-6.312c0.478,-1.75 -0.371,-0.583 -1.167,0.53c-0.795,1.114 -1.909,3.236 -3.076,5.57c-1.167,2.333 -2.44,5.781 -2.44,5.781l1.857,-8.699c-0,0 2.28,-6.576 2.546,-7.213c0.265,-0.636 1.485,-2.387 2.015,-3.023c0.53,-0.637 3.076,-2.069 4.084,-2.546c1.008,-0.478 4.933,-1.22 6.047,-1.644c1.114,-0.425 2.917,-1.273 4.455,-1.91c1.538,-0.636 3.448,-0.583 5.516,-0.583c2.069,-0 3.236,0.265 5.198,0.742c1.963,0.478 4.031,2.599 5.357,3.713c1.326,1.114 2.599,2.864 3.289,3.713c0.689,0.848 1.591,3.235 2.705,5.092c1.114,1.856 1.856,4.826 2.493,6.099c0.636,1.273 -0.053,3.13 -0.053,3.13c-0,-0 -0.212,-0.743 -0.69,-1.91c-0.477,-1.167 -1.591,-2.174 -1.591,-2.174c-0,-0 -0.265,2.493 -0.424,3.606c-0.159,1.114 -0,1.592 -0,2.971c-0,1.379 0.318,2.705 0.477,4.031c0.159,1.326 0.318,2.227 0.53,3.978c0.213,1.75 0.902,3.182 1.22,4.349c0.319,1.167 1.167,2.387 1.645,3.182c0.477,0.796 -0.16,2.758 -0.584,3.819c-0.424,1.061 -1.008,2.493 -1.167,4.084c-0.159,1.592 0.425,3.13 0.425,3.13c-0,-0 -1.833,-1.764 -3.125,-3.141c-0.403,-0.489 -0.821,-0.999 -1.235,-1.507l-0.323,-0.396c-0.474,-0.697 -0.888,-1.412 -1.144,-1.874c-0.172,-0.311 -0.273,-0.508 -0.273,-0.508c-0,0 -0.116,0.682 -0.224,0.981c-0.05,-0.053 -0.092,-0.649 -0.092,-0.649c-0,0 -0.278,1.001 -0.222,2.334c0.031,0.759 -0.027,1.374 -0.083,1.763c-0.416,-1.007 -1.818,-4.023 -1.862,-4.949c-0.032,-0.66 -0.544,-1.202 -0.826,-0.927c-0.703,0.682 -0.713,0.809 -0.878,1.244c-0,-0 -0.019,0.05 -0,-0c0.197,-0.889 0.535,-2.406 0.79,-3.516c0.077,-0.191 0.159,-0.362 0.247,-0.506c0.778,-1.278 0.778,-4.001 1.111,-4.835c0.333,-0.833 1.361,-2.852 0.639,-2.018c-0.164,0.189 -1.526,0.777 -1.82,0.943c1.453,-1.935 1.788,-3.337 1.788,-3.337l-0.256,0.272c0.4,-0.889 0.96,-2.179 1.094,-2.917c0.222,-1.223 -1,-4.224 -1.445,-6.002c-0.445,-1.779 -1.445,-3.168 -1.445,-3.168c0,0 -0.5,2.001 -0.5,2.945c-0,0.945 -0.945,4.28 -0.945,4.28c0,-0 -0.222,-3.724 -0.389,-5.447c-0.167,-1.722 -2.278,-4.223 -2.278,-4.223c-0,-0 0.722,3.612 0.889,4.501c0.167,0.889 -0.889,4.057 -0.889,4.057c-0,0 -0.556,-3.001 -0.667,-4.112c-0.111,-1.112 -1.723,-3.168 -1.723,-3.168c0,0 0.167,1.89 0.167,2.89c-0,1 -0.389,3.779 -0.389,3.779c-0,-0 -0.667,-2.168 -0.945,-3.779c-0.278,-1.612 -1.778,-4.946 -1.778,-4.946c-0,-0 -0.111,5.335 0.333,7.947c0.445,2.612 1.778,6.168 1.778,6.168c0,0 -2.389,-2.278 -3.056,-3.001c-0.667,-0.722 -2.668,-2.778 -2.668,-2.778c0,-0 1.167,2.112 1.779,3.056c0.611,0.945 1.222,2.223 1.222,2.223c0,0 -3.112,-2.056 -4.279,-3.39c-1.167,-1.333 -3.223,-4.89 -3.223,-4.89c0,-0 0.778,3.612 1.445,4.557c0.667,0.945 2.667,3.001 2.667,3.001c0,-0 -3.445,-2.056 -4.056,-2.834c-0.612,-0.778 -1.89,-4.002 -1.89,-4.002c0,0 0.389,3.501 1,4.391c0.612,0.889 1.223,2.278 1.223,2.278c0,0 -1.612,-1.056 -2.056,-1.667c-0.445,-0.611 -1.445,-2.945 -1.445,-2.945l-0.5,1.5c-0,-0 0.555,1.056 1,1.723c0.445,0.667 2.445,2.89 2.445,2.89c0,-0 -0.722,-0.167 -1.278,-0.556c-0.556,-0.389 -2.445,-2.168 -2.445,-2.168l0.111,1.223c0,0 2.223,4.279 2.501,4.724c0.278,0.444 1.723,2.667 2.612,3.39c0.889,0.722 2.723,2.056 3.89,2.556c0.874,0.375 3.117,1.304 3.877,1.657c-0,-0 -0.141,2.12 -0.035,2.651c0.058,0.291 -0.292,2.132 0.507,3.616Z" style="fill:#2a2951;"/></g><g><path d="M81.902,150.406c0,-0 -0.697,-1.295 -1.943,-2.541c-1.245,-1.245 -3.088,-3.387 -3.088,-3.387c0,0 -1.295,-0.697 -1.843,-1.245c-0.548,-0.548 -1.445,-4.185 -1.445,-4.185c0,0 0.698,-2.64 1.943,-2.789c1.245,-0.15 1.644,0.1 2.391,-0.498c0.747,-0.598 1.594,-1.146 2.092,-2.142c0.498,-0.996 1.893,-3.437 2.192,-4.483c0.299,-1.046 -0.398,-6.526 -0.398,-6.526l-11.059,0.548l-8.269,29.44l19.427,-2.192Z" style="fill:#fdf8d1;"/><path d="M61.33,133.27c-0,0 0.747,-1.444 1.693,-1.295c0.947,0.149 3.836,0.05 3.836,0.05c-0,-0 1.046,2.64 1.843,2.989c0.797,0.348 0.398,1.544 2.042,1.594c1.644,0.049 1.395,-0 1.993,-0.05c0.597,-0.05 2.44,-0.199 2.44,-0.199c-0.385,1.94 -0.528,4.269 -0.249,7.272c0,0 -1.295,0.1 -2.44,0.05c-1.146,-0.05 -2.79,0.598 -3.637,0.996c-0.847,0.399 -2.839,1.694 -3.437,2.092c-0.598,0.399 -3.636,-5.579 -3.636,-5.579l-0.448,-7.92Z" style="fill:#f7f6f7;"/><path d="M65.115,143.88c0,0 1.644,-1.893 2.142,-3.138c0.498,-1.245 0.797,-2.241 0.648,-3.786c-0.15,-1.544 0.448,-3.238 -1.395,-3.835c-1.843,-0.598 -4.134,-0.698 -4.134,-0.698c-0,0 -0.05,-2.142 0.149,-4.234c0.199,-2.092 -0.1,-3.287 0.249,-4.084c0.349,-0.797 0.996,-1.644 1.096,-2.591c0.1,-0.946 0.498,-1.942 0.149,-3.387c-0.348,-1.444 0,-3.188 0,-3.188c0,0 5.579,0.747 6.875,0.498c1.295,-0.249 1.743,-0.398 3.237,-0.498c1.495,-0.1 4.334,-0.249 5.43,0.05c1.096,0.299 3.039,0.448 3.039,0.448c-0,0 2.59,-0.448 3.088,-0.398c0.498,0.05 3.138,0.348 3.138,0.348l-1.544,4.284c-0,0 -0.648,0.698 -0.747,1.146c-0.1,0.448 -0.648,1.494 -0.249,3.487c0.398,1.992 2.441,6.625 2.441,6.625l-2.392,-2.291c0,-0 0.2,1.394 -0.099,2.54c-0.299,1.146 -2.341,3.836 -2.69,4.284c-0.349,0.448 -0.897,4.633 -0.897,4.633l-0.548,-2.192c0,-0 0.548,-0.349 -0.448,1.444c-0.996,1.794 -1.195,6.227 -1.195,6.227l-0.15,-5.081c0,0 -1.046,1.544 -1.494,2.341c-0.449,0.797 -1.395,1.594 -1.395,1.594c0,0 0.349,-2.59 0.747,-3.985c0.399,-1.395 0.648,-3.038 0.648,-3.038c-0,-0 -1.495,0.548 -1.744,1.096c-0.249,0.547 -2.241,1.344 -2.241,1.344l3.138,-4.533c-0,0 1.146,-0.846 1.843,-2.092c0.697,-1.245 1.046,-4.284 1.046,-4.284c0,0 -0.747,-0.149 -1.544,0.399c-0.797,0.548 -2.341,1.245 -1.744,0.299c0.598,-0.947 1.893,-3.985 1.893,-3.985c0,-0 -1.245,1.195 -1.893,1.743c-0.647,0.548 -2.44,1.096 -2.44,1.096c-0,0 1.345,-2.341 1.643,-3.487c0.299,-1.145 0.1,-2.192 0.1,-2.192c0,0 -1.594,2.491 -2.789,3.238c-1.196,0.748 -2.391,1.594 -2.391,1.594l-0.1,-1.893c-0,0 -1.943,0.1 -1.793,1.594c0.149,1.495 -0.05,2.591 0.249,3.637c0.299,1.046 0.996,4.035 0.747,4.931c-0.249,0.897 -1.843,4.334 -1.843,4.334l-3.836,3.636Z" style="fill:#eee5e3;"/></g><g id="Billy"><path d="M-1.85,80.945l56.182,18.466c0,0 2.518,1.089 3.199,2.042c0.68,0.952 2.381,4.082 2.585,5.103c0.204,1.021 0.817,4.287 1.157,6.192c0.34,1.906 0.544,4.627 0.749,6.328c0.204,1.702 -0.068,5.172 0.204,6.601c0.272,1.429 0.204,5.239 0.34,6.532c0.136,1.293 0.816,2.994 1.157,4.899c0.34,1.906 0.748,3.811 0.748,3.811c0,-0 0.545,5.648 0.749,6.464c0.204,0.817 0.34,3.402 0.34,3.402l-66.752,0.681l-0.658,-70.521Z" style="fill:#e5e5dd;"/><path d="M-7.96,85.974c1.364,1.927 16.464,-13.674 14.4,-19.534c-0.589,-1.671 -2.151,-6.203 -2.212,-7.865c-0.062,-1.661 0.246,-3.569 0.984,-4.061c0.739,-0.492 2.216,-1.169 3.262,-0.615c1.046,0.553 4.652,0.395 5.821,1.195c1.169,0.8 0.455,3.789 0.825,3.174c0.369,-0.616 2.707,-4.369 2.707,-4.369c0,-0 0.369,-1.662 1.354,-2.77c0.985,-1.107 1.292,-1.907 2.4,-2.523c1.108,-0.615 32.984,-10.215 32.984,-10.215c-0,0 4.246,0.985 5.415,2.093c1.169,1.107 1.477,2.461 1.538,4.061c0.062,1.6 0.493,3.938 1.108,5.538c0.615,1.6 1.108,4.8 1.169,6.154c0.062,1.354 1.455,5.48 1.455,7.08c-0,1.6 -0.47,5.966 -0.655,6.95c-0.184,0.985 -0.861,9.354 -0.861,9.354c-2.609,8.7 -12.847,16.455 -12.847,16.455l-8.647,6.122l0.077,3.137c-0,0 -0.077,3.597 -0.46,4.286c-0.382,0.688 -0.229,1.989 -1.989,2.219c-1.76,0.229 -3.673,0.612 -5.587,-0.23c-1.913,-0.842 -8.494,-4.132 -9.565,-5.357c-1.071,-1.224 -6.964,-6.657 -8.8,-7.882c-1.837,-1.224 -4.975,-3.749 -7.041,-4.591c-2.066,-0.842 -7.27,-4.362 -9.106,-4.974c-1.837,-0.612 -7.729,-2.832 -7.729,-2.832Z" style="fill:#d1a884;"/><path d="M5.199,54.452c0,0 0.087,-1.924 2.41,-3.171c0.618,-0.332 9.062,-5.38 9.062,-5.38l4.233,3.629c0,-0 -0.061,0.8 -0.492,1.723c-0.431,0.923 -1.108,2.153 -1.6,4.184c-0.492,2.031 -0.739,3.015 -0.739,4.985c0,1.969 -0.492,4.123 -0.061,6.215c0.431,2.092 0.738,3.261 1.907,5.353c1.17,2.093 1.908,3.385 3.385,5.231c1.477,1.846 3.2,3.692 4.923,4.738c1.723,1.047 3.508,1.908 5.108,1.97c1.599,0.061 4.307,0.184 4.984,-0.616c0.677,-0.8 1.723,-1.907 1.969,-3.015c0.246,-1.108 0.431,-3.508 1.416,-4.246c0.984,-0.739 1.661,-0.8 3.446,-1.6c1.784,-0.8 3.076,-1.846 4.061,-2.4c0.985,-0.554 3.631,-1.169 4.431,-1.169c0.8,-0 3.076,-0.431 4.553,0.554c1.477,0.984 2.277,2.646 3.57,2.523c1.292,-0.123 3.076,-4.369 3.076,-4.369l-0.369,7.445c0,0 -0.061,5.046 -0.123,5.846c-0.061,0.8 0.615,3.447 0.369,4.739c-0.246,1.292 -0.738,2.954 -1.354,4.246c-0.615,1.292 -2.276,4.738 -2.769,5.23c-0.492,0.493 -2.338,2.031 -4.061,2.77c-1.723,0.738 -5.108,1.6 -6.031,2.092c-0.923,0.492 -1.169,0.984 -2.646,0.8c-1.477,-0.185 -4.8,-0.185 -7.507,-0.923c-2.708,-0.739 -3.692,-1.846 -6.892,-3.016c-3.2,-1.169 -3.57,-1.353 -5.723,-2.461c-2.154,-1.108 -4.862,-4.246 -6.031,-5.231c-1.169,-0.984 -2.215,-1.661 -3.261,-2.584c-1.047,-0.923 -1.785,-0.739 -2.277,-2.154c-0.493,-1.415 -1.169,-5.846 -1.169,-5.846c-0,0 0.615,-6.154 0.369,-7.384c-0.246,-1.231 -0.246,-7.446 -0.308,-8.431c-0.061,-0.984 -0.308,-3.015 -0.677,-4.184c-0.369,-1.17 -1.415,-2.893 -1.907,-3.385c-0.493,-0.492 -0.247,-1.292 -1.97,-1.969c-1.723,-0.677 -3.507,-0.985 -3.507,-0.985l-1.798,0.246Zm35.643,32.184c1.547,-2.11 1.538,-2.584 1.785,-4c0.246,-1.415 0.246,-2.584 0.861,-3.507c0.615,-0.923 1.292,-1.539 3.015,-2.093c1.723,-0.553 5.846,-2.707 5.846,-2.707c0,-0 0.8,-1.108 2.585,-0.739c1.784,0.37 2.584,1.047 2.954,1.662c0.369,0.615 0.492,2.154 0.369,3.446c-0.123,1.292 0.123,1.723 -0.123,3.569c-0.246,1.846 -0,2.215 -0.431,3.508c-0.431,1.292 0.739,1.661 -1.292,2.646c-2.031,0.984 -4.123,1.292 -4.862,1.661c-0.738,0.369 -2.338,1.108 -3.692,0.431c-1.354,-0.677 -1.661,-0.861 -3.077,-1.415c-1.415,-0.554 -4.615,-1.539 -3.938,-2.462Zm-41.66,-10.769c-0,0 4.184,-1.723 4.799,-2.953c0.616,-1.231 1.17,-5.97 1.17,-6.708c-0,-0.738 0.123,-3.138 0.123,-3.138c-0,-0 1.292,2.276 2.277,3.507c0.984,1.231 1.046,1.846 1.969,2.585c0.923,0.738 1.292,2.954 1.292,2.954l-0.431,4.738c0,-0 -1.169,2.584 -1.6,3.2c-0.43,0.615 -3.323,4.615 -3.323,4.615l-5.292,4.246l-2.154,1.723l1.17,-14.769Z" style="fill:#9d835a;"/><path d="M5.448,53.391c-0,0 -0.362,-8.082 -0.362,-10.338c-0,-2.257 -0.161,-6.502 0.484,-9.458c0.644,-2.955 2.095,-6.609 4.943,-9.081c2.848,-2.472 3.095,-3.951 6.61,-6.072c9.35,-5.642 7.361,-4.783 9.35,-5.32c1.988,-0.537 2.095,0.107 6.555,-0.215c3.113,-0.225 4.944,-0.161 7.47,0.591c2.525,0.752 5.857,2.526 7.899,3.654c2.042,1.129 4.889,3.385 6.34,4.998c1.451,1.612 2.526,2.955 3.547,5.695c1.021,2.741 2.472,6.879 2.472,6.879c-0,-0 0.431,0.818 1.236,1.182c2.391,1.081 4.513,1.343 5.964,1.88c1.451,0.538 4.998,1.989 5.911,2.634c0.914,0.644 2.848,2.095 2.741,3.439c-0.108,1.343 -2.472,2.471 -3.171,2.418c-0.698,-0.054 -4.514,-1.183 -5.911,-1.827c-1.397,-0.645 -3.293,-1.329 -4.245,-2.042c-1.289,-0.968 -2.901,-2.042 -2.901,-2.042c-0,-0 -0.806,-0.108 -2.526,0.483c-1.72,0.591 -4.138,1.451 -5.696,2.15c-1.558,0.698 -3.332,2.203 -4.138,2.687c-0.806,0.483 -2.579,1.074 -4.621,2.31c-2.042,1.236 -3.385,2.472 -4.782,2.794c-1.397,0.323 -2.687,1.451 -6.072,1.129c-3.386,-0.323 -4.622,-0.376 -6.449,-0.86c-1.827,-0.484 -5.495,-0.638 -7.161,-1.927c-1.665,-1.29 -2.418,-1.774 -2.418,-1.774c0,0 -1.934,1.397 -2.955,1.72c-1.021,0.322 -8.114,4.313 -8.114,4.313Z" style="fill:#1e6d67;"/></g></g></g></svg>