<?xml version="1.0" encoding="UTF-8" standalone="no"?><!DOCTYPE svg PUBLIC "-//W3C//DTD SVG 1.1//EN" "http://www.w3.org/Graphics/SVG/1.1/DTD/svg11.dtd"><svg width="100%" height="100%" viewBox="0 0 150 150" version="1.1" xmlns="http://www.w3.org/2000/svg" xmlns:xlink="http://www.w3.org/1999/xlink" xml:space="preserve" xmlns:serif="http://www.serif.com/" style="fill-rule:evenodd;clip-rule:evenodd;stroke-linejoin:round;stroke-miterlimit:2;"><path id="base" d="M150,75c0,-41.394 -33.606,-75 -75,-75c-41.394,0 -75,33.606 -75,75c0,41.394 33.606,75 75,75c41.394,0 75,-33.606 75,-75Z" style="fill:#181a1f;"/><path id="outline" d="M144,75c0,-38.082 -30.918,-69 -69,-69c-38.082,0 -69,30.918 -69,69c0,38.082 30.918,69 69,69c38.082,0 69,-30.918 69,-69Z" style="fill:#9da5b4;"/><path id="core" d="M141,75c0,-36.426 -29.574,-66 -66,-66c-36.426,0 -66,29.574 -66,66c0,36.426 29.574,66 66,66c36.426,0 66,-29.574 66,-66Z" style="fill:#2c323c;"/><clipPath id="_clip1"><path d="M141,75c0,-36.426 -29.574,-66 -66,-66c-36.426,0 -66,29.574 -66,66c0,36.426 29.574,66 66,66c36.426,0 66,-29.574 66,-66Z"/></clipPath><g clip-path="url(#_clip1)"><g id="worm"><path d="M93.185,69.906c0,0 -1.493,6.108 1.425,8.618c1.39,1.196 2.443,3.529 2.443,3.529c0,0 -0.136,0.882 -3.189,0.814c-1.597,-0.035 -6.786,-0.407 -6.786,-0.407l-1.832,-2.103l7.939,-10.451Z" style="fill:#484337;"/><path d="M49.721,105.915c0,0 8.531,-1.704 8.657,-5.986c0.126,-4.282 -0.491,-5.928 -1.058,-7.817c-0.567,-1.889 -0.692,-1.804 -3.022,-6.779c-2.33,-4.975 -3.775,-13.434 -3.145,-19.165c0.629,-5.73 1.196,-9.635 2.644,-12.657c1.449,-3.023 3.401,-10.643 3.653,-12.154c0.252,-1.512 9.257,-13.476 9.257,-13.476l25.189,3.4l8.627,28.653c0,-0 0.504,9.509 -1.637,12.154c-2.141,2.644 -4.708,3.885 -6.297,3.148c-0.958,-0.444 -0.945,-1.259 -0.945,-1.259c0,-0 0.189,3.085 -0.504,5.415c-0.692,2.33 -1.511,4.786 -1.574,7.368c-0.063,2.582 1.511,6.046 3.212,7.557c1.7,1.511 9.634,8.69 9.634,8.69l-52.691,2.908Z" style="fill:#dcced2;"/><path d="M92.882,71.079c0,-0 0.653,-2.993 1.143,-5.985c0.49,-2.993 0.544,-4.19 0.762,-6.91c0.217,-2.721 0.489,-6.203 -0.762,-7.727c-1.252,-1.523 -2.829,-3.373 -4.897,-5.005c-2.068,-1.633 -3.972,-2.558 -3.972,-2.558c0,0 0.206,1.502 0.871,2.775c0.653,1.252 -0.164,1.415 -1.959,0.436c-1.796,-0.98 -2.503,-1.796 -3.265,-3.265c-0.476,-0.919 -1.034,-1.687 -1.034,-1.687c0,0 -0.87,2.993 0.599,4.244c1.469,1.252 1.306,1.796 1.306,1.796c-0.443,0.19 -3.972,0.015 -5.278,-1.632c-1.339,-1.69 -2.285,-3.102 -2.285,-4.081c-0,-0.98 -0.826,-0.657 -1.252,0.381c-0.369,0.901 0.701,3.386 0.124,3.334c0,-0 -1.974,-0.505 -2.191,-2.137c-0.218,-1.633 -0.816,-2.666 -0.816,-2.666c-0,-0 -1.502,1.346 -2.363,1.928c-1.022,0.691 -4.784,1.568 -4.997,1.089c0,0 0.369,-2.1 1.349,-3.079c0.979,-0.98 -0.159,-1.289 -3.116,1.297c-1.399,1.223 -1.752,1.203 -3.548,3.542c-1.795,2.34 -2.712,2.85 -2.712,2.85c-0,-0 -4.255,3.2 -3.82,1.133c0.435,-2.068 1.523,-3.972 2.285,-5.877c0.762,-1.904 2.666,-7.073 3.428,-8.27c0.762,-1.197 2.448,-3.645 4.081,-5.387c1.632,-1.741 4.244,-3.264 6.311,-4.352c2.068,-1.089 3.211,-1.633 5.659,-2.068c2.448,-0.435 6.475,-0.871 7.509,-0.707c1.033,0.163 3.981,-0.061 6.692,0.925c2.993,1.088 3.373,1.795 5.931,3.264c2.557,1.469 5.713,3.156 7.671,5.332c1.959,2.177 3.755,3.428 4.462,5.986c0.707,2.557 1.469,5.223 0.871,8.215c-0.599,2.993 -0.49,8.162 -0.599,10.284c-0.109,2.122 0.327,2.122 -0.326,3.972c-0.653,1.85 -1.252,3.428 -1.197,4.951c0.054,1.524 0.272,2.068 1.033,3.265c0.762,1.197 1.524,2.666 1.524,2.666c-0,-0 -2.557,-0.599 -2.993,-0.816c-0.435,-0.218 -1.523,-0.653 -3.155,-1.306c-1.633,-0.653 -2.34,-1.36 -3.102,-0.816c-0.761,0.544 -3.972,2.666 -3.972,2.666Z" style="fill:#484337;"/><path d="M17.63,134.053c-0,0 3.072,-5.821 3.881,-7.438c0.808,-1.617 3.557,-10.996 5.983,-13.422c2.425,-2.425 11.642,-5.983 15.523,-7.438c3.881,-1.455 14.743,-6.432 15.152,-5.749c0.404,0.674 -0.322,0.973 0.418,2.603c0.783,1.725 3.271,1.128 5.535,1.29c2.264,0.161 10.104,-0.085 15.602,-1.863c5.498,-1.779 14.554,-6.468 16.009,-6.468c1.455,-0 5.336,4.851 7.6,6.791c2.264,1.941 10.511,6.145 12.775,9.541c2.263,3.395 6.791,15.847 6.791,15.847c-30.393,22.77 -65.51,24.836 -105.269,6.306Z" style="fill:#25395a;"/></g></g></svg>