<?xml version="1.0" encoding="UTF-8" standalone="no"?><!DOCTYPE svg PUBLIC "-//W3C//DTD SVG 1.1//EN" "http://www.w3.org/Graphics/SVG/1.1/DTD/svg11.dtd"><svg width="100%" height="100%" viewBox="0 0 150 150" version="1.1" xmlns="http://www.w3.org/2000/svg" xmlns:xlink="http://www.w3.org/1999/xlink" xml:space="preserve" xmlns:serif="http://www.serif.com/" style="fill-rule:evenodd;clip-rule:evenodd;stroke-linecap:round;stroke-linejoin:round;stroke-miterlimit:1.5;"><path id="base" d="M150,75c0,-41.394 -33.606,-75 -75,-75c-41.394,0 -75,33.606 -75,75c0,41.394 33.606,75 75,75c41.394,0 75,-33.606 75,-75Z" style="fill:#181a1f;"/><path id="outline" d="M144,75c0,-38.082 -30.918,-69 -69,-69c-38.082,0 -69,30.918 -69,69c0,38.082 30.918,69 69,69c38.082,0 69,-30.918 69,-69Z" style="fill:#9da5b4;"/><path id="core" d="M141,75c0,-36.426 -29.574,-66 -66,-66c-36.426,0 -66,29.574 -66,66c0,36.426 29.574,66 66,66c36.426,0 66,-29.574 66,-66Z" style="fill:#2c323c;"/><clipPath id="_clip1"><path d="M141,75c0,-36.426 -29.574,-66 -66,-66c-36.426,0 -66,29.574 -66,66c0,36.426 29.574,66 66,66c36.426,0 66,-29.574 66,-66Z"/></clipPath><g clip-path="url(#_clip1)"><g id="zach-i"><path d="M102.773,140.175c0,-0 0.282,-26.117 7.637,-32.34c0,-0 4.054,0.189 5.468,1.603c1.414,1.414 5.144,8.053 9.287,10.679c2.886,1.829 -0.481,4.488 -1.886,3.677c-3.215,-1.858 -8.909,-11.339 -8.909,-11.339c0,-0 0,3.206 -0.943,4.903c-0.943,1.697 -2.829,7.543 -3.677,8.957c-0.849,1.414 -1.792,10.088 -2.64,12.445c-0.849,2.358 -4.337,1.415 -4.337,1.415Z" style="fill:#03a0e6;"/><path d="M5.333,78.525c0.863,-0 2.938,0.702 6.472,0.745c2.201,0.028 8.254,0.285 14.346,-1.52c2.115,-0.627 8.008,-3.661 10.428,-4.871" style="fill:none;stroke:#efe4b0;stroke-width:2.08px;"/><path d="M49.762,82.252c0.83,8.838 0.37,12.495 0.37,13.23c0,0.33 -0.632,4.375 -0.984,4.375" style="fill:none;stroke:#efe4b0;stroke-width:2.08px;"/><path d="M57.943,62.633c1.896,-0.481 7.722,3.535 9.486,6.473c1.422,2.37 3.333,5.384 4.249,7.835c0.622,1.663 0.78,3.169 1.188,5.149c0.09,0.434 0.991,2.427 0.991,2.971" style="fill:none;stroke:#efe4b0;stroke-width:2.08px;"/><path d="M113.173,98.556c0,4.596 0.312,8.075 0.312,12.59" style="fill:none;stroke:#f5efcf;stroke-width:4.58px;"/><path d="M88.314,86.447c-2.877,-0 -6.218,0.396 -8.516,0.396" style="fill:none;stroke:#f5efcf;stroke-width:2.08px;"/><path d="M134.26,83.278c-0.718,0.719 -0.362,1.55 -0.99,2.179c-0.912,0.912 -2.178,4.038 -2.178,5.545" style="fill:none;stroke:#f5efcf;stroke-width:2.08px;"/><path d="M42.808,98.595l14.708,0.283c0,-0 2.64,10.843 3.3,11.691c0.66,0.849 -2.357,1.603 -2.357,1.603c0,-0 -2.923,8.486 -4.149,9.523c0,-0 -0.471,5.563 1.415,9.24c1.885,3.677 2.451,9.617 2.451,9.617l-16.405,-2.452c0,-0 -3.489,-7.731 -2.923,-14.236c0,-0 -3.772,3.677 -4.243,6.034c-0.471,2.357 -15.18,10.088 -15.18,10.088c0,-0 -3.3,-15.557 7.072,-25.645c10.371,-10.089 15.839,-13.106 15.839,-13.106l0.472,-2.64Z" style="fill:#00a0e7;"/><path d="M67.416,86.15c5.129,-2.052 9.24,-6.034 10.56,-5.94c1.32,0.094 8.957,8.485 1.791,12.917c-7.165,4.431 -8.014,1.98 -9.24,0.754c-1.225,-1.226 -3.582,-7.543 -3.111,-7.731Z" style="fill:#efe4b0;"/><path d="M42.525,64.37c-2.734,-0 -11.126,-3.583 -12.634,-5.374c-1.509,-1.792 -4.054,-5.94 -3.772,-10.183c0.283,-4.243 3.772,-14.897 6.789,-16.405c3.017,-1.509 10.465,-3.772 14.803,-2.923c4.337,0.848 9.051,5.657 10.654,7.92c1.603,2.263 3.488,11.408 2.545,14.142c-0.942,2.735 -3.488,8.109 -5.374,9.335c-1.886,1.225 -10.277,3.488 -13.011,3.488Z" style="fill:#efe4b0;"/><path d="M34.039,74.27c0.756,2.015 1.792,3.017 3.489,2.357c1.697,-0.66 5.563,-3.017 5.563,-3.017l0,2.546l-2.075,1.508c0,-0 0.189,4.62 2.735,5.94c2.545,1.32 5.94,1.509 8.108,1.509c2.169,-0 6.6,-3.112 7.449,-4.149c0.848,-1.037 0.377,-6.223 0.377,-6.223c0,-0 -0.755,-5.94 -0.943,-7.071c-0.189,-1.131 1.98,-1.886 1.98,-1.886c0,-0 -0.189,-5.94 -0.66,-6.882c-0.472,-0.943 -6.6,-0.283 -9.146,0.942c-2.545,1.226 -7.543,1.792 -7.543,1.792l-0.66,3.017c0,-0 -3.205,2.64 -4.902,3.583c-1.697,0.943 -5.186,2.263 -3.772,6.034Z" style="fill:#ec1b23;"/><path d="M114.652,50.133l-14.991,8.674c0,-0 -1.885,5.94 -1.037,8.392c0.849,2.451 3.394,5.751 5.94,7.165c2.546,1.414 4.809,2.263 7.543,2.357c2.734,0.095 13.954,-3.017 14.614,-3.582c0.66,-0.566 1.98,0.094 3.111,-2.923c1.132,-3.017 2.263,-5.563 2.074,-7.826c-0.188,-2.263 2.075,-6.317 -17.254,-12.257Z" style="fill:#f5efcf;"/><path d="M87.781,89.073l-0.565,-3.866c0,-0 17.914,-7.449 22.628,-8.769c4.714,-1.32 19.234,-5.845 22.345,-3.299c3.112,2.545 6.6,9.805 3.96,13.388c0,-0 -3.583,1.886 -4.243,-1.792c-0.659,-3.677 1.038,-8.014 -3.205,-6.977c-4.243,1.038 -4.526,2.829 -6.506,4.338c-1.98,1.508 -4.148,1.414 -4.148,1.414c0,-0 -0.189,5.185 -1.32,7.354c-1.132,2.169 -0.472,13.106 -0.472,13.106l-6.128,-2.075c0,-0 -0.943,-15.557 -0.283,-17.16c0.66,-1.602 1.603,-3.205 0.094,-2.357c-1.508,0.849 -4.997,5.28 -12.162,5.94c-7.166,0.66 -9.995,0.755 -9.995,0.755Z" style="fill:#3e47cb;"/><path d="M99.944,58.053c-1.226,-1.226 -2.734,-0.943 -0.848,-4.148c1.885,-3.206 1.131,-1.415 0.66,-2.546c-0.472,-1.132 -1.038,-2.64 -0.095,-3.772c0.943,-1.131 -0.094,-1.791 1.509,-1.697c1.603,0.095 1.791,0.755 3.3,0.189c1.508,-0.566 2.168,-0.849 3.205,-1.603c1.038,-0.754 2.829,-0.754 2.829,-1.886c0,-1.131 0.377,-2.451 1.32,-2.64c0.943,-0.188 1.508,-0.565 1.98,0.472c0.471,1.037 -0.754,1.414 2.168,1.98c2.923,0.566 5.28,0.094 5.28,0.094c0,-0 0.566,-1.98 1.603,-0.943c1.037,1.037 4.149,2.64 3.489,3.96c-0.66,1.32 -1.603,0.377 -0.472,1.792c1.132,1.414 1.603,1.414 3.017,1.508c1.415,0.094 1.415,-1.697 2.64,-0c1.226,1.697 1.697,1.697 0.189,2.452c-1.509,0.754 -3.206,1.414 -3.206,1.414c0,-0 -2.074,-0.472 -0.66,0.566c1.415,1.037 2.829,0.942 3.677,1.225c0.849,0.283 1.697,-0.094 1.697,0.943c0,1.037 -0.377,1.886 -1.225,2.451c-0.849,0.566 0,0.283 -2.546,0.849c-2.546,0.566 1.32,0.566 -5.186,0.566c-6.505,-0 -11.125,-0.472 -12.916,-0.472c-1.792,-0 -5.469,-0.283 -6.883,-0.283c-1.415,-0 -3.3,0.755 -4.526,-0.471Z" style="fill:#ffc90e;"/><path d="M29.325,42.968c0,-0.174 -0.522,-0.617 -0.66,-0.755c-0.84,-0.84 -1.263,-1.923 -1.98,-2.64c-1.334,-1.333 -2.346,-3.194 -3.677,-4.525c-0.422,-0.423 -1.09,-0.901 -1.508,-1.32c-0.126,-0.126 -0.44,-0.063 -0.566,-0.189c-0.125,-0.125 -0.559,-0.094 -0.754,-0.094c-0.548,-0 -2.14,-0.217 -2.452,0.094c-0.126,0.126 -0.534,-0.031 -0.66,0.094c-0.126,0.126 -0.534,-0.031 -0.66,0.095c-0.385,0.385 -1.249,0.306 -1.697,0.754c-0.905,0.905 -0.943,1.52 -0.943,3.3c0,0.532 0.016,1.43 0.283,1.697c0.304,0.304 -0.112,1.491 0.189,1.791c0.553,0.553 2.309,-0.142 2.828,0.378c0.023,0.023 0.543,0.023 0.566,-0c0.209,-0.21 0.522,-0.428 0.754,-0.66c0.076,-0.077 0,-0.635 0,-0.755" style="fill:none;stroke:#b97a56;stroke-width:2.08px;"/><path d="M29.891,37.405c0,-1.892 -0.283,-4.008 -0.283,-6.129c0,-0.79 0.144,-2.307 -0.283,-2.734c-0.078,-0.079 0.079,-0.393 0,-0.471c-0.326,-0.326 -0.136,-1.08 -0.471,-1.415c-0.478,-0.478 -0.574,-1.328 -1.037,-1.791" style="fill:none;stroke:#b97a56;stroke-width:2.08px;"/><path d="M35.171,33.728c0,-0.197 0.367,-0.085 0.471,-0.189c0.396,-0.395 1.201,-0.352 1.697,-0.848c0.718,-0.719 1.764,-1.104 2.452,-1.792c0.226,-0.226 0.191,-0.569 0.377,-0.754c0.287,-0.288 0.552,-0.458 0.848,-0.754c0.168,-0.168 0.058,-0.529 0.189,-0.66c0.125,-0.125 0.713,-1.738 0.377,-2.075c-0.191,-0.19 -0.23,-0.796 -0.471,-1.037c-0.658,-0.658 -1.411,-1.505 -1.98,-2.074c-0.932,-0.932 -2.636,-1.032 -3.489,-1.886c-0.433,-0.433 -1.438,-0.401 -1.791,-0.754" style="fill:none;stroke:#b97a56;stroke-width:2.08px;"/><path d="M48.465,30.145c1.165,-0 2.486,-0.789 3.111,-1.414c0.135,-0.136 0.382,-0.198 0.472,-0.378c0.232,-0.465 0.591,-1.346 1.037,-1.791c0.74,-0.74 1.32,-3.016 0.66,-4.337c-0.08,-0.159 0.121,-0.633 0,-0.754c-0.142,-0.142 0.047,-0.613 -0.095,-0.755c-0.299,-0.299 -0.162,-1.199 -0.471,-1.508c-0.962,-0.962 -3.12,-1.509 -4.997,-1.509c-1.02,-0 -2.036,-0.038 -2.546,0.472c-0.246,0.246 -0.733,0.167 -0.943,0.377c-0.313,0.313 0.6,0.822 0.66,0.943c0.386,0.771 1.718,0.492 2.263,1.037c0.12,0.119 0.719,-0.059 0.755,-0.094c0.886,-0.887 2.239,-2.971 1.32,-4.809c-0.231,-0.461 -0.036,-0.884 -0.378,-1.226c-0.141,-0.141 0.048,-0.612 -0.094,-0.754c-0.439,-0.439 -0.33,-1.367 -0.754,-1.791" style="fill:none;stroke:#b97a56;stroke-width:2.08px;"/><path d="M53.839,32.879c0.332,-0 1.887,-1.132 2.074,-1.32c0.521,-0.52 0.904,-0.998 1.509,-1.603c0.185,-0.185 0.375,-0.611 0.66,-0.754c0.695,-0.347 1.012,-1.2 1.508,-1.697c0.557,-0.557 1.044,-1.421 1.698,-2.074c0.392,-0.393 0.267,-1.305 0.659,-1.697c0.067,-0.067 0,-0.556 0,-0.66c0,-0.672 0.078,-1.354 -0.188,-1.886c-0.039,-0.079 0.06,-0.318 0,-0.377c-0.368,-0.368 -0.282,-1.414 -0.66,-1.792c-0.089,-0.089 -0.015,-0.487 -0.094,-0.565c-0.559,-0.559 -0.543,-1.392 -1.037,-1.886c-0.066,-0.065 -0.029,-0.406 -0.095,-0.472c-0.568,-0.568 -0.973,-1.757 -1.32,-2.451c-0.765,-1.53 -2.43,-1.676 -3.488,-2.734c-0.071,-0.071 -1.274,-0.424 -1.509,-0.189c-0.629,0.629 0.56,0.56 0.849,0.849c0.202,0.202 2.111,0.623 2.451,0.283c0.126,-0.126 0.534,0.031 0.66,-0.095c0.189,-0.188 0.754,-0 0.943,-0.188c0.571,-0.571 0.849,-2.187 0.849,-3.112" style="fill:none;stroke:#b97a56;stroke-width:2.08px;"/><path d="M55.913,34.765c0.614,-0 1.45,0.112 1.98,0.377c0.28,0.14 1,-0 1.32,-0c1.308,-0 2.908,-0.173 3.583,-0.849c0.158,-0.158 0.679,-0.113 0.849,-0.282c0.094,-0.095 0.471,0.094 0.565,-0c0.507,-0.507 1.806,-0.109 2.357,-0.66c0.442,-0.442 0.54,-1.106 1.038,-1.603c0.185,-0.186 0.12,-0.686 0.282,-0.849c0.079,-0.078 -0.078,-0.393 0,-0.471c0.189,-0.189 0.189,-1.697 0,-1.886c-0.078,-0.079 0.079,-0.393 0,-0.471c-0.282,-0.283 0,-1.132 -0.282,-1.415c-0.236,-0.235 -0.33,-0.613 -0.566,-0.848c-0.723,-0.723 -2.935,-0.837 -3.772,-0c-0.027,0.028 0.411,0.882 0.472,0.943c0.641,0.641 1.435,1.057 2.074,1.697c0.046,0.046 0.983,0.054 1.037,-0c0.32,-0.32 0.945,-0.284 1.32,-0.472c0.704,-0.351 1.742,-1.459 2.263,-1.98c0.33,-0.329 0.66,-1.166 0.66,-1.791c0,-0.12 0.076,-0.678 0,-0.754c-0.415,-0.415 -0.221,-1.542 -0.66,-1.98c-0.189,-0.19 0.105,-1.027 -0.094,-1.226c-0.266,-0.266 -0.202,-1.05 -0.472,-1.32c-0.097,-0.097 0.003,-0.563 -0.094,-0.66c-0.55,-0.55 -0.598,-1.636 -1.226,-2.263c-0.065,-0.065 -0.029,-0.406 -0.094,-0.471c-0.357,-0.357 -0.46,-1.214 -0.848,-1.603c-0.161,-0.161 -0.148,-0.754 -0.378,-0.754" style="fill:none;stroke:#b97a56;stroke-width:2.08px;"/><path d="M128.607,99.161c-1.77,-1.416 -1.886,-1.414 -2.075,-3.489c-0.188,-2.074 -0.754,-5.468 1.98,-6.505c2.735,-1.037 4.432,-0.943 4.997,0.188c0.566,1.132 2.546,3.678 1.886,5.469c-0.66,1.791 -0.754,3.771 -2.64,4.337c-1.886,0.566 -3.677,0.377 -4.148,-0Z" style="fill:#f5efcf;"/></g></g></svg>