<?xml version="1.0" encoding="UTF-8" standalone="no"?><!DOCTYPE svg PUBLIC "-//W3C//DTD SVG 1.1//EN" "http://www.w3.org/Graphics/SVG/1.1/DTD/svg11.dtd"><svg width="100%" height="100%" viewBox="0 0 150 150" version="1.1" xmlns="http://www.w3.org/2000/svg" xmlns:xlink="http://www.w3.org/1999/xlink" xml:space="preserve" xmlns:serif="http://www.serif.com/" style="fill-rule:evenodd;clip-rule:evenodd;stroke-linejoin:round;stroke-miterlimit:2;"><path id="base" d="M150,75c0,-41.394 -33.606,-75 -75,-75c-41.394,0 -75,33.606 -75,75c0,41.394 33.606,75 75,75c41.394,0 75,-33.606 75,-75Z" style="fill:#03214f;"/><path id="outline" d="M144,75c0,-38.082 -30.918,-69 -69,-69c-38.082,0 -69,30.918 -69,69c0,38.082 30.918,69 69,69c38.082,0 69,-30.918 69,-69Z" style="fill:#1fbaed;"/><path id="core" d="M141,75c0,-36.426 -29.574,-66 -66,-66c-36.426,0 -66,29.574 -66,66c0,36.426 29.574,66 66,66c36.426,0 66,-29.574 66,-66Z" style="fill:#fff;"/><clipPath id="_clip1"><path d="M141,75c0,-36.426 -29.574,-66 -66,-66c-36.426,0 -66,29.574 -66,66c0,36.426 29.574,66 66,66c36.426,0 66,-29.574 66,-66Z"/></clipPath><g clip-path="url(#_clip1)"><path d="M120.879,111.284c0,-0 -0.127,6.314 -0.212,7.882c-0.084,1.568 -0.635,8.178 -0.635,8.178c-20.722,11.892 -21.382,-12.911 0.847,-16.06Z" style="fill:#55473a;"/><path d="M20.289,105.776c-0.205,-0.565 1.747,-3.438 1.985,-3.759c0.238,-0.322 2.166,-3.704 2.558,-4.515c0.391,-0.81 3.34,-5.842 3.661,-6.401c0.322,-0.559 3.453,-5.702 3.62,-6.205c0.168,-0.503 3.41,-6.583 4.109,-7.058c0.699,-0.475 2.851,-2.306 3.243,-2.725c0.391,-0.42 1.607,-1.664 2.026,-1.859c0.42,-0.196 2.097,-0.881 2.67,-1.048c0.573,-0.168 2.236,-0.308 2.613,-0.476c0.378,-0.167 3.187,-1.537 4.025,-1.761c0.839,-0.223 4.08,-1.249 4.948,-1.564c0.867,-0.316 24.015,18.379 25.934,19.134c1.919,0.756 3.817,1.695 5.92,1.593c2.103,-0.102 5.185,-1.205 7.288,-3.063c2.103,-1.857 3.511,-3.633 3.511,-3.633l9.636,-10.085c0,-0 12.428,3.833 12.862,7.973c0.434,4.14 0.55,9.468 0.579,11.697c0.029,2.23 0.319,5.82 0.405,6.775c0.087,0.956 -0.579,2.954 -0.55,3.591c0.029,0.637 0.116,7.296 0.145,8.165c0.029,0.868 0.029,1.939 -0.116,2.171c-0.145,0.232 -0.81,0.984 -1.679,1.737c-0.869,0.753 -2.866,1.766 -3.793,2.027c-0.926,0.261 -2.982,0.203 -2.982,0.203l0.202,3.098l-1.447,2.374c-21.997,7.94 -45.201,39.888 -64.625,-3.388c0,0 0.695,-0.695 -1.245,-0.81c-1.939,-0.116 -5.906,-0.608 -8.859,-1.969c-2.954,-1.361 -6.196,-3.533 -7.789,-4.662c-1.592,-1.129 -4.69,-2.721 -5.733,-3.329c-1.042,-0.608 -2.711,-1.096 -3.122,-2.228Z" style="fill:#ccddd7;"/><path d="M96.535,82.953c0.301,1.504 0.301,1.934 0.473,3.18c0.172,1.247 -0.086,3.138 0.43,4.255c0.516,1.117 1.289,2.707 1.891,3.438c0.601,0.731 1.805,1.547 2.406,1.934c0.602,0.387 2.45,-0.129 3.009,-0.516c0.558,-0.387 1.719,-0.215 1.719,-0.215c-0,0 -2.45,-2.148 -2.235,-2.75c0.215,-0.602 0.859,-0.817 0.129,-2.106c-0.731,-1.289 -0.516,-3.137 -0.516,-3.137c0,-0 2.836,1.891 3.739,2.793c0.902,0.903 0.645,0.989 1.633,1.418c0.988,0.43 1.246,-0.816 1.246,-0.816l-0.215,-0.817c0,0 1.762,0.215 2.364,1.934c0.602,1.719 0.731,-0.172 0.559,-0.945c-0.172,-0.774 -1.161,-3.438 -2.45,-4.47c-1.289,-1.031 -3.18,-3.867 -3.18,-3.867c-0,-0 1.805,-0.215 3.997,1.117c2.191,1.332 1.203,0.172 1.203,0.172c-0,-0 -0.988,-1.719 -1.762,-2.235c-0.774,-0.515 -2.75,-1.719 -3.653,-2.621c-0.902,-0.903 -0.945,-2.837 -0.215,-3.008c0.731,-0.172 2.235,0.257 3.051,0.128c0.817,-0.128 2.536,-0.472 3.825,-0.386c1.289,0.086 0.989,-0.559 2.579,0.258c1.59,0.816 3.051,1.246 3.051,1.246c-0,-0 -0.988,-1.032 -1.461,-1.805c-0.473,-0.774 -1.246,-2.02 -2.45,-3.18c-1.203,-1.161 -2.277,-1.676 -3.395,-2.364c-1.117,-0.687 -1.332,-1.074 -1.547,-1.762c-0.215,-0.687 1.16,-0.773 1.16,-0.773c0,-0 2.235,-1.805 0.731,-2.88c-1.504,-1.074 -2.364,-1.289 -2.664,-1.762c-0.301,-0.472 -0.43,-1.332 -0,-1.934c0.429,-0.601 1.332,-0.429 0.429,-1.805c-0.902,-1.375 -1.117,-4.512 -1.246,-5.114c-0.129,-0.601 -1.332,-3.266 -1.332,-3.266c-0,0 1.289,-2.363 1.848,-1.074c0.558,1.289 0.687,1.676 0.945,2.836c0.258,1.161 0.774,5.114 0.774,5.114c-0,0 1.676,-3.824 1.418,-5.5c-0.258,-1.676 -0.946,-3.138 -1.16,-4.126c-0.215,-0.988 -0.516,-2.192 -0.516,-2.192c-0,0 1.633,1.032 1.891,1.719c0.258,0.688 0.473,1.161 0.473,1.161c-0,-0 0.386,-1.59 0.128,-2.407c-0.257,-0.817 -1.547,-2.02 -2.578,-2.621c-1.031,-0.602 -3.653,-2.794 -4.426,-3.653c-0.774,-0.86 -14.01,-12.334 -14.01,-12.334c-0,-0 3.61,54.234 3.91,55.738Zm4.169,9.584l-0,0.988l-1.375,0l-0.258,-0.73c-0,-0 0.902,-0.258 1.504,-0.602c0.602,-0.344 0.129,0.344 0.129,0.344Zm-0.473,-1.719c-0.086,0.515 -0.73,1.289 -1.246,1.246c-0.516,-0.043 -2.02,-5.028 -0.731,-5.243c0,0 0.602,0.301 1.977,3.997Zm6.361,-3.137c-0,-0 -0.086,0.257 0.429,0.945c0.516,0.688 1.547,1.547 1.547,1.547c0,0 0.688,-0.516 0.086,-1.16c-0.601,-0.645 -2.062,-1.332 -2.062,-1.332Zm-5.587,-5.759c-0,-0 0.043,0.387 -0.903,0.988c-0.945,0.602 -1.504,0.387 -1.375,1.59c0.129,1.204 0.172,2.149 0.645,3.095c0.472,0.945 0.73,1.676 1.031,2.062c0.301,0.387 0.688,0.387 0.731,-0.214c0.043,-0.602 0.301,-1.633 0.601,-2.192c0.301,-0.559 1.118,-1.032 0.602,-1.848c-0.516,-0.817 -0.902,-2.793 -0.902,-2.793l-0.43,-0.688Zm8.122,3.954c0,-0 0.516,1.461 0.473,2.191c-0.043,0.731 -0.258,1.419 0.172,1.29c0.429,-0.129 0.258,-1.247 0.945,-1.032c0.688,0.215 1.246,0.43 1.246,0.43c0,-0 -1.848,-2.278 -2.836,-2.879Z" style="fill:#575040;"/><path d="M75.894,83.393c-11.806,-27.914 -2.573,-61.87 3.463,-63.352c-0,0 8.845,-1.077 11.633,-0.593c2.787,0.485 7.8,2.526 9.615,3.919c1.815,1.394 4.603,3.677 5.331,4.687c0.727,1.01 1.706,3.403 2.109,5.085c0.404,1.682 1.111,6.795 0.942,8.242c-0.168,1.447 -0.37,3.734 -0.437,4.474c-0.067,0.74 -0.269,0.976 -0.336,1.85c-0.068,0.875 0.168,1.75 0.201,2.187c0.034,0.437 0.909,3.028 0.841,4.272c-0.067,1.245 -1.042,4.373 -1.48,5.484c-0.437,1.11 -0.773,2.489 -1.581,3.666c-0.807,1.178 -2.287,4.004 -2.624,4.744c-0.336,0.74 -1.816,4.81 -2.085,5.584c-0.27,0.774 -2.019,7.3 -2.019,7.3c-0.17,0.309 -0.339,0.61 -0.506,0.907l-0.561,0.587c0,-0 -1.408,1.776 -3.511,3.633c-2.103,1.858 -5.185,2.961 -7.288,3.063c-2.103,0.102 -4.001,-0.837 -5.92,-1.593c-0.546,-0.215 -2.809,-1.88 -5.787,-4.146Z" style="fill:#dcbda9;"/><path d="M79.024,62.541c0.393,0.511 2.75,4.438 4.556,6.166c1.807,1.728 1.296,1.571 2.828,2.357c1.532,0.785 2.239,0.471 3.535,1.649c1.296,1.178 1.649,1.178 3.141,2.985c1.493,1.806 2.185,2.387 3.729,2.209c2,-0.23 3.184,-1.267 3.537,-2.17c0.354,-0.903 2.553,-5.852 2.553,-5.852c-0,0 0.667,0.079 0.589,0.786c-0.079,0.707 -1.375,6.048 -1.532,6.794c-0.157,0.746 -0.039,1.767 -0.667,2.789c-0.629,1.021 -1.454,2.003 -1.886,2.631c-0.432,0.628 0.315,0.511 -0.942,1.139c-1.257,0.628 -2.16,0.628 -3.338,0.589c-1.179,-0.039 -1.179,-0 -3.064,-0.432c-1.885,-0.432 -2.317,-0.785 -3.574,-1.61c-1.256,-0.825 -2.945,-1.1 -4.516,-2.317c-1.571,-1.218 -1.335,-0.982 -4.791,-2.16c-3.457,-1.179 -2.985,-0.982 -4.556,-3.064c-1.571,-2.081 4.006,-12.999 4.398,-12.489Z" style="fill:#494232;"/><path d="M26.981,109.197c0,0 -1.813,10.377 -2.006,12.614c-0.193,2.238 17.744,13.964 17.744,13.964c0,0 0.078,-3.201 0.27,-5.284c0.193,-2.083 2.739,-11.496 3.164,-13c0.424,-1.504 -19.172,-8.294 -19.172,-8.294Z" style="fill:#bda48e;"/><path d="M46.019,134.995c-0,0 -0.031,-3.011 -0.154,-3.995c-0.123,-0.983 -0.123,-2.796 -0.031,-3.657c0.093,-0.86 -0.491,-3.38 -0.676,-3.718c-0.184,-0.338 -0.307,-1.567 0.031,-2.551c0.338,-0.983 0.676,-2.857 0.922,-3.195c0.246,-0.338 1.229,-2.926 1.536,-3.196c0.308,-0.27 0.584,0.129 0.83,0.406c0.246,0.277 0.553,0.676 1.137,0.83c0.584,0.153 1.66,0.768 2.151,1.229c0.492,0.461 1.598,1.506 2.182,1.874c0.584,0.369 1.506,0.461 2.335,0.646c0.83,0.184 2.735,0.799 2.981,0.368c0.246,-0.43 0.246,-3.595 0.277,-4.179c0.031,-0.584 -0.185,-5.746 0.215,-5.992c0.399,-0.246 1.936,-0.123 3.011,0.184c1.076,0.308 5.378,1.229 6.239,1.383c0.86,0.154 2.857,-0.492 3.687,-0.83c0.83,-0.338 5.163,-2.151 6.392,-2.212c1.229,-0.062 1.506,-0.246 1.567,0.246c0.062,0.491 0.123,5.316 0.123,6.146c-0,0.829 -0.123,4.64 0.154,4.824c0.276,0.185 3.318,0.185 4.056,0.154c0.737,-0.031 2.923,0.092 3.657,0.246c0.734,0.153 2.701,0.399 3.469,0.399c0.768,0 3.349,0.092 4.363,-0.215c1.015,-0.307 3.012,-0.768 3.872,-0.768c0.861,-0 4.548,0.154 5.255,0.184c0.707,0.031 6.146,0.676 6.73,0.4c0.584,-0.277 0.86,-0.369 0.86,-0.369c0,-0 -0.43,1.321 -0.522,2.028c-0.092,0.707 -0.768,3.38 -0.86,3.934c-0.093,0.553 -0.246,1.966 -0.338,2.673c-0.093,0.707 -0.216,2.213 -0.216,2.213c-11.911,9.594 -38.562,19.463 -65.235,4.51Zm13.435,-13.986c0.061,-0.243 1.559,0.728 2.812,1.05c1.254,0.322 5.539,1 7.657,1.101c2.117,0.102 6.538,-0.762 7.521,-0.932c0.982,-0.169 2.66,-1.016 2.88,-1.27c0.22,-0.254 0.559,-0.508 0.576,0.119c0.017,0.626 0.186,9.266 -0.085,9.503c-0.271,0.237 -5.641,2.676 -6.793,3.049c-1.152,0.372 -2.236,1.152 -4.59,0.559c-2.355,-0.593 -3.575,-1.017 -4.032,-1.118c-0.457,-0.102 -3.134,-1 -4.337,-1.626c-1.202,-0.627 -1.694,-0.678 -1.846,-1.017c-0.152,-0.339 0.119,-8.944 0.237,-9.418Z" style="fill:#141e13;"/><path d="M88.06,20.055c0.433,0.145 0.533,-1.263 0.505,-1.964c-0.028,-0.702 0.449,-2.077 -0.786,-1.908c-1.234,0.168 -1.851,0.449 -2.749,0.645c-0.898,0.196 -0.926,-0.112 -2.581,-0.112c-1.656,-0 -1.319,-0.702 -3.115,0.252c-1.795,0.954 -3.843,1.123 -4.741,2.638c-0.898,1.515 -1.15,2.665 -2.469,3.899c-1.319,1.235 -1.431,1.123 -2.497,2.834c-1.066,1.711 -1.347,2.974 -1.852,4.096c-0.505,1.122 -1.346,2.02 -1.122,3.086c0.225,1.066 -1.88,2.946 -2.693,4.349c-0.814,1.403 -1.15,1.627 -1.347,2.413c-0.196,0.785 -0.084,1.178 -0.673,2.384c-0.589,1.207 -0.674,1.431 -1.571,2.778c-0.898,1.347 -2.806,2.637 -3.255,4.068c-0.449,1.431 -0.028,1.291 -1.234,3.03c-1.207,1.74 -0.561,1.403 -1.263,3.03c-0.701,1.627 -1.153,1.928 -1.773,3.169c-0.62,1.24 -0.839,1.495 -0.729,2.152c0.109,0.657 0.109,0.365 0.182,1.423c0.073,1.058 0.073,2.809 0.62,3.429c0.547,0.62 0.438,0 1.204,1.24c0.766,1.241 1.022,1.241 0.876,2.189c-0.146,0.949 -0.876,3.393 -0.949,3.831c-0.073,0.438 -1.678,-0.365 -2.444,-0.11c-0,0 2.262,0.146 2.079,1.241c-0.182,1.094 -0.401,1.568 -0.401,1.568c0,0 -2.773,0.912 -2.627,3.721c0,0 -0.036,-2.261 2.591,-3.283c-0,0 0.036,2.517 0.072,3.283c0.037,0.767 0.876,5.837 0.73,7.406c-0.146,1.569 -0.219,2.517 -0.438,3.466c-0.219,0.948 1.241,-2.043 1.241,-2.043c-0,-0 -0.037,-0.657 0.364,0.62c0.402,1.277 -0.218,1.496 0.84,1.788c1.058,0.292 1.24,0.109 2.517,0.036c1.277,-0.073 1.568,-1.021 2.772,0.073c1.204,1.095 1.861,1.095 2.627,1.605c0.766,0.511 0.438,0.584 2.116,1.131c1.678,0.547 1.751,0.037 2.955,1.168c1.204,1.13 0.729,1.313 2.079,1.641c1.35,0.329 4.159,0.402 4.159,0.402c0,-0 -3.794,-1.095 -4.414,-1.752c-0.62,-0.656 -0.62,-2.043 -0.62,-2.043c-0,0 1.459,0.475 2.371,0.767c0.912,0.291 1.642,0.182 2.262,0.693c0.62,0.51 5.472,2.152 6.019,2.225c0.547,0.073 -0.292,-0.584 1.35,0.037c1.642,0.62 4.451,0.656 4.451,0.656c-0,0 -0.544,0.351 -0.965,-0.043c-0.422,-0.395 -1.151,-0.65 -0.385,-1.051c0.766,-0.402 1.605,-0.62 2.408,-0.803c0.802,-0.182 1.751,-0.511 1.751,-0.511c-0,0 -2.444,1.022 -3.685,-0.218c-1.24,-1.241 0.146,-1.022 -2.481,-2.445c-2.626,-1.422 -4.122,-1.605 -3.94,-2.809c0.183,-1.204 0.146,-1.459 0.548,-2.699c0.401,-1.241 0.109,0.073 0.51,-1.897c0.402,-1.97 -0.802,-2.116 0.657,-2.408c1.459,-0.292 2.335,-1.022 2.663,-1.715c0.329,-0.693 1.532,-1.714 1.532,-1.714l0.438,-0.548c0,0 0.146,1.241 0.62,2.153c0.475,0.912 0.402,1.167 0.73,1.313c0.328,0.146 0.876,0.803 0.803,-1.021c-0.073,-1.824 -0.183,-1.788 -0.365,-3.43c-0.183,-1.641 0.109,-1.714 -0.511,-2.954c-0.62,-1.241 -0.803,-1.168 -1.605,-2.7c-0.803,-1.532 -1.678,-4.962 -1.678,-4.962c-0,0 2.152,-2.699 2.371,-3.794c0.219,-1.094 0.036,-2.188 0.036,-2.188c0,-0 -0.437,3.611 -1.751,4.304c-1.313,0.693 -2.079,0.657 -2.48,-0.766c-0.402,-1.423 -0.876,-2.152 -1.022,-3.611c-0.146,-1.46 -0.109,-2.809 -0.182,-3.977c-0.073,-1.167 0.511,-6.968 0.656,-8.172c0.146,-1.203 0.511,-0.62 0.11,-3.21c-0.401,-2.59 -0.547,-4.451 -0.401,-5.946c0.146,-1.496 -0.037,-1.934 0.182,-3.247c0.219,-1.313 1.021,-4.524 1.642,-5.108c0.62,-0.583 1.313,0.438 1.714,-0.109c0.402,-0.547 1.496,-2.152 1.277,-3.137c-0.219,-0.985 -0.365,-2.627 -1.313,-3.211c-0.949,-0.583 -1.788,-1.131 -1.934,-2.079c-0.146,-0.949 1.095,-1.277 1.678,-1.277c0.584,0 2.664,0.219 2.408,-0.073c-0.255,-0.292 -0.511,-0.62 -0.511,-0.62c0,-0 -0.488,-1.348 1.836,-0.564Z" style="fill:#a39c80;"/></g></svg>