<?xml version="1.0" encoding="UTF-8" standalone="no"?><!DOCTYPE svg PUBLIC "-//W3C//DTD SVG 1.1//EN" "http://www.w3.org/Graphics/SVG/1.1/DTD/svg11.dtd"><svg width="100%" height="100%" viewBox="0 0 150 150" version="1.1" xmlns="http://www.w3.org/2000/svg" xmlns:xlink="http://www.w3.org/1999/xlink" xml:space="preserve" xmlns:serif="http://www.serif.com/" style="fill-rule:evenodd;clip-rule:evenodd;stroke-linejoin:round;stroke-miterlimit:2;"><path id="base" d="M150,75c0,-41.394 -33.606,-75 -75,-75c-41.394,0 -75,33.606 -75,75c0,41.394 33.606,75 75,75c41.394,0 75,-33.606 75,-75Z"/><path id="outline" d="M144,75c0,-38.082 -30.918,-69 -69,-69c-38.082,0 -69,30.918 -69,69c0,38.082 30.918,69 69,69c38.082,0 69,-30.918 69,-69Z" style="fill:#f04747;"/><path id="core" d="M141,75c0,-36.426 -29.574,-66 -66,-66c-36.426,0 -66,29.574 -66,66c0,36.426 29.574,66 66,66c36.426,0 66,-29.574 66,-66Z" style="fill:#ecf0f1;"/><clipPath id="_clip1"><path d="M141,75c0,-36.426 -29.574,-66 -66,-66c-36.426,0 -66,29.574 -66,66c0,36.426 29.574,66 66,66c36.426,0 66,-29.574 66,-66Z"/></clipPath><g clip-path="url(#_clip1)"><g id="ability"><path d="M36.768,135.943c1.135,0 2.173,-2.016 0.78,-2.451c-0.383,-0.12 -1.076,0.306 -1.13,0.71c-0.023,0.172 0.226,0.437 0.09,0.591c-0.212,0.237 -0.92,0.191 -1.221,0.275c-0.216,0.06 -0.818,0.381 -1.006,0.14c-0.098,-0.127 0.005,-0.541 0.005,-0.7c0,-0.305 -0.325,-0.679 -0.155,-0.946c0.117,-0.183 0.355,-0.119 0.536,-0.155c0.311,-0.062 0.559,-0.418 0.58,-0.726c0.026,-0.392 -0.148,-0.747 -0.54,-0.87c-0.143,-0.045 -0.444,0.034 -0.511,-0.14c-0.137,-0.356 0.05,-0.868 -0.015,-1.256c-0.049,-0.297 -0.104,-0.663 -0.29,-0.905c-0.309,-0.402 -1.429,-0.757 -1.916,-0.711c-0.729,0.07 -0.94,0.616 -0.645,1.206c0.266,0.532 0.773,0.986 1.205,1.386c0.163,0.149 0.441,0.298 0.551,0.49c0.044,0.078 -0.026,0.157 0.005,0.225c0.048,0.11 0.571,0.253 0.55,0.325c-0.023,0.079 -0.319,0.104 -0.39,0.135c-0.331,0.145 -0.686,0.362 -0.896,0.666c-0.197,0.285 0.048,0.539 0.11,0.83c0.062,0.288 -0.001,0.615 -0.105,0.886c-0.175,0.456 -0.91,0.211 -0.945,0.705c-0.053,0.733 1.43,0.957 1.931,0.801c0.277,-0.087 0.715,-0.159 0.92,-0.381c0.178,-0.192 0.065,-0.61 0.401,-0.61c0.317,0 0.543,0.202 0.81,0.335c0.367,0.184 0.854,0.275 1.261,0.275l0.03,-0.13Zm11.566,-10.055c0.018,-0.108 0.075,-0.245 0.086,-0.276c0.124,-0.347 0.459,-0.392 0.67,-0.65c0.414,-0.506 0.068,-1.119 0.29,-1.696c0.095,-0.247 0.248,-0.441 0.461,-0.601c0.059,-0.044 0.244,-0.107 0.22,-0.205c-0.076,-0.303 -0.469,-0.539 -0.571,-0.865c-0.167,-0.535 0.186,-1.116 -0.175,-1.611c-0.297,-0.409 -0.939,-0.383 -1.17,-0.846c-0.19,-0.38 0.117,-0.665 0.495,-0.645c0.797,0.042 1.969,0.691 2.111,1.546c0.089,0.534 -0.109,1.125 0.095,1.636c0.152,0.379 0.955,0.302 0.911,0.915c-0.024,0.332 -0.802,0.371 -0.921,0.726c-0.07,0.209 0.044,0.47 0.07,0.68c0.05,0.397 0.021,0.859 -0.2,1.206c-0.334,0.526 -1.087,1.161 -1.681,1.331c-0.365,0.104 -0.823,0.072 -0.92,-0.415c-0.038,-0.189 0.13,-0.265 0.13,-0.391l0.099,0.161c-0.015,0.089 -0.004,0.158 0.081,0.129l-0.081,-0.129Zm51.804,-15.957c-0.129,0.086 -0.323,0.015 -0.466,0.075c-0.316,0.132 -0.79,0.635 -0.79,1c-0,0.387 0.433,0.546 0.755,0.526c0.128,-0.008 0.246,-0.053 0.356,-0.115c0.013,-0.008 0.151,-0.089 0.155,-0.075c0.014,0.057 -0.044,0.19 -0.055,0.25c-0.042,0.224 0.037,0.771 -0.155,0.92c-0.303,0.236 -0.885,0.227 -1.006,0.681c-0.176,0.658 0.619,1.13 1.176,1.05c0.246,-0.035 0.67,-0.229 0.67,-0.53c0,-0.176 -0.09,-0.622 -0.23,-0.73c-0.095,-0.073 -0.343,-0.07 -0.4,-0.171c-0.09,-0.156 0.058,-0.838 0.095,-1.02c0.038,-0.189 0.378,-0.172 0.515,-0.29c0.423,-0.367 0.685,-1.313 0.035,-1.591l-0.655,0.02Zm15.769,-5.964c0.513,0 0.277,-0.942 0.29,-1.176c0.049,-0.821 0.838,-0.777 1.401,-0.58c0.202,0.071 0.493,0.19 0.596,0.395c0.097,0.196 -0.097,0.52 -0.161,0.711c-0.283,0.851 -0.838,1.354 -1.716,1.591c-0.412,0.111 -1.013,0.38 -1.095,-0.195l0.685,-0.746Zm-11.407,-4.322c-0.604,-0.404 -1.29,0.578 -1.185,1.1c0.058,0.294 0.415,0.38 0.67,0.38c0.053,0 0.44,-0.06 0.44,-0.01c0,0.091 -0.119,0.247 -0.14,0.351c-0.044,0.219 0.093,0.765 -0.025,0.93c-0.078,0.109 -0.341,0.137 -0.455,0.22c-0.388,0.285 -0.893,1.048 -0.11,1.216c0.428,0.092 1.707,0.072 1.546,-0.625c-0.059,-0.253 -0.443,-0.467 -0.48,-0.656c-0.031,-0.154 0.277,-0.316 0.2,-0.565c-0.076,-0.243 -0.447,-0.341 -0.486,-0.575c-0.019,-0.116 0.499,-0.249 0.606,-0.336c0.629,-0.511 0.287,-1.102 -0.29,-1.39l-0.291,-0.04Zm-53.203,-4.755c-0.125,-0.083 -0.101,-0.293 -0.226,-0.395c-0.224,-0.183 -0.687,-0.06 -0.82,-0.345c-0.087,-0.186 -0.007,-0.408 0.005,-0.601c0.025,-0.403 -0.022,-0.896 -0.15,-1.28c-0.058,-0.173 -0.598,-0.469 -0.581,-0.541c0.023,-0.089 0.232,-0.162 0.301,-0.21c0.139,-0.096 0.296,-0.297 0.335,-0.465c0.085,-0.371 0.055,-0.844 0.055,-1.226c-0,-0.155 -0.047,-0.403 0.04,-0.54c0.079,-0.125 0.406,-0.143 0.54,-0.22c0.507,-0.29 0.858,-1.017 0.21,-1.366c-0.978,-0.527 -2.111,0.757 -2.111,1.661c0,0.313 0.247,0.936 0.03,1.216c-0.221,0.284 -1.199,0.002 -1.326,0.425c-0.043,0.144 0.169,0.363 0.23,0.485c0.169,0.338 0.299,0.65 0.606,0.896c0.228,0.182 0.556,0.294 0.75,0.51c0.257,0.286 -0.15,0.865 -0.08,1.216c0.095,0.472 0.753,0.61 1.096,0.815l1.096,-0.035Zm44.878,-11.577c-0.049,-0.099 -0.362,-0.084 -0.455,-0.105c-0.225,-0.05 -0.398,-0.275 -0.445,-0.495c-0.044,-0.204 -0.047,-0.809 0.17,-0.925c0.134,-0.072 0.401,0.002 0.5,-0.126c0.112,-0.143 0.08,-0.926 0.035,-1.105c-0.015,-0.062 -0.117,0.017 -0.155,0.02c-0.1,0.007 -0.193,-0.027 -0.285,-0.06c-0.316,-0.113 -0.702,-0.378 -0.725,-0.746c-0.068,-1.073 1.553,-1.383 2.191,-0.745c0.287,0.287 0.279,0.807 -0.065,1.046c-0.172,0.118 -0.457,0.14 -0.596,0.295c-0.119,0.133 -0.269,0.819 -0.29,1.005c-0.007,0.069 0.316,0.024 0.381,0.04c0.238,0.06 0.509,0.237 0.59,0.481c0.213,0.639 -0.162,1.38 -0.871,1.38l0.02,0.04Zm11.527,-19.539c-0.566,-0 -0.988,-0.625 -0.44,-1.056c0.274,-0.215 0.876,-0.177 1.066,-0.475c0.112,-0.176 -0.026,-0.365 -0.05,-0.545c-0.049,-0.363 0.253,-0.701 0.61,-0.721c0.708,-0.039 0.89,0.871 0.74,1.381c-0.203,0.692 -1.095,1.284 -1.776,1.381l-0.15,0.035Zm-15.801,-3.984c0.117,0.081 0.258,0.23 0.292,0.272c0.272,0.339 0.407,0.888 0.12,1.27c-0.045,0.06 0.092,0.008 0.16,0.02c0.107,0.02 0.222,0.056 0.315,0.11c0.198,0.116 0.238,0.403 0.225,0.611c-0.044,0.713 -0.694,0.625 -1.22,0.625l0.02,-0.165c-0.031,-0.062 -0.242,-0.054 -0.3,-0.065c-0.175,-0.033 -0.34,-0.089 -0.456,-0.23c-0.264,-0.323 -0.113,-0.816 0.18,-1.056c0.114,-0.092 0.248,-0.152 0.391,-0.09c0.023,0.01 0.22,0.121 0.22,0.12c0.068,-0.271 -0.027,-0.743 -0.01,-1.04c0.005,-0.097 -0,-0.199 -0.095,-0.251c-0.434,-0.233 -1.004,0.042 -1.301,-0.52c-0.228,-0.43 0.026,-1.475 0.59,-1.511c0.666,-0.041 1.573,0.333 1.621,1.101c0.02,0.317 -0.259,0.567 -0.51,0.71c-0.075,0.043 -0.155,0.082 -0.242,0.089Zm0,0c-0.058,-0.04 -0.109,-0.063 -0.138,-0.049c-0.017,0.009 0.1,0.05 0.11,0.05c0.009,0 0.019,0 0.028,-0.001Zm40.787,-6.32c-0.492,-0 -1.714,-0.163 -0.733,-0.797c0.179,-0.116 0.809,-0.168 0.886,-0.306c0.299,-0.539 0.028,-1.523 0.757,-1.804c0.733,-0.282 0.993,0.443 0.829,1.031c-0.199,0.716 -0.748,0.893 -1.304,1.264l-0.435,0.612Zm-57.243,-1.421c-0.243,0 -0.615,0.059 -0.846,-0.03c-0.278,-0.107 -0.59,-0.741 -0.44,-1.02c0.114,-0.211 0.558,-0.06 0.61,-0.295c0.027,-0.121 -0.189,-0.368 -0.22,-0.501c-0.067,-0.293 0.014,-0.601 -0.045,-0.895c-0.066,-0.33 -0.628,-0.123 -0.66,-0.601c-0.039,-0.584 0.533,-1.096 1.101,-1.06c0.577,0.036 1.093,0.738 1.06,1.296c-0.018,0.307 -0.27,0.514 -0.54,0.615c-0.068,0.025 -0.435,0.031 -0.435,0.055c-0,0.203 0.066,0.358 0.015,0.575c-0.015,0.064 -0.106,0.25 -0.075,0.311c0.041,0.082 0.188,-0.051 0.275,-0.021c0.171,0.062 0.389,0.199 0.505,0.341c0.32,0.391 0.274,1.182 -0.215,1.446c-0.228,0.122 -0.413,0.059 -0.651,0.02l0.561,-0.236Zm-7.925,-8.645c0.4,0 0.509,-0.566 0.37,-0.87c-0.166,-0.365 -0.854,-0.15 -1.015,-0.506c-0.154,-0.337 0.252,-0.96 0.275,-1.325c0.037,-0.598 -0.236,-1.28 -0.29,-1.881c-0.036,-0.393 -0.172,-1.428 0.18,-1.717c0.277,-0.226 0.796,-0.009 1.015,-0.355c0.25,-0.392 0.164,-0.841 -0.315,-0.925c-0.247,-0.044 -0.519,0.077 -0.74,0.175c-0.324,0.144 -0.641,0.258 -0.876,0.535c-0.151,0.179 -0.108,0.392 -0.135,0.606c-0.071,0.566 0.096,1.3 -0.095,1.836c-0.132,0.371 -1.04,0.068 -1.176,0.565c-0.17,0.626 0.945,0.538 1.121,0.961c0.129,0.309 -0.141,0.651 -0.16,0.96c-0.032,0.518 0.185,1.465 0.665,1.771c0.217,0.138 0.551,0.104 0.796,0.165l0.38,0.005Zm-9.317,-4.551c0.208,0.091 0.438,0.323 0.502,0.409c0.489,0.653 0.656,2.126 -0.485,2.126l0.015,0.215c-0.276,0 -0.541,0.121 -0.821,0.065c-0.517,-0.103 -0.501,-0.733 -0.29,-1.085c0.076,-0.127 0.506,-0.214 0.48,-0.356c-0.035,-0.195 -0.248,-0.372 -0.32,-0.565c-0.204,-0.543 -0.313,-1.311 -0.17,-1.881c0.075,-0.302 0.188,-0.597 0.54,-0.62c0.635,-0.043 1.63,0.323 1.581,1.1c-0.019,0.314 -0.618,0.45 -0.86,0.541c-0.058,0.021 -0.114,0.038 -0.172,0.051Zm0,0c-0.108,-0.047 -0.209,-0.056 -0.279,0.014c-0.01,0.01 0.13,0.016 0.14,0.015c0.048,-0.009 0.094,-0.018 0.139,-0.029Z" style="fill:#d4d4c9;"/><path d="M67.681,111.094c0.069,-0.069 -0.621,-0.094 -0.67,-0.094c-0.453,0 -0.92,0.041 -1.355,-0.104c-1.06,-0.354 -1.606,-1.377 -0.96,-2.392c0.893,-1.403 3.05,-1.475 4.09,-0.227c0.205,0.246 0.286,0.539 0.274,0.856c-0.004,0.102 -0.164,0.543 0.006,0.558c0.405,0.037 0.942,-0.18 1.379,-0.18c0.072,-0 0.383,0.045 0.424,-0.023c0.08,-0.133 0.011,-0.612 0.064,-0.803c0.138,-0.496 0.881,-0.992 1.391,-0.838c0.483,0.145 0.781,0.736 0.751,1.222c-0.012,0.189 -0.225,0.762 0.017,0.872c0.196,0.09 0.452,-0 0.652,-0.029c0.401,-0.057 0.801,-0.06 1.204,-0.087c0.728,-0.049 1.464,0.005 2.188,-0.093c0.926,-0.125 1.838,-0.355 2.758,-0.512c1.889,-0.323 3.808,-0.261 5.715,-0.314c0.955,-0.027 1.871,-0.086 2.828,-0.018c1.174,0.084 2.322,0.082 3.497,0.082c0.34,-0 0.896,0.254 1.21,0.133c0.535,-0.205 0.778,-1 1.338,-1.28c0.442,-0.22 0.986,-0.11 1.455,-0.075c0.972,0.072 2.541,-0.027 2.467,1.379c-0.058,1.102 -1.503,1.95 -2.479,2.048c-0.431,0.043 -0.99,-0.164 -1.402,-0.006c-0.181,0.07 -0.117,0.316 -0.099,0.46c0.034,0.269 0.061,0.717 -0.198,0.896c-0.238,0.165 -0.62,-0.079 -0.873,-0.111c-0.368,-0.046 -0.821,0.115 -1.128,0.32c-0.055,0.037 0.144,0.008 0.157,0.006c0.127,-0.014 0.25,-0.017 0.378,-0.017c0.218,-0 1.421,-0.101 1.216,0.39c-0.363,0.872 -1.345,1.386 -2.269,1.437c-0.291,0.016 -0.691,-0.129 -0.96,-0.012c-0.354,0.155 -0.35,0.715 -0.699,0.955c-0.559,0.384 -1.227,0.282 -1.844,0.453c-0.481,0.134 -0.979,0.386 -1.484,0.414c-0.563,0.031 -1.086,-0.432 -1.385,-0.867c-0.188,-0.274 -0.257,-0.674 -0.64,-0.751c-0.381,-0.076 -0.869,0.156 -1.251,0.192c-1.189,0.111 -2.378,0.233 -3.573,0.256c-0.932,0.018 -1.873,0.136 -2.805,0.076c-1.3,-0.085 -2.607,-0.387 -3.898,-0.448c-0.77,-0.037 -1.588,0.183 -2.339,0.058c-0.509,-0.085 -0.84,-0.418 -1.31,-0.565c-0.601,-0.187 -1.091,-0.258 -1.478,-0.82c-0.219,-0.32 -0.133,-0.622 -0.244,-0.954l-0.116,-1.443Zm19.961,3.82c0.013,-0.006 0.026,-0.013 0.039,-0.02c0.257,-0.138 0.463,-0.471 0.093,-0.633c-0.328,-0.144 -1.131,0.057 -1.162,0.494c-0.015,0.204 0.32,0.22 0.452,0.233c0.1,0.01 0.203,0.021 0.306,0.026l-0.035,0.013c0.015,-0.004 0.03,-0.008 0.044,-0.013c-0.003,0 -0.006,-0 -0.009,-0l0.272,-0.1Zm0,0c-0.084,0.042 -0.172,0.074 -0.263,0.1c0.294,0.013 0.581,-0.025 0.767,-0.284l-0.504,0.184Zm-12.417,-1.942c-0.16,0.161 -0.449,0.298 -0.672,0.327c-0.283,0.037 -0.352,-0.136 -0.203,-0.369c0.041,-0.064 0.089,-0.122 0.145,-0.174c0.179,-0.166 0.4,-0.287 0.65,-0.287c0.366,-0 0.447,0.338 0.261,0.607l-0.181,-0.104Zm8.45,0.233c-0.387,0.194 -0.937,-0.196 -0.497,-0.543c0.245,-0.193 0.808,0.047 0.688,0.385l-0.191,0.158Zm-12.868,-0.103c-0.033,0.064 -0.154,0.062 -0.214,0.067c-0.241,0.021 -0.55,-0.073 -0.704,-0.268c-0.276,-0.349 -0.088,-0.876 0.084,-1.227c0.081,-0.165 0.187,-0.32 0.294,-0.468c0.073,-0.101 0.152,-0.202 0.242,-0.288c0.388,-0.371 0.618,-0.188 0.653,0.31c0.03,0.427 -0.116,0.88 -0.355,1.231l-0,0.643Zm16.9,-1.008c-0.236,0.118 -0.378,-0.052 -0.437,-0.278c-0.076,-0.295 -0.005,-0.663 0.217,-0.885c0.14,-0.14 0.213,0.12 0.236,0.22c0.058,0.256 0.073,0.5 -0.078,0.726l0.062,0.217Zm4.082,-0.336c-0.024,0.048 -0.192,0.027 -0.232,0.026c-0.136,-0.006 -0.684,-0.024 -0.601,-0.272c0.11,-0.33 0.811,-0.486 1.098,-0.348c0.256,0.123 -0.023,0.425 -0.158,0.52l-0.107,0.074Zm-24.978,-11.18c-0.496,-0.035 -0.985,-0.109 -1.429,-0.447c-1.617,-1.232 0.019,-3.141 1.554,-3.381c0.672,-0.105 1.978,0.298 2.182,1.047c0.072,0.265 0.033,0.595 -0.023,0.862c-0.011,0.05 -0.143,0.438 -0.07,0.459c0.136,0.039 0.544,-0.318 0.681,-0.378c0.472,-0.208 1.078,-0.229 1.576,-0.105c0.473,0.119 0.946,0.382 1.292,0.728c0.134,0.134 0.195,0.436 0.347,0.584c-0.045,0.156 -0.105,0.306 -0.196,0.438c-0.181,0.264 -0.519,0.411 -0.823,0.459c-0.187,0.029 -0.467,0.002 -0.572,0.197c-0.099,0.184 0.049,0.465 0.068,0.656c0.015,0.151 -0.02,0.329 0.061,0.468c0.13,0.223 0.568,0.416 0.808,0.281c0.208,-0.117 0.244,-0.429 0.407,-0.604c0.192,-0.208 0.427,-0.379 0.682,-0.508c-0.086,-0.02 -0.172,-0.057 -0.256,-0.115c-0.372,-0.258 -0.092,-0.829 0.095,-1.191c0.266,-0.039 0.596,-0.291 0.822,-0.38c0.501,-0.196 1.039,-0.284 1.577,-0.262c0.613,0.025 1.23,0.121 1.845,0.151c1.03,0.052 2.103,-0.189 3.136,-0.221c1.682,-0.052 3.364,-0.083 5.045,-0.139c1.169,-0.039 2.334,0.212 3.497,0.139c0.385,-0.024 0.87,-0.126 1.199,-0.337c0.687,-0.442 0.895,-1.063 1.856,-0.99c0.483,0.038 0.791,0.259 0.984,0.699c0.111,0.254 0.167,0.687 0.488,0.756c0.072,0.015 0.148,0.018 0.226,0.013c0.028,0.225 0.044,0.423 -0.081,0.673c-0.124,0.248 -0.393,0.462 -0.669,0.514c-0.262,0.049 -0.62,0.002 -0.704,0.319c-0.098,0.373 -0.092,1.025 0.187,1.328c0.362,0.391 1.122,0.295 1.586,0.239c0.156,-0.019 0.318,-0.095 0.475,-0.084c0.206,0.015 0.356,0.133 0.572,0.071c0.038,-0.011 0.174,-0.012 0.174,-0.074c0,-0.116 -0.399,-0.181 -0.478,-0.194c-0.396,-0.066 -0.783,-0.168 -0.917,-0.598c-0.277,-0.887 0.333,-1.554 0.671,-2.3c0.697,-0.002 1.37,-0.038 2.066,-0.081c0.234,-0.015 0.53,0.059 0.75,-0.041c0.329,-0.149 0.559,-0.732 0.792,-0.995c0.282,-0.32 0.778,-0.487 1.181,-0.57c0.838,-0.173 2.632,-0.397 2.775,0.896c0.144,1.29 -1.795,2.17 -2.827,2.281c-0.429,0.046 -1.003,-0.045 -1.368,0.221c-0.376,0.274 0.085,0.591 0.175,0.913c0.123,0.444 0.075,1.063 -0.239,1.409c-0.866,0.952 -2.279,0.667 -3.404,0.616c-0.872,-0.039 -1.723,-0.025 -2.595,-0.104c-0.483,-0.044 -1.348,0.23 -1.757,-0.07c-0.264,-0.193 -0.303,-1.358 -0.792,-1.228c-0.114,0.03 -0.326,0.14 -0.326,0.14c0,-0 0.194,-0.009 0.28,0.029c0.178,0.078 0.335,0.226 0.459,0.372c0.292,0.343 0.432,1.146 0.012,1.461c-0.249,0.186 -0.842,0.07 -1.135,0.07c-0.503,-0 -0.997,0.08 -1.501,0.017c-0.503,-0.063 -1.045,-0.232 -1.554,-0.204c-0.568,0.032 -0.623,0.828 -1.076,1.083c-0.891,0.5 -2.524,0.088 -3.445,-0.181c-1.295,-0.377 -0.276,-1.669 -0.454,-2.496c-0.053,-0.251 -0.465,-0.423 -0.663,-0.547c-0.125,-0.078 -0.269,-0.217 -0.419,-0.239c-0.225,-0.032 -0.065,0.51 -0.052,0.611c0.064,0.497 0.245,1.526 -0.384,1.758c-0.75,0.276 -1.772,-0.186 -2.561,-0.157c-2.1,0.075 -4.27,0.307 -6.36,0.046c-0.36,-0.045 -1.219,-0.08 -1.466,-0.372c-0.275,-0.325 -0.211,-0.699 -0.138,-1.07c0.093,-0.074 0.18,-0.153 0.26,-0.237c0.575,-0.603 0.207,-1.83 -0.552,-2.122c-0.54,-0.208 -1.049,-0.127 -1.557,0.018Zm16.839,3.825c-0.209,0.139 -0.551,0.06 -0.779,0.013c-0.273,-0.056 -0.352,-0.192 -0.094,-0.345c0.288,-0.171 0.682,-0.268 1.015,-0.213c0.062,0.01 0.125,0.024 0.184,0.048c0.424,0.172 -0.014,0.453 -0.243,0.52l-0.083,-0.023Zm-8.476,-1.705c-0.067,0.2 -0.519,0.128 -0.656,0.09c-0.086,-0.023 -0.198,-0.065 -0.158,-0.177c0.094,-0.271 0.486,-0.403 0.739,-0.423c0.317,-0.026 0.371,0.195 0.204,0.432c-0.043,0.062 -0.098,0.11 -0.155,0.159l0.026,-0.081Zm8.45,-1.189c0.028,0.084 -0.196,0.119 -0.239,0.123c-0.31,0.031 -0.638,-0.158 -0.488,-0.51c0.086,-0.202 0.381,-0.514 0.63,-0.404c0.27,0.119 0.189,0.533 0.074,0.73l0.023,0.061Zm-9.354,-0.426c0.231,-0.011 0.464,-0.003 0.684,-0.058c0.117,-0.029 0.297,-0.102 0.336,-0.23c0.076,-0.246 -0.433,-0.06 -0.494,-0.029c-0.163,0.085 -0.34,0.206 -0.526,0.317c-0.136,0.007 -0.27,0.02 -0.401,0.055c-0.176,0.047 -0.348,0.113 -0.513,0.196c0.307,0.071 0.621,-0.076 0.914,-0.251Zm13.234,0.116c0.049,-0.016 0.095,-0.036 0.141,-0.061c0.612,-0.337 -0.356,-0.683 -0.656,-0.259c-0.202,0.287 0.346,0.479 0.515,0.32Zm-0,0c-0.024,0.008 -0.048,0.014 -0.072,0.02l0.094,-0.046c-0.007,0.01 -0.014,0.018 -0.022,0.026Zm-15.191,-19.2c-0.131,0.157 -0.261,0.397 -0.326,0.475c-0.426,0.505 -1.11,1.765 -1.956,1.606c-0.877,-0.164 -1.068,-1.192 -1.204,-1.92c-0.031,-0.165 -0.037,-0.601 -0.157,-0.721c-0.006,-0.007 -0.012,0.144 -0.012,0.151c0,0.118 0.005,0.237 0,0.355c-0.012,0.326 -0.024,0.695 -0.128,1.006c-0.155,0.467 -1.293,0.556 -1.711,0.582c-0.905,0.057 -1.968,-0.183 -2.874,-0.262c-0.362,-0.031 -0.874,0.039 -1.181,-0.192c-0.346,-0.259 -0.204,-0.999 -0.204,-1.367c0,-0.085 0.047,-0.467 -0.128,-0.413c-0.204,0.063 -0.304,0.368 -0.343,0.553c-0.102,0.481 0.256,1.738 -0.344,1.926c-0.352,0.11 -0.752,-0.081 -1.117,-0.058c-0.44,0.027 -0.854,0.21 -1.297,0.232c-0.467,0.024 -0.921,-0.1 -1.38,-0.163c-0.511,-0.069 -1.049,-0.071 -1.547,-0.209c-0.161,-0.045 -0.351,-0.151 -0.413,-0.314c-0.054,-0.139 -0.07,-0.439 -0.262,-0.454c-0.424,-0.033 -0.657,0.645 -0.995,0.814c-0.15,0.075 -0.345,0.017 -0.507,0.035c-0.553,0.062 -1.06,0.063 -1.6,-0.087c-0.535,-0.149 -0.922,-0.615 -1.286,-1.007c-0.227,-0.245 -0.36,-0.517 -0.715,-0.581l1.002,-1.075l-0.156,-1.009c-1.172,0 -2.438,0.824 -3.613,0.495c-0.642,-0.18 -0.854,-0.83 -0.774,-1.449c0.125,-0.975 0.586,-1.769 1.454,-2.258c1.563,-0.879 3.233,-0.362 4.615,0.559c0.314,0.209 0.627,0.406 0.913,0.652c0.122,0.104 0.3,0.335 0.466,0.36c0.222,0.035 0.5,-0.081 0.733,-0.081c0.87,-0 1.733,-0.047 2.601,-0.047c0.462,0 1.136,0.223 1.571,0.123c0.326,-0.076 0.455,-0.537 0.669,-0.751c0.321,-0.32 0.845,-0.378 1.275,-0.396c0.563,-0.022 1.465,-0.004 1.885,0.448c0.299,0.322 0.212,0.791 0.646,1.024c0.2,0.108 0.452,0.032 0.663,0.006c0.55,-0.066 1.103,-0.113 1.653,-0.18c1.644,-0.199 3.39,-0.089 5.027,0.122c0.458,0.059 1.409,0.11 1.746,0.489c0.269,0.303 0.196,0.677 0.25,1.053c0.002,0.01 0.003,0.021 0.004,0.032l0.07,-0.006l0.002,-0.014c0.046,-0.309 0.14,-0.612 0.215,-0.914c0.274,-1.094 0.814,-2.328 2.2,-2.013c0.806,0.183 0.751,1.053 0.832,1.699c0.032,0.258 0.132,0.48 0.099,0.745c-0.01,0.077 -0.014,0.15 -0.015,0.22l0.855,-0.071c0.207,-0.232 0.437,-0.447 0.696,-0.615c0.534,-0.345 1.388,-0.444 2.007,-0.32c0.129,0.026 0.243,0.125 0.373,0.134c0.389,0.026 0.767,-0.132 1.163,-0.052c0.278,0.055 0.057,0.326 -0.08,0.507l0.031,-0.003c0.067,-0.114 0.142,-0.248 0.154,-0.266c0.199,-0.27 0.88,-0.542 1.17,-0.231c-0.004,0.716 -0.015,1.434 -0.05,2.144c-0.011,0.217 -0.031,0.848 0.2,0.973c0.327,0.176 0.334,-0.631 0.349,-0.753c0.084,-0.67 0.179,-1.356 0.224,-2.037l0.121,-0.01c0.075,-0.205 0.178,-0.387 0.331,-0.516c0.241,-0.204 0.677,-0.24 0.978,-0.274c0.8,-0.089 1.63,-0.06 2.438,-0.11c0.031,-0.002 0.279,0.204 0.653,0.534l0.263,-0.022c0.137,-0 0.461,0.182 0.553,0.064c0.122,-0.157 0.128,-0.458 0.186,-0.646c0.1,-0.318 0.334,-0.609 0.588,-0.815c0.894,-0.726 3.464,-0.933 3.561,0.629c0.089,1.415 -1.026,1.819 -2.292,1.955c-0.34,0.036 -0.978,-0.139 -1.24,0.104c-0.035,0.033 -0.07,0.07 -0.105,0.111c1.458,1.359 -1.779,1.108 -1.818,1.263l-0.771,1.389c-0.026,0.025 -0.053,0.048 -0.081,0.071c-1.049,0.84 -2.863,0.995 -4.138,0.995c-0.414,0 -0.966,0.095 -1.355,-0.075c-0.267,-0.117 -0.312,-0.438 -0.344,-0.693c-0.009,-0.074 0.037,-0.3 -0.064,-0.326c-0.166,-0.041 -0.691,0.56 -0.826,0.652c-0.548,0.374 -1.149,0.541 -1.798,0.361c-0.309,-0.086 -0.676,-0.223 -0.861,-0.501c-0.118,-0.177 -0.205,-0.704 -0.472,-0.704c-0.287,0 -0.635,0.678 -0.925,0.815c-0.606,0.287 -1.49,0.261 -2.147,0.151c-0.426,-0.071 -1.57,-0.232 -1.806,-0.651c0.078,-0.214 0.201,-0.406 0.433,-0.554c0.227,-0.145 0.488,-0.27 0.747,-0.343c0.309,-0.086 0.695,-0.042 0.797,-0.429c0.052,-0.195 0.104,-0.421 0.104,-0.624c-0,-0.125 -0.03,-0.264 -0.062,-0.384c-0.024,-0.093 -0.041,-0.188 -0.1,-0.268c-0.536,-0.732 -1.464,0.168 -1.828,0.617c-0.25,0.308 -0.156,0.644 -0.158,1.003Zm-5.693,-0.008c-0.124,0.372 -0.979,0.472 -0.723,-0.039c0.11,-0.221 0.635,-0.639 0.872,-0.368c0.198,0.226 -0.11,0.712 -0.265,0.881l0.116,-0.474Zm-12.699,0.071c0.04,0.043 0.087,0.078 0.143,0.097c0.111,0.037 0.329,-0.023 0.329,-0.168l-0.472,0.071Zm-0.026,-0.029c0.403,-0.457 0.706,-0.957 0.631,-1.593c-0.021,-0.174 -0.074,-0.605 -0.313,-0.63c-0.184,-0.019 -0.342,0.254 -0.427,0.378c-0.371,0.542 -0.341,1.131 -0.003,1.68c0.033,0.054 0.069,0.113 0.112,0.165c-0.012,0.013 -0.023,0.026 -0.035,0.038l0.061,-0.009c-0.009,-0.009 -0.018,-0.019 -0.026,-0.029Zm25.491,-0.301c-0.038,0.06 -0.083,0.113 -0.126,0.168c-0.323,0.412 -0.519,-0.165 -0.566,-0.452c-0.085,-0.527 -0.067,-1.325 0.288,-1.764c0.249,-0.308 0.533,0.247 0.607,0.446c0.181,0.485 0.133,1.071 -0.194,1.486l-0.009,0.116Zm-20.921,-1.137c-0.174,0 -0.394,0.011 -0.53,-0.116c-0.218,-0.206 -0.307,-0.731 0.062,-0.843c0.56,-0.171 0.998,0.622 0.523,0.979l-0.055,-0.02Zm-6.038,-17.694c-0.128,-0.063 -0.256,-0.128 -0.383,-0.193c0.165,-0.848 0.142,-1.704 -0.089,-2.534c-0.061,-0.222 -0.098,-0.461 -0.226,-0.659c-0.132,-0.204 -0.385,-0.35 -0.591,-0.471c-0.375,-0.222 -0.851,-0.213 -1.272,-0.213c-0.538,-0 -1.075,-0.002 -1.606,0.1c-0.119,0.023 -0.238,0.051 -0.355,0.082c-0.36,-0.392 -0.494,-0.96 -0.198,-1.535c0.316,-0.613 0.917,-0.899 1.56,-1.053c0.812,-0.194 2.171,-0.311 2.729,0.477c0.281,0.398 0.267,0.891 0.267,1.356c0,0.158 -0.022,0.448 0.21,0.448c0.291,0 0.608,-0.32 0.844,-0.459c0.257,-0.153 0.526,-0.296 0.804,-0.42c0.533,0.059 1.075,-0.088 1.613,-0.054c0.225,0.014 0.451,0.026 0.677,0.037c-0.076,0.406 -0.101,0.805 -0.331,1.189c-0.16,0.267 -0.418,0.256 -0.704,0.31c-0.454,0.085 -1.202,0.364 -1.269,0.882c-0.015,0.109 -0.015,0.225 0.016,0.332c0.217,0.759 1.033,0.473 1.554,0.733c0.381,0.191 0.471,0.68 0.44,1.138c-0.35,0.002 -0.699,0.005 -1.048,0.005c-0.778,-0 -1.649,-0.057 -2.358,0.342c-0.094,0.053 -0.189,0.106 -0.284,0.16Zm33.307,-1.286c-0.024,0.143 -0.037,0.302 -0.059,0.367c-0.219,0.659 -0.716,1.104 -1.437,0.827c-0.438,-0.169 -0.418,-1.223 -0.454,-1.595c-0.005,-0.057 0.042,-0.593 0.006,-0.593c-0.079,-0 -0.211,0.458 -0.233,0.517c-0.178,0.488 -0.304,1.256 -0.646,1.659c-0.016,0.02 -0.035,0.038 -0.054,0.054c-0.422,-0.165 -0.952,-0.18 -1.33,-0.213c-1.539,-0.136 -3.105,-0.456 -4.652,-0.285c-1.129,0.126 -2.265,0.046 -3.398,0.046c-0.259,-0 -0.517,0.016 -0.776,0.034c0.002,-0.061 0.008,-0.122 0.016,-0.183c0.012,-0.094 0.052,-0.279 0.052,-0.279c0,-0 -0.076,0.192 -0.122,0.285c-0.03,0.06 -0.054,0.123 -0.078,0.187c-0.349,0.024 -0.699,0.048 -1.049,0.033c-0.587,-0.024 -1.182,-0.129 -1.77,-0.103c-1.384,0.06 -2.766,0.027 -4.151,0.126c-1.18,0.084 -2.396,0.254 -3.579,0.21c-0.601,-0.023 -1.197,-0.093 -1.793,-0.159c-0.028,-0.091 -0.074,-0.162 -0.166,-0.155c-0.08,0.007 -0.165,0.052 -0.247,0.111c-0.345,-0.036 -0.691,-0.066 -1.037,-0.082c-0.783,-0.034 -1.571,-0.035 -2.357,-0.031c-0.013,-0.037 -0.025,-0.074 -0.036,-0.109c-0.288,-0.962 -0.232,-1.987 -0.294,-2.975c-0.02,-0.318 0.2,-0.577 0.378,-0.811c0.151,-0.198 0.295,-0.429 0.389,-0.669c0.94,0.036 1.882,0.047 2.821,0.047c1.301,0 2.542,0.017 3.809,0.333c0.376,0.094 0.758,0.145 1.091,0.359c0.519,0.333 0.577,0.883 0.646,1.44c0.022,0.173 0.102,0.593 0.333,0.614c0.122,0.011 0.087,-0.313 0.087,-0.381c0,-0.415 0.079,-0.842 -0.08,-1.24c-0.12,-0.299 -0.201,-0.623 -0.359,-0.905c-0.164,-0.291 -0.421,-0.56 -0.719,-0.79c-0.049,-0.154 -0.11,-0.335 -0.032,-0.479c0.17,-0.316 0.744,-0.235 1.03,-0.268c0.929,-0.106 1.884,-0.3 2.764,0.14c0.932,0.466 0.001,1.673 -0.221,2.339c-0.052,0.154 -0.204,0.864 0.064,0.931c0.103,0.026 0.236,-0.316 0.273,-0.378c0.228,-0.386 0.514,-0.767 0.838,-1.077c0.237,-0.225 0.536,-0.496 0.867,-0.558c0.168,-0.032 0.476,0.145 0.611,0.04c0.169,-0.131 0.138,-0.748 0.233,-0.96c0.179,-0.397 0.511,-0.708 0.898,-0.911c0.471,0.2 0.894,0.457 1.229,0.866c0.246,0.302 -0.156,0.845 0.235,1.04c0.246,0.123 0.571,0.088 0.837,0.104c0.78,0.046 1.558,-0.037 2.339,-0.078c0.762,-0.04 1.524,-0.016 2.285,0.018c0.074,0.171 0.138,0.346 0.196,0.52c0.073,0.217 0.106,0.548 0.372,0.63c0.123,0.038 0.14,-0.17 0.171,-0.243c0.119,-0.273 0.295,-0.551 0.484,-0.781c0.019,-0.024 0.039,-0.047 0.059,-0.069c0.591,0.021 1.182,0.031 1.772,0.003c0.629,-0.03 1.267,-0.05 1.893,-0.12c0.124,-0.013 0.281,-0.01 0.426,-0.032c0.128,0.045 0.257,0.09 0.385,0.136c0.244,0.085 0.684,0.437 0.949,0.389c0.185,-0.033 0.37,-0.718 0.448,-0.872c0.294,-0.589 0.624,-1.032 1.291,-1.199c1.018,-0.255 1.938,0.87 1.996,1.81c0.015,0.23 -0.047,0.479 -0.152,0.734c-0.558,-0.221 -1.357,-0.183 -1.743,0.107c-0.014,0.01 -0.028,0.021 -0.042,0.032c-0.376,-0.054 -0.793,0.003 -1.073,0.255c-0.434,0.391 -0.628,1.235 -0.591,1.796c0.01,0.146 0.072,0.302 0.157,0.444Zm-10.688,-0.226c-0.141,0.283 -0.537,-0.239 -0.578,-0.333c-0.226,-0.523 -0.146,-1.083 0.126,-1.573c0.117,-0.211 0.293,-0.447 0.556,-0.468c0.323,-0.026 0.403,0.337 0.436,0.588c0.068,0.514 0.074,1.427 -0.281,1.854l-0.259,-0.068Zm-16.659,-0.078c-0,0.315 -0.447,-0.014 -0.517,-0.106c-0.338,-0.445 -0.361,-1.598 0.281,-1.828c0.246,-0.089 0.413,0.112 0.468,0.332c0.09,0.359 0.005,0.81 -0.181,1.128l-0.051,0.474Zm12.37,-0.077c-0.271,0.361 -0.928,0.16 -0.985,-0.265c-0.063,-0.461 0.32,-1.115 0.623,-1.444c0.355,-0.384 0.631,-0.176 0.682,0.281c0.051,0.463 -0.034,0.947 -0.359,1.295l0.039,0.133Zm-7.856,-0.181c-0.065,0.196 -0.391,0.217 -0.556,0.226c-0.436,0.025 -0.693,-0.12 -0.639,-0.594c0.04,-0.353 0.188,-0.738 0.413,-1.015c0.061,-0.073 0.199,-0.252 0.317,-0.2c0.115,0.05 0.16,0.326 0.187,0.43c0.104,0.392 0.188,0.791 0.129,1.198l0.149,-0.045Zm-15.067,-12.46c-0.054,-0.404 -0.039,-0.827 -0.039,-1.204c-0,-0.384 0.027,-0.864 0.349,-1.129c0.402,-0.331 1.056,-0.359 1.548,-0.396c0.955,-0.072 2.306,0.1 3.043,0.797c0.43,0.408 0.286,1.421 0.96,1.455c0.343,0.017 0.707,-0.113 1.041,-0.175c0.611,-0.113 1.226,-0.156 1.839,-0.244c0.498,-0.071 0.796,0.119 1.251,0.145c0.832,0.049 1.772,-0.062 2.613,-0.093c2.185,-0.081 4.195,-0.609 6.377,-0.064c0.366,0.092 0.764,0.184 1.112,-0.011c0.505,-0.285 0.874,-0.845 1.35,-1.187c0.37,-0.267 0.76,-0.522 1.199,-0.658c1.058,-0.328 2.783,0.027 2.996,1.303c0.264,1.583 -1.909,1.999 -3.049,2.305c-0.236,0.063 -0.845,0.109 -1.012,0.314c-0.211,0.257 -0.057,0.653 -0.018,0.937c0.098,0.712 0.206,1.399 -0.454,1.879c-1.026,0.746 -2.789,0.536 -3.991,0.536c-3.058,-0 -6.109,0.057 -9.153,-0.309c-0.383,-0.046 -0.974,-0.122 -1.391,-0.355c-0.015,-0.66 0.08,-1.343 0.08,-1.94c-0,-0.292 -0.018,-0.614 -0.094,-0.898c-0.017,-0.063 -0.057,-0.245 -0.136,-0.265c-0.062,-0.015 -0.109,0.092 -0.142,0.205c-0.036,-0.055 -0.083,-0.087 -0.139,-0.056c-0.19,0.106 -0.161,0.577 -0.161,0.753c-0,0.562 0.021,1.251 -0.323,1.724c-0.291,0.4 -0.748,0.378 -1.118,0.624c-0.249,-0.065 -0.505,-0.108 -0.685,-0.083l-0.108,-0.431c0.143,-0.229 0.259,-0.471 0.334,-0.717c0.279,-0.911 -0.012,-2.109 -0.93,-2.523c-0.351,-0.157 -0.727,-0.185 -1.105,-0.222c-0.486,-0.049 -0.97,-0.118 -1.46,-0.075c-0.193,0.017 -0.388,0.04 -0.584,0.058Zm10.449,2.795c-0.178,0.119 -0.673,-0.088 -0.665,-0.314c0.01,-0.265 0.264,-0.465 0.468,-0.591c0.295,-0.182 0.865,-0.183 0.637,0.307c-0.103,0.22 -0.345,0.391 -0.559,0.488l0.119,0.11Zm8.192,-1.809c-0.048,0.332 -0.708,0.28 -0.536,-0.091c0.105,-0.227 0.431,-0.448 0.684,-0.433c0.329,0.02 0.326,0.36 0.152,0.553l-0.3,-0.029Z" style="fill:#36a3f0;"/><path d="M108.242,114.715c-0.122,0.082 -0.472,-0.198 -0.58,-0.252c-0.524,-0.262 -1.206,-0.531 -1.401,-1.155c-0.537,-1.717 0.452,-3.839 1.924,-4.732c0.584,-0.354 1.189,-0.672 1.893,-0.555c0.65,0.108 0.578,1.137 0.291,1.552c-0.158,0.228 -0.439,0.456 -0.701,0.549c-0.148,0.053 -0.473,0.019 -0.473,0.019c-0,-0 0.367,0.098 0.536,0.183c0.372,0.186 0.781,0.497 0.858,0.934c0.056,0.317 0.006,0.64 0.026,0.959c0.034,0.549 0.195,1.08 -0.133,1.59c-0.299,0.466 -1.077,0.743 -1.596,0.801l-0.644,0.107Zm0.354,-2.019c-0,0.179 -0.156,0.42 -0.316,0.19c-0.179,-0.259 -0.102,-1.08 0.29,-1.136c0.498,-0.071 0.643,0.724 0.183,0.921l-0.157,0.025Zm3.331,-8.328c-0.622,0.207 -1.623,-0.05 -1.42,-0.865c0.121,-0.481 0.375,-0.961 0.84,-1.18c0.16,-0.075 0.858,-0.148 0.858,-0.366c-0,-0.838 -1.36,-0.756 -1.635,-1.306c-0.187,-0.375 -0.058,-0.779 0.095,-1.142c0.439,-1.043 2.107,-1.777 3.212,-1.476c0.73,0.199 0.675,1.563 0.675,2.126c-0,0.658 -0.348,1.242 -0.391,1.899c-0.028,0.409 0.63,0.322 0.574,0.77c-0.139,1.114 -1.791,1.949 -2.783,1.578l-0.025,-0.038Zm-13.95,-41.725c-0.093,-0.475 0.202,-1.114 0.593,-1.479c0.181,-0.17 0.71,-0.157 0.668,-0.467c-0.08,-0.607 -0.691,-1.247 -1.072,-1.698c-0.099,-0.117 -0.337,-0.232 -0.372,-0.384c-0.073,-0.317 0.207,-0.688 0.397,-0.909c0.158,-0.185 0.354,-0.348 0.549,-0.492c0.267,-0.197 0.605,-0.379 0.946,-0.379c0.89,0 1.742,0.157 1.792,1.168c0.016,0.307 -0.421,1.308 0,1.47c0.303,0.116 0.403,-0.245 0.499,-0.448c0.228,-0.482 0.548,-0.947 0.965,-1.281c0.825,-0.66 2.923,-0.499 3.792,0.05c1.211,0.765 0.429,1.958 0.038,2.896c-0.253,0.607 -0.499,1.201 -1.085,1.559c-0.624,0.381 -1.696,0.844 -2.455,0.681c-0.223,-0.048 -0.443,-0.635 -0.586,-0.599c-0.184,0.046 -0.37,0.22 -0.57,0.33c-0.596,-0.153 -1.261,0.037 -1.869,-0.001c-0.502,-0.032 -1.083,-0.314 -1.587,-0.206c-0.229,0.049 -0.443,0.109 -0.643,0.189Zm6.738,-1.287c-0.141,0.281 -0.693,0.294 -0.763,-0.058c-0.076,-0.378 0.279,-0.703 0.542,-0.916c0.13,-0.105 0.338,-0.265 0.518,-0.201c0.128,0.045 0.07,0.257 0.043,0.35c-0.087,0.299 -0.354,0.608 -0.633,0.748l0.293,0.077Zm-0.307,-2.225c-0.133,0.088 -0.763,0.163 -0.806,-0.019c-0.06,-0.257 0.29,-0.524 0.46,-0.657c0.125,-0.098 0.336,-0.276 0.509,-0.254c0.354,0.044 0.079,0.597 -0.058,0.714l-0.105,0.216Z" style="fill:#b5c077;"/><path d="M123.568,49.669c-0.176,0.177 -0.515,-0.621 -0.515,-0.74c-0,-0.632 0.286,-1.46 0.708,-1.925c0.45,-0.495 1.073,-0.877 1.772,-0.644c0.273,0.091 0.524,0.414 0.829,0.387c0.343,-0.032 0.744,-0.578 1.071,-0.733c1.344,-0.637 3.076,-0.305 3.559,1.24c0.427,1.367 -2.113,2.238 -2.963,2.496c-0.274,0.083 -0.655,0.097 -0.902,0.241c-0.224,0.131 0.074,0.946 0.258,1.063c0.27,0.172 0.644,0.12 0.893,0.314c0.494,0.384 -0.56,1.047 -0.813,1.168c-1.083,0.515 -2.31,0.908 -3.398,0.209c-0.692,-0.445 -2.168,-1.724 -0.958,-2.415l0.459,-0.661Zm-41.44,-0.345l-0.558,-0.556c-0,-1.519 1.701,-3.762 3.382,-3.447c0.75,0.141 1.132,0.964 1.819,1.112c0.365,0.078 0.72,-0.089 1.079,-0.113c0.399,-0.027 0.878,0.128 1.264,0.217c0.917,0.212 0.668,1.375 0.54,1.973c-0.025,0.117 -0.04,0.966 -0.04,0.966c0.141,-0.142 0.148,-0.788 0.201,-0.998c0.255,-1.019 0.836,-3.521 2.287,-3.068c1.415,0.442 1.32,2.567 1.32,3.712c0,0.21 0.289,1.302 0.628,1.175c0.197,-0.073 0.43,-0.791 0.564,-0.974c0.517,-0.705 1.05,-1.283 1.948,-1.433c0.457,-0.076 0.831,0.029 1.128,0.394c0.158,0.195 0.273,0.541 0.555,0.588c0.331,0.055 0.61,-0.356 0.87,-0.507c0.407,-0.238 0.876,-0.283 1.336,-0.217c0.339,0.048 0.635,0.256 0.87,0.491c0.066,0.066 0.21,0.289 0.322,0.241c0.158,-0.068 0.144,-0.64 0.153,-0.789c0.042,-0.668 0.203,-1.911 1.063,-1.964c0.929,-0.059 2.414,0.111 2.947,0.998c0.203,0.339 0.159,1.59 0.628,1.707c0.126,0.031 0.729,-0.628 0.894,-0.717c0.706,-0.38 1.507,-0.616 2.294,-0.37c0.54,0.169 0.89,0.567 1.16,1.039c0.049,0.086 0.258,0.554 0.37,0.531c0.108,-0.022 -0.124,-0.627 -0.145,-0.7c-0.138,-0.498 -0.273,-1.035 -0.169,-1.554c0.229,-1.146 2.333,-0.915 3.14,-0.604c0.916,0.352 -0.05,2.229 -0.128,2.858c-0.026,0.207 -0.108,0.909 0.161,0.982c0.217,0.06 1.137,-0.542 1.215,-0.757c0.075,-0.205 -0.082,-0.591 -0.137,-0.789c-0.265,-0.955 -0.821,-2.278 0.411,-2.786c0.231,-0.095 0.477,-0.152 0.725,-0.185c0.356,-0.046 0.715,-0.054 1.071,0c0.44,0.068 1.031,0.154 1.32,0.54c0.774,1.031 -0.319,2.661 -0.233,3.776c0.054,0.707 1.345,0.394 1.288,1.192c-0.046,0.644 -0.8,1.164 -1.353,1.336c-0.595,0.186 -1.569,0.38 -2.182,0.161c-0.351,-0.125 -0.708,-0.615 -1.087,-0.587c-0.404,0.028 -0.766,0.398 -1.175,0.475c-1.126,0.211 -2.398,0.017 -3.543,0.088c-0.695,0.044 -1.404,0.333 -2.102,0.234c-0.534,-0.077 -1.177,-0.233 -1.634,-0.524c-0.154,-0.098 -0.35,-0.274 -0.427,-0.443c-0.023,-0.051 -0.034,-0.265 -0.113,-0.265c-0.108,-0 -0.332,0.246 -0.434,0.306c-0.329,0.192 -0.704,0.346 -1.087,0.37c-0.575,0.036 -1.084,-0.115 -1.635,-0.233c-0.2,-0.043 -0.272,-0.353 -0.491,-0.29c-0.294,0.084 -0.543,0.385 -0.797,0.547c-0.452,0.288 -1.097,0.304 -1.611,0.194c-0.503,-0.108 -1.396,-0.387 -1.747,-0.773c-0.404,-0.445 -0.758,-1.396 -1.449,-1.442c-0.748,-0.05 -0.303,0.733 -0.411,1.111c-0.138,0.486 -0.983,0.985 -1.457,1.015c-0.448,0.028 -0.844,-0.193 -1.288,-0.193l-2.513,-0c-0.371,-0 -0.955,0.034 -1.296,-0.121c-0.472,-0.215 -0.344,-0.635 -0.555,-0.998c-0.349,-0.598 -1.125,-1.05 -1.82,-1.007c-1.091,0.068 -0.374,1.133 -0.628,1.683c-0.146,0.316 -1.012,0.965 -1.361,0.733l-0.378,-0.377c0.036,-0.067 0.066,-0.135 0.088,-0.203c0.155,-0.465 0.03,-0.908 0.097,-1.377c0.11,-0.771 -0.034,-1.809 -1.039,-1.876c-0.68,-0.045 -1.442,0.206 -2.115,0.492Zm-42.609,-9.919c0.357,-0.918 0.828,-2.342 1.584,-2.828c0.674,-0.433 1.449,0.396 1.666,0.974c0.071,0.189 0.089,0.741 0.379,0.741c0.44,0 0.752,-0.69 1.24,-0.724c0.326,-0.024 0.628,0.228 0.958,0.249c0.726,0.045 1.822,-0.019 2.512,-0.249c0.719,-0.24 1.264,-1.454 2.126,-1.184c1.3,0.406 1.063,2.226 1.063,3.261c-0,0.372 0.018,1.238 0.483,1.393c0.058,0.019 0.078,-0.505 0.088,-0.564c0.063,-0.361 0.15,-0.714 0.234,-1.071c0.198,-0.843 0.441,-1.677 0.644,-2.52c0.089,-0.37 0.128,-0.825 0.338,-1.151c0.232,-0.361 0.696,-0.214 1.031,-0.121c0.585,0.162 2.077,0.138 2.077,1.014c0,0.402 -0.527,0.687 -0.813,0.878c-0.939,0.626 -2.168,0.839 -3.052,1.482c-0.345,0.251 -0.148,1.049 -0.129,1.401c0.068,1.215 0.073,1.936 -1.264,2.254c-0.282,0.067 -0.593,0.144 -0.885,0.129c-0.836,-0.042 -1.684,-1.125 -1.828,-1.892c-0.056,-0.297 -0.042,-0.683 0.064,-0.966c0.017,-0.045 0.21,-0.562 0.105,-0.532c-0.295,0.085 -0.628,0.961 -0.757,1.208c-0.682,1.308 -1.153,2.529 -2.552,3.229c-0.295,0.147 -0.885,0.57 -1.224,0.354c-0.689,-0.438 0.165,-1.73 0.467,-2.142c0.1,-0.136 0.3,-0.263 0.354,-0.427c0.055,-0.165 -0.138,-0.458 -0.362,-0.754c0.024,-0.16 0.022,-0.313 -0.016,-0.453c-0.037,-0.135 -0.195,-0.134 -0.397,-0.091c0.111,0.16 0.269,0.352 0.413,0.544c-0.1,0.664 -0.665,1.433 -1.015,1.833c-0.162,0.185 -0.365,0.473 -0.62,0.532c-1.059,0.244 -1.143,-1.011 -1.465,-1.611c-0.253,-0.469 -0.704,-0.886 -0.999,-1.344c-0.103,-0.161 -0.253,-0.676 -0.448,-0.852Zm-8.115,-2.636c0.409,-0.312 0.861,-0.563 1.341,-0.723c0.319,-0.107 0.789,-0.242 1.111,-0.081c1.28,0.64 0.049,2.524 -0.008,3.43c-0.02,0.323 -0.087,1.365 0.507,1.216c0.383,-0.096 0.608,-0.729 0.749,-1.039c0.481,-1.056 0.897,-2.021 1.546,-2.995c0.259,-0.389 0.734,-1.049 1.28,-0.958c0.38,0.063 0.521,0.574 0.596,0.886c0.235,0.98 -0.059,2.074 -0.104,3.067c-0.008,0.169 0.027,1.312 0.305,1.256c0.222,-0.044 0.408,-0.452 0.537,-0.778c-0.032,-0.322 -0.035,-0.723 0.14,-0.703c0.04,0.004 0.078,0.025 0.115,0.058l-0.255,0.645c0.017,0.177 0.043,0.33 0.051,0.376c0.154,0.809 0.885,2.196 -0.418,2.568c-0.543,0.155 -1.13,-0.804 -1.595,-0.998c-0.676,-0.282 -1.466,0.157 -2.182,-0.008c-0.199,-0.046 -0.189,-0.285 -0.153,-0.443c0.005,-0.02 0.066,-0.237 0.049,-0.225c-0.61,0.406 -1.04,1.128 -1.909,1.071c-0.401,-0.027 -1.167,-0.271 -1.513,-0.484c-0.267,-0.164 -0.512,-0.555 -0.862,-0.523c-0.225,0.02 -0.241,0.412 -0.338,0.564c-0.171,0.268 -0.443,0.503 -0.765,0.563c-0.543,0.102 -1.577,-0.076 -2.053,-0.354c-0.261,-0.152 -0.51,-0.73 -0.83,-0.7c-0.257,0.023 -0.533,0.318 -0.748,0.442c-0.454,0.263 -1.005,0.491 -1.522,0.588c-1.313,0.246 -2.765,-0.257 -4.034,-0.539c-0.724,-0.161 -1.439,-0.224 -2.086,-0.612c-0.717,-0.431 0.242,-1.414 -0.33,-2.037c-0.83,-0.907 -2.082,-0.598 -2.995,-1.278c-0.353,-0.095 -0.651,-0.241 -0.821,-0.462c-0.243,-0.316 0.154,-0.693 0.37,-0.885c0.538,-0.478 1.536,-0.672 2.239,-0.58c0.555,0.072 0.897,0.676 0.926,1.192c0.01,0.189 -0.111,0.766 0.169,0.813c0.293,0.049 0.682,-0.341 0.958,-0.427c0.491,-0.153 1.229,-0.082 1.739,-0.048c0.217,0.014 0.657,0.216 0.845,0.096c0.556,-0.353 0.648,-1.539 1.409,-1.634c1.606,-0.201 2.003,1.764 3.286,2.021c0.274,0.055 0.951,0.038 1.175,-0.145c0.563,-0.46 1.239,-2.697 2.005,-1.304c0.093,0.169 0.184,0.335 0.258,0.515c0.176,0.431 0.182,0.938 0.024,1.377c-0.027,0.075 -0.385,0.734 -0.338,0.781c0.029,0.029 0.246,-0.312 0.265,-0.338c0.269,-0.381 0.515,-0.781 0.798,-1.152c0.011,-0.014 0.022,-0.029 0.033,-0.043l-0.001,0.023c-0.026,0.406 -0.245,0.861 -0.183,1.264c0.101,0.657 0.364,0.594 0.913,0.663c0.102,0.013 0.415,0.119 0.486,0.02c0.125,-0.175 0.027,-0.706 0.027,-0.919c0,-0.689 -0.124,-1.392 -0.209,-2.08Zm12.249,3.534c-0.063,-0.089 -0.111,-0.168 -0.135,-0.231c-0.088,-0.237 -0.192,-1.071 -0.459,-1.168c-0.371,-0.135 -0.676,1.273 -0.499,1.49c0.182,0.222 0.715,-0.009 1.093,-0.091Zm-28.622,-2.282c0.722,0.196 1.669,0.183 2.198,0.183l-2.303,-0.266c0.035,0.029 0.07,0.057 0.105,0.083Z" style="fill:#c3602c;"/></g></g></svg>