<?xml version="1.0" encoding="UTF-8" standalone="no"?><!DOCTYPE svg PUBLIC "-//W3C//DTD SVG 1.1//EN" "http://www.w3.org/Graphics/SVG/1.1/DTD/svg11.dtd"><svg width="100%" height="100%" viewBox="0 0 150 150" version="1.1" xmlns="http://www.w3.org/2000/svg" xmlns:xlink="http://www.w3.org/1999/xlink" xml:space="preserve" xmlns:serif="http://www.serif.com/" style="fill-rule:evenodd;clip-rule:evenodd;stroke-linejoin:round;stroke-miterlimit:2;"><path id="base" d="M150,75c0,-41.394 -33.606,-75 -75,-75c-41.394,0 -75,33.606 -75,75c0,41.394 33.606,75 75,75c41.394,0 75,-33.606 75,-75Z"/><path id="outline" d="M144,75c0,-38.082 -30.918,-69 -69,-69c-38.082,0 -69,30.918 -69,69c0,38.082 30.918,69 69,69c38.082,0 69,-30.918 69,-69Z" style="fill:#f04747;"/><path id="core" d="M141,75c0,-36.426 -29.574,-66 -66,-66c-36.426,0 -66,29.574 -66,66c0,36.426 29.574,66 66,66c36.426,0 66,-29.574 66,-66Z" style="fill:#ecf0f1;"/><clipPath id="_clip1"><path d="M141,75c0,-36.426 -29.574,-66 -66,-66c-36.426,0 -66,29.574 -66,66c0,36.426 29.574,66 66,66c36.426,0 66,-29.574 66,-66Z"/></clipPath><g clip-path="url(#_clip1)"><g id="flail"><path d="M43.79,73.583l-0.691,6.913l37.325,5.668l-0.691,8.294l-35.805,-4.285l-2.626,8.156c59.168,3.405 74.499,-15.062 2.488,-24.746Z" style="fill:#fdec8b;"/><path d="M49.372,115.685c-5.906,-0.781 -10.239,-2.947 -10.633,-7.614c-0.83,-9.816 0.553,-12.166 1.521,-15.76c-0,-0 17.142,8.294 32.625,-2.627c-0,0 -13.133,-9.539 -32.487,-14.93c-0,0 3.041,-13.824 8.018,-22.257c4.977,-8.433 9.953,-16.727 20.183,-18.939c10.23,-2.212 26.543,-4.839 33.179,3.594c6.635,8.433 10.506,25.16 0.967,43.685c-7.412,14.395 -13.907,25.702 -22.854,30.934c0.229,4.115 0.977,10.769 3.362,16.068c3.733,8.295 -39.123,2.903 -39.123,2.903c0,0 3.179,-8.989 5.242,-15.057Zm-38.199,-60.952c-0,-0 8.664,-3.939 10.127,-6.527c1.463,-2.588 1.688,-6.639 1.575,-8.101c-0.112,-1.463 26.33,-7.99 26.33,-7.99c0,0 2.476,0 1.013,3.714c-1.463,3.713 -1.125,5.063 -4.501,7.539c-3.375,2.475 -9.114,6.751 -12.377,6.751c-0,0 -9.938,8.08 -14.889,13.819c-4.951,5.739 -7.278,-9.205 -7.278,-9.205Z" style="fill:#f1cd80;"/><path d="M74.255,91.147c-0.716,-0.591 -2.369,-3.112 -3.593,-0.126c-0.691,1.683 0.799,3.052 0.727,4.734c-0.062,1.447 -0.799,2.777 -1.235,4.028c-0.598,1.712 -0.976,3.481 -1.184,5.379c-0.109,0.995 -0.395,3.06 0.456,3.585c1.6,0.985 1.577,-3.024 2.566,-3.522c0.334,-0.168 0.527,0.483 0.632,0.821c0.24,0.769 0.737,1.738 1.409,1.395c0.695,-0.355 0.93,-1.997 1.279,-2.831c0.305,-0.73 0.928,-1.562 1.013,-2.426c0.099,-1.014 -0.424,-1.896 -0.554,-2.848c-0.221,-1.612 -0.6,-3.161 -0.811,-4.769c-0.15,-1.135 0.005,-2.834 -0.705,-3.42Z" style="fill:#95c1e8;"/><path d="M24.851,130.47c-0,-0 8.847,-5.392 14.653,-5.53c5.807,-0.138 6.083,1.382 12.719,3.318c6.635,1.935 16.865,1.52 23.916,-0.139c7.05,-1.658 10.645,-5.944 13.962,-5.667c3.318,0.276 13.548,2.211 17.419,2.211c3.871,0 24.331,1.659 24.331,1.659c-38.91,35.325 -73.625,26.751 -107,4.148Zm-17.781,-44.229l16.428,-23.405c0,0 0.788,-1.35 -0.45,-3.713l-3.376,2.363c0,-0 -1.8,-0.788 -3.488,-3.263c-1.688,-2.476 -1.8,-4.614 -1.8,-4.614l2.588,-1.913c-0,0 -1.527,-1.767 -3.826,-2.25c-5.445,-1.145 -13.32,35.73 -6.076,36.795Z" style="fill:#72828d;"/><path d="M75.448,60.865c-0.495,-2.474 0.276,-9.539 8.156,-12.856c7.88,-3.318 14.869,4.846 10.921,11.474c-3.871,6.497 -8.709,7.188 -12.442,6.497c-5.411,-1.002 -6.221,-3.041 -6.635,-5.115Zm-19.769,-7.05c-0.197,-3.048 1.935,-6.359 6.359,-5.668c4.424,0.691 6.59,3.065 4.7,5.806c-2.765,4.009 -10.506,8.433 -11.059,-0.138Z" style="fill:#fff;"/><g id="flail1" serif:id="flail"><path d="M12.185,45.393l55.362,-16.541c1.163,-2.025 0.45,-3.338 -0.788,-4.163l-54.911,16.541l0.337,4.163Z" style="fill:#7c6e43;"/><path d="M134.08,105.46c-0.285,0.095 -0.569,0.431 -0.777,0.628c-0.535,0.509 -1.055,1.042 -1.542,1.597c-0.073,0.084 -0.634,0.876 -0.745,0.825c-0.16,-0.074 -0.019,-0.89 -0.012,-1.016c0.052,-0.863 0.147,-1.724 0.267,-2.58c0.044,-0.307 0.082,-0.801 -0.329,-0.86c-0.477,-0.068 -0.804,0.618 -1.09,0.885c-0.801,0.746 -1.682,1.393 -2.694,1.824c-0.305,0.13 -1.196,0.484 -1.456,0.115c-0.194,-0.276 0.004,-0.81 0.072,-1.098c0.254,-1.085 0.744,-2.04 1.425,-2.917c0.189,-0.244 0.798,-0.707 0.798,-1.032c0,-0.215 -0.598,-0.123 -0.718,-0.125c-0.58,-0.011 -1.195,-0.015 -1.766,-0.127c-0.169,-0.033 -0.476,-0.06 -0.572,-0.23c-0.155,-0.274 0.275,-0.712 0.416,-0.907c0.463,-0.642 1.258,-1.169 1.041,-2.039c-0.13,-0.519 -0.729,-0.547 -1.151,-0.685c-0.883,-0.289 -1.792,-0.678 -2.597,-1.145c-0.296,-0.171 -1.017,-0.577 -0.917,-1.008c0.077,-0.331 0.725,-0.538 0.997,-0.661c0.749,-0.34 1.522,-0.594 2.326,-0.768c0.374,-0.081 0.907,-0.069 1.196,-0.357c0.828,-0.829 -0.049,-1.517 -0.599,-2.128c-0.137,-0.152 -0.615,-0.582 -0.468,-0.823c0.317,-0.521 1.575,0.037 1.954,0.217c0.232,0.109 0.535,0.286 0.723,0.017c0.7,-0.994 -0.054,-1.873 -0.524,-2.771c-0.237,-0.453 -0.356,-0.913 -0.474,-1.406c-0.093,-0.388 -0.477,-1.3 -0.058,-1.593c0.262,-0.184 0.723,-0.087 1.008,-0.004c0.834,0.243 1.478,0.967 2.174,1.455c0.208,0.145 0.627,0.549 0.905,0.471c0.294,-0.082 0.266,-0.771 0.296,-0.998c0.098,-0.716 0.205,-1.901 0.818,-2.395c0.948,-0.764 1.465,1.015 2.041,1.414c0.338,0.234 1.396,-0.183 1.715,-0.367c0.373,-0.214 0.354,-0.802 0.46,-1.166c0.222,-0.763 0.596,-1.503 1.006,-2.182c0.21,-0.347 0.584,-0.954 1.077,-0.852c0.715,0.147 0.744,1.336 0.846,1.878c0.149,0.796 0.431,1.532 0.718,2.285c0.12,0.317 0.196,0.729 0.452,0.968c0.234,0.218 0.564,0.249 0.856,0.343c0.954,9.892 -1.552,16.186 -7.098,19.318Z" style="fill:#5e5e5e;"/><path d="M67.565,28.02c-0,-0 -0.039,-2.049 0.133,-3.137c0.648,-4.105 6.109,-2.282 8.573,-2.801c1.7,-0.357 3.053,-1.283 4.866,-1.243c2.128,0.046 3.721,1.514 5.757,1.627c1.271,0.07 2.281,-1.016 3.552,-1.15c1.935,-0.204 3.437,1.369 5.288,1.369c1.489,-0 2.756,-1.158 4.271,-0.978c2.826,0.336 4.273,2.699 6.696,3.653c1.229,0.484 2.471,-0.178 3.716,0.157c2.113,0.566 3.457,2.059 5.312,3.035c1.543,0.812 3.313,0.795 4.834,1.658c1.951,1.108 2.773,2.926 4.514,4.17c1.856,1.326 4.491,0.708 6.383,2.112c1.582,1.174 10.365,19.95 8.535,22.529c-1.209,1.704 -2.968,0.937 -4.475,1.854c-0.873,0.532 -1.158,1.89 -2.073,2.527c-0.963,0.671 -2.369,0.551 -3.16,1.486c-0.658,0.778 -0.73,1.946 -1.557,2.589c-1.219,0.948 -3.715,0.858 -4.154,2.613c-0.205,0.823 -0.961,4.047 -0.618,4.764c0.45,0.941 1.558,1.412 2.05,2.371c0.539,1.049 0.516,2.369 1.4,3.254c0.79,0.79 2.153,0.941 3.059,1.627c1.074,0.814 2.55,3.121 1.322,4.349c-2.151,2.151 -4.775,-2.212 -5.703,-3.543c-1,-1.436 -2.705,-1.422 -3.95,-2.496c-1.873,-1.614 -1.342,-3.628 -1.964,-5.742c-0.346,-1.175 -1.09,-2.05 -0.657,-3.348c0.335,-1.006 1.399,-1.098 1.854,-1.916c0.774,-1.393 -0.299,-2.635 1.252,-3.998c1.399,-1.229 3.006,-0.386 4.279,-1.15c0.826,-0.495 1.055,-2.655 1.963,-3.481c1.151,-1.046 2.686,-1.005 3.818,-1.955c0.753,-0.633 0.935,-1.673 1.47,-2.465c0.603,-0.892 1.95,-1.866 2.034,-2.996c0.069,-0.934 -0.456,-1.737 -0.516,-2.644c-0.055,-0.826 0.226,-1.686 -0.118,-2.48c-0.49,-1.131 -1.826,-1.454 -2.565,-2.385c-0.784,-0.987 -0.76,-2.481 -1.62,-3.341c-1.275,-1.275 -3.9,-0.999 -5.46,-2.276c-1.362,-1.115 -1.639,-3.006 -3.027,-4.021c-1.416,-1.035 -3.447,-1.177 -4.944,-2.175c-1.217,-0.811 -1.829,-2.393 -3.2,-2.933c-1.42,-0.56 -2.983,-0.006 -4.459,-0.673c-1.533,-0.694 -2.444,-2.565 -4.075,-2.933c-2.11,-0.477 -4.605,0.013 -6.798,-0.321c-1.603,-0.244 -2.865,-1.886 -4.42,-1.839c-1.686,0.052 -3.068,1.276 -4.827,1.276c-1.333,-0 -2.6,-1.48 -3.833,-1.135c-1.582,0.443 -2.492,2.074 -4.357,2.378c-1.873,0.306 -3.515,-1.334 -5.124,-1.024c-0.828,0.159 -1.305,1.109 -2.01,1.525c-1.651,0.973 -5.963,1.482 -7.267,-0.344Z" style="fill:#b6b6b6;"/></g><path d="M42.004,38.979c0,0 1.8,-2.813 2.926,-4.05c1.125,-1.238 3.713,-4.164 4.838,-2.814c1.125,1.351 1.463,3.714 -0.563,6.752c-2.025,3.038 -7.201,0.112 -7.201,0.112Zm-19.467,-1.012c0,-0 1.576,-4.164 2.814,-5.176c1.237,-1.013 2.475,0.787 2.475,0.787c0,0 0,-2.025 2.138,-3.038c2.138,-1.013 2.926,1.013 2.926,1.013c-0,-0 1.012,-2.476 2.588,-2.701c1.575,-0.225 2.813,1.913 2.813,1.913c-0,0 1.012,-4.163 2.813,-4.276c1.8,-0.112 3.263,3.376 3.263,5.064c-0,1.688 -1.238,4.501 -2.476,4.613c-1.237,0.113 -1.8,-1.688 -1.8,-1.688c0,0 -0.225,2.251 -1.8,2.814c-1.576,0.562 -2.926,-1.351 -2.926,-1.351c0,0 -1.013,2.926 -2.475,2.926c-1.463,-0 -3.264,-2.026 -3.264,-2.026c0,0 0.113,2.588 -1.687,3.151c-1.801,0.563 -2.701,-3.151 -2.701,-3.151l-2.701,1.126Z" style="fill:#f1cd80;"/></g></g></svg>