<?xml version="1.0" encoding="UTF-8" standalone="no"?><!DOCTYPE svg PUBLIC "-//W3C//DTD SVG 1.1//EN" "http://www.w3.org/Graphics/SVG/1.1/DTD/svg11.dtd"><svg width="100%" height="100%" viewBox="0 0 150 150" version="1.1" xmlns="http://www.w3.org/2000/svg" xmlns:xlink="http://www.w3.org/1999/xlink" xml:space="preserve" xmlns:serif="http://www.serif.com/" style="fill-rule:evenodd;clip-rule:evenodd;stroke-linejoin:round;stroke-miterlimit:2;"><path id="base" d="M150,75c0,-41.394 -33.606,-75 -75,-75c-41.394,0 -75,33.606 -75,75c0,41.394 33.606,75 75,75c41.394,0 75,-33.606 75,-75Z"/><path id="outline" d="M144,75c0,-38.082 -30.918,-69 -69,-69c-38.082,0 -69,30.918 -69,69c0,38.082 30.918,69 69,69c38.082,0 69,-30.918 69,-69Z" style="fill:#f04747;"/><path id="core" d="M141,75c0,-36.426 -29.574,-66 -66,-66c-36.426,0 -66,29.574 -66,66c0,36.426 29.574,66 66,66c36.426,0 66,-29.574 66,-66Z" style="fill:#ecf0f1;"/><clipPath id="_clip1"><path d="M141,75c0,-36.426 -29.574,-66 -66,-66c-36.426,0 -66,29.574 -66,66c0,36.426 29.574,66 66,66c36.426,0 66,-29.574 66,-66Z"/></clipPath><g clip-path="url(#_clip1)"><g id="recruitment"><g><path d="M92.048,122.738c-0.662,-0.374 -1.234,-0.876 0.319,-3.424c1.553,-2.549 2.628,-4.5 3.226,-3.266c0.597,1.235 2.867,6.531 1.712,6.929c-1.155,0.398 -1.912,-3.106 -2.469,-3.385c-0.558,-0.278 -0.956,4.182 -2.788,3.146Z" style="fill:#2d6118;"/><path d="M94.022,117.561c1.24,0.828 2.19,-1.274 3.066,-3.424c0.876,-2.151 2.156,-3.888 1.712,-5.058c-0.456,-1.202 -5.893,-0.995 -6.212,-0.159c-0.318,0.836 -0.278,1.394 0.398,1.553c0.677,0.16 2.708,0 2.828,0.279c0.119,0.279 -0.558,2.071 -1.075,2.987c-0.518,0.915 -1.673,3.185 -0.717,3.822Z" style="fill:#2d6118;"/><path d="M88.823,111.15c-0,0 -1.075,0.398 -2.031,1.912c-0.956,1.513 -2.031,4.141 -1.752,6.69c0.279,2.548 0.717,3.584 1.911,4.101c1.195,0.518 3.783,0.717 5.456,-0.517c1.672,-1.235 3.026,-2.589 3.225,-4.301c0.199,-1.712 0.279,-5.496 -0.995,-7.686c-0.8,-1.375 -5.814,-0.199 -5.814,-0.199Z" style="fill:#66aa4d;"/><path d="M92.508,106.398c0.378,-0.963 0.798,-2.538 1.188,-4.671c-0,0 1.401,2.165 0.674,5.386c0.69,0.494 1.041,1.205 1.063,1.608c0.04,0.717 0.319,2.628 -0.637,3.385c-0.956,0.757 -2.628,1.195 -5.655,0.757c-0.973,-0.141 -2.269,-1.554 -2.23,-2.669c0.036,-0.983 0.628,-2.368 1.45,-3.065c-0.407,-0.988 -0.68,-2.59 -0.295,-5.138c0,0 1.478,2.678 2.482,4.272c0.578,-0.078 1.202,-0.056 1.859,0.109c0.033,0.008 0.067,0.017 0.101,0.026Z" style="fill:#4a9b2e;"/><path d="M90.754,106.704c-0.192,0.23 -1.139,0.927 -2.03,0.621c-0.744,-1.965 -0.681,-2.926 -0.517,-4.846c-0,0 1.449,2.935 2.547,4.225Z" style="fill:#327c17;"/><path d="M88.544,116.725c-1.24,0.827 -2.19,-1.274 -3.066,-3.424c-0.876,-2.151 -2.156,-3.888 -1.712,-5.058c0.456,-1.203 5.893,-0.995 6.212,-0.159c0.318,0.836 0.278,1.394 -0.398,1.553c-0.677,0.159 -2.708,-0 -2.828,0.279c-0.119,0.278 0.558,2.07 1.075,2.986c0.518,0.916 1.673,3.186 0.717,3.823Z" style="fill:#2d6118;"/><path d="M87.788,124.092c-0.663,-0.374 -1.235,-0.876 0.318,-3.425c1.553,-2.548 2.628,-4.499 3.226,-3.265c0.597,1.235 2.867,6.531 1.712,6.929c-1.155,0.398 -1.911,-3.106 -2.469,-3.385c-0.557,-0.279 -0.956,4.181 -2.787,3.146Z" style="fill:#2d6118;"/></g><g><path d="M38.674,56.019c-2.969,-2.61 -4.178,-7.804 -1.599,-10.909c5.67,-6.827 11.487,-2.618 11.923,1.454c0.134,1.247 1.021,6.487 -1.665,9.283c10.443,4.1 9.517,24.596 9.517,24.596c-0,0 -5.089,-15.558 -8.288,-19.92c-0,-0 -0.069,17.724 0.436,20.502c0.872,4.798 1.018,24.864 0,33.007c0,0 -3.49,-21.665 -6.979,-27.772c-0,-0 -5.817,14.831 -7.271,29.953c0,0 -2.617,-22.974 0.436,-33.589c0,0 -0.724,-11.791 0.728,-18.757c0.388,-0.259 -3.906,1.722 -11.004,17.057c-0,-0 2.455,-20.496 13.766,-24.905Z" style="fill:#f5cd85;"/><g><path d="M18.581,92.755c-0.033,-0.012 -0.061,-0.026 -0.084,-0.041c-0.526,-0.364 -0.494,-0.984 -0.321,-1.537c0.029,-0.094 0.194,-0.286 0.194,-0.366c0,-0.046 -0.279,-0.13 -0.321,-0.172c-0.14,-0.14 -0.149,-0.367 -0.191,-0.551c-0.058,-0.248 -0.031,-0.583 0.022,-0.831c0.013,-0.059 0.161,-0.238 0.156,-0.257c-0.015,-0.058 -0.172,-0.145 -0.21,-0.217c-0.167,-0.312 -0.222,-0.687 -0.15,-1.031c0.067,-0.319 0.164,-0.684 0.303,-0.98c0.027,-0.06 0.076,-0.136 0.14,-0.163c0.017,-0.007 0.129,-0.009 0.121,-0.038c-0.034,-0.116 -0.253,-0.18 -0.338,-0.248c-0.139,-0.112 -0.265,-0.331 -0.305,-0.506c-0.065,-0.282 0.024,-0.587 0.168,-0.828c0.044,-0.072 0.237,-0.211 0.229,-0.293c-0.009,-0.099 -0.243,-0.171 -0.308,-0.248c-0.157,-0.185 -0.245,-0.366 -0.29,-0.605c-0.053,-0.282 -0.035,-0.686 0.108,-0.942c0.059,-0.104 0.243,-0.248 0.271,-0.347c0.012,-0.041 -0.147,-0.161 -0.172,-0.2c-0.118,-0.184 -0.237,-0.346 -0.223,-0.573c0.02,-0.314 0.059,-0.659 0.248,-0.917c0.052,-0.07 0.119,-0.15 0.201,-0.187c0.033,-0.016 0.136,-0.015 0.15,-0.055c0.018,-0.055 -0.191,-0.204 -0.207,-0.276c-0.062,-0.27 0.012,-0.828 0.162,-1.064c0.129,-0.202 0.275,-0.406 0.477,-0.541c0.076,-0.05 0.274,-0.066 0.319,-0.111c0.051,-0.051 -0.007,-0.341 0.012,-0.426c0.104,-0.451 0.678,-1.059 1.172,-0.904c0.265,0.083 0.601,0.627 0.601,0.627c0.077,0.537 -0.245,0.793 -0.659,1.059c-0.042,0.027 -0.275,0.09 -0.286,0.109c-0.044,0.072 0.106,0.312 0.086,0.42c-0.061,0.323 -0.23,0.633 -0.408,0.907c-0.078,0.121 -0.186,0.26 -0.334,0.293c-0.027,0.006 -0.28,0.007 -0.28,0.009c0,0.108 0.123,0.264 0.156,0.369c0.068,0.216 0.048,0.498 -0.006,0.713c-0.047,0.187 -0.122,0.443 -0.233,0.602c-0.052,0.076 -0.257,0.105 -0.257,0.105c-0,0 0.086,0.057 0.124,0.092c0.082,0.076 0.145,0.165 0.21,0.255c0.179,0.25 0.28,0.598 0.28,0.907c-0,0.196 -0.132,0.251 -0.22,0.382c-0.005,0.007 0.074,0.072 0.08,0.08c0.047,0.054 0.088,0.116 0.121,0.181c0.091,0.183 0.125,0.45 0.159,0.652c0.047,0.284 -0.027,0.719 -0.131,0.984c-0.046,0.119 -0.168,0.25 -0.191,0.372c-0.011,0.066 0.292,0.241 0.341,0.325c0.197,0.338 0.289,0.574 0.274,0.977c-0.011,0.284 -0.085,0.578 -0.258,0.808c-0.033,0.045 -0.254,0.14 -0.255,0.144c-0.006,0.018 0.084,0.099 0.096,0.114c0.079,0.101 0.125,0.204 0.156,0.328c0.077,0.308 -0.013,0.63 -0.077,0.933c-0.041,0.197 -0.103,0.406 -0.226,0.569c-0.036,0.049 -0.083,0.094 -0.136,0.124c-0.012,0.007 -0.113,0.045 -0.102,0.067c0.058,0.116 0.371,0.208 0.471,0.319c0.337,0.371 0.327,0.708 0.359,1.168c0.006,0.079 0.081,0.145 0.067,0.226c-0.032,0.19 -0.258,0.272 -0.487,0.283c0.08,0.13 0.153,0.297 0.207,0.362c0.22,0.264 0.47,0.808 0.423,1.158c-0.018,0.137 -0.187,0.316 -0.175,0.436c0.007,0.064 0.124,0.134 0.153,0.201c0.105,0.238 0.154,0.507 0.14,0.767c-0.01,0.195 -0.016,0.43 -0.098,0.611c-0.028,0.06 -0.175,0.143 -0.175,0.201c-0,0.034 0.17,0.146 0.197,0.187c0.101,0.158 0.144,0.379 0.153,0.564c0.011,0.25 -0.015,0.546 -0.105,0.783c-0.035,0.088 -0.261,0.291 -0.261,0.353c-0,0.037 0.131,0.111 0.156,0.153c0.115,0.198 0.153,0.474 0.292,0.659c0.417,0.55 0.099,1.489 -0.388,1.489c-0.459,0 -0.627,-0.751 -0.573,-1.092c0.014,-0.084 0.044,-0.174 0.127,-0.213c0.02,-0.009 0.166,-0.027 0.166,-0.029c-0.051,-0.128 -0.244,-0.283 -0.325,-0.407c-0.231,-0.355 -0.39,-0.729 -0.426,-1.155c-0.019,-0.222 0.008,-0.479 0.114,-0.678c0.032,-0.059 0.076,-0.106 0.14,-0.127c0.008,-0.003 0.099,-0.017 0.099,-0.026c0,-0.014 -0.113,-0.02 -0.124,-0.022c-0.061,-0.012 -0.118,-0.039 -0.165,-0.08c-0.14,-0.118 -0.198,-0.311 -0.217,-0.487c-0.032,-0.295 -0.024,-0.64 0.143,-0.897c0.049,-0.076 0.131,-0.122 0.214,-0.153c0.017,-0.006 0.136,-0.013 0.133,-0.032c-0.028,-0.17 -0.345,-0.844 -0.407,-1.006c-0.155,-0.407 -0.157,-1.183 0.214,-1.568Z" style="fill:#cecece;"/><path d="M30.429,84.403c0.718,-0.923 -0.447,-1.581 -1.044,-1.909c-0.596,-0.328 -2.266,-1.461 -3.399,-2.236c-1.133,-0.775 -3.757,-3.071 -4.294,-3.34c-0.537,-0.268 -0.984,0.03 -1.282,0.388c-0.298,0.358 -0.447,1.252 0.059,1.551c0.507,0.298 3.131,2.236 3.877,2.683c0.745,0.448 3.876,2.923 4.532,3.042c0.656,0.119 1.133,0.358 1.551,-0.179Z" style="fill:#84622e;"/><path d="M16.274,103.125l-0.027,-0.514l0.839,-0.271l-0.785,-1.055l0.352,-0.406l1.326,0.406l0.217,-1.299l0.676,-0.081l0.677,0.676l0.731,-0.731l0.703,0.163l-0.108,1.109l1.272,-0.243l0.298,0.243l-0.623,1.029l1.001,0.92l0.055,0.595l-1.57,0.379l0.325,1.624l-0.514,0.352l-0.731,-0.866l-0.377,0.109l-0.381,0.865l-0.677,-0.108l0.028,-1.191l-0.515,-0.189l-0.92,0.46l-0.649,-0.352l0.73,-0.974l-1.353,-0.65Z" style="fill:#474747;"/></g></g><g><path d="M82.691,40.975c-1.476,-1.425 -2.365,-3.653 -2.506,-5.982c-0.251,-4.15 1.876,-8.625 7.305,-9.474c3.403,-0.531 9.017,10.133 3.83,14.985c9.789,4.216 9.126,26.141 9.126,26.141c-0.487,-6.478 -8.428,-21.246 -8.428,-21.246c0.209,1.115 0.696,20.619 0.696,20.619c2.019,11.998 0.432,22.436 0.349,33.305c-0.668,-6.474 -4.62,-28.473 -7.175,-28.281c-2.05,0.154 -7.662,29.604 -7.662,29.604c-2.09,-6.339 0.836,-34.001 0.836,-34.001l0.348,-18.25c-4.737,2.856 -11.424,16.439 -11.424,16.439c0,-0 4.034,-18.915 14.705,-23.859Z" style="fill:#f5cd85;"/><g><path d="M62.99,61.899c0,-0 3.552,3.594 4.201,4.157c0.65,0.563 3.508,3.335 4.245,2.469c0.736,-0.866 -1.906,-3.335 -2.642,-4.071c-0.737,-0.736 -4.331,-3.855 -4.331,-3.855l-1.473,1.3Z" style="fill:#84622e;"/><path d="M57.989,61.595c0.045,-0.604 6.02,-6.583 6.756,-6.496c0.737,0.087 3.508,2.425 3.292,3.205c-0.217,0.78 -4.331,5.847 -4.894,6.41c-0.439,0.438 -1.473,1.169 -1.862,0.953c-0.39,-0.217 -3.378,-2.902 -3.292,-4.072Z" style="fill:#cecece;"/><clipPath id="_clip2"><path d="M57.989,61.595c0.045,-0.604 6.02,-6.583 6.756,-6.496c0.737,0.087 3.508,2.425 3.292,3.205c-0.217,0.78 -4.331,5.847 -4.894,6.41c-0.439,0.438 -1.473,1.169 -1.862,0.953c-0.39,-0.217 -3.378,-2.902 -3.292,-4.072Z"/></clipPath><g clip-path="url(#_clip2)"><path d="M60.025,68.395c-0,0 -3.595,-4.764 -0.087,-8.012c1.866,-1.728 5.154,-5.5 6.973,-4.937c1.819,0.563 3.941,9.138 -6.886,12.949Z" style="fill:#ababab;"/><path d="M56.647,63.025c-0,-0 2.078,-2.166 2.685,-1.993c0.606,0.174 4.201,3.465 4.071,4.375c-0.13,0.909 -4.548,3.291 -6.756,-2.382Z" style="fill:#bfbfbf;"/></g></g><g><path d="M98.195,69.06c-1.06,-1.271 -1.138,-1.707 2.951,-4.481c3.407,-2.311 5.406,-4.018 5.406,-4.018l1.031,1.742c-0,0 -3.484,2.963 -4.658,4.018c-2.454,2.205 -3.721,3.949 -4.73,2.739Z" style="fill:#84622e;"/><path d="M102.714,58.505c0.124,-0.514 3.304,-3.083 4.016,-3.047c0.711,0.035 5.369,7.468 5.405,8.072c0.035,0.605 -2.806,3.581 -3.517,3.403c-0.712,-0.178 -6.117,-7.539 -5.904,-8.428Z" style="fill:#cecece;"/><clipPath id="_clip3"><path d="M102.714,58.505c0.124,-0.514 3.304,-3.083 4.016,-3.047c0.711,0.035 5.369,7.468 5.405,8.072c0.035,0.605 -2.806,3.581 -3.517,3.403c-0.712,-0.178 -6.117,-7.539 -5.904,-8.428Z"/></clipPath><g clip-path="url(#_clip3)"><path d="M106.303,54c-0,-0 -0.818,1.351 -0.462,2.489c0.151,0.486 4.382,6.889 5.44,7.859c4.268,3.912 4.73,-10.389 -4.978,-10.348Z" style="fill:#ababab;"/><path d="M109.039,68.842c-0,-0 -1.316,-2.561 -0.783,-3.272c0.534,-0.711 1.389,-1.821 1.852,-2.07c0.462,-0.249 3.2,-0.214 3.983,0.035c0.782,0.249 -5.052,5.307 -5.052,5.307Z" style="fill:#919191;"/></g></g></g><g><path d="M122.117,82.852c-1.015,-0.639 -1.321,-1.916 -1.171,-3.175c0.2,-1.674 1.205,-3.314 2.417,-3.375c2.294,-0.114 3.149,5.602 1.037,6.759c3.925,2.15 2.924,14.545 1.841,23.733c-0,-0 -1.195,-10.671 -2.172,-13.061c-0,0 -3.421,7.223 -3.367,11.893c-0,-0 -0.272,-7.548 0.054,-10.318c0.076,-0.643 0.061,-1.413 -0.002,-2.237c-2.405,1.862 -3.853,1.749 -3.853,1.749c1.958,-1.825 2.836,-2.455 3.673,-3.484c-0.137,-1.115 -0.25,-1.695 -0.353,-2.67c-1.555,2.243 -5.601,4.253 -5.601,4.253c1.863,-2.37 4.399,-6.722 5.348,-7.283c0.158,-0.093 0.193,-0.577 0.245,-0.754c0.224,-0.763 0.634,-1.705 1.904,-2.03Z" style="fill:#f5cd85;"/><g><path d="M110.888,90.771c-0,-0 3.551,3.594 4.201,4.157c0.649,0.563 3.508,3.335 4.244,2.469c0.736,-0.866 -1.905,-3.335 -2.642,-4.071c-0.736,-0.736 -4.331,-3.855 -4.331,-3.855l-1.472,1.3Z" style="fill:#84622e;"/><path d="M105.887,90.468c0.045,-0.605 6.02,-6.583 6.756,-6.497c0.736,0.087 3.508,2.425 3.291,3.205c-0.216,0.78 -4.33,5.847 -4.893,6.41c-0.439,0.438 -1.473,1.169 -1.863,0.953c-0.39,-0.217 -3.378,-2.902 -3.291,-4.071Z" style="fill:#cecece;"/><clipPath id="_clip4"><path d="M105.887,90.468c0.045,-0.605 6.02,-6.583 6.756,-6.497c0.736,0.087 3.508,2.425 3.291,3.205c-0.216,0.78 -4.33,5.847 -4.893,6.41c-0.439,0.438 -1.473,1.169 -1.863,0.953c-0.39,-0.217 -3.378,-2.902 -3.291,-4.071Z"/></clipPath><g clip-path="url(#_clip4)"><path d="M107.922,97.267c0,0 -3.594,-4.764 -0.086,-8.012c1.866,-1.728 5.153,-5.5 6.972,-4.937c1.819,0.563 3.942,9.138 -6.886,12.949Z" style="fill:#ababab;"/><path d="M104.544,91.897c0,-0 2.079,-2.166 2.685,-1.993c0.607,0.174 4.201,3.465 4.071,4.375c-0.13,0.909 -4.547,3.291 -6.756,-2.382Z" style="fill:#bfbfbf;"/></g></g></g></g></g></svg>