<?xml version="1.0" encoding="UTF-8" standalone="no"?><!DOCTYPE svg PUBLIC "-//W3C//DTD SVG 1.1//EN" "http://www.w3.org/Graphics/SVG/1.1/DTD/svg11.dtd"><svg width="100%" height="100%" viewBox="0 0 150 150" version="1.1" xmlns="http://www.w3.org/2000/svg" xmlns:xlink="http://www.w3.org/1999/xlink" xml:space="preserve" xmlns:serif="http://www.serif.com/" style="fill-rule:evenodd;clip-rule:evenodd;stroke-linejoin:round;stroke-miterlimit:2;"><path id="base" d="M150,75c0,-41.394 -33.606,-75 -75,-75c-41.394,0 -75,33.606 -75,75c0,41.394 33.606,75 75,75c41.394,0 75,-33.606 75,-75Z"/><path id="outline" d="M144,75c0,-38.082 -30.918,-69 -69,-69c-38.082,0 -69,30.918 -69,69c0,38.082 30.918,69 69,69c38.082,0 69,-30.918 69,-69Z" style="fill:#f04747;"/><path id="core" d="M141,75c0,-36.426 -29.574,-66 -66,-66c-36.426,0 -66,29.574 -66,66c0,36.426 29.574,66 66,66c36.426,0 66,-29.574 66,-66Z" style="fill:#ecf0f1;"/><clipPath id="_clip1"><path d="M141,75c0,-36.426 -29.574,-66 -66,-66c-36.426,0 -66,29.574 -66,66c0,36.426 29.574,66 66,66c36.426,0 66,-29.574 66,-66Z"/></clipPath><g clip-path="url(#_clip1)"><g id="resuscitate"><g><g><path d="M108.718,62.859c-0,-0 -5.998,0.909 -7.18,2.453c-1.181,1.545 -1.454,3.636 -1.454,3.636l-2.908,2.635c0,-0 -0.999,2.363 2,2.635c2.999,0.273 5.18,0.546 7.27,-0.636c2.09,-1.181 5.725,-2.181 8.179,-2.363c2.453,-0.181 3.544,0 4.907,-0.454c1.363,-0.454 3.635,-0.909 5.271,-1c1.635,-0.09 5.089,-0.817 5.907,-1.999c0.818,-1.181 1.817,-4.816 0.454,-6.089c-1.363,-1.272 -3.908,-1.454 -3.908,-1.454l-18.538,2.636Z" style="fill:#ba1b1b;"/><path d="M82.671,71.195c0,0 8.928,0.576 14.592,1.248c0,0.1 5.852,-4.093 9.888,-5.76c3.807,-1.571 13.152,-3.168 13.152,-3.168c0,0 2.592,2.496 3.168,4.32c0,0 -1.152,3.744 -2.976,5.088c0,0 5.088,-1.344 5.856,-5.376c0,0 -1.536,-2.976 -1.92,-4.512c-0.384,-1.536 -0.672,-2.688 -0.672,-2.688c0,0 1.887,1.005 3.264,0.672c2.784,-0.672 6.048,-3.84 3.072,-7.2c-2.272,-2.565 -6.24,0.672 -7.392,1.824c0,0 -3.744,-6.432 -6.336,-11.616c0,0 -3.168,2.88 -3.648,8.832c0,0 1.152,-2.4 3.36,-4.896c0,0 1.728,4.128 2.784,7.584c0,0 -8.352,3.36 -12.864,6.528c0,0 -8.256,-5.664 -11.04,-6.912c0,0 -2.688,4.896 -2.688,10.944c0,0 0.48,-2.88 3.168,-6.432c0,0 7.68,3.84 10.368,5.28c0,0 -7.008,4.896 -9.408,5.088c0,0 -9.12,0.288 -13.728,1.152Z" style="fill:#f1cd80;"/><path d="M116.043,62.603c-0.28,-3.585 0.612,-4.864 1.001,-5.768c-0.712,0.807 -1.881,2.648 -1.001,5.768Z" style="fill:#ba1b1b;"/><path d="M117.429,62.083c-0.28,-3.585 0.612,-4.864 1.001,-5.768c-0.711,0.807 -1.88,2.648 -1.001,5.768Z" style="fill:#ba1b1b;"/><path d="M118.799,61.581c-0.281,-3.586 0.611,-4.865 1.001,-5.769c-0.712,0.807 -1.881,2.648 -1.001,5.769Z" style="fill:#ba1b1b;"/></g><g><path d="M76.93,47.639c0.466,-1.167 1.219,-2.302 1.951,-3.034c0.484,-0.484 0.93,-0.822 1.542,-1.128c0.066,-0.033 0.611,-0.264 0.639,-0.127c0.026,0.133 -0.262,0.338 -0.341,0.436c-0.35,0.438 -0.808,0.772 -1.159,1.202c-0.656,0.801 -0.868,1.653 -1.171,2.576c0.855,-0.601 1.645,-1.096 2.734,-1.46c0.249,-0.082 1.118,-0.511 1.362,-0.308c0.188,0.157 -1.254,1.009 -1.372,1.085c-0.404,0.258 -0.832,0.488 -1.255,0.713c-0.466,0.246 -0.923,0.507 -1.385,0.76c-0.031,0.409 -0.28,0.978 -0.703,1.592c0.42,0.057 0.882,-0.057 1.29,-0.108c0.709,-0.089 1.408,-0.187 2.095,-0.383c0.123,-0.035 0.572,-0.233 0.649,-0.053c0.237,0.553 -1.545,0.654 -1.723,0.68c-0.441,0.066 -0.896,0.088 -1.34,0.117c-0.38,0.026 -0.799,0.072 -1.212,0.078c-0.952,1.234 -2.551,2.565 -4.468,3.113c-3.573,1.021 -13.359,1.532 -13.359,1.532l0.426,-2.638c-0,-0 9.274,0.596 11.231,-0.596c1.156,-0.703 3.111,-2.176 4.677,-3.109c-0.19,-1.133 -0.126,-2.412 0.014,-3.389c0.022,-0.152 0.32,-1.588 0.457,-1.542c0.141,0.046 0.128,1.279 0.128,1.446c-0,0.742 0.116,1.668 0.293,2.545Z" style="fill:#a1a1a1;"/><path d="M36.246,66.599c-2.422,5.752 -20.111,2.7 -24.971,-0.07c-4.445,-2.533 -7.899,-4.141 -14.876,-3.375c-4.912,0.539 -7.403,3.829 -9.785,4.765c-2.383,0.936 -9.445,2.297 -9.445,2.297c0,0 3.364,1.091 5.361,0.766c7.317,-1.191 10.13,-4.82 12.422,-5.191c8.424,-1.361 9.782,0.372 11.828,1.447c18.874,9.918 29.95,4.2 33.351,-0.57c1.337,-1.875 -3.885,-0.069 -3.885,-0.069Z" style="fill:#ce80b4;"/><path d="M50.903,72.512c-3.92,1.298 -8.91,0.948 -14.938,-3.976c-3.904,-3.189 -1.276,-12.593 1.021,-17.954c2.297,-5.36 8.849,-15.401 16.252,-15.06c-0,-0 -0,-5.191 4.084,-7.658c-0,-0 -0.766,-3.744 0.596,-4.51c1.361,-0.766 4.084,2.212 4.084,2.212c-0,0 0.766,-0.425 1.957,-0.425c1.191,-0 2.382,0.51 2.382,0.51c0,0 0.511,-1.957 1.702,-1.786c1.191,0.17 2.638,1.276 1.872,4.084c-0,-0 2.127,2.638 1.361,4.765c0,-0 6.042,0.936 5.446,4.254c-0.596,3.319 -2.297,3.148 -3.829,2.893c-1.532,-0.255 -1.702,-1.106 -3.063,-0.51c-1.362,0.595 -2.553,1.957 -5.361,2.552c-2.808,0.596 -2.467,1.447 -2.467,1.447c-0,-0 2.467,5.19 2.042,9.87c-0.397,4.37 -1.017,9.333 -3.937,12.672c5.184,1.844 4.796,2.197 3.008,2.824c-1.206,0.422 -3.791,0.118 -5.722,-0.204c-0.355,0.316 -0.734,0.64 -1.136,0.963c5.171,1.586 6.463,3.312 5.933,3.71c-0.616,0.462 -5.702,1.592 -6.986,0.719c-0.635,-0.432 -2.539,-0.964 -4.301,-1.392Z" style="fill:#cdcdcd;"/></g></g><g><path d="M65.875,170.413l18.054,-49.863c-0,-0 3.095,-0.86 10.66,0.688c7.566,1.547 8.769,3.954 8.769,3.954c0,0 -7.393,24.588 -11.176,35.077c-3.783,10.488 -8.941,23.556 -15.991,32.841c-7.049,9.284 -10.316,-22.697 -10.316,-22.697Z" style="fill:#becbcd;"/><path d="M89.112,124.612c-0.799,-2.819 -1.119,-6.745 -0.909,-11.896c0,-0 1.278,-1.95 1.345,-4.168c0.067,-2.219 -0.403,-16.201 0.874,-17.479c1.277,-1.277 2.353,0 2.353,0c-0,0 0.269,-3.359 1.949,-3.092c1.944,0.308 2.286,3.697 2.286,3.697c-0,0 0.134,-1.546 1.748,-1.411c1.08,0.09 1.68,1.882 1.68,1.882l0.404,2.689c-0,-0 0.467,-0.269 1.143,-0.269c1.411,-0 1.815,2.487 1.815,2.487c-0,0 0.47,5.109 0.403,6.79c-0.067,1.681 0.968,6.776 0.336,8.672c-3.025,9.075 -4.706,8.269 -5.647,10.756c-0.302,0.799 -0.556,1.765 -0.761,2.708c-1.899,-0.027 -4.053,-0.211 -6.372,-0.671c-0.987,-0.196 -1.866,-0.432 -2.647,-0.695Z" style="fill:#f1cd80;"/></g><g><g><path d="M120.308,87.6c0.307,-1.115 -0.35,-2.269 -1.465,-2.575l-16.165,-4.437c-1.115,-0.306 -2.269,0.351 -2.575,1.466l-7.21,26.267c-0.306,1.116 0.351,2.269 1.466,2.575l16.164,4.437c1.116,0.306 2.27,-0.35 2.576,-1.466l7.209,-26.267Z" style="fill:#535029;"/><path d="M118.968,88.205c0.278,-1.012 -0.318,-2.059 -1.33,-2.337l-14.665,-4.025c-1.012,-0.278 -2.058,0.318 -2.336,1.33l-6.841,24.923c-0.278,1.012 0.318,2.058 1.33,2.336l14.665,4.025c1.012,0.278 2.059,-0.318 2.337,-1.33l6.84,-24.922Zm-0.525,-0.145l-6.841,24.923c-0.198,0.722 -0.945,1.147 -1.667,0.949c0,0 -14.665,-4.025 -14.665,-4.025c-0.722,-0.198 -1.147,-0.945 -0.949,-1.667c0,0 6.841,-24.923 6.841,-24.923c0.198,-0.722 0.945,-1.147 1.667,-0.949c-0,0 14.665,4.025 14.665,4.025c0.722,0.199 1.147,0.946 0.949,1.667Z" style="fill:#decd13;"/></g><path d="M108.813,98.704c0.388,-0.349 1.05,-0.715 1.672,-0.489c1.28,0.466 1.6,2.523 0.749,2.753c-0.59,0.16 -1.878,-0.977 -2.418,-1.361c-0.291,0.374 -0.757,0.62 -0.757,0.62c0,0 -0.069,0.018 -0.205,0.075c-0.249,1.844 -0.25,4.674 -0.25,4.674c-0.407,-1.14 -0.595,-2.996 -0.678,-4.164c-0.132,0.086 -0.275,0.185 -0.428,0.297c-0.271,1.29 -0.344,2.78 -0.344,2.78c-0.154,-0.515 -0.243,-1.506 -0.292,-2.282c-1.515,1.258 -3.764,3.632 -6.595,8.073c0,-0 0.672,-2.835 2.792,-6.12c0,-0 -2.022,1.193 -4.985,5.041c-0,-0 1.289,-4.453 5.213,-7.415c2.578,-1.947 3.776,-2.46 5.304,-2.926c-0,0 0.955,-0.151 1.222,0.444Z" style="fill:#f1cd80;"/><g><path d="M108.004,96.767c0,0 1.664,-1.444 2.512,-3.038c0.848,-1.595 1.289,-3.338 2.198,-4.207c0.91,-0.868 3.372,-2.094 3.372,-2.094c-0,-0 2.724,0.263 -0.31,2.487c-0,0 1.773,1.009 -1.203,2.616c0,-0 1.554,2.216 -1.868,2.73c0,0 1.478,0.593 -0.364,1.056c-1.842,0.464 -3.352,0.124 -4.337,0.45Z" style="fill:#b9f6f9;"/><path d="M105.894,96.256c-0,-0 -0.694,-2.092 -0.609,-3.896c0.085,-1.803 0.596,-3.527 0.257,-4.739c-0.339,-1.211 -1.829,-3.522 -1.829,-3.522c-0,0 -2.477,-1.164 -1.004,2.298c0,-0 -2.04,-0.038 -0.301,2.862c0,0 -2.468,1.112 0.212,3.302c0,0 -1.573,-0.245 -0.225,1.094c1.347,1.339 2.819,1.818 3.499,2.601Z" style="fill:#b9f6f9;"/></g></g><g><g><path d="M95.817,81.904c-0.218,-1.135 -1.317,-1.88 -2.453,-1.662l-16.462,3.162c-1.135,0.218 -1.88,1.317 -1.662,2.453l5.138,26.75c0.219,1.136 1.318,1.88 2.453,1.662l16.462,-3.162c1.136,-0.218 1.881,-1.317 1.662,-2.453l-5.138,-26.75Z" style="fill:#535029;"/><path d="M94.882,83.039c-0.198,-1.03 -1.195,-1.706 -2.226,-1.508l-14.934,2.869c-1.03,0.197 -1.706,1.195 -1.508,2.225l4.875,25.381c0.198,1.03 1.195,1.706 2.226,1.508l14.934,-2.869c1.03,-0.198 1.706,-1.195 1.508,-2.225l-4.875,-25.381Zm-0.535,0.103l4.875,25.38c0.142,0.735 -0.34,1.447 -1.076,1.588c0,0 -14.934,2.869 -14.934,2.869c-0.735,0.141 -1.447,-0.341 -1.588,-1.076c-0,-0 -4.875,-25.381 -4.875,-25.381c-0.142,-0.735 0.341,-1.446 1.076,-1.588c-0,0 14.934,-2.868 14.934,-2.868c0.735,-0.142 1.447,0.341 1.588,1.076Z" style="fill:#decd13;"/></g><g><path d="M82.498,103.038c-0.356,-0.432 0.015,-0.868 0.015,-0.868l2.088,-2.403l0.634,0.697l-1.981,2.247c0,-0 -0.4,0.759 -0.756,0.327Z" style="fill:#e0e0e0;"/><path d="M83.719,100.391c0,0 5.202,-6.097 5.891,-9.143c0,0 3.23,-0.484 4.057,-0.916c0,0 -0.476,2.732 -0.335,3.706c0,0 -5.033,3.653 -8.321,7.152l-1.292,-0.799Z" style="fill:#d8d8d8;"/><path d="M83.243,99.572c0.722,0.957 1.751,1.649 3.203,1.98c-0.375,0.872 -4.057,-1.307 -3.203,-1.98Z" style="fill:#969696;"/></g><path d="M78.502,87.057c0,-0 4.14,3.274 6.445,11.084c0,-0 3.586,-4.702 4.114,-7.347c-0,-0 3.42,-0.77 4.668,-1.462c0,-0 -8.724,-4.372 -15.227,-2.275Z" style="fill:#bb1e1e;"/><path d="M89.761,106.368c-0.308,0.045 -0.546,0.057 -0.6,-0.001c-0.182,-0.194 -0.283,-1.47 -0.023,-2.115c0,0 -1.056,-0.503 -1.171,-1.299c-0.114,-0.796 0.027,-2.459 2.054,-3.703c2.026,-1.244 4.489,-0.416 5.225,0.818c0.737,1.234 1.023,2.926 -0.033,3.426c-1.055,0.501 -1.636,0.278 -1.636,0.278l0.529,3.355c0,0 -1.167,1.117 -2.383,1.387c-1.215,0.271 -2.452,0.025 -2.452,0.025l-0.306,-1.391l0.498,-0.102c0.004,0.006 0.007,0.011 0.008,0.013c0.076,0.157 0.095,0.34 0.127,0.509c0.004,0.019 0.038,0.153 0.075,0.136c0.028,-0.013 0,-0.174 -0,-0.2c-0.002,-0.156 -0.015,-0.346 0.019,-0.506l0.355,-0.073c0.005,0.019 0.012,0.036 0.015,0.044c0.053,0.161 0.091,0.323 0.123,0.489c0.005,0.024 0.048,0.178 0.082,0.171c0.028,-0.005 0.035,-0.189 0.038,-0.212c0.02,-0.168 0.042,-0.387 0.095,-0.565l0.397,-0.081c0.034,0.118 0.137,0.253 0.172,0.342c0.009,0.021 0.099,0.28 0.12,0.256c0.035,-0.042 0.022,-0.144 0.028,-0.195c0.016,-0.157 0.005,-0.317 0.021,-0.474l0.486,-0.1l-0.005,-0.631c-0,0 -0.099,0.026 -0.257,0.065c-0.041,-0.125 -0.071,-0.257 -0.113,-0.379c-0.004,-0.011 -0.061,-0.169 -0.065,-0.168l-0.07,0.57c-0,0.007 -0.001,0.02 -0.001,0.037c-0.125,0.03 -0.265,0.062 -0.412,0.095c-0.028,-0.07 -0.054,-0.141 -0.08,-0.211c-0.022,-0.058 -0.039,-0.119 -0.061,-0.177c-0.003,-0.007 -0.038,-0.108 -0.044,-0.099c-0.041,0.058 -0.032,0.217 -0.04,0.286c-0.007,0.061 -0.014,0.122 -0.019,0.182c-0.002,0.023 -0.005,0.048 -0.009,0.073c-0.151,0.031 -0.302,0.061 -0.447,0.086l-0.129,-0.617c-0.006,-0.032 -0.011,-0.098 -0.011,-0.098l-0.095,0.721c-0.001,0.009 -0.003,0.02 -0.005,0.033Zm0.823,-5.433c0.472,0.031 0.664,0.581 0.573,1.122c-0.091,0.54 -0.467,1.072 -1.131,1.067c-0.544,-0.004 -0.519,-2.024 0.558,-2.189Zm1.918,1.503c0.566,0.017 0.883,-0.205 1.039,-0.489c0.155,-0.283 0.15,-0.629 0.071,-0.86c-0.663,-0.601 -1.696,0.466 -1.11,1.349Z" style="fill:#fcfaee;"/></g><g><path d="M7.299,138.664c0,0 -1.017,-23.404 12.008,-33.784c13.025,-10.379 22.794,-11.6 37.244,-3.053c14.449,8.548 12.414,25.339 11.6,37.651c-0.814,12.312 -60.852,-0.814 -60.852,-0.814Z" style="fill:#f1cd80;"/><path d="M42.14,105.192c-0.652,-0.58 -2.32,-4.641 -2.465,-6.237c-0.145,-1.595 0.145,-5.438 1.377,-7.396c1.233,-1.958 3.191,-3.771 4.787,-3.844c1.595,-0.072 1.232,0.363 1.232,0.363c0,-0 1.741,-1.741 3.191,-2.683c1.45,-0.943 3.408,-1.016 4.424,-0.073c1.015,0.943 0.652,1.813 -0.218,1.451c-0.87,-0.363 -2.683,-0.726 -3.553,0.145c-0.87,0.87 -1.813,1.667 -1.813,1.667c-0,0 1.958,1.451 2.03,3.046c0.073,1.596 0.073,4.351 -1.232,4.786c-1.306,0.435 -4.134,-0.362 -4.787,-3.698c-0.264,-1.35 0.798,-3.118 0.798,-3.118c0,-0 -2.03,-0.29 -3.626,3.045c-0.811,1.698 -0.507,2.756 -0.725,4.932c-0.217,2.175 0.653,5.221 1.378,6.091c0.725,0.87 -0.145,2.103 -0.798,1.523Zm5.657,-15.301c-0,-0 1.45,0.87 1.667,2.32c0.218,1.451 0.508,2.393 -0.217,2.538c-0.725,0.146 -1.378,-0.725 -1.523,-2.32c-0.145,-1.595 0.073,-2.538 0.073,-2.538Z" style="fill:#563d09;"/></g><path d="M86.536,123.476c0.266,-1.414 0.494,-3.178 0.323,-4.508c-0.336,-2.622 -2.555,-10.084 -2.084,-12.571c0.471,-2.488 0.739,-3.026 1.95,-3.026c1.21,0 1.478,3.026 1.613,4.034c0.134,1.008 0.274,1.862 0.941,2.689c1.001,1.24 4.671,6.012 11.63,6.05l-3.991,9.796c-1.586,-0.077 -3.321,-0.269 -5.159,-0.633c-2.265,-0.45 -3.958,-1.11 -5.223,-1.831Z" style="fill:#f1cd80;"/></g></g></svg>