<?xml version="1.0" encoding="UTF-8" standalone="no"?><!DOCTYPE svg PUBLIC "-//W3C//DTD SVG 1.1//EN" "http://www.w3.org/Graphics/SVG/1.1/DTD/svg11.dtd"><svg width="100%" height="100%" viewBox="0 0 150 150" version="1.1" xmlns="http://www.w3.org/2000/svg" xmlns:xlink="http://www.w3.org/1999/xlink" xml:space="preserve" xmlns:serif="http://www.serif.com/" style="fill-rule:evenodd;clip-rule:evenodd;stroke-linejoin:round;stroke-miterlimit:2;"><path id="base" d="M150,75c0,-41.394 -33.606,-75 -75,-75c-41.394,0 -75,33.606 -75,75c0,41.394 33.606,75 75,75c41.394,0 75,-33.606 75,-75Z"/><path id="outline" d="M144,75c0,-38.082 -30.918,-69 -69,-69c-38.082,0 -69,30.918 -69,69c0,38.082 30.918,69 69,69c38.082,0 69,-30.918 69,-69Z" style="fill:#f04747;"/><path id="core" d="M141,75c0,-36.426 -29.574,-66 -66,-66c-36.426,0 -66,29.574 -66,66c0,36.426 29.574,66 66,66c36.426,0 66,-29.574 66,-66Z" style="fill:#ecf0f1;"/><clipPath id="_clip1"><path d="M141,75c0,-36.426 -29.574,-66 -66,-66c-36.426,0 -66,29.574 -66,66c0,36.426 29.574,66 66,66c36.426,0 66,-29.574 66,-66Z"/></clipPath><g clip-path="url(#_clip1)"><g id="swamp-bubbles"><path d="M4.498,98.847c0,-0 28.793,-16.496 48.887,-15.296c20.095,1.199 25.194,6.598 30.292,6.598c5.099,0 22.494,-4.199 31.492,-5.099c8.997,-0.899 21.594,4.199 28.792,2.7c7.198,-1.5 1.5,11.697 1.5,11.697c-29.786,54.951 -102.479,70.213 -140.963,-0.6Z" style="fill:#8c9787;"/><path d="M92.675,130.338c-0,0 7.198,-3.299 12.896,-4.798c5.699,-1.5 11.697,-1.2 16.796,-0c5.098,1.199 -0,5.698 -0,5.698c-0,0 -8.398,-2.999 -16.496,-1.799c-8.098,1.199 -13.196,0.899 -13.196,0.899Zm-53.686,-14.696c0,0 6.598,-1.499 10.497,-4.199c3.899,-2.699 6.299,-7.498 8.398,-10.197c2.1,-2.699 4.499,-6.298 9.598,-5.099c5.098,1.2 7.498,4.799 9.597,8.998c2.099,4.199 4.799,7.198 8.398,7.198c3.599,0 9.897,-1.799 12.896,0.6c0,-0 -6.898,0.9 -11.697,2.699c-4.571,1.715 -6.598,2.4 -10.497,2.999c-3.899,0.6 -8.233,-0.778 -11.697,-1.799c-11.387,-3.357 -13.196,0.3 -25.493,-1.2Zm56.985,-6.598c-0,-0 6.898,-0 11.097,-2.699c4.199,-2.7 7.798,-5.999 7.798,-5.999c6.254,-5.603 13.602,-7.379 22.194,-4.798l7.498,5.998c-0,-0 -9.298,3.599 -12.897,2.699c-3.599,-0.899 -5.998,-0.6 -5.998,-0.6l-5.099,0.9c0,0 -1.499,0.6 -4.498,1.8c-3,1.199 -6.899,4.199 -11.397,4.499c-4.499,0.299 -8.698,-1.8 -8.698,-1.8Zm-81.878,-4.799c-0,0 5.998,-1.799 8.997,-0.6c3,1.2 7.798,3 7.798,3l9.298,-1.2c-0,-0 -3.299,4.799 -8.098,4.499c-4.799,-0.3 -3.299,-2.1 -8.398,-2.4c-5.098,-0.3 -5.398,0 -8.398,1.5c-2.999,1.5 -1.199,-4.799 -1.199,-4.799Zm0.261,-23.951c0.052,0.079 -0.641,0.211 -0.678,0.217c-0.689,0.117 -1.473,0.115 -2.109,-0.209c-1.119,-0.569 -0.889,-1.831 -0.345,-2.752c0.638,-1.082 1.798,-1.767 3.063,-1.684c1.628,0.108 2.653,1.403 1.833,2.906l-1.764,1.522Zm27.589,-4.368c-1.357,0 -2.982,-0.31 -4.291,-0.63c-4.078,-0.998 -5.888,-4.5 -6.225,-8.48c-0.343,-4.066 1.249,-8.047 3.298,-11.479c1.789,-2.996 4.521,-6.848 8.411,-6.894c2.115,-0.025 4.151,1.004 5.966,1.986c3.123,1.69 6.791,4.594 7.823,8.142c0.473,1.629 0.254,3.379 -0.047,5.02c-0.982,5.336 -5.137,10.523 -10.606,11.841c-1.093,0.263 -2.219,0.196 -3.332,0.196l-0.997,0.298Zm96.862,-1.947c-0.057,0.113 -0.494,0.05 -0.579,0.045c-0.543,-0.033 -1.243,-0.204 -1.457,-0.772c-0.213,-0.562 0.096,-1.221 0.421,-1.673c0.701,-0.972 2.154,-2.258 3.459,-2.149c0.69,0.058 0.902,0.756 0.792,1.351c-0.175,0.954 -0.962,1.702 -1.692,2.268l-0.944,0.93Zm-26.876,-1.036c0.209,0.419 -1.032,0.558 -1.223,0.482c-1.419,-0.568 -0.537,-2.649 0.205,-3.379c1.481,-1.456 2.135,0.318 1.534,1.64l-0.516,1.257Zm-40.372,-18.322c-0.55,0 -1.103,0.159 -1.585,-0.238c-1.392,-1.146 0.673,-3.945 1.819,-4.457c1.779,-0.794 1.956,1.429 1.304,2.522c-0.3,0.503 -0.679,0.955 -1.078,1.381l-0.46,0.792Zm24.181,-17.363c-0.661,0.661 -1.617,-0.35 -1.777,-0.954c-0.309,-1.167 -0.337,-3.084 0.507,-3.899c0.867,-0.839 3.375,-1.238 3.375,0.511c-0,1.08 0.14,2.42 -0.461,3.307l-1.644,1.035Zm28.761,-1.491c0,0.362 -0.557,0.425 -0.848,0.43c-0.74,0.013 -1.562,-0.34 -1.93,-1.01c-1.042,-1.891 1.526,-3.916 2.919,-4.708c0.536,-0.305 1.272,-0.696 1.913,-0.533c0.759,0.193 0.698,1.136 0.558,1.73c-0.345,1.469 -1.252,2.744 -2.476,3.609l-0.136,0.482Zm-95.126,-3.089c-0.17,0.255 -0.805,0.327 -1.065,0.374c-1.62,0.298 -1.901,-3.439 -1.628,-4.921c0.484,-2.616 3.001,0.386 2.906,2.842l-0.213,1.705Zm34.408,-2.877c-1.823,0.912 -4.467,-1.66 -5.335,-2.957c-1.772,-2.645 -2.261,-6.107 -1.849,-9.216c0.207,-1.564 0.728,-3.245 2.1,-4.172c3.805,-2.569 10.412,0.312 11.117,4.006c0.923,4.832 1.036,7.989 -2.642,10.801l-3.391,1.538Zm-13.742,-7.776c-0.113,0.34 -0.851,0.492 -1.129,0.55c-1.2,0.249 -2.019,-0.604 -1.977,-1.807c0.057,-1.627 2.533,-4.301 3.195,-1.585c0.076,0.311 0.097,0.623 0.09,0.942l-0.179,1.9Z" style="fill:#8eb181;"/><path d="M64.421,103.917c-0.291,0.194 -0.846,0.156 -1.17,0.17c-1.111,0.046 -3.545,-0.025 -3.627,-1.571c-0.031,-0.594 0.261,-1.186 0.548,-1.685c0.679,-1.18 1.689,-2.397 2.842,-3.14c1.261,-0.812 2.905,-0.673 4.263,-0.171c1.093,0.403 1.534,1.211 1.49,2.457c-0.091,2.626 -3.119,3.181 -4.346,3.94Zm-51.662,-24.886c-0.176,0.088 -0.349,0.195 -0.546,0.23c-1.521,0.272 0.989,-2.447 1.1,-0.903l-0.554,0.673Zm125.501,-6.33c-0.12,0.239 -0.627,0.078 -0.76,-0.044c-0.286,-0.265 -0.189,-0.682 0.017,-0.961c0.25,-0.338 0.715,-0.633 1.148,-0.621c0.622,0.019 0.477,0.69 0.225,1.034l-0.63,0.592Zm-27.286,-0.7c-0.236,-0 -0.401,-0.2 -0.461,-0.433c-0.06,-0.232 0.434,-0.947 0.613,-1.075c0.551,0.954 0.65,1.607 -0.152,1.508Zm-73.821,-7.031c-2.551,0.85 -2.947,-3.21 -2.587,-4.661c0.854,-3.437 4.199,-7.712 7.857,-8.437c3.417,-0.677 3.943,4.218 3.277,6.519c-1.031,3.566 -5.122,5.674 -8.547,6.579Zm33.448,-11.504c0,0.378 -0.773,0.593 -0.805,0.059c-0.022,-0.366 0.705,-1.738 0.877,-0.933l-0.072,0.874Zm24.5,-18.429c-0.287,0.574 -1.325,-0.426 -1.303,-0.861c0.048,-0.991 2.125,-2.273 2.203,-0.801l-0.9,1.662Zm28.229,-1.065c-0.275,-0.092 -0.542,0.236 -0.86,-0.009c-0.42,-0.323 0.895,-1.146 1.112,-1.227l-0.252,1.236Zm-94.912,-3.078c-0.246,0.123 -0.48,0.247 -0.755,0.302c-1.939,0.388 -0.75,-2.535 0.414,-1.759l0.341,1.457Zm35.259,-7.35c0.053,0.017 -0.551,0.155 -0.618,0.162c-0.403,0.04 -0.805,0.055 -1.21,0.038c-1.236,-0.052 -2.808,-0.138 -3.698,-1.121c-1.632,-1.801 0.335,-5.313 1.934,-6.476c1.274,-0.927 2.373,0.049 3.417,1.035c1.249,1.179 2.862,3.88 0.175,6.362Zm-14.7,-2.131c0.017,0.017 -0.705,0.428 -1.027,-0.085c-0.36,-0.572 -0.233,-1.442 0.081,-2.007c0.669,-1.205 1.738,-0.407 1.781,0.665l-0.835,1.427Z" style="fill:#dee8da;"/></g></g></svg>