<?xml version="1.0" encoding="UTF-8" standalone="no"?><!DOCTYPE svg PUBLIC "-//W3C//DTD SVG 1.1//EN" "http://www.w3.org/Graphics/SVG/1.1/DTD/svg11.dtd"><svg width="100%" height="100%" viewBox="0 0 150 150" version="1.1" xmlns="http://www.w3.org/2000/svg" xmlns:xlink="http://www.w3.org/1999/xlink" xml:space="preserve" xmlns:serif="http://www.serif.com/" style="fill-rule:evenodd;clip-rule:evenodd;stroke-linejoin:round;stroke-miterlimit:2;"><path id="base" d="M150,75c0,-41.394 -33.606,-75 -75,-75c-41.394,0 -75,33.606 -75,75c0,41.394 33.606,75 75,75c41.394,0 75,-33.606 75,-75Z"/><path id="outline" d="M144,75c0,-38.082 -30.918,-69 -69,-69c-38.082,0 -69,30.918 -69,69c0,38.082 30.918,69 69,69c38.082,0 69,-30.918 69,-69Z" style="fill:#f04747;"/><path id="core" d="M141,75c0,-36.426 -29.574,-66 -66,-66c-36.426,0 -66,29.574 -66,66c0,36.426 29.574,66 66,66c36.426,0 66,-29.574 66,-66Z" style="fill:#ecf0f1;"/><clipPath id="_clip1"><path d="M141,75c0,-36.426 -29.574,-66 -66,-66c-36.426,0 -66,29.574 -66,66c0,36.426 29.574,66 66,66c36.426,0 66,-29.574 66,-66Z"/></clipPath><g clip-path="url(#_clip1)"><g id="yeoman-coins"><g><g><path d="M28.407,91.571c0.184,-0.461 2.568,-0.978 2.948,-1.131c3.098,-1.252 6.252,-2.171 9.408,-3.16c3.249,-1.017 6.579,-1.558 9.851,-2.455c5.449,-1.493 10.809,-3.747 16.226,-5.443c4.38,-1.372 8.887,-1.868 13.26,-3.288c2.541,-0.825 5.041,-1.936 7.55,-2.903c1.236,-0.476 2.901,-0.879 3.852,-2.071c0.485,-0.607 0.69,-1.617 1.04,-2.348c1.835,-3.831 1.865,-8.145 3.255,-12.126c2.768,-7.923 10.413,-10.755 16.584,-12.445c8.357,-2.29 16.836,-4.049 25.378,-4.697c2.05,-0.156 4.756,-0.298 6.596,1.046c0.466,0.341 1.33,1.003 1.38,1.751c0.194,2.912 -2.654,4.148 -4.448,4.867c-3.67,1.471 -7.267,2.28 -10.533,4.91c-0.852,0.686 -2.376,1.784 -2.693,3.074c-0.332,1.351 0.89,2.024 1.585,2.604c2.085,1.741 4.184,3.273 6.323,4.91c3.445,2.637 7.118,5.378 6.835,11.059c-0.085,1.704 -0.514,3.406 -0.887,5.038c-0.398,1.747 -0.915,3.448 -1.687,4.995c-2.301,4.611 -6.774,6.227 -10.618,8.091c-4.011,1.944 -8.182,2.946 -12.34,4.248c-5.426,1.699 -10.701,4.051 -15.953,6.426c-4.418,1.998 -8.67,4.505 -12.902,7.044c-10.341,6.207 -20.619,13 -28.684,23.483c-5.127,6.664 -9.108,15.069 -13.039,22.842c-37.026,-15.101 -23.322,-40.599 -18.287,-64.321Z" style="fill:#a5895e;"/><g><path d="M68.526,138.779c-0,0 -1.233,1.196 -2.005,1.996c-1.84,1.907 -4.074,3.273 -6.507,3.273c-0.924,-0 -2.845,0.136 -3.204,-1.3c-0.212,-0.852 0.086,-1.941 0.215,-2.78c0.449,-2.921 23.615,-28.793 26.062,-29.326c0.855,-0.186 1.974,-0.458 2.748,0.213c0.295,0.256 0.363,1.01 0.519,1.402c0.224,0.562 0.77,1.294 0.662,1.973c-0.056,0.347 -0.298,0.595 -0.394,0.93c-0.092,0.323 -0.084,0.709 -0.277,0.975c-0.313,0.431 -0.83,0.58 -1.164,0.998c-0.466,0.584 -0.713,1.463 -1.342,1.782c-1.198,0.607 -1.98,2.153 -2.461,3.89c-0.138,0.498 0.056,0.901 -0.063,1.379c-0.196,0.787 -0.755,1.399 -1.047,2.13c-0.375,0.94 -1.316,0.477 -1.96,1.222c-1.894,2.189 -4.704,2.211 -6.677,4.271c-0.165,0.173 -0.028,0.488 -0.062,0.717c-0.074,0.492 -0.277,0.978 -0.484,1.401c-0.626,1.284 -1.66,2.083 -2.273,3.33c-0.26,0.53 -0.115,0.988 -0.286,1.524Zm-22.954,-50.57c-0.555,-0 -0.817,-1.435 -0.939,-1.942c-0.364,-1.521 -0.032,-2.753 0.121,-4.285c0.076,-0.769 0.029,-1.704 0.212,-2.441c0.272,-1.09 1.078,-1.608 1.659,-2.392c0.328,-0.442 0.431,-1.001 0.683,-1.497c0.316,-0.622 0.914,-1.045 1.429,-1.347c0.694,-0.405 0.721,0.222 1.425,-0.218c0.43,-0.269 0.651,-0.733 1.015,-1.087c0.411,-0.401 1.046,-0.704 1.555,-0.841c0.769,-0.206 1.448,0.087 2.205,0.027c0.344,-0.026 0.592,0.203 0.938,0.37c0.389,0.187 0.541,0.481 0.912,0.731c0.747,0.504 2.347,0.723 2.985,1.449c0.25,0.284 0.399,0.698 0.584,1.046c0.184,0.346 0.478,0.575 0.655,0.923c0.154,0.304 0.184,0.701 0.3,1.032c0.189,0.54 0.5,0.993 0.687,1.531c0.366,1.046 0.186,2.49 -0.376,3.37c-0.231,0.361 -0.608,0.578 -0.879,0.895c-1.124,1.321 -2.354,2.182 -3.727,3.042c-0.584,0.366 -1.169,0.747 -1.812,0.93c-0.524,0.149 -1.004,-0.298 -1.533,-0.199c-0.486,0.092 -0.949,0.346 -1.436,0.438c-1.444,0.271 -2.857,0.353 -4.284,0.8l-2.379,-0.335Zm33.24,-11.306c0,-0 1.58,-4.543 1.91,-5.311c0.271,-0.631 0.3,-1.207 0.781,-1.675c0.257,-0.25 0.696,-0.603 1.026,-0.629c0.262,-0.02 0.497,0.153 0.736,0.26c0.635,0.284 1.594,0.724 2.254,0.533c0.857,-0.247 0.763,-0.916 1.217,-1.647c0.445,-0.716 1.45,-1.459 2.167,-1.627c0.597,-0.14 0.821,0.091 0.977,0.752c0.033,0.142 0.317,0.643 0.452,0.567c0.198,-0.11 0.323,-0.582 0.492,-0.765c0.271,-0.295 0.829,-0.117 1.042,-0.383c0.426,-0.533 0.883,-1.343 1.102,-2.051c0.088,-0.283 0.047,-0.589 0.17,-0.861c0.177,-0.396 0.551,-0.736 0.829,-1.018c0.591,-0.601 1.667,-1.374 2.21,-0.24c0.327,0.682 0.534,1.734 0.41,2.516c-0.094,0.582 -0.452,1.121 -0.595,1.695c-0.063,0.251 0.008,0.483 -0.022,0.731c-0.049,0.397 -0.256,0.733 -0.409,1.073c-0.255,0.567 -0.113,1.264 -0.634,1.655c-0.491,0.369 -1.027,0.65 -1.555,0.922c-0.231,0.12 -0.493,0.123 -0.704,0.308c-0.219,0.192 -0.292,0.595 -0.491,0.827c-0.313,0.366 -0.86,0.62 -1.261,0.779c-0.514,0.205 -1.21,0.458 -1.751,0.458c-0.567,0 -0.956,-0.061 -1.528,0.192c-1.692,0.748 -3.327,1.771 -5.054,2.372c-0.274,0.095 -0.552,0.063 -0.824,0.136c-0.24,0.065 -0.419,0.302 -0.644,0.41c-0.366,0.177 -0.982,0.302 -1.38,0.335c-0.332,0.028 -0.595,-0.314 -0.923,-0.314Zm17.877,-21.025c-0.192,0.481 -0.753,0.893 -1.048,1.274c-0.143,0.185 -0.186,1.816 -0.322,2.01c-0.48,0.683 -1.125,-0.09 -1.888,-0.394c-0.266,-0.106 -0.497,-0.278 -0.563,-0.647c-0.131,-0.74 0.398,-1.429 0.362,-2.146c-0.029,-0.595 -0.439,-1.05 -0.566,-1.612c-0.238,-1.059 0.136,-2.184 0.566,-3.082c0.319,-0.666 0.779,-1.212 1.225,-1.742c0.428,-0.508 0.915,-1.063 1.479,-1.322c0.685,-0.315 1.403,-0.185 2.034,-0.728c1.058,-0.912 1.824,-2.232 3.135,-2.659c0.482,-0.157 1.028,-0.22 1.51,-0.029c0.376,0.15 0.699,0.457 1.067,0.637c0.224,0.11 1.354,0.843 1.324,1.255c-0.03,0.412 -0.433,0.685 -0.678,0.874c-0.693,0.534 -2.19,1.004 -2.87,1.565c-2.014,1.665 -3.626,4.125 -4.767,6.746Zm41.493,-14.895c-1.151,0 -2.354,-0.034 -3.482,-0.352c-0.885,-0.25 -2.489,0.17 -3.407,0.077c-1.831,-0.186 -2.695,0.059 -4.494,0.402c-1.859,0.356 -3.417,0.393 -5.213,1.184c-0.541,0.239 -1.538,-0.002 -2.062,0.296c-0.975,0.555 -1.896,1.204 -2.977,1.384c-0.409,0.069 -1.233,0.308 -1.568,-0.111c-0.185,-0.232 -0.115,-0.651 -0.096,-0.941c0.051,-0.763 0.056,-1.446 0.455,-2.084c0.57,-0.912 1.634,-1.279 2.507,-1.457c0.351,-0.071 0.742,-0.076 1.079,-0.231c0.385,-0.178 0.68,-0.665 1.001,-0.97c0.809,-0.768 1.856,-1.456 2.9,-1.389c0.687,0.044 1.228,0.479 1.942,0.323c1.004,-0.22 1.962,-0.7 2.973,-0.897c0.994,-0.194 1.993,-0.223 2.993,-0.333c1.681,-0.185 3.417,-0.415 5.103,-0.251c0.922,0.09 1.819,0.374 2.708,0.675l-0.362,4.675Z" style="fill:#7fb86b;"/><path d="M64.624,139.474c-0.342,0.856 -1.559,1.375 -2.175,1.783c-0.488,0.322 -0.992,0.602 -1.495,0.885c-1.835,1.035 -5.815,3.139 -6.855,-0.336c-0.479,-1.599 0.501,-2.576 0.501,-4.08c-0,-1.698 -0.463,-3.313 -0.26,-5.011c0.388,-3.24 2.299,-5.236 3.598,-7.881c0.215,-0.438 0.184,-0.986 0.349,-1.457c0.294,-0.842 0.813,-1.377 1.199,-2.13c0.281,-0.547 0.3,-1.148 0.663,-1.693c0.712,-1.071 2.16,-2.052 3.293,-2.141c0.503,-0.039 1.629,0.313 2.05,-0.022c0.197,-0.157 0.272,-0.687 0.402,-0.942c0.262,-0.51 0.66,-0.857 1.057,-1.188c0.614,-0.513 1.275,-0.881 1.951,-1.233c0.199,-0.104 0.508,0.118 0.653,-0.011c0.143,-0.128 0.078,-0.534 0.134,-0.729c0.104,-0.365 0.373,-0.752 0.582,-1.031c1.306,-1.745 3.318,-2.482 5.173,-2.377c1.441,0.082 2.659,0.91 4.045,1.2c0.792,0.165 1.804,-0.148 2.497,0.504c0.741,0.696 0.832,1.566 0.94,2.646c0.179,1.794 0.254,3.676 -0.582,5.246c-0.643,1.208 -1.499,2.191 -2.282,3.251c-1.315,1.779 -2.517,3.776 -4.26,4.932c-1.297,0.86 -2.819,1.323 -4.224,1.816c-0.659,0.231 -1.452,0.457 -2.023,0.953c-1.535,1.331 -1.301,3.459 -1.996,5.325c-0.243,0.651 -0.907,0.964 -1.101,1.692l-1.834,2.029Z" style="fill:#509f35;"/><path d="M63.581,83.82c-0.5,0.118 -2.143,-0.184 -2.287,-0.253c-0.68,-0.328 -1.086,-1.573 -1.391,-2.337c-1.033,-2.587 -0.546,-5.924 0.491,-8.36c0.226,-0.531 0.503,-1.139 0.83,-1.586c0.144,-0.198 0.361,-0.311 0.485,-0.526c0.225,-0.387 0.314,-0.914 0.502,-1.333c0.421,-0.937 1.08,-1.663 1.763,-2.29c0.576,-0.529 1.179,-0.551 1.795,-0.902c0.191,-0.109 0.299,-0.386 0.475,-0.526c0.402,-0.321 1.093,-0.699 1.572,-0.739c0.583,-0.048 1.197,-0.099 1.757,0.171c0.306,0.148 0.623,0.472 0.95,0.527c0.329,0.055 0.786,-0.233 1.135,-0.26c0.585,-0.046 1.167,0.28 1.746,0.328c0.484,0.04 0.78,-0.392 1.195,-0.472c0.186,-0.036 0.438,0.183 0.639,0.198c0.566,0.045 0.925,0.66 1.484,0.8c0.635,0.159 1.117,-0.006 1.583,0.472c0.752,0.771 1.642,1.37 2.172,2.447c0.533,1.086 0.619,2.625 0.376,3.841c-0.174,0.874 -0.551,1.669 -0.753,2.53c-0.227,0.965 -0.04,1.709 -0.758,2.44c-0.427,0.434 -0.931,0.527 -1.436,0.738c-0.795,0.332 -1.604,0.72 -2.45,0.786c-0.432,0.034 -0.938,-0.138 -1.353,-0.034c-0.364,0.091 -0.632,0.442 -0.961,0.622c-0.47,0.257 -0.955,0.406 -1.419,0.697c-0.496,0.311 -0.957,0.72 -1.462,1.005c-0.939,0.529 -1.986,0.605 -2.985,0.813c-0.807,0.169 -1.444,0.535 -2.205,0.875c-0.478,0.214 -0.996,0.212 -1.49,0.328Z" style="fill:#509f35;"/></g><path d="M25.271,102.584c-0,0 18.952,-10.247 40.223,-15.712c21.27,-5.465 32.451,-7.002 35.314,-11.442c2.863,-4.44 0.273,-6.661 -0.682,-12.126c-0.954,-5.465 3.273,-9.393 8.045,-12.808c4.772,-3.416 15.407,-7.002 31.088,-7.344c15.68,-0.342 6.681,1.537 -1.227,2.903c-7.909,1.367 -11.454,3.758 -13.772,6.148c-2.318,2.391 -3.818,4.441 -1.363,6.319c2.454,1.879 10.226,5.807 11.044,11.955c0.818,6.148 -4.499,11.443 -8.59,14.175c-4.09,2.733 -18.271,7.515 -25.225,9.735c-6.953,2.22 -25.906,9.905 -30.815,13.15c-4.908,3.245 -15.68,12.896 -25.633,32.878c-9.954,19.982 -29.724,7.509 -18.407,-37.831Z" style="fill:#84622e;"/></g><g><path d="M63.046,95.272c-0,-0 -0.514,0.02 -0.655,0.02c-0.418,0 -0.861,0.065 -1.244,-0.152c-0.53,-0.3 -0.612,-1 -0.113,-1.388c0.205,-0.159 0.495,-0.216 0.741,-0.273c0.47,-0.109 0.956,-0.239 1.443,-0.207c0.213,0.014 0.426,0.052 0.628,0.121c0.157,0.054 0.305,0.113 0.449,0.199c0.32,0.192 0.534,0.645 0.214,0.936c-0.415,0.378 -0.905,0.709 -1.463,0.744Zm2.348,-0.697c-0.182,-0.274 -0.502,-0.42 -0.678,-0.73c-0.285,-0.497 -0.323,-1.15 -0.449,-1.704c-0.042,-0.186 -0.254,-0.393 -0.242,-0.577c0.017,-0.254 0.338,-0.525 0.519,-0.675c0.504,-0.416 1.084,-0.733 1.728,-0.866c0.259,-0.053 0.589,-0.126 0.838,0.004c0.547,0.287 1.03,0.943 1.03,1.58c-0,0.277 -0.078,0.549 -0.062,0.827c0.004,0.073 0.002,0.225 0.089,0.257c0.123,0.044 0.369,-0.109 0.492,-0.137c0.225,-0.051 0.456,-0.068 0.674,-0.148c0.412,-0.149 0.824,-0.483 1.287,-0.413c0.619,0.093 1.369,0.433 1.712,0.967c0.212,0.329 0.364,0.637 -0.066,0.874c-0.96,0.528 -2.393,-0.301 -3.061,0.514c-0.377,0.46 -3.543,0.761 -3.811,0.227Zm60.709,-43.178c-0.115,-0 -0.252,0.138 -0.34,0.194c-0.096,0.061 -0.206,0.037 -0.311,0.016c-0.227,-0.046 -0.348,-0.221 -0.526,-0.343c-0.054,-0.037 -0.176,-0.066 -0.201,-0.13c-0.034,-0.089 0.035,-0.202 0.098,-0.262c0.15,-0.141 0.366,-0.198 0.564,-0.228c0.073,-0.011 0.175,-0.001 0.242,-0.031c0.076,-0.035 0.125,-0.127 0.185,-0.182c0.101,-0.092 0.294,-0.215 0.433,-0.223c0.352,-0.02 0.54,0.254 0.833,0.375c0.121,0.05 0.238,-0.048 0.358,-0.005c0.38,0.135 0.377,0.517 0.081,0.757c-0.164,0.133 -0.353,0.123 -0.545,0.177c-0.209,0.058 -0.305,0.168 -0.536,0.137c-0.107,-0.014 -0.335,-0.252 -0.335,-0.252Zm-21.74,35.939c-0.131,-0 -0.28,0.142 -0.39,0.201c-0.363,0.196 -0.836,0.457 -1.237,0.181c-0.947,-0.651 -0.494,-2.233 0.608,-2.407c0.261,-0.041 0.738,-0.131 0.97,0.029c0.49,0.337 0.049,1.996 0.049,1.996Zm26.37,-23.755c-0.161,0.08 -0.27,0.224 -0.448,0.275c-0.082,0.023 -0.174,0.026 -0.259,0.021c-0.809,-0.051 -0.222,-0.976 0.23,-1.118c0.415,-0.129 0.477,0.822 0.477,0.822Zm-23.648,-1.068c-0,-0 -0.511,0.633 -0.674,0.715c-0.133,0.066 -0.28,0.107 -0.423,0.143c-0.49,0.123 -0.766,-0.077 -0.571,-0.579c0.12,-0.309 0.464,-0.63 0.756,-0.776c0.297,-0.149 0.818,0.167 0.912,0.497Zm14.413,0.115c-0.103,-0.052 -0.104,-0.26 -0.094,-0.353c0.031,-0.283 0.17,-0.797 0.505,-0.649c0.949,0.418 0.159,1.396 -0.411,1.002Zm-3.581,-7.23c-0,-0.098 0.134,-0.22 0.197,-0.283c0.261,-0.262 1.036,-0.459 1.191,0.045c0.162,0.526 -0.689,1.196 -1.142,1.278c-0.461,0.082 -0.416,-0.997 -0.246,-1.04Zm15.757,-4.995c-0.111,0 -0.135,-0.167 -0.119,-0.246c0.037,-0.186 0.196,-0.353 0.337,-0.468c0.322,-0.264 0.683,-0.071 1.035,-0.152c0.225,-0.052 0.383,-0.328 0.608,-0.345c0.316,-0.025 0.421,0.428 0.201,0.608c-0.368,0.301 -2.062,0.603 -2.062,0.603Z" style="fill:#f7d911;"/><path d="M76.925,75.133c0,0 -2.961,-2.698 -2.369,-4.672c0.592,-1.974 2.106,-1.711 3.488,-0.856c1.382,0.856 1.974,3.357 1.974,3.357c0,-0 2.04,0.065 3.554,0.789c1.514,0.724 4.457,3.852 5.462,7.766c1.839,7.161 -1.119,6.054 -2.961,5.594l-0.79,-0.066c-0,-0 -0.066,2.04 -0.79,5.725c0,0 -0.272,-4.069 -1.522,-6.438c0.021,-0.006 -1.705,0.154 -1.963,0.393c-0,-0 1.221,4.099 0.985,6.966c-0,0 -2.087,-5.783 -3.122,-7.869c-0,0 1.157,-1.722 3.666,-2.021c0,0 0.64,-2.35 -3.967,-4.982c0,-0 -4.211,3.158 -6.91,11.582c0,0 1.053,-10.266 5.265,-15.268Z" style="fill:#d3b575;"/><path d="M126.493,48.577c-0.582,0.148 -1.21,-0.391 -1.322,-1.285l-0.614,0.037c-0,0 0.502,2.123 -0.168,4.004c0,-0 -0.223,-2.365 -0.782,-3.184c-0,-0 -0.596,-0.019 -0.782,-0.075c-0,0 -0.708,0.968 -1.602,1.304c0,-0 -1.992,-0.317 -2.793,-2.328c0,-0 1.136,1.061 2.775,1.341c-0,-0 0.409,-0.354 0.614,-1.118c0,0 -1.173,-0.54 -1.732,-1.769c0,0 1.695,0.745 2.496,0.466c-0,-0 0.316,-0.745 0.931,-1.136c0.614,-0.391 2.402,-0.615 2.905,-0.335c0.503,0.279 1.732,0.894 2.011,2.365c0.279,1.471 -0.41,4.022 -0.41,4.022c0,0 0.038,-2.384 -0.391,-3.203l-0.26,-0.019c-0,0 -0,0.689 -0.876,0.913Z" style="fill:#d3b575;"/><path d="M119.104,73.162c1.158,-0.021 1.797,-0.295 2.23,-0.651c0.8,-0.66 4.805,-3.58 5.606,-5.088c-0,0 -0,3.769 -4.429,7.538c-4.428,3.768 -4.381,3.533 -4.475,5.558c-0.094,2.026 0.377,8.904 1.319,12.202c0,-0 -4.051,-6.959 -5.229,-10.381c-0,-0 -4.664,5.589 -6.124,10.27c-0,-0 0.424,-7.804 2.402,-10.3c1.979,-2.497 2.78,-6.219 2.356,-7.114c-0.424,-0.895 -4.711,-3.345 -3.769,-7.773c0,0 1.649,4.146 5.842,5.135c0.466,0.11 0.899,0.203 1.302,0.281c-0.255,-0.484 -0.475,-1.125 -0.454,-1.883c0.047,-1.743 1.743,-2.355 2.638,-2.308c0.895,0.047 2.449,1.46 1.79,2.403c-0.33,0.47 -0.565,1.41 -1.005,2.111Z" style="fill:#d3b575;"/></g></g><g><path d="M45.6,80.952c-0,0 7.799,9.118 9.967,15.727c1.876,5.715 3.187,33.873 1.772,49.396c-41.586,10.082 -85.541,-89.903 -11.739,-65.123Z" style="fill:#d3b575;"/><path d="M41.606,137.562c-0,-0 4.293,-3.712 5.197,-4.326c0.903,-0.613 3.001,-2.227 3.873,-3.034c0.871,-0.807 3.228,-2.324 4.325,-2.614c1.098,-0.291 3.551,0.355 4.455,1.775c0.903,1.42 1.355,4.132 -0.388,5.616c-1.743,1.485 -3.583,1.356 -4.874,1.259c-1.291,-0.097 -2.324,-0.516 -4.26,0.42c-1.937,0.936 -8.328,0.904 -8.328,0.904Zm2.214,-43.528c-0.171,-1.482 2.017,-2.088 4.501,-1.656c2.485,0.432 8.535,3.853 8.787,4.573c0.252,0.72 0.144,1.584 -0.936,1.656c-1.081,0.072 -6.266,-0.864 -8.859,-1.872c-2.593,-1.008 -3.277,-0.828 -3.493,-2.701Z" style="fill:#4c3c23;"/><g><path d="M14.978,41.247c0,0 11.853,1.66 15.882,5.097c4.03,3.437 9.482,9.719 11.734,16.593c2.252,6.874 3.556,10.667 3.556,10.667c-0,0 6.874,1.067 7.585,3.793c0.712,2.726 0.475,8.296 -5.215,11.615c-5.689,3.319 -17.422,8.06 -25.364,9.482c-7.941,1.422 -11.378,1.067 -11.378,1.067c-7.513,-20.233 -6.354,-39.662 3.2,-58.314Z" style="fill:#474542;"/><path d="M6.682,83.866c-0,0 7.111,1.304 20.149,-2.726c5.979,-1.848 18.286,-10.464 18.286,-10.464l2.78,7.823c0,-0 -7.91,7.975 -18.103,11.175c-10.193,3.2 -21.453,3.318 -21.453,3.318l-1.659,-9.126Z" style="fill:#b43122;"/></g></g></g></g></svg>