<?xml version="1.0" encoding="UTF-8" standalone="no"?><!DOCTYPE svg PUBLIC "-//W3C//DTD SVG 1.1//EN" "http://www.w3.org/Graphics/SVG/1.1/DTD/svg11.dtd"><svg width="100%" height="100%" viewBox="0 0 150 150" version="1.1" xmlns="http://www.w3.org/2000/svg" xmlns:xlink="http://www.w3.org/1999/xlink" xml:space="preserve" xmlns:serif="http://www.serif.com/" style="fill-rule:evenodd;clip-rule:evenodd;stroke-linejoin:round;stroke-miterlimit:2;"><path id="base" d="M150,75c0,-41.394 -33.606,-75 -75,-75c-41.394,0 -75,33.606 -75,75c0,41.394 33.606,75 75,75c41.394,0 75,-33.606 75,-75Z" style="fill:#141414;"/><path id="outline" d="M144,75c0,-38.082 -30.918,-69 -69,-69c-38.082,0 -69,30.918 -69,69c0,38.082 30.918,69 69,69c38.082,0 69,-30.918 69,-69Z" style="fill:#e50914;"/><path id="core" d="M141,75c0,-36.426 -29.574,-66 -66,-66c-36.426,0 -66,29.574 -66,66c0,36.426 29.574,66 66,66c36.426,0 66,-29.574 66,-66Z" style="fill:#333;"/><clipPath id="_clip1"><path d="M141,75c0,-36.426 -29.574,-66 -66,-66c-36.426,0 -66,29.574 -66,66c0,36.426 29.574,66 66,66c36.426,0 66,-29.574 66,-66Z"/></clipPath><g clip-path="url(#_clip1)"><g id="bb"><g id="jesse"><path d="M99.832,76.801l-0.464,-1.525c-0,-0 -0.958,-1.838 -1.168,-2.54c-0.21,-0.702 -0.468,-3.04 -0.476,-3.516c-0.008,-0.476 -0.366,-1.606 -0.759,-2.037c-0.393,-0.43 -1.104,-1.066 -1.123,-1.553c-0.019,-0.486 0.094,-2.863 -0.037,-3.443c-0.131,-0.58 -0.487,-3.986 -0.131,-5.09c0.355,-1.104 1.16,-2.704 1.796,-3.593c10.486,-14.647 33.489,0.496 25.862,18.451c0,0 -0.393,2.995 0.15,4.192c0.543,1.198 1.478,1.946 1.478,1.946l1.703,0.431l-13.191,20.912c-3.648,-2.726 -7.937,-4.338 -6.327,-15.985c-4.041,-0.715 -6.556,-2.499 -7.313,-6.65Z" style="fill:#9f614a;"/><path d="M99.433,45.956c-0.031,0.09 -0.052,0.148 0.041,-0.119l0.007,-0.017l0.002,-0.006c0.196,-0.438 1.624,-0.799 2.467,-0.972c0.858,-0.175 1.092,-0.097 2.125,0.117c1.033,0.215 0.78,0.176 1.325,0.293c0.546,0.117 2.515,0.819 2.885,0.721c0.371,-0.097 0.195,-1.403 0.195,-1.403c0.234,0.195 0.722,0.565 1.073,1.052c0.35,0.488 0.409,0.156 1.267,0.449c0.857,0.292 1.013,0.175 1.481,-0.059c0.468,-0.234 1.462,-0.507 2.008,-0.604c0.546,-0.098 1.793,1.637 2.203,1.813c0.409,0.175 0.507,0.37 1.364,0.37c0.858,0 1.17,0.604 1.872,1.15c0.701,0.546 0.916,0.663 1.657,1.404c0.74,0.74 0.448,1.091 0.916,2.047c0.468,0.955 1.267,1.54 1.793,2.319c0.527,0.78 1.287,3.49 1.384,4.269c0.098,0.78 0.039,1.014 0.039,1.911c0,0.896 0.02,4.366 0.078,5.243c0.059,0.878 -0.429,2.905 -0.624,3.646c-0.195,0.741 -0.662,1.462 -0.974,2.066c-0.312,0.604 -0.371,1.189 -0.293,1.793c0.078,0.605 -0.078,1.657 -0.039,2.203c0.039,0.546 -0.234,0.371 -0.234,0.371c0,-0 -0.194,-0.605 -0.253,-0.839c-0.058,-0.234 -0.136,-1.462 -0.37,-2.124c-0.234,-0.663 0.039,-0.858 -0.059,-1.345c-0.097,-0.488 -0.039,-1.365 -0.097,-2.008c-0.059,-0.644 0.117,-1.131 0.156,-1.501c0.039,-0.371 0.078,-0.722 0.253,-1.267c0.176,-0.546 0.468,-1.423 0.565,-1.833c0.098,-0.409 0.293,-1.969 0.273,-2.514c-0.019,-0.546 -0.838,-1.267 -1.091,-1.657c-0.254,-0.39 -0.956,-0.254 -1.423,0.039c-0.468,0.292 -0.897,0.662 -1.228,0.916c-0.332,0.253 -0.702,0.429 -1.248,0.799c-0.546,0.37 -0.409,0.507 -0.76,1.267c-0.351,0.76 -0.098,0.702 -0.039,1.56c0.058,0.857 0.351,3.801 0.312,4.698c-0.039,0.896 0.175,1.091 0.389,1.754c0.215,0.663 0.234,3.899 0.215,4.289c-0.02,0.389 -0.156,1.247 -0.487,1.91c-0.332,0.663 -1.774,1.384 -1.774,1.384c-0,-0 -2.379,2.242 -3.373,2.963c-0.994,0.721 -0.877,0.409 -2.339,0.721c-1.462,0.312 -0.78,0.273 -1.403,0.605c-0.624,0.331 -2.145,0.584 -2.554,0.331c-0.409,-0.254 -0.663,-0.468 -1.014,-0.585c-0.351,-0.117 -3.119,-0.429 -3.762,-0.76c-0.643,-0.332 -0.409,-0.176 -0.741,-0.487c-0.331,-0.312 -0.292,-0.78 -1.111,-1.657c-0.819,-0.878 -0.234,-0.332 -0.526,-0.8c-0.293,-0.468 -0.468,-0.994 -0.663,-1.403c-0.195,-0.41 -0.195,-0.936 -0.331,-1.365c-0.137,-0.429 -0.02,-0.877 0.039,-1.403c0.058,-0.527 0.195,-1.911 0.35,-2.281c0.156,-0.37 0.624,-1.15 1.014,-1.384c0.39,-0.234 0.448,0.195 0.741,0.117c0.292,-0.078 0.136,-0.254 0.76,-0.624c0.624,-0.37 1.131,-0.097 2.125,-0.058c0.994,0.039 1.345,0.292 1.852,0.448c0.507,0.156 1.735,1.345 2.105,2.008c0.37,0.663 0.624,0.955 0.838,0.741c0.215,-0.215 0.683,-1.618 1.131,-2.885c0.448,-1.268 0.331,-0.78 1.033,-1.579c0.702,-0.8 0.78,-0.585 1.404,-0.995c0.623,-0.409 0.428,-0.487 0.76,-1.091c0.331,-0.605 0.312,-0.741 0.78,-1.306c0.467,-0.566 0.312,-0.371 0.721,-0.819c0.409,-0.448 0.526,-1.17 0.526,-1.17c0.078,-0.39 -0.117,-0.565 -0.117,-0.838c0,-0.273 0.098,-2.495 0.02,-3.06c-0.078,-0.566 -0.624,-1.189 -1.15,-1.872c-0.527,-0.682 -0.585,-0.565 -1.384,-1.657c-0.8,-1.091 -0.488,-0.818 -0.449,-1.306c0.039,-0.487 0.117,-0.916 0.488,-1.735c0.37,-0.818 0.272,-0.818 0.487,-1.676c0.214,-0.858 -0.819,-0.838 -1.774,-1.131c-0.955,-0.292 -0.916,-0.74 -1.793,-1.091c-0.878,-0.351 -1.482,-0.234 -2.262,-0.254c-0.779,-0.019 -1.657,0.078 -2.651,0.195c-0.994,0.117 -1.13,0.273 -2.222,0.624c-1.092,0.351 -0.585,0.195 -1.832,0.702c-1.248,0.507 -1.073,0.448 -1.735,0.799c-0.663,0.351 -1.248,1.189 -1.248,1.189c0,0 -0.448,0.526 -0.546,0.331c-0.097,-0.195 -0.448,0.02 -0.857,0.332c-0.41,0.312 -1.151,0.546 -1.151,0.546c0,-0.273 0.702,-1.15 0.702,-1.15c-0.058,-0.039 -1.559,1.13 -1.559,1.13c0.117,-0.39 1.481,-1.774 1.481,-1.774c0,0 -1.072,-0.312 -1.267,-0.487c-0.195,-0.176 -0.292,-0.487 -0.331,-0.936c-0.039,-0.448 0.292,-1.013 0.292,-1.013c0,-0 0.76,-0.839 0.994,-0.917c0.234,-0.078 0.624,-0.429 1.267,-0.74c0.644,-0.312 1.209,-0.761 1.209,-0.761c-0,0 -0.059,-0.604 0.058,-0.857c0.117,-0.254 0.117,-0.644 0.644,-0.585c0.526,0.058 0.779,0.312 0.779,0.312c-0.084,-0.338 0.159,-1.084 0.225,-1.277l-0.032,0.09Zm7.166,30.977c0.102,-0.18 0.173,-0.401 0.157,-0.759c-0.031,-0.709 0.263,-1.496 -0.2,-1.974c-0.463,-0.479 -0.648,-0.834 -1.728,-0.972c-1.08,-0.139 -2.7,-0.047 -3.163,0.169c-0.463,0.216 -1.126,1.389 -1.126,1.944c-0,0.556 0.077,1.188 0.339,1.96c0.101,0.296 0.216,0.614 0.331,0.906c0.271,0.098 0.534,0.07 0.691,-0.029c-0.289,-0.446 -0.649,-0.926 0.598,-1.556c0.327,-0.166 1.219,-0.185 1.589,-0.201c0.367,-0.015 0.718,-0 0.86,0.613c0.287,0.119 0.614,0.211 0.981,0.187c0.254,-0.017 0.479,-0.131 0.671,-0.288Z" style="fill:#432d1f;"/><path d="M107.828,88.071c-0,-0 0.463,2.371 1.226,3.788c0.763,1.417 3.188,5.368 3.515,5.341c0.327,-0.027 1.363,-0.954 1.744,-1.58c0.382,-0.627 -5.205,23.109 -5.205,23.109c-4.572,-8.344 -9.061,-16.726 -1.28,-30.658Z" style="fill:#211d14;"/><path d="M123.879,77.225c-0,-0 0.299,-0.136 1.09,-0.218c0.79,-0.082 1.389,-0.409 2.343,-0.055c0.954,0.355 1.009,5.75 1.009,5.75l-7.931,49.271l-22.836,8.039l3.188,-44.719l6.431,-9.293c0,-0 0.655,0.49 0.845,1.144c0.191,0.654 0.109,1.963 0.082,3.053c-0.027,1.09 -0.3,3.869 -0.327,4.687c-0.027,0.817 -0.109,1.117 0.109,2.48c0.218,1.362 0.409,2.698 0.572,3.897c0.164,1.199 0.055,4.442 -0.381,5.586c-0.436,1.145 -0.6,1.444 -0.681,2.235c-0.082,0.79 0.218,4.251 0.354,5.041c0.136,0.79 0.572,1.417 0.572,1.417c0,0 0.409,-2.888 0.627,-3.788c0.218,-0.899 0.736,-5.45 1.335,-7.058c0.6,-1.608 2.017,-4.796 2.371,-5.75c0.354,-0.954 0.709,-1.444 0.763,-2.452c0.055,-1.009 0.409,-2.698 0.491,-3.87c0.081,-1.172 -0.191,-3.27 0.136,-3.843c0.327,-0.572 1.499,-0.872 1.907,-1.444c0.409,-0.572 2.862,-2.616 3.516,-3.515c0.654,-0.9 5.041,-5.451 4.851,-5.832c-0.191,-0.382 -0.355,-0.627 -0.436,-0.763Z" style="fill:#443629;"/><path d="M88.52,140.216c-0,-0 -0.165,-2.252 -0.138,-3.845c0.028,-1.593 0.797,-7.304 0.742,-8.513c-0.055,-1.208 0.549,-6.92 0.275,-9.034c-0.275,-2.115 -0.165,-6.646 0.082,-7.579c0.247,-0.934 1.51,-5.245 1.895,-6.316c0.384,-1.071 2.361,-4.009 2.361,-4.641c0,-0.631 0.138,-3.789 -0.522,-3.762c-0.659,0.027 -0.823,0.357 -1.235,0.275c-0.412,-0.083 -0.851,-0.769 -0.247,-1.84c0.604,-1.071 1.428,-3.323 2.032,-3.57c0.604,-0.247 1.51,-0.22 2.059,-0.412c0.549,-0.192 3.817,-1.263 4.641,-1.703c0.824,-0.439 2.636,-2.334 3.103,-2.965c0.467,-0.632 2.883,-2.252 3.021,-2.554c0.137,-0.302 0.714,0.275 0.714,0.275c-0,-0 -0,0.192 0.055,0.714c0.055,0.521 0.192,0.823 0.384,1.482c0.192,0.659 0.137,0.605 -0.082,1.099c-0.22,0.494 -0.604,1.62 -0.824,2.142c-0.22,0.521 -0.769,1.4 -0.906,1.84c-0.138,0.439 -1.428,3.24 -1.895,4.201c-0.467,0.961 -0.742,1.098 -0.824,2.032c-0.082,0.934 0.137,0.851 -0.22,2.005c-0.357,1.153 -0.384,2.801 -0.686,4.036c-0.302,1.236 -0.247,1.044 -0.467,2.197c-0.22,1.154 -0.192,1.648 -0.329,2.472c-0.138,0.823 -0.33,1.29 -0.66,2.526c-0.329,1.236 -0.439,1.483 -0.521,2.636c-0.083,1.154 0.11,5.025 0.11,6.151c-0,1.126 -0.055,1.428 0.027,2.554c0.082,1.126 0.247,1.318 0.165,2.636c-0.083,1.318 -0.055,3.241 -0,4.998c0.055,1.758 0.027,1.593 0.027,2.966c0,1.373 0.083,0.302 0.055,1.84c-0.027,1.537 0.028,2.636 0.028,2.636l-12.22,3.021Zm37.785,-63.342c-0,0 0.739,-0.487 1.069,-0.613c0.331,-0.126 1.4,-0.409 1.809,-0.315c0.409,0.095 2.171,1.432 2.722,1.998c0.55,0.566 1.132,1.196 1.557,1.699c0.425,0.503 0.912,0.849 1.4,1.337c0.487,0.488 1.557,0.629 2.485,0.739c0.928,0.11 1.416,0.173 2.014,0.283c0.597,0.11 2.155,0.378 2.155,0.378c-1.828,20.333 -8.09,36.556 -23.907,43.925l-0.012,-1.437c0,0 0.523,-6.747 0.511,-7.447c-0.012,-0.701 -0.32,-4.051 -0.249,-5.274c0.071,-1.224 0.784,-5.155 1.009,-5.975c0.226,-0.819 0.713,-2.494 0.82,-2.91c0.107,-0.415 0.523,-2.067 0.653,-2.922c0.131,-0.855 1.271,-4.276 1.426,-5.25c0.154,-0.974 0.962,-4.347 1.033,-5.214c0.071,-0.867 0.594,-2.554 0.808,-3.611c0.214,-1.057 0.392,-1.995 0.617,-2.613c0.226,-0.618 1.556,-2.388 2.067,-3.183c0.511,-0.796 1.033,-1.996 0.927,-2.412c-0.107,-0.415 -0.641,-1.071 -0.914,-1.183Z" style="fill:#140d07;"/></g><g id="walt"><path d="M39.325,56.803c-0,0 0.165,-0.579 0.193,-0.785c0.027,-0.207 0.234,-2.357 0.317,-2.881c0.083,-0.524 0.799,-3.336 0.854,-3.832c0.056,-0.496 -0.137,-3.032 -0.22,-3.735c-0.083,-0.703 -0.455,-1.654 -0.496,-2.123c-0.042,-0.468 -0.648,-2.164 -0.676,-2.743c-0.027,-0.579 0.4,-3.308 0.772,-3.721c0.372,-0.414 1.144,-1.323 1.241,-1.571c0.096,-0.249 0.689,-4.259 0.813,-4.838c0.124,-0.579 2.208,-6.816 6.398,-8.279c4.191,-1.463 10.206,-2.139 14.869,-1.328c4.664,0.811 7.84,4.145 8.403,4.956c0.564,0.811 2.817,3.74 3.177,4.731c0.36,0.992 0.991,3.109 1.239,4.664c0.248,1.554 -0.022,3.83 0.09,4.438c0.113,0.608 0.158,1.982 0.068,2.456c-0.09,0.473 -0.834,1.622 -0.969,2.185c-0.135,0.563 -0.405,2.884 -0.293,3.469c0.113,0.586 -0.022,3.019 -0.586,3.988c-0.563,0.969 -1.937,3.92 -2.117,4.753c-0.18,0.834 -8.899,9.553 -9.102,9.846c-0.203,0.292 -1.307,1.531 -1.825,2.005c-0.518,0.473 -1.442,1.869 -1.734,2.297c-0.293,0.429 -0.586,0.564 -0.586,0.564l-19.83,-14.516Z" style="fill:#b17249;"/><path d="M67.253,48.987c0.485,0.202 1.507,0.609 1.919,0.67c0.411,0.061 0.944,0.335 1.568,0.685c0.625,0.351 1.432,1.478 1.645,2.269c0.213,0.792 0.107,3.823 -0.137,5.056c-0.244,1.234 -0.442,2.65 -0.487,3.29c-0.046,0.64 -0.275,3.015 -1.021,3.792c-0.746,0.777 -3.228,2.178 -4.264,2.147c-1.035,-0.03 -3.289,-0.137 -4.279,-0.396c-0.99,-0.259 -4.615,-1.782 -5.498,-2.269c-0.883,-0.487 -1.645,-1.066 -1.736,-1.69c-0.091,-0.625 0.228,-1.752 0.518,-2.422c0.289,-0.67 0.776,-1.507 0.883,-2.04c0.107,-0.533 0.213,-1.934 0.777,-2.391c0.563,-0.457 1.142,-1.904 1.37,-2.528c0.229,-0.625 0.29,-1.188 1.082,-1.904c0.791,-0.716 0.685,-1.127 2.025,-1.538c1.34,-0.411 2.97,-0.701 3.503,-0.746c0.533,-0.046 1.766,-0.137 2.132,0.015Zm-5.894,4.888c-0.185,-0.349 0.899,-0.959 1.569,-1.203c0.67,-0.243 1.37,-0.335 2.162,-0.121c0.792,0.213 1.112,0.395 2.087,0.654c0.974,0.259 1.37,0.061 2.299,0.533c0.929,0.472 1.142,0.945 1.142,1.432c0,0.487 0.335,1.371 -0.319,1.355c-0.655,-0.015 -0.533,-0.213 -1.691,-0.594c-1.157,-0.38 -1.294,-0.396 -2.223,-0.502c-0.929,-0.107 -1.554,-0.213 -2.559,-0.442c-1.005,-0.228 -2.193,-0.594 -2.467,-1.112Z" style="fill:#78452f;"/><path d="M36.732,56.936c-0,-0 1.866,-1.041 2.394,-0.975c0.529,0.066 2.114,0.38 3.7,1.107c1.585,0.726 4.327,2.031 5.103,2.873c0.776,0.843 4.178,3.733 5.153,4.459c0.974,0.727 6.589,5.847 7.151,6.392c0.561,0.545 2.312,2.114 2.708,2.378c0.396,0.264 2.362,1.651 2.609,2.229c0.248,0.578 0.595,1.602 -0.049,2.098c-0.644,0.495 -1.751,1.404 -1.899,1.536c-0.149,0.132 -0.083,0.413 -0.413,0.644c-0.331,0.231 -0.859,0.793 -0.859,0.793l-25.598,-23.534Z" style="fill:#2d2c18;"/><path d="M37.086,55.141c0.315,0.201 0.659,0.383 1.009,0.503c1.298,0.445 2.308,0.973 2.62,1.286c0.312,0.312 2.92,2.703 3.377,3.016c0.456,0.312 3.328,3.941 3.749,4.314c0.421,0.372 2.052,1.765 2.775,2.759c0.723,0.995 2.952,2.893 3.856,3.766c0.904,0.874 3.013,2.742 3.344,3.073c0.332,0.332 0.211,0.784 0.362,1.115c0.151,0.331 0.572,1.657 1.024,2.109c0.452,0.452 1.928,1.446 2.44,1.777c0.513,0.332 0.543,0.934 0.633,1.687c0,0 0.165,0.124 0.46,-0.25c0.294,-0.374 0.442,-0.997 1.167,-1.269c0.015,-0.006 0.032,-0.013 0.05,-0.021c0.197,0.22 1.336,1.495 1.753,2.01c0.456,0.565 2.324,2.477 2.846,2.998c0.521,0.521 2.172,2.281 3.063,2.846c0.89,0.565 1.955,1.282 2.563,1.412c0.608,0.13 1.173,-0.043 1.499,0.391c0.326,0.434 0.413,2.02 0.543,2.759c0.13,0.739 1.086,7.625 1.238,8.711c0.152,1.086 1.021,7.191 1.26,8.299c0.239,1.108 1.717,9.363 2.042,10.797c0.326,1.433 0.957,6.148 1.304,7.842c0.348,1.695 1.173,5.518 1.239,6.648c0.065,1.129 0.217,6.495 0.26,7.342c0.044,0.848 -0.565,1.412 -0.565,1.412c-45.613,4.753 -71.197,-18.36 -78.25,-67.257c0,-0 4.302,-3.346 4.497,-3.65c0.196,-0.304 1.347,-1.108 2.151,-1.586c0.803,-0.478 5.431,-2.954 6.3,-3.606c0.869,-0.652 3.736,-1.825 5.995,-2.563c2.26,-0.739 5.866,-1.76 6.605,-1.934c0.738,-0.173 1.26,-0.608 1.803,-1.368c0.543,-0.761 4.301,-4.714 4.67,-5.149c0.136,-0.16 0.231,-0.217 0.318,-0.219Z" style="fill:#382c1e;"/><path d="M72.287,44.904c-0.016,-0.038 -0.029,-0.076 -0.038,-0.112c-0.073,-0.304 -0.401,-1.762 -0.377,-2.187c0.025,-0.425 0,-2.284 -0.012,-2.539c-0.012,-0.255 -0.729,-0.777 -0.947,-0.85c-0.219,-0.073 -1.361,-0.377 -1.543,-0.292c-0.182,0.085 -0.535,1.774 -1.652,3.244c-1.118,1.47 -2.066,1.968 -4.908,1.373c-2.843,-0.596 -4.179,-2.199 -4.41,-3.086c-0.231,-0.887 -0.061,-3.158 0.049,-3.584c0.109,-0.425 0.303,-1.397 0.303,-1.397l-0.692,-0.109l-0.401,0.377l-0.207,-0.171c-5.517,-0.17 -11.48,1.568 -11.48,1.568c-0.085,-0.158 -0.899,-1.021 -0.899,-1.021c1.868,-0.146 12.114,-1.373 12.284,-1.373c0.17,0 0.352,-0.267 0.632,-0.255c0.279,0.012 0.376,0.183 0.498,0.207c0.121,0.024 0.449,0.073 0.68,0.073c0.231,-0 0.693,-0.583 1.409,-0.863c0.717,-0.279 2.381,-0.061 3.426,0.231c1.045,0.292 3.669,1.774 4.179,2.114c0.51,0.34 1.142,1.652 1.166,1.81c0.024,0.158 0.377,0.121 0.559,0.219c0.182,0.097 1.142,0.34 1.397,0.498c0.255,0.158 0.814,0.704 1.057,0.704c0.243,0 0.316,-0.486 1.47,-0.619c1.154,-0.134 2.077,0.814 2.903,1.202c0.826,0.389 1.665,1.604 1.835,1.956c0.17,0.352 0.303,1.604 0.303,1.604c0,-0 0.122,0.012 0.389,0.012c0.267,-0 0.413,0.267 0.448,0.461c0.035,0.195 -0.085,0.559 -0.243,0.559c-0.158,0 -0.729,0.11 -0.729,0.11c-0.012,0.121 -0.462,2.053 -0.607,2.551c-0.146,0.498 -1.264,1.713 -1.531,1.749c-0.267,0.036 -1.251,-0.219 -1.677,-0.437c-0.425,-0.219 -1.397,-0.996 -1.603,-1.215c-0.061,-0.065 -0.093,-0.132 -0.109,-0.202c0.003,-0.008 0.007,-0.015 0.01,-0.023c0.149,0.078 0.311,0.144 0.484,0.196c0.124,0.122 0.458,0.412 1.184,0.839c0.981,0.576 1.36,0.49 1.725,0.429c0.364,-0.061 1.057,-1.3 1.287,-2.029c0.231,-0.729 0.219,-1.518 0.219,-1.518c0,-0 -2.899,0.629 -2.912,0.605c-0.048,-0.089 -0.051,-0.213 -0.028,-0.35c0.037,-0.219 0.158,-0.45 0.158,-0.45l2.976,-0.692c0,-0 0.086,-0.158 0.098,-1.02c0.012,-0.863 -0.62,-1.555 -0.863,-1.908c-0.243,-0.352 -2.199,-1.555 -3.195,-1.81c-0.996,-0.255 -1.579,0.243 -1.64,0.413c-0.061,0.17 -0.393,0.345 -0.362,0.921c0.03,0.541 0.004,3.621 0.001,3.994c-0.021,0.031 -0.043,0.062 -0.064,0.093Zm-13.436,-4.364c-0.133,-0.413 -0.146,-2.879 0.012,-3.486c0.158,-0.608 1.179,-2.637 2.114,-2.697c0.936,-0.061 3.418,0.313 4.993,1.214c2.187,1.252 2.976,2.491 2.903,3.11c-0.072,0.62 -0.279,1.689 -1.251,2.758c-0.972,1.069 -2.041,1.992 -3.292,1.81c-1.251,-0.182 -3.401,0.243 -5.479,-2.709Z" style="fill:#533125;"/><path d="M63.973,85.839c-0,-0 0.819,1.606 1.18,2.163c0.36,0.557 2.523,5.244 2.949,6.129c0.426,0.885 1.869,4.392 2,4.883c0.131,0.492 2.032,6.85 2.163,7.899c0.131,1.049 1.114,4.228 1.18,4.916c0.065,0.688 0.131,2.819 0.131,3.245c-0,-0 -0.656,-2.425 -1.213,-3.376c-0.557,-0.95 -2.622,-4.752 -3.113,-5.834c-0.492,-1.081 -2.459,-7.964 -2.688,-8.98c-0.229,-1.016 -1.672,-5.146 -1.704,-6.064c-0.033,-0.917 -0.918,-3.736 -0.885,-4.981Z" style="fill:#8e9464;"/></g></g></g></svg>