<?xml version="1.0" encoding="UTF-8" standalone="no"?><!DOCTYPE svg PUBLIC "-//W3C//DTD SVG 1.1//EN" "http://www.w3.org/Graphics/SVG/1.1/DTD/svg11.dtd"><svg width="100%" height="100%" viewBox="0 0 150 150" version="1.1" xmlns="http://www.w3.org/2000/svg" xmlns:xlink="http://www.w3.org/1999/xlink" xml:space="preserve" xmlns:serif="http://www.serif.com/" style="fill-rule:evenodd;clip-rule:evenodd;stroke-linejoin:round;stroke-miterlimit:2;"><path id="base" d="M150,75c0,-41.394 -33.606,-75 -75,-75c-41.394,0 -75,33.606 -75,75c0,41.394 33.606,75 75,75c41.394,0 75,-33.606 75,-75Z" style="fill:#141414;"/><path id="outline" d="M144,75c0,-38.082 -30.918,-69 -69,-69c-38.082,0 -69,30.918 -69,69c0,38.082 30.918,69 69,69c38.082,0 69,-30.918 69,-69Z" style="fill:#e50914;"/><path id="core" d="M141,75c0,-36.426 -29.574,-66 -66,-66c-36.426,0 -66,29.574 -66,66c0,36.426 29.574,66 66,66c36.426,0 66,-29.574 66,-66Z" style="fill:#333;"/><clipPath id="_clip1"><path d="M141,75c0,-36.426 -29.574,-66 -66,-66c-36.426,0 -66,29.574 -66,66c0,36.426 29.574,66 66,66c36.426,0 66,-29.574 66,-66Z"/></clipPath><g clip-path="url(#_clip1)"><g id="cooper"><path d="M60.436,86.794l0.396,-1.349c-0,0 -0,-2.511 -0.279,-4.232c-0.279,-1.721 -0.698,-7.139 -1.791,-8.767c0,0 -1.721,-0.581 -2.325,-0.999c-0.605,-0.419 -1.605,-0.884 -2.651,-3.163c-1.047,-2.279 -1.372,-2.465 -1.721,-3.837c-0.349,-1.372 -0.767,-3.651 -0.558,-4.418c0.209,-0.767 0.86,-1.814 1.395,-1.93c0.535,-0.116 1.814,-0.465 1.814,-0.465c6.211,-37.637 43.915,-35.736 40.319,-2.631c0,0 0.134,1.683 0.249,2.487c0.115,0.803 1.014,3.27 0.976,4.456c-0.039,1.186 -0.479,4.743 -0.67,5.929c-0.191,1.186 -0.669,7.096 -0.765,7.919c-0.096,0.822 -1.186,4.743 -1.568,5.623c-0.383,0.88 -1.186,2.257 -1.741,2.697c-0.555,0.44 -1.74,1.014 -1.74,1.014c-0,-0 -0.364,3.002 -0.402,3.729c-0.038,0.727 0.229,1.645 0.229,1.645c1.115,20.511 -31.82,18.711 -29.167,-3.708Z" style="fill:#cea285;"/><path d="M61.411,62.606l-1.239,0c-0,0 -1.057,-1.482 -1.446,-1.944c-0.389,-0.461 -1.337,-2.174 -1.726,-2.259c-0.388,-0.085 -2.381,-0.608 -2.709,-0.571c-0.328,0.036 -1.179,0.218 -1.179,0.218c0,0 -1.543,-3.56 -1.749,-4.325c-0.207,-0.766 -0.608,-5.334 -0.62,-5.905c-0.012,-0.571 -0.133,-2.09 -0.085,-2.345c0.049,-0.255 1.422,-3.584 1.883,-4.253c0.462,-0.668 2.734,-4.847 2.892,-5.188c0.158,-0.34 2.6,-3.438 3.317,-3.863c0.717,-0.426 3.366,-1.167 4.131,-1.288c0.766,-0.122 1.555,-0.268 2.296,-0.158c0.742,0.109 1.738,0.291 2.127,0.109c0.388,-0.182 2.964,-2.114 3.475,-2.454c0.51,-0.34 4.106,-2.807 4.847,-3.171c0.742,-0.365 2.625,-0.426 2.892,-0.547c0.267,-0.122 2.297,-0.911 2.783,-0.936c0.486,-0.024 4.434,0.304 4.86,0.353c0.425,0.048 1.251,0.073 1.47,0.158c0.218,0.085 0.814,0.826 1.13,1.032c0.316,0.207 3.584,2.43 3.863,2.698c0.28,0.267 0.365,1.081 0.523,1.263c0.158,0.183 0.777,1.215 0.838,1.75c0.061,0.535 0.352,2.722 0.486,2.928c0.134,0.207 0.875,1.543 0.948,1.871c-0,0 -0.498,-0.316 -0.328,0c0.17,0.316 1.604,2.977 1.701,3.67c-0,-0 -0.304,-0.049 -0.268,0.109c0.037,0.158 -0.121,1.543 -0.072,1.968c0.048,0.425 0.328,2.114 0.376,2.43c0.049,0.316 0.122,1.932 0.037,2.126c-0.085,0.195 -0.571,0.474 -0.656,0.875c-0.085,0.401 -0.061,2.625 -0.219,3.086c-0.158,0.462 -0.292,0.632 -0.316,1.179c-0.024,0.547 -0.365,3.706 -0.377,4.107c-0.012,0.401 0,2.308 0,2.308c0,0 -0.571,-1.98 -0.571,-2.503c0,-0.522 -0.024,-2.636 -0.146,-3.025c-0.121,-0.389 -0.34,-0.851 -0.388,-1.519c-0.049,-0.668 0.024,-2.187 -0.098,-2.709c-0.121,-0.523 -0.425,-1.726 -0.571,-2.491c-0.145,-0.766 -1.142,-3.597 -1.433,-4.095c-0.292,-0.498 -1.543,-2.697 -1.811,-2.952c-0.267,-0.255 -1.518,-1.118 -2.174,-1.41c-0.657,-0.291 -1.252,-0.704 -2.37,-0.704c-1.118,-0 -2.733,-0.328 -3.924,-0.462c-1.191,-0.134 -2.406,-0.449 -4.216,-0.437c-1.811,0.012 -4.885,0.474 -6.172,0.765c-1.288,0.292 -2.127,0.571 -2.698,1.021c-0.571,0.449 -1.968,0.85 -2.357,2.09c-0.389,1.239 -0.802,2.296 -0.802,2.721c0,0.425 0.158,3.694 0.28,4.471c0.121,0.778 0.097,1.884 -0,2.224c-0.098,0.34 -0.96,1.64 -1.373,2.405c-0.413,0.766 -0.839,1.847 -1.227,2.54c-0.389,0.692 -1.228,3.718 -1.398,4.41c-0.17,0.693 -0.34,0.863 -0.413,1.713c-0.073,0.851 0.097,1.616 0.085,1.944c-0.012,0.329 -0.073,0.729 -0.109,0.972Z" style="fill:#24120e;"/><path d="M60.795,85.453c-0,0 -0.353,1.3 0.273,2.889c0.626,1.589 1.717,3.418 3.595,4.991c1.878,1.573 4.365,3.355 4.975,3.884c0.61,0.53 2.327,1.974 2.937,2.376c0.61,0.401 0.963,0.401 1.477,0.802c0.513,0.401 2.487,2.311 2.712,2.375c0.225,0.065 0.655,0.085 0.88,0.133c0.224,0.048 0.617,0.319 0.617,0.319l0.381,0.11c-0,0 -0.064,-0.401 0.193,-0.546c0.256,-0.144 1.3,-0.834 1.556,-1.091c0.257,-0.257 1.878,-1.348 3.018,-2.76c1.139,-1.413 2.311,-2.713 2.808,-3.226c0.498,-0.514 1.718,-2.167 1.926,-2.665c0.209,-0.497 0.69,-1.492 0.819,-2.214c0.128,-0.723 0.369,-1.3 0.369,-1.702c-0,-0.401 0.209,-0.337 0.321,-0.016c0.112,0.321 0.465,2.039 0.401,2.825c-0.064,0.786 0.706,2.488 0.706,2.488l12.152,45.345l-37.795,3.904l-7.574,-52.398l2.322,-3.892c-0,-0 0.673,-1.701 0.931,-1.931Z" style="fill:#e8e2d6;"/><path d="M19.227,110.273c-0,-0 1.171,-0.995 2.409,-0.995c-0,0 1.547,-1.237 2.254,-1.679c0.708,-0.442 3.404,-2.233 4.133,-2.653c0.73,-0.419 3.448,-1.856 4.443,-2.409c0.994,-0.552 3.845,-1.701 4.31,-1.856c0.464,-0.155 4.354,-1.459 5.26,-1.901c0.906,-0.442 5.017,-2.32 5.79,-2.586c0.774,-0.265 3.559,-0.95 4.067,-1.259c0.508,-0.31 2.298,-1.614 2.895,-2.078c0.597,-0.464 1.724,-1.636 2.011,-2.232c0.288,-0.597 1.172,-1.879 1.68,-2.321c0.509,-0.442 1.061,-0.818 1.304,-0.95c0,-0 -0.022,0.862 -0.331,1.282c-0.31,0.42 -0.884,1.635 -0.84,2.298c0.044,0.663 0.597,2.829 0.773,3.404c0.177,0.574 1.923,5.105 2.122,6.011c0.199,0.907 2.188,6.631 2.475,7.382c0.288,0.752 2.454,6.918 2.719,7.846c0.265,0.929 1.967,5.791 2.254,6.653c0.288,0.862 2.343,6.873 2.697,7.89c0.353,1.017 2.519,6.852 2.961,8.244c0.442,1.392 1.061,2.696 1.061,2.696c-24.387,6.453 -44.614,0.423 -56.447,-30.787Zm78.901,26.757c-0,-0 -0.098,-3.043 -0.344,-4.761c-0.245,-1.718 -1.031,-8.197 -1.251,-8.958c-0.221,-0.76 -1.056,-5.718 -1.203,-7.239c-0.147,-1.522 -1.227,-5.792 -1.423,-7.068c-0.197,-1.276 -1.473,-5.62 -1.718,-6.503c-0.246,-0.883 -1.252,-4.81 -1.399,-5.595c-0.147,-0.786 -0.466,-3.068 -0.564,-3.608c-0.099,-0.54 -0.099,-1.816 -0.099,-1.816c0,0 0.712,0.786 0.884,1.203c0.172,0.417 0.785,1.521 1.031,1.791c0.245,0.27 2.282,1.055 2.871,1.203c0.589,0.147 2.994,0.932 4.049,1.251c1.055,0.319 3.46,1.056 4.442,1.473c0.982,0.417 5.718,2.037 6.626,2.429c0.908,0.393 4.933,2.307 5.571,2.675c0.638,0.368 3.411,1.914 4.122,2.332c0.712,0.417 2.209,1.276 2.577,1.349c0.368,0.074 1.178,0.098 1.546,0.319c0.368,0.221 1.743,1.497 2.037,2.013c0.295,0.515 1.055,1.987 1.399,2.895c0.343,0.908 0.761,2.209 0.761,2.209c-4.461,12.723 -13.721,20.871 -29.915,22.406Z" style="fill:#282423;"/><path d="M72.994,106.901c0,0 0.646,0 0.925,0.044c0.279,0.044 0.617,0.352 0.866,0.719c0.25,0.368 1.336,1.087 1.453,1.865c0.118,0.778 0.47,2.598 0.485,3.2c0.015,0.602 0.103,0.808 0.029,1.424c-0.073,0.617 -0.293,3.083 -0.249,3.788c0.044,0.705 0.205,6.357 0.249,6.841c0.044,0.485 0.382,5.74 0.455,6.988c0.074,1.248 0.602,8.53 0.617,9.352c0.015,0.822 13.565,-0.529 13.33,-2.07c-0.235,-1.542 -1.028,-5.256 -1.321,-6.959c-0.294,-1.703 -0.778,-4.888 -1.116,-6.312c-0.338,-1.424 -1.277,-5.3 -1.644,-6.298c-0.367,-0.999 -1.395,-2.981 -1.776,-3.421c-0.382,-0.441 -2.129,-3.509 -2.291,-3.817c-0.161,-0.308 -0.44,-0.529 -0.455,-0.661c-0.014,-0.132 0.176,-0.029 0.103,-0.425c-0.073,-0.397 -0.338,-1.586 -0.352,-1.982c-0.015,-0.397 0.44,-1.248 0.763,-1.571c0.323,-0.323 1.101,-1.424 1.101,-1.424c0,-0 -0.558,-1.233 -0.895,-1.542c-0.338,-0.308 -1.718,-1.642 -2.173,-1.776c-0.455,-0.134 -2.026,0.204 -2.525,0.292c-0.499,0.088 -1.278,0.235 -1.762,0.396c-0.484,0.162 -0.837,0.514 -1.072,0.529c-0.235,0.014 -0.675,0.058 -0.675,0.058c0,0 -1.791,2.323 -2.07,2.762Z" style="fill:#262221;"/><path d="M102.57,112.665c-0.712,-0.467 -1.479,-1.933 -1.121,-2.639c0.357,-0.705 1.663,-0.918 2.407,-0.589c0.744,0.328 2.194,1.459 2.465,2.281c0.233,0.709 0.203,1.75 -1.034,1.895c-1.238,0.145 -1.45,-0.116 -2.717,-0.948Z" style="fill:#a8967a;"/></g></g></svg>