<?xml version="1.0" encoding="UTF-8" standalone="no"?><!DOCTYPE svg PUBLIC "-//W3C//DTD SVG 1.1//EN" "http://www.w3.org/Graphics/SVG/1.1/DTD/svg11.dtd"><svg width="100%" height="100%" viewBox="0 0 150 150" version="1.1" xmlns="http://www.w3.org/2000/svg" xmlns:xlink="http://www.w3.org/1999/xlink" xml:space="preserve" xmlns:serif="http://www.serif.com/" style="fill-rule:evenodd;clip-rule:evenodd;stroke-linejoin:round;stroke-miterlimit:2;"><path id="base" d="M150,75c0,-41.394 -33.606,-75 -75,-75c-41.394,0 -75,33.606 -75,75c0,41.394 33.606,75 75,75c41.394,0 75,-33.606 75,-75Z" style="fill:#141414;"/><path id="outline" d="M144,75c0,-38.082 -30.918,-69 -69,-69c-38.082,0 -69,30.918 -69,69c0,38.082 30.918,69 69,69c38.082,0 69,-30.918 69,-69Z" style="fill:#e50914;"/><path id="core" d="M141,75c0,-36.426 -29.574,-66 -66,-66c-36.426,0 -66,29.574 -66,66c0,36.426 29.574,66 66,66c36.426,0 66,-29.574 66,-66Z" style="fill:#333;"/><clipPath id="_clip1"><path d="M141,75c0,-36.426 -29.574,-66 -66,-66c-36.426,0 -66,29.574 -66,66c0,36.426 29.574,66 66,66c36.426,0 66,-29.574 66,-66Z"/></clipPath><g clip-path="url(#_clip1)"><g id="dassey"><path d="M24.195,58.782c-0,-0 6.936,0.667 11.872,0.133c4.936,-0.533 6.803,-0.933 11.205,-0.667c4.403,0.267 4.002,0.401 8.805,0.534c4.802,0.133 7.47,-0.133 8.671,-0.133c1.2,-0 7.737,0.933 12.806,0.933c5.069,0 10.805,0.134 14.007,0.267c3.201,0.134 6.936,-1.067 11.338,0.134c4.403,1.2 6.804,-1.868 11.606,4.535c4.802,6.403 8.271,13.073 8.804,15.207c0.534,2.135 3.202,1.068 3.602,5.336c0.4,4.269 0.8,7.204 1.601,10.939c0.8,3.735 0.179,17.435 0.046,20.637c-0.134,3.201 -19.389,22.984 -19.389,22.984c0,0 -14.94,-0.4 -25.079,-0.667c-10.138,-0.267 -25.212,-1.734 -34.817,-2.268c-9.604,-0.533 -35.801,4.437 -44.853,-14.039c-0,0 -5.171,-61.597 -2.636,-61.997c2.534,-0.401 11.338,-1.068 14.407,-1.068c3.068,0 8.004,-0.8 8.004,-0.8Z" style="fill:#23232d;"/><path d="M65.19,80.949c1.559,0.735 33.021,4.415 33.021,4.415c0,0 6.303,12.905 6.692,14.269c0.39,1.364 0.692,5.9 0.254,7.313c-0.439,1.412 -0.147,4.53 -1.121,5.846c-0.974,1.315 -1.023,2.241 -1.705,3.312c-0.682,1.072 -1.072,2.875 -2.29,4.531c-1.218,1.657 -1.656,2.095 -2.192,3.216c-0.536,1.12 -1.12,1.997 -1.754,3.264c-0.633,1.266 0.244,0.097 -1.607,2.143c-1.852,2.046 -1.949,2.875 -2.534,3.8c-0.584,0.926 -2.338,2.144 -3.215,2.68c-0.877,0.536 -1.462,1.705 -2.728,2.63c-1.267,0.926 -3.813,2.577 -4.239,3.703c-3.187,8.429 -49.048,-5.565 -47.256,-13.836c0.393,-1.813 -0.584,-2.728 -0.779,-3.361c-0.195,-0.634 -0.78,-2.095 -1.218,-3.703c-0.439,-1.608 -0.39,-2.533 -0.633,-4.141c-0.244,-1.608 0.194,-1.997 -0.439,-3.556c-0.633,-1.559 -0.438,-2.144 -0.926,-3.021c-0.487,-0.877 -1.266,-0.779 -0.73,-2.436c0.536,-1.656 -0.049,-1.266 0.682,-2.338c0.73,-1.072 1.559,-0.146 1.948,-2.923c0.39,-2.777 0.926,-4.628 1.9,-6.333c0.975,-1.705 0.39,-3.557 3.411,-4.97c3.02,-1.412 2.289,-1.023 4.482,-1.315c2.192,-0.292 3.41,-0.828 4.482,-1.267c1.071,-0.438 1.9,-0.779 3.02,-0.779c1.121,-0 3.167,-0.244 3.557,-1.023c0.389,-0.78 0.828,-4.141 1.412,-4.677c0.585,-0.536 1.998,-1.851 3.605,-1.51c1.608,0.341 5.341,-0.668 6.9,0.067Zm2.258,29.894c-0.827,1.949 -0.778,2.144 -1.801,3.264c-1.023,1.121 -3.216,1.656 -4.141,3.069c-0.926,1.413 -0.78,0.195 -1.023,1.852c-0.244,1.656 -0.439,1.851 -0.244,3.994c0.195,2.144 0.098,5.408 0.244,6.967c0.146,1.559 -1.023,3.751 0.195,1.997c1.218,-1.753 1.656,-3.41 2.387,-4.676c0.73,-1.267 0.536,-1.706 1.51,-3.118c0.974,-1.413 1.315,-0.829 1.949,-3.118c0.633,-2.29 1.069,-2.339 0.924,-3.849c-0.145,-1.51 0.048,-2.387 0,-3.703c-0.047,-1.315 0.827,-4.628 0,-2.679Z" style="fill:#314045;"/><path id="_-" serif:id=" " d="M61.421,80.814c-0,-0 4.576,1.466 7.451,3.05c2.874,1.584 7.744,2.171 10.149,2.64c2.406,0.47 4.4,1.115 5.104,1.232c0.704,0.118 14.961,2.875 16.369,4.694c1.408,1.819 3.168,6.571 3.637,8.038c0.47,1.466 1.174,2.288 1.174,2.288c-0,-0 2.17,-4.635 2.229,-7.569c0.059,-2.933 0.528,-4.576 1.878,-6.512c1.349,-1.936 1.349,-3.051 2.346,-3.285c0.998,-0.235 2.464,0.938 4.576,0.41c2.113,-0.528 3.755,-1.466 4.283,-2.112c0.528,-0.645 4.224,-3.226 4.107,-3.989c-0.117,-0.763 0.528,-6.219 0.528,-7.334c0,-1.114 0.117,-5.515 -0.293,-7.685c-0.411,-2.171 -0.47,-5.163 -1.467,-5.75c-0.997,-0.586 -2.229,-1.29 -3.696,-1.818c-1.467,-0.529 -2.699,-0.939 -3.403,-1.761c-0.704,-0.821 -1.115,-1.701 -1.701,-2.112c-0.587,-0.41 -2.699,-1.173 -2.699,-1.173c-0,0 -3.579,-0.293 -6.454,-1.291c-2.874,-0.997 -1.642,-0.938 -4.693,-1.584c-3.051,-0.645 -6.395,-1.29 -6.395,-1.29c0,-0 -0.821,-0.294 -2.699,-0.352c-1.877,-0.059 -3.637,-0.587 -5.163,-0.352c-1.525,0.234 -3.226,-0.118 -4.752,1.114c-1.525,1.232 -3.226,2.582 -4.928,4.694c-1.701,2.112 -1.525,2.757 -2.64,4.165c-1.115,1.408 -1.115,2.464 -2.464,3.872c-1.349,1.408 -3.696,2.758 -4.341,3.696c-0.646,0.939 -1.232,1.584 -2.406,3.345c-1.173,1.76 -0.704,1.818 -1.525,3.696c-0.822,1.877 -1.291,1.397 -1.408,3.221c-0.118,1.824 -0.235,2.822 -0.352,3.702c-0.118,0.88 -0.352,2.112 -0.352,2.112Z" style="fill:#222b30;"/><path d="M109.646,44.674c0.411,-0.704 -0.117,-1.936 -0.117,-1.936c-0,-0 0.939,-0.704 1.467,-1.467c0.528,-0.763 0.704,-0.88 0.586,-1.408c-0.117,-0.528 0.545,-2.247 -0.394,-3.01c-0.939,-0.763 -9.101,-5.813 -9.101,-5.813c-0,-0 -10.246,-0.089 -10.48,1.26c-0.235,1.35 -0.324,5.51 -0.324,5.51c-0,-0 0.293,1.525 0.528,2.346c0.235,0.822 0.704,1.702 0.821,2.523c0.118,0.821 0.411,1.701 0.704,2.523c0.294,0.821 1.056,1.349 1.174,2.229c0.117,0.88 0.997,2.464 0.997,2.464c0,0 0.88,1.584 1.467,2.112c0.587,0.528 2.581,1.174 2.581,1.174l2.406,-0.235l1.29,-0.587c0,0 0.822,0.411 1.291,1.115c0.469,0.704 1.056,1.584 1.291,2.229c0.234,0.646 0.352,1.702 0.352,2.699c-0,0.998 0.117,2.347 0.117,2.347l0.997,0.352c0,-0 0.47,-0.704 1.526,-0.939c1.056,-0.234 1.936,-1.173 3.051,-1.173c1.114,-0 1.877,0.704 2.288,-0.293c0.41,-0.998 0.41,-1.056 -0.587,-1.878c-0.997,-0.821 -1.291,0.176 -1.467,-1.819c-0.176,-1.994 -0.469,-2.816 -0.352,-3.872c0.118,-1.056 0.352,-2.933 0.059,-3.578c-0.293,-0.646 -0.059,-1.467 -0.997,-2.054c-0.939,-0.587 -1.584,-0.117 -1.174,-0.821Z" style="fill:#af908b;"/><path d="M85.546,88.79c-0.421,-0.841 -0.043,-1.204 0.365,-1.978c0.408,-0.774 0.279,-1.333 0.365,-1.849c0.086,-0.516 0.129,-0.58 0.839,-1.418c0.709,-0.839 0.43,-1.183 1.118,-1.419c0.687,-0.237 0.516,-0.516 1.526,-0.065c1.01,0.452 0.688,0.344 1.806,0.882c1.117,0.537 1.031,0.387 1.934,1.01c0.903,0.623 0.581,0.129 1.526,1.075c0.946,0.946 0.581,0.666 1.656,1.505c1.075,0.838 1.053,0.344 1.461,1.053c0.409,0.709 1.183,1.01 0.731,1.569c-0.451,0.559 -0.58,0.796 -0.838,0.925c-0.258,0.129 -0.58,0.365 -0.344,0.644c0.237,0.28 0.537,0.538 0.43,0.839c-0.107,0.301 -0.301,0.537 -0.817,0.602c-0.516,0.064 -0.666,0.043 -1.892,-0.022c-1.225,-0.064 -1.891,0.194 -2.88,-0.043c-0.989,-0.236 -1.161,-0.516 -1.698,-0.838c-0.538,-0.323 -1.871,-0.817 -2.279,-0.925c-0.408,-0.107 -1.612,-0.558 -1.87,-0.709c-0.258,-0.15 -0.924,-0.408 -1.139,-0.838Z" style="fill:#af908b;"/><path d="M94.349,32.908c0,-0 -0.458,0.024 -0.987,0.289c-0.53,0.264 -0.675,0.12 -1.18,0.746c-0.506,0.626 -0.65,0.843 -0.626,1.469c0.024,0.626 0.192,0.747 0.048,1.276c-0.145,0.53 -0.458,0.771 -0.723,0.795c-0.265,0.024 -0.987,-0.024 -0.891,-0.674c0.097,-0.65 0.362,-1.614 0.458,-2.384c0.096,-0.771 0.217,-1.566 0.53,-3.059c0.313,-1.493 1.059,-3.178 1.445,-3.66c0.385,-0.481 1.757,-1.421 2.311,-1.758c0.554,-0.337 2.119,-1.083 3.01,-1.541c0.891,-0.457 0.554,-0.674 1.469,-0.65c0.915,0.024 1.108,0.144 2.144,0.265c1.035,0.12 1.95,0.53 2.793,0.77c0.843,0.241 1.613,0.41 2.408,0.843c0.795,0.434 1.421,0.145 1.782,1.012c0.361,0.866 0.722,1.011 0.795,1.806c0.072,0.794 -0.217,0.963 0.337,1.541c0.554,0.578 0.819,0.241 0.963,0.602c0.145,0.361 0.337,0.337 0.217,1.372c-0.121,1.036 0.337,1.253 0.554,2.288c0.216,1.036 0.867,2.264 0.746,2.505c-0.12,0.24 0.458,0.722 -1.132,0.457c-1.589,-0.265 -1.089,0.221 -1.763,0.678c-0.674,0.458 -0.166,1.751 -0.93,2.112c-0.324,0.154 -0.293,-2.116 -1.545,-2.91c-1.252,-0.795 -0.987,-0.891 -2.601,-1.855c-1.613,-0.963 -1.926,-1.685 -2.384,-1.493c-0.457,0.193 -0.77,0.41 -1.444,0.386c-0.675,-0.024 -0.41,-0.699 -1.951,-1.036c-1.541,-0.337 -1.854,-0.505 -1.758,0.217c0.096,0.722 1.325,2.095 0.241,1.204c-1.084,-0.891 -1.469,-1.252 -1.83,-1.421c-0.361,-0.168 -0.506,-0.192 -0.506,-0.192Z" style="fill:#433b38;"/></g></g></svg>