<?xml version="1.0" encoding="UTF-8" standalone="no"?><!DOCTYPE svg PUBLIC "-//W3C//DTD SVG 1.1//EN" "http://www.w3.org/Graphics/SVG/1.1/DTD/svg11.dtd"><svg width="100%" height="100%" viewBox="0 0 150 150" version="1.1" xmlns="http://www.w3.org/2000/svg" xmlns:xlink="http://www.w3.org/1999/xlink" xml:space="preserve" xmlns:serif="http://www.serif.com/" style="fill-rule:evenodd;clip-rule:evenodd;stroke-linejoin:round;stroke-miterlimit:2;"><path id="base" d="M150,75c0,-41.394 -33.606,-75 -75,-75c-41.394,0 -75,33.606 -75,75c0,41.394 33.606,75 75,75c41.394,0 75,-33.606 75,-75Z" style="fill:#141414;"/><path id="outline" d="M144,75c0,-38.082 -30.918,-69 -69,-69c-38.082,0 -69,30.918 -69,69c0,38.082 30.918,69 69,69c38.082,0 69,-30.918 69,-69Z" style="fill:#e50914;"/><path id="core" d="M141,75c0,-36.426 -29.574,-66 -66,-66c-36.426,0 -66,29.574 -66,66c0,36.426 29.574,66 66,66c36.426,0 66,-29.574 66,-66Z" style="fill:#333;"/><clipPath id="_clip1"><path d="M141,75c0,-36.426 -29.574,-66 -66,-66c-36.426,0 -66,29.574 -66,66c0,36.426 29.574,66 66,66c36.426,0 66,-29.574 66,-66Z"/></clipPath><g clip-path="url(#_clip1)"><g id="end-of-the-world"><path d="M65.805,60.399l-9.52,18.216l40.138,-0.961l-11.167,-16.797l-19.451,-0.458Z" style="fill:#0d111a;"/><path d="M67.656,57.669c0,-0 -5.24,4.556 -6.095,5.553c-0.854,0.996 -10.849,3.588 -12.757,4.983c-1.908,1.395 -5.097,5.525 -5.467,6.464c-0.371,0.94 -0.94,3.645 -1.51,4.642c-0.569,0.997 -0.825,1.167 -1.082,2.62c-0.256,1.452 -0.939,5.695 -1.167,6.635c-0.228,0.939 -1.538,3.132 -1.68,4.157c-0.143,1.025 -1.339,4.528 -1.737,5.695c-0.399,1.168 -1.396,5.639 -1.965,6.949c-0.57,1.309 -1.766,4.043 -1.68,5.239c0.085,1.196 0.313,2.762 0.74,3.531c0.427,0.769 0.712,1.452 0.797,2.079c0.086,0.626 0.342,0.598 0.057,1.68c-0.284,1.082 -0.484,2.364 -0.484,3.104c0,0.74 -0.028,1.851 0.228,2.193c0.256,0.341 1.082,0.996 1.538,1.651c0.455,0.655 1.196,1.766 1.822,2.193c0.627,0.427 2.364,0.883 2.364,0.883l7.603,2.847l24.091,17.513l48.039,-19.791l-0.74,-4.129c-0,0 -0.114,-0.37 -0.2,-0.74c-0.085,-0.37 0.342,-1.652 0.513,-2.278c0.171,-0.627 1.31,-3.873 1.253,-4.727c-0.057,-0.855 -1.196,-4.386 -1.424,-5.012c-0.228,-0.627 -1.452,-6.407 -1.823,-7.376c-0.37,-0.968 -3.73,-10.963 -3.986,-11.646c-0.256,-0.684 -4.015,-10.593 -4.471,-12.046c-0.456,-1.452 -1.367,-3.958 -1.68,-4.243c-0.313,-0.284 -1.31,-1.31 -1.652,-2.221c-0.341,-0.911 -1.281,-2.278 -2.078,-2.933c-0.798,-0.655 -5.867,-3.161 -7.319,-3.816c-1.452,-0.655 -5.553,-2.392 -6.122,-2.819c-0.57,-0.427 -4.33,-5.754 -5.868,-6.266c0.649,-0.688 0.276,9.741 -0.739,10.652c-0.323,0.29 -3.872,3.844 -4.841,5.125c-0.968,1.282 -1.822,2.706 -1.822,2.706c-0,-0 -1.823,-2.108 -3.019,-3.076c-1.196,-0.968 -3.502,-3.873 -4.157,-4.414c-0.655,-0.541 -1.838,-1.585 -2.278,-3.104c-0.762,-2.627 0.877,-6.159 0.97,-5.353l-0.172,-3.104Z" style="fill:#131e22;"/><path d="M35.337,133.47c0.785,-0.524 4.396,-5.233 5.285,-6.279c0.89,-1.047 3.977,-2.669 5.913,-3.088c1.936,-0.418 2.93,-1.203 4.762,-0.314c1.831,0.89 3.82,0.995 4.814,1.832c0.994,0.837 5.285,3.349 6.436,4.238c1.151,0.89 2.721,2.093 3.977,2.616c1.255,0.524 5.441,1.204 7.064,1.099c1.622,-0.104 1.255,-0.732 2.93,0.21c1.674,0.942 2.773,1.622 3.715,1.988c0.942,0.366 0.89,0.157 3.035,-1.151c2.145,-1.308 4.971,-4.605 6.593,-6.07c1.622,-1.465 2.878,-2.355 3.61,-2.773c0.733,-0.419 2.355,-0.942 3.663,-1.204c1.308,-0.261 3.925,-3.244 3.925,-3.244c-0,0 4.814,-0.942 5.337,-0.628c0.523,0.314 4.866,2.721 6.855,4.657c1.988,1.936 2.459,1.884 2.773,3.087c0.314,1.204 1.36,12.349 1.36,12.349l-46.674,8.634c-0,0 -36.158,-15.436 -35.373,-15.959Z" style="fill:#0c1117;"/><path d="M67.258,60.952c0,-0 -0.924,1.399 -0.897,2.19c0.026,0.792 0.132,2.587 2.639,4.038c2.507,1.452 4.856,2.983 9.369,2.851c4.513,-0.132 5.991,-2.692 6.017,-3.405c0.027,-0.712 0.555,-1.372 0.528,-2.138c-0.026,-0.765 -0.686,-4.064 -0.792,-5.04c-0.105,-0.977 -0.132,-4.962 -0.132,-4.962c0,0 1.03,-0.95 1.294,-1.9c0.264,-0.95 1.003,-3.273 1.003,-3.906c-0,-0 1.214,0.158 1.979,-0.581c0.765,-0.739 1.583,-1.504 1.425,-2.533c-0.158,-1.03 0.343,-2.772 0.37,-3.326c0.026,-0.554 -0.264,-1.821 -0.264,-1.821l-3.431,-10.556l-21.747,0.131l-3.589,12.062c-0,-0 -0,1.134 0.184,1.715c0.185,0.581 0.634,1.214 0.766,1.927c0.132,0.712 0.237,2.005 0.739,2.322c0.501,0.317 2.481,0.845 2.481,0.845c-0,-0 0.026,2.428 0.527,3.404c0.502,0.977 1.505,2.191 1.505,2.191c-0,-0 0.105,1.847 0.053,2.718c-0.053,0.871 -0.027,3.774 -0.027,3.774Z" style="fill:#d39c88;"/><path d="M48.364,111.807c-0,-0 0.483,-11.161 0.558,-12.742c0.074,-1.581 1.246,-10.397 1.302,-10.751c0.056,-0.353 0.186,-1.171 0.93,0.168c0.744,1.339 1.934,3.311 1.86,7.384c-0.075,4.074 -0.223,10.677 -0.205,11.16c0.019,0.484 0.186,0.67 0.168,0.949c-0.019,0.279 -0.949,1.116 -1.098,1.86c-0.149,0.744 -0.242,1.879 -0.242,1.879l-3.273,0.093Z" style="fill:#8e8d89;"/><path d="M115.153,129.394c-0,0 0.799,-3.265 0.544,-3.792c-0.255,-0.527 -1.089,-1.173 -1.174,-1.428c-0.085,-0.255 -0.187,-1.258 -0.799,-1.735c-0.612,-0.476 -1.173,-0.714 -1.428,-0.935c-0.255,-0.221 -0.102,-0.833 -0.578,-1.173c-0.476,-0.34 -1.208,-0.425 -1.429,-0.697c-0.221,-0.272 0,-1.429 -0.782,-1.718c-0.782,-0.289 -2.006,-0.272 -2.414,-0.493c-0.409,-0.221 -1.021,-1.275 -2.262,-1.173c-1.241,0.102 -2.585,0.799 -3.214,1.088c-0.629,0.289 -2.023,1.429 -2.431,1.616c-0.409,0.187 -2.551,0.442 -2.959,1.496c-0.408,1.054 -0.527,2.432 -0.255,3.027c0.272,0.595 1.649,2.176 2.091,2.329c0.442,0.153 1.157,-0.085 1.157,-0.085c-0,0 -1.174,3.197 0.374,3.571c1.547,0.374 2.159,-0.986 2.482,-1.853c0.323,-0.868 1.004,-2.075 1.514,-2.704c0.51,-0.629 1.173,-1.632 1.394,-1.836c0.221,-0.204 0.408,-0.204 0.238,0.289c-0.17,0.493 -1.309,2.873 -1.598,3.349c-0.289,0.477 -1.378,1.871 -1.038,2.891c0.341,1.02 1.718,2.16 2.823,0.374c1.105,-1.785 3.044,-5.118 3.163,-4.965c0.119,0.153 -1.905,2.942 -1.956,3.435c-0.051,0.493 0.085,1.513 0.596,1.751c0.51,0.238 1.598,0.919 2.89,-1.343c1.293,-2.262 1.922,-3.469 2.296,-3.435c0.374,0.034 0.799,0.612 0.612,1.326c-0.187,0.715 -0.782,1.157 -0.493,1.99c0.289,0.833 1.53,0.969 2.636,0.833Zm-71.85,-4.664l0.219,-5.586c-0,0 -0.742,-0.982 -0.764,-1.505c-0.022,-0.524 0.698,-2.008 0.611,-2.488c-0.087,-0.48 -0.458,-1.374 -0.437,-1.832c0.022,-0.458 0.502,-1.353 1.637,-1.833c1.134,-0.48 4.036,-0.742 5.28,-0.698c1.243,0.044 3.6,-0.066 4.233,0.807c0.632,0.873 0.85,2.029 0.37,2.356c0,0 0.851,0.917 0.851,1.615c0,0.698 -0.349,1.658 -1.2,2.095c0,-0 0.982,0.305 0.96,1.243c-0.021,0.938 -0.196,1.157 -0.196,1.157c-0,-0 0.655,0.021 0.72,0.894c0.065,0.873 0.087,1.462 -0.698,2.095c-0.786,0.632 -2.357,0.938 -2.967,0.829c-0.611,-0.109 -2.248,-0.371 -3.36,-0.24c-1.113,0.131 -3.273,0.982 -3.971,1.069c-0.699,0.087 -1.288,0.022 -1.288,0.022Z" style="fill:#c1887f;"/><path d="M64.318,44.981c0,0 -0.573,-1.445 -1.262,-2.179c-0.688,-0.734 -0.711,-1.216 -1.376,-1.354c-0.666,-0.137 -0.826,0.161 -0.826,0.161c-0,-0 -0.459,-0.665 -0.757,-1.537c-0.298,-0.872 -0.666,-1.836 -0.826,-2.409c-0.161,-0.574 -0.046,-3.327 -0.023,-3.946c0.023,-0.62 -0.069,-0.505 -0.023,-1.537c0.046,-1.033 0.344,-1.744 0.596,-2.249c0.253,-0.504 1.813,-2.042 2.111,-2.73c0.298,-0.688 0.528,-1.078 0.849,-1.629c0.321,-0.55 0.298,-0.803 1.331,-1.468c1.032,-0.665 2.019,-1.032 2.959,-1.606c0.941,-0.574 2.042,-0.803 2.661,-1.422c0.62,-0.62 1.125,-1.4 1.583,-1.469c0.459,-0.068 2.18,-0.229 3.488,-0.091c1.307,0.137 3.579,0.252 4.29,0.435c0.711,0.184 1.445,0.368 2.225,0.941c0.78,0.574 1.056,0.757 2.065,1.491c1.009,0.734 1.95,1.583 2.57,2.065c0.619,0.482 0.94,0.734 1.743,1.537c0.803,0.803 2.088,3.556 2.294,4.658c0.207,1.101 0.643,3.556 0.826,4.244c0.184,0.688 0.115,1.514 0.253,2.065c0.137,0.55 -0.138,1.422 -0.344,2.225c-0.207,0.803 -0.23,1.331 -0.39,1.675c-0.161,0.344 -0.276,1.032 -0.276,1.032c0,0 -1.307,0.092 -1.904,1.17c-0.596,1.079 -1.331,1.996 -1.331,1.996c0,0 0.161,-3.051 -0.023,-3.808c-0.183,-0.757 -0.023,-1.262 -0.711,-2.134c-0.688,-0.872 -1.514,-1.537 -1.789,-1.675c-0.276,-0.137 -0.872,-0.252 -1.744,-0.642c-0.872,-0.39 -1.032,-0.505 -1.583,-0.78c-0.55,-0.275 -0.963,-0.642 -0.963,-0.642c-0,-0 1.56,0.367 2.248,0.298c0.688,-0.069 1.399,-0.482 1.331,-0.688c-0.069,-0.207 -0.735,-0.528 -1.056,-0.597c-0.321,-0.069 -0.55,0.367 -0.505,0.574c0.046,0.206 -0.229,-0.207 -0.344,-0.528c-0.114,-0.321 -0.275,-0.895 -0.275,-0.895c0,0 -0.551,-0.436 -1.216,0.276c-0.665,0.711 -1.17,0.596 -0.986,1.17c0.183,0.573 0.458,1.261 0.458,1.261c0,0 -1.399,-0.665 -1.376,-1.422c0.023,-0.757 0.183,-1.124 0.78,-1.606c0.596,-0.482 1.195,-1.002 1.814,-1.048c0.62,-0.046 1.017,0.047 1.027,-0.346c0.011,-0.458 -0.328,-0.422 -0.902,-0.308c-0.573,0.115 -1.077,0.659 -1.214,0.866c-0.138,0.206 -0.915,0.957 -1.374,1.347c-0.459,0.39 -0.819,0.384 -1.324,0.498c-0.505,0.115 -0.803,0 -1.01,0.505c-0.206,0.505 -0.275,0.482 -0.734,1.01c-0.459,0.527 -0.55,0.803 -0.963,0.94c-0.413,0.138 -0.734,0.344 -0.734,0.092c-0,-0.252 0.252,-1.124 0.252,-1.124c-0,-0 -0.413,0.046 -1.01,0.183c-0.596,0.138 -0.825,-0.298 -1.284,-0.114c-0.459,0.183 -0.276,0.298 -0.666,0.39c-0.39,0.092 0.551,-1.354 0.551,-1.354l-1.009,0.184c-0,-0 -0.528,0.183 -1.171,0.298c-0.642,0.115 -0.642,0.321 -0.94,0.665c-0.298,0.344 -0.344,0.344 -0.688,0.757c-0.345,0.413 -0.39,0.253 -0.551,0.918c-0.161,0.665 0.138,0.505 -0.413,1.101c-0.551,0.597 -0.482,0.872 -0.941,1.239c-0.458,0.367 -0.206,0.39 -0.803,0.39c-0.596,0 -0.894,-0.275 -0.94,0.207c-0.046,0.481 -0.344,3.372 0.275,4.473Z" style="fill:#1a1613;"/></g></g></svg>