<?xml version="1.0" encoding="UTF-8" standalone="no"?><!DOCTYPE svg PUBLIC "-//W3C//DTD SVG 1.1//EN" "http://www.w3.org/Graphics/SVG/1.1/DTD/svg11.dtd"><svg width="100%" height="100%" viewBox="0 0 150 150" version="1.1" xmlns="http://www.w3.org/2000/svg" xmlns:xlink="http://www.w3.org/1999/xlink" xml:space="preserve" xmlns:serif="http://www.serif.com/" style="fill-rule:evenodd;clip-rule:evenodd;stroke-linejoin:round;stroke-miterlimit:2;"><path id="base" d="M150,75c0,-41.394 -33.606,-75 -75,-75c-41.394,0 -75,33.606 -75,75c0,41.394 33.606,75 75,75c41.394,0 75,-33.606 75,-75Z" style="fill:#141414;"/><path id="outline" d="M144,75c0,-38.082 -30.918,-69 -69,-69c-38.082,0 -69,30.918 -69,69c0,38.082 30.918,69 69,69c38.082,0 69,-30.918 69,-69Z" style="fill:#e50914;"/><path id="core" d="M141,75c0,-36.426 -29.574,-66 -66,-66c-36.426,0 -66,29.574 -66,66c0,36.426 29.574,66 66,66c36.426,0 66,-29.574 66,-66Z" style="fill:#333;"/><clipPath id="_clip1"><path d="M141,75c0,-36.426 -29.574,-66 -66,-66c-36.426,0 -66,29.574 -66,66c0,36.426 29.574,66 66,66c36.426,0 66,-29.574 66,-66Z"/></clipPath><g clip-path="url(#_clip1)"><g id="escobar"><path d="M48.726,76.824c-0,-0 -2.063,6.046 -1.857,6.869c0.205,0.824 -0.103,1.467 0.54,2.264c0.643,0.797 0.514,1.209 0.926,2.058c0.411,0.848 1.234,1.774 1.749,2.469c0.514,0.694 1.517,1.517 1.774,2.083c0.258,0.566 0.283,1.981 0.283,1.981c0,-0 0.206,1.286 -0.797,1.003c-1.003,-0.283 -1.492,-0.592 -1.723,-0.592c-0.232,0 -1.904,-0.283 -1.286,0.695c0.617,0.977 1.26,1.363 1.8,1.697c0.54,0.335 0.875,0.798 1.029,1.441c0.154,0.643 1.415,1.775 1.698,1.903c0.282,0.129 0.926,0.283 1.903,0.412c0.977,0.128 1.106,0.334 1.492,0.025c0.386,-0.308 0.926,-0.823 1.029,-1.157c0.102,-0.334 8.898,-20.789 8.898,-20.789l-17.458,-2.362Z" style="fill:#856c5e;"/><path d="M53.739,155.614c0,-0 -0.128,-3.465 -0.102,-5.39c0.025,-1.925 0.462,-5.672 1.206,-8.804c0.744,-3.131 1.591,-6.313 1.283,-7.366c-0.308,-1.052 -0.462,-0.924 -0.949,-2.566c-0.488,-1.643 -1.001,-2.952 -1.027,-3.491c-0.026,-0.539 0.282,-4.979 0,-6.339c-0.282,-1.361 -0.667,-3.286 -0.667,-4.8c-0,-1.514 0.025,-5.903 0.539,-8.239c0.513,-2.335 2.284,-6.801 2.284,-6.801l1.854,-5.056l34.418,5.861l-0.468,11.309c0,0 -0.59,18.02 -1.257,21.123c-0.668,3.104 -0.95,10.367 -0.77,11.83c0.179,1.463 0.359,3.542 0.385,3.902c0.025,0.359 -36.729,4.827 -36.729,4.827Z" style="fill:#3e4f67;"/><path d="M54.692,79.777l-1.872,2.31c0,0 -5.034,-1.736 -5.063,-2.029c-0.029,-0.292 0.383,-2.738 0.53,-3.352c0.146,-0.615 0.906,-1.551 0.819,-2.516c-0.088,-0.965 -0.293,-1.638 -0.205,-2.164c0.088,-0.527 0.672,-1.784 0.672,-1.784c0,-0 1.785,-2.984 1.96,-3.656c0.176,-0.673 0.644,-3.218 0.702,-3.744c0.059,-0.527 0.527,-3.013 0.644,-4.095c0.117,-1.082 0.468,-2.778 0.585,-3.188c0.117,-0.409 2.193,-3.744 4.182,-5.733c1.989,-1.989 5.762,-5.674 5.762,-5.674c-0,0 4.504,-3.129 5.031,-3.802c0.526,-0.673 1.93,-2.749 2.252,-3.422c0.321,-0.673 0.672,-0.878 0.672,-0.878c2.134,0.097 16.555,5.324 16.555,5.324c-0,-0 1.375,0.927 3.364,2.116c1.988,1.189 2.105,2.827 3.041,4.113c0.936,1.287 0.849,6.318 0.995,7.225c0.146,0.907 0.76,5.352 0.965,6.99c0.205,1.638 0.497,9.096 0.585,10.968c0.088,1.872 0.673,8.395 0.819,9.477c0.146,1.082 0.146,8.716 -0,10.939c-0.146,2.222 -1.199,4.679 -1.813,6.346c-0.615,1.668 -3.072,4.534 -3.481,5.09c-0.409,0.555 -1.989,1.257 -1.989,1.257c0,0 -1.638,1.521 -6.318,0.702c-4.679,-0.819 -9.622,-2.281 -11.991,-3.188c-2.369,-0.906 -3.452,-0.936 -6.757,-2.018c-3.305,-1.082 -5.615,-1.93 -6.551,-2.603c-0.936,-0.673 -1.58,-1.492 -1.492,-2.983c0.088,-1.492 0.146,-2.837 0.79,-3.773c0.643,-0.936 1.345,-1.58 1.433,-3.013c0.088,-1.433 -0.146,-3.744 -0.468,-4.475c-0.322,-0.731 -1.901,-0.936 -2.194,-1.111c-0.292,-0.176 -2.164,-3.656 -2.164,-3.656Z" style="fill:#ced2da;"/><path d="M80.794,107.197c1.123,0.12 2.358,0.283 2.898,0.319c0.77,0.051 1.309,0.179 2.335,0.051c1.027,-0.128 2.644,-0.205 3.132,-0.411c0.487,-0.205 2.221,-1.103 2.342,-1.334c0.121,-0.231 0.583,-0.539 0.583,-0.539c0,-0 0.642,1.642 0.462,1.796c-0.179,0.154 -1.719,1.463 -2.771,1.797c-1.053,0.334 -1.848,0.693 -4.133,0.924c-1.607,0.163 -3.149,0.178 -4.709,0.049c0.157,-0.502 0.243,-0.996 0.185,-1.403c-0.07,-0.49 -0.198,-0.917 -0.324,-1.249Zm-1.9,2.443c-0.98,-0.098 -1.693,-0.17 -3.107,-0.43c-1.951,-0.36 -5.519,-1.284 -6.34,-1.54c-0.821,-0.257 -5.005,-1.515 -6.057,-2.156c-1.052,-0.642 -4.078,-3.106 -4.349,-3.388c0,-0 0.319,-1.925 0.987,-2.002c0.667,-0.077 2.746,1.412 2.951,1.617c0.206,0.205 3.285,1.668 4.466,2.104c1.181,0.437 2.464,1.258 3.876,1.566c1.411,0.308 3.721,0.924 4.748,1.129c0.984,0.197 2.062,0.441 3.257,0.529c0.3,0.621 0.504,1.088 -0.174,2.156c-0.092,0.146 -0.178,0.285 -0.258,0.415Z" style="fill:#242627;"/><path d="M95.068,30.933c0.364,-0.456 -0.492,-1.389 -1.004,-2.094c-0.513,-0.704 -0.897,-0.17 -0.598,-0.897c0.299,-0.726 0.619,-0.875 0.769,-1.345c0.149,-0.47 0.341,-1.367 0.021,-2.222c-0.32,-0.854 -1.282,-5.019 -1.752,-5.382c-0.469,-0.364 -0.854,-1.218 -2.947,-1.901c-2.093,-0.684 -6.045,-0.94 -7.049,-0.705c-1.004,0.235 -7.818,8.501 -7.818,8.501l-1.901,11.107c0,-0 1.367,3.118 1.837,3.823c0.47,0.705 4.678,6.387 5.105,7.156c0.428,0.769 2.179,4.122 2.606,4.72c0.427,0.598 2.931,3.456 2.931,3.456c0,0 -0.085,-6.023 -0.342,-7.326c-0.256,-1.303 0.701,-4.503 1.619,-5.378c0.919,-0.876 2.392,-2.521 3.674,-2.734c1.282,-0.214 2.542,-0.129 2.734,-1.197c0.195,-1.085 0.128,-2.627 0.235,-3.075c0.107,-0.449 0.534,-1.773 0.427,-2.094c-0.107,-0.32 -0.342,-0.384 -0.128,-0.854c0.214,-0.47 1.236,-1.128 1.581,-1.559Z" style="fill:#ab8c78;"/><path d="M89.877,35.888c0,0 -1.388,0.513 -0.94,-0.47c0.449,-0.982 1.325,-1.794 1.837,-2.114c0.513,-0.321 1.666,-0.855 2.393,-0.62c0.726,0.235 1.132,0.983 0.939,1.154c-0.192,0.171 -1.089,-0.064 -1.687,0.235c-0.598,0.299 -2.328,1.452 -2.542,1.815Z" style="fill:#312c2b;"/><path d="M92.312,18.95c0,-0 0.726,-1.132 0.406,-2.157c-0.32,-1.026 -0.448,-1.581 -1.26,-2.158c-0.812,-0.576 -4.101,-2.777 -4.827,-2.99c-0.727,-0.214 -0.641,-0.513 -2.371,-0.342c-1.731,0.171 -3.162,1.004 -3.995,1.047c-0.833,0.042 -2.072,0.042 -2.84,0.299c-0.769,0.256 -2.094,1.089 -3.098,1.709c-1.004,0.619 -1.495,0.811 -2.007,1.302c-0.513,0.492 -0.364,1.795 -1.026,2.35c-0.662,0.555 -2.413,1.517 -2.67,1.987c-0.256,0.469 -1.281,2.093 -0.982,2.755c0.299,0.662 1.068,1.623 0.94,1.922c-0.129,0.299 -1.303,1.923 -1.389,2.82c-0.085,0.897 0.62,3.097 0.577,3.759c-0.043,0.662 -0.854,0.961 -0.876,1.922c-0.021,0.962 0.641,2.393 0.641,2.393c-0,-0 1.751,0.021 2.777,0.512c1.025,0.492 2.178,1.346 2.584,1.581c0.406,0.235 0.925,0.659 0.925,0.659c-0,0 0.378,-2.816 0.805,-3.35c0.428,-0.534 1.111,-1.132 1.111,-1.752c0,-0.619 -0.427,-1.111 -0.737,-1.709c-0.31,-0.598 -1.164,-1.046 -0.651,-1.409c0.512,-0.363 1.345,-0.769 2.371,-0.385c1.025,0.385 2.541,1.004 2.969,1.538c0.427,0.534 1.239,1.645 1.239,1.41c-0,-0.235 0.405,-2.414 0.384,-3.354c-0.021,-0.939 -0.192,-1.751 0.555,-2.648c0.748,-0.897 1.367,-1.26 1.73,-1.859c0.364,-0.598 1.111,-2.52 0.513,-3.011c-0.598,-0.492 -1.132,-0.812 -1.388,-1.196c-0.257,-0.385 -0.662,-1.432 0.256,-1.859c0.919,-0.427 2.435,-0.256 2.99,-0.491c0.556,-0.235 0.513,-0.662 1.346,-0.705c0.833,-0.043 2.115,0.086 2.777,0.427c0.662,0.342 2.221,0.983 2.221,0.983Z" style="fill:#312c2b;"/></g></g></svg>