<?xml version="1.0" encoding="UTF-8" standalone="no"?><!DOCTYPE svg PUBLIC "-//W3C//DTD SVG 1.1//EN" "http://www.w3.org/Graphics/SVG/1.1/DTD/svg11.dtd"><svg width="100%" height="100%" viewBox="0 0 150 150" version="1.1" xmlns="http://www.w3.org/2000/svg" xmlns:xlink="http://www.w3.org/1999/xlink" xml:space="preserve" xmlns:serif="http://www.serif.com/" style="fill-rule:evenodd;clip-rule:evenodd;stroke-linejoin:round;stroke-miterlimit:2;"><path id="base" d="M150,75c0,-41.394 -33.606,-75 -75,-75c-41.394,0 -75,33.606 -75,75c0,41.394 33.606,75 75,75c41.394,0 75,-33.606 75,-75Z" style="fill:#141414;"/><path id="outline" d="M144,75c0,-38.082 -30.918,-69 -69,-69c-38.082,0 -69,30.918 -69,69c0,38.082 30.918,69 69,69c38.082,0 69,-30.918 69,-69Z" style="fill:#e50914;"/><path id="core" d="M141,75c0,-36.426 -29.574,-66 -66,-66c-36.426,0 -66,29.574 -66,66c0,36.426 29.574,66 66,66c36.426,0 66,-29.574 66,-66Z" style="fill:#333;"/><clipPath id="_clip1"><path d="M141,75c0,-36.426 -29.574,-66 -66,-66c-36.426,0 -66,29.574 -66,66c0,36.426 29.574,66 66,66c36.426,0 66,-29.574 66,-66Z"/></clipPath><g clip-path="url(#_clip1)"><g id="exotic"><g><path d="M19.829,147.885c-0,0 -0,-31.808 1.186,-32.347c1.186,-0.539 14.664,-7.009 17.791,-8.303c3.127,-1.294 13.154,-6.577 13.154,-6.577c0,0 3.666,0.108 9.92,-0.647c6.254,-0.755 15.203,-1.078 19.624,-1.186c4.421,-0.108 15.203,0.108 15.203,0.108c0,-0 1.294,-1.51 4.96,-0.539c3.666,0.97 15.095,4.205 18.546,5.391c3.45,1.186 16.928,5.715 16.928,5.715l0.431,39.032l-117.743,-0.647Z" style="fill:#63233d;"/><path d="M41.323,73.988c-1.642,1.88 -4.509,5.33 -4.181,7.891c0.329,2.561 0.723,1.379 -0.197,3.874c-0.919,2.495 -1.313,2.298 -1.904,6.172c-0.591,3.875 -0.722,5.319 -0.722,5.319c-0,0 -0.788,0.591 -3.284,3.087c-2.167,2.167 -1.97,2.758 -2.758,4.662c-0.788,1.904 -1.116,3.743 -1.116,3.743c0,-0 0.328,1.379 2.43,3.152c2.101,1.773 3.48,2.167 3.546,2.823c0.065,0.657 1.116,1.576 -0,1.97c-1.117,0.394 -3.021,1.182 -3.349,1.97c-0.329,0.788 -1.314,3.349 1.51,2.299c2.824,-1.051 2.955,-0.854 4.203,-1.905c1.247,-1.05 0.656,-1.444 2.298,-1.97c1.642,-0.525 2.561,-0.722 3.218,-0.985c0.656,-0.262 4.202,-1.379 5.056,-1.904c0.853,-0.525 2.495,-1.576 2.823,-3.021c0.329,-1.444 0.394,-1.838 0.46,-3.349c0.066,-1.51 0.46,-0.787 0.197,-2.56c-0.263,-1.773 3.365,-3.671 3.825,-4.197c0.46,-0.525 -10.413,-28.95 -12.055,-27.071Z" style="fill:#beb499;"/><path d="M106.063,75.194c0,-0 -6.5,21.459 -6.106,22.874c0.394,1.416 3.704,4.561 4.361,5.218c0.657,0.656 2.036,1.05 2.758,2.101c0.722,1.051 1.576,2.561 1.576,2.561c-0,-0 0.065,1.904 -0.132,2.955c-0.197,1.05 -0.197,2.035 -0.328,3.02c-0.131,0.985 0.263,4.663 0.263,4.663c-0,-0 -0.329,1.155 1.51,2.613c1.839,1.458 2.364,2.706 3.612,2.837c1.247,0.131 -0.197,0.131 2.167,0.197c2.364,0.065 4.005,-0 4.005,-0c0,-0 3.152,-1.313 4.006,-1.248c0.853,0.066 0.788,-0.591 1.05,-2.495c0.263,-1.904 -0.197,-2.298 0.132,-3.349c0.328,-1.051 1.247,-2.233 1.97,-2.758c0.722,-0.525 1.838,-1.051 2.692,-1.51c0.854,-0.46 3.528,-1.257 3.528,-1.257l-1.558,-2.88c0,-0 -0.46,-0.197 -2.824,0.656c-2.364,0.854 -1.51,1.182 -3.808,0.723c-2.298,-0.46 -3.152,-1.314 -4.137,-2.561c-0.985,-1.248 -1.51,-4.925 -2.167,-6.041c-0.657,-1.117 -1.116,-1.708 -1.642,-2.102c-0.525,-0.394 -0.722,-0.073 -1.247,-1.087c-0.526,-1.014 -1.314,-3.772 -1.379,-5.02c-0.066,-1.247 -0,-2.232 -0.066,-3.086c-0.066,-0.853 -0.197,-3.874 -0.525,-5.778c-0.329,-1.905 -0.066,-2.693 -1.117,-3.809c-1.05,-1.116 -1.707,-1.707 -2.232,-2.43c-0.526,-0.722 -4.362,-3.007 -4.362,-3.007Z" style="fill:#beb499;"/><path d="M66.166,144.129l-2.758,-5.45c0,0 -2.692,-5.975 -3.48,-7.092c-0.788,-1.116 -3.414,-7.223 -3.414,-7.223c-0,0 -1.182,-10.309 -1.708,-12.017c-0.525,-1.707 -0.788,-8.142 -1.576,-9.849c-0.788,-1.708 -1.838,-1.905 -2.364,-4.269c-0.525,-2.364 -0.722,-2.955 -0.919,-4.071c-0.197,-1.116 -0.722,-1.051 -0.722,-1.051c-0,0 0.459,1.445 -0.394,0.92c-0.854,-0.526 -1.248,-0.854 -1.839,-1.773c-0.591,-0.92 -2.43,-2.495 -2.889,-3.612c-0.46,-1.116 -2.758,-6.107 -2.758,-6.107c-0,0 -1.773,-5.155 -1.839,-7.535c-0.065,-2.38 -0.197,-4.678 -0.525,-5.401c-0.328,-0.722 -1.51,-3.743 0.131,-3.152c1.642,0.591 19.729,-26.716 19.729,-26.716c-0,0 37.108,5.583 38.619,7.224c1.51,1.642 9.616,16.997 10.666,17.194c1.051,0.197 1.708,0.657 1.314,1.773c-0.394,1.116 -0.394,4.662 -0.788,5.516c-0.394,0.854 -0.394,3.053 -0.394,3.562c-0,0.509 -0,3.727 -0.657,5.631c-0.656,1.904 -0.394,4.268 -1.05,5.844c-0.657,1.576 0.656,2.496 -1.248,3.415c-1.904,0.919 -1.707,1.444 -2.561,0.854c-0.854,-0.591 -0.394,1.51 -0.854,3.348c-0.459,1.839 -0.959,3.967 -0.706,5.29c0.312,1.628 0.509,1.343 0.641,2.984c0.131,1.642 0.394,3.94 0.197,4.991c-0.197,1.05 -0.723,3.874 -1.182,5.778c-0.46,1.905 -0.92,4.728 -1.773,6.304c-0.854,1.576 -2.89,7.749 -3.678,9.719c-0.788,1.97 -2.232,4.662 -3.217,7.551c-0.985,2.89 -1.619,5.213 -1.619,5.213l-24.385,2.207Z" style="fill:#d37b66;"/><path d="M67.5,112.5l-6,-1.5c0,0 -0.726,-6.74 0,-9c0.726,-2.26 3.591,-8.496 6,-10.5c2.409,-2.004 5.039,-3.713 7.5,-4.5c2.461,-0.787 6.74,-0.854 9,0c2.26,0.854 5.911,4.296 7.5,7.5c1.589,3.204 3.426,8.714 3,12c-0.426,3.286 0.053,7.183 -1.5,7.5c-1.553,0.317 -4.099,0.799 -4.5,0c-0.401,-0.799 0,-3 0,-3l3,-3c0,0 -0.76,-12.304 -3,-13.5c-2.24,-1.196 -5.89,-1.739 -10.5,-1.5c-4.61,0.239 -9.737,1.887 -10.621,3.197c-0.884,1.31 -2.793,8.441 -1.379,11.803c1.414,3.362 1.5,4.5 1.5,4.5Z" style="fill:#5a574b;"/><path d="M39,51c0.078,3.558 -0.336,3.425 0,6.658c0.336,3.234 0.675,2.832 0,5.342c-0.681,2.534 -0.827,2.881 -0.404,3.487c0.157,0.225 1.049,0.869 1.049,0.869c-0,0 0,1.178 0.855,1.644c1.592,0.868 3.971,2.73 3.971,2.73l4.241,3.27c0,0 1.257,-9.607 0.788,-10.5c-0.469,-0.893 0,-6.842 0,-6.842c0,0 0.598,-0.984 0,-3.658c-0.598,-2.674 -10.578,-6.558 -10.5,-3Z" style="fill:#5a574b;"/><path d="M106.5,51c-0.849,-1.354 -8.439,4.188 -7.425,6.658c1.015,2.471 0.757,3.702 1.047,5.99c0.29,2.287 2.095,7.349 2.095,7.349c-0,-0 2.586,-3.661 3.754,-4.684c1.168,-1.022 3,-1.5 3,-1.5l1.501,-1.5c-0,0 0.164,-5.01 -0.971,-5.655c-1.135,-0.644 -0.186,-2.406 -1.501,-3.658c-1.315,-1.252 -0.651,-1.646 -1.5,-3Z" style="fill:#5a574b;"/><path d="M67.5,19.5c0,0 -8.348,0.647 -10.5,1.5c-2.152,0.853 -3.644,2.303 -6,3c-2.356,0.697 -5.663,5.254 -7.5,7.5c-1.837,2.246 -3.285,3.964 -4.5,7.5c-1.215,3.536 -1.139,5.647 -1.5,7.5c-0.361,1.853 -1.319,4.459 0,6c1.319,1.541 2.537,0.942 6,1.5c3.463,0.558 4.623,2.936 8.601,1.813c3.978,-1.122 4.759,-1.381 4.759,-1.381c-0,-0 1.868,-3.251 3,-4.5c1.131,-1.249 1.5,-3 1.5,-3l3,4.5l1.5,-0l1.5,-3l1.5,-0c-0,-0 -0.507,1.096 1.5,3c2.007,1.904 1.278,2.027 3,3c1.721,0.973 3,1.5 3,1.5c-0,-0 0.815,0.501 3,-1.5c2.185,-2.001 3,-4.5 3,-4.5c-0,-0 -0.607,-2.268 -0,-1.5c0.607,0.768 3,6 3,6l3,3c-0,-0 2.473,-1.102 3,-1.5c0.526,-0.398 1.5,-1.5 1.5,-1.5l3,3l3,-0l1.5,-1.5c-0,-0 1.231,1.212 1.64,1.068c2.514,-0.886 4.5,-3 4.5,-3l3,-3c0,0 -0.029,-2.992 0,-4.5c0.029,-1.508 -1.09,-4.029 -1.5,-6c-0.41,-1.971 0.098,-7.109 -3,-9c-3.098,-1.891 -6.37,-4.707 -9,-7.5c-2.63,-2.793 -7.5,-4.5 -7.5,-4.5c0,0 -11.963,-1.346 -13.5,-1.5c-1.537,-0.154 -7.5,1.5 -7.5,1.5Z" style="fill:#beb499;"/></g></g></g></svg>