<?xml version="1.0" encoding="UTF-8" standalone="no"?><!DOCTYPE svg PUBLIC "-//W3C//DTD SVG 1.1//EN" "http://www.w3.org/Graphics/SVG/1.1/DTD/svg11.dtd"><svg width="100%" height="100%" viewBox="0 0 150 150" version="1.1" xmlns="http://www.w3.org/2000/svg" xmlns:xlink="http://www.w3.org/1999/xlink" xml:space="preserve" xmlns:serif="http://www.serif.com/" style="fill-rule:evenodd;clip-rule:evenodd;stroke-linejoin:round;stroke-miterlimit:2;"><path id="base" d="M150,75c0,-41.394 -33.606,-75 -75,-75c-41.394,0 -75,33.606 -75,75c0,41.394 33.606,75 75,75c41.394,0 75,-33.606 75,-75Z" style="fill:#141414;"/><path id="outline" d="M144,75c0,-38.082 -30.918,-69 -69,-69c-38.082,0 -69,30.918 -69,69c0,38.082 30.918,69 69,69c38.082,0 69,-30.918 69,-69Z" style="fill:#e50914;"/><path id="core" d="M141,75c0,-36.426 -29.574,-66 -66,-66c-36.426,0 -66,29.574 -66,66c0,36.426 29.574,66 66,66c36.426,0 66,-29.574 66,-66Z" style="fill:#333;"/><clipPath id="_clip1"><path d="M141,75c0,-36.426 -29.574,-66 -66,-66c-36.426,0 -66,29.574 -66,66c0,36.426 29.574,66 66,66c36.426,0 66,-29.574 66,-66Z"/></clipPath><g clip-path="url(#_clip1)"><g id="fujika"><path d="M33.241,103.766c-0,-0 -0.697,-2.594 -0.961,-3.411c-0.264,-0.817 -0.601,-2.09 -0.625,-2.906c-0.024,-0.817 0.121,-1.201 -0.288,-1.706c-0.408,-0.504 -1.705,-1.128 -2.354,-1.657c-0.648,-0.528 -3.194,-2.402 -3.602,-2.714c-0.409,-0.312 -1.634,-1.321 -2.138,-1.729c-0.504,-0.408 -1.945,-1.561 -1.729,-2.57c0.216,-1.009 0.984,-2.57 0.984,-2.57c0,-0 -0.048,-1.729 -0.072,-2.306c-0.024,-0.576 -0.096,-2.906 -0.192,-3.795c-0.096,-0.888 -0.72,-2.546 -0.672,-2.954c0.048,-0.408 0.432,-1.105 0.624,-1.297c0.192,-0.192 0.817,-1.513 0.817,-1.513c-0,-0 0.744,-1.585 1.201,-2.114c0.456,-0.528 0.624,-0.984 1.273,-1.105c0.648,-0.12 2.33,-0.288 2.69,0.073c0.36,0.36 0.624,0.264 0.816,0.72c0.193,0.456 -0.072,0.625 -0.048,0.889c0.024,0.264 -0.288,0.096 0.289,0.264c0.576,0.168 1.345,0.528 1.513,0.72c0.168,0.193 0.456,0.721 0.96,0.913c0.505,0.192 1.273,0.384 1.273,0.384c0,0 0.505,0.145 0.769,0.481c0.264,0.336 0.6,0.913 0.961,1.393c0.36,0.48 0.648,0.72 1.009,1.225c0.36,0.504 0.864,1.081 1.2,1.489c0.337,0.408 1.153,0.817 1.225,1.201c0.072,0.384 0.409,1.945 0.529,2.426c0.12,0.48 0.288,1.249 0.456,1.753c0.168,0.504 0.504,1.946 0.553,2.426c0.048,0.48 0.24,2.089 0.24,2.474c-0,0.384 0.096,1.873 0.168,2.33c0.072,0.456 0.192,1.369 0.288,1.753c0.096,0.384 0.408,1.825 0.528,2.306c0.121,0.48 0.385,1.321 0.457,1.681c0.072,0.36 0.264,3.05 0.144,3.338c-0.12,0.289 -7.462,6.159 -7.462,6.159l-0.824,-2.051Zm-4.372,-28.294c0,0 0.265,0.649 0.721,1.057c0.456,0.408 1.009,0.937 1.009,0.937l0.72,0.048l0.192,-0.577c0,0 -0.264,-0.408 -0.672,-0.744c-0.409,-0.337 -0.601,-0.697 -0.937,-0.745c-0.336,-0.048 -1.033,0.024 -1.033,0.024Z" style="fill:#6a5145;"/><path d="M24.536,72.998l-7.844,-1.777l-1.993,-0.649l0.192,-1.441l1.705,0.288c-0,0 5.332,1.153 5.62,1.225c0.288,0.072 3.411,0.913 3.411,0.913l0.373,0.082c0.034,0.012 0.07,0.025 0.107,0.038c1.081,0.384 0.673,0.24 1.153,0.36c0.293,0.074 0.845,0.129 1.341,0.172l3.271,0.717c-0,0 -0.313,0.24 -0.289,0.769c0.024,0.528 -0.048,0.888 -0.048,0.888l-0.715,-0.162c0.102,-0.254 0.163,-0.534 0.163,-0.534c-0,-0 -0.456,-0.649 -0.745,-0.865c-0.288,-0.216 -1.201,-0.24 -1.633,-0.36c-0.432,-0.12 -1.777,-0.168 -2.186,-0.168c-0.408,-0 -1.681,0.288 -1.681,0.288c0,0 -0.081,0.088 -0.202,0.216Z" style="fill:#838897;"/><path d="M52.938,36.474c0,-0 11.763,21.528 12.466,21.787c0.703,0.259 3.335,8.336 3.483,9.409c0.148,1.073 3.952,4.869 6.43,5.202c2.478,0.332 14.093,-17.644 14.13,-18.162c0.037,-0.518 0.427,-24.875 -0.37,-26.263c-3.839,-6.68 -36.827,6.436 -36.139,8.027Z" style="fill:#745649;"/><path d="M32.268,100.201c0,-0 -1.231,2.733 -2.072,3.484c-0.841,0.751 -3.455,3.665 -3.455,3.665l1.983,3.214l1.815,2.974c3.789,6.553 5.843,13.749 13.16,18.995l17.062,16.308c24.687,-3.76 32.698,0.14 54.34,-13.805l-34.821,-65.149c0,0 -1.741,0.246 -3.08,0.731c-1.821,0.659 -4.299,-0.472 -5.058,-1.046c-0.88,-0.665 -2.13,-3.39 -2.139,-3.611c-0.024,-0.606 -1.141,-2.535 -1.748,-2.934c-0.456,-0.3 -1.916,4.239 -1.916,4.239l-17.574,50.927l-6.234,-17.387c-0,-0 -0.099,-1.916 -0.257,-2.093c-0.158,-0.178 -0.276,-0.237 -0.296,-0.612c-0.02,-0.375 -0.079,-0.79 -0.217,-1.382c-0.139,-0.593 -0.356,-0.948 -0.356,-0.948c0,-0 -0.138,0.711 -0.177,0.987c-0.04,0.277 -0.04,0.474 -0.158,0.711c-0.119,0.237 -1.086,1.619 -1.303,1.816c-0.218,0.198 -1.501,1.422 -1.797,1.797c-0.296,0.375 -1.817,1.54 -2.132,1.836c-0.316,0.296 -1.698,1.343 -1.698,1.343c-0,-0 -0.375,-0.474 -0.612,-0.948c-0.237,-0.474 -0.691,-1.56 -0.751,-1.757c-0.059,-0.198 -0.509,-1.355 -0.509,-1.355" style="fill:#726f77;"/><path d="M29.718,112.194c0,0 -0.379,1.283 -0.525,1.954c-0.146,0.671 -0.904,2.216 -0.846,2.829c0.059,0.612 -0.058,1.341 0.146,1.546c0.204,0.204 0.7,0.554 1.05,1.079c0.35,0.525 1.342,1.516 1.779,2.099c0.438,0.584 1.808,1.925 2.333,2.508c0.525,0.584 2.625,2.479 2.887,2.858c0.263,0.38 1.079,1.779 1.604,2.392c0.525,0.612 1.05,1.808 1.254,2.158c0.205,0.35 14.64,7.641 14.64,7.641c0,-0 0.438,-0.817 0.525,-1.342c0.088,-0.525 0.555,-1.954 0.729,-2.683c0.175,-0.729 0.934,-3.033 1.4,-4.491c0.467,-1.458 1.284,-3.616 1.517,-4.52c0.233,-0.904 3.645,-7.554 3.908,-8.195c0.262,-0.642 1.487,-3.675 1.866,-4.433c0.379,-0.758 3.004,-7.991 3.092,-8.72c0.087,-0.729 -0.03,-1.487 0.204,-2.508c0.233,-1.021 0.379,-3.616 0.379,-4.287c-0,-0.671 -0.933,-6.124 -0.933,-6.533c-0,-0.408 -0,-1.37 0.116,-2.566c0.117,-1.196 0.029,-3.5 0.175,-4.9c0.146,-1.399 -0.116,-2.07 0,-3.295c0.117,-1.225 0,-3.296 0.059,-3.675c0.058,-0.379 0.262,-2.42 0.262,-3.033c0,-0.612 -0.146,-1.137 -0.233,-1.487c-0.088,-0.35 -0.671,-2.421 -0.438,-3.208c0.234,-0.787 0.146,-1.05 0.292,-1.662c0.146,-0.613 0.379,-1.342 0.525,-1.925c0.146,-0.583 -0.7,-1.225 -0.7,-1.225c-0,0 -0.35,-0.175 -0.817,0.496c-0.466,0.671 -0.641,1.4 -1.02,2.216c-0.38,0.817 -0.438,0.7 -0.875,1.488c-0.438,0.787 -0.234,1.079 -1.05,1.604c-0.817,0.525 -1.138,0.904 -2.071,1.399c-0.933,0.496 -1.283,0.875 -1.866,0.992c-0.584,0.117 -2.742,0.817 -3.325,1.079c-0.583,0.262 -1.808,0.233 -2.42,0.612c-0.613,0.38 -1.313,1.284 -1.634,2.1c-0.32,0.817 -0.758,3.558 -0.758,4.929c0,1.371 -0.087,2.012 -0.146,2.829c-0.058,0.816 -0.175,1.925 -0.554,2.77c-0.379,0.846 -0.7,2.129 -0.787,2.887c-0.088,0.759 -0.146,2.246 -0.175,2.8c-0.029,0.554 0.029,0.671 -0.35,0.933c-0.379,0.263 -0.671,0.7 -0.729,1.809c-0.059,1.108 -0.117,2.216 -0.029,2.712c0.087,0.495 0.379,1.604 0.845,2.274c0.467,0.671 0.7,0.555 0.788,1.08c0.087,0.524 0.35,0.845 -0,1.37c-0.35,0.525 -0.875,1.313 -1.254,1.721c-0.379,0.408 -1.342,1.575 -1.167,2.508c0.175,0.933 0.613,0.612 0.904,1.371c0.292,0.758 0.904,1.224 0.788,1.487c-0.117,0.262 -0.175,0.204 -0.642,0.058c-0.467,-0.146 -1.196,-0.262 -1.458,-0.875c-0.263,-0.612 -1.079,-2.216 -1.487,-3.091c-0.409,-0.875 -0.905,-2.158 -1.254,-2.829c-0.35,-0.671 -0.992,-1.75 -1.196,-2.041c-0.204,-0.292 -0.379,-0.671 -0.379,-0.671c-0,-0 -0.204,2.246 -0.204,2.596c-0,0.349 -0.525,1.545 -0.73,2.158c-0.204,0.612 -0.904,1.691 -1.429,2.595c-0.525,0.904 -1.545,2.654 -2.041,3.354c-0.496,0.7 -1.808,2.683 -2.391,3.208c-0.584,0.525 -2.975,2.887 -2.975,2.887c-0,0 -0.7,-1.458 -1.021,-2.041c-0.321,-0.584 -1.487,-2.333 -2.158,-3.15Zm94.141,8.388c0.149,1.004 -10.343,12.467 -16.333,14.272c0,0 -4.374,0.379 -4.841,-0.117c-0.466,-0.495 -5.891,-8.428 -6.591,-9.39c-0.7,-0.963 -5.045,-8.633 -5.512,-9.187c-0.466,-0.554 -3.499,-8.166 -3.878,-9.595c-0.38,-1.429 -2.304,-11.869 -2.392,-13.036c-0.087,-1.166 -0.991,-7.932 -0.875,-9.478c0.117,-1.545 -0.35,-4.228 -0.35,-4.228c0,-0 -1.633,-2.538 -2.129,-2.975c-0.495,-0.438 -2.012,-3.733 -2.304,-4.491c-0.291,-0.759 -0.35,-2.713 -0.175,-3.967c0.175,-1.254 3.063,-4.374 3.529,-5.191c0.467,-0.816 1.663,-2.479 2.1,-3.266c0.437,-0.787 1.954,-2.391 1.954,-2.391c-0,-0 14.057,0.087 14.203,0.729c0.145,0.641 -0.234,0.816 -0.205,1.137c0.03,0.321 -0.204,2.946 -0.204,2.946c0,-0 0.671,0.35 1.429,0.408c0.759,0.058 1.546,0.379 3.675,0.846c2.129,0.466 2.362,0.816 3.354,0.941c0.991,0.126 0.379,-0.475 1.633,-0.562c1.254,-0.088 1.779,0.612 3.354,0.562c1.575,-0.049 3.062,0.604 4.17,1.129c1.108,0.525 2.217,1.867 2.654,2.362c0.437,0.496 1.342,2.859 1.342,2.859c-0,-0 0.641,0.32 1.574,0.758c0.934,0.437 2.508,0.845 2.888,1.4c0.379,0.554 2.07,1.837 2.478,2.333c0.409,0.495 0.671,1.924 0.963,2.566c0.291,0.642 0.816,0.817 1.371,1.254c0.554,0.438 1.516,0.7 2.741,0.817c1.225,0.116 1.371,0.583 1.808,0.787c0.437,0.204 0.846,1.779 1.196,2.304c0.35,0.525 0.466,1.342 0.758,1.721c0.292,0.379 0.35,1.312 0.671,1.662c0.321,0.35 1.75,0.087 2.274,0.233c0.525,0.146 2.771,1.021 2.771,1.021c1.206,10.65 -8.759,23.601 -9.428,23.117c-0.67,-0.484 -1.414,-1.302 -2.046,-1.823c-0.633,-0.521 -1.377,-2.12 -2.121,-2.902c-0.744,-0.781 -1.376,-1.674 -1.674,-1.897c-0.298,-0.223 -1.637,-0.893 -1.637,-0.893c0,0 -0.707,6.585 -0.818,7.217c-0.112,0.633 -0.707,4.465 -0.893,5.134c-0.186,0.67 -0.633,3.87 -0.484,4.874Z" style="fill:#8c90a0;"/><path d="M59.807,42.439l1.595,-0.363c0,0 0.181,1.523 0.689,2.465c0.507,0.943 1.812,2.683 2.755,3.045c0.942,0.363 2.936,0.689 4.531,0.181c1.595,-0.507 3.299,-1.957 3.77,-2.754c0.471,-0.798 1.196,-2.175 1.123,-3.19c-0.072,-1.015 -0.434,-2.828 -0.434,-2.828c-0,0 1.123,-0.435 1.884,-0.507c0.762,-0.073 1.777,-0.073 1.994,0.036c0.218,0.109 -0.362,0.834 -0.109,1.704c0.254,0.87 0.725,2.102 1.523,2.9c0.797,0.797 1.124,1.486 2.537,1.993c1.414,0.508 3.263,0.544 4.386,0.145c1.124,-0.398 2.03,-1.341 2.03,-1.341l0.073,-0.834c-0,0 -0.327,0.58 -0.979,0.979c-0.652,0.399 -1.704,1.051 -3.045,0.943c-1.341,-0.109 -2.9,-0.218 -3.842,-1.342c-0.943,-1.123 -1.486,-1.703 -1.631,-2.755c-0.145,-1.051 -0.472,-1.558 -0.218,-2.392c0.254,-0.834 0.761,-1.812 1.45,-2.284c0.689,-0.471 1.414,-1.232 2.755,-1.232c1.341,-0 3.407,0.072 3.77,0.181c0.362,0.109 0.072,-0.58 0.072,-0.58c0,0 -4.132,-0.072 -8.627,0.508c-4.495,0.58 -9.606,1.558 -11.346,1.921c-1.74,0.362 -4.205,2.066 -4.531,2.719c-0.326,0.652 -0.58,1.377 -0.58,1.377l-2.102,0.471l0.507,0.834Zm2.139,-0.653c-0,0 -0.036,-0.652 0.29,-1.341c0.326,-0.688 0.616,-1.341 1.559,-1.74c0.942,-0.398 2.791,-1.196 3.407,-1.232c0.616,-0.036 3.226,-0.036 3.48,0.072c0.254,0.109 1.45,0.798 1.921,1.233c0.471,0.435 0.979,1.957 1.015,2.827c0.036,0.87 -0.689,3.299 -1.414,3.843c-0.725,0.543 -2.646,1.848 -3.48,2.029c-0.833,0.182 -3.044,0.073 -3.661,-0.29c-0.616,-0.362 -1.522,-1.087 -2.03,-1.631c-0.507,-0.543 -0.906,-1.703 -0.978,-2.211c-0.073,-0.507 -0.073,-1.051 -0.109,-1.559Zm7.975,-4.893c-0,-0 2.61,-0.508 5.002,-0.834c2.392,-0.326 5.872,-0.797 5.872,-0.797c0,-0 -1.377,0.761 -1.885,1.45c-0.507,0.688 -0.797,1.196 -0.797,1.196c-0,-0 -0.399,-0.363 -2.03,-0.218c-1.631,0.145 -2.719,0.689 -2.719,0.689c0,0 -0.725,-0.652 -1.45,-0.906c-0.725,-0.254 -1.993,-0.58 -1.993,-0.58Z" style="fill:#a08876;"/><path d="M68.461,16.116c-0.31,0.038 -1.799,-0.29 -2.843,-0.174c-1.045,0.116 -4.99,1.702 -5.996,2.533c-1.005,0.832 -4.914,6.506 -5.981,8.957c-1.067,2.45 -2.174,7.47 -2.648,9.13c-0.475,1.66 -2.174,10.157 -2.885,12.41c-0.712,2.253 -2.056,6.166 -3.004,8.656c-0.949,2.49 -1.265,4.813 -0.395,6.521c0.869,1.708 4.347,3.447 7.272,4.198c2.925,0.751 6.482,1.739 8.26,0.909c1.779,-0.83 4.881,-3.026 6.386,-3.582c1.586,-0.586 1.456,-3.584 0.294,-6.022c-0.591,-1.238 -1.897,-2.608 -2.174,-3.004c-0.277,-0.395 -0.988,-1.422 -1.344,-2.766c-0.356,-1.344 -0.118,-2.925 -0.553,-4.071c-0.435,-1.146 -0.791,-1.502 -1.304,-2.411c-0.514,-0.909 -0.712,-1.62 -1.068,-2.332c-0.355,-0.711 -0.672,-0.909 -0.632,-1.818c0.04,-0.909 0.435,-2.253 0.435,-2.253c-0,0 0.672,-0.593 0.751,-1.344c0.079,-0.75 0.395,-1.343 0.395,-1.343c-0,-0 1.699,-0.909 2.45,-1.463c0.751,-0.553 1.818,-1.106 2.056,-1.502c0.237,-0.395 0.553,-0.751 1.027,-0.948c0.474,-0.198 0.158,-0.079 1.225,-0.079c1.068,-0 1.384,0.237 2.056,-0.04c0.672,-0.276 1.027,-0.039 1.581,-0.869c0.553,-0.83 1.027,-1.818 1.027,-1.818l0.909,1.778c0,0 0.152,0.237 1.242,0c1.09,-0.237 0.813,0.04 1.762,-0.355c0.949,-0.396 0.632,-1.819 0.632,-1.819l0.988,1.028l0.751,-0.119l0.198,-2.727c0,0 1.028,1.621 1.7,2.293c0.671,0.672 0.079,0.514 1.462,0.79c1.383,0.277 1.937,0.316 1.937,0.316c-0,0 0.869,0.317 1.146,0.593c0.276,0.277 0.276,1.423 0.474,2.253c0.198,0.83 0.119,1.304 0.356,2.095c0.237,0.79 0.593,1.146 0.751,1.857c0.158,0.712 0.592,2.214 0.632,2.886c0.04,0.672 0.119,3.043 0.079,3.557c-0.039,0.514 0.198,5.533 -0.158,6.679c-0.356,1.146 -0.198,2.134 -0.553,2.648c-0.356,0.514 -1.028,0.593 -0.949,1.463c0.079,0.869 0.237,1.897 0.751,3.003c0.514,1.107 0.83,3.083 1.265,3.399c0.435,0.317 0.553,1.305 2.134,0.672c1.581,-0.632 1.541,-0.672 2.925,-1.264c1.383,-0.593 3.438,-1.502 4.11,-2.016c0.672,-0.514 3.399,-2.806 3.992,-3.36c0.593,-0.553 1.186,-2.648 0.988,-3.912c-0.197,-1.265 -1.699,-6.878 -1.976,-7.826c-0.277,-0.949 -3.715,-6.877 -4.427,-7.865c-0.711,-0.988 -4.308,-7.154 -5.454,-9.091c-1.146,-1.936 -4.268,-6.521 -5.533,-7.667c-1.265,-1.146 -5.771,-4.032 -6.917,-4.427c-1.146,-0.395 -4.268,-1.383 -5.414,-1.304c-1.147,0.079 -2.451,0.356 -2.925,0.593c-0.474,0.237 -0.957,0.335 -1.266,0.374Z" style="fill:#191820;"/></g></g></svg>