<?xml version="1.0" encoding="UTF-8" standalone="no"?><!DOCTYPE svg PUBLIC "-//W3C//DTD SVG 1.1//EN" "http://www.w3.org/Graphics/SVG/1.1/DTD/svg11.dtd"><svg width="100%" height="100%" viewBox="0 0 150 150" version="1.1" xmlns="http://www.w3.org/2000/svg" xmlns:xlink="http://www.w3.org/1999/xlink" xml:space="preserve" xmlns:serif="http://www.serif.com/" style="fill-rule:evenodd;clip-rule:evenodd;stroke-linejoin:round;stroke-miterlimit:2;"><path id="base" d="M150,75c0,-41.394 -33.606,-75 -75,-75c-41.394,0 -75,33.606 -75,75c0,41.394 33.606,75 75,75c41.394,0 75,-33.606 75,-75Z" style="fill:#141414;"/><path id="outline" d="M144,75c0,-38.082 -30.918,-69 -69,-69c-38.082,0 -69,30.918 -69,69c0,38.082 30.918,69 69,69c38.082,0 69,-30.918 69,-69Z" style="fill:#e50914;"/><path id="core" d="M141,75c0,-36.426 -29.574,-66 -66,-66c-36.426,0 -66,29.574 -66,66c0,36.426 29.574,66 66,66c36.426,0 66,-29.574 66,-66Z" style="fill:#333;"/><clipPath id="_clip1"><path d="M141,75c0,-36.426 -29.574,-66 -66,-66c-36.426,0 -66,29.574 -66,66c0,36.426 29.574,66 66,66c36.426,0 66,-29.574 66,-66Z"/></clipPath><g clip-path="url(#_clip1)"><g id="rick"><path d="M86.175,94.029c-0,0 -2.435,2.34 -5.614,2.869c-3.178,0.53 -5.501,0.278 -6.716,-0.937l-1.915,2.028c-2.164,16.382 2.553,30.669 8.07,44.713l23.152,-6.138c-2.204,-13.931 0.118,-27.674 -15.362,-42.158l-1.615,-0.377Z" style="fill:#9de7ea;"/><path d="M58.439,139.692c0.043,-0.276 -1.234,-1.734 -1.528,-2.499c-0.294,-0.764 -0.353,-3.88 -0.412,-4.879c-0.058,-1 0.559,-12.023 0.529,-12.993c-0.029,-0.97 0.236,-10.405 0.236,-11.846c-0,-1.44 0.058,-4.379 0.47,-5.526c0.411,-1.146 1.323,-3.586 3.351,-4.056c2.028,-0.47 7.29,-1.529 8.759,-1.793c1.47,-0.265 4.141,-0.471 4.141,-0.471c0,-0 -0.437,1.117 -0.496,2.381c-0.058,1.264 -0.205,3.881 0.089,6.144c0.293,2.263 1.263,6.026 1.381,7.26c0.118,1.235 1.705,7.437 1.911,8.29c0.205,0.852 1.675,6.143 2.057,7.436c0.382,1.294 2.117,6.82 2.411,8.701c0.294,1.881 1.058,5.35 1.058,5.35c-0.574,2.978 -24.549,2.294 -23.957,-1.499Zm50.719,-7.125c-2.675,1.396 -5.449,2.516 -8.332,3.333c0,-0 -0.882,-4.468 -1.352,-6.379c-0.47,-1.91 -2.998,-11.317 -3.762,-13.521c-0.765,-2.205 -4.38,-12.64 -5.321,-14.433c-0.94,-1.793 -4.26,-7.849 -4.26,-7.849c0,0 1.203,-0.264 1.762,-0.322c0.558,-0.059 7.73,-0.471 8.789,-0.588c1.058,-0.118 5.614,-0.647 6.261,-0.324c0.646,0.324 1.45,0.756 1.981,1.621c0.53,0.866 3.741,6.59 4.16,7.455c0.419,0.866 3.434,7.036 4.3,8.405c0.865,1.368 4.551,7.455 5.193,8.739c0.642,1.284 2.988,4.886 2.988,4.886c-3.168,2.97 -6.484,5.529 -9.97,7.613c-1.741,-2.806 -3.767,-7.641 -3.767,-7.641c1.404,4.407 1.532,7.27 1.33,9.005Z" style="fill:#fff;"/><path d="M86.533,94.612c-0.532,1.259 -0.9,2.108 -0.984,2.282c-3.766,7.871 -11.286,2.08 -11.461,0.131l-0.288,-0.936l-0.24,-2.184c0,0 -3.979,-0.689 -7.761,-2.307c-2.459,-1.052 -6.223,-6.164 -6.973,-8.945c-0.363,-1.348 -1.756,-3.033 -1.756,-3.033c-0,-0 -2.251,-1.323 -3.259,-3.675c-1.008,-2.352 -0.991,-3.107 -1.155,-4.016c-0.177,-0.975 -0.332,-1.932 -0.466,-2.872c-6.874,-47.962 39.801,-49.145 44.646,-4.222c1.677,6.46 1.884,8.219 -1.451,10.805c-0,-0 -2.618,0.19 -3.768,4.79c-1.15,4.6 -6.568,9.864 -6.568,9.864l1.484,4.318Z" style="fill:#ead8ce;"/><path d="M54.689,77.46c-0,0 1.826,0.877 2.762,0.508c-0,-0 1.28,5.91 3.176,8.2c0,-0 -4.506,0.616 -4.703,0.369c-0.197,-0.246 1.65,-4.555 0.788,-4.9c-0,-0 -3.94,1.083 -4.359,0.813c-0.418,-0.271 1.893,-4.079 2.336,-4.99Zm35.46,6.234c0,-0 6.051,0.25 6.201,-0.2c0.15,-0.45 -2.651,-5.1 -2.501,-5.65c0.15,-0.551 9.251,-1.001 9.401,-1.501c0.15,-0.5 -3.75,-5.55 -3.65,-6.15c0.1,-0.6 10.15,-4.45 9.65,-6c-0.5,-1.55 -11.65,-4.6 -11.65,-6.7c-0,-2.1 12.5,-8.301 12.35,-8.901c-0.15,-0.6 -14.7,-3.95 -15.151,-4.7c-0.45,-0.75 5.601,-17.151 5.101,-17.451c-0.5,-0.3 -16.351,5.251 -17.101,3.9c-0.75,-1.35 -2.2,-11.1 -2.25,-12.95c-0.05,-1.85 -0.05,-9.3 -0.7,-9.55c-0.65,-0.25 -6.25,7.3 -7.4,9.05c-1.151,1.75 -6.401,11.2 -6.901,11.3c-0.5,0.1 -6.8,-3.4 -8.3,-4.5c-1.5,-1.1 -5.95,-5.3 -6.45,-5.85c-0.5,-0.55 -0.9,-0.7 -1.05,0.6c-0.15,1.3 0.45,8.65 0.6,9.6c0.15,0.95 2.3,6.151 2.7,6.701c0.4,0.55 0.45,2 -0.95,2c-1.4,-0 -10.701,0.25 -11.401,0.05c-0.7,-0.2 -0.75,0.75 0.05,1.55c0.8,0.8 7.351,9.15 8.051,9.8c0.7,0.65 0.8,1.65 0.35,2.3c-0.45,0.65 -5.851,5.551 -6.651,5.901c-0.8,0.35 -0.8,1.05 0.2,1.4c1,0.35 3.4,1.45 4.6,2.25c1.201,0.8 5.201,3 3.751,5.55c-1.45,2.55 -4.001,5.7 -4.501,6.05c-0.5,0.35 -0.4,0.9 0.45,1.2c0.85,0.3 5.111,0.737 6.114,1.336c0,-0 0.147,-0.315 0.089,-1.029c-0.058,-0.714 0.985,-2.046 1.313,-2.393c0.328,-0.348 1.139,-0.908 1.139,-0.908c-0,0 0.212,-1.158 -0.02,-1.756c-0.231,-0.599 -0.54,-1.351 -0.714,-1.988c-0.174,-0.637 -0.27,-1.544 -0.367,-1.776c-0.096,-0.232 -1.679,-2.49 -1.949,-3.841c-0.27,-1.351 -0.212,-3.455 0.251,-4.498c0.463,-1.042 1.525,-2.567 1.525,-2.567c-0,-0 0.154,-2.934 0.135,-3.397c-0.019,-0.464 -0.599,-0.213 -0.772,-0.792c-0.174,-0.579 -0.251,-1.274 0.038,-1.718c0.29,-0.444 1.39,-1.467 1.448,-1.775c0.058,-0.309 1.351,-3.571 1.853,-4.498c0.502,-0.926 4.266,-5.096 7.142,-6.061c2.876,-0.965 11.466,-1.814 15.751,1.39c4.285,3.204 7.007,4.996 8.995,12.257c1.988,7.261 3.223,15.329 3.185,15.677c-0.039,0.347 0.868,0.502 1.332,0.675c0.463,0.174 3.184,2.375 3.03,3.803c-0.154,1.428 -0.676,3.803 -2.007,4.382c-1.332,0.579 -1.95,1.023 -1.95,1.023c0,-0 -0.193,1.254 -0.29,2.413c-0.096,1.158 -0.868,4.034 -1.196,4.69c-0.328,0.656 -0.629,1.801 -0.923,2.252Z" style="fill:#b2e6fc;"/></g></g></svg>