<?xml version="1.0" encoding="UTF-8" standalone="no"?><!DOCTYPE svg PUBLIC "-//W3C//DTD SVG 1.1//EN" "http://www.w3.org/Graphics/SVG/1.1/DTD/svg11.dtd"><svg width="100%" height="100%" viewBox="0 0 150 150" version="1.1" xmlns="http://www.w3.org/2000/svg" xmlns:xlink="http://www.w3.org/1999/xlink" xml:space="preserve" xmlns:serif="http://www.serif.com/" style="fill-rule:evenodd;clip-rule:evenodd;stroke-linejoin:round;stroke-miterlimit:2;"><path id="base" d="M150,75c0,-41.394 -33.606,-75 -75,-75c-41.394,0 -75,33.606 -75,75c0,41.394 33.606,75 75,75c41.394,0 75,-33.606 75,-75Z" style="fill:#141414;"/><path id="outline" d="M144,75c0,-38.082 -30.918,-69 -69,-69c-38.082,0 -69,30.918 -69,69c0,38.082 30.918,69 69,69c38.082,0 69,-30.918 69,-69Z" style="fill:#e50914;"/><path id="core" d="M141,75c0,-36.426 -29.574,-66 -66,-66c-36.426,0 -66,29.574 -66,66c0,36.426 29.574,66 66,66c36.426,0 66,-29.574 66,-66Z" style="fill:#333;"/><clipPath id="_clip1"><path d="M141,75c0,-36.426 -29.574,-66 -66,-66c-36.426,0 -66,29.574 -66,66c0,36.426 29.574,66 66,66c36.426,0 66,-29.574 66,-66Z"/></clipPath><g clip-path="url(#_clip1)"><g id="steven"><path d="M101.868,92.262c-10.099,7.992 -39.788,20.871 -39.004,1.561c-0,0 -3.937,-0.228 -6.994,-2.244c-3.058,-2.017 -6.311,-5.531 -7.287,-8.686c-0.976,-3.156 -2.082,-7.515 -1.041,-10.54c1.041,-3.025 2.7,-6.409 2.7,-6.409c-0,0 -1.269,-3.578 -1.887,-5.823c-0.618,-2.244 -4.945,-8.132 -4.945,-8.132c30.578,-49.955 71.899,-9.041 54.847,26.252c-0,0 -1.594,1.334 -1.561,2.212c0.032,0.878 0.097,4.424 1.268,6.246c1.171,1.822 3.904,5.563 3.904,5.563Z" style="fill:#cb7284;"/><path d="M63.964,98.854c0,-0 0.249,1.614 2.152,2.069c1.904,0.455 5.049,1.862 12.415,0.372c7.365,-1.489 15.931,-4.055 18.869,-6.993l4.594,2.731l0.91,44.03c-19.667,4.162 -38.404,3.396 -55.865,-4.138c2.138,-14.478 3.523,-29.339 16.925,-38.071Z" style="fill:#bf9275;"/><path d="M97.359,85.612c-0,-0 0.29,1.696 0.331,2.607c0.041,0.91 0,5.793 -0.083,7.2c-0.083,1.407 0.455,7.2 0.58,8.194c0.124,0.993 0.744,7.076 0.786,8.69c0.041,1.614 0.414,9.104 0.372,10.924c-0.041,1.821 0.083,13.366 0.083,13.366c14.85,-4.024 26.862,-13.424 34.429,-31.242c0,-0 -2.731,-3.435 -4.303,-4.47c-1.573,-1.034 -5.587,-3.931 -6.87,-4.551c-1.283,-0.621 -7.779,-3.394 -10.552,-3.725c-2.772,-0.331 -4.635,-0.786 -4.635,-0.786c0,-0 -1.82,-2.4 -2.772,-3.062c-0.952,-0.662 -4.428,-2.856 -5.587,-2.897c-1.158,-0.041 -1.779,-0.248 -1.779,-0.248Zm-48.333,50.237c-0,-0 0.91,-7.077 2.152,-10.884c1.241,-3.807 3.476,-10.883 4.551,-12.621c1.076,-1.738 4.925,-9.559 6.001,-10.594c1.076,-1.034 2.276,-2.648 2.276,-2.648c-0,0 -0.745,-4.179 -0.704,-5.007c0,-0 -0.372,-0.29 -1.448,0.248c-1.076,0.538 -5.918,3.518 -6.869,4.925c-0.952,1.407 -1.49,2.524 -1.49,2.524c-0,-0 -3.476,1.49 -4.966,2.648c-1.49,1.159 -5.255,4.428 -6.745,6.125c-1.49,1.696 -4.552,7.49 -5.545,9.724c-0.993,2.235 -2.773,6.29 -2.773,6.29c3.229,5.582 8.69,8.323 15.56,9.27Z" style="fill:#ca5695;"/><path d="M48.529,60.532c-0,-0 -6.977,-0.621 -9.351,-7.232c-2.374,-6.611 -1.79,-10.447 0.658,-14.282c2.447,-3.835 5.369,-4.164 5.369,-4.164c-0,0 0.183,-6.319 2.739,-9.57c2.557,-3.251 8.949,-8.182 13.332,-8.109c4.384,0.073 7.561,0.439 10.447,3.178c-0,0 5.881,-3.47 8.62,-4.018c2.74,-0.548 7.488,-0.548 11.214,1.242c3.725,1.79 6.136,3.616 7.487,5.844c1.352,2.228 3.105,5.552 2.082,9.315c0,-0 4.639,0.949 6.466,2.702c1.826,1.754 4.638,4.164 5.296,8.073c0.657,3.908 1.096,5.515 -0,8.656c-1.096,3.142 -2.703,5.772 -3.981,6.246c-0,0 1.826,1.863 1.607,5.918c-0.219,4.054 -0.402,5.552 -2.521,9.131c-2.118,3.58 -7.122,6.904 -11.286,6.794c-0,0 -0.292,-0.877 -0.475,-2.045c-0.183,-1.169 -0.219,-8.803 -0.657,-9.168c-0,-0 0.913,-0.512 1.57,-0.694c0.658,-0.183 2.374,-1.352 3.068,-2.813c0.694,-1.461 1.571,-5.041 1.023,-7.488c-0.548,-2.447 -1.972,-4.858 -3.068,-5.26c-1.096,-0.401 -3.58,-0.84 -4.42,-0.109c-0.84,0.73 -1.132,1.826 -1.169,2.812c-0.036,0.987 0.146,2.995 -0.621,3.543c-0.767,0.548 -1.899,1.754 -3.104,1.242c-1.206,-0.511 -2.74,-1.059 -2.922,-3.251c-0.183,-2.191 0.657,-4.602 1.059,-5.588c0.402,-0.986 1.059,-1.279 0.876,-2.265c-0.182,-0.986 -1.278,-5.442 -3.25,-7.743c-1.973,-2.301 -5.662,-5.443 -9.132,-6.21c-3.47,-0.767 -7.707,-1.351 -11.688,-0.109c-3.982,1.242 -6.137,2.557 -8.584,4.127c-2.447,1.571 -4.456,4.274 -5.406,6.283c-0.949,2.009 -1.497,5.15 -1.57,7.707c-0.073,2.557 0.073,6.757 0.292,7.305Z" style="fill:#150609;"/></g></g></svg>