<?xml version="1.0" encoding="UTF-8" standalone="no"?><!DOCTYPE svg PUBLIC "-//W3C//DTD SVG 1.1//EN" "http://www.w3.org/Graphics/SVG/1.1/DTD/svg11.dtd"><svg width="100%" height="100%" viewBox="0 0 150 150" version="1.1" xmlns="http://www.w3.org/2000/svg" xmlns:xlink="http://www.w3.org/1999/xlink" xml:space="preserve" xmlns:serif="http://www.serif.com/" style="fill-rule:evenodd;clip-rule:evenodd;stroke-linejoin:round;stroke-miterlimit:2;"><path id="base" d="M150,75c0,-41.394 -33.606,-75 -75,-75c-41.394,0 -75,33.606 -75,75c0,41.394 33.606,75 75,75c41.394,0 75,-33.606 75,-75Z" style="fill:#141414;"/><path id="outline" d="M144,75c0,-38.082 -30.918,-69 -69,-69c-38.082,0 -69,30.918 -69,69c0,38.082 30.918,69 69,69c38.082,0 69,-30.918 69,-69Z" style="fill:#e50914;"/><path id="core" d="M141,75c0,-36.426 -29.574,-66 -66,-66c-36.426,0 -66,29.574 -66,66c0,36.426 29.574,66 66,66c36.426,0 66,-29.574 66,-66Z" style="fill:#333;"/><clipPath id="_clip1"><path d="M141,75c0,-36.426 -29.574,-66 -66,-66c-36.426,0 -66,29.574 -66,66c0,36.426 29.574,66 66,66c36.426,0 66,-29.574 66,-66Z"/></clipPath><g clip-path="url(#_clip1)"><g id="witcher"><path d="M29.571,130.256l1.956,-5.612c-0,-0 -0.196,-3.609 -0.028,-6.542c0.167,-2.934 0.503,-3.437 0.838,-5.784c0.335,-2.347 0.503,-3.018 0.503,-5.03c-0,-2.012 -0.503,-1.509 -0,-4.526c0.503,-3.018 0.754,-3.605 0.922,-5.701c0.168,-2.095 0.587,-5.197 0.922,-7.628c0.335,-2.43 0.335,-9.975 0.922,-12.489c0.587,-2.515 0.587,-6.79 2.431,-7.88c1.844,-1.09 5.952,-4.61 5.952,-4.61c-0,-0 2.934,-1.09 2.85,-2.18c-0.084,-1.09 -0.755,-1.928 1.341,-2.766c2.096,-0.838 3.269,-0.922 3.269,-0.922l2.18,-1.76l2.263,-1.845c-0,0 1.09,-1.173 3.772,-1.676c2.682,-0.503 5.029,-0.503 7.209,-0.671c2.179,-0.167 6.874,-1.006 10.394,-0.335c3.521,0.671 7.293,0.335 9.389,1.006c2.095,0.67 10.981,2.934 11.903,3.353c0.922,0.419 2.934,1.341 4.191,2.012c1.257,0.67 3.688,3.017 4.359,4.442c0.67,1.425 2.431,4.611 3.018,5.784c0.586,1.174 2.682,4.496 2.514,6.104c-0.167,1.608 -0.503,2.027 -0.335,3.033c0.168,1.006 0.084,0.838 1.09,2.096c1.006,1.257 1.341,2.682 1.341,2.682c-0,0 0.335,0.168 0.67,2.683c0.336,2.514 0.336,2.85 1.09,3.688c0.755,0.838 1.174,1.341 2.599,3.521c1.425,2.179 4.107,7.46 5.448,9.388c1.342,1.928 2.18,5.029 4.695,8.55c2.514,3.521 3.688,13.328 3.688,13.328l-62.701,27.076l-40.655,-20.789Z" style="fill:#080d16;"/><path d="M44.702,106.243c-1.011,0.308 -4.613,1.713 -5.009,2.724c-0.395,1.01 -2.064,4.744 -1.449,6.062c0.615,1.318 1.186,3.822 1.801,4.13c0.615,0.307 8.171,2.416 8.171,2.416c0,0 2.592,1.054 2.9,1.626c0.307,0.571 -0.484,1.537 -0.572,1.976c-0.087,0.44 -1.274,0.659 -0.834,1.889c0.439,1.231 0.703,1.802 1.274,2.241c0.571,0.439 1.406,1.45 1.933,1.142c0.527,-0.307 1.581,-0.483 1.449,-1.23c-0.131,-0.747 -0.351,-1.845 0.088,-2.065c0.44,-0.219 2.153,-0.131 3.119,-0.219c0.967,-0.088 1.538,0.263 2.241,-0.44c0.703,-0.703 1.801,-1.405 1.977,-1.933c0.176,-0.527 1.625,-3.69 0.878,-5.096c-0.746,-1.405 -1.669,-3.646 -2.504,-4.525c-0.834,-0.878 -1.977,-2.02 -3.075,-2.723c-1.098,-0.703 -2.372,-2.285 -4.656,-2.504c-2.285,-0.22 -5.053,-1.406 -5.053,-1.406c0,-0 -1.669,-2.372 -2.679,-2.065Z" style="fill:#0d252c;"/><path d="M64.664,136.753l-1.419,0.568l-1.561,-11.519c-0,-0 -0.828,-11.093 -0.852,-12.749c-0.023,-1.656 -0.118,-8.42 -0.094,-8.704c0.023,-0.284 1.49,0.094 1.49,0.094l0.922,10.668c0,-0 1.94,0.071 2.697,-0.213c0.757,-0.284 4.257,-2.602 4.825,-2.933c0.568,-0.331 7.451,-4.068 7.451,-4.068l11.448,-6.245c-0,0 9.106,-4.919 9.413,-5.038c0.308,-0.118 1.703,-0.165 1.964,0.095c0.26,0.26 1.111,0.118 1.158,0.78c0.048,0.663 -1.135,2.981 -1.253,3.194c-0.118,0.212 -1.088,1.182 -1.727,1.632c-0.638,0.449 -18.567,11.755 -18.567,11.755l-14.547,9.177c0,0 -1.088,0.095 -1.443,1.017c-0.354,0.923 -0.354,4.116 -0.354,4.116l0.449,8.373Z" style="fill:#478095;"/><path d="M61.972,115.18c-0,-0 0.973,3.358 0.993,3.537c0.02,0.179 0.298,5.684 0.298,5.684l1.789,-1.352l0.477,-2.881l1.907,-1.431l15.561,-9.32l16.494,-10.513l-18.978,10.314l-15.064,8.426l-1.609,-2.444l-1.868,-0.02Z" style="fill:#08252b;"/><path d="M62.51,60.533c0,-0 -0.206,-3.074 -0.561,-3.991c-0.355,-0.916 -0.68,-2.039 -1.064,-2.335c-0.385,-0.295 -1.421,-1.61 -2.099,-1.892c-0.872,-0.362 -2.662,-1.974 -2.662,-1.974c0,0 9.631,-13.43 10.045,-13.756c0.414,-0.325 17.292,-0.143 17.159,1.01c-0.132,1.153 0.496,11.961 -0.732,14.165c-0.251,0.451 -1.108,1.974 -1.108,3.216c-0,1.241 -0,2.778 -0.118,3.31c-0.119,0.532 -1.035,3.252 -1.508,3.843c-0.473,0.591 -1.36,1.389 -1.655,2.128c-0.296,0.739 -1.271,1.951 -1.951,2.483c-0.68,0.533 -2.956,0.946 -3.37,0.976c-0.414,0.03 -2.779,-0.207 -3.665,-0.857c-0.887,-0.651 -1.892,-1.567 -3.075,-2.572c-1.182,-1.005 -1.507,-1.389 -2.128,-2.099c-0.621,-0.709 -1.508,-1.655 -1.508,-1.655Z" style="fill:#555;"/><path d="M56.392,59.528c-0,-0 -0.385,-1.892 -0.858,-3.193c-0.473,-1.3 -0.857,-2.512 -1.064,-3.783c-0.207,-1.271 -0.325,-1.981 -0.532,-3.311c-0.207,-1.33 -0.739,-1.98 -0.236,-3.222c0.502,-1.241 0.946,-2.01 1.3,-3.281c0.355,-1.271 1.271,-3.192 1.449,-4.197c0.177,-1.006 1.005,-2.69 1.005,-2.69c-0,-0 0.532,-2.749 1.419,-3.755c0.886,-1.005 1.093,-1.359 2.01,-2.01c0.916,-0.65 1.3,-0.975 2.837,-2.069c1.538,-1.093 3.17,-1.706 3.902,-1.803c2.01,-0.266 3.695,0.03 5.144,0.591c1.448,0.562 4.345,0.562 5.646,1.419c1.3,0.857 3.222,2.188 3.783,3.252c0.562,1.064 1.774,2.187 1.951,3.222c0.178,1.034 0.68,3.074 1.064,4.345c0.385,1.271 1.804,2.779 1.804,2.779c-0,-0 2.335,3.281 3.103,4.581c0.769,1.301 1.508,2.247 2.247,2.661c0.739,0.414 0.975,0.148 2.867,0.887c1.892,0.739 3.37,1.182 4.848,2.335c1.478,1.153 3.133,2.897 3.488,3.192c0.355,0.296 1.951,2.069 3.104,2.897c1.153,0.828 0.65,0.68 2.128,1.153c1.478,0.473 1.862,1.005 1.33,0.946c-0.532,-0.059 -1.685,-0.473 -1.448,0.029c0.236,0.503 1.212,0.71 1.212,1.419c-0,0.71 0.887,2.513 -0.414,2.069c-1.301,-0.443 -2.04,-1.123 -3.163,-1.95c-1.123,-0.828 -1.951,-2.484 -2.66,-2.897c-0.71,-0.414 -1.478,-1.065 -3.281,-1.271c-1.804,-0.207 -1.685,-0.562 -4.464,-0.444c-2.779,0.118 -3.902,0.71 -5.35,1.301c-1.449,0.591 -4.759,1.537 -4.759,1.537c-0,-0 -1.538,0.236 -2.779,0.946c-1.242,0.709 -2.572,2.246 -2.572,2.246c0,0 2.009,-2.483 2.143,-2.808c0.133,-0.325 2.114,-1.212 2.409,-1.833c0.296,-0.62 -1.093,-0.709 -2.157,-1.596c-1.065,-0.887 -1.271,-2.187 -0.71,-3.015c0.562,-0.828 0.863,-2.714 0.458,-4.375c-0.17,-0.694 -0.96,-2.926 -1.019,-4.434c-0.06,-1.507 0.059,-2.778 -0.089,-3.695c-0.148,-0.916 -0.355,-2.217 -1.242,-2.926c-0.886,-0.709 -1.951,-1.774 -2.897,-0.887c-0.945,0.887 -0.797,2.128 -2.349,2.158c-1.552,0.03 -1.198,0.237 -2.794,-0.207c-1.596,-0.443 -1.537,-0.828 -2.246,-0.857c-1.928,-0.08 -2.395,-0.207 -3.222,0.591c-0.828,0.798 -1.449,1.685 -1.449,3.222c0,1.537 -0.65,3.074 -1.685,3.872c-1.034,0.799 -1.677,3.543 -1.913,4.755c-0.237,1.212 -1.559,-1.755 -2.401,-1.703c-0.709,0.043 -2.603,0.407 -2.071,1.294c0.532,0.887 0.946,0.532 1.39,1.862c0.443,1.33 0.325,3.547 0.266,4.227c-0.059,0.68 -1.153,2.365 -1.153,2.365l-1.33,0.059Z" style="fill:#3d5d5e;"/></g></g></svg>