<?xml version="1.0" encoding="UTF-8" standalone="no"?><!DOCTYPE svg PUBLIC "-//W3C//DTD SVG 1.1//EN" "http://www.w3.org/Graphics/SVG/1.1/DTD/svg11.dtd"><svg width="100%" height="100%" viewBox="0 0 150 150" version="1.1" xmlns="http://www.w3.org/2000/svg" xmlns:xlink="http://www.w3.org/1999/xlink" xml:space="preserve" xmlns:serif="http://www.serif.com/" style="fill-rule:evenodd;clip-rule:evenodd;stroke-linejoin:round;stroke-miterlimit:2;"><path id="base" d="M150,75c0,-41.394 -33.606,-75 -75,-75c-41.394,0 -75,33.606 -75,75c0,41.394 33.606,75 75,75c41.394,0 75,-33.606 75,-75Z" style="fill:#00b894;"/><path id="outline" d="M144,75c0,-38.082 -30.918,-69 -69,-69c-38.082,0 -69,30.918 -69,69c0,38.082 30.918,69 69,69c38.082,0 69,-30.918 69,-69Z" style="fill:#dfe6e9;"/><path id="core" d="M141,75c0,-36.426 -29.574,-66 -66,-66c-36.426,0 -66,29.574 -66,66c0,36.426 29.574,66 66,66c36.426,0 66,-29.574 66,-66Z" style="fill:#81ecec;"/><clipPath id="_clip1"><path d="M141,75c0,-36.426 -29.574,-66 -66,-66c-36.426,0 -66,29.574 -66,66c0,36.426 29.574,66 66,66c36.426,0 66,-29.574 66,-66Z"/></clipPath><g clip-path="url(#_clip1)"><path id="celestial-pearl-danio" d="M13.854,61.215c0,-0 -0.714,-0.858 0.358,-1.215c1.072,-0.358 1.787,-0.429 2.43,-1.001c0.644,-0.572 1.144,-1.43 2.074,-1.287c0.929,0.143 1.358,0.357 2.001,-0.143c0.644,-0.5 0.572,-1.43 1.644,-1.215c1.073,0.214 1.43,0.429 2.788,0.071c1.359,-0.357 6.077,-0.286 9.151,-0.5c3.074,-0.215 8.364,-0.858 10.008,-0.858c1.644,-0 4.933,1.072 7.721,1.001c2.788,-0.072 9.722,0.715 12.152,1.644c2.431,0.929 4.361,1.501 6.005,1.787c1.645,0.286 3.503,0.572 3.503,0.572c0,0 1.644,-2.073 2.86,-3.503c1.215,-1.43 2.359,-2.359 3.646,-2.573c1.286,-0.215 1.644,-0.501 2.43,-1.359c0.787,-0.858 2.359,-0.286 3.575,-0.572c1.215,-0.286 2.878,-0.299 3.95,0.487c1.073,0.786 2.145,2.073 2.645,3.86c0.501,1.788 2.217,5.862 2.145,7.721c-0.071,1.859 -1.716,7.149 -2.216,8.078c-0,0 1.072,1.144 2.002,1.501c0.929,0.358 1.858,0.715 2.931,1.216c1.072,0.5 2.931,1.572 4.289,2.144c1.358,0.572 3.217,1.716 4.218,1.573c1,-0.143 2.645,-0.858 3.86,-1.001c1.215,-0.143 3.074,-0.715 4.218,-0.858c1.143,-0.143 2.788,-0.786 4.575,-1.144c1.787,-0.357 6.934,-1.501 8.364,-1c1.43,0.5 3.86,1.358 4.003,2.716c0.143,1.358 0.572,2.788 -2.502,4.718c-3.074,1.93 -7.077,5.147 -7.363,6.935c-0.286,1.787 0.025,4.036 -0.118,6.109c-0.143,2.073 0.072,4.718 -1.072,6.577c-1.144,1.858 -3.574,3.288 -4.575,2.287c-1.001,-1.001 -4.218,-4.432 -5.147,-5.433c-0.93,-1.001 -2.645,-3.145 -4.075,-4.432c-1.43,-1.287 -2.717,-2.717 -2.859,-3.503c-0,0 -3.718,-1.716 -4.933,-2.073c-1.215,-0.357 -6.22,-1.215 -7.435,-1.501c0,-0 5.219,2.073 5.362,3.002c0.143,0.93 -0.358,3.718 -1.644,4.79c-1.287,1.072 -5.433,3.288 -6.72,4.075c-1.287,0.786 -6.291,4.217 -8.65,3.645c-2.359,-0.571 -4.289,-1.93 -5.362,-4.432c-1.072,-2.502 -1.43,-3.574 -1.787,-5.647c-0.357,-2.073 0.143,-3.432 -1.001,-4.289c-1.144,-0.858 -3.36,-0.858 -4.36,-0.858c-1.001,-0 -0.715,0.357 -0.715,0.357c-0,0 0.286,3.146 -1.43,5.29c-1.716,2.145 -6.362,5.934 -7.935,4.575c-1.573,-1.358 -1.43,-3.002 -1.644,-5.147c-0.215,-2.144 0.357,-5.933 0.357,-5.933c0,-0 -3.002,-1.072 -5.29,-1.716c-2.288,-0.643 -6.076,-2.287 -8.436,-3.36c-2.359,-1.072 -4.72,-2.535 -7.008,-3.392c-2.287,-0.858 -5.719,-2.074 -7.863,-3.718c-2.145,-1.644 -5.433,-3.217 -6.577,-4.075c-1.144,-0.857 -3.861,-4.575 -4.861,-5.719c-1.001,-1.143 -2.587,-2.903 -1.687,-3.274Z" style="fill:#539b6e;"/><clipPath id="_clip2"><path d="M13.854,61.215c0,-0 -0.714,-0.858 0.358,-1.215c1.072,-0.358 1.787,-0.429 2.43,-1.001c0.644,-0.572 1.144,-1.43 2.074,-1.287c0.929,0.143 1.358,0.357 2.001,-0.143c0.644,-0.5 0.572,-1.43 1.644,-1.215c1.073,0.214 1.43,0.429 2.788,0.071c1.359,-0.357 6.077,-0.286 9.151,-0.5c3.074,-0.215 8.364,-0.858 10.008,-0.858c1.644,-0 4.933,1.072 7.721,1.001c2.788,-0.072 9.722,0.715 12.152,1.644c2.431,0.929 4.361,1.501 6.005,1.787c1.645,0.286 3.503,0.572 3.503,0.572c0,0 1.644,-2.073 2.86,-3.503c1.215,-1.43 2.359,-2.359 3.646,-2.573c1.286,-0.215 1.644,-0.501 2.43,-1.359c0.787,-0.858 2.359,-0.286 3.575,-0.572c1.215,-0.286 2.878,-0.299 3.95,0.487c1.073,0.786 2.145,2.073 2.645,3.86c0.501,1.788 2.217,5.862 2.145,7.721c-0.071,1.859 -1.716,7.149 -2.216,8.078c-0,0 1.072,1.144 2.002,1.501c0.929,0.358 1.858,0.715 2.931,1.216c1.072,0.5 2.931,1.572 4.289,2.144c1.358,0.572 3.217,1.716 4.218,1.573c1,-0.143 2.645,-0.858 3.86,-1.001c1.215,-0.143 3.074,-0.715 4.218,-0.858c1.143,-0.143 2.788,-0.786 4.575,-1.144c1.787,-0.357 6.934,-1.501 8.364,-1c1.43,0.5 3.86,1.358 4.003,2.716c0.143,1.358 0.572,2.788 -2.502,4.718c-3.074,1.93 -7.077,5.147 -7.363,6.935c-0.286,1.787 0.025,4.036 -0.118,6.109c-0.143,2.073 0.072,4.718 -1.072,6.577c-1.144,1.858 -3.574,3.288 -4.575,2.287c-1.001,-1.001 -4.218,-4.432 -5.147,-5.433c-0.93,-1.001 -2.645,-3.145 -4.075,-4.432c-1.43,-1.287 -2.717,-2.717 -2.859,-3.503c-0,0 -3.718,-1.716 -4.933,-2.073c-1.215,-0.357 -6.22,-1.215 -7.435,-1.501c0,-0 5.219,2.073 5.362,3.002c0.143,0.93 -0.358,3.718 -1.644,4.79c-1.287,1.072 -5.433,3.288 -6.72,4.075c-1.287,0.786 -6.291,4.217 -8.65,3.645c-2.359,-0.571 -4.289,-1.93 -5.362,-4.432c-1.072,-2.502 -1.43,-3.574 -1.787,-5.647c-0.357,-2.073 0.143,-3.432 -1.001,-4.289c-1.144,-0.858 -3.36,-0.858 -4.36,-0.858c-1.001,-0 -0.715,0.357 -0.715,0.357c-0,0 0.286,3.146 -1.43,5.29c-1.716,2.145 -6.362,5.934 -7.935,4.575c-1.573,-1.358 -1.43,-3.002 -1.644,-5.147c-0.215,-2.144 0.357,-5.933 0.357,-5.933c0,-0 -3.002,-1.072 -5.29,-1.716c-2.288,-0.643 -6.076,-2.287 -8.436,-3.36c-2.359,-1.072 -4.72,-2.535 -7.008,-3.392c-2.287,-0.858 -5.719,-2.074 -7.863,-3.718c-2.145,-1.644 -5.433,-3.217 -6.577,-4.075c-1.144,-0.857 -3.861,-4.575 -4.861,-5.719c-1.001,-1.143 -2.587,-2.903 -1.687,-3.274Z"/></clipPath><g clip-path="url(#_clip2)"><path d="M71.096,53.268c0.025,0.109 0.051,0.218 0.077,0.328c0.357,1.5 -2.35,3.57 -1.728,4.993c0.785,1.792 2.434,2.557 4.032,3.719c1.982,1.442 4.931,3.759 7.09,4.922c1.243,0.669 3.208,1.698 4.466,2.285c5.528,2.58 13.365,6.515 19.16,4.39l0.193,-2.522c-0.036,0.965 -0.2,1.935 -0.2,2.9c-0,2.334 1,4.521 1,6.825c-0,2.464 0.919,6.992 -2.365,7.461c-3.763,0.537 -7.872,-1.634 -11.485,-2.086c-2.197,-0.274 -4.43,-0.239 -6.638,-0.587c-2.193,-0.347 -2.649,1.578 -4.87,1.277c-2.757,-0.372 -6.011,0.481 -8.715,-0.171c-3.916,-0.946 -9.265,-4.29 -13.197,-5.207c-2.524,-0.589 -4.764,-3.489 -7.293,-4.012c-3.795,-0.785 -7.787,-1.108 -11.112,-3.325c-3.716,-2.477 -6.781,-6.684 -6.975,-11.25c-0.149,-3.49 0.929,-6.909 2.187,-10.112c0.647,-1.647 1.45,-3.213 2.2,-4.813c0.322,-0.686 0.676,-1.563 1.463,-1.825l32.71,6.81Z" style="fill:#2b306a;"/><path d="M60.286,54.058c-0.47,0 -0.955,0.534 -1.363,0.738c-0.626,0.313 -0.439,1.392 -1.087,1.662c-2.589,1.079 -5.097,1.625 -7.9,1.8c-1.146,0.072 -3.864,-0.429 -5,-0.5c-1.809,-0.113 -2.837,-0.108 -4.7,0.125c-0.687,0.086 -2.818,-0.667 -3.25,0.013c-0.209,0.327 -0.076,0.846 -0.1,1.212c-0.098,1.46 0.924,2.704 1.4,4.038c0.304,0.852 0.229,2.049 0.4,2.962c0.27,1.444 -1.679,3.281 -0.6,4.6c0.462,0.566 1.31,0.745 1.95,1.025c1.781,0.779 3.804,1.095 5.55,1.9c0.642,0.297 1.076,1.026 1.725,1.375c2.487,1.34 4.797,2.838 7.425,3.988c2.411,1.055 5.296,0.926 7.762,1.875c1.558,0.599 2.796,1.547 4.175,2.425c0.629,0.4 1.496,0.375 2.163,0.775c0.858,0.514 0.806,1.967 2,1.887c1.94,-0.129 3.667,-1.473 5.7,-1.6c1.447,-0.09 3.065,0.838 4.462,1.138c0.586,0.125 1.233,0.3 1.838,0.262c0.671,-0.042 1.345,-0.398 2.012,-0.35c0.685,0.049 1.31,0.573 1.988,0.7c1.203,0.226 3.044,0.062 4.025,0.825c0.454,0.354 0.918,1.284 0.487,1.838c-0.343,0.441 -1.016,0.331 -1.5,0.4c-1.284,0.183 -2.539,0.499 -3.8,0.8c-2.313,0.55 -4.815,1.128 -7.212,0.987c-2.642,-0.155 -5.395,-0.849 -8,-1.337c-1.823,-0.342 -3.418,-1.405 -5.313,-1.55c-0.891,-0.069 -2.283,2.024 -2.775,2.65c-1.708,2.174 -3.717,5.43 -7.012,4.812c-1.477,-0.277 -2.98,-2.561 -3.575,-3.837c-0.223,-0.477 -0.248,-1.085 -0.588,-1.5c-1.496,-1.829 -4.147,-2.622 -6.2,-3.588c-3.531,-1.662 -7.151,-2.565 -10.925,-3.487c-3.348,-0.819 -6.821,-1.489 -9.85,-3.2c-1.127,-0.637 -2.802,-2.097 -3.275,-3.325c-0.118,-0.307 -0.024,-0.699 -0.1,-1.025c-0.309,-1.339 -0.986,-2.824 -1.487,-4.113c-0.725,-1.864 -1.955,-3.509 -2.688,-5.375c-1.149,-2.926 -1.395,-7.263 -0.425,-10.262c0.878,-2.714 2.766,-3.266 4.625,-5.125l39.038,3.362Z" style="fill:#b5114e;"/><path d="M84.758,68.615c0.208,0.128 0.421,0.256 0.64,0.387c2.507,1.499 4.983,2.607 8.502,4.24l9.678,-6.191l3.062,11.494c-0.69,1.104 2.409,1.732 0.886,2.331l0.391,1.599c0.369,0.158 0.708,0.331 0.903,0.621l0.011,-0.098c1.217,0.811 2.614,1.674 4.019,2.142c0.45,0.15 0.958,0.178 1.424,0.266c1.038,0.194 2.075,0.388 3.117,0.569c0.571,0.099 1.12,0.21 1.663,0.416c0.147,0.034 0.293,0.076 0.436,0.129c0.059,0.023 0.579,0.177 0.579,0.213c-0,0.021 -0.291,-0.079 -0.314,-0.087c-0.205,-0.076 -0.414,-0.141 -0.618,-0.222c-0.027,-0.011 -0.055,-0.022 -0.083,-0.033c-0.546,-0.124 -1.114,-0.136 -1.663,-0.228c-1.234,-0.205 -2.462,-0.411 -3.692,-0.641c-0.941,-0.177 -1.822,-0.479 -2.779,-0.599c-0.382,-0.048 -0.744,-0.081 -1.112,-0.131c1.022,0.765 2.22,1.336 3.462,1.608c0.958,0.209 2.095,0.584 3.059,0.748c0.762,0.129 1.364,0.351 2.085,0.627c0.258,0.099 0.52,0.198 0.781,0.289c0.121,0.042 0.367,0.116 0.367,0.116c-0,0 -0.279,-0.058 -0.42,-0.058c-0.282,0 -0.562,0.039 -0.844,0.039c-0.866,-0 -1.731,-0.585 -2.586,-0.748c-2.092,-0.398 -4.094,-1.132 -6.032,-2.031c-0.374,-0.174 -0.706,-0.153 -1.047,-0.254c-0.429,1.102 -1.149,2.212 -2.022,2.868c-0.531,0.398 -1.407,0.476 -1.948,0.874c-0.169,0.27 -0.322,0.515 -0.456,0.729l-0.021,0.259l0.001,-0.228c-0.299,0.477 -0.498,0.789 -0.55,0.851c-0.251,0.299 -0.469,0.612 -0.751,0.965c-0.155,0.193 -0.365,0.562 -0.65,0.562c-0.396,0 -1.121,-0.638 -1.425,-0.887c-0.8,-0.655 -1.679,-1.104 -2.65,-1.45c-2.572,-0.919 -5.259,-1.159 -7.875,-1.763c-1.303,-0.301 -2.414,-1.137 -3.75,-1.387c-2.076,-0.389 -4.15,-0.846 -6.238,-1.175c-1.114,-0.176 -2.245,-0.023 -3.362,-0.163c-1.139,-0.142 -2.352,-0.057 -3.5,-0.125c-0.215,-0.012 -1.163,0.057 -1.163,-0.325c0,-0.419 1.379,-0.457 1.663,-0.475c1.861,-0.116 3.866,-0.166 5.725,-0.1c5.202,0.186 10.425,0.988 15.5,2.075c1.052,0.226 2.164,0.337 3.2,0.625c1.426,0.396 3.037,0.984 4.537,0.663c0.5,-0.107 0.952,-0.414 1.312,-0.829l0.029,-3.933c-0.321,-0.317 -0.641,-0.638 -0.716,-1.088c-0.079,-0.475 0.049,-0.89 0.174,-1.296c-2.956,-0.812 -5.348,-2.466 -8.124,-3.854c-1.457,-0.729 -2.611,-1.657 -3.962,-2.525c-0.968,-0.623 -2.195,-0.997 -3.238,-1.488c-1.244,-0.585 -2.367,-1.458 -3.675,-1.925c-1.097,-0.392 -2.362,-0.444 -3.5,-0.687c-1.619,-0.347 -3.465,-1.158 -4.962,-1.863c-0.945,-0.444 -1.74,-1.122 -2.65,-1.612c-2.767,-1.49 -5.672,-3.141 -8.55,-4.4c-1.811,-0.793 -3.883,-0.778 -5.763,-1.3c-1.285,-0.357 -2.463,-0.996 -3.737,-1.35c-1.765,-0.49 -3.598,-0.3 -5.4,-0.413c-2.967,-0.185 -5.967,-0.154 -8.925,-0.45c-1.195,-0.119 -2.478,0.116 -3.65,-0.275c-0.233,-0.077 -0.904,-0.189 -0.975,-0.475c-0.068,-0.271 0.595,-0.292 0.737,-0.312c0.879,-0.126 1.825,-0.188 2.713,-0.188c2.952,0 5.897,0.3 8.862,0.3c0.762,0 2.435,0.477 3.125,0.063c0.098,-0.059 -0.656,-0.279 -0.75,-0.3c-0.544,-0.126 -1.118,-0.112 -1.662,-0.238c-1.641,-0.378 -3.223,-0.574 -4.888,-0.812c-0.595,-0.085 -1.186,-0.113 -1.787,-0.113c-0.075,0 -0.6,0.049 -0.6,-0.075c-0,-0.192 1.064,-0.134 1.2,-0.125c1.3,0.087 2.587,0.3 3.9,0.3c1.686,0 3.392,-0.001 5.075,-0.1c1.521,-0.089 4.146,-1.093 5.653,-1.093c18.114,3.673 15.769,5.573 19.996,8.786c1.183,-0.875 2.411,-1.69 3.69,-2.409c0.561,-0.316 1.174,-0.625 1.793,-0.813c0.058,-0.018 0.465,-0.194 0.508,-0.109c0.037,0.075 -0.29,0.235 -0.334,0.261c-0.395,0.242 -0.793,0.47 -1.176,0.733c-1.018,0.701 -1.997,1.509 -2.946,2.301c-0.266,0.222 -0.545,0.437 -0.804,0.67c0.271,0.228 0.563,0.468 0.884,0.72c1.521,-1.044 3.181,-2.016 4.84,-2.638c0.518,-0.195 1.027,-0.432 1.568,-0.552c0.121,-0.027 0.437,-0.153 0.529,-0.015c0.082,0.123 -0.265,0.206 -0.326,0.225c-0.438,0.137 -0.863,0.35 -1.277,0.545c-1.1,0.517 -2.123,1.06 -3.128,1.756c-0.378,0.262 -0.776,0.497 -1.147,0.769c-0.115,0.085 -0.451,0.298 -0.167,0.298l-0.284,0.081c0.32,0.242 0.666,0.495 1.04,0.76l0.464,-0.203c0.016,0.034 0.041,0.057 0.071,0.072c-0.156,0.06 -0.312,0.119 -0.469,0.178c0.176,0.124 0.357,0.25 0.545,0.379c0.723,-0.112 1.447,-0.221 2.175,-0.302c0.936,-0.104 1.878,-0.057 2.816,-0.174c1.018,-0.128 2.005,-0.425 3.018,-0.552c0.106,-0.013 0.973,-0.035 0.973,0.109c-0,0.059 -0.239,0.058 -0.276,0.058c-0.327,0 -0.667,0.096 -0.987,0.16c-1.31,0.262 -2.64,0.428 -3.948,0.689c-0.917,0.184 -1.769,0.518 -2.665,0.749l0.021,0.014l0.123,0.08c1.835,0.271 3.578,0.876 5.482,0.638c0.53,-0.067 1.012,0.091 1.51,0.246c0.043,0.014 0.442,0.11 0.442,0.153c0,0.072 -0.83,0.022 -0.9,0.022c-0.954,-0 -1.847,-0.133 -2.793,-0.196c-0.761,-0.051 -1.514,0.011 -2.267,0.061Zm23.325,19.546c-0.23,-0 0.374,0.273 0.468,0.328c0.408,0.235 0.8,0.495 1.211,0.724c0.943,0.524 1.832,1.068 2.707,1.693c0.197,0.141 0.431,0.245 0.647,0.353c0.024,0.012 0.178,0.091 0.197,0.072c0.002,-0.002 -0.193,-0.118 -0.207,-0.126c-0.129,-0.075 -0.256,-0.15 -0.381,-0.231c-0.413,-0.268 -0.797,-0.571 -1.177,-0.883c-0.657,-0.539 -1.298,-1.111 -2.013,-1.573c-0.571,-0.37 -1.257,-0.751 -1.741,-1.235l0.289,0.878Zm-0.849,0.231c0.314,0.63 1.091,1.424 1.718,1.737c0.189,0.095 0.369,0.194 0.574,0.251c0.031,0.009 0.22,0.082 0.231,0.015c0.024,-0.14 -0.41,-0.471 -0.497,-0.574c-0.475,-0.565 -1.013,-1.083 -1.505,-1.636l-0.521,0.207Zm0.926,-2.2c0.327,0.49 1.33,0.661 1.853,0.835c1.417,0.472 2.94,0.705 4.328,1.245c0.799,0.31 1.565,0.711 2.369,1.003c0.26,0.095 0.519,0.198 0.772,0.309c0.029,0.013 0.377,0.125 0.377,0.111c-0,-0.053 -0.443,-0.205 -0.488,-0.227c-0.561,-0.272 -1.124,-0.545 -1.693,-0.801c-1.462,-0.656 -2.927,-1.274 -4.444,-1.78c-0.933,-0.311 -1.934,-0.4 -2.731,-1.037l-0.343,0.342Zm2.78,-2.625c-0.098,0 0.076,0.132 0.096,0.14c0.196,0.081 0.412,0.118 0.618,0.169c0.533,0.134 1.015,0.413 1.544,0.545c1.477,0.37 3.006,0.15 4.516,0.15c0.492,-0 1.011,0.056 1.501,0.111c0.165,0.018 0.339,0.005 0.506,0.005c0.084,-0 0.251,0.019 0.251,0.019c0,0 -0.283,-0.075 -0.425,-0.116c-0.282,-0.08 -0.57,-0.103 -0.858,-0.144c-0.819,-0.117 -1.693,-0.068 -2.519,-0.068c-1.145,-0 -2.176,-0.416 -3.281,-0.637c-0.621,-0.124 -1.239,-0.249 -1.824,-0.502c-0.741,-0.32 -1.407,-0.79 -2.094,-1.206l1.969,1.534Zm-2.119,1.019c-0.01,0.035 -0.021,0.07 -0.032,0.104l0.091,-0.079c-0.02,-0.007 -0.04,-0.016 -0.059,-0.025Zm3.058,-1.9c-0.672,-0.14 -1.309,-0.397 -1.943,-0.658l1.93,0.613c-0,0.016 0.005,0.032 0.013,0.045c0.082,0.018 0.164,0.033 0.248,0.047c0.965,0.157 1.958,0.075 2.928,0.164c0.827,0.075 1.831,0.278 2.625,0.058c0.725,-0.202 1.447,-0.154 2.186,-0.092c0.245,0.02 0.482,0.077 0.724,0.116c0.114,0.018 0.342,0.048 0.342,0.048l-0.275,-0c-0.169,-0 -0.342,-0.011 -0.511,-0c-0.51,0.034 -1.034,0.077 -1.544,0.077c-0.734,0 -1.433,0.189 -2.162,0.232c-0.771,0.045 -1.629,-0.049 -2.393,-0.145c-0.57,-0.071 -1.1,-0.215 -1.66,-0.343c-0.089,-0.02 -0.437,-0.043 -0.508,-0.162Zm-59.693,-6.328c0.92,-0.46 1.826,0.213 2.325,0.925c0.115,0.165 0.781,1.045 0.312,1.088c-0.794,0.072 -1.381,-1.527 -2.2,-1.8l-0.437,-0.213Zm-10,-5.4c-0.251,-0.125 -0.674,-0.703 -0.2,-0.812c1.477,-0.341 3.557,1.184 3.962,2.5c0.109,0.354 0.312,1.143 0.075,1.475c-0.244,0.342 -0.966,-0.9 -1.05,-1.1c-0.429,-1.03 -0.871,-1.651 -1.962,-1.963l-0.825,-0.1Zm-19.232,1.985l-7.943,-3.96c-2.022,-2.488 -3.996,-5.193 -4.288,-8.5c-0.298,-3.381 2.928,-5.453 6.013,-4.875c2.119,0.397 3.436,2.481 3.012,4.6c-0.101,0.508 -0.997,0.957 -0.775,1.513c0.365,0.911 2.046,1.666 2.775,2.262c0.572,0.468 1.536,2.351 1.7,3.063c0.189,0.818 -0.037,1.676 0.213,2.55c0.097,0.34 0.414,0.776 0.25,1.137c-0.187,0.411 -0.852,0.473 -1.05,0.95c-0.094,0.225 -0.141,0.971 0.093,1.26l0.232,0.115c-0.097,0 -0.173,-0.043 -0.232,-0.115Zm7.932,-2.485c-0.36,0.72 -1.187,-0.419 -1.313,-0.712c-0.573,-1.337 0.086,-3.934 1.888,-4.063c0.673,-0.048 1.025,0.637 1.025,1.225c-0,0.854 -0.688,2.287 -1.288,2.888l-0.312,0.662Zm4,-2.8c-0.265,-0.528 -0.997,-0.423 -1.163,-0.787c-0.165,-0.364 0.225,-1.192 0.688,-1.038c0.314,0.105 0.274,0.408 0.412,0.638l0.063,1.187Zm2.9,-0.5c-0.213,-0.425 -0.822,-1.038 -0.613,-1.562c0.26,-0.649 1.145,-0.481 1.25,0.15l-0.637,1.412Zm44.172,-0.855c1.439,-0.546 2.866,-1.091 4.283,-1.726c0.714,-0.32 1.398,-0.596 2.162,-0.77c0.286,-0.064 0.593,-0.09 0.886,-0.072c0.029,0.002 0.318,0.014 0.254,0.094c-0.091,0.114 -0.405,0.151 -0.537,0.189c-0.43,0.123 -0.86,0.279 -1.285,0.421c-1.402,0.467 -2.761,0.992 -4.122,1.553c-0.391,0.161 -0.858,0.26 -1.277,0.312c-0.099,0.012 -0.261,0.051 -0.364,-0.001Zm5.154,-6.864c0.215,-0.43 0.797,-0.717 1.212,-0.893c0.944,-0.401 1.916,-0.712 2.895,-1.016c0.348,-0.108 0.677,-0.26 1.031,-0.348c0.05,-0.013 0.263,-0.085 0.304,-0.022c0.047,0.07 -0.294,0.179 -0.319,0.189c-0.464,0.181 -0.929,0.362 -1.393,0.544c-0.483,0.189 -0.959,0.394 -1.43,0.61c-0.733,0.335 -1.429,0.71 -2.119,1.124l-0.181,-0.188Zm-2.845,-1.161c-0.115,-0.058 0.152,-0.331 0.189,-0.37c0.311,-0.336 0.656,-0.628 1.001,-0.929c1.278,-1.118 2.614,-1.801 4.18,-2.388c0.358,-0.134 0.732,-0.255 1.103,-0.348c0.046,-0.012 0.368,-0.11 0.385,-0.008c0.019,0.117 -0.31,0.258 -0.385,0.298c-0.446,0.238 -0.889,0.482 -1.335,0.718c-1.306,0.692 -2.508,1.461 -3.658,2.395c-0.413,0.336 -0.94,0.574 -1.277,0.994l-0.203,-0.362Zm-5.399,-1.336c-0.372,0 -0.013,-0.337 0.101,-0.457c0.345,-0.363 0.681,-0.737 1.06,-1.067c1.043,-0.908 2.03,-1.929 3.28,-2.554c0.337,-0.169 0.692,-0.313 1.038,-0.457c0.047,-0.02 0.522,-0.211 0.522,-0.189c0,0.067 -0.348,0.253 -0.399,0.29c-0.425,0.315 -0.842,0.64 -1.27,0.951c-1.1,0.8 -2.193,1.679 -3.12,2.678c-0.371,0.399 -0.843,0.854 -0.966,1.408l-0.246,-0.603Zm2.5,0.234c0.051,0.005 0.376,-0.468 0.402,-0.502c0.258,-0.334 0.529,-0.674 0.828,-0.973c1.027,-1.027 2.55,-1.771 3.853,-2.394c0.217,-0.104 1.082,-0.58 1.321,-0.342c0.057,0.058 -0.254,0.169 -0.283,0.182c-0.384,0.168 -0.759,0.375 -1.132,0.566c-0.877,0.448 -1.678,0.987 -2.468,1.575c-0.815,0.607 -1.568,1.278 -2.285,1.995l-0.236,-0.107c-0.002,0 -0.003,-0 -0.004,-0.001l0.004,0.001Z" style="fill:#dbd1ec;"/><path d="M70.79,89.894c0.454,-0.455 1.273,0.145 1.745,0.327c1.457,0.56 3.014,1.438 4.55,1.745c1.112,0.223 2.603,0.492 3.74,0.421c1.058,-0.066 2.031,-0.574 3.054,-0.81c1.888,-0.436 4.16,-0.76 6.093,-0.483c1.275,0.182 4.03,0.905 4.27,2.462c0.114,0.741 -0.547,1.206 -1.107,1.542c-1.284,0.771 -2.491,1.476 -3.88,2.01c-4.213,1.621 -8.06,3.257 -12.669,3.257c-0.913,0 -1.755,-0.56 -2.586,-0.857c-1.121,-0.4 -2.903,-0.745 -4.083,-0.576l0.873,-9.038Zm31.165,1.62c0.34,-0.681 0.615,-1.26 0.779,-2.025c0.058,-0.269 0.028,-0.778 0.343,-0.904c0.414,-0.166 1.124,0.158 1.558,0.187c1.025,0.068 2.122,-0.264 3.132,0.124c1.439,0.554 2.71,1.736 4.176,2.26c1.344,0.48 3.306,0.414 4.457,1.309c0.571,0.444 1.17,1.89 1.418,2.571c0.166,0.458 -0.917,1.166 -1.215,1.465c-1.35,1.349 -2.314,2.719 -4.395,2.026c-0.798,-0.267 -1.393,-1.099 -2.212,-1.154c-1.093,-0.072 -2.138,0.711 -3.21,0.577l-4.831,-6.436Zm5.36,-13.463c-1.26,0.63 -1.441,2.47 -0.498,3.413c0.421,0.421 1.371,0.416 1.932,0.451c3.315,0.208 6.224,0.23 9.474,-0.42c0.783,-0.157 1.613,-0.06 2.369,-0.312c0.576,-0.192 0.658,-0.577 0.841,-1.091c0.793,-2.219 -1.1,-2.913 -2.805,-3.521c-1.236,-0.442 -2.488,-0.798 -3.724,-1.247l-7.589,2.727Zm-33.783,-19.198c0.375,0 0.868,0.478 1.231,0.608c1.048,0.374 2.083,0.724 3.117,1.122c0.806,0.31 1.67,0.344 2.477,0.654c1.659,0.638 3.205,1.688 4.691,2.634c1.086,0.691 2.354,0.917 3.537,1.34c1.201,0.429 3.482,1.878 4.768,1.527c0.658,-0.18 -0.217,-1.8 -0.296,-2.166c-0.128,-0.6 0.03,-1.153 -0.187,-1.761c-0.498,-1.394 -2.154,-3.167 -3.194,-4.207c-1.45,-1.45 -3.492,-3.304 -5.361,-4.176c-1.601,-0.748 -3.606,-0.593 -5.298,-1.216c-1.26,-0.464 -2.322,-1.414 -3.319,-2.275l-2.166,7.916Z" style="fill:#100f11;"/><path d="M71.538,91.39c0.404,-0 0.855,0.44 1.246,0.561c1.549,0.476 2.824,1.214 4.285,1.776c0.854,0.328 1.78,-0.19 2.665,0c0.668,0.143 1.474,0.643 2.166,0.483c0.566,-0.13 0.957,-0.662 1.543,-0.779c1.363,-0.273 2.762,0.02 4.114,-0.234c1.053,-0.197 2.089,-0.772 3.038,-1.246c0.71,-0.355 2.076,-1.062 2.447,0.124c0.192,0.616 -0.25,1.029 -0.561,1.496c-1.071,1.607 -3.444,1.516 -5.174,1.948c-1.018,0.255 -1.946,0.817 -2.929,1.044c-0.952,0.22 -1.951,0.249 -2.899,0.468c-0.699,0.161 -0.569,1.09 -1.527,1.09c-1.609,0 -3.372,-0.832 -4.939,-1.168c-1.262,-0.271 -3.696,-0.208 -4.722,-1.029l1.247,-4.534Z" style="fill:#d77e05;"/><path d="M101.355,90.924c0.255,0.253 1.639,-0.551 1.909,-0.641c0.972,-0.324 2.213,-0.081 3.241,-0.218c1.215,-0.162 2.593,1.145 3.537,1.745c1.866,1.188 4.155,0.163 5.781,2.151c0.959,1.171 -1.542,2.652 -2.617,2.883c-0.918,0.196 -2.582,-0.904 -3.288,-1.434c-1.078,-0.809 -1.535,0.011 -2.696,0.093c-0.83,0.06 -1.748,-0.031 -2.587,-0.031l-3.28,-4.548c-0.009,-0.01 -0.017,-0.021 -0.023,-0.033l0.023,0.033Zm5.462,-13.247c0.407,0.815 1.317,0.959 2.088,1.434c2.503,1.54 4.315,2.181 7.324,2.181c0.941,0 3.776,-0.946 2.805,-2.306c-1.22,-1.708 -3.457,-0.646 -4.94,-1.59c-1.36,-0.865 -2.299,-1.458 -4.005,-1.589l-3.272,1.87Zm-33.534,-20.445c2.397,0 3.771,1.95 5.874,2.759c1.169,0.449 2.273,0.517 3.475,0.794c0.595,0.138 0.996,0.654 1.559,0.842c1.552,0.517 2.933,0.951 4.441,1.636c1.154,0.525 2.728,2.497 4.129,2.322c0.385,-0.048 -0.253,-1.439 -0.436,-1.605c-0.448,-0.407 -1.041,-0.672 -1.403,-1.169c-0.49,-0.674 -0.35,-1.486 -0.763,-2.135c-0.341,-0.535 -1.279,-1.112 -1.792,-1.511c-0.848,-0.66 -2.081,-0.835 -3.07,-1.216c-0.677,-0.26 -1.189,-0.914 -1.854,-1.122c-1.464,-0.457 -3.042,-0.244 -4.519,-0.561c-1.697,-0.363 -3.415,-1.252 -5.08,-1.807l-0.561,2.773Z" style="fill:#e30413;"/><path d="M104.989,86.892c-0,-0.658 0.67,-0.679 0.629,-0.023c-0.021,0.339 -0.251,0.667 -0.427,0.944c-0.065,0.102 -0.291,0.237 -0.365,0.073c-0.053,-0.116 0.027,-0.38 0.045,-0.505l0.118,-0.489Zm-1.574,-0.764c0,-0.29 0.549,-0.332 0.714,-0.197c0.498,0.408 -0.062,1.418 -0.551,1.596c-0.605,0.22 -0.77,-0.87 -0.46,-1.18l0.297,-0.219Zm-2.741,0.18c-0.139,-0 -0.27,-0.271 -0.292,-0.383c-0.056,-0.276 0.096,-0.977 0.393,-1.112c0.598,-0.272 1.406,0.034 1.062,0.792c-0.133,0.292 -0.533,0.547 -0.809,0.686l-0.354,0.017Zm-3.866,-0.315c-0.214,-0.071 -0.042,-0.46 0.017,-0.579c0.21,-0.418 0.637,-0.639 1.09,-0.674c0.364,-0.028 0.871,0.337 0.635,0.742c-0.276,0.473 -0.619,0.702 -1.129,0.775l-0.613,-0.264Zm-3.82,-2.023c0.072,-0.143 0.43,-0.197 0.562,-0.258c0.461,-0.215 1.029,-0.28 1.534,-0.343c0.247,-0.031 0.458,-0.082 0.606,0.152c0.269,0.421 -0.211,0.778 -0.5,0.994c-0.542,0.407 -1.111,0.498 -1.752,0.646c-0.312,0.072 -0.58,0.294 -0.888,0.382l0.438,-1.573Zm-2.878,1.127c-0.098,0.196 -0.413,-0.304 -0.433,-0.382c-0.153,-0.61 0.383,-1.644 1.118,-1.539c0.861,0.123 0.696,1.774 -0.09,1.905l-0.595,0.016Zm-4.678,-1.602c0.276,-0.057 0.601,-0.07 0.745,-0.061c0.099,0.007 0.221,0.022 0.35,0.045c0.297,-0.105 1.178,-0.002 1.037,0.472l0.001,0c0.224,0.308 -0.273,0.583 -0.616,0.684c-0.381,0.217 -0.856,0.305 -1.25,0.283c-0.308,-0.017 -0.975,-0.386 -0.769,-0.798l0.102,-0.158c-0.052,-0.088 -0.088,-0.19 -0.035,-0.269c0.05,-0.075 0.172,-0.131 0.321,-0.171l0.028,-0.043c0.002,-0.005 0.035,0.002 0.086,0.016Zm17.983,-0.603c0.14,-0.279 0.432,-0.052 0.618,0.078c0.294,0.206 0.452,0.792 0.203,1.096c-0.34,0.416 -1.286,0.598 -1.506,-0.062c-0.064,-0.191 0.154,-0.68 0.275,-0.831l0.41,-0.281Zm-22.339,0.408c0.07,-0.14 0.414,-0.18 0.533,-0.309c0.265,-0.287 0.583,-0.926 1.034,-0.967c0.495,-0.045 0.917,0.886 0.719,1.281c-0.269,0.54 -0.827,0.519 -1.326,0.59l-0.96,-0.595Zm16.407,-0.049c-0,-0.254 -0.081,-0.459 -0.028,-0.725c0.06,-0.301 0.591,-0.502 0.859,-0.466c0.535,0.071 0.978,0.577 1.079,1.079c0.063,0.315 -0.11,0.79 -0.489,0.736l-1.421,-0.624Zm-21.621,-0.985c-0,-0.474 0.352,-0.539 0.742,-0.539c0.672,-0 0.95,0.63 1.561,0.848c0.289,0.103 0.773,0.03 1.006,0.264c0.197,0.197 0.034,0.522 -0.146,0.663c-0.262,0.206 -0.677,0.162 -0.983,0.123c-0.328,-0.041 -0.577,-0.119 -0.893,-0.219c-0.489,-0.154 -0.763,-0.396 -1.152,-0.708l-0.135,-0.432Zm-6.247,0.629c-0.215,0.143 -0.279,-0.22 -0.231,-0.354c0.106,-0.297 0.347,-0.593 0.596,-0.786c0.515,-0.401 1.17,0.025 1.724,0.129c0.247,0.046 0.58,0.049 0.793,0.196c0.118,0.082 0.133,0.233 0.219,0.338c0.09,0.11 0.317,0.183 0.342,0.337c0.04,0.237 -0.392,0.275 -0.544,0.275c-0.465,-0 -0.895,-0.107 -1.349,-0.135c-0.159,-0.01 -0.328,-0.079 -0.472,0.017l-1.078,-0.017Zm18.427,0.045c-0.119,0.239 -0.261,-0.412 -0.253,-0.483c0.05,-0.444 0.082,-0.952 0.562,-1.124c0.887,-0.316 1.092,0.494 0.59,1.096l-0.899,0.511Zm12.857,-0.902c-0,-0.321 0.346,-0.994 0.646,-1.13c0.221,-0.1 0.614,-0.227 0.691,0.13c0.11,0.515 -0.144,1.153 -0.523,1.494c-0.269,0.243 -0.612,0.39 -0.826,0.034l0.012,-0.528Zm-34.566,0.318c-0.347,-0.116 -0.511,-0.517 -0.235,-0.792c0.357,-0.358 0.881,-0.575 1.348,-0.742c0.163,-0.058 0.349,-0.158 0.522,-0.079c0.361,0.164 0.519,0.641 0.186,0.944c-0.382,0.348 -1.332,0.804 -1.843,0.613l0.022,0.056Zm26.925,-0.183c-0.416,-0.208 -0.872,0.043 -1.281,-0.18c-0.311,-0.17 -0.604,-0.342 -0.944,-0.455c-0.353,-0.118 -0.849,-0.839 -0.32,-1.079c0.527,-0.24 0.987,0.035 1.489,0.169c0.353,0.094 0.74,0.138 1.067,0.314c0.25,0.135 0.421,0.349 0.421,0.641l-0.432,0.59Zm-13.576,-0.312c-0.247,-0.123 -0.096,-0.563 -0.05,-0.747c0.124,-0.499 0.451,-1.428 1.185,-1.202c0.224,0.069 0.259,0.39 0.259,0.579c-0,0.456 -0.368,1.219 -0.927,1.219l-0.467,0.151Zm4.72,-0.629c-0.038,0.075 -0.051,-0.245 -0.04,-0.286c0.06,-0.216 0.143,-0.443 0.259,-0.635c0.223,-0.372 1.232,-0.559 1.578,-0.276c0.128,0.105 0.147,0.358 0.169,0.512c0.114,0.796 -0.565,1.352 -1.315,1.258l-0.651,-0.573Zm11.058,0.221c-0.065,-0.194 -0.155,-0.52 -0.303,-0.668c-0.166,-0.166 -0.426,-0.178 -0.489,-0.45c-0.107,-0.463 0.939,-0.932 1.303,-0.854c0.921,0.198 0.868,1.61 0.051,1.883l-0.562,0.089Zm-21.171,-0.446c-0.793,0 -1.528,-1.43 -0.562,-1.753c0.555,-0.184 1.101,-0.031 1.101,0.607c0,0.133 -0.007,0.294 -0.107,0.394l-0.432,0.752Zm23.913,-0.587c0.231,-0.347 0.209,-0.918 0.798,-0.967c0.471,-0.039 0.933,0.909 0.589,1.253l-1.387,-0.286Zm-21.261,-0.222c-0.272,-0.135 0.242,-0.734 0.331,-0.831c0.25,-0.273 0.677,-0.275 0.966,-0.5c0.389,-0.302 0.622,-0.692 0.871,-1.107c0.106,-0.176 0.286,-0.339 0.506,-0.298c0.402,0.076 0.523,0.742 0.365,1.057c-0.208,0.417 -0.711,0.532 -1.039,0.831c-0.472,0.429 -0.603,1.343 -1.41,1.343l-0.59,-0.495Zm-16.136,0c-0.106,-0.317 -0.584,-0.354 -0.584,-0.741c-0,-0.807 1.326,-1.128 1.202,-0.135c-0.017,0.134 -0.03,0.273 -0.084,0.399l-0.534,0.477Zm9.798,-0.134c-0.316,-0 -0.587,0.154 -0.921,0.05c-0.325,-0.102 -0.303,-0.452 -0.208,-0.719c0.242,-0.679 1.23,-1.309 1.646,-0.478c0.086,0.171 0.051,0.332 0.051,0.512l-0.568,0.635Zm17.349,-0.18c-0.234,-0 -0.224,-0.369 -0.224,-0.517c-0,-0.381 0.243,-1.118 0.696,-1.146c1.206,-0.076 1.314,1.562 0.101,1.562l-0.573,0.101Zm-23.326,-0.09c-0.675,-0 -0.936,-0.504 -0.787,-1.101c0.078,-0.312 0.182,-0.619 0.539,-0.686c1.014,-0.19 1.506,1.33 0.557,1.736l-0.309,0.051Zm18.159,-3.869c0.175,-0.349 0.861,-0.203 0.933,0.157c0.104,0.522 -0.421,0.853 -0.511,1.304c-0.111,0.552 0.384,1.014 0.112,1.612c-0.099,0.219 -0.517,0.724 -0.792,0.624c-0.145,-0.053 -0.229,-0.295 -0.303,-0.416c-0.279,-0.453 -0.421,-0.947 -0.13,-1.433l0.691,-1.848Zm-15.238,3.419c-0.262,0.131 -0.688,-0.154 -0.798,-0.387c-0.17,-0.362 -0.075,-0.841 0.191,-1.141c0.448,-0.503 1.199,-0.078 1.309,0.472c0.051,0.253 -0.15,0.473 -0.297,0.657l-0.405,0.399Zm26.16,-0.722c-0.49,0.245 -0.899,-0.663 -0.556,-1.006c0.512,-0.511 1.769,-0.032 1.185,0.697l-0.629,0.309Zm-17.306,-0.491c-0.205,-0 -0.421,-0.043 -0.606,-0.129c-0.159,-0.074 -0.376,-0.148 -0.489,-0.287c-0.155,-0.189 -0.02,-0.479 0.062,-0.668c0.226,-0.53 0.859,-0.907 1.415,-1.012c0.574,-0.107 0.759,0.335 0.568,0.832c-0.085,0.221 -0.267,0.389 -0.388,0.59l-0.562,0.674Zm8.989,-0c0,-0.139 -0.218,-0.22 -0.292,-0.315c-0.121,-0.156 -0.123,-0.371 -0.112,-0.562c0.007,-0.121 0.053,-0.246 0.107,-0.354c0.5,-1.001 1.512,0.331 0.848,0.995l-0.551,0.236Zm-26.967,-0.18c-0.078,-0.157 -0.353,-0.163 -0.461,-0.331c-0.203,-0.32 -0.119,-0.72 -0.415,-0.989c-0.246,-0.223 -0.803,-0.272 -0.899,-0.635c-0.172,-0.645 0.733,-1.294 1.275,-0.888c0.641,0.481 0.815,1.736 0.815,2.472l-0.315,0.371Zm32.812,-0.228c-0.146,-0 -0.279,0.021 -0.427,-0.028c-1.19,-0.397 0.437,-1.909 0.731,-1.028c0.033,0.099 0.049,0.21 0.056,0.314c0.008,0.133 0.049,0.28 0.005,0.41l-0.365,0.332Zm-29.037,-0.311c-0.368,-0.185 -0.577,-0.268 -1.011,-0.214c-0.105,0.013 -0.362,0.127 -0.432,0c-0.085,-0.153 0.147,-0.494 0.224,-0.618c0.285,-0.456 0.801,-1.098 1.427,-0.837c0.651,0.271 1.164,0.972 0.658,1.579c-0.08,0.095 -0.204,0.25 -0.332,0.275l-0.534,-0.185Zm10.248,-0.135c-0.132,-0.264 -0.255,-0.496 -0.32,-0.787c-0.136,-0.612 0.228,-1.757 1.073,-1.219c0.73,0.465 0.395,1.683 -0.258,2.056l-0.495,-0.05Zm-2.382,-0.09c-0.363,-0.242 -1.142,-0.369 -1.348,-0.781c-0.178,-0.356 0.622,-0.709 0.859,-0.764c0.792,-0.183 1.097,0.89 0.91,1.449l-0.421,0.096Zm-4.899,-0.764c-0.252,-0.126 0.242,-0.69 0.315,-0.798c0.242,-0.364 1.068,-0.935 1.522,-0.646c0.467,0.297 0.042,1.143 -0.309,1.332c-0.264,0.142 -0.592,0.268 -0.826,0.455l-0.702,-0.343Zm22.518,-0c-0,-0.263 -0.215,-0.486 -0.163,-0.781c0.03,-0.173 0.149,-0.362 0.253,-0.5c0.101,-0.135 0.226,-0.245 0.393,-0.281c0.142,-0.03 0.292,-0.069 0.438,-0.039c0.901,0.18 0.391,1.448 -0.404,1.348l-0.517,0.253Zm-7.594,-1.442c-0,-0.548 1.006,-0.475 1.174,-0.073c0.385,0.925 -0.936,1.867 -1.517,0.995l0.343,-0.922Zm5.213,-1.393c0.134,-0 0.248,0.06 0.371,0.101c0.88,0.293 0.133,1.795 -0.668,0.905c-0.084,-0.094 -0.148,-0.229 -0.163,-0.354l0.46,-0.652Zm-10.564,0.633c0,-0.209 0.082,-0.467 0.163,-0.658c0.124,-0.288 0.228,-0.503 0.556,-0.578c0.595,-0.138 1.351,0.355 1.04,1.039c-0.079,0.174 -0.268,0.366 -0.41,0.489c-0.165,0.141 -0.286,0.281 -0.512,0.281l-0.837,-0.573Zm-12.944,0.449c-0.249,-0.124 -0.469,-0.181 -0.708,-0.376c-0.507,-0.415 0.402,-1.48 0.983,-0.899c0.091,0.09 0.134,0.2 0.169,0.32c0.038,0.132 0.061,0.275 0.034,0.41l-0.478,0.545Zm16.272,-1.217c0.137,0 0.324,0.03 0.455,0.067c1.176,0.336 -0.465,1.759 -0.736,0.675c-0.026,-0.105 -0.069,-0.211 -0.05,-0.321l0.331,-0.421Zm-23.508,0.857c0.106,0.054 -0.272,0.013 -0.349,-0.078c-0.181,-0.217 -0.435,-0.569 -0.309,-0.865c0.183,-0.427 1.023,-0.155 1.073,0.247l-0.415,0.696Zm15.551,-0.179c-0.237,0.118 -0.408,-0.366 -0.455,-0.517c-0.142,-0.455 -0.125,-1.22 0.393,-1.455c0.803,-0.365 1.453,1.607 0.77,2.017l-0.708,-0.045Zm-18.293,-0.18c0.109,0.218 -0.157,0.19 -0.326,0.174c-0.264,-0.025 -1.125,-0.2 -1.005,-0.618c0.126,-0.443 0.786,-0.57 1.174,-0.584c0.235,-0.009 0.498,0.144 0.46,0.41l-0.303,0.618Zm7.371,0.045c-0.144,-0 -0.285,-0.113 -0.404,-0.18c-0.132,-0.074 -0.251,-0.166 -0.337,-0.292c-0.604,-0.878 0.927,-1.676 1.123,-0.629c0.025,0.13 0.03,0.262 0.011,0.393l-0.393,0.708Zm5.304,-0.09c-0.141,-0.282 -0.562,-0.342 -0.708,-0.663c-0.284,-0.624 0.413,-1.806 1.168,-1.399c0.756,0.407 0.397,1.803 -0.382,1.933l-0.078,0.129Zm-16.833,-1.047c0.018,0.002 0.065,-0.108 0.071,-0.119c0.048,-0.096 0.114,-0.184 0.219,-0.219c0.295,-0.099 0.689,-0.092 0.921,0.14c0.504,0.504 -0.266,0.715 -0.663,0.478l-0.548,-0.28c-0.001,-0 -0.001,-0.001 -0.002,-0.001l0.002,0.001Zm34.723,-0.889c0.262,-0 0.576,-0.024 0.742,0.236c0.267,0.42 -0.001,1.004 -0.529,0.966c-0.215,-0.015 -0.323,-0.231 -0.483,-0.337l0.27,-0.865Zm-14.969,0.812c-0.181,-0.09 -0.195,-0.494 -0.253,-0.668c-0.059,-0.179 -0.139,-0.327 -0.151,-0.523c-0.012,-0.183 -0.041,-0.49 0.061,-0.651c0.194,-0.305 0.532,-0.004 0.686,0.134c0.359,0.323 0.683,0.874 0.399,1.349l-0.742,0.359Zm12.497,-1.307c0.175,0 0.32,0.049 0.489,0.073c0.493,0.071 0.651,0.709 0.309,1.051c-0.306,0.305 -1.051,0.157 -1.107,-0.292l0.309,-0.832Zm-7.283,0.768c-0.256,0.128 -0.27,-0.167 -0.27,-0.382c0,-0.553 0.301,-1.237 0.967,-0.927c0.184,0.086 0.236,0.314 0.275,0.494c0.124,0.578 -0.054,1.413 -0.871,1.141l-0.101,-0.326Zm-15.731,-0.135c-0.338,0.169 -0.793,-0.063 -1.023,-0.303c-0.123,-0.129 -0.3,-0.357 -0.14,-0.528c0.244,-0.261 1.354,-0.22 1.354,0.247l-0.191,0.584Zm5.393,-0.449c-0.13,-0.261 -0.524,-0.323 -0.657,-0.607c-0.06,-0.128 -0.084,-0.266 -0.101,-0.405c-0.061,-0.489 0.449,-0.925 0.927,-0.707c0.343,0.155 0.428,0.647 0.359,0.966c-0.024,0.114 -0.033,0.245 -0.106,0.343l-0.422,0.41Zm15.326,-1.256c0.019,0.016 0.201,0.029 0.233,0.022c0.164,-0.035 0.32,-0.083 0.489,-0.096c0.35,-0.027 0.422,0.361 0.404,0.63c-0.046,0.688 -1.042,0.879 -1.477,0.443l0.351,-0.999c-0.002,-0.002 -0.002,-0.004 0.003,-0.006l-0.003,0.006Zm-2.921,-1.126c0,-0.422 0.555,-0.952 0.922,-0.54c0.395,0.445 0.517,1.057 0.517,1.641c-0,0.815 -0.709,0.738 -1.096,0.241c-0.265,-0.341 -0.163,-0.65 -0.163,-1.05l-0.18,-0.292Zm-23.506,1.663c-0.233,-0 -0.441,-0.016 -0.663,-0.096c-0.159,-0.057 -0.314,-0.136 -0.45,-0.236c-0.863,-0.638 0.368,-1.508 0.955,-0.725l0.158,1.057Zm18.922,-0.18c-0,-0.228 -0.333,-0.357 -0.315,-0.652c0.009,-0.137 0.053,-0.263 0.09,-0.393c0.104,-0.363 0.566,-0.563 0.877,-0.309c0.397,0.325 0.308,1.312 -0.231,1.466l-0.421,-0.112Zm-22.383,-0.18c-0.07,0.139 -0.341,0.128 -0.466,0.118c-0.421,-0.034 -0.951,-0.385 -0.646,-0.86c0.241,-0.375 0.785,-0.344 1.101,-0.095c0.138,0.109 0.328,0.339 0.247,0.528l-0.236,0.309Zm6.382,-0.09c-0.144,0.048 -0.288,0.09 -0.444,0.09c-0.109,-0 -0.248,-0.022 -0.348,-0.067c-1.142,-0.519 0.886,-1.769 1.034,-0.585l-0.242,0.562Zm5.214,0.045c-0.04,0.08 -0.273,-0.046 -0.32,-0.073c-0.235,-0.137 -0.383,-0.312 -0.354,-0.601c0.03,-0.301 0.651,-1.135 1.034,-0.944c0.236,0.118 0.2,0.562 0.235,0.775l-0.595,0.843Zm-2.562,-1.393c0.101,0.033 0.086,0.194 0.028,0.258c-0.294,0.323 -0.783,0.177 -0.91,-0.219c-0.037,-0.114 -0.04,-0.24 0,-0.354c0.206,-0.593 1.386,-0.486 1.247,0.141l-0.365,0.174Zm8.36,0.404c-0.522,0 -0.569,-0.336 -0.832,-0.674c-0.11,-0.143 -0.31,-0.206 -0.387,-0.376c-0.126,-0.277 0.463,-0.596 0.674,-0.641c0.677,-0.145 1.573,0.865 0.994,1.444l-0.449,0.247Zm2.292,-0.494c-0.095,-0.191 -0.103,-0.395 -0.09,-0.607c0.011,-0.164 0.056,-0.332 0.152,-0.466c0.067,-0.095 0.169,-0.173 0.275,-0.219c1.047,-0.459 1.139,1.864 0.197,1.595l-0.534,-0.303Zm-5.483,-0.315c-0.161,0 -0.381,-0.217 -0.5,-0.309c-0.541,-0.416 -0.749,-1.164 -0.017,-1.505c0.755,-0.353 1.945,0.403 1.157,1.191l-0.64,0.623Zm10.158,-0.269c-0.077,-0.154 -0.169,-0.294 -0.18,-0.472c-0.008,-0.131 0.002,-0.292 0.062,-0.411c0.506,-1.012 1.738,0.148 0.96,0.77c-0.142,0.114 -0.281,0.158 -0.449,0.214l-0.393,-0.101Zm-28.226,-0c0.041,0.02 -0.384,0.084 -0.467,0.061c-0.301,-0.082 -0.541,-0.357 -0.449,-0.679c0.204,-0.716 1.313,-0.98 1.095,-0l-0.179,0.618Zm2.562,-0.54c-0.073,0.109 -0.13,0.26 -0.259,0.315c-0.471,0.202 -0.681,-0.716 -0.539,-1c0.171,-0.342 0.994,-0.594 0.994,-0.028l-0.196,0.713Zm2.292,0.225c0.074,0.037 -0.374,0.016 -0.45,-0.011c-0.265,-0.098 -0.386,-0.344 -0.331,-0.618c0.05,-0.253 0.555,-0.957 0.876,-0.832c0.202,0.079 0.203,0.427 0.214,0.601l-0.309,0.86Zm-7.911,-0.315c-0.114,0.23 -0.449,0.204 -0.449,-0.078c-0,-0.319 0.589,-1.182 0.837,-0.624l-0.388,0.702Zm10.787,0c0,0.225 -0.356,0.127 -0.466,0.096c-0.318,-0.091 -0.715,-0.313 -0.736,-0.686c-0.02,-0.365 0.563,-0.907 0.927,-0.702c0.202,0.114 0.296,0.414 0.32,0.629l-0.045,0.663Zm7.37,-0.758l-0.358,0.399c-0.052,0.103 -0.425,0.09 -0.517,0.078c-0.451,-0.056 -0.876,-0.259 -0.876,-0.775c-0,-0.76 0.923,-1.047 1.5,-0.68c0.289,0.184 0.361,0.464 0.438,0.77l-0.168,0.187c-0,0.003 -0,0.006 -0.001,0.01l-0.018,0.011Zm-4.358,0.039c-0.265,0.529 -0.869,-0.02 -0.888,-0.399c-0.041,-0.804 1.148,-0.988 1.332,-0.253l-0.444,0.652Zm15.551,-0.404c-0.667,0.222 -0.721,-1.052 -0.023,-1.191c0.417,-0.084 0.727,0.192 0.776,0.584c0.01,0.079 0.03,0.757 -0.141,0.629l-0.612,-0.022Zm-25.664,-0.495c0.009,0.019 -0.411,-0.14 -0.466,-0.168c-0.347,-0.174 -0.59,-0.523 -0.338,-0.888c0.221,-0.319 0.715,-0.412 1.057,-0.242c0.297,0.149 0.261,0.496 0.011,0.663l-0.264,0.635Zm19.596,-0.539c0,-0.242 0.043,-0.47 0.146,-0.691c0.07,-0.15 0.146,-0.29 0.281,-0.393c0.701,-0.536 1.104,0.018 1.146,0.702c0.01,0.163 0.074,0.339 -0.022,0.489c-0.144,0.224 -0.519,0.286 -0.764,0.286c-0.138,0 -0.308,-0.022 -0.433,-0.084l-0.354,-0.309Zm3.191,0.225c-0.172,-0 -0.141,-0.374 -0.129,-0.472c0.053,-0.423 0.269,-1.142 0.865,-0.871c0.598,0.272 0.016,1.588 -0.511,1.5l-0.225,-0.157Zm-25.304,-0.315c-0.164,0 -0.294,0.134 -0.472,0.079c-0.611,-0.191 -0.462,-1.019 0.011,-1.264c0.252,-0.131 0.573,-0.104 0.573,0.241l-0.112,0.944Zm8.809,-0.09c-0.107,0.054 -0.406,-0.1 -0.505,-0.14c-0.12,-0.048 -0.237,-0.116 -0.337,-0.197c-0.964,-0.771 1.221,-1.556 0.977,-0.461l-0.135,0.798Zm-3.236,-0.359c0,0.219 -0.347,0.326 -0.511,0.252c-0.246,-0.11 -0.43,-0.467 -0.354,-0.73c0.125,-0.432 1.202,-0.79 1.202,-0.157l-0.337,0.635Zm14.832,0.269c-0.141,-0.282 -0.636,-0.232 -0.708,-0.64c-0.084,-0.481 0.211,-1.125 0.776,-0.983c0.1,0.025 0.253,0.056 0.314,0.151c0.125,0.197 0.122,0.489 0.09,0.708l-0.472,0.764Zm-5.303,-0.989c-0.434,0.869 -1.603,-0.689 -0.624,-0.927c0.124,-0.03 0.257,-0.028 0.382,-0.005c0.159,0.029 0.305,0.092 0.388,0.236l-0.146,0.696Zm2.921,0.135c-0.055,0.111 -0.31,-0.138 -0.343,-0.18c-0.203,-0.258 -0.192,-0.777 0.107,-0.966c0.383,-0.242 1.187,0.204 0.893,0.674l-0.657,0.472Zm-6.472,-0.314c-0.168,0.505 -1.093,-0.172 -1.034,-0.545c0.054,-0.338 1.242,-0.502 1.242,-0.096l-0.208,0.641Zm-14.877,-0.899c-0.417,0.278 -1.115,-0.279 -0.899,-0.742c0.261,-0.56 0.983,0.019 0.983,0.45l-0.084,0.292Zm5.169,-0.315c-0,0.575 -1.074,0.227 -1.028,-0.315c0.056,-0.676 1.073,-0.679 1.073,0.023l-0.045,0.292Zm2.607,-0.225c-0.075,0.15 -0.418,0.136 -0.54,0.09c-0.325,-0.122 -0.638,-0.552 -0.562,-0.91c0.149,-0.693 1.377,-0.78 1.321,0.062l-0.219,0.758Zm3.191,-0.179c-0.139,0.055 -0.266,0.17 -0.427,0.14c-0.507,-0.095 -0.689,-0.885 -0.354,-1.236c0.549,-0.575 0.938,0.042 0.938,0.562l-0.157,0.534Zm8.674,-0.45c0.103,0.155 -0.111,0.284 -0.247,0.247c-0.417,-0.111 -0.667,-0.799 -0.416,-1.14c0.333,-0.452 1.083,0.08 0.972,0.562l-0.309,0.331Zm-2.966,-0.09c-0.423,0.846 -1.518,-1.055 -0.461,-0.859c0.111,0.02 0.21,0.073 0.303,0.135c0.133,0.086 0.274,0.191 0.354,0.331l-0.196,0.393Zm-14.293,0.09c0.028,0.014 -0.248,0.008 -0.298,-0.005c-0.23,-0.064 -0.627,-0.111 -0.657,-0.411c-0.041,-0.409 0.704,-0.571 0.983,-0.404l-0.028,0.82Zm11.461,-0.809c0,0.222 -0.299,0.253 -0.46,0.253c-0.326,-0 -0.831,-0.287 -0.798,-0.663c0.063,-0.722 1.681,-1.115 1.477,-0.197l-0.219,0.607Zm-8.719,-0.449c0.222,0.111 -0.406,0.754 -0.68,0.275c-0.05,-0.087 -0.078,-0.176 -0.09,-0.275c-0.012,-0.103 -0.005,-0.226 0.039,-0.321c0.314,-0.661 1.413,-0.502 1.135,0.332l-0.404,-0.011Zm-5.798,0.179c-0.124,0.042 -0.247,0.099 -0.382,0.09c-0.092,-0.005 -0.186,-0.022 -0.27,-0.061c-0.775,-0.362 0.461,-1.385 0.556,-0.529c0.011,0.101 -0.004,0.199 -0.017,0.298l0.113,0.202Zm10.113,-0.314c-0.505,-0 -0.569,-0.38 -0.444,-0.67c0.126,-0.29 0.441,-0.491 0.696,-0.134l-0.252,0.804Z" style="fill:#ec783b;"/></g></g></svg>