<?xml version="1.0" encoding="UTF-8" standalone="no"?><!DOCTYPE svg PUBLIC "-//W3C//DTD SVG 1.1//EN" "http://www.w3.org/Graphics/SVG/1.1/DTD/svg11.dtd"><svg width="100%" height="100%" viewBox="0 0 150 150" version="1.1" xmlns="http://www.w3.org/2000/svg" xmlns:xlink="http://www.w3.org/1999/xlink" xml:space="preserve" xmlns:serif="http://www.serif.com/" style="fill-rule:evenodd;clip-rule:evenodd;stroke-linejoin:round;stroke-miterlimit:2;"><path id="base" d="M150,75c0,-41.394 -33.606,-75 -75,-75c-41.394,0 -75,33.606 -75,75c0,41.394 33.606,75 75,75c41.394,0 75,-33.606 75,-75Z" style="fill:#03214f;"/><path id="outline" d="M144,75c0,-38.082 -30.918,-69 -69,-69c-38.082,0 -69,30.918 -69,69c0,38.082 30.918,69 69,69c38.082,0 69,-30.918 69,-69Z" style="fill:#1fbaed;"/><path id="core" d="M141,75c0,-36.426 -29.574,-66 -66,-66c-36.426,0 -66,29.574 -66,66c0,36.426 29.574,66 66,66c36.426,0 66,-29.574 66,-66Z" style="fill:#fff;"/><clipPath id="_clip1"><path d="M141,75c0,-36.426 -29.574,-66 -66,-66c-36.426,0 -66,29.574 -66,66c0,36.426 29.574,66 66,66c36.426,0 66,-29.574 66,-66Z"/></clipPath><g clip-path="url(#_clip1)"><g id="ceez"><path d="M52.042,123.521l5.117,-26.243c-1.898,-3.363 -2.157,-5.942 -2.32,-10.231l-5.616,-25.243l54.809,0.063l-2.248,21.139c0.025,6.705 -1.41,11.253 -2.709,14.399l3.391,26.662l-50.424,-0.546Z" style="fill:#d48071;"/><path d="M58.306,82.179c-1.589,-3.142 -2.316,-6.714 -2.569,-10.523c6.005,-2.375 12.23,-3.351 20.909,-0.176c0.642,4.241 -0.068,8.03 -2.368,11.2c-5.464,2.459 -10.775,2.051 -15.972,-0.501Zm24.253,-11.651c-1.688,3.297 -0.997,6.905 1.391,10.736c1.078,2.721 13.708,1.723 15.66,-2.029l1.992,-10.398c-6.315,-1.53 -12.662,-0.989 -19.043,1.691Z" style="fill:#c06c19;"/><path d="M59.57,68.88l8.447,0.448c2.927,-0.346 6.57,0.44 9.297,1.563l3.783,-0.2c2.9,-1.656 5.878,-2.863 9.045,-2.982l9.296,-0.642l2.681,3.799c-0.188,4.086 -1.131,7.582 -3.458,9.997c-7.03,3.461 -10.874,2.732 -14.281,1.429c-2.183,-2.421 -3.506,-5.129 -3.684,-8.219c-1.1,-0.423 -2.173,-0.428 -3.207,0.151c0.526,3.566 -1.109,6.522 -3.658,9.22c-6.809,2.122 -11.883,1.52 -15.685,-0.902c-1.741,-2.848 -2.659,-5.713 -2.931,-8.494l0.215,-2.902l1.363,-1.733l-0.002,4.182c-0.304,2.986 0.674,5.862 2.303,8.435c5.086,1.983 9.525,2.572 13.507,0.621c1.337,-1.097 2.324,-2.851 2.833,-4.983c0.627,-2.628 0.906,-4.209 -0.116,-5.471c-1.031,-0.991 -4.128,-1.519 -9.781,-1.475l-6.252,-0.11l0.285,-1.732Zm35.827,0.057c-6.74,0.553 -11.278,1.362 -12.291,2.743c-1.624,2.553 -0.593,5.83 1.579,9.418c3.662,1.878 8.231,1.719 14.102,-1.371c1.296,-2.883 2.085,-5.888 1.656,-9.186l-1.181,-1.813l-3.865,0.209Z" style="fill:#17102b;"/><path d="M4.087,111.232l7.811,-13.91c-0,-0 0.392,0.206 1.149,-0.467c0.757,-0.673 0.813,-1.122 1.598,-1.571c0.786,-0.448 1.487,-0.701 2.553,-1.234c1.065,-0.533 0.308,-0.504 2.299,-1.121c1.992,-0.617 2.104,-0.646 3.198,-1.094c1.093,-0.449 1.234,-0.281 1.935,-1.01c0.701,-0.729 1.823,-1.234 2.215,-1.963c0.393,-0.729 0.449,-0.954 0.87,-1.683c0.42,-0.729 -0.141,-0.617 0.841,-1.065c0.982,-0.449 0.813,-0.758 3.393,-0.589c2.581,0.168 5.273,0.28 6.199,0.336c0.925,0.056 1.766,-0.028 3.309,0.533c1.542,0.561 1.655,0.673 2.3,0.701c0.645,0.028 1.458,-0.336 1.794,-0.673c0.337,-0.337 1.347,-0.785 1.823,-0.561c0.477,0.224 1.066,0.196 1.431,0.421c0.364,0.224 -0.477,-0.589 1.037,0.841c1.515,1.43 0.941,0.679 1.839,1.969c0.897,1.29 1.377,0.964 2.218,1.833c0.841,0.87 1.627,2.16 2.44,3.17c0.813,1.009 0.897,1.71 0.869,2.496c-0.028,0.785 0.74,6.855 0.711,7.64c-0.028,0.785 0.842,2.356 1.515,3.786c0.673,1.43 1.991,3.702 3.001,4.684c1.009,0.981 3.842,4.094 5.272,4.627c1.431,0.533 3.786,1.122 6.086,1.346c2.3,0.225 7.797,0.729 9.227,0.168c1.43,-0.56 3.309,-1.149 5.02,-2.187c1.711,-1.038 3.758,-4.656 4.74,-5.974c0.981,-1.318 3.001,-5.581 3.477,-6.899c0.477,-1.318 1.291,-2.524 1.543,-3.393c0.252,-0.87 0.224,-2.468 0.224,-2.468c0,-0 0.786,-2.721 1.038,-3.31c0.252,-0.589 0.701,-1.206 1.15,-2.103c0.449,-0.898 0.841,-2.244 1.234,-2.496c0.393,-0.253 2.328,-0.056 3.281,0.336c0.954,0.393 1.879,0.645 3.338,1.431c1.458,0.785 1.346,0.645 3.141,1.262c1.795,0.617 2.608,0.168 3.477,1.065c0.87,0.898 1.346,1.487 2.524,2.44c1.178,0.954 4.319,4.011 6.002,5.525c1.683,1.515 1.655,2.02 2.945,2.44c1.29,0.421 1.15,0.393 2.608,0.533c1.458,0.14 2.047,0.14 3.365,0.309c1.319,0.168 1.571,-0.113 2.553,0.14c0.981,0.252 7.516,4.291 7.516,4.291l-70.039,60.439l-68.07,-58.991Z" style="fill:#10040b;"/><path d="M79.415,95.646c-0.11,-1.379 -1.503,-2.631 -2.255,-2.881c-0.752,-0.251 -1.566,0.376 -2.506,0.877c-0.939,0.501 -1.879,0.877 -2.505,0.939c-0.627,0.063 -0.815,-0.062 -2.882,0.063c-2.067,0.125 -1.315,-0.25 -2.129,0.125c-0.815,0.376 -2.13,0.501 -2.255,1.817c-0.126,1.315 -0.314,0.752 -0.376,2.443c-0.063,1.691 -0.501,2.819 -1.316,2.067c-0.814,-0.752 -1.19,-1.503 -2.129,-2.694c-0.94,-1.19 -3.633,-1.691 -2.067,0.815c1.566,2.505 2.442,4.76 3.194,6.702c0.752,1.942 0.501,2.067 2.318,3.821c1.816,1.754 2.631,2.756 3.821,4.134c1.19,1.378 1.002,1.754 3.57,2.631c2.568,0.877 1.566,1.065 4.385,1.253c2.819,0.188 3.32,0.501 5.575,0.062c2.255,-0.438 2.004,-1.753 2.631,-2.004c0.626,-0.251 3.57,-0.376 4.009,-1.879c0.438,-1.503 1.127,-2.631 1.753,-3.571c0.627,-0.939 1.003,-1.002 1.88,-2.317c0.877,-1.316 0.877,-1.19 1.879,-3.007c1.002,-1.816 0.689,-1.315 1.566,-2.819c0.877,-1.503 1.628,-2.63 2.067,-4.009c0.438,-1.378 2.192,-2.568 0.877,-2.568c-1.316,0 -1.128,1.19 -2.13,1.378c-1.002,0.188 -2.13,-0.375 -2.13,-0.375c0,-0 0.063,-0.94 -1.566,-1.629c-1.628,-0.689 -4.009,-0.94 -5.512,-1.002c-1.503,-0.063 -2.004,-0.314 -3.257,-0.314c-1.253,0 -1.378,-0.375 -2.318,0.188c-0.939,0.564 -1.514,0.657 -1.44,1.566c0.166,2.056 1.566,1.566 2.442,2.13c0.877,0.564 0.689,0.439 2.944,0.439c2.255,-0 3.32,-0.439 3.947,-0c0.626,0.438 1.816,1.002 1.816,2.38c0,1.378 0.188,0.814 -0.188,2.443c-0.375,1.628 -0.375,1.754 -1.002,3.257c-0.626,1.503 -1.378,1.879 -2.067,2.693c-0.689,0.815 -0.438,0.815 -1.566,1.692c-1.127,0.877 -0.626,0.877 -2.192,1.315c-1.566,0.439 -3.884,1.002 -5.513,0.877c-1.628,-0.125 -1.753,-0.063 -3.131,-0.626c-1.379,-0.564 -1.191,-0.627 -2.318,-1.19c-1.128,-0.564 -0.251,0.125 -2.13,-1.003c-1.879,-1.127 -2.067,-0.877 -2.819,-1.941c-0.751,-1.065 -1.378,-1.128 -1.378,-2.068c0,-0.939 0.188,-0.814 0.314,-2.255c0.125,-1.44 0.062,-1.691 0.062,-2.818c0,-1.128 -1.315,-1.817 0.877,-2.193c2.192,-0.376 1.566,-0.689 3.445,-0.501c1.879,0.188 1.566,0.313 3.257,0.251c1.692,-0.063 1.942,0.125 2.506,-0.313c0.564,-0.439 2.067,-0.815 1.942,-2.381Z" style="fill:#442522;"/><path d="M52.584,73.515c-0.806,-0.354 -1.379,-1.447 -1.447,-3.028c-0.067,-1.581 -0.96,-10.571 -1.397,-12.052c-0.437,-1.48 -0.486,-3.255 -0.554,-4.466c-0.067,-1.211 -0.302,-3.297 -0.134,-4.239c0.168,-0.942 0.572,-2.59 1.076,-4.138c0.505,-1.547 0.976,-3.095 1.514,-4.743c0.538,-1.649 1.178,-2.927 2.12,-3.869c0.941,-0.942 3.128,-1.817 4.642,-2.86c1.514,-1.042 3.095,-2.186 4.407,-2.724c1.312,-0.539 2.658,-0.976 4.542,-1.043c1.884,-0.068 4.676,-1.38 6.223,-1.447c1.548,-0.067 2.826,0.336 4.677,0.404c1.85,0.067 2.085,-0.37 5.046,0.033c2.96,0.404 3.566,0.27 5.282,1.111c1.715,0.841 4.238,1.783 5.651,3.095c1.413,1.312 5.585,6.459 5.921,7.3c0.337,0.841 0.74,1.446 1.11,3.297c0.37,1.85 0.135,5.18 0,6.392c-0.134,1.211 -0.168,1.614 0.471,3.128c0.64,1.514 0.942,4.508 1.312,5.618c0.37,1.111 5.646,7.491 5.613,8.601c-0.034,1.11 -4.232,5.162 -5.443,4.287c-1.211,-0.874 -5.081,-2.728 -6.326,-3.098c-1.245,-0.37 -4.844,-1.85 -6.594,-2.018c-1.749,-0.169 -5.147,-0.909 -7.401,-0.741c-2.254,0.169 -8.208,0.808 -10.059,1.447c-1.85,0.639 -4.81,1.514 -5.685,1.951c-0.875,0.438 -4.845,1.75 -7.738,2.692c-2.893,0.942 -4.834,1.984 -6.829,1.11Z" style="fill:#381c38;"/><path d="M54.883,89.717c-0,0 -2.866,0.12 -3.761,-0.358c-0.896,-0.477 -1.135,-2.447 -1.254,-3.462c-0.12,-1.015 -0.776,-1.373 -2.03,-2.03c-1.254,-0.657 -3.522,-1.97 -4.477,-2.567c-0.956,-0.597 -1.911,-2.508 -2.747,-6.627c-0.835,-4.119 -1.91,-8.597 -1.134,-10.149c0.776,-1.552 -0.418,-2.686 2.09,-3.283c2.507,-0.597 3.283,-0.717 3.283,-0.717c0,0 -2.089,-3.88 -1.492,-5.253c0.597,-1.373 0.358,-3.284 0.358,-3.284c-0,0 -0.717,-0.835 -0.717,-3.044c0,-2.209 0.359,-2.866 1.015,-3.045c0.657,-0.179 2.15,-0.119 2.15,-0.119c-0,-0 1.074,-2.388 1.492,-4.119c0.418,-1.732 0.418,-1.851 0.418,-1.851c-0,-0 4.358,-10.089 12.537,-11.403c8.179,-1.313 25.372,-3.104 31.879,1.732c6.507,4.835 11.582,9.79 11.88,18.029c0,-0 -0.059,1.552 -0.716,1.91l0.298,1.373c0,0 3.403,0.299 3.463,1.075c0.06,0.776 0.716,4 0.716,5.791c0,1.791 -0.239,2.089 0.478,2.746c0.716,0.656 1.254,-0.358 1.612,0.537c0.358,0.896 1.612,2.328 1.612,3.701c-0,1.373 0.298,5.314 0.179,7.403c-0.12,2.09 -1.135,8.119 -2.269,9.194c-1.134,1.074 -2.567,2.03 -3.164,1.313c-0.597,-0.716 -0.955,-0.836 -0.955,-0.836c-0,0 -0.299,3.105 -0.299,3.821c0,0.717 0.18,0.179 -1.373,1.552c-1.552,1.373 -1.373,1.911 -2.507,1.732c-1.134,-0.18 -1.433,-0.597 -1.433,-0.597c0,-0 0.299,-8.716 0.418,-9.851c0.119,-1.134 1.588,-7.028 1.588,-7.685c0,0 1.457,1.297 2.531,0.342c1.075,-0.955 2.209,-2.328 1.493,-3.821c-0.717,-1.492 -2.687,-7.641 -3.164,-8.775c-0.478,-1.135 -1.433,-5.612 -1.075,-6.328c0.358,-0.717 1.194,-1.194 0.896,-1.851c-0.299,-0.657 -1.135,-1.254 -1.075,-2.627c0.06,-1.373 0.239,-6.268 -3.642,-10.567c-3.88,-4.298 -7.76,-7.104 -11.283,-7.88c-3.522,-0.776 -10.208,-1.194 -14.507,-0.537c-4.298,0.656 -9.91,2.328 -12.775,3.641c-1.778,0.815 -4.06,1.254 -4.657,1.433c-0.597,0.179 -1.85,1.911 -2.388,2.806c-0.537,0.896 -2.447,3.463 -3.164,7.821c-0.716,4.358 -0.776,4.955 -1.254,5.313c-0.477,0.358 0.06,1.851 0.06,1.851l1.373,0.955c0,-0 0.239,1.85 0.478,3.044c0.239,1.194 0.597,3.821 0.955,5.433c0.358,1.612 0.597,3.284 0.597,4.418c0,1.134 0.179,2.089 0.119,3.104c-0.059,1.015 -0.179,3.045 0.359,3.463c0.537,0.418 1.492,0.597 1.612,1.313c0.119,0.716 0.656,1.134 0.656,2.448c0,1.313 0.537,3.462 0.776,5.552c0.239,2.089 0.657,6.149 -0.059,7.82Z" style="fill:#10040b;"/></g></g></svg>