<?xml version="1.0" encoding="UTF-8" standalone="no"?><!DOCTYPE svg PUBLIC "-//W3C//DTD SVG 1.1//EN" "http://www.w3.org/Graphics/SVG/1.1/DTD/svg11.dtd"><svg width="100%" height="100%" viewBox="0 0 150 150" version="1.1" xmlns="http://www.w3.org/2000/svg" xmlns:xlink="http://www.w3.org/1999/xlink" xml:space="preserve" xmlns:serif="http://www.serif.com/" style="fill-rule:evenodd;clip-rule:evenodd;stroke-linejoin:round;stroke-miterlimit:2;"><path id="base" d="M150,75c0,-41.394 -33.606,-75 -75,-75c-41.394,0 -75,33.606 -75,75c0,41.394 33.606,75 75,75c41.394,0 75,-33.606 75,-75Z" style="fill:#03214f;"/><path id="outline" d="M144,75c0,-38.082 -30.918,-69 -69,-69c-38.082,0 -69,30.918 -69,69c0,38.082 30.918,69 69,69c38.082,0 69,-30.918 69,-69Z" style="fill:#1fbaed;"/><path id="core" d="M141,75c0,-36.426 -29.574,-66 -66,-66c-36.426,0 -66,29.574 -66,66c0,36.426 29.574,66 66,66c36.426,0 66,-29.574 66,-66Z" style="fill:#fff;"/><clipPath id="_clip1"><path d="M141,75c0,-36.426 -29.574,-66 -66,-66c-36.426,0 -66,29.574 -66,66c0,36.426 29.574,66 66,66c36.426,0 66,-29.574 66,-66Z"/></clipPath><g clip-path="url(#_clip1)"><g id="clint-stevens"><path d="M57.716,111.214l0.358,-1.132c0,0 -1.565,-1.074 -2.131,-2.13c-0.565,-1.056 -2.375,-5.054 -2.413,-6.185c-0,-0 -1.584,0.188 -2.621,-0.566c-1.037,-0.754 -2.395,-3.092 -2.866,-3.564c-0.472,-0.471 -2.32,-4.167 -2.508,-5.789c-0.189,-1.621 -0.207,-5.996 -0.132,-6.957c0.075,-0.962 0.17,-1.754 1.094,-2.621c0.924,-0.868 3.601,-9.372 3.601,-9.372l6.636,-28.533l42.172,-1.848l10.523,31.088l-0.409,7.304c-0,-0 1.153,-0.103 1.525,0.705c0.371,0.807 1.166,2.831 1.114,4.382c-0.051,1.55 -0.64,3.959 -0.768,4.779c-0.129,0.82 -0.718,2.742 -0.974,3.383c-0.257,0.641 -1.294,2.857 -2.076,3.793c-0.782,0.935 -1.576,2.165 -2.076,2.691c-0.5,0.525 -1.397,1.012 -2.268,0.679c0,-0 -1.051,3.652 -1.358,4.19c-0.308,0.538 -0.179,1.691 -0.179,1.691c13.425,48.233 -73.48,54.409 -44.244,4.012Z" style="fill:#caa58a;"/><path d="M33.958,132.935l0.362,-0.565c0,-0 0.521,-0.792 1.109,-1.268c0.588,-0.475 1.856,-1.607 2.444,-2.444c0.589,-0.837 2.422,-5.024 2.897,-5.681c0.475,-0.656 3.508,-6.088 4.368,-6.902c0.86,-0.815 3.146,-2.784 4.164,-3.237c1.019,-0.452 7.288,-2.829 7.786,-2.783c0.498,0.045 0.973,-0.046 1.041,0.679c0.068,0.724 -0.023,3.191 0.022,4.435c0.046,1.245 0.566,4.663 0.589,5.432c0.022,0.77 0.294,3.214 0.226,3.553c-0.068,0.34 -0.045,0.453 -0.679,0.589c-0.634,0.136 -2.014,0.475 -2.444,0.656c-0.43,0.181 -0.837,0.181 -1.222,0.679c-0.385,0.498 -0.679,1.471 -0.543,2.105c0.135,0.633 0.362,1.471 0.226,1.788c-0.136,0.317 0.113,1.063 0.09,1.403c-0.022,0.339 -0.158,1.607 -0.226,1.946c-0.068,0.34 -0.498,0.068 0,0.589c0.498,0.52 1.358,1.131 1.539,1.38c0.181,0.249 0.566,0.905 0.724,1.358c0.159,0.453 0.521,0.792 0.906,1.267c0.384,0.476 0.656,0.951 1.086,1.313c0.43,0.362 0.973,0.792 1.154,1.019c0.181,0.226 1.2,1.131 1.426,1.697c0.226,0.566 0.521,0.769 0.521,0.769l0.067,0.566c-10.871,-0.127 -20.031,-3.677 -27.633,-10.343Zm68.192,-27.317c0,-0 0.136,0.135 0.531,0.27c0.395,0.135 1.248,-0.01 1.601,0.073c0.354,0.083 1.082,0.145 1.498,0.343c0.415,0.198 0.655,0.426 1.591,0.406c0.935,-0.021 1.227,-0.198 1.944,0.01c0.717,0.208 1.435,0.291 2.204,0.593c0.77,0.301 3.858,1.726 4.43,1.975c0.572,0.25 4.16,1.706 4.867,1.81c0.707,0.104 1.747,0.904 2.059,1.237c0.311,0.333 2.308,1.799 2.984,2.381c0.676,0.583 1.258,0.832 1.684,1.144c0.427,0.312 0.801,0.634 0.801,0.634c-11.632,18.16 -25.928,23.227 -40.59,26.49l-0.159,-1.313c0,0 2.513,-3.032 3.237,-3.892c0.724,-0.86 4.685,-5.794 6.088,-7.876c1.403,-2.082 3.055,-5.115 2.965,-6.835c-0.091,-1.72 -0.498,-7.672 -0.521,-8.51c-0.023,-0.837 -0.226,-3.485 -0.113,-4.005c0.113,-0.521 -0,-1.087 0.339,-1.223c0.34,-0.135 1.426,-1.312 1.72,-2.218c0.295,-0.905 0.84,-1.494 0.84,-1.494Z" style="fill:#a05d4c;"/><path d="M111.159,82.677c0,0 -0.52,-0.905 -0.886,-1.329c-0.365,-0.423 -0.905,-0.674 -1.444,-0.385c-0.539,0.289 -0.944,0.424 -1.579,0.79c-0.636,0.366 -0.674,0.346 -0.732,0.539c-0.058,0.192 -0.597,-0.539 -0.616,-1.444c-0.019,-0.906 0.135,-1.098 -0.135,-2.08c-0.27,-0.983 -0.751,-3.736 -0.963,-4.815c-0.212,-1.078 -0.366,-1.618 -0.693,-2.061c-0.328,-0.442 -0.212,0.193 -1.156,-0.731c-0.943,-0.925 -1.29,-0.713 -1.868,-1.984c-0.577,-1.271 -0.905,-2.099 -1.29,-3.235c-0.385,-1.137 -0.289,-1.079 -0.635,-2.234c-0.347,-1.156 -0.424,-2.889 -0.79,-4.372c-0.366,-1.483 -0.135,-1.637 -0.539,-2.272c-0.405,-0.636 0.5,-4.911 -0.193,-5.681c-0.693,-0.771 -0.905,-0.886 -1.772,-1.503c-0.866,-0.616 -1.56,-1.463 -2.85,-2.022c-1.29,-0.558 -1.849,-0.982 -3.1,-1.02c-1.252,-0.039 -6.047,-0.983 -7.357,-0.713c-1.31,0.27 -1.772,0.636 -2.561,1.175c-0.79,0.539 -1.791,0.77 -2.793,0.712c-1.001,-0.057 -2.811,-1.637 -4.275,-1.483c-1.464,0.155 -3.351,-0.231 -5.874,0.597c-2.523,0.829 -3.389,0.944 -4.371,1.56c-0.983,0.617 -1.734,2.369 -2.465,3.409c-0.732,1.04 -3.39,3.235 -3.717,5.046c-0.328,1.81 -0.193,1.81 -0.482,2.946c-0.289,1.136 -0.847,3.274 -0.982,3.794c-0.135,0.52 -0.597,1.868 -1.194,3.197c-0.597,1.329 -0.578,1.444 -1.021,2.484c-0.443,1.04 -0.731,1.733 -0.808,2.658c-0.078,0.924 0.115,4.853 -0.193,5.893c-0.308,1.04 -0.347,2.061 -0.462,2.812c-0.116,0.751 0.173,4.005 0.192,4.506c0,-0 -1.714,-2.195 -2.195,-2.484c-0.482,-0.289 -0.847,-0.636 -1.618,-0.617c-0.77,0.02 -1.29,0.135 -1.695,-0.25c-0.404,-0.385 -0.712,-0.674 -0.924,-1.194c-0.212,-0.52 -0.019,-1.059 0.039,-1.541c0.057,-0.481 -0.077,-1.367 -0.366,-1.521c-0.289,-0.154 -0.905,-0.558 -0.79,-1.194c0.116,-0.636 -1.425,-1.579 -1.637,-2.6c-0.212,-1.021 -0.558,-0.982 -0.327,-1.406c0.231,-0.423 -0.405,-0.192 -1.156,-1.463c-0.751,-1.271 -0.751,-1.175 -1.001,-2.138c-0.25,-0.963 -0.501,-3.004 -0.308,-3.524c0.192,-0.52 2.503,-2.947 2.811,-3.736c0.309,-0.79 0.366,-0.886 0.636,-1.329c0.27,-0.443 -0.443,-1.29 -1.541,-1.271c-1.097,0.019 -1.81,0.25 -1.56,-0.27c0.251,-0.52 1.58,-1.348 1.618,-1.906c0.039,-0.559 -0.847,-0.713 -1.444,-1.387c-0.597,-0.674 -1.676,-0.924 -0.597,-0.79c1.078,0.135 1.675,0.328 2.099,0.212c0.424,-0.115 0.905,-0.982 0.366,-1.406c-0.539,-0.423 -1.291,-0.327 -0.231,-1.097c1.059,-0.771 1.328,-0.828 1.714,-1.772c0.385,-0.944 -0.809,-3.428 -1.291,-3.948c-0.481,-0.52 -1.117,-1.926 -1.117,-1.926c0,0 1.156,1.214 1.888,1.753c0.731,0.539 1.174,0.135 0.5,-0.751c-0.674,-0.886 -1.309,-1.676 -1.405,-2.157c-0.097,-0.482 1.02,-1.984 1.463,-2.735c0.443,-0.751 0.27,-1.117 0.385,-2.33c0.116,-1.213 0.174,-3.062 0.174,-3.062c-0,-0 -0.058,4.006 0.443,4.891c0.5,0.886 0.828,1.271 1.097,0.482c0.27,-0.79 0.308,-1.252 0.617,-1.887c0.308,-0.636 0.828,-1.079 1.271,-1.426c0.443,-0.346 1.791,-2.118 2.85,-3.081c1.059,-0.963 1.906,-1.348 2.292,-1.829c0.385,-0.482 0.866,-1.214 1.059,-1.483c0.192,-0.27 0.905,-0.405 0.5,-0.771c-0.404,-0.365 -1.675,-1.791 -1.675,-1.791c-0,0 1.945,1.387 2.349,1.618c0.405,0.231 0.809,0.636 0.944,-0.038c0.135,-0.674 0,-1.156 0.27,-1.348c0.269,-0.193 0.866,-0.135 1.252,-0c0.385,0.134 0.751,0.519 0.924,0.269c0.173,-0.25 0.154,-0.751 0.674,-1.078c0.52,-0.328 0.828,-0.385 1.598,-0.366c0.771,0.019 1.329,0.212 2.177,0.096c0.847,-0.115 2.099,-0.79 2.484,-0.751c0.385,0.039 0.481,1.078 1.849,0.558c1.367,-0.519 2.349,-0.038 2.561,-0.481c0.212,-0.443 -0.058,-1.579 -0.058,-1.579l1.098,1.309c-0,0 0.404,0.424 1.078,0.212c0.674,-0.212 1.194,-0.462 1.791,-0.597c0.597,-0.135 3.794,-0.77 4.757,-1.059c0.963,-0.289 1.156,-0.52 2.08,-0.655c0.924,-0.135 0.809,0.097 2.099,0.328c1.29,0.231 1.733,0.616 2.042,0.5c0.308,-0.115 1.868,-0.847 2.079,-0.751c0.212,0.097 1.734,0.771 2.177,1.079c0.443,0.308 2.946,1.232 3.119,1.56c0.174,0.327 1.06,-0.039 1.541,0.231c0.482,0.269 0.79,0.25 1.714,0.558c0.924,0.308 4.295,0.501 4.738,1.079c0.443,0.577 0.751,0.558 1.29,0.886c0.539,0.327 0.655,0.057 1.29,0.462c0.636,0.404 2.215,2.426 2.465,3.023c0.251,0.597 0.597,0.848 1.175,2.099c0.578,1.252 0.713,1.637 0.462,2.523c-0.25,0.886 -0.077,1.406 0.27,1.907c0.346,0.501 0.443,1.021 1.02,2.003c0.578,0.982 1.194,3.813 1.31,4.718c0.116,0.905 -0.173,1.752 0.443,1.887c0.616,0.135 1.078,-0.308 1.752,0.559c0.674,0.866 1.714,3.197 2.042,4.564c0.327,1.367 0.192,0.847 0.558,1.772c0.366,0.924 1.175,2.426 1.156,3.678c-0.019,1.252 -0.482,2.311 -0.559,3.389c-0.077,1.079 -0.385,1.483 -0.423,2.311c-0.039,0.828 0.52,2.793 0.115,3.871c-0.404,1.079 -0.635,0.828 -0.828,1.811c-0.193,0.982 -0.096,1.598 -0.173,2.137c-0.077,0.539 -0.578,1.733 -1.079,2.6c-0.5,0.867 -0.385,0.501 -0.597,1.502c-0.212,1.002 -0.404,2.253 -0.481,2.831c-0.077,0.578 -0.058,2.022 0.115,2.754Z" style="fill:#8e523b;"/></g></g></svg>