<?xml version="1.0" encoding="UTF-8" standalone="no"?><!DOCTYPE svg PUBLIC "-//W3C//DTD SVG 1.1//EN" "http://www.w3.org/Graphics/SVG/1.1/DTD/svg11.dtd"><svg width="100%" height="100%" viewBox="0 0 150 150" version="1.1" xmlns="http://www.w3.org/2000/svg" xmlns:xlink="http://www.w3.org/1999/xlink" xml:space="preserve" xmlns:serif="http://www.serif.com/" style="fill-rule:evenodd;clip-rule:evenodd;stroke-linejoin:round;stroke-miterlimit:2;"><path id="base" d="M150,75c0,-41.394 -33.606,-75 -75,-75c-41.394,0 -75,33.606 -75,75c0,41.394 33.606,75 75,75c41.394,0 75,-33.606 75,-75Z" style="fill:#03214f;"/><path id="outline" d="M144,75c0,-38.082 -30.918,-69 -69,-69c-38.082,0 -69,30.918 -69,69c0,38.082 30.918,69 69,69c38.082,0 69,-30.918 69,-69Z" style="fill:#1fbaed;"/><path id="core" d="M141,75c0,-36.426 -29.574,-66 -66,-66c-36.426,0 -66,29.574 -66,66c0,36.426 29.574,66 66,66c36.426,0 66,-29.574 66,-66Z" style="fill:#fff;"/><clipPath id="_clip1"><path d="M141,75c0,-36.426 -29.574,-66 -66,-66c-36.426,0 -66,29.574 -66,66c0,36.426 29.574,66 66,66c36.426,0 66,-29.574 66,-66Z"/></clipPath><g clip-path="url(#_clip1)"><g id="corinna-kopf"><path d="M123.031,111.792c0,0 2.019,-0.307 2.223,-1.125c0.205,-0.817 0.775,-2.435 1.093,-3.162c0.318,-0.727 1.521,-3.997 2.157,-5.065c0.636,-1.068 0.932,-1.454 1.681,-2.135c0.75,-0.682 2.635,-3.816 3.158,-5.088c0.522,-1.272 1.59,-3.68 1.749,-3.952c0.159,-0.273 0.681,-0.773 0.976,-0.682c0.296,0.091 0.205,0.591 0.273,0.704c0.068,0.114 1.09,0.318 1.249,1.431c0.159,1.113 0.5,2.703 -0.272,4.793c-0.773,2.09 -2.385,3.475 -2.59,4.316c-0.204,0.84 -0.159,1.34 0.454,1.113c0.614,-0.227 -9.812,17.558 -9.812,17.558l-2.339,-8.706Z" style="fill:#a787a6;"/><path d="M67.719,25.091c11.738,0.176 20.498,7.722 25.746,23.953c0.783,8.316 1.179,16.89 1.537,25.49c5.943,19.936 9.659,39.78 8.839,59.434c-23.227,-11.418 -44.084,-23.664 -43.808,-43.295l2.69,-26.002c-1.825,-14.256 -1.036,-27.716 4.996,-39.58Z" style="fill:#b0889c;"/><path d="M94.333,121.24c0,-0 9.094,-6.558 9.985,-7.005c0.891,-0.448 -0.434,17.383 -0.434,17.383l-9.551,-10.378Z" style="fill:#a495d2;"/><path d="M24.121,119.404c-0,-0 0.038,-2.111 0.307,-3.186c0.269,-1.075 0.998,-1.919 1.113,-3.762c0.115,-1.842 0.614,-3.723 0.806,-4.529c0.192,-0.806 -0.192,-1.152 1.036,-2.034c1.229,-0.883 2.303,-0.806 3.724,-1.92c1.42,-1.113 2.379,-2.495 2.61,-3.07c0.23,-0.576 0.691,-1.958 1.919,-3.186c1.228,-1.228 2.188,-1.919 2.802,-2.303c0.614,-0.384 1.965,-3.178 2.617,-3.907c0.653,-0.729 8.103,-10.117 8.103,-10.117l8.472,-2.558c-0,0 7.177,16.62 8.751,18.77c1.574,2.149 11.601,9.514 12.714,10.243c1.113,0.729 5.864,4.688 7.361,5.494c1.497,0.806 7.024,3.877 8.291,4.951c1.266,1.075 5.258,5.413 6.064,7.101c0.806,1.689 1.536,3.186 1.766,3.724c-0,-0 0.077,-0.423 0.422,-0.576c0.346,-0.154 0.614,0.345 0.614,0.345c0,0 0,-3.761 -0.076,-5.258c-0.077,-1.497 -0.922,-8.867 -1.421,-10.479c-0.499,-1.612 -3.301,-9.02 -3.723,-10.172c-0.422,-1.151 -2.495,-9.711 -2.495,-9.711c0,0 21.572,16.275 22.685,16.774c1.113,0.499 4.261,1.19 4.721,1.228c0.461,0.039 0.85,-0.381 1.195,-0.458c0.372,-0.082 0.667,0.084 0.667,0.084c0,-0 -0.465,0.241 -0.657,1.277c-0.192,1.036 -0.514,2.782 0.062,3.703c0.576,0.922 1.765,1.996 1.765,1.996c-6.393,15.831 -29.546,20.932 -46.53,29.349c-30.857,-6.463 -41.771,-12.084 -55.685,-27.813Z" style="fill:#13309a;"/><path d="M49.743,139.194c-0.257,-1.566 -0.566,-3.576 -0.583,-4.3c-0.029,-1.252 2.125,-11.324 3.842,-14.381c1.718,-3.056 4.775,-8.645 5.328,-10.8c0.553,-2.154 1.368,-9.722 1.251,-10.101c-0.116,-0.378 -0.495,-3.202 -1.193,-3.58c-0.699,-0.379 -1.427,0.64 -2.416,1.659c-0.99,1.019 -2.329,3.348 -2.94,4.803c-0.612,1.456 -1.514,5.036 -1.747,6.171c-0.233,1.136 -0.611,2.562 -0.524,2.795c0.087,0.233 -2.183,-1.834 -1.718,-2.824c0.466,-0.989 1.834,-3.406 2.155,-4.628c0.32,-1.223 1.397,-3.144 0.698,-5.968c-0.698,-2.824 -2.474,-6.491 -1.921,-9.199c0.553,-2.707 2.911,-2.765 2.678,-3.551c-0.233,-0.786 -0.961,-1.805 -1.892,-1.514c-0.932,0.291 -6.113,3.901 -7.307,5.531c-1.193,1.63 -3.231,4.803 -3.522,5.939c-0.291,1.135 -0.524,1.368 -0.874,1.572c-0.349,0.203 -0.611,0.494 -0.611,0.494c0,0 0.379,-2.154 0.67,-3.609c0.291,-1.456 0.495,-2.678 0.786,-3.959c0.291,-1.281 0.669,-3.115 1.426,-4.338c0.757,-1.222 1.805,-4.599 2.998,-5.735c1.194,-1.135 1.369,-0.844 2.795,-2.183c1.426,-1.339 1.834,-1.921 2.853,-2.736c1.019,-0.815 1.95,-1.019 2.911,-1.514c0.961,-0.495 2.358,-1.252 3.173,-1.659c0.815,-0.408 0.126,-4.04 0.534,-4.302c0.407,-0.262 -1,-3.063 -1,-3.063l-7.801,-21.6c3.588,-10.461 7.996,-16.007 12.634,-20.174l13.769,-0.436l5.211,3.114c-0,0 6.229,3.174 7.394,4.571c1.164,1.397 7.568,15.574 7.568,15.574c0,-0 0.321,9.315 0.437,10.451c0.116,1.135 0.291,4.162 0.67,5.472c0.378,1.31 1.222,2.038 1.513,2.882c0.291,0.844 1.339,3.494 1.572,3.872c0.233,0.378 2.62,1.776 2.62,3.231c0,0 -0.844,-0.931 -1.484,-1.252c-0,0 0.611,0.932 1.164,1.864c0.553,0.931 1.106,2.125 1.223,2.852c0.116,0.728 0.174,1.048 0.582,1.194c0.407,0.145 -0.582,0.32 -0.99,-0.087c0,-0 -0.757,-0.379 -0.087,0.494c0.669,0.874 2.037,2.446 2.561,3.93c0.524,1.485 0.757,2.882 0.554,3.464c-0,0 -0.466,-2.212 -1.136,-3.085c-0.669,-0.874 -0.466,-0 -0.087,0.698c0.378,0.699 0.291,4.367 0.815,4.862c0.524,0.495 1.659,1.514 2.445,1.863c0.786,0.349 4.047,2.736 4.309,3.639c0.262,0.902 0.32,1.106 0.786,1.863c0.465,0.757 0.669,1.63 0.436,2.067c0,-0 -0.145,-1.601 -1.048,-1.893c-0.902,-0.291 -1.106,-0.524 -1.106,-0.058c0,0.466 -0.116,1.98 0,2.708c0.117,0.727 -0.291,1.047 0.437,1.979c0.728,0.932 2.62,2.969 2.911,3.726c0.291,0.757 0.582,0.903 1.222,1.165c0.641,0.262 1.369,0.203 1.805,0.64c0.437,0.437 1.776,2.038 2.067,2.416c0.291,0.379 1.456,1.863 1.427,2.504c-0.03,0.64 0.756,3.697 0.436,4.483c-0.32,0.786 -0.553,1.135 -0.378,1.659c0.174,0.524 0.407,1.572 0.32,2.358c-0.087,0.786 -0.349,1.281 -0,1.776c0.349,0.495 1.048,2.241 1.194,2.998c0.145,0.757 -4.513,5.56 -4.513,5.56c0,0 -0.465,-0.175 -0.931,-2.154c-0.466,-1.98 -0.67,-5.822 -1.31,-7.161c-0.641,-1.339 -4.163,-5.124 -4.92,-5.881c-0.757,-0.756 -3.755,-6.549 -4.25,-6.957c-0.495,-0.407 -2.707,-1.543 -3.842,-1.979c-1.136,-0.437 -3.581,-1.951 -4.571,-2.795c-0.99,-0.844 -4.716,-4.861 -5.181,-5.589c-0.466,-0.728 -3.523,-4.338 -4.192,-5.386c-0.67,-1.048 -2.3,-2.27 -2.824,-2.882c-0.524,-0.611 -1.281,-1.048 -1.543,-2.474c-0.262,-1.426 0.233,-7.598 0.437,-8.413c-0,0 1.484,0.058 2.445,-0.175c0.961,-0.232 2.94,-0.989 3.726,-1.659c0.786,-0.669 2.125,-2.27 2.242,-3.93c0.116,-1.659 0.349,-5.298 0.524,-6.695c0.174,-1.397 1.746,-6.259 0.291,-10.684c-1.456,-4.425 -3.61,-9.024 -4.716,-10.771c-1.106,-1.746 -5.036,-7.656 -6.113,-8.5c-1.077,-0.844 -2.911,-3.726 -5.648,-3.144c-2.736,0.582 -4.687,0.99 -5.793,1.106c-1.106,0.117 -3.697,0.03 -4.075,0.786c-0.379,0.757 -0.553,2.708 -0.612,5.153c-0.058,2.445 -0.698,9.927 -0.931,12.023c-0.233,2.096 -0.728,6.637 -0.786,9.053c-0.058,2.416 0.116,3.435 0.669,5.152c0.554,1.718 2.912,6.929 3.057,8.21c0.146,1.28 0.611,1.368 1.077,1.834c0.466,0.465 2.795,2.649 3.406,3.144c0.611,0.494 3.406,2.881 4.483,3.9c1.077,1.019 2.125,3.057 2.533,4.28c-0,-0 -0.67,-0.379 -1.019,-0.117c-0.35,0.262 -0.437,0.087 0.116,1.135c0.553,1.048 1.456,4.309 1.368,5.095c0,-0 -1.251,-2.154 -1.484,-2.591c-0.233,-0.437 -0.262,0.786 -0.32,1.426c-0.059,0.641 -0.262,2.009 -0.728,3.086c-0.466,1.077 -1.659,1.718 -1.368,2.212c0.291,0.495 3.726,3.232 4.57,4.076c0.844,0.844 3.202,3.202 3.813,5.676c0,0 -3.609,-3.842 -4.308,-4.395c-0.699,-0.553 -0.64,-0.582 -0.087,0.495c0.553,1.077 2.678,4.919 3.318,6.957c0.641,2.038 0.612,6.22 0.117,8.617c-0.495,2.396 -0.932,4.114 -1.252,4.725c-0.32,0.612 -0.466,1.747 -0.582,2.271c-0.117,0.524 -0.32,1.252 -0.146,2.3c0.175,1.048 2.038,7.539 4.571,11.634c-0,0 -3.319,-4.134 -5.124,-10.305c0,0 -0.291,-0.437 -0.291,0.378c0,0.816 -0.175,4.338 -0.349,4.949c-0.175,0.612 0.204,3.261 -0,4.221c-0.204,0.961 -0.728,2.504 -0.582,3.202c0.145,0.699 0.669,1.456 0.669,1.456l-4.366,1.717c-0,0 -2.009,1.369 -2.329,-6.287c-0,-0 -1.165,3.406 -1.281,4.453l-0.495,-0.174c-0,-0 1.63,-4.6 1.63,-5.386c0,0 -1.863,4.018 -2.94,5.153c-1.077,1.135 -3.173,1.048 -3.173,1.048c-0,-0 -2.125,0.175 -1.863,-2.096c0.262,-2.271 0.349,-5.444 -0.029,-7.19c-0.379,-1.747 -1.281,-3.61 -1.194,-4.192c0,-0 -0.669,1.746 -1.048,2.27c-0.378,0.524 -1.164,2.417 -1.135,3.29c0.029,0.873 0.611,4.57 0.408,5.793c-0.204,1.223 -1.31,1.077 -1.427,-0.495c-0.116,-1.572 -0.291,-3.61 -0.291,-3.61c-0,0 -1.718,3.057 -2.329,3.843c-0.611,0.786 -3.726,-0.611 -2.998,-1.659c0.728,-1.048 1.193,-1.602 1.252,-2.067c0.058,-0.466 0.989,-5.415 0.931,-5.968c0,0 -4.904,6.293 -7.523,9.005c-0.176,1.479 -0.308,2.319 -0.308,2.319c0,0 -0.13,-0.738 -0.294,-1.72c0.13,-0.122 0.294,-0.284 0.498,-0.492c0.034,-0.035 0.069,-0.071 0.104,-0.107c0.028,-0.235 0.057,-0.485 0.087,-0.751c0.533,-0.711 1.061,-1.384 1.061,-1.384c-0,0 3.901,-3.813 6.346,-7.656c-0,0 0.844,-4.745 1.368,-6.695c0.524,-1.951 1.572,-4.483 1.572,-5.531c0,-1.048 -0.291,-5.036 -0.204,-5.735c0.088,-0.699 -0.553,2.271 -1.717,4.163c-1.165,1.892 -4.309,6.753 -4.92,8.238c-0.611,1.485 -2.736,5.502 -3.086,10.101c-0.134,1.765 -0.285,3.29 -0.42,4.499c-0.269,0.358 -0.539,0.727 -0.743,1.024l0.054,0.326c-0.596,0.558 -0.45,0.251 -0.054,-0.326Zm20.273,-0.253c0,0 2.308,-3.713 2.838,-5.225c0.531,-1.512 0.769,-2.599 0.637,-4.987c-0.133,-2.387 -0.61,-4.986 -0.637,-6.843c-0.026,-1.857 0.451,-4.987 0.398,-5.994c-0.053,-1.008 -0.159,-2.547 -0.186,-3.104c-0.026,-0.557 0.213,-1.432 -0.079,-1.883c-0.292,-0.451 -1.857,-2.891 -2.043,-3.316c0,0 -0.742,1.327 -0.822,1.618c-0.079,0.292 -0.424,1.91 -0.849,3.21c-0.424,1.299 -1.485,3.05 -1.724,5.305c-0.238,2.254 0,7.506 0.743,10c0.743,2.493 2.148,7.002 1.724,11.219Zm43.925,-26.949c-0,0 1.644,1.91 2.334,2.653c0.69,0.743 1.804,3.581 1.857,4.058c-0,0 -1.273,-2.493 -1.963,-3.156c-0.69,-0.663 -1.751,-2.6 -2.228,-3.555Zm-34.535,2.971c-0,0 -0.398,-1.538 -0.876,-2.334c-0.477,-0.796 -0.954,-1.114 -1.193,-1.804c-0.239,-0.689 0.345,-0.583 0.212,-0.981c0,-0 1.353,0.345 1.539,-0.531c-0,0 0.132,-0.053 0.185,-0.318c0,0 0.504,2.281 0.133,5.968Zm34.376,-0.504c-0,0 -2.441,-2.573 -3.395,-3.766c-0.955,-1.194 -1.088,-1.645 -1.3,-1.937c-0.212,-0.291 -0.106,-0.716 0.477,-0.212c0.584,0.504 2.918,3.554 4.218,5.915Zm-49.044,-4.721c-0,-0 0.848,-3.899 0.902,-5.252c0.053,-1.353 0.053,-4.244 -0.372,-4.536c-0.424,-0.292 -0.902,-0.477 -0.902,0.61c0,1.088 0.053,7.666 0.372,9.178Zm-10.557,-10.928c-0,-0 2.652,-5.093 3.183,-5.252c0.53,-0.159 0.716,0.716 0.106,1.379c-0.61,0.663 -2.414,2.997 -3.289,3.873Zm-1.459,-0.796c0,-0 0.053,-2.653 -0.106,-3.395c-0.159,-0.743 -1.247,-4.403 0.239,-5.411c1.485,-1.008 3.474,-1.884 3.846,-1.167c0.371,0.716 0.291,1.618 0.185,2.201c-0.106,0.584 -0.848,1.088 -1.83,2.467c-0.981,1.379 -1.91,2.546 -2.334,5.305Z" style="fill:#b1a4ad;"/><path d="M58.363,77.704c0.423,-0.06 0.258,-1.265 -0.259,-2.588c-0.518,-1.322 -1.265,-2.731 -1.352,-3.191c-0.086,-0.461 0.202,-0.691 0.633,-1.237c0.431,-0.546 1.15,-0.661 1.265,-1.84c0.115,-1.179 0,-4.63 -0.172,-5.119c-0.173,-0.489 -2.56,-5.492 -3.192,-8.195c-0.633,-2.703 -1.294,-5.435 -1.927,-6.327c-0.632,-0.891 -2.789,-2.357 -3.451,-5.147c0,0 -0.517,-0.834 -0.603,-1.869c-0.087,-1.035 0.373,-2.3 0.661,-3.249c0.288,-0.949 1.668,-1.553 1.898,-2.215c0.23,-0.661 1.927,-3.738 2.674,-5.003c0.748,-1.265 4.083,-5.694 5.78,-6.758c1.697,-1.064 4.371,-2.99 8.627,-2.501c4.256,0.488 9.921,2.473 10.381,2.703c0.46,0.23 0.661,-0.604 0.977,-0.489c0.317,0.115 2.042,0.69 2.502,1.035c0.46,0.345 1.668,1.409 1.812,1.725c0.143,0.317 -0.115,0.432 0.373,0.949c0.489,0.518 2.301,2.933 2.761,4.055c0.46,1.121 3.853,8.051 4.313,9.374c0.46,1.323 2.013,6.902 2.157,8.224c0.144,1.323 0.316,4.026 0.489,4.256c0.172,0.23 0.46,-0.172 0.489,0.23c0.029,0.403 -0.058,2.358 -0,3.163c0.057,0.806 0.201,1.668 0.374,1.985c0.172,0.316 0.086,0.316 0.201,0.92c0.115,0.604 2.099,4.054 2.214,4.658c0.115,0.604 0.23,1.352 0.23,1.352c0,-0 0.288,-0.863 0.144,-1.582c-0.144,-0.719 -1.237,-2.415 -1.582,-3.508c-0.345,-1.093 -0.575,-1.955 -0.546,-2.214c0.029,-0.259 0.259,-0.23 0.259,-0.69c-0,-0.46 -0.46,-4.084 -0.432,-4.573c0.029,-0.488 1.093,-1.524 1.266,-2.185c0.172,-0.661 1.092,-3.968 0.92,-6.067c-0.173,-2.1 -1.61,-7.592 -3.106,-10.381c-1.495,-2.79 -1.898,-3.652 -2.732,-4.4c-0.833,-0.748 -2.127,-1.236 -2.473,-1.61c-0.345,-0.374 -0.862,-1.726 -1.524,-2.214c-0.661,-0.489 -1.869,-0.777 -2.358,-1.151c-0.488,-0.373 -2.645,-1.581 -3.249,-2.243c-0.604,-0.661 -5.607,-3.623 -8.972,-4.083c-3.364,-0.46 -12.192,0.029 -15.096,1.61c-2.905,1.582 -7.966,6.47 -8.972,7.736c-1.007,1.265 -2.703,4.629 -2.818,5.291c-0.115,0.661 1.207,3.709 0.92,4.773c-0.288,1.064 -0.662,3.221 -1.208,3.508c-0.546,0.288 -1.84,-0.143 -1.84,0.461c-0,0.603 0.431,1.236 0.834,1.351c0.402,0.115 0.546,0.46 0.402,1.179c-0.144,0.719 -1.265,1.467 -1.668,1.783c-0.402,0.316 -0.057,0.633 0.144,1.093c0.201,0.46 0.345,1.092 -0.115,1.121c-0.46,0.029 -2.933,0.058 -2.99,0.92c-0.058,0.863 1.265,5.694 2.185,7.851c0.92,2.156 4.198,8.454 5.895,10.495c1.697,2.042 3.508,3.595 4.141,3.681c0.632,0.086 1.409,-0.172 1.61,0.201c0.201,0.374 0.978,2.128 1.208,2.56c0.23,0.431 0.575,0.316 0.747,0.604c0.173,0.287 0.346,1.897 1.151,1.782Z" style="fill:#101f43;"/></g></g></svg>