<?xml version="1.0" encoding="UTF-8" standalone="no"?><!DOCTYPE svg PUBLIC "-//W3C//DTD SVG 1.1//EN" "http://www.w3.org/Graphics/SVG/1.1/DTD/svg11.dtd"><svg width="100%" height="100%" viewBox="0 0 150 150" version="1.1" xmlns="http://www.w3.org/2000/svg" xmlns:xlink="http://www.w3.org/1999/xlink" xml:space="preserve" xmlns:serif="http://www.serif.com/" style="fill-rule:evenodd;clip-rule:evenodd;stroke-linejoin:round;stroke-miterlimit:2;"><path id="base" d="M150,75c0,-41.394 -33.606,-75 -75,-75c-41.394,0 -75,33.606 -75,75c0,41.394 33.606,75 75,75c41.394,0 75,-33.606 75,-75Z" style="fill:#03214f;"/><path id="outline" d="M144,75c0,-38.082 -30.918,-69 -69,-69c-38.082,0 -69,30.918 -69,69c0,38.082 30.918,69 69,69c38.082,0 69,-30.918 69,-69Z" style="fill:#1fbaed;"/><path id="core" d="M141,75c0,-36.426 -29.574,-66 -66,-66c-36.426,0 -66,29.574 -66,66c0,36.426 29.574,66 66,66c36.426,0 66,-29.574 66,-66Z" style="fill:#fff;"/><clipPath id="_clip1"><path d="M141,75c0,-36.426 -29.574,-66 -66,-66c-36.426,0 -66,29.574 -66,66c0,36.426 29.574,66 66,66c36.426,0 66,-29.574 66,-66Z"/></clipPath><g clip-path="url(#_clip1)"><g id="gothalion"><path d="M55.187,74.006c-0,-0 -0.769,0.064 -1.174,-1.067c-0.405,-1.131 -1.451,-4.374 -1.622,-5.505c-0.17,-1.131 -0.234,-4.14 -0.362,-4.78c-0.128,-0.64 -0.491,-3.158 0.042,-3.606c0.534,-0.448 0.96,-0.725 1.601,-0.448c0.64,0.277 1.472,0.576 1.749,0.832c0.278,0.256 0.961,0.235 0.961,0.235l-0.193,-1.878l0.673,-17.043c1.944,-9.164 33.087,-14.804 35.815,6.865l0.363,10.989c-0,0 0.725,-0.832 1.195,-0.96c0.469,-0.128 1.493,-0.384 1.685,0.363c0.192,0.746 0.15,5.995 -0.128,6.593c-0.277,0.597 -1.448,4.637 -1.448,4.637l-2.755,9.851l-4.545,9.538l2.976,42.946l-27.105,5.067l-12.159,-49.524l6.839,-8.993l-2.408,-4.112Z" style="fill:#ed9f8b;"/><path d="M16.031,107.768c0.175,-0.411 0.775,-2.181 1.89,-2.957c1.115,-0.775 2.569,-2.617 4.702,-3.684c2.133,-1.066 8.968,-4.459 10.325,-5.526c1.358,-1.066 3.878,-2.424 5.866,-3.199c1.987,-0.776 5.768,-2.763 7.852,-3.733c2.085,-0.969 3.297,-1.745 4.363,-3.15c1.066,-1.406 1.6,-2.133 2.278,-3.2c0.679,-1.066 2.375,-2.957 2.375,-2.957l0.873,-1.308l1.406,2.278c-0,-0 -1.358,1.793 -1.454,2.714c-0.097,0.921 -0.194,1.309 0.048,2.666c0.242,1.358 0.533,2.812 1.018,3.733c0.485,0.921 1.163,2.375 1.794,4.314c0.63,1.939 2.375,4.847 3.296,6.447c0.921,1.6 4.508,6.835 5.089,7.756c0.582,0.921 1.455,2.181 2.957,4.12c1.503,1.939 2.763,3.878 3.733,5.381c0.969,1.502 2.036,2.957 2.472,4.169c0.436,1.211 1.794,4.071 2.084,5.283c0.291,1.212 0.631,2.812 0.631,2.812c-0,-0 0.581,-3.636 0.678,-5.042c0.097,-1.405 1.551,-9.016 1.891,-10.034c0.339,-1.018 1.066,-3.005 1.309,-4.799c0.242,-1.793 1.211,-5.865 1.551,-6.786c0.339,-0.921 1.987,-4.896 2.084,-6.156c0.097,-1.26 -0.339,-5.526 -0.339,-5.526l2.181,-3.927c0,0 2.666,0.049 3.926,0.825c1.261,0.775 3.684,2.084 5.284,2.617c1.6,0.533 6.738,2.084 8.531,2.763c1.794,0.679 2.86,1.067 4.654,2.569c1.794,1.503 5.138,3.393 6.059,4.557c0.921,1.163 2.278,3.878 3.103,6.107c0.824,2.23 2.714,5.187 3.15,7.223c0.437,2.036 1.608,3.292 1.6,4.751c-0.074,12.797 -54.453,40.964 -53.951,28.599c-5.045,11.228 -62.003,-23.975 -55.309,-39.7Z" style="fill:#4d3833;"/><path d="M74.717,97.679c-1.224,-0.471 -5.199,-0.837 -6.326,-1.6c-1.127,-0.763 -3.817,-2.036 -4.762,-2.872c-0.946,-0.836 -3.927,-5.199 -4.327,-6.435c-0.4,-1.236 -1.272,-3.272 -1.454,-3.89c-0.182,-0.618 -1.127,-3.781 -1.345,-4.617c-0.218,-0.836 -1.272,-3.708 -1.345,-4.217c-0.073,-0.509 0.109,-1.454 -0.218,-2.4c-0.327,-0.945 -0.437,-0.327 -0.582,-1.672c-0.145,-1.345 -0.254,-1.163 -0.073,-2.145c0.182,-0.981 0.328,-1.709 0.437,-2.436c0.109,-0.727 0.145,-1.527 0.218,-1.999c0.072,-0.473 0.472,-1.963 0.763,-2.545c0.291,-0.582 0.327,-0.4 0.4,-1.018c0.073,-0.618 -0.582,-0.618 -0.909,-1.527c-0.327,-0.909 -0.691,-1.818 -0.981,-2.581c-0.291,-0.764 -0.328,-1.2 -0.4,-2.181c-0.073,-0.982 0.145,-3.2 -0.037,-4.181c-0.181,-0.982 -0.363,-1.164 -0.145,-2.218c0.218,-1.054 0.363,-2.072 0.436,-3.09c0.073,-1.018 0,-2.145 0.764,-2.945c0.763,-0.8 0.981,-1.018 0.945,-1.563c-0.036,-0.545 0.472,-1.891 0.981,-2.945c0.509,-1.054 0.546,-1.309 0.546,-1.854c-0,-0.545 -0.291,-0.982 -0.037,-1.563c0.255,-0.582 1.091,-0.8 1.418,-1.345c0.327,-0.546 0.546,-0.618 1.055,-1.273c0.509,-0.654 1.49,-1.527 2.435,-2.29c0.946,-0.764 1.418,-0.364 2.073,-1.345c0.654,-0.982 1.381,-1.418 1.381,-1.418l-0.109,0.654c0,0 0,0.364 0.873,-0.072c0.872,-0.437 1.199,-0.073 1.49,-0.582c0.291,-0.509 0.582,-1.273 1.054,-1.345c0.473,-0.073 0.582,-0.073 1.164,-0.109c0.581,-0.037 0.909,0.363 1.054,0.69c0.145,0.328 0.4,0.837 0.691,0.691c0.291,-0.145 0.472,-0.509 1.054,-1.018c0.582,-0.509 1.2,-1.272 2.072,-1.127c0.873,0.146 0.546,0.109 1.455,0.4c0.908,0.291 2.108,0.327 2.508,1.163c0.4,0.837 0.473,0.764 1.418,1.455c0.945,0.69 1.054,1.308 2.508,2.399c1.455,1.091 2.509,2.763 3.018,3.09c0.509,0.327 0.909,0.364 1.672,0.8c0.764,0.436 2.836,2.727 3.272,3.345c0.436,0.618 1.927,2.945 2.109,4.108c0.182,1.163 0.763,2.908 0.8,4.362c0.036,1.455 -0.219,10.071 -0.364,10.98c-0.145,0.909 -0.073,1.999 -0.145,2.763c-0.073,0.763 0.254,2.181 0.254,2.654c0,0.472 0.473,2.363 0.582,2.872c0.109,0.509 0.545,1.672 0.654,2.036c0.109,0.363 0.473,1.345 0.4,1.817c-0.073,0.473 -0.509,3.272 -0.727,4.036c-0.218,0.763 -0.255,0.509 -0.255,1.49c0,0.982 0.11,0.327 0,1.6c-0.109,1.272 0.073,0.618 -0.29,1.672c-0.364,1.055 0.29,0.255 -0.582,1.564c-0.873,1.308 -1.054,2.653 -1.272,3.09c-0.219,0.436 -0.582,1.018 -0.728,1.49c-0.145,0.473 -0.836,3.127 -1.417,4.217c-0.582,1.091 -0.728,1.382 -0.982,1.964c-0.254,0.581 -0.073,0.618 -0.727,1.272c-0.655,0.654 -1.127,1.636 -1.418,2.072c-0.291,0.437 -0.218,0.364 -0.545,0.873c-0.327,0.509 -2.109,1.527 -2.545,1.927c-0.436,0.4 -0.582,0.436 -1.091,0.908c-0.509,0.473 -1.454,1.091 -2.436,1.346c-0.981,0.254 -0.654,0.29 -1.417,0.4c-0.764,0.109 -3.491,0.399 -3.963,0.218Zm-7.998,-13.452c0.072,-0.727 0.618,-1.454 0.909,-1.89c0.29,-0.436 -0.219,-1.2 0.618,-1.454c0.836,-0.255 -0.037,-0 1.89,-0.618c1.927,-0.618 1.854,-1.2 3.781,-1.018c1.927,0.181 1.563,0.109 3.054,0.363c1.49,0.255 1.527,0.255 2.981,0.509c1.454,0.255 1.672,0 2.508,0.982c0.837,0.981 0.982,1.272 1.455,2.363c0.472,1.09 1.49,1.018 0.945,2.399c-0.545,1.382 -0.582,1.636 -1.2,2.4c-0.618,0.763 -0.763,1.272 -1.599,1.89c-0.837,0.618 0.036,0.945 -2.109,1.636c-2.145,0.691 -3.236,0.982 -4.799,0.8c-1.563,-0.182 -2.108,-0.145 -3.49,-1.091c-1.381,-0.945 -1.563,-0.909 -2.399,-2.108c-0.837,-1.2 -1.236,-1.454 -1.564,-2.691c-0.327,-1.236 -1.054,-1.745 -0.981,-2.472Zm-2.036,-0.909c-0.474,-0.023 -0.509,-0.727 -1.418,-1.636c-0.909,-0.908 -0.582,-0.799 -1.6,-1.526c-1.018,-0.728 -0.836,0.181 -1.527,-1.418c-0.69,-1.6 -0.581,-2.363 -1.345,-3.89c-0.763,-1.527 -1.236,-2.254 -1.599,-3.49c-0.364,-1.236 -0.437,-0.691 -0.655,-2.363c-0.218,-1.673 -0.291,-2.182 -0.327,-3.6c-0.036,-1.417 -0.182,-1.599 -0.073,-2.435c0.109,-0.837 0.182,-1.127 0.291,-1.927c0.109,-0.8 0.364,-1.491 0.364,-1.963c-0,-0.473 0.254,-1.891 0.363,-3.018c0.109,-1.127 0.146,-0.363 0.364,-2.872c0.218,-2.508 0.4,-3.236 0.545,-4.326c0.146,-1.091 0.437,-3.89 0.836,-4.69c0.4,-0.8 0,-0.291 1.164,-1.236c1.163,-0.945 1.163,-1.236 2.145,-1.891c0.981,-0.654 -0.073,-1.672 2.108,-1.017c2.182,0.654 2.582,0.727 3.381,1.672c0.8,0.945 0.473,1.054 1.418,1.418c0.945,0.363 1.382,1.09 1.709,1.272c0.327,0.182 0.691,-1.563 1.163,-1.163c0.473,0.4 0.945,0.909 1.636,1.163c0.691,0.255 1.709,1.054 2.036,0.291c0.327,-0.763 -0.218,-1.2 0.836,-1.382c1.055,-0.181 0.437,-0.581 2.363,-0.399c1.927,0.181 2.509,0.799 3.527,-0.219c1.018,-1.018 1.018,-1.236 1.599,-1.672c0.582,-0.436 0.728,-1.127 1.382,-1.163c0.654,-0.037 0.981,-0.327 1.381,0.509c0.4,0.836 0.182,0.69 1.018,1.563c0.837,0.872 0.473,0.182 1.018,1.127c0.546,0.945 1.164,2.254 1.345,2.945c0.182,0.69 0.4,0.545 0.546,1.49c0.145,0.946 0.581,1.2 0.4,2.436c-0.182,1.236 -0.182,1.636 0.036,2.436c0.218,0.8 1.091,1.999 1.091,3.054c-0,1.054 0.109,1.308 0.254,2.181c0.146,0.873 0.182,1.018 0.291,1.454c0.109,0.436 0.218,1.891 0.327,2.545c0.109,0.654 0.146,0.4 0.291,1.163c0.145,0.764 0.327,1.309 0.255,2.327c-0.073,1.018 -0.037,0.764 -0.328,2.072c-0.291,1.309 -0.763,4.072 -1.163,4.981c-0.4,0.909 -0.8,1.6 -1.054,2.363c-0.255,0.764 -0.4,1.854 -0.655,2.618c-0.254,0.763 -0.182,0.763 -0.581,1.854c-0.4,1.09 -0.546,1.599 -1.127,2.508c-0.582,0.909 -1.127,2.509 -1.782,2.254c-0.654,-0.254 -0.291,-0.327 -0.691,-1.854c-0.399,-1.527 -0.036,-1.599 -0.799,-2.436c-0.764,-0.836 0.908,-0.545 -1.382,-1.272c-2.29,-0.727 -2.181,-0.582 -2.763,-0.982c-0.582,-0.4 -0.4,-0.4 -1.527,-0.981c-1.127,-0.582 -1.636,-0.727 -2.145,-0.655c-0.509,0.073 -0.836,0.291 -1.345,0.328c-0.509,0.036 -0.872,-0.909 -1.527,-0.8c-0.654,0.109 -1.49,0.691 -2.217,1.054c-0.728,0.364 -0.691,-0.036 -1.564,0.618c-0.872,0.655 -0.981,1.2 -1.999,1.236c-1.018,0.037 -1.345,-0.327 -2.291,-0.218c-0.945,0.109 -1.09,-0.363 -1.199,1.091c-0.109,1.454 -0.073,4.508 -0.8,4.471Z" style="fill:#5e3120;"/><path d="M93.12,60.034c-0.201,-0.32 -0.38,-0.769 -0.41,-1.372c-0.011,-0.219 1.26,0.712 1.31,1.333c0.005,0.064 0.006,0.123 0.004,0.176l0.038,1.666c-0.192,0.065 -0.449,0.257 -0.728,0.9c-0.278,0.643 -0.643,2.4 -1.007,3.963c-0.364,1.564 -1.542,2.571 -2.871,3.128c-1.328,0.557 -4.627,0.857 -6.984,0.622c-2.356,-0.236 -3.406,-2.336 -3.77,-2.914c-0.364,-0.578 -1.007,-2.742 -1.243,-3.621c-0.235,-0.878 -1.307,-0.878 -1.756,-0.899c-0.45,-0.022 -1.136,0.15 -1.307,0.664c-0.172,0.514 -1.286,4.156 -1.693,4.884c-0.407,0.729 -2.635,2.014 -4.327,2.4c-1.693,0.385 -5.977,-0.193 -7.627,-0.75c-1.65,-0.557 -2.057,-2.742 -2.314,-3.621c-0.257,-0.878 -0.6,-2.849 -0.771,-3.32c-0.171,-0.472 -0.878,-0.536 -0.878,-0.536l-0.004,-0.399c-0.294,-0.553 -0.808,-1.653 -0.911,-2.742c-0.026,-0.277 0.328,-0.873 0.619,-0.315c0.151,0.289 0.413,0.831 0.631,1.284c1.583,-0.053 2.821,-0.32 4.078,-0.42c1.35,-0.107 4.263,-0.171 6.02,-0.171c1.757,-0 4.22,0.578 5.184,0.856c0.964,0.279 2.464,0.3 3.171,0.322c0.707,0.021 1.778,-0.15 2.121,-0.129c0.343,0.022 0.536,-0.085 1.007,-0.364c0.471,-0.278 3.021,-0.964 3.62,-1.135c0.6,-0.172 4.864,-0.172 5.892,-0.236c1.028,-0.064 3.449,0.664 3.942,0.728c0.216,0.029 0.6,0.028 0.964,0.018Zm-34.513,2.125c0.019,-0.585 1.007,-1.2 2.014,-1.371c1.006,-0.172 7.862,-0.964 10.154,0.171c2.293,1.135 2.7,1.671 2.4,3.342c-0.3,1.671 -1.2,4.927 -2.978,5.549c-1.778,0.621 -7.348,1.478 -9.534,-0.472c0,0 -0.749,-0.278 -1.242,-2.013c-0.493,-1.736 -0.921,-1.993 -0.814,-5.206Zm19.752,1.071c-0.033,-0.793 0.086,-1.521 0.943,-1.885c0.857,-0.365 3.192,-1.5 5.677,-1.5c2.485,-0 6.427,0.386 6.813,1.114c0.385,0.728 1.006,1.542 0.514,3.642c-0.493,2.099 -1.093,3.578 -1.714,3.942c-0.621,0.364 -2.4,1.757 -5.335,1.521c-2.935,-0.236 -4.477,0.021 -5.463,-1.971c-0.985,-1.992 -1.349,-2.785 -1.435,-4.863Z" style="fill:#38281c;"/></g></g></svg>