<?xml version="1.0" encoding="UTF-8" standalone="no"?><!DOCTYPE svg PUBLIC "-//W3C//DTD SVG 1.1//EN" "http://www.w3.org/Graphics/SVG/1.1/DTD/svg11.dtd"><svg width="100%" height="100%" viewBox="0 0 150 150" version="1.1" xmlns="http://www.w3.org/2000/svg" xmlns:xlink="http://www.w3.org/1999/xlink" xml:space="preserve" xmlns:serif="http://www.serif.com/" style="fill-rule:evenodd;clip-rule:evenodd;stroke-linejoin:round;stroke-miterlimit:2;"><path id="base" d="M150,75c0,-41.394 -33.606,-75 -75,-75c-41.394,0 -75,33.606 -75,75c0,41.394 33.606,75 75,75c41.394,0 75,-33.606 75,-75Z" style="fill:#03214f;"/><path id="outline" d="M144,75c0,-38.082 -30.918,-69 -69,-69c-38.082,0 -69,30.918 -69,69c0,38.082 30.918,69 69,69c38.082,0 69,-30.918 69,-69Z" style="fill:#1fbaed;"/><path id="core" d="M141,75c0,-36.426 -29.574,-66 -66,-66c-36.426,0 -66,29.574 -66,66c0,36.426 29.574,66 66,66c36.426,0 66,-29.574 66,-66Z" style="fill:#fff;"/><clipPath id="_clip1"><path d="M141,75c0,-36.426 -29.574,-66 -66,-66c-36.426,0 -66,29.574 -66,66c0,36.426 29.574,66 66,66c36.426,0 66,-29.574 66,-66Z"/></clipPath><g clip-path="url(#_clip1)"><g id="lirik"><path d="M102.294,115.833c-20.851,53.05 -40.711,49.541 -59.862,5.69l7.841,-10.069c0,0 -3.299,-11.527 -3.673,-14.603c-0.373,-3.076 -0.571,-4.46 -0.615,-5.294c0,-0 -0.593,-0.462 -0.637,-1.011c-0.044,-0.549 -0.241,-3.889 -0.395,-4.658c-0.154,-0.769 -0.396,-3.888 -0.681,-4.635c-0.286,-0.747 -1.011,-3.472 -1.384,-4.109c-0.374,-0.637 -0.989,-2.416 -0.528,-3.251c0.462,-0.835 1.582,-2.197 2.175,-1.67c0.593,0.527 1.472,1.143 1.472,1.143l0.506,-11.469c-0.905,-9.575 11.078,-33.571 33.087,-27.519c22.372,6.152 28.734,20.108 26.934,34.132l0.901,8.371c-0,-0 1.669,-0.022 2.658,0.132c0.989,0.153 2.439,1.296 2.219,2.526c-0.22,1.23 -1.648,3.977 -2.263,4.833c-0.615,0.857 -1.67,2.988 -1.801,3.581c-0.132,0.594 -0.681,1.846 -1.033,2.439c-0.352,0.593 -0.813,2.768 -0.901,3.23c-0.088,0.461 -0.197,1.955 -0.659,2.46c-0.461,0.506 -0.988,1.714 -1.274,1.934c-0.286,0.219 -0.879,2.438 -1.077,3.053c-0.197,0.616 -0.725,3.977 -1.01,4.57c-0.286,0.593 -2.527,7.074 -2.527,7.074l2.527,3.12Z" style="fill:#d4987e;"/><path d="M23.369,119.508c0,-0 5.145,-1.381 5.773,-1.632c0.627,-0.251 4.058,-1.171 5.438,-1.589c1.381,-0.419 2.887,-0.586 4.602,-1.046c1.715,-0.46 4.768,-0.837 5.898,-1.088c1.129,-0.251 3.723,-1.004 3.723,-1.004l1.59,-0.418l3.012,7.781c-0,-0 -1.423,2.426 -1.548,3.681c-0.126,1.255 -0.502,3.639 -0.46,5.522c0.041,1.882 0.836,6.484 2.384,8.492c1.548,2.008 23.635,3.765 23.635,3.765c0,-0 2.97,-1.423 4.727,-2.845c1.757,-1.422 6.902,-5.271 7.613,-5.94c0.712,-0.67 4.979,-4.267 5.773,-5.355c0.795,-1.087 2.97,-4.016 3.472,-5.312c0.502,-1.297 1.674,-5.104 1.674,-5.857c-0,-0.753 -0.753,-1.422 -1.13,-1.882c-0.376,-0.46 -0.293,-2.51 -0.293,-2.51c0,-0 1.339,0.167 2.092,1.087c0.753,0.921 1.255,1.799 1.924,2.218c0.67,0.418 2.887,1.589 3.891,2.886c1.004,1.297 1.338,1.882 1.924,2.008c0.586,0.125 2.844,-0.628 3.639,-0.377c0.795,0.251 5.02,1.004 7.321,3.263c2.301,2.259 -0.126,11.169 -0.126,11.169c-41.051,21.362 -73.33,16.641 -96.548,-15.017Z" style="fill:#343537;"/><path d="M46.26,95.399c-0,0 -0,2.227 0.046,2.664c0.046,0.436 0.298,1.63 0.436,2.066c0.138,0.437 0.368,2.205 0.459,2.618c0.092,0.413 0.253,0.827 0.161,1.47c-0.092,0.643 0.069,1.837 0.39,2.48c0.322,0.643 0.529,1.469 0.529,1.469c-0,0 0.275,1.814 0.551,2.411c0.275,0.597 0.78,3.123 1.01,3.743c0.23,0.62 0.138,0.574 0.597,1.516c0.459,0.941 0.804,1.699 0.873,2.227c0.069,0.528 0.321,1.791 0.574,3.031c0.252,1.24 -0.138,0.781 0.551,1.676c0.689,0.896 0.872,0.873 1.332,1.723c0.459,0.849 0.252,0.597 1.125,1.377c0.872,0.781 0.964,0.391 1.515,1.217c0.551,0.827 0.597,1.309 0.988,1.86c0.39,0.551 1.63,2.388 2.617,2.962c0.988,0.574 1.47,0.483 2.113,1.057c0.643,0.574 0.115,0.367 1.424,0.964c1.309,0.597 1.974,0.758 3.191,0.965c1.217,0.206 2.205,0.252 3.491,0.597c1.286,0.344 2.25,0.711 3.49,0.62c1.24,-0.092 3.238,-0.46 4.822,-0.712c1.585,-0.253 1.906,-0.046 3.008,-0.827c1.102,-0.781 0.689,-0.505 2.021,-1.515c1.332,-1.011 1.286,-0.896 2.778,-1.792c1.493,-0.895 1.332,-0.688 2.48,-1.561c1.149,-0.873 1.011,-0.666 2.09,-1.607c1.079,-0.942 0.528,-0.368 1.653,-1.539c1.125,-1.171 2.09,-2.388 2.733,-3.008c0.643,-0.62 1.148,-1.171 1.607,-2.296c0.459,-1.125 0.712,-1.562 1.194,-2.595c0.482,-1.033 0.138,-0.689 0.735,-1.699c0.597,-1.011 0.436,-0.161 1.01,-1.539c0.574,-1.377 0.758,-1.309 0.804,-2.158c0.046,-0.85 -0.115,-0.597 0.253,-1.47c0.367,-0.872 1.469,-3.444 1.676,-4.386c0.207,-0.941 0.689,-2.112 0.689,-2.709c-0,-0.597 -0,-2.113 0.069,-2.503c0.069,-0.39 0.183,-1.929 0.183,-1.929c0,0 -0.78,2.434 -1.01,2.962c-0.23,0.528 -0.666,1.768 -1.056,2.641c-0.391,0.873 -0.368,1.079 -0.919,1.791c-0.551,0.712 -0.941,1.056 -1.653,1.722c-0.712,0.666 -0.482,0.735 -1.493,1.493c-1.01,0.758 -0.367,0.482 -2.548,1.676c-2.182,1.194 -1.493,0.781 -2.71,1.47c-1.217,0.689 -0.712,1.125 -2.756,1.653c-2.043,0.528 -2.296,1.263 -2.342,0.666c-0.046,-0.597 -0.436,-2.503 -0.482,-2.71c-0.046,-0.206 -0.367,-1.263 -1.125,-1.584c-0.758,-0.322 -4.501,-1.906 -5.534,-2.227c-1.033,-0.322 -1.056,-0.368 -2.159,-1.149c-1.102,-0.78 -1.331,-1.653 -2.939,-1.446c-1.607,0.206 -1.997,0.367 -2.296,0.551c-0.298,0.184 -0.643,0.459 -1.056,0.321c-0.414,-0.137 -1.814,-1.056 -2.549,-1.354c-0.735,-0.299 -0.505,-0.575 -1.47,-0.345c-0.964,0.23 -3.031,1.653 -4.202,1.562c-1.171,-0.092 -0.849,-0.161 -1.998,-0.23c-1.148,-0.069 -0.665,-0.436 -2.112,-0.046c-1.447,0.39 -1.125,0.299 -2.756,1.01c-1.63,0.712 -1.86,1.08 -2.824,1.057c-0.964,-0.023 -3.054,-3.169 -3.881,-3.95c-0.826,-0.781 -1.354,-2.641 -1.653,-3.559c-0.298,-0.919 -0.941,-3.49 -1.033,-3.95c-0.092,-0.459 -0.712,-2.893 -0.712,-2.893Zm14.768,17.839c0,0 0.551,-0.421 1.004,-0.712c0.453,-0.291 0.486,-0.55 1.878,-0.81c1.392,-0.259 1.068,-0.55 2.558,-0.582c1.489,-0.033 1.942,0.194 2.558,0.842c0.615,0.647 1.716,0.712 2.525,0.647c0.809,-0.065 1.133,-0.324 2.169,-0.129c1.036,0.194 0.421,-0.68 2.299,0.485c1.878,1.166 2.623,1.36 3.529,1.813c0.907,0.454 2.04,1.166 2.17,1.619c0.129,0.454 -0.648,1.619 -1.198,2.008c-0.551,0.388 -0.745,0.55 -1.619,1.068c-0.874,0.518 -0.777,0.939 -2.234,1.133c-1.457,0.195 -1.36,0.195 -3.173,0.098c-1.813,-0.098 -0.81,0.097 -3.335,-0.26c-2.526,-0.356 -2.008,-0.291 -4.08,-0.615c-2.072,-0.323 -2.428,0.065 -3.173,-0.906c-0.745,-0.972 -1.165,-1.36 -1.554,-2.267c-0.388,-0.906 -0.68,-1.651 -0.68,-2.007c0,-0.356 0.356,-1.425 0.356,-1.425Zm-15.347,-33.122c0,-0 0.324,-2.849 0.227,-3.659c-0.097,-0.809 -0.356,-2.622 -0.453,-3.27c-0.098,-0.648 -0.098,-2.72 -0.162,-3.95c-0.065,-1.23 -0.065,-2.267 -0.259,-3.206c-0.195,-0.938 -0.421,-3.723 -0.421,-4.468c-0,-0.744 -0.356,-3.723 -0.097,-5.245c0.259,-1.522 0.55,-2.525 0.744,-3.302c0.195,-0.777 0.81,-4.533 0.81,-5.861c-0,-1.327 0.065,-0.906 -0,-2.007c-0.065,-1.101 -0.162,-2.137 0.194,-3.044c0.356,-0.906 0.583,-1.36 0.486,-1.975c-0.097,-0.615 -0.454,-0.744 -0.13,-1.716c0.324,-0.971 0.615,-1.489 0.842,-1.91c0.227,-0.421 1.327,-1.522 1.587,-2.493c0.259,-0.971 0.388,-1.23 0.841,-2.299c0.454,-1.068 -0.032,-0.291 0.68,-1.651c0.713,-1.36 0.777,-1.911 1.328,-2.461c0.55,-0.55 2.299,-1.425 2.299,-1.425c-0,0 2.46,-2.169 3.302,-2.525c0.842,-0.356 1.457,-0.68 1.457,-0.68c0,0 2.331,-2.364 3.983,-2.784c1.651,-0.421 6.767,0.874 6.767,0.874c-0,-0 2.687,-1.425 3.626,-1.554c0.939,-0.13 2.493,0.323 2.493,0.323c-0,0 1.327,-0.582 2.04,-0.453c0.712,0.13 2.558,0.648 2.558,0.648c-0,-0 2.719,-0.097 3.788,0.226c1.068,0.324 2.331,0.518 2.331,0.518c-0,0 2.687,0 3.497,0.13c0.809,0.129 3.076,0.906 4.176,1.263c1.101,0.356 1.522,0.291 2.688,0.744c1.165,0.454 0.777,-0.291 2.59,0.81c1.813,1.101 2.72,1.165 3.076,1.586c0.356,0.421 2.104,3.465 2.59,4.566c0.486,1.1 1.328,1.586 1.587,2.654c0.259,1.069 0.162,1.684 0.939,2.947c0.777,1.263 1.036,0.809 1.036,1.813c-0,1.004 -0.033,4.436 -0.033,5.148c0,0.712 -0.259,1.587 -0.032,2.526c0.227,0.939 0.777,2.622 1.004,3.367c0.226,0.745 -0.195,2.202 0.291,4.177c0.486,1.975 0.68,2.914 0.842,4.112c0.162,1.198 0.227,2.816 -0,4.241c-0.227,1.425 -0.551,3.918 -0.551,4.986c0,1.069 -0.809,3.853 -0.971,5.245c-0.162,1.393 -0.874,4.339 -1.133,5.343c-0.259,1.003 -0.615,2.007 -0.842,2.719c-0.227,0.713 -1.198,4.857 -1.263,5.764c-0.064,0.906 -0.421,5.828 -0.485,6.67c-0.065,0.841 -0.777,5.245 -1.004,5.925c-0.227,0.68 -0.518,0.971 -0.518,0.971c-0,-0 0.486,-2.428 0.583,-3.335c0.097,-0.906 0.939,-8.654 0.809,-10.846c-0.129,-2.193 -0.971,-8.312 -1.133,-9.024c-0.162,-0.713 -0.583,-3.109 -1.295,-3.789c-0.712,-0.679 -1.716,-1.78 -1.975,-2.881c-0.259,-1.101 0.518,-5.375 0.615,-6.638c0.097,-1.262 0.453,-2.493 0.291,-3.334c-0.162,-0.842 -0.647,-1.555 -1.521,-2.72c-0.875,-1.166 -2.332,-1.716 -3.465,-1.975c-1.133,-0.259 -2.04,0.226 -2.752,0.485c-0.712,0.259 -1.619,0.842 -2.946,0.227c-1.328,-0.615 -2.752,-0.712 -4.727,-0.842c-1.975,-0.129 -2.85,-0.324 -4.404,-0.453c-1.554,-0.13 -4.727,-1.069 -6.411,-0.745c-1.683,0.324 -4.759,-0.259 -6.281,-0.324c-1.522,-0.064 -1.91,-1.036 -3.723,-1.133c-1.813,-0.097 -1.425,-0.097 -3.789,-0.064c-2.363,0.032 -2.169,-0.389 -4.371,-0.195c-2.201,0.195 -3.302,-0.647 -3.917,-0.388c-0.615,0.259 -2.364,1.262 -2.396,2.881c-0.033,1.619 0.226,4.307 -0,5.051c-0.227,0.745 -0.453,3.918 -0.81,4.727c-0.356,0.81 -1.91,2.85 -2.169,3.465c-0.259,0.615 -1.004,3.011 -1.133,4.209c-0.13,1.198 -1.069,7.881 -1.425,9.283Z" style="fill:#1e1510;"/></g></g></svg>