<?xml version="1.0" encoding="UTF-8" standalone="no"?><!DOCTYPE svg PUBLIC "-//W3C//DTD SVG 1.1//EN" "http://www.w3.org/Graphics/SVG/1.1/DTD/svg11.dtd"><svg width="100%" height="100%" viewBox="0 0 150 150" version="1.1" xmlns="http://www.w3.org/2000/svg" xmlns:xlink="http://www.w3.org/1999/xlink" xml:space="preserve" xmlns:serif="http://www.serif.com/" style="fill-rule:evenodd;clip-rule:evenodd;stroke-linejoin:round;stroke-miterlimit:2;"><path id="base" d="M150,75c0,-41.394 -33.606,-75 -75,-75c-41.394,0 -75,33.606 -75,75c0,41.394 33.606,75 75,75c41.394,0 75,-33.606 75,-75Z" style="fill:#03214f;"/><path id="outline" d="M144,75c0,-38.082 -30.918,-69 -69,-69c-38.082,0 -69,30.918 -69,69c0,38.082 30.918,69 69,69c38.082,0 69,-30.918 69,-69Z" style="fill:#1fbaed;"/><path id="core" d="M141,75c0,-36.426 -29.574,-66 -66,-66c-36.426,0 -66,29.574 -66,66c0,36.426 29.574,66 66,66c36.426,0 66,-29.574 66,-66Z" style="fill:#fff;"/><clipPath id="_clip1"><path d="M141,75c0,-36.426 -29.574,-66 -66,-66c-36.426,0 -66,29.574 -66,66c0,36.426 29.574,66 66,66c36.426,0 66,-29.574 66,-66Z"/></clipPath><g clip-path="url(#_clip1)"><g id="ninja"><path d="M79.231,132.566c-14.167,-13.324 -30.889,-25.313 -22.452,-50.437c-0,-0 3.618,-3.698 3.458,-4.762c-0.16,-1.064 -0.293,-3.271 -0.612,-3.963c-0.319,-0.691 -1.01,-1.419 -1.489,-2.643c-0.479,-1.223 -1.33,-4.082 -1.41,-4.627c0,-0 -0.718,0.199 -1.489,-0.014c-0.772,-0.213 -2.022,-1.383 -2.527,-2.048c-0.505,-0.665 -1.489,-2.287 -1.569,-2.952c-0.08,-0.665 -0.399,-2.5 -0.559,-3.165c-0.159,-0.665 -0.186,-2.447 -0.079,-3.218c0.106,-0.771 2.978,-13.485 2.978,-13.485c2.224,-8.86 6.705,-15.011 15.393,-16.114c11.182,-1.095 20.478,3.565 25.357,21.703c0,0 0.258,6.109 0.228,6.91c-0.031,0.8 -0.031,4.68 -0.524,5.326c-0.492,0.647 -0.646,1.047 -0.739,1.447c-0.092,0.401 -1.847,1.694 -2.463,2.094c-0.616,0.4 -0.924,0.493 -0.924,0.493c0,-0 -0.153,3.633 -0.277,4.495c-0.123,0.862 -0.461,2.771 -0.708,3.079c0,-0 0.185,2.586 0.247,3.202c0.061,0.616 0.03,4.095 0.369,4.803c0.339,0.708 3.294,3.849 3.294,3.849c9.74,22.855 -4.638,35.245 -13.503,50.027Z" style="fill:#d7a79b;"/><path d="M59.577,78.003c-0,-0 0.743,0.097 0.775,1.001c0.032,0.905 0.549,6.234 0.549,6.687c0,0.452 -1.486,3.359 -1.486,4.328c0,0.969 -0.291,2.519 -0.032,3.682c0.258,1.163 -0.129,3.198 -0.388,4.458c-0.258,1.259 0.323,3.908 0.388,4.522c0.064,0.613 1.474,3.228 1.518,3.779c0.103,1.282 2.109,5.427 2.109,5.427l12.265,14.244c-0,0 2.358,-0.387 2.422,-1.001c0.065,-0.614 0.065,-1.001 0.517,-1.131c0.452,-0.129 0.646,0.291 0.775,-0.064c0.13,-0.356 0.517,-1.163 1.034,-2.326c0.517,-1.163 1.098,-2.778 1.583,-3.65c0.484,-0.872 1.227,-1.776 1.356,-2.326c0.13,-0.549 0.84,-1.938 1.034,-2.551c0.194,-0.614 0.42,-1.325 0.743,-2.003c0.323,-0.678 1.324,-2.713 1.712,-3.65c0.388,-0.937 1.195,-2.229 1.453,-3.069c0.259,-0.839 0.356,-1.356 0.614,-2.358c0.259,-1.001 0.517,-2.099 0.775,-2.971c0.259,-0.872 1.519,-3.553 1.809,-4.361c0.291,-0.807 0.323,-1.841 0.42,-3.068c0.097,-1.228 0.226,-2.94 0.129,-3.877c-0.097,-0.936 -0.71,-2.842 -0.678,-3.714c0.032,-0.872 -0.258,-1.68 -0.646,-2.164c-0.388,-0.485 -0.807,-1.163 -0.388,-1.615c0.42,-0.453 5.782,8.753 5.782,8.753c12.501,34.884 -8.867,36.462 -21.457,46.674c-25.578,-13.256 -30.743,-32.397 -14.687,-57.656Z" style="fill:#20272d;"/><path d="M54.55,58.564c-0,0 -0.435,0.368 -0.87,-0.334c-0.435,-0.703 0.1,-1.204 -0.903,-1.84c-1.004,-0.636 -1.271,-0.903 -1.673,-1.438c-0.401,-0.536 -0.903,-1.439 -1.405,-2.409c-0.502,-0.97 -1.204,-1.773 -1.338,-2.743c-0.134,-0.97 -0.234,-1.506 -0.167,-2.308c0.067,-0.803 0.435,-1.907 0.669,-2.743c0.234,-0.837 1.572,-0.636 0.1,-1.405c-1.472,-0.77 -4.115,-1.305 -4.115,-1.305c0,-0 -0.602,-1.807 -0.535,-2.777c0.067,-0.97 -0.468,-1.706 -0.502,-2.04c-0.033,-0.335 0.302,0.401 -0.234,-0.402c-0.535,-0.803 -1.003,-0.869 -0.468,-1.806c0.535,-0.937 0.769,-1.204 1.372,-1.673c0.602,-0.468 1.639,-0.602 1.405,-1.572c-0.235,-0.97 -0.636,-1.171 -0.067,-2.308c0.568,-1.138 0.869,-1.405 1.17,-2.108c0.302,-0.702 0.302,-1.171 1.205,-2.174c0.903,-1.004 1.639,-1.606 1.739,-2.241c0.101,-0.636 -1.773,-0.101 -0.301,-1.506c1.472,-1.405 2.375,-2.074 2.877,-2.509c0.502,-0.435 -1.438,0.569 1.472,-0.936c2.91,-1.506 2.676,-1.573 3.747,-1.941c1.07,-0.368 1.204,-0.301 2.877,-0.468c1.672,-0.167 0.267,-0.468 2.642,-0.301c2.375,0.167 2.877,0.803 2.911,0.1c0.033,-0.702 -0.368,-1.605 0.502,-1.137c0.869,0.468 3.044,1.907 3.88,2.04c0.836,0.134 0.569,-0.501 2.275,-0.2c1.706,0.301 1.338,-0.234 2.174,0.468c0.836,0.703 0.636,0.569 1.706,0.669c1.071,0.1 1.506,-0.502 2.308,0.468c0.803,0.971 2.376,1.907 2.978,2.376c0.602,0.468 1.739,0.535 2.776,0.736c1.037,0.2 1.338,0.735 1.907,1.639c0.569,0.903 0.502,2.877 1.037,3.646c0.535,0.769 1.472,1.305 1.472,-0.201c0,-1.505 0,-2.943 0.033,-3.311c0.034,-0.368 1.205,-0.402 1.941,1.17c0.736,1.573 1.037,3.145 1.472,4.282c0.435,1.138 0.936,1.138 1.003,2.543c0.067,1.405 0,1.572 0.201,2.609c0.201,1.037 1.004,1.204 0.937,2.91c-0.067,1.706 0.702,4.617 0.434,5.988c-0.267,1.372 -0.501,1.272 -0.635,2.409c-0.134,1.137 0.1,2.074 0.234,2.877c0.134,0.803 0.769,2.174 0.1,2.375c-0.669,0.201 -1.137,-0.034 -1.137,-0.034c0,0 0.301,0.502 -0.401,1.506c-0.703,1.003 -0.569,1.037 -1.338,2.007c-0.77,0.97 -0.636,1.07 -1.138,2.007c-0.502,0.937 -0.635,1.539 -0.937,1.204c-0.301,-0.334 -0.066,-0.602 -0.2,-1.773c-0.134,-1.17 -0.067,-1.003 -0.368,-2.341c-0.301,-1.338 -0.201,-1.305 -0.301,-2.375c-0.101,-1.071 -0.335,-1.405 -0.335,-2.81c0,-1.405 0.134,-2.208 -0.401,-3.68c-0.536,-1.472 -0.602,-1.84 -1.271,-2.977c-0.67,-1.138 -1.104,-2.509 -1.773,-3.647c-0.669,-1.137 0.234,-3.847 -1.539,-2.475c-1.773,1.371 -1.372,0.903 -2.71,2.676c-1.338,1.773 -1.806,2.409 -3.446,3.479c-1.639,1.071 -2.14,1.907 -3.01,2.275c-0.87,0.368 -0.168,0.334 -1.539,0.602c-1.372,0.268 -0.97,0.134 -0.201,-1.171c0.77,-1.305 2.041,-3.613 2.041,-3.613c-0,0 -4.048,1.907 -4.349,2.743c-0.301,0.837 -1.806,1.84 -1.706,0.636c0.1,-1.204 -0.836,-1.873 -2.375,-0.435c-1.539,1.439 -4.148,2.108 -4.349,2.342c-0.201,0.234 2.475,-1.539 -0.401,0.803c-2.877,2.341 -4.717,3.278 -4.717,3.278c-0,-0 -1.573,0.301 -2.175,0.502c-0.602,0.2 -0.468,-0 -0.736,0.167c-0.267,0.167 -0.802,2.241 -0.468,2.81c0.335,0.569 0.535,1.104 0.669,1.974c0.134,0.869 0.368,2.007 0.301,2.642c-0.067,0.636 -0.167,2.041 -0.033,2.509Z" style="fill:#2a656d;"/><path d="M89.851,80.451c-0.072,-0.332 -0.361,-1.682 -0.379,-2.046c0,0 -0.021,-0.416 0.27,-0.249c0.291,0.166 1.85,0.977 2.391,1.392c0.54,0.416 1.58,1.289 2.058,1.372c0.478,0.084 1.85,-0.083 2.557,0.167c0.707,0.249 2.744,1.309 3.139,1.808c0.395,0.499 0.582,0.998 1.039,1.123c0.458,0.125 2.059,1.33 2.661,1.122c0.603,-0.207 0.728,-1.413 1.352,-1.413c0.623,-0 1.954,0.582 2.411,1.019c0.457,0.436 1.144,1.434 1.559,1.704c0.416,0.27 0.957,0.686 1.559,1.04c0.603,0.353 2.246,0.769 2.661,1.704c0.416,0.936 0.354,1.31 0.395,1.663c0,0 1.331,0.146 1.809,0.25c0.478,0.104 2.349,0.644 2.682,0.956c0.332,0.312 1.226,0.686 1.767,0.832c0.54,0.145 1.975,0.228 2.681,0.457c0.707,0.229 2.225,0.374 2.682,0.956c0.457,0.582 1.081,1.684 1.476,2.037c0.395,0.354 0.748,0.77 1.268,1.165c0.52,0.395 1.206,1.289 1.684,1.933c0.478,0.644 1.414,1.559 1.725,2.058c0.312,0.499 1.414,1.829 1.643,2.515c0.228,0.686 1.247,2.37 1.247,2.37c-32.964,46.084 -70.568,52.518 -113.841,10.511c-0,0 0.848,-4.18 0.969,-4.968c0.121,-0.788 1.212,-4.665 1.576,-5.635c0.363,-0.969 1.333,-2.181 1.817,-3.029c0.485,-0.848 1.091,-2.181 2,-2.787c0.909,-0.606 1.999,-1.333 2.605,-1.939c0.606,-0.606 2.545,-2 3.393,-2.848c0.848,-0.848 3.03,-1.09 3.817,-1.454c0.788,-0.364 0.914,-0.49 0.935,-0.802c0.021,-0.312 0.354,-1.206 0.749,-1.476c0.395,-0.27 2.016,-0.582 2.681,-0.831c0.666,-0.25 1.788,-0.624 2.162,-0.957c0.375,-0.332 1.58,-1.933 1.934,-2.266c0.353,-0.332 1.309,-0.79 1.621,-1.122c0.312,-0.333 1.913,-1.601 2.495,-1.934c0.582,-0.332 2.702,-0.561 3.222,-0.602c0.52,-0.042 1.227,-0.312 1.476,-0.811c0.249,-0.499 0.728,-1.642 0.977,-2.1c0.25,-0.457 1.705,-2.037 2.287,-2.557c0.582,-0.519 2.474,-1.413 2.765,-1.538c-0,-0 0.249,0.52 0.208,1.081c-0.042,0.561 0.041,1.393 -0.084,1.954c-0.124,0.561 -0.623,1.85 -0.79,2.266c-0.166,0.416 -2.203,5.197 -2.515,5.821c-0.312,0.623 -0.956,4.76 -0.977,5.613c-0.021,0.852 1.039,5.633 1.518,6.901c0.478,1.268 2.016,4.2 2.577,5.177c0.562,0.977 3.202,4.137 3.825,4.906c0.624,0.769 3.035,3.97 4.179,4.906c1.143,0.935 3.014,2.806 4.012,3.576c0.771,0.594 2.585,1.846 3.695,2.931c0.68,0.811 1.358,1.758 1.726,2.3c0.599,0.883 1.482,1.608 1.482,1.608c-0,-0 0.661,-0.599 1.197,-1.671c0.536,-1.071 1.545,-2.017 2.333,-3.215c0.788,-1.198 1.986,-2.112 2.616,-3.026c0.631,-0.914 1.545,-2.679 1.923,-3.499c0.378,-0.82 1.072,-2.869 1.545,-4.445c0.473,-1.576 1.229,-3.625 1.355,-4.507c0.126,-0.883 1.198,-4.539 1.387,-5.454c0.189,-0.914 0.757,-4.98 0.946,-6.745c0.189,-1.766 0.189,-5.926 -0,-8.511c-0.189,-2.585 -2.135,-4.757 -2.135,-4.757Z" style="fill:#61666c;"/></g></g></svg>