<?xml version="1.0" encoding="UTF-8" standalone="no"?><!DOCTYPE svg PUBLIC "-//W3C//DTD SVG 1.1//EN" "http://www.w3.org/Graphics/SVG/1.1/DTD/svg11.dtd"><svg width="100%" height="100%" viewBox="0 0 150 150" version="1.1" xmlns="http://www.w3.org/2000/svg" xmlns:xlink="http://www.w3.org/1999/xlink" xml:space="preserve" xmlns:serif="http://www.serif.com/" style="fill-rule:evenodd;clip-rule:evenodd;stroke-linejoin:round;stroke-miterlimit:2;"><path id="base" d="M150,75c0,-41.394 -33.606,-75 -75,-75c-41.394,0 -75,33.606 -75,75c0,41.394 33.606,75 75,75c41.394,0 75,-33.606 75,-75Z" style="fill:#03214f;"/><path id="outline" d="M144,75c0,-38.082 -30.918,-69 -69,-69c-38.082,0 -69,30.918 -69,69c0,38.082 30.918,69 69,69c38.082,0 69,-30.918 69,-69Z" style="fill:#1fbaed;"/><path id="core" d="M141,75c0,-36.426 -29.574,-66 -66,-66c-36.426,0 -66,29.574 -66,66c0,36.426 29.574,66 66,66c36.426,0 66,-29.574 66,-66Z" style="fill:#fff;"/><clipPath id="_clip1"><path d="M141,75c0,-36.426 -29.574,-66 -66,-66c-36.426,0 -66,29.574 -66,66c0,36.426 29.574,66 66,66c36.426,0 66,-29.574 66,-66Z"/></clipPath><g clip-path="url(#_clip1)"><g id="poki"><path d="M77.502,30.955c30.978,20.668 13.038,58.864 -5.799,73.641c-22.04,-19 -38.252,-39.349 5.799,-73.641Z" style="fill:#eabc9b;"/><path d="M29.64,128.55c-0,0 0.299,-3.39 0.349,-4.761c0.05,-1.371 0.224,-6.081 0.05,-7.178c-0.175,-1.097 -0.848,-8.35 -0.873,-9.172c-0.025,-0.823 0.399,-8.126 0.898,-9.248c0.498,-1.121 2.218,-6.081 2.617,-6.729c0.399,-0.648 1.196,-2.468 2.941,-3.639c1.745,-1.172 4.412,-2.892 5.683,-3.315c1.271,-0.424 8.998,-3.004 8.998,-3.004l16.648,16.816c0,-0 1.655,1.477 3.579,1.477c1.924,-0 2.779,-0.143 3.812,-0.517c1.033,-0.374 1.853,-0.677 3.064,-1.781c1.211,-1.104 2.049,-1.674 3.064,-3.527c1.015,-1.853 1.514,-3.42 1.853,-4.578c0.338,-1.158 1.336,-5.291 1.425,-5.879c0.089,-0.588 0.356,-4.596 1.888,-6.466c1.532,-1.871 5.267,-3.17 6.972,-2.541c1.705,0.63 9.155,2.518 11.384,3.2c2.23,0.682 6.584,2.335 7.712,3.673c1.128,1.338 3.778,5.299 4.145,7.24c0.367,1.941 0.839,5.928 0.944,8.053c0.105,2.125 1.181,7.371 1.286,8.866c0.105,1.495 1.311,3.358 1.783,5.22c0.473,1.863 1.784,7.581 1.784,9.811c0,2.23 0.688,5.362 0.688,5.362c-32.896,25.073 -64.035,28.865 -92.694,2.617Z" style="fill:#eceff8;"/><path d="M71.086,113.267c0.023,0.065 0.045,0.13 0.068,0.195c0.198,0.565 0.396,1.046 0.452,1.696c0.057,0.65 0.594,5.256 0.594,5.256c0.961,0.283 1.865,2.374 2.176,3.081c0.311,0.706 0.198,1.978 0.254,2.769c0.057,0.792 -0.452,1.724 -0.791,2.374c-0.339,0.65 -0.65,2.148 -0.622,2.826c0.028,0.679 0.17,1.47 0.085,2.035c-0.085,0.565 -0.424,1.866 -0.226,2.516c0.198,0.65 -0.198,1.384 -0.989,1.78c-0.792,0.396 -2.685,-0.226 -3.081,-0.678c-0.395,-0.452 -0.848,-0.509 -1.13,-0.594c-0.283,-0.085 -0.594,0.198 -1.102,-0.593c-0.509,-0.792 -0.566,-0.876 -0.989,-1.752c-0.424,-0.877 -0.65,-1.414 -0.99,-2.177c-0.339,-0.763 -0.508,-0.763 -0.791,-1.271c-0.282,-0.509 -0.904,-2.629 -0.989,-3.844c-0.085,-1.215 0.141,-1.356 0.141,-2.148c0,-0.791 -0.028,-1.328 -0.254,-2.289c-0.226,-0.961 -1.187,-1.837 -1.809,-2.515c-0.622,-0.678 -1.272,-0.113 -1.78,0.707c-0.509,0.819 -2.657,2.543 -3.307,3.278c-0.65,0.735 0.113,1.724 1.3,3.052c1.187,1.328 3.505,5.002 3.505,5.002c-1.668,-0.989 -4.918,-4.974 -5.737,-6.359c-0.82,-1.384 -1.696,0.848 -0.029,3.957c1.668,3.109 1.979,5.624 1.979,5.624c-0.622,-0.678 -2.657,-4.211 -2.996,-5.257c-0.339,-1.045 -1.13,-4.069 -1.13,-4.069c-2.855,3.419 -6.472,2.289 -6.472,2.289c3.589,-0.226 6.245,-3.25 6.245,-3.25c0,-0 0.34,-0.904 0.424,-1.385c0.085,-0.48 -0.028,-0.932 0,-1.498c0.029,-0.565 0.368,-0.961 0.679,-1.724c0.311,-0.763 1.271,-3.193 1.667,-3.73c0.396,-0.537 0.735,-1.159 0.763,-1.752c0.028,-0.594 -0.48,-1.046 -1.385,-1.47c-0.904,-0.424 -0.424,-0.254 -0.848,-0.678c-0.423,-0.424 -0.395,-1.074 -0.593,-1.667c-0.198,-0.594 -0.339,-0.848 -0.424,-1.527c-0.085,-0.678 -0.056,-2.967 0.452,-3.674c0.509,-0.706 0.339,-0.791 0.085,-0.819c-0.254,-0.028 -0.396,-0.424 -0.678,-0.848c-0.283,-0.424 -0.594,-0.791 -0.989,-1.187c-0.396,-0.396 -1.244,-0.989 -1.244,-0.989c0,-0 -0.706,0.509 -1.215,0.961c-0.509,0.452 -0.339,0.565 -0.707,1.328c-0.367,0.763 -0.48,0.961 -0.508,1.526c-0.029,0.565 -0.368,1.47 -0.368,1.47c0,-0 -0.056,-0.452 -0.113,-0.763c-0.056,-0.311 -0.141,-0.65 -0.367,-0.452c-0.226,0.197 -0.311,0.452 -0.791,1.215c-0.481,0.763 -0.707,1.017 -1.555,1.469c-0.848,0.453 -2.374,0 -2.374,0c0.368,-0.084 2.374,-1.384 2.826,-1.865c0.453,-0.48 0.509,-0.735 0.622,-1.413c0.113,-0.678 -0.085,-1.102 -0.226,-1.809c-0.141,-0.706 -0.17,-1.356 -0.226,-2.119c-0.057,-0.763 -0.113,-1.583 -0.594,-3.109c-0.48,-1.526 -0.791,-1.328 -1.158,-1.893c-0.368,-0.566 -0.65,-1.074 -1.018,-1.753c-0.367,-0.678 -0.621,-1.3 -0.847,-1.837c-0.227,-0.536 -0.509,-2.373 -0.453,-3.193c0.057,-0.82 -0.113,-0.989 -0.113,-0.989c0,-0 -0.876,0.791 -0.989,1.498c-0.113,0.706 0.085,1.328 0.311,2.148c0.226,0.819 0.396,0.989 0.82,1.865c0.424,0.876 0.734,1.385 0.904,2.035c0.17,0.65 0.848,1.893 1.187,2.684c0.339,0.792 0.65,2.572 0.424,2.007c-0.226,-0.565 -0.537,-0.933 -0.537,-0.933c-0,0 -0,0.311 0.141,0.65c0.141,0.339 0.622,2.402 0.622,2.402c-0,0 -0.791,-1.3 -1.074,-2.147c-0.283,-0.848 -1.752,-4.07 -2.063,-4.833c-0.311,-0.763 -1.357,-2.487 -1.583,-3.533c-0.226,-1.045 0.085,-2.911 0.509,-3.702c0.424,-0.791 1.102,-2.232 1.639,-3.193c0.537,-0.961 0.65,-1.074 0.537,-1.781c-0.113,-0.706 -0.904,-2.261 -0.735,-3.617c0.17,-1.357 0.311,-1.413 0.792,-2.289c0.48,-0.876 0.424,-0.622 0.565,-1.47c0.141,-0.848 -0.028,-2.176 0.113,-2.826c0.141,-0.65 0.961,-1.441 1.243,-2.091c0.283,-0.65 0.17,-2.007 0.509,-3.222c0.339,-1.215 1.244,-2.12 1.498,-3.165c0.254,-1.046 -0.028,-3.279 -0,-4.211c0.028,-0.933 -0.17,-4.324 0.028,-5.455c0.198,-1.13 1.187,-2.063 1.724,-3.052c0.537,-0.989 3.052,-6.556 3.9,-7.885c0.848,-1.328 1.978,-4.21 2.346,-5.369c0.367,-1.159 3.08,-5.37 3.843,-6.613c0.763,-1.244 4.155,-5.144 5.794,-6.444c1.639,-1.3 3.363,-1.808 5.143,-2.402c1.781,-0.593 4.889,-0.737 6.303,-0.82c1.45,-0.084 3.608,0.509 4.004,0.594c0.395,0.085 2.289,0.707 3.221,0.848c0.933,0.141 0.99,0.085 1.696,0.226c0.707,0.141 1.865,0.537 2.233,0.706c0.367,0.17 0.734,0.763 1.187,1.611c0.452,0.848 1.215,0.792 2.204,1.216c0.989,0.423 1.639,1.073 2.091,1.497c0.453,0.424 0.905,1.3 1.329,1.979c0.424,0.678 0.763,1.695 1.017,2.289c0.254,0.593 0.509,1.328 0.791,2.232c0.283,0.905 0.594,1.385 0.933,2.12c0.339,0.735 1.187,1.978 1.356,2.261c0.17,0.282 0.566,1.045 0.877,1.639c0.31,0.593 0.537,1.243 0.932,2.12c0.396,0.876 0.961,1.469 1.328,1.978c0.368,0.509 1.159,1.498 1.64,2.063c0.48,0.565 2.43,2.769 2.656,3.024c0.226,0.254 1.046,1.526 1.441,1.95c0.396,0.424 0.99,1.159 1.329,1.582c0.339,0.424 1.228,2.421 1.662,3.548c0.556,1.442 0.486,2.444 0.627,3.179c0.141,0.734 0.169,3.023 0.169,3.787c0,0.763 -0.197,1.158 -0.31,1.441c-0.114,0.282 -0.198,2.148 -0.537,2.685c-0.34,0.537 -0.566,2.006 -0.566,2.006c0,0 1.3,1.3 1.922,1.809c0.622,0.509 1.583,2.289 1.922,2.769c0.339,0.481 1.074,3.222 1.187,3.674c0.113,0.453 -0,1.046 -0.028,1.724c-0.029,0.679 -0.255,1.696 -0.255,2.092c0,0.395 0.368,0.565 0.961,1.158c0.594,0.594 0.113,1.102 0.113,1.442c0,0.339 -0.678,0.48 -0.933,0.508c-0.254,0.029 -1.667,0.029 -1.667,0.029c-0.198,0.395 -0.622,0.932 -0.622,0.932c-3.334,5.935 -8.478,1.781 -8.478,1.781c4.72,2.6 6.02,-0.142 6.981,-1.131c0.96,-0.989 1.365,-2.063 1.365,-2.063c-1.065,-0.113 -2.431,-1.187 -3.081,-1.837c-0.65,-0.65 -0.989,-1.978 -0.847,-3.137c0.141,-1.158 0.847,-2.656 0.847,-2.656c-0.226,-0.65 -1.186,-1.131 -1.95,-1.979c-0.763,-0.847 -1.893,-1.243 -1.893,-1.243c0.198,1.554 -0.396,4.606 -0.82,6.048c-0.423,1.441 -1.893,3.165 -2.628,3.843c-0.735,0.679 -2.967,1.357 -3.9,1.272c-0.932,-0.085 -2.119,-0.48 -2.996,-1.78c-0.876,-1.3 -0.169,-2.968 0.142,-3.42c0.311,-0.452 1.604,-1.667 2.713,-2.12c1.421,-0.579 3.675,-0.227 4.565,0.189c0,-0 -2.552,-0.578 -4.367,0.405c-0.834,0.451 -1.753,1.13 -2.403,1.724c-0.436,0.398 -0.327,2.468 0.521,3.599c0.692,0.924 2.532,0.696 3.464,0.442c0.933,-0.254 2.007,-1.893 2.374,-2.232c0.368,-0.34 0.763,-1.357 0.848,-1.894c0.085,-0.537 0.057,-1.78 -0.028,-2.854c-0.085,-1.074 -0.057,-2.629 0.169,-3.222c0.226,-0.594 0.638,-1.381 0.412,-1.777c-0.226,-0.396 -0.635,0.103 -1.087,0.103c-0.452,0 -1.043,0.158 -1.565,0.578c-0.355,0.286 -0.529,0.7 -1.151,1.265c-0.622,0.566 -3.589,2.177 -4.409,2.318c-0.819,0.141 -1.413,0.141 -2.43,0.282c-1.018,0.142 -1.074,-0.056 -1.865,-0.508c-0.792,-0.452 -0.99,-0.142 -1.668,0.056c-0.678,0.198 -1.695,0.368 -1.95,0.396c-0.254,0.028 -0.339,0.311 -1.215,1.215c-0.876,0.905 -0.82,1.018 -0.82,1.018l-0.141,1.695c0,0 -0.113,1.131 -0.282,1.131c-0.17,-0 -0.368,-0.113 -0.509,-0.339c-0.141,-0.227 -0.452,-1.216 -0.565,-1.894c-0.113,-0.678 -0.085,-0.763 -0.085,-1.498c-0,-0.735 0.169,-1.922 0.311,-2.713c0.141,-0.791 -0,-2.572 -0,-2.572c-0,0 1.554,-1.582 2.232,-2.317c0.679,-0.735 1.639,-2.007 1.781,-2.402c0.141,-0.396 0.395,-0.933 0.791,-1.668c0.396,-0.734 0.678,-1.526 0.848,-2.741c0.169,-1.215 0.735,-2.317 1.046,-2.713c0.31,-0.396 0.31,-1.215 0.593,-1.78c0.283,-0.566 0.254,-0.876 0.396,-1.3c0.141,-0.424 0.424,-0.679 0.819,-1.244c0.396,-0.565 0.198,-1.78 0.565,-2.402c0.368,-0.622 -0.395,-1.583 -0.734,-0.933c-0.339,0.65 -0.82,1.046 -0.82,1.046c0,-0.283 -0.085,-0.452 -0.113,-1.102c-0.028,-0.65 -0.254,-1.978 -0.311,-3.25c-0.056,-1.272 -0.226,-6.133 -0.226,-6.133c-0.424,-1.356 -1.187,-2.006 -1.724,-2.882c-0.537,-0.877 -1.3,-1.187 -2.176,-2.177c-0.876,-0.989 -1.837,-1.78 -3.024,-2.119c-1.187,-0.339 -2.826,-0.028 -3.476,-0c-0.65,0.028 -1.47,0.141 -2.543,0.593c-1.074,0.453 -3.109,1.329 -4.013,1.837c-0.905,0.509 -1.894,1.385 -2.431,1.922c-0.537,0.537 -1.922,1.894 -2.261,2.431c-0.339,0.536 -1.922,2.543 -2.543,3.363c-0.622,0.819 -2.12,1.865 -2.261,2.289c-0.141,0.424 -0.961,1.978 -1.328,2.6c-0.368,0.621 -1.272,2.458 -1.272,2.458c-0.085,0.368 -0.17,1.95 -0.198,2.855c-0.028,0.904 0.17,1.95 0.254,2.826c0.085,0.876 0.142,1.554 0.226,2.374c0.085,0.819 0.198,2.798 0.255,3.73c0.056,0.933 0.537,2.459 0.904,2.996c0.367,0.537 0.763,1.046 0.763,1.046c0,-0 0.057,1.074 0.226,1.78c0.17,0.707 0.17,0.933 0.452,2.176c0.283,1.244 0.17,1.95 0.424,2.713c0.255,0.763 1.611,3.674 1.809,4.268c0.198,0.593 1.95,3.165 2.317,4.267c0.368,1.102 0.396,0.961 0.707,2.12c0.311,1.158 -0.311,4.55 -0.622,5.397c-0.03,0.083 -0.054,0.168 -0.072,0.256c3.556,4.721 2.003,7.364 2.003,7.364c0.611,-2.465 -0.949,-5.175 -2.05,-6.702c0.017,0.664 0.176,1.396 0.119,2.078c-0.085,1.018 0.198,1.498 0.339,2.628c0.012,0.091 0.025,0.18 0.041,0.266c0.621,1.225 1.325,2.511 1.77,3.009c0.936,1.043 5.377,7.114 0.806,10.265Zm1.432,22.575c-0,-0 0.161,0.367 0.108,0.704c-0.053,0.336 -0.32,0.642 -1.176,0.52c-0,-0 1.112,-0.556 1.068,-1.224Zm-2.582,-3.449c0.172,-0.462 1.38,0.801 1.135,2.514c0,0 -0.089,1.069 -0.623,1.002c-0.534,-0.067 -0.934,-2.381 -0.512,-3.516Zm-3.85,-0.245c0,-0 -0.244,-3.227 -0.066,-3.761c-0,-0 -0.868,0.467 -1.024,1.558c-0.156,1.09 0.534,1.535 1.09,2.203Zm4.407,-0.579c0.12,-0.137 0.048,-0.459 -0.102,-0.726c-0.149,-0.266 -0.377,-0.476 -0.566,-0.387c-0.378,0.179 0.334,1.492 0.668,1.113Zm0.712,-0.601c0.118,-0.105 -0.049,-0.589 -0.287,-1.024c-0.238,-0.436 -0.548,-0.823 -0.715,-0.734c-0.333,0.178 0.802,1.936 1.002,1.758Zm0.912,-0.868c0.11,-0.164 -0.207,-0.687 -0.59,-1.127c-0.384,-0.44 -0.834,-0.798 -0.99,-0.631c-0.311,0.334 1.313,2.159 1.58,1.758Zm1.536,-5.563c0.297,-0.039 -0.2,4.295 -0.712,4.184c-0.512,-0.112 -1.536,-2.248 -1.491,-2.582c0.044,-0.334 1.691,-1.535 2.203,-1.602Zm-1.714,-2.048c0.226,-0.201 1.536,0.802 1.514,1.202c-0.023,0.401 -1.358,1.335 -1.603,1.202c-0.245,-0.134 -0.111,-2.226 0.089,-2.404Zm-3.961,-2.447c-0,-0 0.579,0.867 0.334,1.446c-0.245,0.579 0.378,0.245 0.489,-0.334c0.112,-0.578 -0.178,-0.712 -0.823,-1.112Zm-2.76,-1.224c0.207,-0.425 1.247,0.333 1.247,1.112c-0,0.779 -0.112,0.935 -0.312,1.046c-0.2,0.111 -1.335,-1.335 -0.935,-2.158Zm4.518,-0.179c0,0 -0.245,-1.98 -0.979,-2.781c-0.735,-0.801 -2.092,-0.023 -1.358,0.845c0.735,0.868 1.781,1.669 2.337,1.936Zm1.348,-5.378c0.813,-0.615 3.453,-3.125 0.256,-7.922c-0,0 1.1,5.532 -0.475,7.311c0.077,0.208 0.148,0.411 0.219,0.611Zm-0.807,-8.285c0.211,1.225 0.007,4.226 -0.197,4.812c-0.226,0.65 0.113,1.187 0.396,1.866c0.102,0.244 0.192,0.473 0.276,0.694c0.412,-1.274 1.132,-4.406 -0.475,-7.372Zm-16.855,-5.447c0,0 1.701,1.886 1.871,2.241c0.17,0.356 -0.031,0.928 -0.804,0.294c-0.773,-0.634 -0.897,-1.252 -1.067,-2.535Zm60.074,-13.158c-0,0 -0.095,-0.043 -0.223,-0.124c-0.129,-0.082 -0.292,-0.202 -0.429,-0.356c-0,-0 -0.137,0.617 0.652,0.48Zm0.583,-0.206c0.271,0.055 -0.138,-1.612 -0.481,-1.68c-0.343,-0.069 -0.583,0.343 -0.548,0.686c0.034,0.343 0.686,0.926 1.029,0.994Zm-2.985,-0.48c0,0 0.241,-2.332 -0.377,-3.224c-0.617,-0.892 -1.338,-2.607 -1.715,-2.573c-0.377,0.034 -3.053,4.288 2.092,5.797Zm0.721,-2.264c-0,0 -1.235,-3.396 -1.715,-3.979c-0.481,-0.583 -0.035,-1.578 0.651,-0.583c0.686,0.995 1.304,3.156 1.064,4.562Zm-17.597,-6.311c0,-0 1.235,-1.509 1.818,-2.093c0.583,-0.583 2.779,-1.509 3.087,-1.989c0,-0 -1.989,3.67 -4.905,4.082Zm6.552,-5.18c0.223,-0.279 1.063,0.48 0.686,0.858c-0.378,0.377 -1.269,1.029 -1.475,0.823c-0.206,-0.206 0.514,-1.338 0.789,-1.681Zm-3.876,1.029c-0,0 0.48,-0.789 0.72,-1.2c0.24,-0.412 1.098,-2.093 1.406,-1.818c0.309,0.274 0.24,2.435 -2.126,3.018Zm6.242,-11.696c0,-0 1.784,2.847 2.127,3.464c0.343,0.617 2.573,2.71 3.019,2.435c0.446,-0.274 -1.612,-2.572 -2.23,-3.121c-0.617,-0.549 -1.886,-2.161 -2.916,-2.778Zm-0.863,-9.31c-0,0 0.645,1.605 1.162,3.173c0.224,0.681 0.239,2.103 0.276,2.453c0,-0 1.404,0.742 2.05,1.553c0.645,0.812 1.752,1.955 2.545,3.228c0,0 -1.505,-5.125 -2.455,-6.478c-0.878,-1.25 -2.121,-1.937 -3.578,-3.929Z" style="fill:#60453b;"/></g></g></svg>