<?xml version="1.0" encoding="UTF-8" standalone="no"?><!DOCTYPE svg PUBLIC "-//W3C//DTD SVG 1.1//EN" "http://www.w3.org/Graphics/SVG/1.1/DTD/svg11.dtd"><svg width="100%" height="100%" viewBox="0 0 150 150" version="1.1" xmlns="http://www.w3.org/2000/svg" xmlns:xlink="http://www.w3.org/1999/xlink" xml:space="preserve" xmlns:serif="http://www.serif.com/" style="fill-rule:evenodd;clip-rule:evenodd;stroke-linejoin:round;stroke-miterlimit:2;"><path id="base" d="M150,75c0,-41.394 -33.606,-75 -75,-75c-41.394,0 -75,33.606 -75,75c0,41.394 33.606,75 75,75c41.394,0 75,-33.606 75,-75Z" style="fill:#03214f;"/><path id="outline" d="M144,75c0,-38.082 -30.918,-69 -69,-69c-38.082,0 -69,30.918 -69,69c0,38.082 30.918,69 69,69c38.082,0 69,-30.918 69,-69Z" style="fill:#1fbaed;"/><path id="core" d="M141,75c0,-36.426 -29.574,-66 -66,-66c-36.426,0 -66,29.574 -66,66c0,36.426 29.574,66 66,66c36.426,0 66,-29.574 66,-66Z" style="fill:#fff;"/><clipPath id="_clip1"><path d="M141,75c0,-36.426 -29.574,-66 -66,-66c-36.426,0 -66,29.574 -66,66c0,36.426 29.574,66 66,66c36.426,0 66,-29.574 66,-66Z"/></clipPath><g clip-path="url(#_clip1)"><g id="rubius"><path d="M16.427,109.993c0,-0 5.108,-0.879 7.288,-1.139c2.18,-0.26 5.304,-0.618 6.963,0.521c1.659,1.138 2.408,1.464 2.408,1.464c-0,-0 -0.033,-7.256 0.292,-11.258c0.326,-4.002 2.603,-13.177 4.035,-16.723c1.431,-3.547 4.099,-8.59 6.247,-10.119c2.147,-1.529 4.327,-2.05 7.028,-2.505c2.7,-0.456 14.12,-2.213 17.309,-2.766c3.188,-0.553 11.192,-1.594 14.869,-2.342c3.676,-0.749 46.689,-6.768 49.845,-7.158c3.156,-0.391 6.442,-0.716 7.32,-0.814c0.879,-0.097 9.86,101.751 9.86,101.751l-144.206,-1.628l10.742,-47.284Z" style="fill:#cbb49b;"/><path d="M73.58,96.75c0,-0 0.062,-0.43 0.015,-0.661c-0.046,-0.23 -0.476,-0.783 -0.553,-1.152c-0.076,-0.369 -0.245,-1.444 -0.138,-1.951c0.108,-0.507 0.231,-1.429 0.2,-1.921c-0.031,-0.492 -0,-0.968 -0.092,-1.413c-0.093,-0.446 -0.461,-1.506 -0.492,-1.906c-0.031,-0.399 -0.399,-2.596 -0.369,-3.118c0.031,-0.523 1.122,-4.625 1.291,-5.286c0.169,-0.66 0.63,-1.536 0.722,-2.012c0.092,-0.477 0.123,-0.799 0.077,-1.23c-0.046,-0.43 -0.046,-0.891 0.184,-1.244c0.231,-0.353 1.49,-1.506 1.675,-1.936c0.184,-0.43 0.522,-0.768 0.614,-1.122c0.093,-0.353 0.123,-1.198 -0.03,-1.521c-0.154,-0.322 -0.016,-1.106 0.092,-1.475c0.107,-0.368 0.015,-1.275 -0,-1.782c-0.016,-0.507 -0.031,-0.799 0.215,-1.413c0.246,-0.615 0.645,-1.183 0.922,-1.613c0.276,-0.431 2.228,-5.823 2.228,-5.823c2.595,-15.486 33.273,-19.953 35.942,22.07c2.837,0.038 0.763,5.769 -8.72,14.127c-1.063,4.397 -14.378,13.857 -28.525,15.818c-4.996,-3.496 -6.211,-8.138 -5.258,-13.436Z" style="fill:#e6ac9c;"/><path d="M24.957,120.836l1.08,-1.343c0,0 0.031,-0.413 0.182,-0.797c0.151,-0.383 1.756,-2.806 2.2,-3.229c0.444,-0.424 1.988,-2.049 2.271,-2.423c0.282,-0.373 0.827,-0.827 1.423,-0.605c0.595,0.222 1.504,0.504 1.635,0.424c0.131,-0.081 0.131,-1.383 0.343,-1.777c0.212,-0.393 2.523,-2.926 2.937,-3.239c0.414,-0.313 1.564,-0.858 3.996,-0.707c2.433,0.152 5.006,0.354 5.672,0.303c0.666,-0.05 3.028,-0.666 3.563,-0.807c0.535,-0.142 3.936,-0.717 4.723,-0.939c0.787,-0.222 3.492,-0.807 3.815,-0.938c0.323,-0.132 1.009,-0.364 1.332,-0.344c0.323,0.021 0.707,0.192 0.959,0.122c0.252,-0.071 2.069,-1.242 2.503,-1.444c0.434,-0.202 2.957,-1.291 2.987,-1.453c0.03,-0.161 0.252,-1.211 0.828,-1.645c0.575,-0.434 2.957,-1.514 3.26,-1.585c0.302,-0.07 0.656,-0.121 0.676,-0.252c0.02,-0.131 -0.111,-0.313 -0.111,-0.484c-0,-0.172 0.292,-0.364 0.464,-0.343c0.172,0.02 0.424,-0.081 0.535,-0.132c0.111,-0.05 1.1,-0.938 1.221,-0.948c0.121,-0.01 0.505,0.343 0.676,0.535c0.172,0.191 0.757,0.605 0.969,0.938c0.212,0.333 0.353,0.616 0.575,0.888c0.222,0.273 1.252,1.272 1.383,1.494c0.131,0.222 0.212,0.787 0.04,1.151c-0.171,0.363 -0.545,1.221 -0.605,1.584c-0.061,0.363 -0.152,0.757 0.131,1.13c0.283,0.374 0.858,1.363 0.878,1.544c0,0 0.363,-0.02 0.707,-0.03c0.343,-0.01 1.836,0.081 2.311,0.041c0.474,-0.041 2.23,-0.878 2.785,-1.201c0.555,-0.323 2.301,-1.262 2.705,-1.464c0.404,-0.202 2.604,-0.898 3.31,-1.08c0.707,-0.181 2.675,-1.009 3.028,-1.13c0.353,-0.121 2.341,-0.939 2.967,-1.221c0.626,-0.283 2.685,-1.05 3.179,-1.262c0.495,-0.212 2.624,-0.948 3.24,-0.999c0.615,-0.05 2.351,-0.262 2.593,-0.252c0.243,0.01 2.362,-0.091 2.544,0.141c0.181,0.232 0.212,0.717 0.091,1.06c-0.122,0.343 -0.243,0.676 -0.142,0.989c0.101,0.313 0.394,0.797 0.545,0.908c0.152,0.111 0.313,0.495 0.707,0.505c0.393,0.01 0.878,0.05 1.1,0.151c0.222,0.101 1.443,0.707 1.766,0.888c0.323,0.182 0.414,0.565 0.858,0.858c0.444,0.293 0.424,0.111 0.848,0.525c0.423,0.414 1.897,1.827 2.079,2.22c0.181,0.394 0.111,0.596 0.393,0.848c0.283,0.252 0.868,1.05 0.989,1.342c0.121,0.293 0.555,0.899 0.797,1.605c0.243,0.706 0.414,1.231 0.677,1.504c0.262,0.272 0.726,0.514 0.777,0.847c0.05,0.334 0.222,0.707 0.282,1.09c0.061,0.384 0.101,2.251 -0.02,2.756c-0.121,0.504 -0.454,0.464 -0.504,0.827c-0.051,0.364 -0.414,1.009 -0.697,1.292c-0.282,0.283 -0.212,0.273 -0.585,0.616c-0.374,0.343 -1.161,1.635 -1.252,1.786c-0.09,0.151 -0.504,0.616 -0.504,0.939c-0,0.323 0.171,0.504 0.575,0.767c0.404,0.262 1.09,0.666 1.524,0.938c0.434,0.273 1.14,0.616 1.615,0.878c0.474,0.263 0.737,0.646 0.737,0.646l0.463,0.549c-32.993,36.177 -64.682,35.34 -95.029,-3.556Z" style="fill:#050502;"/><path d="M91.469,32.142c0.025,0.118 0.224,1.068 0.209,1.448c-0.017,0.406 0.097,0.617 0.6,1.168c0.503,0.552 0.292,1.785 0.535,1.931c0.243,0.146 0.519,-0.568 0.973,-0.568c0.455,0 1.298,0.389 1.298,0.389c0,0 0.146,0.617 0.357,0.536c0.211,-0.081 1.833,-2.596 2.044,-2.791c0,0 0.276,0.13 0.227,0.374c-0.049,0.243 -0.568,0.535 -0.697,1.362c-0.13,0.828 -0.86,1.736 -0.049,2.417c0.811,0.682 1.427,2.044 1.671,1.639c0.243,-0.406 1.119,-2.904 1.184,-3.407c0.065,-0.503 1.298,-2.044 1.736,-2.206c-0,-0 -0.779,1.46 -0.844,2.109c-0.065,0.649 0,1.119 -0.097,1.59c-0.097,0.47 -0.243,1.184 -0.211,1.881c0.032,0.698 0,1.915 0.146,2.304c0.146,0.389 2.271,2.028 2.79,2.612c0.519,0.584 1.071,0.908 1.46,1.46c0.39,0.551 0.633,0.795 1.152,1.2c0.519,0.406 2.774,2.093 3.261,2.433c0.486,0.341 0.194,-0.892 -0.114,-1.362c-0.308,-0.471 -0.438,-0.828 -0.892,-1.298c-0.451,-0.467 -2.018,-1.89 -2.328,-2.072l-0.008,-0.004c0.002,0.001 0.005,0.002 0.008,0.004c0.145,0.083 2.312,1.323 2.782,1.699c0.487,0.389 0.698,0.584 1.298,1.152c0.6,0.567 1.07,0.438 1.914,0.973c0.844,0.535 1.152,0.324 1.638,0.762c0.487,0.438 0.941,0.941 1.606,1.59c0.666,0.649 1.201,1.363 1.558,1.655c0.357,0.292 0.438,0.227 0.908,0.811c0.471,0.584 1.493,2.79 2.352,3.39c0.86,0.601 0.747,0.503 1.314,1.006c0.568,0.503 0.649,0.746 1.201,1.201c0.551,0.454 0.957,2.222 0.941,2.563c-0,-0 0.892,-2.158 0.568,-2.774c-0,-0 0.081,-0.227 0.243,0.129c0.162,0.357 0.292,1.542 0.276,1.801c-0.017,0.26 -0.227,1.655 -0.049,1.963c0.178,0.308 0.535,0.032 1.054,0.065c0.519,0.032 1.201,-0.098 1.736,0.227c0.535,0.324 1.72,1.103 1.963,1.411c0.243,0.308 0.454,0.714 0.454,0.714c0,0 1.467,-0.797 1.729,-1.032l0.003,-0.003c-0.073,0.068 -1.27,1.169 -1.537,1.295c-0,-0 0.357,0.665 0.373,1.022c0,-0 -0.211,-0.406 -0.535,-0.86c-0,-0 -0.941,0.422 -0.974,0.6c-0.032,0.178 1.298,4.575 0.665,6.116c0,-0 -0.178,-4.169 -0.94,-5.37c-0,0 -0.455,-0.714 -0.357,-0.065c0.097,0.649 0.47,3.813 0.146,4.753c-0,0 -0.292,-4.152 -0.503,-4.412c-0.211,-0.26 -0.925,0.665 -1.298,1.168c-0.373,0.503 -0.957,2.352 -1.071,2.693c-0.113,0.341 -0.292,2.109 -0.859,2.969c-0.568,0.859 -0.876,1.216 -1.233,1.508c-0.357,0.292 -1.103,0.665 -1.395,1.217c-0.292,0.551 -0.163,0.843 -0.406,1.525c-0.243,0.681 -0.908,2.319 -1.103,2.611c-0.195,0.292 -0.519,0.698 -0.925,1.217c-0.405,0.519 -0.811,1.46 -1.233,1.979c-0.421,0.519 -1.346,1.444 -2.19,2.336c-0.843,0.892 -1.281,1.476 -1.752,1.898c-0.47,0.422 -0.876,0.779 -1.346,1.184c-0.47,0.406 -1.833,1.785 -2.417,2.709c-0.584,0.925 -1.006,1.266 -1.298,1.688c-0.292,0.421 -0.989,1.573 -1.265,1.946c-0.276,0.373 -0.973,0.925 -0.973,0.925c-0,-0 -0.114,-0.016 -0.503,0.032c-0.39,0.049 -0.714,0.017 -1.201,-0.065c-0.486,-0.081 -0.73,-0.113 -0.649,-0.389c0.081,-0.276 0.26,-1.022 0.373,-1.411c0.114,-0.39 0.357,-1.071 0.357,-1.687c0,-0.617 -0.081,-0.99 0.017,-1.12c0.097,-0.129 0.746,-0.405 1.022,-0.519c0.275,-0.113 0.519,-0.113 1.07,-0.421c0.552,-0.309 0.763,-0.39 1.233,-0.649c0.471,-0.26 0.6,-0.13 1.119,-0.584c0.52,-0.455 2.125,-2.061 2.482,-2.547c0.357,-0.487 0.876,-1.006 1.071,-1.428c0.195,-0.422 0.925,-2.433 0.86,-2.871c-0.065,-0.438 -0.503,-0.325 -1.233,0.146c-0.73,0.47 -2.336,1.914 -3.91,1.882c-1.573,-0.033 -0.876,-1.185 -0.227,-2.028c0,-0 0,0.681 0.795,0.681c0.795,0 1.914,-0.795 2.531,-1.135c0.616,-0.341 1.022,-1.347 0.795,-1.769c-0.227,-0.421 -0.081,-1.005 -1.59,-0.421c-1.509,0.584 -1.914,0.616 -2.774,0.989c-0.86,0.373 -1.638,0.487 -1.801,0.454c-0.162,-0.032 -0.438,-0.097 -0.438,-0.097c0,0 1.541,-0.308 1.931,-0.633c0.389,-0.324 0.762,-0.502 0.227,-0.73c-0.535,-0.227 -0.081,-0.616 -1.249,-0.373c-1.168,0.244 -3.034,1.979 -3.537,2.726c-0.503,0.746 -0.665,2.06 -0.697,2.482c-0.033,0.421 -0.422,0.957 -0.406,1.963c0.016,1.005 -0.097,2.287 -0.486,2.611c-0.39,0.325 -0.049,1.152 -1.233,1.168c-1.185,0.017 -1.282,0.049 -1.85,-0.73c-0.567,-0.778 -0.746,-0.584 -0.876,-1.395c-0.129,-0.811 0.179,-1.184 0.503,-2.028c0.325,-0.843 0.617,-1.346 0.99,-2.027c0.373,-0.682 0.568,-1.266 0.357,-1.671c-0.211,-0.406 0.632,-2.385 0.973,-3.18c0.341,-0.795 0.292,-0.454 0.779,-1.233c0.486,-0.778 1.362,-2.741 1.395,-3.585c0.032,-0.843 0.065,-1.395 -0.6,-1.476c-0.666,-0.081 -1.866,0.13 -2.304,0.406c-0.438,0.275 -2.957,1.638 -3.926,0.454c0,-0 -0.32,-0.114 0.41,-0.195c0.73,-0.081 0.779,0.065 0.957,-0.34c0.179,-0.406 0.438,-0.795 0.373,-0.99c-0.064,-0.195 -0.94,-2.79 -0.892,-3.812c0.049,-1.022 0.114,-1.168 0.016,-2.077c-0.097,-0.908 -0.097,-2.676 0.228,-3.066c0.324,-0.389 -3.083,3.375 -3.294,3.942c0,0 0.99,-3.309 1.623,-4.461c0.632,-1.152 2.384,-3.017 2.855,-3.536c0.47,-0.519 1.8,-1.59 2.368,-2.271c0.568,-0.682 0.406,-1.606 -0.681,-1.768c-1.087,-0.163 -1.347,-0.292 -2.644,-0.52c-1.298,-0.227 -2.92,-0.6 -3.796,-0.746c-0.876,-0.146 -2.336,-0.259 -2.726,-0.292c-0.389,-0.032 -1.735,-0.762 -2.433,-0.438c-0.698,0.325 -1.038,0.892 -1.476,0.925c-0.438,0.032 -0.795,-0.065 -1.136,-0.227c-0.34,-0.162 -0.268,-0.552 -1.042,-0.195c-0,0 -0.633,0.649 -0.909,0.909c-0.276,0.259 -1.07,1.086 -1.216,1.33c-0.146,0.243 -1.136,1.622 -1.331,1.898c-0.194,0.276 -1.103,1.914 -1.411,2.222c-0.308,0.308 -1.606,1.849 -1.947,2.239c-0.34,0.389 -1.038,1.427 -1.249,1.849c-0.211,0.422 -0.697,2.385 -0.697,2.953c-0,-0 -0.179,-3.342 -0.065,-4.186c0.113,-0.843 0.616,-1.492 0.308,-1.752c-0.308,-0.259 -0.649,-0.016 -0.714,0.325c-0.056,0.297 0.097,1.213 0.159,1.581c0.014,0.073 0.02,0.122 0.02,0.122c-0.004,-0.027 -0.011,-0.069 -0.02,-0.122c-0.033,-0.169 -0.109,-0.467 -0.256,-0.592c-0.211,-0.178 -0.487,0.617 -0.292,0.779c-0,-0 -0.276,-0.13 -0.324,0.113c-0,0 -0.163,-0.405 -0.211,-0.73c-0.049,-0.324 -0.033,-0.778 -0,-1.411c0.032,-0.632 -0.049,-2.125 -0.081,-2.725c-0.033,-0.6 -0.033,-1.136 0.081,-1.687c0.113,-0.552 0.47,-1.217 0.713,-1.687c0.244,-0.471 0.876,-1.606 1.233,-2.077c0.357,-0.47 0.503,-0.892 0.957,-1.298c0.455,-0.405 1.006,-0.778 1.152,-1.119c0.146,-0.341 -0.892,-1.103 -1.541,-1.152c-0.649,-0.048 -3.325,1.12 -4.639,2.304c-1.07,0.964 -1.731,1.444 -2.194,1.922c-0.179,0.205 -0.288,0.333 -0.288,0.333c0.087,-0.115 0.182,-0.224 0.288,-0.333c0.627,-0.717 2.113,-2.384 2.794,-2.863c0.876,-0.616 3.942,-2.19 4.12,-2.401c0.179,-0.211 1.038,-0.697 0.422,-0.73c-0.616,-0.032 -1.152,0.389 -1.428,0.568c-0.275,0.178 -1.2,0.843 -1.33,1.071c-0.13,0.227 -0.876,0.064 -2.336,1.411c0,-0 1.428,-1.59 1.866,-1.801c0.438,-0.211 0.876,-0.616 0.795,-0.795c-0.081,-0.178 -0.909,0.341 -1.233,0.714c-0.273,0.314 -2.035,1.521 -2.783,2.37c-0.183,0.266 -0.299,0.437 -0.299,0.437c0.051,-0.127 0.157,-0.276 0.299,-0.437c0.618,-0.899 1.995,-2.888 2.183,-3.051c0.243,-0.211 0.924,-1.217 1.752,-1.574c0.827,-0.357 3.633,-1.184 3.276,-1.265c-0.356,-0.081 -1.443,0.065 -1.735,0.211c-0.292,0.146 0.665,-0.471 1.249,-0.617c0.584,-0.146 3.309,-0.178 3.212,-0.373c-0.098,-0.194 0.843,-1.022 -1.606,-0.746c-0,0 -3.196,0.681 -5.078,2.498c-1.882,1.817 -2.53,2.661 -2.53,2.661c-0,-0 2.4,-3.326 3.942,-4.072c-0,-0 0.454,-1.233 0.924,-1.574c0.471,-0.34 1.866,-1.557 2.223,-1.914c0.357,-0.357 0.908,-0.454 1.265,-0.276c0.357,0.179 0.892,0.455 1.038,0.536c0.146,0.081 0.617,-0.146 0.973,-0.065c0.357,0.081 0.552,-0.292 0.211,-0.535c-0.34,-0.244 -0.843,-0.438 -1.362,-0.633c-0.492,-0.184 -1.535,-0.499 -2.03,-0.533c-0.051,-0.001 -0.079,-0.002 -0.079,-0.002c0.024,-0 0.05,0.001 0.079,0.002c0.408,0.016 2.282,0.089 2.614,0.176c-0,-0 -0.617,-1.022 -1.671,-1.087c-1.055,-0.065 -1.655,0.081 -2.223,0.243c0,0 1.606,-0.73 1.882,-0.762c0.276,-0.032 0.179,-0.487 -0.486,-0.438c-0.666,0.049 -3.18,0.503 -3.683,1.249c0,0 0.795,-1.736 2.612,-1.752c-0,0 2.157,-0.13 4.136,0.973c1.98,1.104 2.645,1.72 2.758,1.558c0.114,-0.162 -0.308,-0.698 -0.827,-1.087c-0.519,-0.389 -2.174,-2.093 -2.953,-2.093c-0.692,0 -1.602,0.388 -1.846,0.627c-0.038,0.05 -0.059,0.08 -0.059,0.08c0.009,-0.024 0.029,-0.051 0.059,-0.08c0.141,-0.19 0.523,-0.666 0.971,-0.935c0.567,-0.341 1.833,-0.876 2.254,-0.876c0.422,0 0.99,0.178 1.379,0.357c0.39,0.178 1.266,0.487 1.541,0.892c0.276,0.406 1.022,0.325 0.876,-0.13c-0.146,-0.454 -1.087,-1.589 -2.19,-2.011c-1.103,-0.422 -2.384,-0.811 -2.514,-0.957c-0,-0 1.719,0.324 1.93,0.081c0.189,-0.218 -1.81,-0.658 -2.508,-0.63c-0.116,0.018 -0.185,0.03 -0.185,0.03c0.041,-0.017 0.104,-0.027 0.185,-0.03c0.54,-0.086 2.109,-0.327 2.589,-0.327c0.584,-0 1.25,0.032 1.444,0.048c0.195,0.017 0.162,-0.065 -0.065,-0.389c-0.227,-0.324 -0.567,-0.973 -1.946,-1.46c-0,0 2.514,0.6 2.92,1.054c0.405,0.455 2.336,0.828 2.725,1.039c0.389,0.211 0.714,-0.325 0.584,-0.552c-0.092,-0.16 -0.531,-0.894 -0.873,-1.398c-0.273,-0.325 -0.437,-0.538 -0.344,-0.451c0.077,0.071 0.202,0.241 0.344,0.451c0.49,0.581 1.33,1.52 1.684,1.739c0.552,0.34 0.568,-0.033 0.503,-0.503c-0.065,-0.471 0.438,-1.525 0.487,-1.72l0.002,0.012Zm37.877,33.561c0.066,0.11 -0.912,0.528 -1.085,0.394c-0.173,-0.135 -0.951,-1.672 -2.047,-2.066c-1.095,-0.394 -1.72,-0.374 -1.729,-0.499c-0.01,-0.125 1.489,-0.337 2.075,-0.068c0.586,0.269 1.893,0.74 2.786,2.239Zm-6.494,-4.727c0.031,0.223 -1.115,0.701 -1.461,0.509c-0.346,-0.192 -0.029,-0.768 0.125,-1.009c0.154,-0.24 0.25,-1.133 0.394,-1.133c0.144,-0 0.836,0.893 0.942,1.633Zm-1.999,-2.354c0.075,-0.105 0.404,0.077 0.529,0.24c0.124,0.164 0.038,0.356 -0.058,0.452c-0.096,0.096 -0.087,0.25 -0.192,0.163c-0.106,-0.086 -0.423,-0.653 -0.279,-0.855Zm-6.091,-4.977c-0.109,-0.117 -0.058,-0.442 0.173,-0.24c0.23,0.202 0.903,0.759 0.96,0.874c0.058,0.116 0.27,0.846 0.298,0.98c0.029,0.135 -0.125,0.202 -0.288,0.019c-0.163,-0.182 -0.865,-1.335 -1.143,-1.633Zm-3.795,-3.622c0.148,0.122 2.363,2.556 2.507,2.777c0.144,0.221 0.192,0.701 -0.336,0.278c-0.528,-0.422 -2.248,-2.546 -2.373,-2.796c-0.125,-0.249 -0.019,-0.442 0.202,-0.259Zm-33.349,-4.487c-0,0 1.172,-1.748 1.873,-1.816c0.702,-0.067 2.124,0.634 1.836,0.913c-0.289,0.279 -0.385,0.135 -0.875,0.154c-0.49,0.019 -2.046,0.125 -2.834,0.749Z" style="fill:#170e0c;"/></g></g></svg>