<?xml version="1.0" encoding="UTF-8" standalone="no"?><!DOCTYPE svg PUBLIC "-//W3C//DTD SVG 1.1//EN" "http://www.w3.org/Graphics/SVG/1.1/DTD/svg11.dtd"><svg width="100%" height="100%" viewBox="0 0 150 150" version="1.1" xmlns="http://www.w3.org/2000/svg" xmlns:xlink="http://www.w3.org/1999/xlink" xml:space="preserve" xmlns:serif="http://www.serif.com/" style="fill-rule:evenodd;clip-rule:evenodd;stroke-linejoin:round;stroke-miterlimit:2;"><path id="base" d="M150,75c0,-41.394 -33.606,-75 -75,-75c-41.394,0 -75,33.606 -75,75c0,41.394 33.606,75 75,75c41.394,0 75,-33.606 75,-75Z" style="fill:#03214f;"/><path id="outline" d="M144,75c0,-38.082 -30.918,-69 -69,-69c-38.082,0 -69,30.918 -69,69c0,38.082 30.918,69 69,69c38.082,0 69,-30.918 69,-69Z" style="fill:#1fbaed;"/><path id="core" d="M141,75c0,-36.426 -29.574,-66 -66,-66c-36.426,0 -66,29.574 -66,66c0,36.426 29.574,66 66,66c36.426,0 66,-29.574 66,-66Z" style="fill:#fff;"/><clipPath id="_clip1"><path d="M141,75c0,-36.426 -29.574,-66 -66,-66c-36.426,0 -66,29.574 -66,66c0,36.426 29.574,66 66,66c36.426,0 66,-29.574 66,-66Z"/></clipPath><g clip-path="url(#_clip1)"><g id="shroud"><path d="M55.403,89.085c0,-0 0.832,-1.248 0.728,-1.976c-0.104,-0.728 -0.52,-2.34 -0.52,-2.34c0,0 -1.117,-1.039 -1.819,-1.845c-0.702,-0.806 -1.378,-2.002 -2.184,-3.535c-0.806,-1.534 -1.637,-2.938 -2.053,-4.159c-0.416,-1.222 -1.144,-3.588 -1.352,-4.679c-0.208,-1.092 -0.624,-3.172 -0.858,-3.77c0,0 -0.65,0.026 -1.118,-0.286c-0.468,-0.312 -0.987,-0.779 -1.221,-1.299c-0.234,-0.52 -0.832,-2.054 -1.04,-2.678c-0.208,-0.624 -0.858,-2.859 -1.04,-3.353c-0.182,-0.494 -0.676,-1.404 -0.702,-2.08c-0.026,-0.675 -0.104,-1.897 -0.208,-2.755c-0.104,-0.858 -0.312,-1.664 -0.078,-2.054c0.234,-0.389 0.286,-0.389 0.598,-0.467c0.312,-0.078 1.066,-1.222 1.066,-1.222c-0.177,-14.194 1.748,-26.465 22.407,-21.59c12.742,-7.292 21.663,-1.689 25.972,19.48c0,-0 0.851,0.658 1.044,0.96c0.192,0.303 0.412,1.719 0.371,2.09c-0.041,0.371 -0.069,2.489 -0.096,3.039c-0.028,0.55 -0.096,2.984 -0.179,3.547c-0.082,0.564 -0.261,1.692 -0.495,2.338c-0.234,0.646 -1.32,2.241 -1.746,2.599c-0.426,0.357 -0.798,1.127 -1.829,0.948c-1.031,-0.178 -1.251,-0.426 -1.595,-0.302c-0.344,0.124 -0.536,0.976 -0.605,1.402c-0.069,0.427 -0.179,4.729 -0.109,5.886c0.071,1.156 0.246,8.272 0.737,8.903c0.49,0.631 1.367,3.014 1.367,3.014c4.61,15.412 -2.217,21.794 -17.635,21.394c-13.851,-0.013 -21.638,-3.599 -15.808,-15.21Z" style="fill:#f9b781;"/><path d="M26.557,120.819c-0,0 -0,-1.54 -0.022,-2.3c-0.022,-0.759 0,-1.844 0.044,-2.712c0.043,-0.868 0.086,-1.714 0.086,-2.408c0,-0.694 0.152,-2.539 0.152,-3.341c0,-0.803 0.065,-0.846 0.174,-1.693c0.108,-0.846 0.021,-2.473 0.108,-2.842c0.087,-0.369 0.543,-1.085 0.76,-1.562c0.217,-0.477 0.868,-1.779 1.15,-2.126c0.282,-0.347 2.733,-3.016 3.341,-3.515c0.607,-0.499 0.738,-0.76 1.454,-1.215c0.716,-0.456 0.846,-0.477 1.692,-1.042c0.846,-0.564 1.237,-0.802 1.757,-1.171c0.521,-0.369 0.326,-0.521 1.128,-0.76c0.803,-0.238 2.864,-0.889 3.515,-1.084c0.651,-0.196 4.795,-1.259 5.316,-1.584c0.521,-0.326 0.976,-0.499 2.039,-0.955c1.064,-0.456 0.803,-0.521 1.975,-0.824c1.171,-0.304 1.844,-0.413 2.191,-0.738c0.347,-0.326 1.085,-0.955 1.411,-1.15c0.325,-0.195 1.193,-0.781 1.323,-0.564c0.13,0.217 0.456,1.302 0.521,1.649c0.065,0.347 0.369,1.67 0.369,1.931c-0,0.26 0.303,5.315 0.607,6.053c0.304,0.738 0.846,0.933 1.237,1.237c0.39,0.304 1.215,0.889 2.451,1.237c1.237,0.347 3.168,0.477 4.296,0.52c1.129,0.044 5.49,-0.173 6.531,-0.26c1.042,-0.087 5.489,-0.89 6.661,-1.454c1.172,-0.564 3.949,-1.866 4.361,-2.169c0.412,-0.304 2.799,-1.497 3.233,-1.975c0.434,-0.477 2.95,-10.588 2.95,-10.588c0,0 0.348,-0.759 0.977,-0.672c0.629,0.086 2.148,0.889 2.365,0.954c0.217,0.065 1.367,0.261 1.952,0.695c0.586,0.434 0.391,0.455 1.324,0.716c0.933,0.26 1.128,0.217 1.844,0.499c0.716,0.282 2.604,0.846 2.973,0.846c0.368,-0 0.629,-0.239 1.236,0.087c0.608,0.325 0.738,0.455 1.476,0.911c0.737,0.455 0.998,0.412 1.605,0.672c0.608,0.261 0.738,0.434 1.389,0.608c0.651,0.174 0.108,-0.065 1.28,0.412c1.171,0.478 1.931,0.846 2.69,1.02c0.76,0.173 1.888,0.412 2.083,0.586c0.195,0.173 1.02,0.26 1.844,0.542c0.825,0.282 1.454,0.217 2.387,0.673c0.933,0.455 1.237,0.52 1.605,0.803c0.369,0.282 0.217,0.433 0.999,0.846c0.781,0.412 1.019,0.499 2.213,0.998c1.193,0.499 1.8,0.586 2.386,0.846c0.586,0.26 0.738,0.282 1.627,0.672c0.89,0.391 0.803,0.348 1.671,0.651c0.868,0.304 0.868,0.087 1.606,0.434c0.737,0.347 1.8,0.261 1.692,1.042c-0.109,0.781 0.651,1.388 1.172,1.801c0.52,0.412 1.605,1.301 2.278,2.017c0.672,0.716 0.802,0.781 0.998,1.172c0.195,0.391 0.62,1.506 0.62,1.506c-22.147,39.67 -50.643,64.222 -109.04,17.59l-0.063,-1.522Z" style="fill:#7c2e2d;"/><path d="M87.449,79.938c0,-0 0.589,0.741 0.837,1.026c0.247,0.285 0.984,1.269 1.311,1.73c0.418,0.589 1.099,0.948 1.369,1.254c0.285,0.323 0.902,1.199 0.798,2.205c-0.077,0.743 -0.057,3.117 -0.076,3.516c-0.019,0.399 -0.913,3.745 -1.103,4.334c-0.19,0.589 -1.235,3.421 -2.204,4.923c-0.97,1.501 -3.498,4.58 -4.6,5.569c-1.102,0.988 -1.179,1.14 -1.179,1.14c0,0 -1.178,3.706 -1.368,4.41c-0.19,0.703 -1.026,3.592 -1.178,4.181c-0.153,0.589 -1.787,5.208 -1.996,6.025c-0.209,0.818 -2.072,6.178 -2.414,7.223c-0.342,1.046 -3.155,8.572 -3.383,9.39c-0.228,0.817 -1.578,3.915 -1.768,4.219c-0.19,0.304 -5.892,-0.209 -5.626,-0.874c0.266,-0.665 0.836,-2.053 1.007,-2.623c0.171,-0.57 1.16,-2.813 1.312,-3.364c0.152,-0.552 0.931,-2.509 1.216,-3.384c0.285,-0.874 1.825,-4.371 2.148,-5.094c0.323,-0.722 1.863,-4.067 2.205,-4.846c0.342,-0.78 2.319,-4.657 2.585,-5.132c0.266,-0.475 1.596,-3.193 1.767,-3.574c0.172,-0.38 1.084,-1.824 1.293,-2.204c0.209,-0.38 1.045,-1.483 1.311,-1.825c0.267,-0.342 1.008,-1.369 1.369,-1.806c0.361,-0.437 0.931,-1.064 1.178,-1.52c0.247,-0.456 0.533,-1.008 0.97,-2.281c0.437,-1.274 1.216,-3.497 1.425,-4.353c0.209,-0.855 0.703,-1.976 0.856,-3.022c0.152,-1.045 0.798,-3.516 0.893,-4.314c0.095,-0.799 0.76,-2.908 0.95,-4.391c0.19,-1.483 0.342,-3.402 0.342,-4.239c0,-0.836 -0.133,-1.577 -0.247,-2.299Zm-26.939,60.803c-0,0 -0.212,-1.651 -0.212,-2.498c-0,-0.847 -0.212,-3.134 -0.212,-3.748c0,-0.614 -0.296,-4.086 -0.275,-5.103c0.021,-1.016 -0.381,-3.726 -0.339,-4.595c0.042,-0.868 -0.55,-4.87 -0.55,-5.738c-0,-0.868 -0.318,-3.07 -0.466,-4.658c-0.149,-1.588 -0.508,-4.828 -0.551,-5.653c-0.042,-0.826 -0.444,-4.807 -0.423,-5.4c0.021,-0.593 -0.276,-5.251 -0.254,-5.865c0.021,-0.614 0.169,-3.663 0.19,-4.044c0.021,-0.381 0.021,-1.377 -0.063,-1.821c-0.085,-0.445 -0.085,-0.868 -0.254,-0.784c-0.17,0.085 -0.763,1.313 -0.974,1.758c-0.212,0.444 -0.89,2.731 -0.996,3.366c-0.106,0.636 -0.423,3.367 -0.55,3.96c-0.127,0.593 -0.635,3.494 -0.635,3.938c-0,0.445 -0.149,6.141 -0.17,6.755c-0.021,0.614 0.36,7.305 0.36,7.919c0,0.614 0.72,6.987 0.868,7.919c0.149,0.932 0.89,4.595 1.144,5.78c0.254,1.186 0.741,2.944 0.995,3.918c0.254,0.974 1.037,2.752 1.355,3.345c0.318,0.593 2.012,1.249 2.012,1.249Z" style="fill:#ffd700;"/><path d="M46.297,62.445c-0,-0 0.053,0.303 -0.143,0.338c-0.195,0.036 -0.463,-0.463 -0.587,-0.694c-0.125,-0.232 -0.446,-0.909 -0.517,-1.211c-0.071,-0.303 -0.16,-0.499 -0.231,-1.14c-0.072,-0.641 -0.107,-0.623 -0.161,-1.211c-0.053,-0.588 0.107,-0.802 -0.213,-1.354c-0.321,-0.552 -0.499,-1.033 -0.926,-1.371c-0.428,-0.339 -0.748,-0.944 -0.748,-0.944c-0,-0 -0.303,-0.819 -0.357,-1.318c-0.053,-0.499 -0.124,-1.3 -0.196,-1.514c-0.071,-0.214 -0.106,-0.641 -0.302,-0.997c-0.196,-0.356 -0.428,-0.107 -0.303,-0.819c0.125,-0.713 0.125,-0.802 0.036,-1.568c-0.09,-0.766 -0.018,-0.997 -0.214,-1.603c-0.196,-0.605 -0.178,-0.908 -0.552,-1.335c-0.374,-0.428 -0.802,-1.051 -0.802,-1.051c0,-0 -0.267,-0.677 -0.267,-1.639c0,-0.961 -0.142,-0.73 0.054,-1.389c0.195,-0.659 0.195,-0.481 0.356,-1.104c0.16,-0.623 0.32,-0.944 0.285,-1.55c-0.036,-0.605 0.124,-1.353 0.196,-2.261c0.071,-0.909 -0.018,-0.855 0.178,-1.621c0.196,-0.766 0.249,-0.819 0.338,-1.514c0.089,-0.695 0.089,-1.229 0.249,-1.745c0.161,-0.517 0.535,-1.425 0.927,-2.244c0.391,-0.82 0.089,-0.57 0.73,-1.318c0.641,-0.748 0.694,-0.642 1.353,-1.514c0.659,-0.873 0.713,-0.748 1.176,-1.407c0.463,-0.659 0.481,-0.784 0.89,-1.229c0.41,-0.445 2.12,-1.657 3.509,-2.333c1.389,-0.677 1.282,-0.499 1.959,-0.873c0.677,-0.374 0.837,-0.712 1.567,-1.104c0.73,-0.392 1.87,-0.641 2.796,-0.909c0.927,-0.267 1.105,-0.427 2.298,-0.658c1.193,-0.232 1.638,-0.196 2.297,-0.374c0.659,-0.179 3.438,-0.802 5.112,-0.642c1.674,0.161 1.834,0.285 3.402,0.339c1.567,0.053 1.745,0.552 2.6,0.73c0.855,0.178 1.157,0.071 1.763,0.196c0.606,0.125 0.374,0.285 1.371,0.516c0.998,0.232 0.321,-0.124 1.301,-0.32c0.979,-0.196 1.994,-0.552 2.849,-0.57c0.855,-0.018 1.746,-0.089 2.565,0.035c0.819,0.125 2.547,0.321 3.401,1.069c0.855,0.748 1.764,1.799 1.764,1.799c-0,-0 -1.229,-0.588 -1.71,-0.873c-0.481,-0.285 2.297,2.28 2.44,2.885c-0,0 -1.781,-1.959 -2.85,-2.529c-1.068,-0.57 -2.234,-0.566 -2.732,-0.566c-0.499,-0 -2.537,-0.127 -0.506,0.194c2.03,0.32 3.185,1.263 4.093,1.886c0.908,0.624 2.903,1.959 2.903,1.959c0,0 -1.46,-0.659 -1.727,-0.73c-0.268,-0.071 1.389,1.763 1.531,2.191c0,-0 -1.923,-1.496 -2.155,-1.71c0,0 0.766,1.051 0.926,1.585c0.161,0.534 0.731,1.585 0.98,1.728c0.249,0.142 1.051,1.442 1.656,2.262c0.606,0.819 0.588,0.872 0.98,1.228c0.392,0.357 0.267,0.161 0.908,0.82c0.641,0.659 0.695,0.837 1.211,1.175c0.517,0.339 0.73,1.087 0.873,2.155c0.142,1.069 -0.125,1.906 -0.267,2.173c-0.143,0.267 -0.125,-0.338 -0.232,0.516c-0.107,0.855 0.107,1.069 -0.018,1.461c-0.124,0.392 -0.249,0.605 -0.249,0.605c0,0 -0.071,0.873 -0.463,2.102c-0.392,1.229 -0.374,1.46 -0.321,1.87c0.054,0.41 0,2.422 0.072,3.135c0.071,0.712 0.196,1.05 0.249,1.353c0.053,0.303 0.143,0.713 0.053,1.015c-0.089,0.303 -0.16,0.713 -0.231,1.14c-0.071,0.428 -0.071,0.659 -0.232,0.98c-0.16,0.32 -0.409,0.267 -0.641,0.659c-0.231,0.392 -0.035,0.392 -0.445,0.712c-0.41,0.321 -1.336,0.98 -1.478,1.14c-0.143,0.16 -0.267,0.516 -0.499,1.211c-0.231,0.695 -0.214,1.71 -0.249,2.209c-0.036,0.498 -0,0.89 -0.125,1.317c-0.125,0.428 0.071,0.535 -0.178,0.677c-0.249,0.143 -1.069,0.499 -1.158,0.819c-0.089,0.321 -0.178,0.624 -0.178,0.624l0.161,-1.906c-0,0 0.142,-0.837 0.249,-1.638c0.107,-0.802 0.374,-1.514 0.16,-2.013c-0.214,-0.499 -0.196,-0.249 -0.374,-0.962c-0.178,-0.712 -0.374,-0.961 -0.374,-1.816c0,-0.855 0.018,-0.748 -0.035,-1.603c-0.054,-0.855 -0.321,-2.03 -0.57,-2.618c-0.25,-0.588 -0.089,-0.143 -0.659,-1.14c-0.57,-0.997 -0.909,-1.674 -1.194,-2.333c-0.285,-0.659 -0.57,-1.354 -1.353,-2.565c-0.784,-1.211 -0.855,-1.086 -0.962,-1.852c-0.107,-0.766 0,-2.102 -0.018,-2.672c-0.018,-0.569 -0.249,-2.083 -0.962,-2.707c-0.712,-0.623 -0.765,-0.801 -1.656,-0.944c-0.89,-0.142 -0.552,-0.285 -1.816,-0.196c-1.265,0.09 -2.084,-0.463 -3.901,-0.569c-1.816,-0.107 -2.03,-0.196 -2.903,-0.107c-0.873,0.089 -2.28,0.071 -3.989,0.623c-1.71,0.552 -1.265,0.588 -2.779,0.962c-1.514,0.374 -1.727,0.392 -2.849,0.463c-1.122,0.071 -2.707,0.018 -3.562,0.178c-0.855,0.16 -3.616,0.036 -5.806,0.659c-2.191,0.623 -2.369,0.178 -3.028,1.033c-0.659,0.855 -0.499,0.534 -1.176,1.46c-0.676,0.926 -1.389,1.853 -1.798,2.601c-0.41,0.748 -0.161,2.172 -0.446,3.152c-0.285,0.98 -0.445,1.567 -0.445,2.369c0,0.801 0.071,-0.161 0.036,1.246c-0.036,1.407 0.018,3.153 0.089,4.649c0.071,1.496 0.231,2.832 0.249,3.615c0.018,0.784 0.054,1.389 0.089,2.173c0.036,0.784 -0.018,1.817 0.143,2.689c0.16,0.873 0.338,1.479 0.445,1.817Z" style="fill:#34231c;"/></g></g></svg>