<?xml version="1.0" encoding="UTF-8" standalone="no"?><!DOCTYPE svg PUBLIC "-//W3C//DTD SVG 1.1//EN" "http://www.w3.org/Graphics/SVG/1.1/DTD/svg11.dtd"><svg width="100%" height="100%" viewBox="0 0 150 150" version="1.1" xmlns="http://www.w3.org/2000/svg" xmlns:xlink="http://www.w3.org/1999/xlink" xml:space="preserve" xmlns:serif="http://www.serif.com/" style="fill-rule:evenodd;clip-rule:evenodd;stroke-linejoin:round;stroke-miterlimit:2;"><path id="base" d="M150,75c0,-41.394 -33.606,-75 -75,-75c-41.394,0 -75,33.606 -75,75c0,41.394 33.606,75 75,75c41.394,0 75,-33.606 75,-75Z" style="fill:#03214f;"/><path id="outline" d="M144,75c0,-38.082 -30.918,-69 -69,-69c-38.082,0 -69,30.918 -69,69c0,38.082 30.918,69 69,69c38.082,0 69,-30.918 69,-69Z" style="fill:#1fbaed;"/><path id="core" d="M141,75c0,-36.426 -29.574,-66 -66,-66c-36.426,0 -66,29.574 -66,66c0,36.426 29.574,66 66,66c36.426,0 66,-29.574 66,-66Z" style="fill:#fff;"/><clipPath id="_clip1"><path d="M141,75c0,-36.426 -29.574,-66 -66,-66c-36.426,0 -66,29.574 -66,66c0,36.426 29.574,66 66,66c36.426,0 66,-29.574 66,-66Z"/></clipPath><g clip-path="url(#_clip1)"><g id="soda"><path d="M94.492,52.885c8.895,-22.375 -27.876,-37.476 -36.133,-3.531c-0.139,0.572 -1.278,0.609 -1.491,1.492c-0.213,0.883 -0.427,3.257 -0.305,4.109c0.122,0.853 0.396,3.379 0.305,4.049c-0.092,0.67 0.213,1.796 0.578,2.496c0.365,0.7 2.344,1.096 2.831,0.944c0.487,-0.152 0.548,-0 0.548,-0c-0,-0 0.274,2.009 0.213,2.496c-0.061,0.487 0.122,2.861 0.213,3.379c0.091,0.517 1.065,4.566 1.279,4.84c-0,-0 0.091,2.009 0.091,2.952c-0,0.944 -0.122,1.431 -0.213,2.253c-0.092,0.822 -2.101,3.501 -2.101,3.501c-13.735,27.164 42.049,35.578 28.736,-1.583c0,-0 -1.491,-2.07 -1.704,-2.648c-0.214,-0.579 -0.335,-2.01 -0.274,-2.527c0.06,-0.518 1.278,-2.009 1.43,-2.648c0.153,-0.64 2.009,-4.901 2.101,-5.48c0.091,-0.578 0.182,-0.913 0.182,-0.913c0,0 0.183,0.213 0.7,0.213c0.518,0 1.249,-0.609 1.583,-1.004c0.335,-0.396 0.518,-0.822 0.67,-1.34c0.152,-0.517 0.639,-2.465 0.731,-2.8c0.091,-0.335 0.274,-0.67 0.578,-1.888c0.304,-1.217 0,-2.526 0,-2.526l-0.548,-3.836Z" style="fill:#f7c193;"/><path d="M93.915,32.063c0.256,0.157 0.391,0.19 0.947,0.627c0.656,0.515 0.914,0.515 0.961,0.702c0.047,0.188 -0.235,0.446 -0.024,0.633c0.211,0.187 0.703,1.335 0.89,1.874c0.188,0.539 0.375,1.195 0.469,1.757c0.094,0.562 0.164,0.375 0.234,1.101c0.071,0.726 0.024,1.148 0,2.202c-0.023,1.054 0.305,3.139 0.398,3.584c0.094,0.445 -0.234,3.022 -0.398,3.467c-0.164,0.445 -1.218,3.561 -1.218,3.819c0,0.257 -0.96,3.49 -1.124,4.287c-0.164,0.796 -0.703,2.53 -1.312,2.53c-0.609,-0 -0.234,-1.031 -0.234,-1.687c-0,-0.656 -0.024,-1.57 -0.071,-2.811c-0.047,-1.242 0.071,-1.382 0.071,-2.46c-0,-1.077 1.311,-0.398 -0.375,-1.874c-1.687,-1.476 -1.687,-1.827 -1.453,-2.998c0.235,-1.172 0.445,-2.366 0.68,-3.444c0.234,-1.078 0.866,-1.171 0.281,-2.413c-0.586,-1.242 -1.687,-3.889 -2.296,-4.474c-0.609,-0.586 -0.867,-0.469 -2.272,-0.399c-1.406,0.071 -0.094,0.235 -2.366,-0.164c-2.273,-0.398 -1.5,-0.515 -2.718,-0.562c-1.218,-0.047 -0.515,-0.023 -2.014,-0.257c-1.5,-0.235 -1.757,-0.797 -2.507,-0.258c-0.75,0.539 -1.288,1.733 -3.42,1.288c-2.132,-0.445 -1.359,-0.445 -2.53,-0.562c-1.171,-0.117 -3.444,-1.265 -4.076,-0.047c-0.633,1.218 -0.773,1.687 -0.89,2.296c-0.118,0.609 -0.68,2.366 -1.101,2.858c-0.422,0.492 -2.53,0.82 -3.186,1.499c-0.656,0.68 -0.024,-0.07 -0.75,1.265c-0.726,1.335 -0.562,2.671 -0.89,3.514c-0.328,0.843 -0.305,0.867 -0.633,1.898c-0.328,1.03 -0.421,1.382 -0.562,2.131c-0.14,0.75 -0.234,2.413 -0.258,2.718c-0.023,0.304 0.188,3.678 0.164,4.544c0,0 -0.656,-2.389 -0.796,-3.467c-0.141,-1.077 -0.141,-2.014 -0.398,-2.6c-0.258,-0.586 -0.703,-1.429 -1.195,-2.249c-0.492,-0.82 -0.656,-1.312 -0.539,-1.921c0.117,-0.609 0.562,-1.452 0.586,-2.389c0.023,-0.937 0.094,-2.249 -0.094,-3.467c-0.187,-1.218 -0.375,-1.757 -0.117,-2.647c0.258,-0.891 0.796,-2.179 0.96,-2.975c0.164,-0.797 0.844,-2.577 1.195,-3.491c0.352,-0.914 -0.211,-1.101 -0.117,-1.733c0.094,-0.633 0.141,-0.656 0.89,-1.289c0.75,-0.632 1.148,-0.75 1.218,-1.148c0.071,-0.398 -0.421,-0.398 0.071,-0.913c0.492,-0.516 0.632,-0.281 0.913,-0.727c0.281,-0.445 -0.492,-1.077 -0.07,-1.686c0.422,-0.609 1.124,-0.867 1.007,-1.336c-0.117,-0.468 0.071,-0.327 -0.421,-0.866c-0.492,-0.539 -1.195,-1.054 -0.75,-1.382c0.445,-0.328 1.218,-0.375 1.921,-0.399c0.703,-0.023 3.022,0.656 2.694,-0.398c-0.328,-1.054 -0.515,-1.054 -0.586,-1.405c-0.07,-0.352 0.117,-0.914 1.195,-1.172c1.078,-0.257 1.57,-0.656 1.874,-0.585c0.305,0.07 0.703,-0.141 1.827,0.726c1.125,0.867 1.898,1.288 2.39,1.124c0.492,-0.164 1.405,-0.585 2.319,-0.703c0.914,-0.117 1.546,-0.421 2.015,0.118c0.468,0.538 1.288,1.218 2.084,1.569c0.797,0.352 1.383,0.352 2.132,1.078c0.708,0.686 0.497,0.18 1.379,1.03c0.042,-0.197 0.064,-0.39 0.052,-0.571c-0.05,-0.803 -0.2,-1.204 -0.2,-1.204c-0,0 0.877,-0.275 1.153,0.126c0.276,0.401 0.401,0.777 0.527,1.103c0.125,0.326 0.225,-0 0.551,-0.552c0.326,-0.551 0.627,-2.056 0.702,-0.952c0.075,1.103 -0.526,1.303 -0.025,1.654c0.501,0.351 0.727,0.276 0.978,0.677c0.251,0.401 -0.075,0.928 0.225,1.053c0.301,0.125 0.903,0.602 1.555,0.426c0.652,-0.175 0.376,-0.301 1.604,-0.476c1.229,-0.176 2.056,-1.504 1.655,-0.251c-0.401,1.254 -1.178,1.028 -0.752,1.429c0.426,0.401 1.579,-0.025 1.88,0.928c0.301,0.953 0,0.877 -0.276,1.78c-0.275,0.902 0,0.727 0.101,1.73c0.1,1.003 0.075,1.354 0.175,1.755c0.028,0.111 0.059,0.279 0.091,0.464Z" style="fill:#eb4c89;"/><path d="M59.16,88.375c-0,-0 1.629,3.462 2.24,4.446c0.61,0.984 2.443,3.326 4.276,4.276c1.833,0.951 5.023,1.867 7.127,1.833c2.105,-0.034 5.77,-0.747 6.618,-1.222c0.849,-0.475 3.259,-1.561 4.888,-2.817c1.629,-1.256 4.378,-4.31 5.125,-5.159c0.746,-0.848 2.138,-2.511 2.138,-2.511c3.83,22.186 -6.274,39.09 -21.552,54.032c-8.803,-17.275 -20.006,-34.388 -10.86,-52.878Z" style="fill:#f8edd7;"/><path d="M62.368,78.02c0.293,-0.055 -0.059,0.954 -0.228,1.518c-0.169,0.564 -0.254,2.057 -0.563,2.902c-0.31,0.846 -0.198,0.846 -0.677,1.466c-0.479,0.62 -0.592,0.958 -0.592,2.254c0,1.296 0,2.846 -0.169,3.184c-0.169,0.338 -0.422,0.338 -0.366,1.156c0.056,0.817 -0.366,4.142 -0.169,5.241c0.197,1.099 0.817,4.65 0.986,5.749c0.169,1.098 1.663,8.341 1.776,8.763c0.112,0.423 2.085,8.905 2.507,9.722c0.423,0.817 3.297,11.018 3.579,12.089c0.282,1.071 1.973,6.03 2.255,6.087c0.281,0.056 0.958,-1.128 1.239,-1.719c0.282,-0.592 1.578,-2.846 1.86,-3.41c0.282,-0.564 2.903,-5.157 3.185,-5.946c0.281,-0.789 3.578,-6.988 3.888,-7.749c0.31,-0.761 4.819,-10.004 5.27,-11.046c0.451,-1.043 2.705,-7.214 3.184,-9.102c0.479,-1.888 1.268,-5.749 1.24,-7.045c-0.028,-1.296 -0.423,-5.044 -0.817,-6.397c-0.395,-1.352 -1.156,-3.494 -1.55,-4.311c-0.395,-0.817 -0.874,-0.902 -0.902,-1.437c-0.028,-0.536 -0.338,-2.452 -0.028,-2.621c0.31,-0.169 0.366,0.338 0.93,0.761c0.563,0.423 1.775,1.578 2.508,2.142c0.732,0.563 2.141,1.972 2.508,2.141c0.366,0.169 5.213,1.747 6.002,2.057c0.789,0.31 4.734,2.086 5.438,2.396c0.705,0.309 3.241,2.254 3.861,2.705c0.62,0.451 2.536,1.719 3.494,2.17c0.958,0.45 4.143,2.282 4.791,3.015c0.648,0.732 0.732,1.014 1.127,1.268c0.394,0.253 1.662,0.366 2.282,0.986c0.62,0.62 0.93,1.353 0.93,2.283c0,0.929 0.648,3.663 0.789,4.621c0.141,0.958 1.381,7.439 1.55,8.397c0.169,0.958 0.705,4.96 0.817,5.664c0.113,0.705 0.648,2.677 0.648,2.677c-9.509,17.492 -24.405,29.279 -54.956,24.484c-6.574,6.855 -47.506,-10.298 -39.854,-19.037c0.384,-0.438 -0.409,-2.387 -0.307,-3.58c0.103,-1.194 0.648,-3.546 0.785,-4.296c0.136,-0.75 0.136,-2.83 0.272,-4.944c0.137,-2.114 0.034,-3.717 0.341,-5.047c0.307,-1.329 1.091,-5.66 1.33,-6.682c0.239,-1.023 0.716,-4.569 1.159,-5.626c0.444,-1.057 2.046,-4.433 3.001,-4.978c0.954,-0.546 2.114,-1.091 2.796,-0.989c0.682,0.102 1.22,0.038 1.734,-0.315c0.921,-0.633 1.437,-0.776 2.357,-1.595c0.921,-0.818 2.66,-2.114 4.126,-3.034c1.466,-0.921 4.603,-1.739 5.728,-2.114c1.125,-0.375 3.614,-1.057 4.194,-1.159c0.579,-0.103 0.852,-0.103 1.193,-0.478c0.341,-0.375 1.091,-1.841 1.841,-2.421c0.751,-0.579 0.808,-0.66 1.677,-0.82Z" style="fill:#251a28;"/></g></g></svg>