<?xml version="1.0" encoding="UTF-8" standalone="no"?><!DOCTYPE svg PUBLIC "-//W3C//DTD SVG 1.1//EN" "http://www.w3.org/Graphics/SVG/1.1/DTD/svg11.dtd"><svg width="100%" height="100%" viewBox="0 0 150 150" version="1.1" xmlns="http://www.w3.org/2000/svg" xmlns:xlink="http://www.w3.org/1999/xlink" xml:space="preserve" xmlns:serif="http://www.serif.com/" style="fill-rule:evenodd;clip-rule:evenodd;stroke-linejoin:round;stroke-miterlimit:2;"><path id="base" d="M150,75c0,-41.394 -33.606,-75 -75,-75c-41.394,0 -75,33.606 -75,75c0,41.394 33.606,75 75,75c41.394,0 75,-33.606 75,-75Z" style="fill:#03214f;"/><path id="outline" d="M144,75c0,-38.082 -30.918,-69 -69,-69c-38.082,0 -69,30.918 -69,69c0,38.082 30.918,69 69,69c38.082,0 69,-30.918 69,-69Z" style="fill:#1fbaed;"/><path id="core" d="M141,75c0,-36.426 -29.574,-66 -66,-66c-36.426,0 -66,29.574 -66,66c0,36.426 29.574,66 66,66c36.426,0 66,-29.574 66,-66Z" style="fill:#fff;"/><clipPath id="_clip1"><path d="M141,75c0,-36.426 -29.574,-66 -66,-66c-36.426,0 -66,29.574 -66,66c0,36.426 29.574,66 66,66c36.426,0 66,-29.574 66,-66Z"/></clipPath><g clip-path="url(#_clip1)"><g id="tfue"><path d="M54.511,97.421c0,0 2.294,-4.486 3.518,-5.149c1.224,-0.663 1.784,-0.714 1.937,-1.937c0.153,-1.224 0.204,-12.338 0,-13.307c-0.204,-0.968 -0.663,-4.996 -0.663,-5.607c0,-0.612 0.051,-0.969 -0.509,-0.918c-0.561,0.051 -2.396,1.325 -4.028,-0.204c-1.631,-1.53 -2.804,-2.09 -3.467,-4.079c-0.662,-1.988 -1.121,-4.078 -1.121,-5.353c-0,-1.274 -0.255,-3.161 0.917,-3.874c1.173,-0.714 2.04,-1.02 3.008,-0.102c0.969,0.917 2.193,0.459 2.193,0.459c-1.601,-6.882 -2.765,-13.964 -0.816,-22.483c17.324,-17.231 29.497,-15.646 37.981,-4.997c1.539,3.799 3.183,11.349 3.263,20.903l0.153,3.62c0,-0 0.408,-0.612 1.173,-0.969c0.764,-0.357 2.702,-0.051 2.906,1.529c0.204,1.581 -0.102,7.189 -0.867,8.616c-0.215,0.402 -0.47,0.706 -0.493,1.219c-0.021,0.485 0.34,2.146 -1.138,2.503c-1.479,0.357 -1.734,0.561 -2.346,0.255c0,-0 0.051,4.333 -1.019,6.831c-1.071,2.499 -1.887,3.518 -1.887,3.518c0,0 1.173,11.216 1.122,12.644c-0,-0 2.753,1.682 3.212,3.11c0.459,1.427 0.306,2.753 0.306,2.753c-14.445,18.403 -28.89,17.964 -43.335,1.019Z" style="fill:#e1bba6;"/><path d="M56.954,60.138c0,0 -1.504,-2.237 -2.275,-3.124c-0.771,-0.887 -0.54,-1.427 -0.771,-2.082c-0.232,-0.656 -0.965,-3.202 -1.042,-4.089c-0.077,-0.887 -0.81,-3.856 -0.655,-7.636c0.154,-3.78 0.077,-5.515 0.077,-5.515c-0,-0 -1.389,-1.273 -1.62,-3.394c-0.231,-2.121 -0.231,-4.243 0.424,-4.32c0.656,-0.077 1.08,1.273 1.543,-0.038c0.463,-1.312 0.501,-1.08 0.656,-2.469c0.154,-1.388 -0.039,-2.159 0.424,-2.275c0.463,-0.116 -0,0.077 1.62,-0.463c1.619,-0.54 1.504,-0.154 2.584,-0.848c1.08,-0.695 1.581,-1.273 3.124,-1.697c1.542,-0.425 1.234,-0.077 2.854,-0.772c1.619,-0.694 2.854,-1.35 3.779,-1.851c0.926,-0.501 2.391,-0.887 3.587,-1.234c1.196,-0.347 2.815,-1.736 4.242,-2.083c1.427,-0.347 7.135,-0.193 8.794,1.196c1.658,1.388 2.044,2.584 4.049,3.394c2.006,0.81 2.006,0.463 2.006,0.463c-0,-0 -1.196,0.771 -0,1.427c1.196,0.655 1.851,0.848 2.7,1.349c0.848,0.502 0.462,0.309 1.928,1.273c1.466,0.964 1.041,0.039 1.851,1.62c0.81,1.581 0.502,0.694 1.08,2.353c0.579,1.658 0.772,1.851 0.733,2.584c-0.039,0.732 0.231,1.002 0.039,1.889c-0.193,0.888 0.231,1.582 -0.656,1.697c-0.887,0.116 -1.928,-0.501 -1.928,0.579c-0,1.08 -0.193,1.504 0.192,2.43c0.386,0.925 0.772,2.275 0.887,3.587c0.116,1.311 0.005,12.101 -0.42,13.721c0,-0 0.228,-5.044 -0.351,-6.586c-0.578,-1.543 -0.694,-1.543 -1.08,-2.932c-0.386,-1.388 0.232,-2.699 0.232,-4.821c-0,-2.121 -0.386,-2.699 -0.618,-2.969c-0.231,-0.27 0.193,-1.08 -1.928,-3.24c-2.121,-2.16 -0.733,-2.044 -3.432,-2.661c-2.7,-0.617 -2.507,-1.003 -4.32,-0.926c-1.813,0.077 -2.083,-0.385 -4.435,0.155c-2.353,0.539 -1.774,0.887 -5.091,0.809c-3.317,-0.077 -1.813,-0.231 -4.281,-0.231c-2.468,0 -2.083,-0.386 -3.548,0c-1.466,0.386 -3.934,0.116 -5.13,1.543c-1.195,1.427 -1.35,0.501 -1.504,1.812c-0.154,1.312 0.926,-0.308 -0.116,1.929c-1.041,2.237 -2.005,3.124 -2.391,3.509c-0.386,0.386 -0.231,-0.462 -1.118,0.54c-0.887,1.003 -1.235,1.466 -1.273,3.009c-0.039,1.542 -0,4.936 0.077,6.556c0.077,1.62 0.231,1.851 0.54,4.628c0.309,2.777 -0.039,4.204 -0.039,4.204Z" style="fill:#dcb99b;"/><path d="M58.717,91.753c0,0 -1.17,0.277 -2.218,1.325c-1.047,1.047 -1.694,1.109 -2.526,1.263c-0.832,0.154 -2.403,1.109 -2.619,1.386c-0.216,0.278 0.431,0.062 -1.818,1.171c-2.249,1.109 -2.403,1.664 -4.621,1.972c-2.218,0.308 -3.882,2.095 -6.192,3.389c-2.311,1.294 -6.716,4.005 -8.103,5.884c-1.386,1.879 -4.159,3.358 -5.946,4.683c-1.786,1.324 -2.279,1.787 -4.189,3.573c-1.911,1.787 -1.849,3.451 -2.927,5.392c-1.079,1.941 -1.202,2.619 -1.51,5.114c-0.308,2.495 -2.341,8.257 -3.142,10.752c-0.801,2.495 1.879,7.425 1.879,7.425c47.242,44.021 88.481,34.477 126.806,-1.079c-0,0 -0.493,-2.834 -0.74,-3.82c-0.246,-0.986 -0.462,-2.834 -0.739,-4.128c-0.277,-1.294 -0.37,-2.341 -0.678,-3.389c-0.308,-1.047 -0.678,-2.465 -1.017,-4.097c-0.338,-1.633 -0.462,-2.496 -0.616,-3.112c-0.154,-0.616 -1.509,-4.929 -2.002,-7.209c-0.493,-2.28 -0.678,-4.498 -0.678,-4.498c-0,-0 -0.247,-0.401 -1.54,-1.325c-1.294,-0.924 -2.219,-1.417 -3.451,-2.31c-1.232,-0.894 -2.403,-1.756 -3.789,-2.835c-1.387,-1.078 -2.989,-1.478 -4.56,-2.742c-1.571,-1.263 -4.282,-2.742 -5.206,-2.988c-0.925,-0.246 -3.359,-0.647 -4.714,-1.787c-1.356,-1.14 -2.496,-2.588 -4.282,-3.081c-1.787,-0.493 -2.65,0.37 -3.882,-0.554c-1.232,-0.924 -3.605,-2.711 -3.605,-2.711c0,-0 -2.156,-0.062 -2.557,-0.462c-0.4,-0.401 -1.848,-1.756 -2.28,-1.88c0,0 1.541,1.972 0.925,3.482c-0.616,1.509 -2.403,4.436 -3.79,5.391c-1.386,0.955 -6.439,4.375 -6.962,4.529c-0.524,0.154 -3.82,1.232 -6.1,1.417c-2.28,0.185 -7.302,0.555 -9.951,-0.431c-2.65,-0.986 -5.607,-2.835 -7.548,-4.344c-1.941,-1.51 -3.851,-3.266 -4.313,-5.361c-0.462,-2.095 0.246,-3.111 1.201,-4.005Z" style="fill:#1b2f36;"/></g></g></svg>