<?xml version="1.0" encoding="UTF-8" standalone="no"?><!DOCTYPE svg PUBLIC "-//W3C//DTD SVG 1.1//EN" "http://www.w3.org/Graphics/SVG/1.1/DTD/svg11.dtd"><svg width="100%" height="100%" viewBox="0 0 150 150" version="1.1" xmlns="http://www.w3.org/2000/svg" xmlns:xlink="http://www.w3.org/1999/xlink" xml:space="preserve" xmlns:serif="http://www.serif.com/" style="fill-rule:evenodd;clip-rule:evenodd;stroke-linejoin:round;stroke-miterlimit:2;"><path id="base" d="M150,75c0,-41.394 -33.606,-75 -75,-75c-41.394,0 -75,33.606 -75,75c0,41.394 33.606,75 75,75c41.394,0 75,-33.606 75,-75Z" style="fill:#03214f;"/><path id="outline" d="M144,75c0,-38.082 -30.918,-69 -69,-69c-38.082,0 -69,30.918 -69,69c0,38.082 30.918,69 69,69c38.082,0 69,-30.918 69,-69Z" style="fill:#1fbaed;"/><path id="core" d="M141,75c0,-36.426 -29.574,-66 -66,-66c-36.426,0 -66,29.574 -66,66c0,36.426 29.574,66 66,66c36.426,0 66,-29.574 66,-66Z" style="fill:#fff;"/><clipPath id="_clip1"><path d="M141,75c0,-36.426 -29.574,-66 -66,-66c-36.426,0 -66,29.574 -66,66c0,36.426 29.574,66 66,66c36.426,0 66,-29.574 66,-66Z"/></clipPath><g clip-path="url(#_clip1)"><g id="tom"><path d="M62.619,83.542c0,0 0,-1.879 0.065,-2.495c0.065,-0.616 0.227,-1.005 0.162,-1.361c-0.065,-0.357 -0.227,-0.843 -0.324,-1.459c-0.097,-0.615 -0.324,-1.685 -0.324,-1.976c-0,-0.292 0.097,-1.297 0.194,-2.204c0.097,-0.908 0.162,-1.037 0.13,-1.783c-0.033,-0.745 -0.454,-2.365 -0.551,-3.5c-0.097,-1.134 -0.227,-0.939 -0.162,-1.847c0.065,-0.907 -0.097,-1.037 0.194,-2.106c0.292,-1.07 0.195,-1.491 0.519,-2.398c0.324,-0.908 0.389,-0.681 0.551,-1.588c0.162,-0.908 0.486,-1.037 0.324,-2.074c-0.162,-1.038 -0.357,-1.2 -0.551,-1.848c-0.194,-0.648 -0.77,-1.604 -0.543,-2.771c0.227,-1.166 1.268,-1.512 1.677,-2.868c0.366,-1.211 1.232,-3.305 1.459,-4.277c0.226,-0.973 1.782,-5.898 1.782,-5.898l20.028,-9.366l19.153,20.805l2.472,7.809c-0,0 0.551,2.72 0.571,3.212c0.02,0.493 -0.197,3.173 -0.847,4.336c-0.651,1.163 -1.596,2.148 -1.931,3.114c-0.335,0.965 -1.222,2.345 -2.523,3.37c-1.301,1.024 -5.084,4.158 -6.05,4.02c0,-0 -0.394,1.359 -0.434,1.951c-0.039,0.591 -0.216,0.906 -0.216,1.517c-0,0.611 0.138,1.951 0.138,1.951l4.178,5.617c-3.765,11.899 -12.773,16.757 -23.94,18.717l-15.201,-24.6Z" style="fill:#f6b3a2;"/><path d="M24.167,106.665c-0,0 -4.825,4.179 -5.256,4.912c-0.431,0.732 -3.36,4.738 -4.61,6.117c-1.249,1.379 -4.911,5.514 -6.16,7.108c-1.25,1.594 -4.825,7.238 -5.73,8.617c-0.905,1.378 -4.222,7.625 -5.17,10.081c-0.948,2.455 19.343,4.566 19.343,4.566c0,0 2.456,-6.074 3.059,-8.013c0.603,-1.939 2.154,-5.471 4.308,-8.013c2.154,-2.542 4.567,-4.954 5.859,-5.816c1.293,-0.862 7.927,-7.065 8.315,-8.056c0.388,-0.991 -13.958,-11.503 -13.958,-11.503Z" style="fill:#c98371;"/><path d="M97.295,82.817c0,-0 0.659,0.245 1.195,0.842c0.536,0.597 0.98,1.44 1.363,1.991c0.383,0.552 0.597,0.996 0.904,1.241c0.306,0.245 0.49,0.49 0.919,0.766c0.429,0.275 0.842,0.26 1.7,0.428c0.858,0.169 1.149,0.414 2.313,1.241c1.164,0.827 2.312,1.455 3.277,1.991c0.965,0.536 2.834,1.624 3.017,1.792c0.184,0.169 4.871,3.523 5.621,4.411c0.751,0.888 1.777,2.068 2.635,2.604c0.857,0.536 4.058,3.109 4.411,3.951c0.352,0.843 0.582,0.935 1.302,1.256c0.719,0.322 0.827,0.061 1.225,0.49c0.398,0.429 0.612,0.889 0.796,1.455c0.184,0.567 1.471,4.718 1.608,5.223c0.138,0.506 1.593,4.626 1.593,6.31c0,1.685 0.475,7.092 0.383,8.47c-0.092,1.378 -0.658,6.571 -1.026,7.918c-0.368,1.348 -2.052,6.801 -2.052,6.801l-100.06,0.903c0,0 0.801,-1.857 0.957,-2.324c0.156,-0.467 0.917,-1.471 1.16,-2.094c0.242,-0.623 0.64,-1.714 1.09,-2.302c0.45,-0.589 1.108,-0.987 1.385,-1.696c0.277,-0.71 0.553,-1.506 0.709,-2.043c0.156,-0.536 1.125,-1.678 1.264,-2.734c0.138,-1.056 0.83,-2.613 1.038,-3.358c0.208,-0.744 0.762,-1.678 0.935,-2.526c0.173,-0.849 0.294,-2.96 0.519,-3.445c0.225,-0.484 0.969,-0.778 1.09,-1.575c0.121,-0.796 0.121,-1.055 0.121,-1.055c0,-0 0.364,0.017 -0.709,0.311c-1.073,0.294 -2.769,0.623 -3.704,0.243c-0.935,-0.381 -5.261,-2.112 -6.802,-3.081c-1.54,-0.969 -4.43,-3.15 -5.919,-5.66c-1.488,-2.509 -1.713,-4.413 -1.298,-4.984c0.416,-0.571 1.177,-1.385 1.61,-1.938c0.433,-0.554 0.242,-0.537 0.779,-0.883c0.536,-0.346 0.675,-0.104 1.09,-0.744c0.415,-0.641 0.848,-1.368 1.246,-2.077c0.398,-0.71 1.714,-2.285 2.077,-2.7c0.363,-0.415 1.385,-1.35 1.8,-2.06c0.415,-0.709 1.385,-2.336 2.146,-3.288c0.762,-0.952 2.596,-2.942 3.133,-3.79c0.536,-0.848 3.375,-3.167 3.738,-3.496c0.363,-0.329 2.475,-2.042 2.769,-2.579c0.294,-0.536 1.177,-1.956 1.887,-1.956c0.709,0 4.621,-0.207 5.797,-0.415c1.177,-0.208 8.619,-0.017 9.277,-0.017c0.658,-0 3.669,-0.208 4.292,-0.07l0.623,0.139c0,-0 0.641,3.825 0.744,4.379c0.104,0.553 -0.242,6.715 0.312,7.459c0.554,0.744 6.802,4.413 7.702,5.14c0.9,0.727 3.028,2.423 3.617,2.787c0.588,0.363 4.24,2.63 7.598,2.18c3.357,-0.45 6.74,-1.073 9.346,-2.7c2.605,-1.626 4.18,-2.596 5.115,-5.105c0.934,-2.51 1.35,-3.358 1.125,-4.569c-0.225,-1.212 -0.917,-3.046 -0.952,-3.721c-0.035,-0.675 0.045,-1.449 0.169,-1.737Z" style="fill:#b7bbde;"/><path d="M62.827,76.808c-0.508,-0.175 -1.155,-0.969 -0.268,-2.042c0.887,-1.073 1.32,-1.795 2.228,-1.548c0.908,0.248 1.197,1.156 1.857,1.218c0.66,0.062 1.258,-0.681 2.538,-0.269c1.279,0.413 2.661,1.63 3.239,2.291c0.577,0.66 2.558,1.423 3.136,2.083c0.577,0.66 2.62,3.466 2.888,4.147c0.268,0.681 -0.309,0.908 -1.589,-0.309c-1.279,-1.218 -3.218,-2.167 -4.064,-2.889c-0.846,-0.722 -1.527,-1.114 -2.331,-1.134c-0.805,-0.021 -1.795,0.474 -2.332,0.123c-0.536,-0.35 -1.506,-1.795 -2.434,-1.877c-0.929,-0.083 -1.733,0.598 -2.868,0.206Z" style="fill:#3c1d14;"/><path d="M62.724,78.975c-0,-0 -0.371,2.578 -0.433,2.929c-0.062,0.351 0.123,0.805 -0.062,0.991c-0.186,0.185 -0.268,-0.042 -0.66,0.412c-0.392,0.454 -0.372,0.268 -0.558,0.825c-0.185,0.557 -0.412,0.557 -0.371,1.053c0.041,0.495 0.186,0.288 0.227,1.134c0.041,0.846 0.021,0.557 0.062,1.486c0.041,0.928 0.041,0.144 0.041,1.052c0,0.908 0.083,0.743 0.165,1.424c0.083,0.68 1.96,3.156 2.538,3.899c0.578,0.743 0.64,0.763 1.258,1.238c0.619,0.474 1.259,0.949 1.837,1.258c0.577,0.31 0.763,0.413 1.691,0.702c0.929,0.289 0.888,0.681 1.795,0.66c0.908,-0.021 1.96,0.186 2.497,-0.041c0.536,-0.227 0.577,-0.124 1.753,-0.991c1.176,-0.866 1.321,-0.949 1.795,-1.134c0.475,-0.186 3.714,-0.681 4.085,-0.867c0.372,-0.186 0.269,-0.082 1.114,-0.99c0.846,-0.908 0.289,-0.825 1.568,-1.259c1.28,-0.433 1.465,-0.392 2.146,-0.681c0.681,-0.288 1.403,-0.866 2.29,-0.907c0.887,-0.042 1.052,-0.145 1.424,-0.557c0.371,-0.413 0.103,0.144 0.681,-0.846c0.577,-0.991 0.866,-1.321 1.196,-2.249c0.33,-0.928 0.042,-0.619 0.66,-1.568c0.619,-0.949 0.805,-0.99 1.053,-1.671c0.247,-0.681 0.309,-1.3 0.969,-3.074c0.661,-1.775 0.537,-1.61 0.949,-2.435c0.413,-0.825 0.578,-1.176 0.702,-1.465c0.124,-0.288 1.217,-0.495 -0.186,-0.784c-1.403,-0.288 -1.733,0.537 -1.568,-0.35c0.165,-0.887 1.465,-3.549 1.816,-4.766c0.35,-1.217 0.165,-0.949 0.412,-1.527c0.248,-0.578 0.124,-0.557 0.743,-1.341c0.619,-0.784 0.805,-0.99 1.465,-2.001c0.66,-1.011 0.413,-0.66 0.99,-1.589c0.578,-0.928 0.248,-0.722 1.052,-1.527c0.805,-0.804 0.083,-0.887 1.878,-1.217c1.795,-0.33 1.919,-0.309 2.558,-0.474c0.64,-0.165 0.722,-0.372 2.001,-0.351c1.28,0.021 2.043,0.289 2.373,0.681c0.33,0.392 1.052,2.022 1.341,0.784c0.289,-1.238 0.268,-4.209 0.475,-4.952c0.206,-0.742 0.103,-0.454 0.619,-1.733c0.515,-1.279 0.577,-1.609 0.598,-2.599c0.02,-0.991 0.206,-1.837 0.474,-3.178c0.269,-1.341 0.578,-2.001 0.372,-2.909c-0.207,-0.907 -0.351,-0.722 -0.372,-1.464c-0.02,-0.743 0.413,-0.702 0.743,-0.64c0.33,0.062 0.99,0.495 0.99,0.124c0,-0.372 -0.453,-0.949 -0.557,-1.527c-0.103,-0.578 -0.206,-0.722 -0.103,-1.403c0.103,-0.681 0.454,-0.681 0.062,-1.3c-0.392,-0.619 0.887,-0.577 -0.722,-0.866c-1.609,-0.289 -1.733,-0.227 -2.166,-0.495c-0.434,-0.269 -1.651,-0.434 -0.186,-0.887c1.465,-0.454 2.393,-0.764 2.393,-0.764c0,0 -0.639,-0.639 -1.134,-0.97c-0.496,-0.33 -1.383,-1.506 -1.527,-1.815c-0.145,-0.31 0.186,-0.433 0.412,-1.465c0.227,-1.032 0.599,-0.805 0.207,-1.444c-0.392,-0.64 -0.908,-2.043 -1.506,-2.517c-0.599,-0.475 -0.021,-0.372 -1.094,-0.722c-1.073,-0.351 -1.073,-0.495 -1.877,-0.805c-0.805,-0.309 -0.475,0 -1.589,-0.949c-1.114,-0.949 -2.991,-3.383 -4.229,-3.631c-1.238,-0.248 -0.743,-0.371 -1.754,-0.371c-1.011,-0 -2.785,0.227 -2.785,0.227c-0,-0 -1.176,-1.527 -3.116,-1.321c-1.939,0.206 -3.548,0.227 -4.373,0.433c-0.826,0.207 -0.888,0.351 -0.888,0.351c0,0 -3.053,0.289 -4.373,0.846c-1.321,0.557 -2.456,1.011 -3.652,1.527c-1.197,0.515 -1.816,0.825 -2.538,1.052c-0.722,0.227 -1.258,0.165 -2.001,0.763c-0.743,0.599 -4.064,1.527 -5.014,2.352c-0.949,0.826 -1.01,0.434 -1.609,1.3c-0.598,0.867 -0.577,1.465 -1.114,2.043c-0.536,0.577 -1.011,1.382 -1.795,2.393c-0.784,1.011 -0.206,1.196 -0.536,2.228c-0.33,1.032 -0.681,0.846 -0.454,1.774c0.227,0.929 0.495,1.651 0.619,2.373c0.124,0.722 -0.289,1.733 -0.537,2.414c-0.247,0.681 -0.536,1.733 0,2.166c0.537,0.433 0.991,0.454 0.991,0.454c-0,-0 0.825,-1.733 1.258,-2.661c0.433,-0.929 0.743,-2.126 1.713,-3.054c0.969,-0.928 0.742,-1.382 2.083,-1.547c1.341,-0.165 2.167,0.206 3.157,0.35c0.99,0.145 1.382,-0.371 2.311,-0.701c0.928,-0.33 2.022,-0.557 3.486,-0.248c1.465,0.31 3.425,0.722 4.436,0.97c1.011,0.248 1.774,0.144 3.219,0.103c1.444,-0.041 0.66,-0.124 2.723,-0.103c2.063,0.021 6.375,0.619 6.375,0.619c0,0 -2.661,0.454 -2.991,0.66c-0.331,0.207 -0.413,1.3 -0.351,1.898c0.062,0.599 0.433,2.249 0.412,2.682c-0.02,0.434 0.289,3.074 0,4.725c-0.288,1.651 -0.66,2.641 -0.206,3.239c0.454,0.598 0.433,0.31 0.784,1.176c0.351,0.867 2.084,2.6 2.455,3.384c0.372,0.784 -0.825,2.248 -1.279,3.755c-0.454,1.506 -0.784,2.847 -0.763,3.61c0.02,0.763 0.247,2.538 0.247,2.538c0,-0 -0.371,1.444 -0.619,2.29c-0.247,0.846 -0.103,1.3 -0.68,1.712c-0.578,0.413 -0.661,-0.866 -1.878,0.805c-1.217,1.671 -1.135,1.588 -1.155,2.125c-0.021,0.536 -0.784,2.62 -1.506,2.95c-0.722,0.33 -0.887,0 -1.671,0.227c-0.784,0.227 -2.476,-0.165 -3.673,0.619c-1.196,0.784 -1.052,0.578 -1.857,1.259c-0.804,0.68 -0.371,0.061 -1.403,1.134c-1.031,1.073 -0.66,2.847 -1.155,3.817c-0.495,0.97 -0.722,0.722 -1.671,0.722c-0.949,0 -0.784,-0.144 -2.249,-0.165c-1.465,-0.02 -1.382,-0.268 -2.063,0.289c-0.681,0.557 -0.289,0.825 -1.857,0.867c-1.568,0.041 -3.796,-1.424 -3.899,-1.837c-0.103,-0.412 -0.743,-1.691 -1.63,-1.753c-0.887,-0.062 -1.589,-0.454 -1.795,-1.114c-0.206,-0.661 -0.186,-2.662 -0.949,-3.301" style="fill:#3c1d14;"/><path d="M97.767,73.049c-0.258,-0.193 -0.879,-0.257 -0.429,-0.75c0.45,-0.493 0.536,-0.493 0.857,-0.729c0.322,-0.236 0.386,0.043 0.536,-0.943c0.15,-0.986 0.064,-2.251 0.429,-2.53c0.364,-0.279 0.429,-0.214 0.836,-0.021c0.407,0.193 0.364,0.214 0.879,0.278c0.514,0.065 0.814,0.108 1.029,-0.085c0.214,-0.193 0.3,-0.794 0.686,-0.665c0.385,0.129 0.878,0.686 1.071,1.179c0.193,0.493 0.579,1.736 0.193,2.122c-0.386,0.386 -1.222,0.686 -1.886,0.836c-0.665,0.15 -1.158,0.322 -1.629,0.708c-0.472,0.385 -2.037,1.479 -2.037,1.479c0,-0 -1.714,2.508 -2.015,3.108c-0.3,0.6 -1.522,1.951 -1.714,2.379c-0.193,0.429 -0.965,1.758 -1.308,2.294c-0.343,0.536 -1.329,2.487 -1.994,3.558c-0.664,1.072 -2.315,3.73 -2.786,4.588c-0.472,0.857 -1.179,1.693 -1.672,2.701c-0.493,1.007 -3.666,4.887 -4.137,5.53c-0.472,0.643 -0.622,0.9 -0.708,1.393c-0.086,0.493 -0.772,2.058 -0.922,2.508c-0.15,0.451 -0.107,0.794 -0.364,1.244c-0.257,0.45 -0.729,0.9 -0.729,1.093c0,0.193 -0.214,0.45 0.129,0.836c0.343,0.386 4.03,6.645 4.287,7.245c0.257,0.601 0.364,0.944 1.093,1.951c0.729,1.007 1.244,2.551 1.929,3.666c0.686,1.114 1.93,3.172 2.53,4.222c0.6,1.051 1.801,3.666 2.487,4.909c0.685,1.244 3.215,5.466 3.815,6.538c0.6,1.072 3.709,6.26 4.309,7.053c0.6,0.793 1.2,1.8 1.2,1.8l-0.729,-0.214c0,-0 -1.071,-1.865 -1.393,-2.251c-0.322,-0.386 -1.501,-2.379 -1.951,-3.044c-0.45,-0.664 -0.879,-1.457 -1.222,-1.993c-0.342,-0.536 -1.243,-1.951 -1.5,-2.315c-0.257,-0.365 -2.058,-3.001 -2.572,-4.223c-0.515,-1.222 -0.472,-1.072 -0.536,-1.265c-0.065,-0.193 -0.879,-2.186 -1.415,-3.087c-0.536,-0.9 -1.158,-1.779 -1.651,-2.679c-0.493,-0.901 -0.75,-1.415 -1.221,-2.144c-0.472,-0.729 -3.173,-5.102 -3.495,-5.723c-0.321,-0.622 -1.093,-2.594 -1.629,-3.366c-0.536,-0.771 -2.058,-3.258 -2.4,-3.837c-0.343,-0.579 -0.451,-0.793 -0.451,-0.793c0,0 -0.664,1.265 -0.836,1.479c-0.171,0.215 -0.664,0.579 -0.75,0.772c-0.086,0.193 -0.171,0.493 -0.321,1.093c-0.151,0.6 -0.815,2.337 -0.965,3.065c-0.15,0.729 -0.6,2.358 -0.686,3.216c-0.086,0.857 -0.257,3.151 -0.3,4.008c-0.043,0.858 0.171,2.701 0.814,3.923c0.644,1.222 1.544,3.902 1.973,4.352c0.428,0.45 2.293,2.416 3.065,3.387c0.772,0.97 3.644,3.371 4.287,3.864c0.643,0.493 3.194,2.251 4.052,2.723c0.857,0.471 6.537,3.022 7.716,3.644c1.179,0.621 0.644,1.093 0.644,1.093l-1.93,-1.029c0,-0 -3.472,-1.158 -4.351,-1.736c-0.879,-0.579 -4.18,-2.465 -4.695,-2.851c-0.514,-0.386 -4.994,-4.052 -5.702,-4.652c-0.707,-0.6 -3.236,-3.194 -4.33,-5.959c-1.093,-2.765 -1.95,-3.427 -1.972,-5.957c-0.021,-2.529 0.858,-8.253 1.051,-9.089c0.192,-0.836 1.329,-2.958 1.35,-3.387c0.021,-0.428 0.3,-1.393 0.45,-1.865c0.15,-0.471 0.429,-1.071 0.472,-1.286c0.043,-0.214 0.021,-0.686 -0.236,-0.964c-0.257,-0.279 -1.951,-3.194 -2.272,-3.816c-0.322,-0.622 -1.413,-2.825 -1.413,-2.825c-0,-0 0.573,-0.325 0.766,-0.518c0.193,-0.193 0.818,1.349 0.904,1.607c0.086,0.257 2.701,5.316 2.701,5.316c-0,-0 0.686,-0.579 0.75,-1.008c0.064,-0.428 0.086,-0.45 0.086,-0.45c-0,0 -0,-0.3 0.536,-1.029c0.536,-0.729 0.686,-1.286 0.836,-1.457c0.15,-0.172 0.257,-0.065 0.45,-0.579c0.193,-0.515 2.679,-3.88 2.894,-4.244c0.214,-0.365 1.222,-2.058 1.479,-2.487c0.257,-0.429 1.222,-2.122 1.522,-2.637c0.3,-0.514 2.508,-3.858 2.979,-4.78c0.472,-0.922 1.244,-2.015 1.823,-2.829c0.578,-0.815 1.2,-1.801 1.457,-2.337c0.257,-0.536 2.058,-2.872 2.422,-3.43c0.365,-0.557 1.051,-1.757 1.244,-2.186c0.193,-0.429 0.493,-0.523 0.236,-0.716Z" style="fill:#9e2a40;"/></g></g></svg>