<?xml version="1.0" encoding="UTF-8" standalone="no"?><!DOCTYPE svg PUBLIC "-//W3C//DTD SVG 1.1//EN" "http://www.w3.org/Graphics/SVG/1.1/DTD/svg11.dtd"><svg width="100%" height="100%" viewBox="0 0 150 150" version="1.1" xmlns="http://www.w3.org/2000/svg" xmlns:xlink="http://www.w3.org/1999/xlink" xml:space="preserve" xmlns:serif="http://www.serif.com/" style="fill-rule:evenodd;clip-rule:evenodd;stroke-linejoin:round;stroke-miterlimit:2;"><path id="base" d="M150,75c0,-41.394 -33.606,-75 -75,-75c-41.394,0 -75,33.606 -75,75c0,41.394 33.606,75 75,75c41.394,0 75,-33.606 75,-75Z" style="fill:#00b894;"/><path id="outline" d="M144,75c0,-38.082 -30.918,-69 -69,-69c-38.082,0 -69,30.918 -69,69c0,38.082 30.918,69 69,69c38.082,0 69,-30.918 69,-69Z" style="fill:#dfe6e9;"/><path id="core" d="M141,75c0,-36.426 -29.574,-66 -66,-66c-36.426,0 -66,29.574 -66,66c0,36.426 29.574,66 66,66c36.426,0 66,-29.574 66,-66Z" style="fill:#81ecec;"/><clipPath id="_clip1"><path d="M141,75c0,-36.426 -29.574,-66 -66,-66c-36.426,0 -66,29.574 -66,66c0,36.426 29.574,66 66,66c36.426,0 66,-29.574 66,-66Z"/></clipPath><g clip-path="url(#_clip1)"><path id="gertrudes-rainbow" d="M44.55,75.123c1.455,-0.725 2.65,-1.324 3.298,-1.658c2.665,-1.372 7.672,-3.512 7.672,-3.512c-0,-0 -3.594,-5.814 -4.038,-9.932c-0.444,-4.119 -0.242,-9.287 0.162,-12.234c0.403,-2.948 0.525,-9.448 0.726,-10.457c0.202,-1.01 1.737,-2.786 2.019,-2.544c0.283,0.242 -0.848,1.252 -1.009,2.463c-0.162,1.211 0.04,12.355 0.484,13.647c0.444,1.292 3.392,5.087 5.249,5.572c1.857,0.484 3.27,4.481 3.795,6.258c0.525,1.776 2.827,5.127 2.827,5.127c-0,0 3.997,-1.897 6.096,-2.503c0,0 -1.453,-1.332 -2.947,-3.755c-1.494,-2.422 -3.513,-7.025 -3.876,-9.972c-0.364,-2.948 -0.444,-5.128 0.121,-5.532c0.565,-0.404 2.826,-1.696 4.078,-2.584c1.251,-0.888 2.382,-2.705 2.866,-2.988c0.485,-0.282 2.908,-0.928 3.513,-1.211c0.606,-0.283 2.221,-2.019 2.826,-2.099c0.606,-0.081 0.445,0.444 1.212,0.605c0.767,0.162 3.432,-0.121 4.441,-0.807c1.009,-0.687 1.857,-1.817 2.544,-1.736c0.686,0.08 1.09,0.363 2.139,0.444c1.05,0.08 1.817,-0.646 2.302,-0.566c0.484,0.081 2.14,1.131 2.907,1.171c0.767,0.041 1.696,-0.605 2.22,-0.605c0.525,-0 0.848,1.251 2.06,1.534c1.211,0.283 2.099,0.283 2.543,0.323c0.444,0.04 0.687,1.13 1.454,1.453c0.767,0.323 1.615,-0.04 1.978,0.243c0.364,0.282 0.162,2.624 1.09,2.866c0.929,0.243 1.656,0.364 1.656,0.364c-0,-0 -0.283,1.615 0.202,2.059c0.484,0.444 1.655,0.242 1.776,0.646c0.121,0.404 -0.606,2.705 -0.242,2.947c0.363,0.243 0.444,-0.08 1.211,-0.969c0.767,-0.888 2.019,-4.926 3.957,-6.662c1.938,-1.736 2.503,-3.149 3.391,-3.512c0.889,-0.364 5.047,-1.696 6.178,0.161c1.13,1.857 3.553,6.42 3.755,8.923c0.201,2.503 0.605,9.004 1.13,10.78c0.525,1.777 4.038,8.196 4.684,9.206c0.646,1.009 3.553,6.46 3.553,8.438c-0,1.979 -1.615,5.774 -4.32,5.693c-2.706,-0.081 -6.541,-1.09 -7.591,-2.099c-0,-0 -1.898,0.726 -3.069,-0.081c-1.17,-0.808 -3.431,-2.423 -4.199,-2.948c0,0 -1.009,0.646 -2.785,-0.242c-1.777,-0.888 -5.734,-3.755 -6.178,-4.32c-0.444,-0.565 -7.066,2.423 -10.336,3.351c-1.408,0.4 -3.663,1.25 -6.165,2.329c0.353,0.113 0.673,0.181 0.891,0.157c0.833,-0.093 2.732,0.139 4.678,0.093c1.945,-0.047 1.065,0.092 3.242,-0.093c2.177,-0.185 2.038,-0.278 3.427,-0.232c1.39,0.047 0.51,1.436 0.51,1.436c-0,0 -0.417,1.019 0.741,1.204c1.158,0.186 4.029,0.325 4.724,0.649c0.695,0.324 0.51,0.463 1.436,1.389c0.926,0.927 -0.046,1.112 0.185,1.853c0.232,0.741 0.88,1.204 0.741,1.992c-0.139,0.787 -0.648,1.204 -1.111,2.408c-0.463,1.204 -0.232,0.649 -0,1.529c0.231,0.88 -0.278,0.694 -0.695,1.435c-0.417,0.741 -0.509,0.556 -1.528,1.297c-1.019,0.741 -0.325,0.602 -0.186,1.575c0.139,0.973 -0.463,0.232 -1.945,0.88c-1.482,0.648 -0.509,0.509 -1.714,1.528c-1.204,1.019 -0.694,0.417 -1.297,1.529c-0.602,1.111 -0.092,0.88 -0.787,1.575c-0.695,0.694 -0.417,0.139 -1.575,0.555c-1.158,0.417 -0.139,0.232 0,1.251c0.139,1.019 -0.787,0.926 -1.806,1.343c-1.019,0.417 -0.51,0.371 -1.065,1.112c-0.556,0.741 -0.602,0.417 -1.39,0.463c-0.787,0.046 -0.787,0.185 -1.528,0.509c-0.741,0.325 -1.112,0.371 -1.621,0.556c-0.51,0.185 -0.093,0.047 -1.112,0.51c-1.019,0.463 -1.297,0.787 -1.945,1.204c-0.649,0.417 -2.223,1.019 -3.242,1.389c-1.019,0.371 -1.344,0.232 -2.409,0.649c-1.065,0.417 -1.019,1.436 -1.528,1.714c-0.51,0.277 -1.668,-0.139 -2.779,-0.325c-1.112,-0.185 -1.668,0.371 -2.362,0.047c-0.695,-0.325 -0.973,-1.436 -1.622,-1.807c-0.648,-0.37 -0.972,-0.046 -2.315,-0.741c-1.344,-0.694 -3.706,-7.086 -4.03,-8.105c-0.324,-1.019 -0.556,-0.417 -1.158,-1.158c-0.423,-0.521 -0.686,-5.314 -0.805,-8.121c-1.098,0.684 -2.033,1.26 -2.711,1.662c-1.171,0.697 -2.715,1.654 -4.381,2.636c0.482,1.163 1.205,2.921 1.485,3.654c0.436,1.141 1.41,4.161 1.544,4.967c0.134,0.805 -0.168,5.101 -0.235,5.672c-0.067,0.57 -0.47,1.678 -0.671,2.315c-0.202,0.638 0.772,2.047 1.174,2.685c0.403,0.638 3.424,3.188 4.665,3.826c1.242,0.638 2.752,0.94 4.095,1.107c1.342,0.168 0.805,0.806 0.067,0.873c-0.738,0.067 -6.914,-2.215 -8.088,-2.853c-1.175,-0.637 -3.96,-5.571 -4.33,-6.376c-0.369,-0.806 -1.409,-2.584 -1.409,-2.584c-0,-0 -0.269,0.47 -1.007,1.174c-0.738,0.705 -0.369,1.108 -0.872,1.779c-0.504,0.671 -1.343,0.873 -2.383,0.403c-1.041,-0.47 -2.484,-4.061 -2.887,-5.437c-0.247,-0.847 -0.025,-4.426 0.183,-7.054c-4.264,1.09 -13.197,1.775 -15.132,1.329c0,-0 -5.491,1.171 -9.407,1.09c-3.917,-0.081 -8.116,0.121 -10.538,-2.18c-2.423,-2.302 -2.947,-3.836 -1.978,-4.24c-0,0 -0.162,-1.009 1.13,-2.261c1.292,-1.251 3.795,-3.997 5.693,-5.087c1.898,-1.09 7.833,-4.482 9.084,-5.168c0.673,-0.369 4.424,-2.23 8.163,-4.086c0.076,-2.05 0.269,-5.912 0.67,-6.714c0.551,-1.103 2.718,-3.585 3.625,-4.295c0.906,-0.709 3.231,-2.364 2.285,-0.512c-0.946,1.852 -1.221,3.822 -1.655,5.201c-0.273,0.868 -0.436,2.624 -0.559,4.15Zm60.666,-19.909c-0,-0 -2.565,2.019 -4.312,2.947c-1.746,0.927 -5.784,2.728 -5.784,2.728c-0,0 3.383,-0.491 4.638,-0.818c1.256,-0.328 5.239,-1.692 5.239,-1.692c0,-0 0,-2.783 0.219,-3.165Zm1.637,-3.493c-0,0 -1.092,0.164 -1.31,0.873c-0.218,0.71 0.055,1.474 0.055,1.474c-0,-0 0.054,-0.601 0.491,-1.146c0.436,-0.546 0.764,-1.201 0.764,-1.201Z" style="fill:#dfffff;"/><clipPath id="_clip2"><path d="M44.55,75.123c1.455,-0.725 2.65,-1.324 3.298,-1.658c2.665,-1.372 7.672,-3.512 7.672,-3.512c-0,-0 -3.594,-5.814 -4.038,-9.932c-0.444,-4.119 -0.242,-9.287 0.162,-12.234c0.403,-2.948 0.525,-9.448 0.726,-10.457c0.202,-1.01 1.737,-2.786 2.019,-2.544c0.283,0.242 -0.848,1.252 -1.009,2.463c-0.162,1.211 0.04,12.355 0.484,13.647c0.444,1.292 3.392,5.087 5.249,5.572c1.857,0.484 3.27,4.481 3.795,6.258c0.525,1.776 2.827,5.127 2.827,5.127c-0,0 3.997,-1.897 6.096,-2.503c0,0 -1.453,-1.332 -2.947,-3.755c-1.494,-2.422 -3.513,-7.025 -3.876,-9.972c-0.364,-2.948 -0.444,-5.128 0.121,-5.532c0.565,-0.404 2.826,-1.696 4.078,-2.584c1.251,-0.888 2.382,-2.705 2.866,-2.988c0.485,-0.282 2.908,-0.928 3.513,-1.211c0.606,-0.283 2.221,-2.019 2.826,-2.099c0.606,-0.081 0.445,0.444 1.212,0.605c0.767,0.162 3.432,-0.121 4.441,-0.807c1.009,-0.687 1.857,-1.817 2.544,-1.736c0.686,0.08 1.09,0.363 2.139,0.444c1.05,0.08 1.817,-0.646 2.302,-0.566c0.484,0.081 2.14,1.131 2.907,1.171c0.767,0.041 1.696,-0.605 2.22,-0.605c0.525,-0 0.848,1.251 2.06,1.534c1.211,0.283 2.099,0.283 2.543,0.323c0.444,0.04 0.687,1.13 1.454,1.453c0.767,0.323 1.615,-0.04 1.978,0.243c0.364,0.282 0.162,2.624 1.09,2.866c0.929,0.243 1.656,0.364 1.656,0.364c-0,-0 -0.283,1.615 0.202,2.059c0.484,0.444 1.655,0.242 1.776,0.646c0.121,0.404 -0.606,2.705 -0.242,2.947c0.363,0.243 0.444,-0.08 1.211,-0.969c0.767,-0.888 2.019,-4.926 3.957,-6.662c1.938,-1.736 2.503,-3.149 3.391,-3.512c0.889,-0.364 5.047,-1.696 6.178,0.161c1.13,1.857 3.553,6.42 3.755,8.923c0.201,2.503 0.605,9.004 1.13,10.78c0.525,1.777 4.038,8.196 4.684,9.206c0.646,1.009 3.553,6.46 3.553,8.438c-0,1.979 -1.615,5.774 -4.32,5.693c-2.706,-0.081 -6.541,-1.09 -7.591,-2.099c-0,-0 -1.898,0.726 -3.069,-0.081c-1.17,-0.808 -3.431,-2.423 -4.199,-2.948c0,0 -1.009,0.646 -2.785,-0.242c-1.777,-0.888 -5.734,-3.755 -6.178,-4.32c-0.444,-0.565 -7.066,2.423 -10.336,3.351c-1.408,0.4 -3.663,1.25 -6.165,2.329c0.353,0.113 0.673,0.181 0.891,0.157c0.833,-0.093 2.732,0.139 4.678,0.093c1.945,-0.047 1.065,0.092 3.242,-0.093c2.177,-0.185 2.038,-0.278 3.427,-0.232c1.39,0.047 0.51,1.436 0.51,1.436c-0,0 -0.417,1.019 0.741,1.204c1.158,0.186 4.029,0.325 4.724,0.649c0.695,0.324 0.51,0.463 1.436,1.389c0.926,0.927 -0.046,1.112 0.185,1.853c0.232,0.741 0.88,1.204 0.741,1.992c-0.139,0.787 -0.648,1.204 -1.111,2.408c-0.463,1.204 -0.232,0.649 -0,1.529c0.231,0.88 -0.278,0.694 -0.695,1.435c-0.417,0.741 -0.509,0.556 -1.528,1.297c-1.019,0.741 -0.325,0.602 -0.186,1.575c0.139,0.973 -0.463,0.232 -1.945,0.88c-1.482,0.648 -0.509,0.509 -1.714,1.528c-1.204,1.019 -0.694,0.417 -1.297,1.529c-0.602,1.111 -0.092,0.88 -0.787,1.575c-0.695,0.694 -0.417,0.139 -1.575,0.555c-1.158,0.417 -0.139,0.232 0,1.251c0.139,1.019 -0.787,0.926 -1.806,1.343c-1.019,0.417 -0.51,0.371 -1.065,1.112c-0.556,0.741 -0.602,0.417 -1.39,0.463c-0.787,0.046 -0.787,0.185 -1.528,0.509c-0.741,0.325 -1.112,0.371 -1.621,0.556c-0.51,0.185 -0.093,0.047 -1.112,0.51c-1.019,0.463 -1.297,0.787 -1.945,1.204c-0.649,0.417 -2.223,1.019 -3.242,1.389c-1.019,0.371 -1.344,0.232 -2.409,0.649c-1.065,0.417 -1.019,1.436 -1.528,1.714c-0.51,0.277 -1.668,-0.139 -2.779,-0.325c-1.112,-0.185 -1.668,0.371 -2.362,0.047c-0.695,-0.325 -0.973,-1.436 -1.622,-1.807c-0.648,-0.37 -0.972,-0.046 -2.315,-0.741c-1.344,-0.694 -3.706,-7.086 -4.03,-8.105c-0.324,-1.019 -0.556,-0.417 -1.158,-1.158c-0.423,-0.521 -0.686,-5.314 -0.805,-8.121c-1.098,0.684 -2.033,1.26 -2.711,1.662c-1.171,0.697 -2.715,1.654 -4.381,2.636c0.482,1.163 1.205,2.921 1.485,3.654c0.436,1.141 1.41,4.161 1.544,4.967c0.134,0.805 -0.168,5.101 -0.235,5.672c-0.067,0.57 -0.47,1.678 -0.671,2.315c-0.202,0.638 0.772,2.047 1.174,2.685c0.403,0.638 3.424,3.188 4.665,3.826c1.242,0.638 2.752,0.94 4.095,1.107c1.342,0.168 0.805,0.806 0.067,0.873c-0.738,0.067 -6.914,-2.215 -8.088,-2.853c-1.175,-0.637 -3.96,-5.571 -4.33,-6.376c-0.369,-0.806 -1.409,-2.584 -1.409,-2.584c-0,-0 -0.269,0.47 -1.007,1.174c-0.738,0.705 -0.369,1.108 -0.872,1.779c-0.504,0.671 -1.343,0.873 -2.383,0.403c-1.041,-0.47 -2.484,-4.061 -2.887,-5.437c-0.247,-0.847 -0.025,-4.426 0.183,-7.054c-4.264,1.09 -13.197,1.775 -15.132,1.329c0,-0 -5.491,1.171 -9.407,1.09c-3.917,-0.081 -8.116,0.121 -10.538,-2.18c-2.423,-2.302 -2.947,-3.836 -1.978,-4.24c-0,0 -0.162,-1.009 1.13,-2.261c1.292,-1.251 3.795,-3.997 5.693,-5.087c1.898,-1.09 7.833,-4.482 9.084,-5.168c0.673,-0.369 4.424,-2.23 8.163,-4.086c0.076,-2.05 0.269,-5.912 0.67,-6.714c0.551,-1.103 2.718,-3.585 3.625,-4.295c0.906,-0.709 3.231,-2.364 2.285,-0.512c-0.946,1.852 -1.221,3.822 -1.655,5.201c-0.273,0.868 -0.436,2.624 -0.559,4.15Zm60.666,-19.909c-0,-0 -2.565,2.019 -4.312,2.947c-1.746,0.927 -5.784,2.728 -5.784,2.728c-0,0 3.383,-0.491 4.638,-0.818c1.256,-0.328 5.239,-1.692 5.239,-1.692c0,-0 0,-2.783 0.219,-3.165Zm1.637,-3.493c-0,0 -1.092,0.164 -1.31,0.873c-0.218,0.71 0.055,1.474 0.055,1.474c-0,-0 0.054,-0.601 0.491,-1.146c0.436,-0.546 0.764,-1.201 0.764,-1.201Z"/></clipPath><g clip-path="url(#_clip2)"><path d="M39.056,82.692c1.284,-1.73 4.019,-5.332 5.029,-6.045c1.339,-0.945 2.285,-1.733 2.876,-1.655c0.591,0.079 1.261,1.537 -0.512,2.483c-1.551,0.827 -5.483,3.04 -7.393,5.217c-0.42,0.565 -0.685,0.93 -0.685,0.93c0.178,-0.307 0.41,-0.618 0.685,-0.93Zm7.826,-10.143c0,0 -2.533,4.263 -8.905,5.28c-7.32,1.17 7.843,-15.867 9.378,-15.13c0.742,2.278 0.572,5.575 -0.473,9.85Z" style="fill:#f3da13;"/><path d="M44.199,101.763c-10.706,1.037 -32.397,2.898 -26.257,0.3c8.066,-3.412 8.872,-5.894 8.128,-9.182c-0.745,-3.288 -13.029,-11.602 -13.029,-11.602l5.708,-3.288c-0,-0 7.755,4.963 11.664,5.956c3.908,0.993 6.142,1.861 9.616,8.065c1.9,3.393 4.653,5.821 6.758,7.324c0.516,-0.354 1.011,-0.819 1.432,-1.43c1.923,-2.792 4.901,-4.653 7.693,-4.529c2.792,0.124 6.948,1.117 5.77,1.737c-1.143,0.602 -9.586,2.438 -12.966,5.476c0.69,0.404 1.116,0.605 1.116,0.605c-0,-0 -0.746,0.079 -2.012,0.209c-1.475,1.146 -2.735,0.892 -3.621,0.359Z" style="fill:url(#_Radial3);"/><path d="M68.871,89.431c-0,-0 2.874,-2.118 4.402,-3.373c1.528,-1.255 2.637,-1.212 4.602,-2.467c1.965,-1.255 3.22,-2.237 4.257,-2.892c1.036,-0.655 1.146,-0.764 2.728,-1.583c1.583,-0.818 2.729,-1.473 3.329,-1.691c0.6,-0.219 2.238,-1.037 4.093,-1.583c1.856,-0.546 2.729,0.055 4.311,-0.109c1.583,-0.164 3.438,-0.055 4.857,-0.164c1.419,-0.109 3.002,0 3.002,0l-0.764,2.62c-0,-0 -0.055,0.655 1.037,0.982c1.091,0.327 2.019,0.218 3.165,0.655c1.146,0.436 0.655,0.491 1.91,1.091c1.255,0.601 1.364,-0.382 1.801,0.655c0.436,1.037 0.6,1.965 0.6,1.965c-0,-0 -0.655,0.873 -0.655,1.528c0,0.655 0.218,0.655 0.109,1.419c-0.109,0.764 0.273,0.764 -0.818,1.309c-1.092,0.546 -1.801,2.183 -1.801,2.183c-0,0 0.054,0.055 -0.437,0.655c-0.491,0.6 -0.6,1.31 -0.873,1.856c-0.273,0.545 0.109,0.491 -1.091,1.2c-1.201,0.71 -1.692,1.747 -1.91,2.183c-0.219,0.437 -0.928,0 -2.02,1.092c-1.091,1.091 0.983,0.818 0.164,1.2c-0.818,0.382 -1.473,0.764 -1.855,1.092c-0.382,0.327 -0.219,1.2 -1.092,1.746c-0.873,0.546 -1.037,0.164 -2.019,0.928c-0.982,0.764 0.437,0.764 -0.327,0.927c-0.764,0.164 -1.856,0.819 -2.565,1.037c-0.71,0.219 -0.71,0.437 -2.129,0.764c-1.419,0.328 -1.91,0.273 -3.001,0.655c-1.092,0.382 -0.6,0.328 -1.583,0.6c-0.982,0.273 -0.6,0.328 -2.183,1.31c-1.582,0.982 -1.637,0.982 -2.51,1.419c-0.873,0.437 -1.746,-0.055 -2.783,-0.109c-1.037,-0.055 -0.71,0.709 -1.474,-0c-0.764,-0.71 -0.709,-1.419 -2.019,-1.474c-1.309,-0.054 -1.146,0.874 -2.074,-0.163c-0.927,-1.037 -1.528,-1.528 -2.019,-2.565c-0.491,-1.037 -0.655,-2.893 -1.091,-3.929c-0.437,-1.037 -0.491,-1.201 -0.928,-2.02c-0.436,-0.818 -1.637,-0.927 -1.801,-1.691c-0.163,-0.764 -1.037,-2.674 -0.982,-3.548c0.055,-0.873 -0.382,-2.783 0.437,-3.71Zm-14.298,-35.854c-0,-0 2.674,2.783 3.492,3.274c0.819,0.491 0.491,-0.109 2.019,2.128c1.528,2.238 3.875,7.64 4.202,8.568c0.328,0.928 -6.876,2.456 -6.876,2.456c0,-0 -0.491,-0.873 -1.037,-3.056c-0.545,-2.183 -1.473,-5.785 -1.691,-7.695c-0.219,-1.91 -0.273,-4.802 -0.109,-5.675Zm18.39,11.569c0,-0 -3.983,-4.148 -5.348,-7.804c-1.364,-3.656 -2.892,-9.441 -1.855,-10.642c1.037,-1.2 5.512,-4.857 7.094,-5.566c1.583,-0.709 4.039,-2.51 5.785,-2.565c1.746,-0.054 6.058,-1.255 7.094,-2.074c1.037,-0.818 1.365,-0.382 1.965,-0.327c0.6,0.055 2.674,-0.764 3.383,-0.382c0.71,0.382 1.092,0.709 2.129,0.982c1.037,0.273 3.165,-0.163 3.656,0.164c0.491,0.327 1.146,1.091 2.292,1.255c1.146,0.164 1.364,0.546 1.965,1.146c0.6,0.6 0.873,0.6 1.528,0.819c0.655,0.218 0.873,-0.109 1.31,1.091c0.436,1.201 0.436,0.928 1.2,1.583c0.764,0.655 0.982,0.273 1.255,1.255c0.273,0.982 0.601,1.473 0.601,1.473c-0,0 0.382,-0.327 0.654,0.382c0.273,0.71 0.437,0.601 0.164,1.638c-0.273,1.036 0.6,0.982 -0.382,1.964c-0.982,0.982 -2.456,1.419 -2.565,2.019c-0.109,0.601 0.219,0.437 -0.054,1.692c-0.273,1.255 1.091,1.146 -1.31,2.565c-2.401,1.419 -6.767,4.038 -9.932,4.966c-3.165,0.928 -9.714,3.002 -12.006,3.493c-2.292,0.491 -2.401,0.545 -2.401,0.545l-6.331,0.928l0.109,-0.6Z" style="fill:#74977f;"/><path d="M74.316,104.49c-0.169,-0.38 -0.052,-0.669 0.181,-0.778c0.233,-0.11 0.582,-0.041 0.88,0.294c0.596,0.67 -0.837,0.986 -1.061,0.484Zm8.524,0.167c-0.241,-0.039 -0.371,-0.248 -0.362,-0.45c0.009,-0.202 0.157,-0.396 0.473,-0.406c0.633,-0.018 0.689,0.987 -0.111,0.856Zm-6.588,-1.153c-0.164,-0.1 -0.196,-0.291 -0.118,-0.438c0.078,-0.147 0.267,-0.251 0.546,-0.176c0.558,0.148 -0,0.874 -0.428,0.614Zm3.684,-1.34c0.268,0.35 0.64,0.425 0.861,0.307c0.222,-0.118 0.293,-0.428 -0.042,-0.847c-0.67,-0.837 -1.116,0.149 -0.819,0.54Zm3.239,0.13c0.286,0.313 1.191,-0.242 1.06,-0.726c-0.13,-0.484 -0.651,-0.725 -1.005,-0.409c-0.353,0.316 -0.26,0.912 -0.055,1.135Zm3.479,-0.335c0.194,0.299 0.455,0.331 0.632,0.189c0.177,-0.142 0.271,-0.459 0.131,-0.859c-0.279,-0.8 -1.451,-0.391 -0.763,0.67Zm-13.454,0.019c-0.503,-0.484 -0.037,-1.303 0.54,-1.21c0.576,0.093 0.669,0.614 0.372,0.968c-0.298,0.353 -0.41,0.726 -0.912,0.242Zm3.536,-0.112c-0.469,-0.117 -0.54,-0.893 -0.205,-1.265c0.335,-0.373 0.856,-0.112 0.949,0.223c0.093,0.335 -0.242,0.372 -0.409,0.521c-0.168,0.149 -0.112,0.577 -0.335,0.521Zm13.082,-0.372c0.12,0.336 0.381,0.35 0.574,0.178c0.193,-0.173 0.319,-0.532 0.17,-0.941c-0.297,-0.819 -1.023,-0.019 -0.744,0.763Zm6.048,-0.261c0.315,0.441 0.875,-0.037 0.782,-0.409c-0.093,-0.372 -0.354,-0.633 -0.856,-0.447c-0.503,0.186 -0.112,0.596 0.074,0.856Zm-12.933,-0.912c0.562,-0.028 0.558,-1.004 0.316,-1.265c-0.242,-0.261 -0.67,-0.112 -0.819,0.335c-0.149,0.447 0.13,0.949 0.503,0.93Zm9.472,-1.674c0.634,0.41 0.539,1.302 -0.019,1.284c-0.558,-0.019 -1.302,-0.521 -1.284,-1.098c0.019,-0.577 0.67,-0.596 1.303,-0.186Zm-5.248,0.986c0.11,0.195 0.371,0.111 0.571,-0.082c0.201,-0.193 0.341,-0.495 0.211,-0.737c-0.261,-0.484 -1.098,0.261 -0.782,0.819Zm-7.332,-0.149c-0.398,-0.142 -0.385,-0.514 -0.183,-0.763c0.202,-0.248 0.592,-0.372 0.946,-0.019c0.707,0.708 -0.503,0.875 -0.763,0.782Zm5.322,-1.489c-0.009,0.279 0.168,0.61 0.389,0.733c0.221,0.123 0.486,0.04 0.653,-0.509c0.335,-1.098 -1.005,-1.415 -1.042,-0.224Zm-10.738,-0.037c-0.021,-0.353 0.273,-0.623 0.592,-0.714c0.319,-0.091 0.665,-0.002 0.748,0.36c0.168,0.726 -1.247,1.917 -1.34,0.354Zm22.425,0.465c0.19,0.228 0.595,0.177 0.866,-0.033c0.271,-0.211 0.409,-0.581 0.064,-0.99c-0.688,-0.819 -1.302,0.577 -0.93,1.023Zm-24.267,-1.786c-0.168,-0.144 -0.419,0.019 -0.573,0.262c-0.153,0.243 -0.208,0.566 0.015,0.743c0.446,0.353 1.061,-0.577 0.558,-1.005Zm5.267,0.632c0.397,0.486 0.76,0.296 0.975,-0.056c0.214,-0.352 0.281,-0.865 0.085,-1.023c-0.39,-0.316 -1.73,0.261 -1.06,1.079Zm15.65,0.056c0.112,0.261 0.424,0.126 0.652,-0.155c0.227,-0.282 0.372,-0.71 0.148,-1.036c-0.446,-0.651 -1.246,0.149 -0.8,1.191Zm-6.085,-1.972c0.123,-0.263 0.612,-0.133 1.018,0.163c0.407,0.296 0.731,0.758 0.526,1.158c-0.409,0.8 -1.823,-0.726 -1.544,-1.321Zm13.306,1.358c0.404,-0.12 0.055,-1.284 -0.317,-1.377c-0.372,-0.093 -1.098,0.465 -0.8,0.856c0.298,0.391 0.614,0.67 1.117,0.521Zm-18.014,-0.316c0.113,0.26 0.43,0.344 0.697,0.186c0.267,-0.158 0.484,-0.558 0.401,-1.265c-0.168,-1.415 -1.415,0.353 -1.098,1.079Zm8.318,-0.54c0.024,0.229 0.229,0.229 0.416,0.056c0.187,-0.174 0.356,-0.521 0.31,-0.986c-0.093,-0.931 -0.8,0.223 -0.726,0.93Zm-19.558,-1.023c0.129,-0.453 -0.987,-0.614 -1.21,-0.186c-0.223,0.428 0.037,1.172 0.502,1.246c0.466,0.075 0.67,-0.93 0.708,-1.06Zm1.172,0.242c-0.227,-0.36 -0.055,-0.737 0.237,-0.908c0.292,-0.17 0.703,-0.135 0.954,0.331c0.502,0.93 -0.651,1.433 -1.191,0.577Zm31.71,0.204c0.237,0.153 0.503,-1.191 0.056,-1.433c-0.446,-0.242 -1.191,0.075 -0.912,0.559c0.28,0.483 0.503,0.223 0.615,0.409c0.095,0.16 -0.019,0.298 0.241,0.465Zm-8.634,-0.13c0.632,0.502 0.67,-0.893 0.744,-1.098c0.074,-0.205 0.931,-1.377 0.242,-1.675c-0.689,-0.298 -0.67,0.949 -0.763,1.228c-0.093,0.28 -0.856,1.043 -0.223,1.545Zm-18.405,-0.019c0.205,0.15 0.419,-0.153 0.545,-0.499c0.125,-0.347 0.162,-0.738 0.013,-0.766c-0.298,-0.056 -0.967,0.968 -0.558,1.265Zm16.637,-0.558c0.391,0.391 0.874,0.428 0.93,-0.037c0.056,-0.465 -0.111,-0.819 -0.502,-0.744c-0.391,0.074 -0.689,0.521 -0.428,0.781Zm-12.431,-0.837c0.177,0.177 0.21,0.578 0.077,0.845c-0.133,0.267 -0.431,0.402 -0.915,0.048c-0.967,-0.707 0.075,-1.656 0.838,-0.893Zm7.983,0.707c0.164,0.334 0.438,0.269 0.623,0.039c0.185,-0.23 0.28,-0.625 0.084,-0.951c-0.391,-0.651 -1.191,-0.074 -0.707,0.912Zm18.043,-22.818c-0,0 2.782,-2.482 4.921,-2.353c2.14,0.128 1.37,-0.814 0.385,-0.942c-0.984,-0.128 -10.955,2.183 -12.025,2.696c-1.07,0.514 -12.454,4.879 -15.621,6.719c-3.166,1.84 -7.574,4.322 -10.099,5.949c-2.525,1.626 -7.276,4.579 -8.388,5.991c-1.113,1.412 -4.994,3.831 -5.807,4.173c-0.813,0.342 -0.637,0.73 2.147,-0.672c3.224,-1.623 4.315,-2.186 5.172,-3.116c1.003,-1.089 7.603,-5.007 10.128,-6.633c2.525,-1.626 11.041,-6.205 13.096,-6.976c2.054,-0.77 16.091,-4.836 16.091,-4.836Zm-22.1,20.864c0.198,-0.212 0.598,-0.156 0.907,0.059c0.309,0.216 0.526,0.592 0.359,1.02c-0.335,0.856 -1.768,-0.539 -1.266,-1.079Zm-10.123,1.191c0.312,0.062 0.535,-0.384 0.571,-0.856c0.036,-0.471 -0.115,-0.968 -0.553,-1.005c-0.874,-0.075 -0.67,1.731 -0.018,1.861Zm24.601,-0.205c0.307,0.46 1.396,0.037 1.266,-0.577c-0.13,-0.614 -1.024,-1.023 -1.284,-0.614c-0.261,0.41 -0.205,0.856 0.018,1.191Zm-9.007,-0.465c0.233,0.298 0.587,0.279 0.777,0.093c0.191,-0.186 0.219,-0.54 -0.2,-0.912c-0.837,-0.744 -1.377,-0.205 -0.577,0.819Zm15.967,-0.968c0.322,0.094 -0.037,1.173 -0.39,0.931c-0.354,-0.242 -0.577,-0.707 -0.261,-0.8c0.316,-0.094 0.205,-0.261 0.651,-0.131Zm-28.584,0.317c0.521,0.576 1.303,0.242 0.949,-0.968c-0.353,-1.21 -1.005,-0.093 -1.005,0.093c0,0.186 -0.465,0.298 0.056,0.875Zm25.235,0.055c-0.168,-0.281 -0.159,-0.719 0.011,-1.009c0.17,-0.29 0.5,-0.433 0.975,-0.126c0.949,0.614 -0.577,1.824 -0.986,1.135Zm-19.819,-1.246c0.266,-0.207 0.685,-0.249 0.967,-0.102c0.282,0.147 0.428,0.483 0.149,1.032c-0.558,1.098 -1.861,-0.354 -1.116,-0.93Zm-39.347,-0.812c-0,-0 0.089,0.364 0.145,0.76c0.057,0.396 0.081,0.825 -0.048,0.954c-0.259,0.259 -0.388,-1.585 -0.097,-1.714Zm28.2,1.612c0.344,-0 0.414,-0.396 0.362,-0.786c-0.051,-0.391 -0.223,-0.777 -0.362,-0.759c-0.28,0.037 -0.968,1.545 -0,1.545Zm-1.005,-2.438c-0.5,-0.595 -0.745,0.54 -0.894,0.651c-0.149,0.112 -1.172,1.024 -0.614,1.415c0.559,0.39 0.652,-0.912 0.838,-1.005c0.186,-0.093 1.06,-0.596 0.67,-1.061Zm22.74,2.028c0.477,-0.019 0.112,-1.674 -0.465,-1.73c-0.577,-0.056 -0.912,0.893 -0.521,1.377c0.391,0.484 0.54,0.372 0.986,0.353Zm-44.662,-2.367c0.196,-0.018 -0.065,1.068 0.065,1.359c0.129,0.291 0.647,0.873 0.356,0.97c-0.292,0.097 -0.745,-0.679 -0.777,-1.197c-0.032,-0.517 0,-1.1 0.356,-1.132Zm-2.459,1.262c0,-0 0.089,0.259 0.142,0.521c0.052,0.263 0.069,0.53 -0.077,0.546c-0.291,0.033 -0.42,-1.003 -0.065,-1.067Zm53.114,0.622c0.044,0.209 0.258,0.149 0.393,-0.027c0.136,-0.176 0.193,-0.467 -0.077,-0.718c-0.54,-0.502 -0.391,0.391 -0.316,0.745Zm-48.132,-2.207c0,-0 0.194,0.582 0.453,1.067c0.259,0.485 0.518,1.197 0.227,1.229c-0.291,0.033 -0.68,-0.711 -0.712,-1.197c-0.032,-0.485 -0.291,-0.582 0.032,-1.099Zm38.752,2.058c0.122,0.065 0.378,-0.154 0.559,-0.424c0.182,-0.269 0.288,-0.591 0.111,-0.73c-0.353,-0.279 -1.191,0.875 -0.67,1.154Zm5.937,-0.112c0.308,0.308 1.209,-0.074 1.172,-0.502c-0.037,-0.428 -0.67,-0.801 -1.228,-0.652c-0.558,0.149 -0.149,0.949 0.056,1.154Zm-7.779,-0.465c0.922,-0.922 -0.893,-0.875 -1.005,-1.061c-0.111,-0.186 -0.502,-1.563 -1.47,-0.893c-0.968,0.67 0.819,1.116 0.986,1.247c0.168,0.13 0.875,1.321 1.489,0.707Zm-8.542,-0.428c0.818,0.765 1.396,0.074 1.08,-0.484c-0.317,-0.558 -0.689,-0.949 -1.154,-0.912c-0.465,0.037 -0.8,0.577 0.074,1.396Zm-3.535,0.093c0.09,0.121 0.277,0.061 0.4,-0.081c0.124,-0.142 0.186,-0.366 0.028,-0.571c-0.317,-0.409 -0.708,0.28 -0.428,0.652Zm-21.921,-1.826c0.357,-0.159 0.97,1.65 0.647,1.747l-0.324,0.097c0,0 -0.614,-1.714 -0.323,-1.844Zm52.775,1.733c0.088,0.111 0.283,0.06 0.41,-0.047c0.127,-0.107 0.186,-0.27 -0.001,-0.381c-0.372,-0.224 -0.688,0.074 -0.409,0.428Zm-34.316,-0.372c-0.463,0.08 -0.391,-0.41 -0.037,-0.931c0.354,-0.521 0.782,-0.614 0.819,-0.074c0.037,0.539 -0.354,0.93 -0.782,1.005Zm31.245,-0.038c-0.372,-0.011 -0.781,-1.191 -0.335,-1.395c0.447,-0.205 0.838,0.037 1.08,0.372c0.242,0.335 -0.112,1.042 -0.745,1.023Zm-61.965,-4.364c0,0 -0.372,0.518 -0.518,1.306c-0.145,0.789 -0.064,1.848 0.842,2.932c-0,0 -0.712,-2.685 -0.324,-4.238Zm2.426,-0.259c0,0 -0.38,0.518 -0.554,1.311c-0.174,0.792 -0.141,1.86 0.684,2.96c-0,-0 -0.518,-2.718 -0.13,-4.271Zm2.491,-0.549c0,-0 -0.428,0.509 -0.582,1.33c-0.154,0.821 -0.032,1.953 1.068,3.199c-0,-0 -0.874,-2.977 -0.486,-4.529Zm47.558,4.279c0.16,0.32 1.377,0.186 1.302,-0.428c-0.074,-0.614 -0.558,-0.986 -1.005,-0.763c-0.446,0.223 -0.372,1.042 -0.297,1.191Zm5.508,0.149c-0.652,-0 -1.172,-0.912 -0.614,-1.079c0.558,-0.168 1.563,-0.075 1.507,0.502c-0.056,0.577 -0.632,0.577 -0.893,0.577Zm-42.603,-1.447c0.216,-0.148 0.433,0.151 0.571,0.505c0.139,0.355 0.197,0.764 0.096,0.836c-0.377,0.265 -1.343,-0.877 -0.667,-1.341Zm-7.713,-3.273c0,0 -0.453,0.421 -0.59,1.185c-0.138,0.764 0.04,1.872 1.302,3.247c-0,0 -1.1,-2.879 -0.712,-4.432Zm56.383,4.199c-0.545,-0 -1.266,-0.782 -0.838,-1.098c0.428,-0.316 1.117,-0.261 1.173,0.26c0.056,0.522 -0,0.838 -0.335,0.838Zm-54.083,-4.467c0,0 -0.284,0.602 -0.224,1.435c0.06,0.833 0.466,1.897 1.847,2.822c-0,-0 -1.603,-2.656 -1.623,-4.257Zm8.421,2.538c0.216,-0.148 0.442,0.151 0.588,0.506c0.146,0.354 0.213,0.763 0.112,0.835c-0.377,0.265 -1.376,-0.877 -0.7,-1.341Zm22.642,1.333c0.558,-0.119 0.585,-0.501 0.344,-0.808c-0.242,-0.307 -0.754,-0.541 -1.275,-0.364c-1.042,0.354 -0.111,1.396 0.931,1.172Zm7.872,-0.279c-0.043,0.38 1.433,0.279 1.358,-0.335c-0.074,-0.614 -0.633,-0.781 -0.986,-0.595c-0.354,0.186 -0.335,0.595 -0.372,0.93Zm-2.457,-0.744c0.457,0.294 1.191,-0.316 0.912,-0.856c-0.279,-0.54 -1.098,-0.503 -1.117,-0.112c-0.018,0.391 -0.055,0.8 0.205,0.968Zm-11.668,-0.484c0.09,-0.075 0.308,-0.042 0.456,0.049c0.147,0.091 0.223,0.239 0.028,0.398c-0.391,0.316 -0.819,-0.168 -0.484,-0.447Zm-13.445,-0.796c0.216,-0.148 0.49,0.086 0.685,0.376c0.195,0.289 0.31,0.634 0.209,0.705c-0.377,0.266 -1.57,-0.617 -0.894,-1.081Zm-8.554,-1.753c0.164,-0.093 0.423,0.602 0.625,1.329c0.201,0.727 0.346,1.486 0.281,1.518c-0.129,0.065 -1.358,-2.588 -0.906,-2.847Zm50.918,2.382c-0.431,-0.014 -1.433,-0.745 -0.744,-1.136c0.688,-0.39 1.135,-0.335 1.358,0.149c0.224,0.484 -0.018,1.005 -0.614,0.987Zm-2.68,-0.019c-0.297,0.005 -0.642,-0.316 -0.718,-0.659c-0.077,-0.343 0.114,-0.709 0.886,-0.793c1.544,-0.167 0.875,1.433 -0.168,1.452Zm-3.573,-0.074c-0.576,0.025 -0.99,-0.399 -1.041,-0.849c-0.052,-0.451 0.26,-0.929 1.134,-1.012c1.75,-0.168 1.191,1.805 -0.093,1.861Zm-58.931,-4.812c-0,0 -0.429,0.51 -0.582,1.331c-0.154,0.82 -0.033,1.953 1.067,3.198c0,0 -0.873,-2.976 -0.485,-4.529Zm17.372,1.585c0.16,-0.1 0.419,0.596 0.621,1.324c0.203,0.729 0.35,1.491 0.285,1.523c-0.13,0.065 -1.165,-2.685 -0.906,-2.847Zm25.927,2.184c0.172,0.571 1.564,0.354 1.508,-0.335c-0.056,-0.688 -0.614,-0.874 -1.005,-0.632c-0.391,0.242 -0.614,0.595 -0.503,0.967Zm-41.164,-4.222c0,0 -0.429,0.51 -0.582,1.331c-0.154,0.821 -0.033,1.953 1.067,3.198c0,0 -0.873,-2.976 -0.485,-4.529Zm23.661,3.597c0.217,-0.149 0.377,0.013 0.459,0.23c0.081,0.217 0.083,0.488 -0.018,0.56c-0.376,0.265 -1.116,-0.326 -0.441,-0.79Zm27.59,0.253c-0.361,-0.561 0.595,-1.358 1.247,-0.967c0.651,0.39 0.539,0.893 0.055,1.191c-0.483,0.297 -0.967,0.297 -1.302,-0.224Zm-33.038,-2.782c0.16,-0.1 0.419,0.595 0.622,1.324c0.202,0.729 0.349,1.49 0.284,1.523c-0.129,0.064 -1.165,-2.685 -0.906,-2.847Zm64.585,-35.023c0.103,-0.715 -0.34,-2.099 -0.506,-2.689c-0.491,-1.747 -1.146,-4.803 -2.565,-6.331c-1.419,-1.528 -5.621,-2.674 -5.621,-2.674c33.53,-4.926 38.661,45.672 13.479,49.552c0,0 1.638,-3.383 3.056,-5.566c1.419,-2.183 0.382,-1.583 0.492,-3.166c0.109,-1.582 -0.764,-5.948 -1.092,-7.258c-0.327,-1.309 -0.982,-2.128 -1.964,-2.674c-0.162,-0.09 -0.311,-0.193 -0.449,-0.307c-2.203,-0.304 -1.717,-0.889 -1.717,-0.889c0.313,0.193 0.675,0.242 1.062,0.19c-0.27,-0.355 -0.508,-0.749 -0.759,-1.146c-0.55,-0.136 -0.815,-0.353 -0.512,-0.485c0.044,-0.019 0.092,-0.048 0.144,-0.086c-0.526,-0.836 -1.424,-2.576 -1.942,-3.957c-0.066,-0.039 -0.089,-0.072 -0.06,-0.092c0.005,-0.004 0.011,-0.009 0.02,-0.016c-0.147,-0.402 -0.259,-0.769 -0.317,-1.07c-0.004,-0.023 -0.009,-0.047 -0.013,-0.071c-0.243,0.045 -0.37,0.034 -0.296,-0.055c0.044,-0.053 0.129,-0.159 0.24,-0.301c-0.085,-0.616 -0.133,-1.378 -0.158,-2.154c-0.503,0.045 -0.848,0.023 -0.688,-0.113c0.114,-0.097 0.366,-0.351 0.672,-0.664c-0.005,-0.407 -0.005,-0.806 0,-1.177c-0.919,0.24 -1.77,0.401 -1.528,0.232c0.272,-0.189 0.985,-1.02 1.553,-1.706c-0.01,-0.407 -0.043,-0.938 -0.093,-1.537c-0.398,0.117 -0.641,0.11 -0.437,-0.077c0.117,-0.107 0.25,-0.283 0.386,-0.491c-0.062,-0.653 0.141,-2.056 -0.229,-2.056c-0.141,-0 -1.394,0.526 -1.284,0.438c0.102,-0.082 1.033,-0.957 1.126,-1.604Zm-15.897,37.842c-0.523,0.053 -0.775,-0.273 -0.772,-0.591c0.003,-0.318 0.261,-0.628 0.754,-0.544c0.986,0.168 1.135,1.024 0.018,1.135Zm-5.154,-21.035c1.729,-0.768 3.217,-1.325 4.155,-1.252c0.779,0.061 1.076,0.745 1.076,1.159c0,0.415 0.125,1.201 -0.538,1.077c-0.662,-0.124 -1.159,-0.787 -2.65,-0.58c-0.366,0.051 -0.983,0.225 -1.731,0.466c-0.028,0.195 -0.119,0.349 -0.285,0.365c-0.154,0.014 -0.305,-0.037 -0.427,-0.129c-0.702,0.239 -1.474,0.515 -2.242,0.794c-0.012,0.235 -0.104,0.434 -0.294,0.452c-0.175,0.017 -0.348,-0.052 -0.478,-0.169c-0.619,0.227 -1.218,0.449 -1.756,0.645c-0.025,0.203 -0.116,0.366 -0.287,0.382c-0.151,0.014 -0.3,-0.035 -0.422,-0.124c-0.39,0.141 -0.724,0.258 -0.98,0.341c-0.186,0.06 -0.511,0.159 -0.954,0.289c-0.006,0.247 -0.097,0.463 -0.295,0.482c-0.208,0.019 -0.411,-0.081 -0.544,-0.238c-0.567,0.163 -1.241,0.356 -1.998,0.572c-0.018,0.22 -0.11,0.402 -0.291,0.419c-0.188,0.018 -0.372,-0.062 -0.503,-0.193c-0.633,0.18 -1.312,0.372 -2.027,0.575c-0.035,0.174 -0.124,0.306 -0.278,0.32c-0.15,0.014 -0.298,-0.034 -0.419,-0.122l-2.05,0.581c-0.029,0.215 -0.12,0.383 -0.286,0.399c-0.166,0.016 -0.331,-0.061 -0.458,-0.188l-2.132,0.606c-0.044,0.172 -0.131,0.297 -0.269,0.31c-0.131,0.012 -0.258,-0.038 -0.367,-0.128l-2.024,0.578c0.053,0.359 -0.006,0.698 -0.234,0.719c-0.242,0.023 -0.509,-0.183 -0.668,-0.461c-0.684,0.197 -1.366,0.393 -2.04,0.587c-0.033,0.185 -0.123,0.327 -0.281,0.342c-0.155,0.015 -0.308,-0.04 -0.431,-0.136c-0.686,0.199 -1.363,0.395 -2.023,0.588c0.018,0.357 -0.072,0.696 -0.301,0.718c-0.243,0.023 -0.476,-0.181 -0.595,-0.455l-1.877,0.554c0.023,0.379 -0.07,0.742 -0.309,0.759c-0.232,0.016 -0.449,-0.208 -0.567,-0.497l-1.901,0.58c0.002,0.005 0.004,0.01 0.005,0.015c0.141,0.416 0.137,0.871 -0.136,0.889c-0.27,0.018 -0.596,-0.279 -0.77,-0.624l-2.23,0.702c0.103,0.55 0.076,1.094 -0.171,1.118c-0.256,0.024 -0.563,-0.363 -0.743,-0.829l-2.331,0.742c0.206,1.137 0.345,1.594 0.345,1.594c-0.64,-0.472 -0.956,-0.937 -1.084,-1.359l-2.16,0.686c0.346,1.442 1.034,2.519 1.034,2.519c-1.284,-0.656 -1.817,-1.457 -1.965,-2.225c-0.75,0.236 -1.501,0.472 -2.247,0.705c0.216,1.324 0.703,2.299 0.703,2.299c-0.825,-0.698 -1.225,-1.418 -1.375,-2.09c-0.831,0.257 -1.654,0.51 -2.459,0.754c0.414,1.561 1.157,2.714 1.157,2.714c-1.136,-0.758 -1.639,-1.663 -1.815,-2.515l-2.38,0.702c0.28,1.614 1.024,2.931 1.024,2.931c-0.933,-1.082 -1.392,-2.007 -1.576,-2.773c-0.765,0.218 -1.498,0.422 -2.19,0.606c0.335,1.678 1.219,3.076 1.219,3.076c-1.005,-1.163 -1.483,-2.152 -1.671,-2.957c-0.719,0.188 -1.389,0.353 -1.999,0.491c0.17,1.59 0.707,2.882 0.707,2.882c-0.905,-1.048 -1.328,-1.956 -1.474,-2.717c-0.709,0.145 -1.313,0.242 -1.787,0.282c0.057,1.28 0.558,2.383 0.558,2.383c-1.053,-1.286 -1.157,-2.222 -0.998,-2.836c0.16,-0.614 0.582,-0.907 0.582,-0.907c-0.12,0.425 -0.157,0.865 -0.144,1.288c0.351,-0.105 0.986,-0.296 1.744,-0.521c-0.042,-0.42 0.001,-0.79 0.089,-1.108c0.26,-0.939 0.91,-1.426 0.91,-1.426c-0.226,0.749 -0.27,1.549 -0.22,2.302c0.633,-0.188 1.308,-0.387 1.953,-0.575c-0.029,-0.258 -0.027,-0.492 -0.004,-0.704c0.097,-0.932 0.584,-1.413 0.584,-1.413c-0.195,0.646 -0.21,1.328 -0.127,1.984c0.331,-0.096 0.649,-0.188 0.943,-0.271c0.251,-0.072 0.676,-0.199 1.238,-0.369c-0.029,-0.302 -0.015,-0.574 0.026,-0.814c0.156,-0.92 0.701,-1.388 0.701,-1.388c-0.2,0.664 -0.228,1.362 -0.16,2.029c0.671,-0.204 1.479,-0.452 2.381,-0.729c-0.009,-0.154 -0.009,-0.303 -0.001,-0.448c0.055,-1.092 0.51,-1.917 0.51,-1.917c-0.1,0.746 -0.042,1.491 0.095,2.179c0.786,-0.243 1.632,-0.503 2.512,-0.775c-0.011,-0.297 0.022,-0.579 0.08,-0.839c0.217,-0.981 0.796,-1.657 0.796,-1.657c-0.235,0.776 -0.268,1.567 -0.203,2.288l2.273,-0.701c0.004,-0.15 0.02,-0.298 0.045,-0.44c0.178,-1.017 0.822,-1.797 0.822,-1.797c-0.126,0.671 -0.102,1.344 0.001,1.969c0.737,-0.228 1.474,-0.455 2.198,-0.678c0.003,-0.103 0.016,-0.203 0.036,-0.297c0.123,-0.584 0.52,-0.968 0.52,-0.968c0.057,0.388 0.112,0.735 0.164,1.044l2.292,-0.704c-0.062,-0.39 -0.003,-0.76 0.273,-0.938c0.256,-0.164 0.497,0.186 0.652,0.655c0.809,-0.247 1.559,-0.475 2.224,-0.676c-0.007,-0.206 0.076,-0.388 0.295,-0.485c0.195,-0.087 0.381,0.033 0.527,0.238c0.815,-0.244 1.443,-0.427 1.81,-0.528c0.06,-0.016 0.127,-0.034 0.201,-0.055c-0.012,-0.286 0.09,-0.561 0.373,-0.693c0.25,-0.117 0.435,0.119 0.529,0.443c0.509,-0.142 1.139,-0.318 1.861,-0.521c-0.008,-0.256 0.094,-0.517 0.365,-0.691c0.269,-0.173 0.467,0.083 0.558,0.431c0.579,-0.163 1.201,-0.339 1.856,-0.524c-0.099,-0.251 -0.041,-0.561 0.315,-0.791c0.308,-0.197 0.529,0.095 0.605,0.443c0.006,0.028 0.011,0.056 0.015,0.084c0.619,-0.176 1.26,-0.358 1.917,-0.544c-0.062,-0.28 0.003,-0.574 0.296,-0.762c0.282,-0.182 0.524,0.114 0.651,0.493c0.621,-0.177 1.252,-0.356 1.885,-0.537c-0.161,-0.33 -0.143,-0.782 0.271,-1.048c0.308,-0.198 0.523,0.153 0.592,0.56c0.013,0.077 0.021,0.157 0.023,0.235l1.91,-0.546c-0.108,-0.286 -0.056,-0.638 0.308,-0.873c0.308,-0.198 0.529,0.127 0.605,0.508c0.006,0.033 0.012,0.066 0.016,0.099c0.62,-0.178 1.23,-0.354 1.822,-0.525c-0.102,-0.245 -0.047,-0.552 0.313,-0.784c0.307,-0.197 0.528,0.089 0.604,0.43c0.006,0.028 0.011,0.057 0.016,0.085c0.643,-0.186 1.26,-0.365 1.842,-0.535c-0.05,-0.224 0.034,-0.481 0.345,-0.681c0.3,-0.193 0.518,0.074 0.598,0.405c0.704,-0.206 1.337,-0.393 1.878,-0.556c-0.015,-0.204 0.081,-0.426 0.357,-0.603c0.274,-0.176 0.48,0.032 0.575,0.321c0.388,-0.119 0.682,-0.213 0.866,-0.277c0.288,-0.099 0.579,-0.206 0.873,-0.319c-0.064,-0.232 0.012,-0.504 0.337,-0.713c0.281,-0.181 0.49,0.043 0.582,0.343c0.526,-0.219 1.057,-0.452 1.583,-0.69c0.017,-0.177 0.122,-0.36 0.356,-0.51c0.207,-0.133 0.374,-0.048 0.485,0.125c0.77,-0.355 1.526,-0.711 2.248,-1.039c0.056,-0.072 0.132,-0.141 0.23,-0.204c0.117,-0.076 0.222,-0.081 0.311,-0.039Zm-24.007,20.905c0.121,0.084 0.289,0.061 0.393,-0.009c0.105,-0.07 0.147,-0.186 0.017,-0.289c-0.261,-0.204 -0.577,0.131 -0.41,0.298Zm-10.617,-1.001c0.216,-0.149 0.401,0.053 0.507,0.311c0.106,0.257 0.132,0.569 0.03,0.641c-0.376,0.265 -1.213,-0.488 -0.537,-0.952Zm20.201,-1.176c0.557,-0.041 1.005,0.391 1.024,0.819c0.018,0.428 -0.652,0.688 -1.005,0.632c-0.354,-0.055 -1.098,-0.26 -1.098,-0.725c-0,-0.466 0.577,-0.689 1.079,-0.726Zm-17.225,-0.086c0.216,-0.148 0.442,0.086 0.588,0.376c0.146,0.289 0.213,0.634 0.111,0.705c-0.376,0.266 -1.375,-0.617 -0.699,-1.081Zm-9.071,-1.753c0.16,-0.1 0.451,0.523 0.686,1.179c0.235,0.656 0.414,1.345 0.349,1.377c-0.129,0.065 -1.294,-2.394 -1.035,-2.556Zm21.811,1.839c0.019,-0.391 0.707,-0.465 1.08,-0.41c0.372,0.056 0.8,0.354 0.818,0.67c0.019,0.317 -0.558,0.54 -0.93,0.41c-0.372,-0.13 -0.986,-0.279 -0.968,-0.67Zm21.662,0.316c-0.604,-0.181 -0.748,-0.632 -0.641,-0.999c0.106,-0.366 0.464,-0.648 0.864,-0.49c0.8,0.317 1.079,1.88 -0.223,1.489Zm-39.979,-2.802c0.16,-0.1 0.418,0.596 0.621,1.325c0.203,0.728 0.349,1.49 0.284,1.522c-0.129,0.065 -1.164,-2.685 -0.905,-2.847Zm31.902,2.765c-0.66,0.03 -0.958,-0.412 -0.928,-0.852c0.031,-0.44 0.389,-0.879 1.04,-0.841c1.302,0.074 1.526,1.619 -0.112,1.693Zm10.515,-0.354c-0.318,-0.089 -0.532,-0.34 -0.537,-0.497c-0.004,-0.157 0.202,-0.219 0.723,0.069c1.042,0.577 0.874,0.726 -0.186,0.428Zm-6.495,0c-0.632,-0.03 -1,-0.458 -1.019,-0.883c-0.018,-0.425 0.312,-0.847 1.075,-0.866c1.526,-0.037 1.898,1.842 -0.056,1.749Zm-27.718,-1.188c0.13,-0.108 0.266,0.062 0.354,0.272c0.088,0.21 0.128,0.46 0.067,0.512c-0.227,0.192 -0.829,-0.448 -0.421,-0.784Zm17.11,0.295c-0.378,-0.311 0.968,-0.8 1.508,-0.651c0.539,0.149 0.967,0.856 0.372,0.968c-0.596,0.111 -1.359,0.111 -1.88,-0.317Zm-22.532,-2.844c0.16,-0.1 0.418,0.596 0.621,1.324c0.203,0.729 0.349,1.491 0.285,1.523c-0.13,0.065 -1.165,-2.685 -0.906,-2.847Zm17.992,2.398c-0.447,0.023 0.26,-0.987 0.632,-0.95c0.373,0.038 1.024,0.577 0.745,0.726c-0.279,0.149 -1.024,0.205 -1.377,0.224Zm-15.016,-3.498c0.16,-0.1 0.419,0.596 0.621,1.324c0.203,0.729 0.349,1.491 0.285,1.523c-0.13,0.065 -1.165,-2.685 -0.906,-2.847Zm24.19,1.99c-0.486,0.083 -0.737,-0.211 -0.741,-0.52c-0.004,-0.309 0.239,-0.634 0.741,-0.615c1.005,0.037 1.098,0.949 0,1.135Zm-6.662,-0.409c-0.214,0.101 -0.41,0.045 -0.496,-0.059c-0.086,-0.104 -0.062,-0.258 0.161,-0.351c0.447,-0.186 0.689,0.242 0.335,0.41Zm-41.833,-0.243c-0.302,0.018 -0.401,-0.654 -0.365,-1.342c0.035,-0.687 0.203,-1.391 0.435,-1.437c0.463,-0.093 0.324,2.756 -0.07,2.779Zm44.364,-0.018c-0.516,0.071 -0.754,-0.333 -0.648,-0.702c0.106,-0.369 0.555,-0.703 1.411,-0.489c1.712,0.428 -0.223,1.117 -0.763,1.191Zm-17.467,-2.26c0.281,-0.102 0.6,0.412 0.814,0.962c0.214,0.549 0.322,1.134 0.183,1.175c-0.146,0.044 -1.294,-2.03 -0.997,-2.137Zm24.129,1.721c-0.801,-0 -1.252,-0.27 -1.284,-0.526c-0.033,-0.256 0.354,-0.498 1.228,-0.442c1.75,0.112 0.745,0.968 0.056,0.968Zm-48.571,-0.416c-0.303,0.018 -0.401,-0.654 -0.366,-1.341c0.035,-0.688 0.204,-1.391 0.435,-1.437c0.463,-0.093 0.325,2.755 -0.069,2.778Zm73.131,-0.943c0.1,0.077 0.233,0.017 0.308,-0.085c0.075,-0.103 0.092,-0.248 -0.041,-0.341c-0.267,-0.187 -0.506,0.239 -0.267,0.426Zm-70.514,-0.029c-0.303,0.017 -0.401,-0.654 -0.366,-1.342c0.035,-0.687 0.203,-1.391 0.435,-1.437c0.463,-0.093 0.324,2.756 -0.069,2.779Zm25.011,-0.953c0.13,-0.107 0.266,0.063 0.354,0.273c0.088,0.21 0.128,0.459 0.067,0.511c-0.227,0.193 -0.829,-0.447 -0.421,-0.784Zm-22.163,0.42c-0.302,0.017 -0.193,-0.862 -0.158,-1.55c0.035,-0.687 0.36,-1.755 0.592,-1.801c0.463,-0.093 -0.04,3.327 -0.434,3.351Zm25.745,-1.036c-0,-0 -0.267,-0.56 -0.533,-0.426c-0.267,0.133 -0.107,0.799 0.186,0.772c0.293,-0.027 0.347,-0.346 0.347,-0.346Zm36.461,0.213c0.161,0.16 0.314,0.12 0.394,0.004c0.079,-0.117 0.086,-0.31 -0.047,-0.457c-0.267,-0.293 -0.773,0.027 -0.347,0.453Zm2.664,-1.332c0.281,0.281 0.341,0.734 0.221,1.04c-0.121,0.306 -0.421,0.465 -0.86,0.159c-0.879,-0.613 0.106,-1.732 0.639,-1.199Zm4.181,-0.133c0,-0 0.613,0.613 0.347,0.932c-0.267,0.32 -0.933,0.133 -0.959,-0.266c-0.027,-0.4 0.612,-0.666 0.612,-0.666Zm-66.203,1.038c-0.303,0.017 -0.401,-0.654 -0.366,-1.342c0.035,-0.687 0.204,-1.391 0.435,-1.437c0.222,-0.044 0.088,0.775 0.072,1.446c-0.018,0.731 0.064,1.321 -0.141,1.333Zm3.103,-0.649c-0.152,0.009 -0.192,-0.674 -0.166,-1.365c0.026,-0.691 0.119,-1.39 0.235,-1.413c0.463,-0.093 0.324,2.755 -0.069,2.778Zm21.844,-0.229c0,-0 -0.159,-0.48 0.027,-0.586c0.186,-0.107 0.639,0.399 0.426,0.559c-0.213,0.16 -0.453,0.027 -0.453,0.027Zm2.77,-0.586c0,-0 -0.16,-0.4 0.107,-0.48c0.266,-0.079 0.639,0.214 0.426,0.427c-0.213,0.213 -0.533,0.053 -0.533,0.053Zm30.842,-1.279c0.03,0.692 -0.15,1.145 -0.35,1.205c-0.201,0.06 -0.422,-0.272 -0.475,-1.151c-0.107,-1.758 0.772,-1.305 0.825,-0.054Zm-3.888,1.199c-0,-0 -0.746,0.053 -0.852,-0.533c-0.107,-0.586 0.293,-0.666 0.586,-0.373c0.292,0.293 0.266,0.906 0.266,0.906Zm2.21,-0.772c0.022,0.359 -0.218,0.625 -0.48,0.675c-0.261,0.05 -0.545,-0.116 -0.612,-0.622c-0.133,-1.012 1.039,-0.959 1.092,-0.053Zm-50.583,0.533c-0.302,0.017 -0.401,-0.654 -0.366,-1.342c0.036,-0.687 0.204,-1.391 0.436,-1.437c0.463,-0.093 0.324,2.756 -0.07,2.779Zm3.057,-0.579c-0.303,0.018 -0.592,-0.763 -0.557,-1.45c0.036,-0.688 0.395,-1.283 0.626,-1.329c0.227,-0.045 0.119,0.641 0.098,1.328c-0.022,0.717 0.034,1.439 -0.167,1.451Zm58.873,-0.78c-0,-0 -0.48,-0.373 -0.826,-0c-0.346,0.373 0.106,0.692 0.426,0.612c0.32,-0.079 0.4,-0.612 0.4,-0.612Zm-56.141,0.34c-0.302,0.018 -0.51,-0.708 -0.474,-1.396c0.035,-0.687 0.312,-1.337 0.544,-1.383c0.23,-0.046 0.067,0.665 0.042,1.365c-0.026,0.706 0.086,1.402 -0.112,1.414Zm49.296,-1.139c0.412,0.019 0.645,0.292 0.675,0.564c0.03,0.271 -0.143,0.541 -0.542,0.555c-0.799,0.026 -1.279,-1.172 -0.133,-1.119Zm-46.355,0.074c-0.302,0.017 -0.537,-0.736 -0.502,-1.423c0.035,-0.688 0.34,-1.31 0.571,-1.356c0.234,-0.047 0.097,0.708 0.069,1.417c-0.028,0.698 0.057,1.35 -0.138,1.362Zm53.306,-0.261c0,0 0.053,-0.532 0.346,-0.479c0.293,0.053 0.533,0.533 0.24,0.693c-0.293,0.159 -0.586,-0.214 -0.586,-0.214Zm-5.034,-1.145c0.224,-0.17 0.563,-0.05 0.764,0.152c0.2,0.203 0.262,0.487 -0.071,0.647c-0.666,0.32 -1.359,-0.293 -0.693,-0.799Zm-7.617,0.16c0.268,0.208 0.661,0.268 0.827,0.196c0.166,-0.072 0.105,-0.276 -0.534,-0.596c-1.279,-0.639 -1.012,-0.159 -0.293,0.4Zm-37.923,0.125c-0.302,0.018 -0.401,-0.374 -0.365,-0.782c0.035,-0.408 0.203,-0.832 0.435,-0.879c0.463,-0.092 0.324,1.638 -0.07,1.661Zm44.448,-0.178c0,-0 0.187,-0.826 -0.213,-1.039c-0.399,-0.213 -1.145,0.613 -0.612,0.906c0.532,0.293 0.426,0.106 0.825,0.133Zm-65.347,-0.112c0.099,0.159 0.271,0.047 0.386,-0.144c0.115,-0.191 0.172,-0.461 0.042,-0.619c-0.261,-0.316 -0.8,0.167 -0.428,0.763Zm71.42,-0.554c-0,-0 -0.613,-0.586 -0.213,-0.719c0.399,-0.133 0.719,-0.213 0.745,0.266c0.027,0.48 -0.532,0.453 -0.532,0.453Zm-47.439,-0.008c-0.303,0.018 -0.445,-0.3 -0.453,-0.633c-0.008,-0.334 0.117,-0.683 0.348,-0.73c0.464,-0.092 0.498,1.34 0.105,1.363Zm36.039,-0.472c0.209,0.417 0.788,0.437 1.232,0.227c0.444,-0.211 0.753,-0.653 0.42,-1.159c-0.666,-1.012 -2.371,-0.506 -1.652,0.932Zm-53.898,-0.12c0.078,0.406 -0.912,0.075 -1.191,0.056c-0.279,-0.019 -0.372,0.409 -0.651,0.353c-0.279,-0.055 -0.447,-0.576 -0.782,-0.893c-0.335,-0.316 -0.856,-0.446 -0.949,-0.819c-0.093,-0.372 0.466,-0.93 0.968,-0.632c0.502,0.297 0.093,0.651 0.502,0.949c0.41,0.298 1.117,-0.149 1.452,0.149c0.335,0.297 0.577,0.446 0.651,0.837Zm20.75,0.293c-0.303,0.018 -0.395,-0.474 -0.353,-0.981c0.041,-0.508 0.216,-1.031 0.447,-1.078c0.463,-0.092 0.3,2.036 -0.094,2.059Zm-28.755,-2.807c-0.576,-0.302 -1.112,-1.915 -0.685,-2.138c0.427,-0.223 0.928,1.648 0.69,2.137l-0.002,0.003c0.577,0.298 1.28,2.316 0.819,2.252c-1.191,-0.168 -1.061,-1.768 -0.819,-2.252l-0.003,-0.002Zm69.085,1.408c-0.068,-0.496 0.249,-0.987 0.868,-0.464c0.185,-0.006 0.346,0.05 0.42,0.199c0.24,0.479 0.08,0.666 -0.293,0.852c-0.373,0.187 -0.985,0.133 -1.039,-0.399c-0.006,-0.063 0.011,-0.127 0.044,-0.188Zm-67.146,0.306c0.158,0.186 0.432,0.242 0.639,0.06c0.207,-0.181 0.347,-0.6 0.235,-1.363c-0.223,-1.526 -1.358,0.931 -0.874,1.303Zm29.655,-0.136c-0.302,0.018 -0.456,-0.281 -0.477,-0.596c-0.021,-0.315 0.092,-0.646 0.323,-0.692c0.463,-0.093 0.548,1.265 0.154,1.288Zm36.036,-1.314c-0,0 0.293,1.092 -0.373,1.119c-0.666,0.026 -0.693,-0.213 -0.639,-0.693c0.053,-0.479 0.612,-0.506 1.012,-0.426Zm4.144,0.619c-0.118,-0.213 -0.096,-0.433 -0.096,-0.433c0.32,-0.399 0.773,-0.213 1.065,0.054c0.094,0.084 0.117,0.207 0.089,0.327c0.008,0.113 -0.061,0.217 -0.178,0.286c-0.131,0.112 -0.318,0.166 -0.523,0.079c-0.022,-0.009 -0.043,-0.019 -0.062,-0.029c-0.174,-0.051 -0.258,-0.163 -0.295,-0.284Zm-9.205,-0.353c0.127,0.081 0.347,0.028 0.502,-0.079c0.154,-0.107 0.244,-0.267 0.111,-0.4c-0.266,-0.266 -0.906,0.293 -0.613,0.479Zm-3.116,-0.319c0.266,0.234 0.546,0.214 0.716,0.052c0.17,-0.161 0.23,-0.465 0.057,-0.798c-0.347,-0.666 -1.439,0.16 -0.773,0.746Zm-51.652,-1.27c-0.049,-0.731 -0.407,-1.024 -0.649,-0.946c-0.241,0.078 -0.366,0.527 0.053,1.281c0.838,1.507 0.651,0.502 0.596,-0.335Zm60.335,0.098c0.175,0.234 0.415,0.167 0.564,-0.008c0.149,-0.175 0.208,-0.458 0.022,-0.658c-0.373,-0.399 -1.066,0.027 -0.586,0.666Zm-6.286,-0.24c0.34,0.073 0.606,-0.094 0.681,-0.298c0.075,-0.205 -0.042,-0.448 -0.468,-0.527c-0.852,-0.16 -0.959,0.665 -0.213,0.825Zm3.649,-0.133c0.194,0.231 0.447,0.164 0.595,-0.01c0.148,-0.174 0.191,-0.456 -0.036,-0.656c-0.452,-0.399 -1.118,0 -0.559,0.666Zm-45.894,-0.257c0.175,-0.05 0.257,-0.252 0.203,-0.387c-0.055,-0.136 -0.246,-0.204 -0.618,0.015c-0.745,0.438 -0.197,0.547 0.415,0.372Zm-14.317,-0.026c0.295,0.319 0.391,-1.098 0.428,-1.526c0.038,-0.428 0.056,-1.266 -0.111,-1.656c-0.168,-0.391 -0.205,0.856 -0.428,1.228c-0.224,0.372 -0.317,1.489 0.111,1.954Zm18.672,-0.762c0.374,-0.202 0.832,-0.109 0.854,-0.393c0.021,-0.285 -0.679,-0.744 -1.401,-0.351c-0.722,0.394 -0.657,1.029 -0.35,1.204c0.306,0.175 0.372,-0.175 0.897,-0.46Zm-20.514,0.241c0.247,0.048 0.447,-0.352 0.504,-0.776c0.057,-0.424 -0.029,-0.871 -0.355,-0.918c-0.651,-0.093 -0.912,1.545 -0.149,1.694Zm67.46,-2.179c-0,-0 0.16,1.784 -0.24,2.024c-0.399,0.24 -1.412,0.187 -1.172,-0.373c0.24,-0.559 0.639,-2.397 1.412,-1.651Zm-69.488,2.141c0.315,0.023 0.552,-0.475 0.613,-0.964c0.061,-0.49 -0.055,-0.971 -0.446,-0.915c-0.782,0.112 -0.949,1.824 -0.167,1.879Zm57.053,-0.476c-0.422,0.182 -1.161,-0.436 -1.04,-1.162c0.121,-0.726 0.774,-1.016 0.653,-1.645c-0.121,-0.629 -0.557,-0.654 -0.823,-0.992c-0.266,-0.339 -0.097,-1.138 -0.75,-1.38c-0.653,-0.242 -1.524,0.412 -2.444,0.508c-0.919,0.097 -1.282,0.121 -2.323,0.363c-1.04,0.242 -2.468,0.025 -2.468,0.025c-0,-0 1.524,-0.92 2.129,-1.259c0.605,-0.338 1.307,-0.726 1.646,-1.064c0.339,-0.339 0.46,-1.355 1.186,-1.065c0.725,0.29 1.427,0.339 2.54,1.04c1.113,0.702 1.864,0.968 2.251,2.154c0.387,1.186 0.726,1.331 0.435,1.96c-0.29,0.629 0.581,0.992 0.17,1.549c-0.412,0.556 -0.436,0.653 -1.162,0.968Zm-42.083,-0.274c0.129,0.433 1.182,0.241 1.16,-0.043c-0.022,-0.285 -0.219,-0.285 -0.35,-0.504c-0.131,-0.219 -0.131,-0.569 -0.569,-0.591c-0.438,-0.021 -0.416,0.548 -0.241,1.138Zm-17.334,0.192c0.298,-0.037 0.233,-0.526 0.035,-0.977c-0.198,-0.451 -0.528,-0.865 -0.761,-0.753c-0.465,0.223 -0.018,1.823 0.726,1.73Zm66.605,-0.491c0.293,0.439 0.685,0.386 0.952,0.136c0.266,-0.249 0.406,-0.695 0.193,-1.042c-0.426,-0.692 -1.838,-0.133 -1.145,0.906Zm-35.09,-0.488c0.521,-0.166 0.921,-0.123 0.99,-0.01c0.069,0.113 -0.191,0.294 -0.99,0.403c-1.598,0.219 -0.963,-0.087 -0,-0.393Zm3.851,-1.51c0.485,-0.189 1.051,-0.613 1.379,-0.241c0.328,0.372 0.087,1.05 -0.482,1.247c-0.568,0.197 -1.685,0.416 -1.75,-0.262c-0.066,-0.679 0.459,-0.591 0.853,-0.744Zm-12.648,-0.941c1.189,-0.217 1.072,1.335 0.722,1.75c-0.35,0.416 -1.291,0.285 -1.423,-0.722c-0.131,-1.006 0.46,-0.985 0.701,-1.028Zm16.215,0.109c0.339,-0.215 0.897,-0.15 1.182,0.076c0.284,0.227 0.295,0.613 -0.46,1.04c-1.51,0.854 -0.962,-0.963 -0.722,-1.116Zm-23.699,0.963c0.263,0.659 1.685,0.284 1.488,-0.482c-0.197,-0.765 -1.051,-1.028 -1.335,-0.919c-0.285,0.11 -0.372,0.854 -0.153,1.401Zm14.114,0.153c0,0 1.685,0.263 1.882,-0.153c0.197,-0.416 0.044,-1.116 -0.525,-1.269c-0.569,-0.153 -1.882,0.766 -1.357,1.422Zm-9.803,-0.175c1.095,-0.73 0.197,-1.313 -0.679,-1.116c-0.875,0.197 -0.569,0.963 -0.175,1.204c0.394,0.24 0.591,0.087 0.854,-0.088Zm45.036,-1.893c0.796,-0.162 1.275,0.298 1.356,0.804c0.08,0.507 -0.238,1.06 -1.037,1.087c-1.598,0.053 -2.157,-1.518 -0.319,-1.891Zm-63.446,1.631c0.484,0.138 0.782,-0.211 0.833,-0.602c0.051,-0.39 -0.144,-0.822 -0.647,-0.85c-1.004,-0.056 -0.707,1.303 -0.186,1.452Zm69.438,-0.512c0.164,-0.452 -0.959,-0.64 -1.251,-0.453c-0,-0 0.026,-0.693 -0.16,-1.012c-0.187,-0.32 -1.012,-0.4 -1.039,0.239c-0.027,0.64 0.906,1.092 0.906,1.092c-0,0 -0.24,0.48 0.426,0.613c0.666,0.133 1.012,-0.186 1.118,-0.479Zm-71.987,-0.624c0.014,-0.409 0.084,-0.674 0.215,-0.7c0.132,-0.025 0.325,0.189 0.585,0.738c0.521,1.098 -0.837,1.042 -0.8,-0.038Zm28.618,0.72c0.497,-0.029 0.782,-0.412 0.761,-0.799c-0.02,-0.386 -0.345,-0.777 -1.068,-0.821c-1.444,-0.087 -0.831,1.685 0.307,1.62Zm-22.142,-2.283c-0.558,-0.581 -1.191,0.428 -1.172,1.191c0.018,0.763 0.967,1.024 1.265,0.54c0.298,-0.484 0.354,-1.265 -0.093,-1.731Zm36.541,-0.453c0.567,-0.395 1.109,-0.477 1.421,-0.334c0.312,0.142 0.395,0.509 0.045,1.013c-0.7,1.006 -2.91,0.328 -1.466,-0.679Zm-7.725,-0.35c0.532,-0.024 1.335,0.679 0.788,1.226c-0.547,0.547 -1.773,0.218 -1.663,-0.372c0.109,-0.591 0.394,-0.832 0.875,-0.854Zm4.355,1.16c0.351,-0.241 0.542,-0.711 0.474,-1.05c-0.069,-0.34 -0.397,-0.548 -1.087,-0.263c-1.378,0.569 -0.153,1.838 0.613,1.313Zm8.29,-2.006c0.743,-0.554 1.482,-0.701 1.763,-0.509c0.28,0.192 0.101,0.722 -0.991,1.521c-2.184,1.598 -2.45,0.24 -0.772,-1.012Zm-32.668,1.349c-0,0.497 1.685,0.197 1.619,-0.722c-0.065,-0.919 -0.175,-1.728 -1.356,-0.831c-1.182,0.897 -0.263,1.378 -0.263,1.553Zm50.619,0.223c0.52,-0.013 0.746,-0.366 0.739,-0.706c-0.006,-0.34 -0.246,-0.666 -0.659,-0.626c-0.826,0.08 -1.145,1.358 -0.08,1.332Zm-40.881,-1.536c0.554,-0.131 0.795,0.246 0.788,0.657c-0.008,0.41 -0.263,0.853 -0.7,0.853c-0.876,0 -1.379,-1.203 -0.088,-1.51Zm5.383,-0.087c0.311,-0.324 0.814,-0.417 1.142,-0.257c0.327,0.16 0.478,0.574 0.084,1.264c-0.788,1.378 -2.232,0.043 -1.226,-1.007Zm-10.241,0.306c0.321,-0.28 0.759,-0.225 1.004,-0.007c0.245,0.217 0.298,0.598 -0.151,0.97c-0.897,0.744 -1.882,-0.066 -0.853,-0.963Zm49.708,0.864c0.679,-0.013 1.138,-0.372 1.245,-0.725c0.106,-0.353 -0.14,-0.7 -0.873,-0.687c-1.464,0.027 -1.784,1.439 -0.372,1.412Zm-41.699,-0.054c0.358,0.052 0.582,-0.386 0.618,-0.831c0.037,-0.445 -0.114,-0.898 -0.508,-0.876c-0.788,0.044 -1.16,1.554 -0.11,1.707Zm-28.586,-0.16c-0.61,-0.388 0.372,-1.452 0.67,-1.191c0.298,0.26 0.465,0.893 0.149,1.061c-0.317,0.167 -0.614,0.26 -0.819,0.13Zm23.422,-1.394c0.351,0.008 0.558,0.292 0.583,0.58c0.024,0.288 -0.135,0.58 -0.518,0.602c-0.765,0.044 -1.072,-1.204 -0.065,-1.182Zm-20.277,0.743c-0.689,-0.633 -0.726,-1.247 0.112,-1.043c0.837,0.205 0.874,0.801 0.688,1.098c-0.186,0.298 -0.112,0.577 -0.8,-0.055Zm35.88,-1.924c0.429,0.31 0.554,0.841 0.406,1.113c-0.148,0.273 -0.571,0.287 -1.238,-0.435c-1.335,-1.444 0.197,-1.138 0.832,-0.678Zm25.48,0.978c0.507,0.123 0.72,-0.09 0.713,-0.354c-0.006,-0.264 -0.234,-0.578 -0.606,-0.658c-0.746,-0.16 -0.986,0.799 -0.107,1.012Zm-18.031,-0.4c0.443,-0.291 0.676,-0.637 0.618,-0.831c-0.057,-0.193 -0.405,-0.234 -1.124,0.086c-1.438,0.639 -0.506,1.411 0.506,0.745Zm15.607,0.187c0.587,0.021 0.873,-0.366 0.889,-0.754c0.017,-0.388 -0.236,-0.778 -0.729,-0.764c-0.985,0.026 -1.651,1.464 -0.16,1.518Zm6.952,-0.453c0.131,0.287 0.404,0.354 0.621,0.275c0.217,-0.078 0.378,-0.302 0.284,-0.595c-0.186,-0.586 -1.198,-0.319 -0.905,0.32Zm-51.76,-0.553c-0.182,-0.355 0.037,-0.71 0.342,-0.849c0.305,-0.138 0.697,-0.059 0.861,0.455c0.328,1.028 -0.744,1.291 -1.203,0.394Zm3.676,0.219c0.868,0.302 1.379,-1.16 0.875,-1.423c-0.503,-0.262 -1.247,-0.087 -1.444,0.394c-0.197,0.482 0.066,0.854 0.569,1.029Zm37.856,-1.211c0.266,-0.448 0.493,-0.774 0.653,-0.792c0.159,-0.018 0.253,0.273 0.253,1.059c-0,1.571 -1.412,0.585 -0.906,-0.267Zm-32.101,0.62c0.286,0.57 1.729,0.131 1.685,-0.504c-0.043,-0.634 -0.591,-0.94 -1.16,-0.744c-0.568,0.197 -0.722,0.854 -0.525,1.248Zm29.917,-0.247c0.12,-0.256 -0.06,-0.462 -0.276,-0.518c-0.217,-0.056 -0.469,0.039 -0.496,0.385c-0.053,0.692 0.399,0.932 0.772,0.133Zm-21.645,0.444c0,-0 2.254,0.175 1.269,-0.788c-0.984,-0.963 -1.356,-1.422 -2.254,-0.722c-0.897,0.7 0.635,1.357 0.985,1.51Zm16.265,-1.083c0.329,-0.263 0.729,-0.13 0.959,0.122c0.231,0.252 0.293,0.624 -0.053,0.837c-0.693,0.426 -1.705,-0.32 -0.906,-0.959Zm15.208,1.039c0.343,0.049 0.563,-0.184 0.614,-0.423c0.051,-0.239 -0.068,-0.483 -0.401,-0.456c-0.665,0.053 -0.958,0.772 -0.213,0.879Zm-24.645,-0.963c0.251,-0.049 0.536,-0.005 0.684,0.122c0.147,0.127 0.158,0.338 -0.137,0.622c-0.591,0.569 -1.226,-0.613 -0.547,-0.744Zm3.232,-0.129c0.123,0.615 0.489,0.815 0.808,0.727c0.318,-0.087 0.59,-0.461 0.523,-0.994c-0.133,-1.065 -1.571,-0.932 -1.331,0.267Zm-30.346,-0.965c0.18,-0.528 0.628,-0.764 0.95,-0.686c0.322,0.077 0.517,0.467 0.188,1.189c-0.656,1.445 -1.532,0.657 -1.138,-0.503Zm54.902,1.204c0.345,0.037 0.572,-0.183 0.632,-0.409c0.06,-0.225 -0.046,-0.456 -0.366,-0.443c-0.639,0.027 -1.278,0.746 -0.266,0.852Zm-45.295,-0c0.303,0.052 0.461,-0.391 0.454,-0.848c-0.007,-0.456 -0.18,-0.925 -0.541,-0.925c-0.723,-0 -0.547,1.663 0.087,1.773Zm25.559,-0.239c0.513,-0.378 0.56,-0.797 0.368,-1.039c-0.191,-0.242 -0.621,-0.306 -1.06,0.026c-0.879,0.666 -0.213,1.678 0.692,1.013Zm-9.3,-0.921c0.13,-0.183 0.475,-0.315 0.678,-0.272c0.202,0.043 0.263,0.261 -0.174,0.775c-0.876,1.029 -0.876,0.022 -0.504,-0.503Zm-10.307,-0.175c0.062,0.505 0.615,0.549 1.064,0.343c0.45,-0.206 0.796,-0.661 0.446,-1.153c-0.7,-0.985 -1.641,-0.263 -1.51,0.81Zm34.656,-0.343c0.22,0.181 0.486,0.088 0.647,-0.094c0.162,-0.181 0.218,-0.452 0.018,-0.625c-0.399,-0.346 -1.411,0.107 -0.665,0.719Zm-45.532,0.014c0.486,0.299 1.095,-0.328 0.919,-1.006c-0.175,-0.679 -0.984,-0.744 -1.313,-0.307c-0.328,0.438 0.11,1.138 0.394,1.313Zm14.815,-0.24c0.387,-0.237 0.535,-0.74 0.438,-1.075c-0.097,-0.335 -0.438,-0.501 -1.028,-0.063c-1.182,0.875 -0.197,1.619 0.59,1.138Zm3.395,-1.079c-0.066,-0.968 0.986,-1.812 1.857,-0.76c0.115,0.139 0.194,0.278 0.242,0.414c0.215,0.38 0.213,0.832 -0.242,1.184c-1.038,0.805 -1.944,0.147 -1.857,-0.838Zm5.796,-0.3c0,0 -1.116,0.175 -1.378,0.635c-0.263,0.459 0.175,0.941 0.678,0.525c0.503,-0.416 0.678,-0.503 0.7,-1.16Zm25.494,1.099c0.249,0.202 0.655,0.022 0.926,-0.258c0.27,-0.28 0.406,-0.661 0.113,-0.86c-0.586,-0.4 -2.024,0.319 -1.039,1.118Zm-47.202,0.017c0.46,0.01 0.684,-0.285 0.671,-0.575c-0.014,-0.29 -0.266,-0.574 -0.758,-0.541c-0.985,0.066 -0.919,1.094 0.087,1.116Zm35.163,-0.869c-0.022,-0.559 0.24,-0.879 0.24,-1.252c0,-0.373 0.426,-0.319 0.266,0.027c-0.159,0.346 0.24,0.746 0.24,1.278c0,0.533 -0.719,0.613 -0.746,-0.053Zm-10.287,-1.337c0.873,0.001 1.611,0.627 0.859,1.444c-0.932,1.012 -2.397,-0.56 -1.491,-1.332l0.006,-0.002c0.202,-0.075 0.414,-0.11 0.619,-0.11l0.007,-0Zm6.239,0.964c0,-0.641 1.305,-2.077 1.811,-2.024c0.506,0.053 0.586,1.198 0.08,1.838c-0.506,0.639 -0.985,1.118 -1.332,0.879c-0.346,-0.24 -0.559,-0.08 -0.559,-0.693Zm-26.716,0.52c0.157,0.231 0.633,-0.065 1.009,-0.478c0.377,-0.413 0.654,-0.944 0.413,-1.185c-0.481,-0.482 -2.123,0.634 -1.422,1.663Zm32.309,-0.68c-0.07,-0.352 0.143,-0.652 0.387,-0.744c0.244,-0.091 0.519,0.025 0.572,0.505c0.107,0.958 -0.772,1.172 -0.959,0.239Zm7.538,0.4c0.207,0.245 0.52,0.158 0.734,-0.05c0.215,-0.207 0.331,-0.536 0.145,-0.776c-0.373,-0.479 -1.465,0.133 -0.879,0.826Zm-15.954,-1.651c0.168,-0.612 0.674,-0.759 1.011,-0.572c0.338,0.186 0.507,0.705 0.001,1.424c-1.012,1.438 -1.385,0.506 -1.012,-0.852Zm-34.244,1.318c0.462,0.089 0.845,-0.24 0.94,-0.604c0.095,-0.364 -0.098,-0.763 -0.787,-0.818c-1.379,-0.11 -1.182,1.225 -0.153,1.422Zm16.719,-0.591c0.083,0.252 0.417,0.241 0.673,0.099c0.255,-0.143 0.432,-0.416 0.202,-0.689c-0.459,-0.548 -1.116,-0.132 -0.875,0.59Zm30.389,-0.621c-0.058,-0.369 0.248,-0.576 0.582,-0.583c0.334,-0.008 0.697,0.184 0.75,0.61c0.106,0.852 -1.172,0.985 -1.332,-0.027Zm-37.698,0.512c0.266,-0.189 0.14,-0.638 -0.148,-0.965c-0.288,-0.328 -0.739,-0.534 -1.122,-0.239c-0.765,0.591 0.591,1.685 1.27,1.204Zm20.234,-1.262c0.644,0.002 1.251,0.601 0.557,1.198l-0.005,0.005c-1.066,0.399 -1.998,-0.4 -1.092,-1.039c0.161,-0.114 0.349,-0.164 0.535,-0.164l0.005,0Zm-8.833,-1.036c0.655,-0.044 0.846,0.405 0.748,0.87c-0.098,0.465 -0.485,0.947 -0.989,0.968c-1.006,0.044 -1.378,-1.728 0.241,-1.838Zm5.996,1.466c0.891,-1.114 -0.482,-0.853 -0.854,-1.225c-0.372,-0.372 -0.678,-1.291 -1.378,-0.416c-0.7,0.875 0.525,0.963 0.941,1.226c0.416,0.262 0.941,0.853 1.291,0.415Zm-22.868,-0.853c0.178,0.326 0.643,0.211 0.976,-0.064c0.333,-0.276 0.534,-0.713 0.184,-1.03c-0.701,-0.635 -1.817,-0.11 -1.16,1.094Zm50.946,-0.345c0.044,0.251 0.21,0.39 0.359,0.391c0.149,0.001 0.28,-0.138 0.254,-0.444c-0.053,-0.613 -0.719,-0.56 -0.613,0.053Zm-4.101,-1.278c0.265,-0.331 0.672,-0.317 0.918,-0.118c0.247,0.199 0.333,0.584 -0.04,0.996c-0.745,0.826 -1.651,0.08 -0.878,-0.878Zm-7.245,0.239c0.197,-0.24 0.524,-0.307 0.751,-0.227c0.227,0.08 0.354,0.307 0.155,0.653c-0.4,0.693 -1.518,0.32 -0.906,-0.426Zm-43.473,-0.783c0.327,0.028 1.006,0.723 0.7,1.095c-0.307,0.372 -0.832,0.569 -1.182,0.153c-0.35,-0.416 0.219,-1.269 0.482,-1.248Zm33.059,1.289c0.551,-0.275 0.564,-0.768 0.3,-1.078c-0.264,-0.311 -0.806,-0.44 -1.365,0.013c-1.119,0.905 -0,1.598 1.065,1.065Zm-14.962,0.156c0.64,0.16 0.985,-1.466 0.109,-1.795c-0.875,-0.328 -2.472,0.81 -2.516,1.182c-0.044,0.372 1.182,0.088 1.554,0.219c0.372,0.131 0.59,0.328 0.853,0.394Zm35.417,-0.928c-0.16,0.173 -0.24,0.506 -0.186,0.696c0.053,0.189 0.239,0.236 0.612,-0.163c0.746,-0.799 0,-0.693 -0.426,-0.533Zm-25.062,-0.373c0.031,0.705 0.344,1.058 0.655,1.065c0.312,0.007 0.623,-0.333 0.65,-1.012c0.053,-1.358 -1.385,-1.864 -1.305,-0.053Zm-20.027,0.907c0.561,-0.159 0.577,-0.624 0.33,-0.968c-0.247,-0.343 -0.757,-0.564 -1.249,-0.236c-0.985,0.657 -0.548,1.62 0.919,1.204Zm29.988,0.025c0.157,0.097 0.33,0.057 0.427,-0.04c0.098,-0.098 0.119,-0.253 -0.028,-0.386c-0.293,-0.266 -0.746,0.213 -0.399,0.426Zm-1.225,-0.346c0.252,-0.197 0.266,-0.524 0.126,-0.734c-0.14,-0.21 -0.433,-0.305 -0.792,-0.038c-0.719,0.532 -0.187,1.438 0.666,0.772Zm-23.686,0.058c0.285,-0.25 0.296,-0.748 0.093,-1.096c-0.202,-0.348 -0.619,-0.545 -1.188,-0.195c-1.138,0.7 0.372,1.926 1.095,1.291Zm7.856,-0.109c0.335,0.05 0.587,-0.196 0.656,-0.468c0.069,-0.273 -0.044,-0.572 -0.438,-0.626c-0.787,-0.11 -1.094,0.963 -0.218,1.094Zm25.364,-1.92c0.178,-0.17 0.491,-0.13 0.693,0.019c0.202,0.149 0.293,0.407 0.027,0.674c-0.533,0.532 -1.305,-0.134 -0.72,-0.693Zm-43.112,0.738c0.114,0.167 0.464,0.107 0.731,-0.061c0.267,-0.167 0.451,-0.442 0.232,-0.705c-0.438,-0.525 -1.379,0.153 -0.963,0.766Zm22.711,-0.045c0.207,0.195 0.381,0.142 0.472,-0.004c0.091,-0.145 0.1,-0.383 -0.019,-0.556c-0.24,-0.346 -0.906,0.133 -0.453,0.56Zm-2.29,-1.823c0.349,0.002 0.717,0.127 0.98,0.406l0.005,0.005c0.879,1.278 -1.385,1.811 -1.918,0.746c-0.349,-0.699 0.253,-1.158 0.927,-1.157l0.006,0Zm11.825,1.45c0.374,-0.194 0.307,-0.574 0.07,-0.855c-0.236,-0.281 -0.643,-0.464 -0.949,-0.264c-0.613,0.4 0.16,1.492 0.879,1.119Zm-29.839,-0.326c-0.079,0.088 -0.084,0.225 -0.053,0.312c0.03,0.088 0.097,0.126 0.163,0.016c0.131,-0.218 0.087,-0.547 -0.11,-0.328Zm44.754,0.246c0.217,0.224 0.503,0.151 0.682,-0.035c0.179,-0.186 0.25,-0.485 0.037,-0.711c-0.426,-0.453 -1.465,-0.027 -0.719,0.746Zm-40.727,-0.53c0.602,0.727 1.86,0.35 1.576,-0.372c-0.285,-0.723 -0.526,-1.16 -1.379,-1.138c-0.854,0.022 -0.722,0.875 -0.197,1.51Zm21.71,-1.628c0.114,-0.693 0.607,-1.193 0.971,-1.242c0.364,-0.05 0.601,0.35 0.201,1.455c-0.799,2.211 -1.438,1.412 -1.172,-0.213Zm-6.083,-0.192c0.31,0.002 0.615,0.144 0.756,0.459c0.24,0.532 -0.639,1.758 -1.411,0.932l-0.003,-0.004c-0.577,-0.844 0.044,-1.388 0.653,-1.387l0.005,-0Zm-11.141,0.682c0.264,0.547 0.745,0.826 1.07,0.78c0.326,-0.047 0.495,-0.419 0.134,-1.174c-0.723,-1.51 -2.057,-1.379 -1.204,0.394Zm-9.388,0.416c0,0.296 0.159,0.34 0.315,0.238c0.156,-0.101 0.309,-0.348 0.298,-0.632c-0.022,-0.569 -0.613,-0.241 -0.613,0.394Zm14.574,0.043c0.548,0.162 0.701,-0.612 1.051,-0.612c0.35,-0 0.372,0.503 0.744,0.503c0.372,-0 0.766,-0.941 0.175,-1.116c-0.591,-0.175 -2.517,-0.328 -2.845,-0.022c-0.328,0.306 -0.087,0.963 0.875,1.247Zm9.002,-0.815c0.258,0.365 0.664,0.365 0.959,0.161c0.295,-0.205 0.479,-0.614 0.293,-1.067c-0.373,-0.906 -1.891,0 -1.252,0.906Zm-22.372,-0.432c0.102,0.291 0.392,0.236 0.621,0.046c0.229,-0.191 0.396,-0.517 0.254,-0.768c-0.284,-0.504 -1.138,-0.022 -0.875,0.722Zm5.427,-1.685c-0.156,-0.208 -0.599,-0.142 -0.91,0.06c-0.311,0.203 -0.491,0.542 -0.119,0.881c0.744,0.678 1.488,-0.328 1.029,-0.941Zm12.231,0.172c-0.075,-1.051 -1.119,-1.465 -1.412,-0.852c-0.293,0.613 -0.106,1.119 0.453,1.465c0.559,0.346 0.985,-0.24 0.959,-0.613Zm-5.798,-0.5c-0.013,-0.416 -0.407,-0.706 -0.8,-0.75c-0.394,-0.044 -0.786,0.159 -0.797,0.728c-0.022,1.138 1.641,1.357 1.597,0.022Zm8.621,0.287c0.393,0.367 0.733,0.433 0.901,0.312c0.168,-0.122 0.164,-0.432 -0.129,-0.818c-0.586,-0.772 -1.944,-0.586 -0.772,0.506Zm-12.647,-0.791c-0.067,-0.377 -0.34,-0.722 -0.616,-0.789c-0.276,-0.067 -0.555,0.144 -0.631,0.877c-0.154,1.466 1.313,0.284 1.247,-0.088Zm6.543,0.394c-0.15,-0.036 -0.331,-0.014 -0.444,0.033c-0.113,0.048 -0.158,0.12 -0.037,0.186c0.24,0.131 1.028,-0.087 0.481,-0.219Zm8.368,-1.068c0.152,0.219 0.418,0.259 0.597,0.164c0.178,-0.094 0.268,-0.323 0.069,-0.643c-0.4,-0.639 -1.092,-0.133 -0.666,0.479Zm-4.235,-0.106c0.537,0.096 0.884,-0.144 0.972,-0.404c0.089,-0.261 -0.08,-0.542 -0.573,-0.528c-0.985,0.026 -1.145,0.799 -0.399,0.932Z" style="fill:#1a2d3b;"/></g></g><defs><radialGradient id="_Radial3" cx="0" cy="0" r="1" gradientUnits="userSpaceOnUse" gradientTransform="matrix(48.8463,0,0,25.3923,13.0408,90.6871)"><stop offset="0" style="stop-color:#ebbc90;stop-opacity:1"/><stop offset="0.59" style="stop-color:#edc39c;stop-opacity:1"/><stop offset="1" style="stop-color:#fff;stop-opacity:0"/></radialGradient></defs></svg>