<?xml version="1.0" encoding="UTF-8" standalone="no"?><!DOCTYPE svg PUBLIC "-//W3C//DTD SVG 1.1//EN" "http://www.w3.org/Graphics/SVG/1.1/DTD/svg11.dtd"><svg width="100%" height="100%" viewBox="0 0 150 150" version="1.1" xmlns="http://www.w3.org/2000/svg" xmlns:xlink="http://www.w3.org/1999/xlink" xml:space="preserve" xmlns:serif="http://www.serif.com/" style="fill-rule:evenodd;clip-rule:evenodd;stroke-linejoin:round;stroke-miterlimit:2;"><path id="base" d="M150,75c0,-41.394 -33.606,-75 -75,-75c-41.394,0 -75,33.606 -75,75c0,41.394 33.606,75 75,75c41.394,0 75,-33.606 75,-75Z" style="fill:#00b894;"/><path id="outline" d="M144,75c0,-38.082 -30.918,-69 -69,-69c-38.082,0 -69,30.918 -69,69c0,38.082 30.918,69 69,69c38.082,0 69,-30.918 69,-69Z" style="fill:#dfe6e9;"/><path id="core" d="M141,75c0,-36.426 -29.574,-66 -66,-66c-36.426,0 -66,29.574 -66,66c0,36.426 29.574,66 66,66c36.426,0 66,-29.574 66,-66Z" style="fill:#81ecec;"/><clipPath id="_clip1"><path d="M141,75c0,-36.426 -29.574,-66 -66,-66c-36.426,0 -66,29.574 -66,66c0,36.426 29.574,66 66,66c36.426,0 66,-29.574 66,-66Z"/></clipPath><g clip-path="url(#_clip1)"><g id="indian-royal-green-pipe"><path d="M99.752,61.727c-16.266,-22.734 -58.018,-0.448 -47.163,23.482c7.492,16.516 45.049,13.901 47.163,-23.482Z" style="fill:#504b85;"/><path d="M64.054,57.842c2.895,13.702 8.229,25.749 14.295,37.105l2.211,-0.715c-6.507,-11.37 -10.997,-24.585 -14.031,-37.996l-2.475,1.606Zm-3.679,3.936c2.378,12.25 7.407,23.112 13.219,33.459l1.914,-0.458c-5.638,-10.654 -10.798,-21.032 -13.236,-33.812l-1.897,0.811Zm8.499,-5.842c3.115,14.127 9.201,28.242 14.14,36.922l2.412,-1.238c-6.761,-10.832 -11.259,-22.623 -13.188,-36.016l-3.364,0.332Zm-9.511,10.208c2.2,9.988 7.264,20.751 11.736,28.768l-2.508,0.106c-3.29,-7.327 -8.243,-18.223 -10.791,-27.48l1.563,-1.394Zm-3.627,5.616c0.452,4.74 4.202,12.862 7.563,20.016l1.909,0.542c-3.072,-6.803 -6.152,-14.694 -8.741,-22.977l-0.731,2.419Zm17.997,-18.112c-0.244,-0.049 6.963,29.735 12.932,34.737l2.017,-1.31c-2.424,-0.168 -13.018,-29.072 -11.615,-33.062l-3.334,-0.365Zm-18.2,23.073c0.701,4.2 3.257,9.849 5.073,13.398l-2.749,-0.829c-1.13,-2.303 -3.214,-6.892 -3.239,-9.992l0.915,-2.577Zm24.113,-23.135c-1.146,0.339 6.876,29.334 10.717,31.585l2.066,-1.864c-1.427,0.857 -9.411,-18.773 -10.045,-29.203l-2.738,-0.518Zm5.897,-0.263c-0.789,-0.182 1.604,17.319 8.296,25.587l1.175,-1.942c-2.594,-5.895 -5.415,-10.181 -7.002,-22.494l-2.469,-1.151Zm4.554,1.454c0,0 2.157,14.679 6.486,19.406l0.865,-2.747c0,0 -4.285,-9.315 -4.038,-15.33l-3.313,-1.329Z" style="fill:#d8a1ba;"/><path d="M64.301,57.701c2.895,13.702 8.229,25.749 14.294,37.105l1.789,-0.468c-6.507,-11.371 -11.173,-24.515 -14.207,-37.926l-1.876,1.289Zm-3.644,3.901c2.378,12.249 7.337,23.218 13.149,33.565l1.385,-0.388c-5.638,-10.654 -10.728,-20.997 -13.166,-33.777l-1.368,0.6Zm8.534,-5.736c3.115,14.126 9.201,28.124 14.14,36.805l1.742,-0.91c-6.76,-10.832 -11.223,-22.623 -13.152,-36.016l-2.73,0.121Zm-10.004,10.419c2.2,9.988 7.123,20.61 11.595,28.627l-1.874,0c-3.29,-7.326 -8.279,-18.152 -10.826,-27.409l1.105,-1.218Zm-3.099,5.334c0.453,4.74 3.991,12.792 7.352,19.946l1.38,0.366c-3.071,-6.804 -5.975,-14.166 -8.565,-22.449l-0.167,2.137Zm18.033,-17.865c-0.244,-0.049 6.646,29.242 12.615,34.243l1.629,-0.922c-2.424,-0.168 -13.053,-28.861 -11.65,-32.851l-2.594,-0.47Zm-18.658,23.389c0.701,4.201 2.939,9.075 4.755,12.624l-2.114,-0.617c-1.13,-2.304 -3.179,-6.893 -3.204,-9.993l0.563,-2.014Zm24.57,-23.416c-1.146,0.339 6.736,28.911 10.577,31.162l1.537,-1.441c-1.427,0.857 -9.411,-18.843 -10.045,-29.274l-2.069,-0.447Zm5.827,-0.439c-0.789,-0.183 1.533,17.178 8.225,25.446l0.647,-1.66c-2.593,-5.895 -5.45,-10.111 -7.037,-22.424l-1.835,-1.362Zm4.59,1.736c-0,-0 2.015,14.08 6.345,18.806l0.336,-2.323c0,-0 -4.39,-9.21 -4.144,-15.225l-2.537,-1.258Z" style="fill:#ad5439;"/><path d="M-78.152,121.859c-0.335,-1.626 1.981,-4.423 5.925,-3.443c3.945,0.979 1.625,2.741 2.663,3.458c1.037,0.716 6.225,2.399 9.255,2.654c3.03,0.255 13.951,1.232 17.76,0.776c3.809,-0.456 15.29,-1.003 17.645,-1.611c2.354,-0.609 23.46,-2.942 29.109,-4.922c5.65,-1.981 20.293,-7.812 23.362,-10.118c3.068,-2.307 13.535,-12.033 15.108,-15.108c1.574,-3.076 5.192,-7.069 6.083,-12.37c0.891,-5.301 2.25,-15.421 5.356,-19.051c3.105,-3.63 11.636,-12.032 17.936,-12.9c6.3,-0.867 9.967,-1.602 17.072,0.986c7.105,2.589 14.878,7.198 17.949,8.07c3.071,0.872 9.929,2.858 12.529,3.472c2.6,0.614 3.374,3.618 5.661,4.5c2.287,0.882 9.389,3.43 10.57,3.806c1.18,0.377 1.861,4.46 -1.448,3.108c-3.308,-1.351 -7.151,-2.668 -10.394,-3.652c-3.243,-0.985 -8.096,-0.089 -10.802,-1.067c-2.707,-0.979 -7.312,-3.855 -8.531,-4.188c-1.219,-0.333 -2.205,-0.268 -3.076,1.564c-0.871,1.832 -3.61,11.671 -4.937,14.111c-1.326,2.44 -6.662,11.087 -11.893,13.783c-5.23,2.696 -13.521,4.684 -18.739,3.169c-5.218,-1.516 -11.015,-4.933 -11.015,-4.933c-0,-0 -2.333,0.937 -4.499,2.524c-2.166,1.586 -11.23,11.304 -14.869,13.73c-3.638,2.426 -15.428,8.978 -20.076,10.48c-4.649,1.502 -20.46,5.263 -31.791,6.213c-11.331,0.949 -34.919,2.578 -40.111,2.093c-5.191,-0.485 -10.656,-1.985 -12.291,-2.373c-1.636,-0.388 -4.343,-0.128 -6.014,-0.431c-1.671,-0.303 -3.194,-0.864 -3.497,-2.33Zm175.278,-59.443c-0.303,-1.362 -3.889,-3.609 -6.027,-4.739c-2.139,-1.13 -10.402,-2.018 -13.687,-1.273c-3.286,0.745 -8.86,2.116 -11.993,4.386c-3.133,2.27 -8.469,10.506 -8.689,12.797c-0.221,2.29 -1.517,11.586 -1.809,11.975c0,0 1.309,1.397 2.584,2.266c1.274,0.869 5.182,3.154 8.621,3.934c3.439,0.78 8.138,2.219 11.446,0.996c3.307,-1.222 8.244,-4.245 10.242,-6.864c1.999,-2.619 6.447,-9.051 6.819,-11.457c0.371,-2.407 3.318,-8.317 2.493,-12.021Z" style="fill:#fcfc89;"/></g></g></svg>