<?xml version="1.0" encoding="UTF-8" standalone="no"?><!DOCTYPE svg PUBLIC "-//W3C//DTD SVG 1.1//EN" "http://www.w3.org/Graphics/SVG/1.1/DTD/svg11.dtd"><svg width="100%" height="100%" viewBox="0 0 150 150" version="1.1" xmlns="http://www.w3.org/2000/svg" xmlns:xlink="http://www.w3.org/1999/xlink" xml:space="preserve" xmlns:serif="http://www.serif.com/" style="fill-rule:evenodd;clip-rule:evenodd;stroke-linejoin:round;stroke-miterlimit:2;"><path id="base" d="M150,75c0,-41.394 -33.606,-75 -75,-75c-41.394,0 -75,33.606 -75,75c0,41.394 33.606,75 75,75c41.394,0 75,-33.606 75,-75Z" style="fill:#00b894;"/><path id="outline" d="M144,75c0,-38.082 -30.918,-69 -69,-69c-38.082,0 -69,30.918 -69,69c0,38.082 30.918,69 69,69c38.082,0 69,-30.918 69,-69Z" style="fill:#dfe6e9;"/><path id="core" d="M141,75c0,-36.426 -29.574,-66 -66,-66c-36.426,0 -66,29.574 -66,66c0,36.426 29.574,66 66,66c36.426,0 66,-29.574 66,-66Z" style="fill:#81ecec;"/><clipPath id="_clip1"><path d="M141,75c0,-36.426 -29.574,-66 -66,-66c-36.426,0 -66,29.574 -66,66c0,36.426 29.574,66 66,66c36.426,0 66,-29.574 66,-66Z"/></clipPath><g clip-path="url(#_clip1)"><g id="paradoxus-toothpick"><path d="M29.012,87.968c-0,0 -1.34,2.369 -1.869,3.152c-0.528,0.783 -1.643,3.094 -3.3,3.346c-1.657,0.252 -1.896,0.331 -2.559,0.026c-0.662,-0.305 -0.411,-0.543 -1.63,-1.127c-1.22,-0.583 -2.029,-0.636 -2.228,-1.06c-0.199,-0.424 -0.795,-0.743 -0.702,-1.83c0.092,-1.087 -0.292,-1.246 0.305,-1.882c0.596,-0.637 1.206,-0.756 2.267,-0.862c1.06,-0.106 2.134,-0.12 2.983,-0.332c0.848,-0.212 6.733,0.569 6.733,0.569Zm54.041,-16.385c0,-0 -1.511,2.359 -2.585,2.983c-1.074,0.623 -1.816,1.02 -3.58,1.789c-1.763,0.769 -1.657,0.809 -3.181,1.233c-1.525,0.425 -2.148,1.008 -3.103,0.743c-0.954,-0.265 -1.79,-1.233 -2.201,-1.352c-0.411,-0.12 -2.651,-0.411 -4.202,-0.053c-1.552,0.358 1.14,-3.633 2.147,-4.893c1.008,-1.259 2.612,-1.882 3.726,-2.572c1.114,-0.689 1.127,-0.623 2.174,-1.166c1.048,-0.544 3.474,-1.035 4.826,-1.446c1.352,-0.411 1.578,-0.556 2.32,-0.583c0.743,-0.026 2.095,-0.132 2.784,0c0.69,0.133 0.875,5.317 0.875,5.317Z" style="fill:#51553e;"/><path d="M126.581,59.441c0,0 0.824,-0.67 0.996,-0.881c0.173,-0.21 0.019,-0.67 -0.785,-0.555c-0.804,0.115 -3.485,0.364 -4.366,0.459c-0.881,0.096 -2.451,-0.402 -3.083,-0.593c-0.632,-0.192 -1.896,-0.326 -2.661,-0.192c-0.766,0.134 -2.203,0.364 -3.428,0.345c-1.226,-0.019 -6.989,0.479 -8.541,0.823c-1.551,0.345 -5.629,0.766 -7.257,1.149c-1.628,0.383 -4.998,1.436 -6.472,1.819c-1.475,0.383 -3.734,1.417 -5.228,2.011c-1.493,0.594 -10.225,4.768 -11.623,5.17c-1.398,0.402 -5.592,3.313 -6.99,3.926c-1.397,0.613 -7.314,3.217 -8.521,3.6c-1.206,0.383 -9.268,3.581 -10.8,3.944c-1.532,0.364 -9.076,3.217 -10.398,3.62c-1.321,0.402 -7.372,2.566 -8.234,2.604c-0.861,0.038 -7.027,0.153 -7.448,0.191c-0.422,0.039 -1.283,0.632 -0.939,0.939c0.345,0.306 0.747,0.287 1.187,0.421c0.441,0.134 0.996,0.096 1.647,-0c0.651,-0.096 0.919,-0.211 1.609,-0.058c0.689,0.154 1.359,0.192 1.666,0.441c0.306,0.249 0.957,0.536 1.359,0.268c0.402,-0.268 0.383,-0.555 1.59,-0.977c1.206,-0.421 10.359,-3.485 12.044,-3.887c1.685,-0.402 12.141,-4.002 13.653,-4.347c1.513,-0.344 9.575,-2.91 10.628,-3.006c1.053,-0.096 2.643,-0.555 3.332,-0.709c0.689,-0.153 2.259,-0.383 2.681,-0.517c0.421,-0.134 4.193,-0.995 5.055,-1.225c0.862,-0.23 2.049,-0.421 2.489,-0.46c0.441,-0.038 1.781,-0.306 2.356,-0.421c0.574,-0.115 4.385,-0.938 5.189,-1.053c0.804,-0.115 4.079,-0.747 4.787,-0.919c0.709,-0.173 5.956,-1.494 6.568,-1.685c0.613,-0.192 1.149,-0.383 2.26,-0.575c1.11,-0.191 3.485,-0.708 4.538,-0.957c1.053,-0.249 3.217,-0.288 3.772,-0.402c0.556,-0.115 1.896,-0.403 2.471,-0.594c0.574,-0.192 2.489,-0.9 3.332,-1.149c0.842,-0.249 4.423,-2.011 5.897,-2.662c1.475,-0.651 1.973,-1.072 2.911,-1.34c0.938,-0.268 2.566,-0.785 3.083,-0.977c0.517,-0.191 1.494,-0.555 1.685,-0.995c0.192,-0.441 0.249,-1.054 -0.325,-0.958c-0.575,0.096 -1.149,0.115 -1.686,0.364Z" style="fill:#d7b366;"/><path d="M116.866,59.699c0.93,-0.055 2.044,1.063 2.044,1.766c-0,0.703 -0.892,1.872 -1.554,1.839c-0.662,-0.033 -2.428,-0.351 -2.419,-1.725c0.008,-1.373 1.103,-1.831 1.929,-1.88Z" style="fill:#fffdfe;"/></g></g></svg>