<?xml version="1.0" encoding="UTF-8" standalone="no"?><!DOCTYPE svg PUBLIC "-//W3C//DTD SVG 1.1//EN" "http://www.w3.org/Graphics/SVG/1.1/DTD/svg11.dtd"><svg width="100%" height="100%" viewBox="0 0 150 150" version="1.1" xmlns="http://www.w3.org/2000/svg" xmlns:xlink="http://www.w3.org/1999/xlink" xml:space="preserve" xmlns:serif="http://www.serif.com/" style="fill-rule:evenodd;clip-rule:evenodd;stroke-linejoin:round;stroke-miterlimit:2;"><path id="base" d="M150,75c0,-41.394 -33.606,-75 -75,-75c-41.394,0 -75,33.606 -75,75c0,41.394 33.606,75 75,75c41.394,0 75,-33.606 75,-75Z" style="fill:#00b894;"/><path id="outline" d="M144,75c0,-38.082 -30.918,-69 -69,-69c-38.082,0 -69,30.918 -69,69c0,38.082 30.918,69 69,69c38.082,0 69,-30.918 69,-69Z" style="fill:#dfe6e9;"/><path id="core" d="M141,75c0,-36.426 -29.574,-66 -66,-66c-36.426,0 -66,29.574 -66,66c0,36.426 29.574,66 66,66c36.426,0 66,-29.574 66,-66Z" style="fill:#81ecec;"/><clipPath id="_clip1"><path d="M141,75c0,-36.426 -29.574,-66 -66,-66c-36.426,0 -66,29.574 -66,66c0,36.426 29.574,66 66,66c36.426,0 66,-29.574 66,-66Z"/></clipPath><g clip-path="url(#_clip1)"><g id="peacock-gudgeon"><path d="M15.848,60.225c-0,-0 -0.361,-0.722 -0.061,-1.263c0.301,-0.541 1.623,-1.803 2.285,-2.224c0.661,-0.42 2.224,-1.142 3.426,-1.563c1.202,-0.42 1.803,-0.48 3.006,-0.841c1.202,-0.361 3.125,-0.842 3.787,-0.962c0.661,-0.12 3.185,-0.24 4.748,-0.3c1.563,-0.061 4.148,0.06 5.17,0.18c1.022,0.12 1.202,0.18 3.306,0.12c2.104,-0.06 3.787,0.12 4.689,-0.3c0.901,-0.421 1.562,-2.164 2.284,-2.826c0.721,-0.661 2.585,-1.803 3.546,-2.043c0.962,-0.241 1.263,-0.241 2.465,-0.782c1.202,-0.541 1.503,-0.481 2.765,-0.721c1.262,-0.241 2.104,-0.241 2.885,-0.301c0.782,-0.06 1.082,-0.3 2.044,-0.24c0.962,0.06 0.421,0.18 1.623,0.781c1.202,0.601 1.142,0.06 1.323,0.962c0.18,0.902 -0.361,1.984 -0.842,2.945c-0.481,0.962 0.18,1.263 -0.24,1.684c-0.421,0.42 -1.383,0.841 -1.323,2.464c0,0 1.743,0.361 2.405,0.601c-0,0 2.404,-1.563 3.245,-2.104c0.842,-0.541 3.186,-2.224 4.148,-2.224c0.962,0 3.186,-0.901 4.268,-1.082c1.082,-0.18 4.328,0.241 5.35,0.962c1.022,0.721 6.732,4.268 9.017,5.109c2.284,0.842 10.819,3.968 12.623,4.569c1.803,0.601 11.661,4.689 11.661,5.771c0,-0 -0.42,0.06 -3.186,0.841c-2.765,0.782 -1.021,1.022 -1.021,1.022c-0,-0 3.726,-0.421 5.229,-0.361c1.503,0.06 4.989,0.421 7.394,0.782c2.404,0.36 2.825,0.962 4.087,0.841c1.263,-0.12 3.487,-0.601 4.449,0.181c0.961,0.781 3.005,4.268 2.885,6.311c-0.12,2.044 2.765,5.651 1.623,7.815c-1.142,2.164 -1.563,5.891 -4.448,8.055c-2.886,2.164 -6.011,3.967 -7.755,3.787c-1.743,-0.181 -5.41,-1.563 -6.672,-2.225c-1.262,-0.661 -4.328,-0.12 -6.011,-1.562c-1.683,-1.443 -5.29,-4.93 -6.492,-6.252c-1.202,-1.322 -2.404,-4.689 -12.082,-6.071c-0,-0 6.672,4.628 7.213,5.65c0.541,1.022 2.585,4.268 2.465,5.651c-0.121,1.382 -0.481,1.082 -2.705,0.721c-2.225,-0.361 -8.777,-1.262 -12.083,-1.443c-3.306,-0.18 -13.284,-0.481 -17.492,-0.601c-4.208,-0.12 -9.798,-1.683 -10.7,-3.606c-0.901,-1.924 -0.42,-3.126 -0.12,-4.449c0.301,-1.322 1.383,-2.224 -0.06,-2.584c-1.443,-0.361 -0.601,0.24 -2.585,0.36c-1.983,0.12 -3.667,-0.3 -3.667,-0.3c0,-0 1.623,1.803 2.225,1.923c0.601,0.12 -3.186,0.722 -3.848,0.722c-0.661,-0 -2.885,-1.263 -2.885,-1.263c0,0 -0.12,0.241 0.782,1.202c0.901,0.962 0.3,0.602 0.721,1.443c0.421,0.842 -0.241,0.962 -0,1.803c0.24,0.842 0.24,1.744 -0.241,0.962c-0.48,-0.781 -0.661,0.541 -1.322,-0.721c-0.661,-1.262 -1.262,0.601 -1.383,-0.241c-0.12,-0.841 -1.082,-1.262 -1.082,-1.262l-1.082,-1.563c0,0 0.481,2.465 0.541,3.427c0.061,0.961 -0.48,-0.782 -0.48,0.601c-0,1.382 -0.481,1.743 -0.602,2.524c-0.12,0.782 -0.3,-2.043 -0.36,-0.901c-0.06,1.142 -0.541,1.983 -0.661,2.705c-0.121,0.721 -0.662,-6.011 -0.842,-4.869c-0.18,1.142 -1.022,4.508 -0.842,2.765c0.181,-1.743 -0.12,-0 -0.24,-1.443c-0.12,-1.443 -0.421,1.443 -0.481,0.721c-0.06,-0.721 0.301,-0.24 -0.06,-1.983c-0.361,-1.743 -0.781,-3.126 -1.202,-4.328c-0.421,-1.202 -0.06,-2.645 -1.323,-3.907c-1.262,-1.263 -2.584,-1.804 -4.929,-2.826c-2.344,-1.021 -3.666,-1.322 -6.011,-1.983c-2.344,-0.661 -3.126,-1.503 -5.47,-2.705c-2.344,-1.202 -5.41,-3.847 -6.191,-4.689c-0.782,-0.841 -1.864,-2.344 -2.164,-3.486c-0.301,-1.142 -0.481,-1.443 0.481,-1.804c0.961,-0.36 0.3,-0.18 1.082,0.241Z" style="fill:#8e83a3;"/><clipPath id="_clip2"><path d="M15.848,60.225c-0,-0 -0.361,-0.722 -0.061,-1.263c0.301,-0.541 1.623,-1.803 2.285,-2.224c0.661,-0.42 2.224,-1.142 3.426,-1.563c1.202,-0.42 1.803,-0.48 3.006,-0.841c1.202,-0.361 3.125,-0.842 3.787,-0.962c0.661,-0.12 3.185,-0.24 4.748,-0.3c1.563,-0.061 4.148,0.06 5.17,0.18c1.022,0.12 1.202,0.18 3.306,0.12c2.104,-0.06 3.787,0.12 4.689,-0.3c0.901,-0.421 1.562,-2.164 2.284,-2.826c0.721,-0.661 2.585,-1.803 3.546,-2.043c0.962,-0.241 1.263,-0.241 2.465,-0.782c1.202,-0.541 1.503,-0.481 2.765,-0.721c1.262,-0.241 2.104,-0.241 2.885,-0.301c0.782,-0.06 1.082,-0.3 2.044,-0.24c0.962,0.06 0.421,0.18 1.623,0.781c1.202,0.601 1.142,0.06 1.323,0.962c0.18,0.902 -0.361,1.984 -0.842,2.945c-0.481,0.962 0.18,1.263 -0.24,1.684c-0.421,0.42 -1.383,0.841 -1.323,2.464c0,0 1.743,0.361 2.405,0.601c-0,0 2.404,-1.563 3.245,-2.104c0.842,-0.541 3.186,-2.224 4.148,-2.224c0.962,0 3.186,-0.901 4.268,-1.082c1.082,-0.18 4.328,0.241 5.35,0.962c1.022,0.721 6.732,4.268 9.017,5.109c2.284,0.842 10.819,3.968 12.623,4.569c1.803,0.601 11.661,4.689 11.661,5.771c0,-0 -0.42,0.06 -3.186,0.841c-2.765,0.782 -1.021,1.022 -1.021,1.022c-0,-0 3.726,-0.421 5.229,-0.361c1.503,0.06 4.989,0.421 7.394,0.782c2.404,0.36 2.825,0.962 4.087,0.841c1.263,-0.12 3.487,-0.601 4.449,0.181c0.961,0.781 3.005,4.268 2.885,6.311c-0.12,2.044 2.765,5.651 1.623,7.815c-1.142,2.164 -1.563,5.891 -4.448,8.055c-2.886,2.164 -6.011,3.967 -7.755,3.787c-1.743,-0.181 -5.41,-1.563 -6.672,-2.225c-1.262,-0.661 -4.328,-0.12 -6.011,-1.562c-1.683,-1.443 -5.29,-4.93 -6.492,-6.252c-1.202,-1.322 -2.404,-4.689 -12.082,-6.071c-0,-0 6.672,4.628 7.213,5.65c0.541,1.022 2.585,4.268 2.465,5.651c-0.121,1.382 -0.481,1.082 -2.705,0.721c-2.225,-0.361 -8.777,-1.262 -12.083,-1.443c-3.306,-0.18 -13.284,-0.481 -17.492,-0.601c-4.208,-0.12 -9.798,-1.683 -10.7,-3.606c-0.901,-1.924 -0.42,-3.126 -0.12,-4.449c0.301,-1.322 1.383,-2.224 -0.06,-2.584c-1.443,-0.361 -0.601,0.24 -2.585,0.36c-1.983,0.12 -3.667,-0.3 -3.667,-0.3c0,-0 1.623,1.803 2.225,1.923c0.601,0.12 -3.186,0.722 -3.848,0.722c-0.661,-0 -2.885,-1.263 -2.885,-1.263c0,0 -0.12,0.241 0.782,1.202c0.901,0.962 0.3,0.602 0.721,1.443c0.421,0.842 -0.241,0.962 -0,1.803c0.24,0.842 0.24,1.744 -0.241,0.962c-0.48,-0.781 -0.661,0.541 -1.322,-0.721c-0.661,-1.262 -1.262,0.601 -1.383,-0.241c-0.12,-0.841 -1.082,-1.262 -1.082,-1.262l-1.082,-1.563c0,0 0.481,2.465 0.541,3.427c0.061,0.961 -0.48,-0.782 -0.48,0.601c-0,1.382 -0.481,1.743 -0.602,2.524c-0.12,0.782 -0.3,-2.043 -0.36,-0.901c-0.06,1.142 -0.541,1.983 -0.661,2.705c-0.121,0.721 -0.662,-6.011 -0.842,-4.869c-0.18,1.142 -1.022,4.508 -0.842,2.765c0.181,-1.743 -0.12,-0 -0.24,-1.443c-0.12,-1.443 -0.421,1.443 -0.481,0.721c-0.06,-0.721 0.301,-0.24 -0.06,-1.983c-0.361,-1.743 -0.781,-3.126 -1.202,-4.328c-0.421,-1.202 -0.06,-2.645 -1.323,-3.907c-1.262,-1.263 -2.584,-1.804 -4.929,-2.826c-2.344,-1.021 -3.666,-1.322 -6.011,-1.983c-2.344,-0.661 -3.126,-1.503 -5.47,-2.705c-2.344,-1.202 -5.41,-3.847 -6.191,-4.689c-0.782,-0.841 -1.864,-2.344 -2.164,-3.486c-0.301,-1.142 -0.481,-1.443 0.481,-1.804c0.961,-0.36 0.3,-0.18 1.082,0.241Z"/></clipPath><g clip-path="url(#_clip2)"><path d="M99.702,74.772c-0.063,-1.709 -0.841,-3.126 -7.213,-4.569c-6.372,-1.442 -13.285,-3.486 -16.29,-4.749c-3.006,-1.262 -3.967,-1.683 -9.498,-3.185c-5.53,-1.503 -7.033,-1.684 -10.639,-2.104c-3.607,-0.421 -6.011,-0.241 -8.596,-0.06c-2.585,0.18 -5.951,0.36 -7.334,1.202c-1.382,0.841 -2.825,2.404 -2.825,3.486c0,1.082 -0.721,2.164 1.202,2.585c1.924,0.421 3.126,0.962 3.066,1.623c-0.06,0.661 -0.361,1.863 0.06,3.126c0.421,1.262 -0.12,2.104 1.683,3.366c1.804,1.262 2.525,1.503 3.847,1.863c1.323,0.361 3.487,0.722 4.749,0.902c1.262,0.18 1.924,0.421 3.487,0.842c1.562,0.42 5.127,6.211 6.149,6.752c1.022,0.541 70.148,15.551 71.59,15.792c1.443,0.24 6.019,-35.71 3.615,-36.432c-2.405,-0.721 -73.498,-27.029 -75.843,-26.849c-2.344,0.18 -25.949,11.523 -29.796,12.004c-3.847,0.48 -8.055,0.3 -12.203,1.502c-4.147,1.203 -9.738,3.006 -10.7,4.569c-0.961,1.563 0.301,10.279 2.225,11.421c1.923,1.142 7.153,2.525 6.792,0.962c-0.361,-1.563 -0.781,-3.427 -1.082,-4.088c-0.3,-0.661 -1.024,-2.071 -1.163,-2.849c-0.34,-1.9 1.044,-1.34 1.044,-1.34c-0,0 0.054,-1.161 0.595,-1.762c0.541,-0.601 1.689,-1.292 1.689,-1.292c-0,0 0.728,-0.5 1.998,-1.105c1.396,-0.664 1.341,-0.507 2.321,-0.812c0.981,-0.306 1.26,-0.44 2.35,-0.826c1.233,-0.437 1.724,-0.351 2.806,-0.591c1.082,-0.241 2.17,-0.371 2.951,-0.431c0.781,-0.06 2.327,-0.063 3.365,-0.074c1.48,-0.015 1.628,-0.186 4.056,-0.078c2.474,0.11 3.886,-0.005 5.208,-0.005c1.323,-0 0.251,-0.076 3.016,-0.136c2.765,-0.06 2.404,-0.06 3.667,0.181c1.262,0.24 1.382,0.3 4.087,0.48c2.705,0.181 2.224,0.181 5.11,0.662c2.885,0.481 1.502,0.06 3.727,0.661c2.224,0.601 4.388,1.022 5.53,1.503c1.142,0.481 2.464,0.721 4.027,1.322c1.563,0.601 4.148,1.563 6.011,2.284c1.864,0.722 4.388,1.623 5.771,2.104c1.382,0.481 2.945,1.202 5.109,2.104c2.164,0.902 0.481,0.361 4.509,1.683c4.027,1.323 4.568,1.503 6.612,1.984c2.044,0.481 1.322,0.361 3.667,0.841c2.344,0.481 2.464,0.121 3.065,0.481c0.601,0.361 1.804,-0.601 1.743,0.662c-0.06,1.262 0.181,1.142 -0.601,2.103c-0.781,0.962 -0.481,1.203 -0.901,2.285c-0.421,1.082 -0.722,1.803 -1.203,2.404c-0.48,0.601 -1.322,0.842 -1.863,1.803c-0.541,0.962 0.18,0.481 -1.022,1.263c-1.202,0.781 -1.503,0.961 -3.246,0.961c-1.743,0 -2.284,0.061 -4.208,0.121c-1.923,0.06 -2.043,-0 -4.087,0.06c-2.044,0.06 -3.126,-0.181 -5.47,-0.301c-2.345,-0.12 -5.771,-0.421 -6.372,-0.421c-0.601,0 -2.585,-0.12 -4.208,-0.3c-1.623,-0.18 -2.164,-0.241 -4.388,-0.361c-2.224,-0.12 -1.863,-0.18 -4.087,-0.18c-2.224,-0 -3.126,-0.18 -4.749,-0.241c-1.623,-0.06 -2.525,0.121 -3.246,0.061c-0.721,-0.061 -1.383,-0.421 -1.984,-0.662c-0.601,-0.24 -0.421,-0.18 -3.005,-1.082c-2.585,-0.901 -3.126,-1.803 -4.869,-3.005c-1.744,-1.202 -3.667,-1.984 -4.268,-2.885c-0.601,-0.902 -1.683,-1.503 -1.864,-2.645c-0.18,-1.142 -0.961,-1.563 0.181,-1.804c1.142,-0.24 1.923,-0.42 3.125,0.121c1.203,0.541 1.323,1.322 2.525,1.983c1.202,0.661 1.683,0.722 2.946,0.782c1.262,0.06 1.382,-1.683 2.404,-1.683c1.022,-0 0.18,0.12 1.743,1.082c1.563,0.961 2.104,1.202 3.366,1.322c1.263,0.12 0.241,-0.541 2.946,0.18c2.705,0.722 2.164,1.323 3.486,2.224c1.323,0.902 2.164,1.323 3.667,2.044c1.503,0.722 2.585,1.262 3.366,1.383c0.782,0.12 0.421,0.06 3.607,0.36c3.186,0.301 4.809,0.481 6.251,0.601c1.443,0.121 2.705,0.181 4.809,0.361c2.104,0.18 3.968,0.18 4.749,0.301c0.782,0.12 3.787,-0.601 4.508,-0.842c0.722,-0.24 2.705,-1.382 2.645,-3.005Z" style="fill:#58a1e9;"/><path d="M44.941,51.208c0,0 14.908,-3.306 23.203,-0.18c8.295,3.126 41.056,15.388 44.783,17.131c3.727,1.744 12.923,3.487 15.568,4.99c2.645,1.502 5.23,7.333 3.306,11.24c-1.923,3.908 -5.89,8.356 -9.497,7.454c-3.607,-0.902 -11.06,-3.607 -13.645,-4.027c-2.585,-0.421 -4.809,0.481 -15.328,-0.361c-10.52,-0.842 -18.575,-2.284 -24.766,-3.066c-6.192,-0.781 -8.656,-1.082 -9.979,-1.142c-1.322,-0.06 -0.36,8.416 -0.36,8.416l81.871,9.197l-1.503,-35.225l-91.849,-27.771l-1.804,13.344Zm58.417,24.708c0.352,-0.703 0.156,-1.746 -0.582,-1.979c-0.737,-0.233 -1.94,-0.077 -1.474,-1.009c0.466,-0.931 1.397,-1.551 2.328,-1.978c0.931,-0.427 2.328,-0.078 3.337,-0.505c1.008,-0.426 2.095,0.388 1.978,1.32c-0.116,0.931 -2.211,1.978 -2.871,2.172c-0.659,0.194 -2.134,0.66 -2.172,1.125c-0.039,0.466 0.116,1.242 0.388,1.863c0.271,0.62 0.931,1.202 0.388,1.862c-0.544,0.66 -3.454,1.785 -3.919,1.513c-0.466,-0.271 -0.621,-1.358 -0.155,-2.017c0.465,-0.66 2.211,-1.281 2.754,-2.367Z" style="fill:#f5fd6b;"/></g><path d="M110.808,85.344c-0.421,-0.31 -0.97,-1.125 -0.97,-1.125c-0,-0 0.659,-0.233 1.047,-0.311c0.388,-0.077 1.242,0.117 1.242,0.117c-0,-0 0.892,0.31 1.397,0.892c0.504,0.582 1.823,2.522 1.823,2.522c0,0 -2.444,-2.561 -3.104,-2.677c-0.659,-0.116 -0.698,1.125 -1.435,0.582Zm6.867,-2.25c0.472,-0.441 2.987,1.008 3.647,1.319c0.66,0.31 1.901,0.194 2.832,0.659c0.931,0.466 2.949,1.707 2.949,1.707c-0,0 -2.832,-0.581 -3.453,-0.931c-0.621,-0.349 -2.25,-0.116 -3.182,-0.737c-0.931,-0.621 -3.375,-1.474 -2.793,-2.017Zm-10.126,1.823c-0.615,0.384 -1.514,0.427 -1.475,-0.543c0.039,-0.97 0.155,-1.785 1.048,-2.018c0.892,-0.232 1.319,0.039 1.435,1.048c0.117,1.009 -0.698,1.319 -1.008,1.513Zm8.496,-0.349c-1.077,0.294 -1.551,-1.009 -1.862,-1.28c-0.31,-0.272 -0.621,-0.621 -0.815,-1.358c-0.194,-0.737 -0.698,-1.319 -0.698,-1.319c-0,-0 -0.272,-1.708 0.621,-1.048c0.892,0.66 1.94,0.543 1.746,1.086c-0.194,0.544 -1.087,0.466 -0.388,1.087c0.698,0.62 1.746,1.28 1.823,1.707c0.078,0.427 0,1.009 -0.427,1.125Zm1.63,-3.298c0.33,-0.571 2.638,0.621 3.569,0.97c0.932,0.349 4.617,2.018 4.617,2.018c0,-0 -4.811,-1.164 -5.315,-1.514c-0.504,-0.349 -3.453,-0.465 -2.871,-1.474Zm-16.877,-0.892c-0.369,-0.406 -0.893,-0.349 -1.203,-1.203c-0.31,-0.854 -0.543,-1.862 -0.349,-2.444c0.194,-0.582 0.465,-0.155 0.659,-1.242c0.194,-1.086 0.233,-1.241 0.194,-2.134c-0.038,-0.892 -0.659,-0.97 0.117,-1.59c0.776,-0.621 0.97,-0.815 2.211,-1.32c1.242,-0.504 2.6,-0.388 1.669,0.039c-0.932,0.427 -2.018,0.582 -2.367,1.087c-0.349,0.504 -0.737,0.543 -0.427,1.086c0.31,0.543 0.776,0.465 1.164,0.97c0.388,0.504 0.116,0.97 -0.466,1.668c-0.582,0.699 -0.388,0.66 -0.931,0.893c-0.543,0.232 -1.164,0.155 -0.814,1.551c0.349,1.397 0.775,2.134 1.435,2.6c0.66,0.466 1.513,0.698 1.862,1.242c0.35,0.543 0.66,1.668 0.66,1.668c-0,-0 -0.349,-0.155 -0.776,-0.505c-0.427,-0.349 -0.621,-0.814 -1.28,-1.241c-0.66,-0.427 -0.97,-0.698 -1.358,-1.125Zm19.36,-0.155c0.118,-0.565 2.794,0.116 3.453,0.582c0.66,0.465 5.199,1.862 5.199,1.862c0,-0 -4.966,-0.621 -5.587,-1.086c-0.621,-0.466 -3.259,-0.427 -3.065,-1.358Zm-8.962,1.901c-0.638,0.319 -0.272,-0.621 -1.203,-0.505c-0.931,0.117 -2.173,-0.232 -1.591,-0.737c0.582,-0.504 1.087,-1.125 1.669,-1.009c0.581,0.117 1.551,-0.232 1.474,0.932c-0.078,1.163 0.116,1.086 -0.349,1.319Zm7.078,-1.98c-0.222,0.328 0.619,0.029 -0.405,-0.077c-1.125,-0.116 -1.901,-0.504 -1.901,-0.504c-0,-0 0.465,-0.543 -0.078,-1.28c-0.543,-0.738 -0.931,-1.126 -1.319,-1.087c-0.388,0.039 0.078,0.543 -0.931,0.737c-1.009,0.194 -1.474,0.311 -1.668,-0.194c-0.194,-0.504 -0.699,-1.008 -0,-1.435c0.698,-0.427 0.582,-0.66 1.94,-0.388c1.357,0.272 2.017,0.427 2.366,0.427c0.349,-0 0.117,-0.543 0.582,-1.009c0.466,-0.466 0.893,-0.698 1.94,-0c1.048,0.698 2.095,0.427 1.358,0.97c-0.737,0.543 -2.444,-0.466 -2.522,0.621c-0.077,1.086 1.242,2.599 0.737,3.104c-0.045,0.045 -0.077,0.083 -0.099,0.115l0,0Zm1.612,-1.978c0.085,-0.645 2.872,-0.504 4.113,0.039c1.242,0.543 5.509,1.668 5.509,1.668c0,0 -5.121,-0.426 -6.052,-0.582c-0.931,-0.155 -3.686,-0.232 -3.57,-1.125Zm-22.619,-5.16c-0.589,-0.786 -1.358,-0.194 -1.785,0.349c-0.426,0.543 -0.543,-0.155 -0.582,0.893c-0.038,1.047 0.194,0.892 0.117,1.435c-0.078,0.543 -0.427,0.621 -0.427,1.242c-0,0.62 -0.116,0.737 0.466,1.008c0.582,0.272 1.435,0.233 1.435,0.233c0,0 -0.039,-1.009 -0.427,-1.552c-0.388,-0.543 -0.814,-0.504 -0.465,-1.319c0.349,-0.815 0.155,-0.776 0.659,-0.97c0.505,-0.194 1.707,-0.388 1.009,-1.319Zm-5.277,5.044c-0.689,0.115 -0.776,-0 -0.659,-0.699c0.116,-0.698 -0.078,-0.426 0.233,-1.357c0.31,-0.932 0.116,-1.475 0.582,-1.164c0.465,0.31 0.892,0.426 0.543,0.892c-0.349,0.466 -0.621,0.272 -0.505,0.66c0.117,0.388 0.505,0.737 0.505,0.737c-0,-0 -0,0.814 -0.699,0.931Zm-9.699,-0.155c-0.482,0.214 -0.97,-0.039 -0.621,-0.505c0.349,-0.465 0.233,-0.737 0.737,-0.543c0.505,0.194 0.97,-0.465 0.582,0.31c-0.388,0.776 -0.349,0.582 -0.698,0.738Zm-4.85,-0.854c-0.528,0.106 0.349,0 0.504,-0.853c0.156,-0.854 0.156,-0.427 0.194,-1.397c0.039,-0.97 0.078,-1.901 0.699,-2.677c0.621,-0.776 0.504,-0.97 1.047,-0.66c0.544,0.311 0.97,0.931 0.66,1.358c-0.31,0.427 -1.009,-0.116 -1.319,0.582c-0.311,0.698 -0.194,0.776 0.116,1.125c0.311,0.349 0.233,1.669 0.233,1.669c-0,-0 0.698,-0.039 -0.039,0.465c-0.737,0.504 -1.513,0.272 -2.095,0.388Zm-1.94,-5.509l-0.931,-0c-0,-0 -0.815,0.116 -1.125,0.892c-0.311,0.776 0.155,1.048 0.31,1.436c0.155,0.388 0.194,0.814 -0.077,1.086c-0.272,0.272 -0.078,-0.039 -0.35,0.543c-0.271,0.582 -0.465,1.785 -0.038,1.513c0.426,-0.271 0.038,-0.776 0.892,-0.737c0.854,0.039 2.25,-0.116 1.746,-0.97c-0.504,-0.853 -0.388,-0.853 -0.776,-1.397c-0.388,-0.543 -0.466,-0.814 -0,-1.552c0.466,-0.737 0.233,-0.155 0.349,-0.814Zm12.26,5.431c0,0 -0.62,-0.193 -0.931,-0.465c-0.31,-0.272 -0.698,-0.776 -0.465,-1.28c0.232,-0.505 0.038,-0.815 0.504,-0.97c0.466,-0.156 0.466,0.077 0.854,0.737c0.388,0.659 0.232,1.241 0.232,1.241c0,0 0,-0.271 -0.194,0.737Zm34.104,-0.814c-0.635,-0.582 0.311,-1.009 1.048,-0.737c0.737,0.271 2.017,0.465 1.241,0.931c-0.776,0.465 -1.823,0.233 -2.289,-0.194Zm-52.998,-0.311c-0.552,0.368 -0.854,-0.31 -0.156,-0.776c0.699,-0.465 0.621,-0.504 1.242,-0.737c0.621,-0.233 0.543,-0.931 0.931,-0.31c0.388,0.621 0.66,1.125 0.078,0.931c-0.582,-0.194 -0.194,-0.427 -0.621,-0.233c-0.427,0.194 -1.242,0.97 -1.474,1.125Zm14.161,-0.116c0.216,0.562 -0.97,-0.582 -0.97,-0.582c0,-0 -0.504,-0.078 -0.039,-0.815c0.466,-0.737 1.009,-1.474 1.242,-1.086c0.233,0.388 0.621,0.621 0.31,1.397c-0.31,0.776 -0.737,0.582 -0.543,1.086Zm-17.498,-0.504c-0.623,0.692 -0.543,-0.194 0.233,-1.397c0.776,-1.203 0.892,-1.242 0.892,-1.242c0,0 0.892,-0.116 0.66,0.931c-0.233,1.048 -0.156,0.97 -0.466,1.164c-0.31,0.194 -0.97,0.156 -1.319,0.544Zm55.249,-0.505c-0.746,0.075 -1.28,-0.504 -0.815,-0.776c0.466,-0.271 -0.116,-0.582 0.892,-0.349c1.009,0.233 1.358,0.621 0.854,0.854c-0.504,0.232 -0.543,0.232 -0.931,0.271Zm-9.389,-0.97c-0.425,-0.602 -0.078,-0.659 0.659,-1.009c0.737,-0.349 0.078,0 1.009,-0.582c0.931,-0.581 0.815,-0.969 1.513,-0.775c0.698,0.194 1.048,-0.35 1.785,-0c0.737,0.349 -0.117,1.047 -0.815,1.319c-0.698,0.271 0.892,0.349 -0.427,0.853c-1.319,0.505 -2.211,0.505 -2.948,0.66c-0.738,0.155 -0.311,0.194 -0.776,-0.466Zm-18.51,-0.141c-0.015,-0.032 -0.092,-0.045 -0.463,0.296c-0.365,0.337 -0.349,0.233 -0.349,-0.543c0,-0.776 -0.155,-1.629 0.116,-2.056c0.272,-0.427 0.932,-0.698 1.048,-0.039c0.116,0.66 0.116,0.621 -0.155,1.203c-0.239,0.511 -0.208,1.021 -0.197,1.139c0.006,0.011 0.003,0.025 0.003,0.025c-0,-0 -0.001,-0.009 -0.003,-0.025Zm24.834,0.335c-0.739,0.055 -1.125,0.078 -0.97,-0.349c0.155,-0.427 -0.117,-0.504 0.737,-0.931c0.854,-0.427 1.824,-0.582 1.552,-0.117c-0.272,0.466 -0.272,1.32 -1.319,1.397Zm-55.172,-0.737c-0.387,-0.272 -0.62,-0.621 -0.426,-1.086c0.194,-0.466 -0.233,-0.466 0.465,-0.737c0.699,-0.272 1.125,-0.35 1.552,-0.621c0.427,-0.272 1.513,0.039 0.194,0.815c-1.319,0.775 -1.28,0.426 -1.435,0.853c-0.156,0.427 0.038,1.048 -0.35,0.776Zm7.256,-0.272c-0.802,0.552 -1.319,-2.017 -0.311,-2.483c1.009,-0.465 1.242,-0.271 1.281,0.272c0.039,0.543 -0.349,1.785 -0.97,2.211Zm20.253,-5.897c-0.524,-0.999 -0.427,-0.776 -1.242,0.117c-0.815,0.892 -0.66,0.193 -0.97,1.125c-0.31,0.931 -0.815,1.552 -0.582,2.599c0.233,1.048 0.078,1.746 0.66,1.979c0.582,0.233 1.358,-0.815 1.164,-1.319c-0.194,-0.505 -0.194,-0.194 -0.35,-0.931c-0.155,-0.738 -0.698,-0.388 -0.155,-1.242c0.543,-0.854 0.737,-1.048 0.737,-1.048c0,0 1.164,-0.465 0.738,-1.28Zm-5.898,4.734c-0.613,0.334 -1.047,0.232 -1.125,-0.466c-0.078,-0.698 -0.233,-1.862 0.427,-1.94c0.659,-0.078 0.659,-0.543 1.164,0.078c0.504,0.62 0.737,1.125 0.465,1.552c-0.271,0.426 -0.504,0.543 -0.931,0.776Zm27.237,-0.233c-0.74,0.098 -1.126,-0.117 -0.97,-0.737c0.155,-0.621 0.116,-1.436 1.047,-1.591c0.931,-0.155 1.087,-0.272 1.94,-0c0.854,0.271 2.6,0.077 1.319,0.776c-1.28,0.698 -2.211,1.28 -2.677,1.513c-0.465,0.233 -0.077,-0.039 -0.659,0.039Zm-45.278,-0.621c-0.53,0.227 -0.31,-1.125 -0,-1.474c0.31,-0.35 0.349,-0.311 0.582,-0.738c0.233,-0.426 0.465,-0.853 0.465,-0.853c0,-0 0.35,-0.466 0.466,0.194c0.116,0.659 0.31,0.698 0.116,1.203c-0.194,0.504 -0.155,0.388 -0.504,0.776c-0.349,0.388 -0.853,0.776 -1.125,0.892Zm31.504,-0.427c-0.388,-0.427 -0.659,-0.853 -0.31,-1.047c0.349,-0.194 0.659,-0.582 1.203,-0.311c0.543,0.272 0.232,0.97 -0.117,1.164c-0.349,0.194 -0.388,0.621 -0.776,0.194Zm-40.117,0.078c-0,-0 -0.815,-0.194 -0.311,-1.125c0.505,-0.932 0.543,-0.738 0.699,-1.358c0.155,-0.621 -0.156,-1.824 -0.311,-2.289c-0.155,-0.466 0,-0.427 0.233,-0.932c0.233,-0.504 0.504,-0.814 0.582,-1.396c0.078,-0.582 0.272,-1.048 0.272,-1.048c-0,0 0.232,-0.543 0.116,-1.086c-0.116,-0.543 -0.388,-0.272 -0.039,-1.164c0.349,-0.893 0.699,-1.475 0.776,-0.699c0.078,0.776 -0.077,1.242 0.311,1.708c0.388,0.465 0.892,0.155 0.582,1.164c-0.311,1.008 -0.854,1.513 -0.854,1.513c0,-0 -0.388,0.077 -0.427,0.737c-0.039,0.659 -0.233,0.892 0.117,1.125c0.349,0.233 0.388,0.349 0.698,1.086c0.31,0.737 -0.039,1.669 -0.039,1.669l-1.164,0.426c0,0 -0.039,0.35 -0.233,0.738c-0.194,0.388 -0.465,0.853 -1.008,0.931Zm36.625,-0.349c0.454,0.908 -0.97,-0.505 -0.97,-0.505c0,0 -0.194,-0.815 0.505,-1.203c0.698,-0.388 0.349,-0.465 1.009,-0.582c0.659,-0.116 1.551,-0.543 0.892,0.156c-0.66,0.698 -0.931,0.698 -1.203,0.931c-0.271,0.233 -0.349,0.737 -0.349,0.737c-0,-0 -0.039,0.155 0.116,0.466Zm-32.086,-0.117c-0.251,0.653 -0.621,-0.349 -0.155,-1.164c0.465,-0.815 0.388,-0.621 0.504,-1.435c0.117,-0.815 0.155,-1.63 0.699,-1.242c0.543,0.388 0.737,0.311 0.543,1.086c-0.194,0.776 -0.388,0.854 -0.155,1.281c0.232,0.427 0.116,0.737 -0.544,1.047c-0.659,0.311 -0.698,-0.077 -0.892,0.427Zm-9.661,0c0,0 -0.698,0 -0.698,-0.892c-0,-0.893 -0.233,-1.358 0.039,-1.746c0.271,-0.388 0.388,-0.349 0.543,-0.892c0.155,-0.544 0.349,-1.746 0.349,-1.746c0,-0 0.349,-0.466 0.66,-0.815c0.31,-0.349 0.543,-0.66 0.388,-1.281c-0.156,-0.62 0.155,-0.465 -0.233,-1.862c-0.388,-1.397 -0.737,-1.125 -0.427,-1.823c0.31,-0.699 0.349,-0.893 0.66,-1.358c0.31,-0.466 -0.039,-1.009 0.504,-1.125c0.543,-0.117 0.97,0.737 0.582,1.163c-0.388,0.427 -0.582,0.621 -0.776,0.97c-0.194,0.35 -0.155,0.854 0.155,1.126c0.311,0.271 0.349,0.388 0.466,0.97c0.116,0.582 0.194,1.28 0.039,1.745c-0.156,0.466 -0.388,0.893 -0.66,1.242c-0.272,0.349 -0.388,0.388 -0.233,0.931c0.155,0.543 0.349,1.319 0.039,1.979c-0.31,0.659 -0.582,0.155 -0.815,0.931c-0.233,0.776 -0.465,0.388 -0.504,1.164c-0.039,0.776 -0.116,0.737 -0.078,1.319Zm23.435,-0.427c-0.932,0.117 -1.902,-0.077 -1.902,-0.077c0,-0 0.039,-1.087 0.582,-1.707c0.544,-0.621 0.427,-1.358 1.048,-1.048c0.621,0.311 0.854,0.815 0.698,1.358c-0.155,0.543 0.505,1.358 -0.426,1.474Zm3.453,-0.349c-0.553,0.166 0.388,-0.815 0.543,-1.203c0.155,-0.388 0.077,-0.698 0.233,-1.435c0.155,-0.737 0.31,-1.436 0.31,-1.436c-0,0 0.155,-1.125 0.698,-1.435c0.543,-0.311 0.854,-0.194 0.854,-0.194c-0,-0 -0.311,0.465 -0.621,0.853c-0.31,0.388 -0.621,0.621 -0.427,1.126c0.194,0.504 0.505,0.388 0.582,1.008c0.078,0.621 -0.039,1.242 -0.582,1.669c-0.543,0.426 -1.202,0.931 -1.59,1.047Zm-30.69,-0.116c0,-0 -0.039,-1.475 -0.349,-2.018c-0.311,-0.543 -0,-0.465 0.388,-1.086c0.388,-0.621 0.194,-1.125 0.271,-1.668c0.078,-0.544 0.117,-1.009 0.35,-1.708c0.232,-0.698 0.271,-0.271 0.388,-1.357c0.116,-1.087 0.155,-2.018 0.155,-2.018c-0,0 0.233,0.116 0.659,0.621c0.427,0.504 0.815,0.776 0.582,1.241c-0.232,0.466 -0.582,0.97 -0.582,0.97c0,0 -0.038,0.156 -0.155,1.048c-0.116,0.892 -0.465,0.931 -0.465,1.319c-0,0.388 -0.039,0.427 0.155,0.776c0.194,0.349 0.698,0.388 0.31,1.009c-0.388,0.621 -0.659,0.621 -0.659,0.621c-0,-0 -0.233,-0.233 -0.505,0.194c-0.271,0.426 -0.349,1.435 -0.543,2.056Zm48.382,-2.25c-0,-0 0.426,-0.388 1.125,-0.505c0.698,-0.116 1.707,-0.077 1.707,-0.077c-0,-0 -0.31,-0.427 0.582,-0.388c0.892,0.038 1.358,0.31 2.017,0.465c0.66,0.155 0.35,0.039 1.397,0.194c1.048,0.155 1.319,0.039 2.018,0.427c0.698,0.388 0.465,-0.039 1.047,-0.155c0.582,-0.117 0.737,-0.466 1.087,-0.117c0.349,0.35 0.892,0.66 0.892,0.66c-0,-0 -1.203,0.116 -1.785,0.116c-0.582,0 -0.427,0.272 0.078,0.699c0.504,0.426 0.815,0.97 -0.388,0.737c-1.203,-0.233 -1.474,-0.039 -2.056,-0.388c-0.582,-0.349 -1.126,-0.543 -0.039,-0.931c1.086,-0.388 -0.311,-0.466 -1.009,-0.505c-0.698,-0.038 -1.746,-0.116 -2.6,-0.232c-0.853,-0.117 -1.202,-0.427 -1.901,-0.078c-0.698,0.349 -1.28,0.504 -1.28,0.504l-0.892,-0.426Zm-58.508,-0.466c-0,-0 -0.388,-0.039 -0.349,0.621c0.038,0.659 -1.009,1.047 0.349,1.319c1.358,0.271 1.59,0.233 1.94,0.233c0.349,-0 0.698,0.543 0.737,-0c0.039,-0.544 1.047,-0.233 -0.349,-0.97c-1.397,-0.737 -0.854,-0.543 -1.514,-0.815c-0.659,-0.272 -0.232,0.31 -0.814,-0.388Zm33.056,1.707c-0,0 -0.543,0.466 -1.048,0c-0.504,-0.466 -0.737,-1.047 -0.737,-1.513c0,-0.466 -0.039,-1.164 0.388,-1.319c0.427,-0.155 0.931,0.077 1.358,0.543c0.427,0.466 0,0.66 -0.039,1.358c-0.038,0.698 -0.038,0.388 0.078,0.931Zm-47.451,-3.531c0,0 -0.387,0.156 -0.038,0.776c0.349,0.621 -0.776,0.621 0.776,1.087c1.552,0.465 1.047,0.077 1.978,0.582c0.932,0.504 0.505,0.31 1.087,0.582c0.582,0.271 -0.039,0.194 0.659,0.232c0.699,0.039 0.815,-0.543 0.543,-0.814c-0.271,-0.272 -0.232,-0.155 -1.319,-0.543c-1.086,-0.388 -0.582,-0.388 -1.474,-0.621c-0.892,-0.233 -0.582,-0 -1.048,-0.427c-0.465,-0.427 -1.164,-0.854 -1.164,-0.854Zm60.759,2.6c-0.759,0.162 -1.048,-0.039 -0.893,-0.349c0.156,-0.311 -0.543,-0.466 0.35,-0.737c0.892,-0.272 1.125,-0.427 1.28,0.038c0.155,0.466 -0.194,0.932 -0.737,1.048Zm-39.885,-0.116c-0.461,0.167 -0.698,0.232 -0.582,-0.427c0.116,-0.66 -0.233,-0.737 0.31,-0.854c0.544,-0.116 0.621,-0.621 0.815,0.078c0.194,0.698 -0.116,1.047 -0.543,1.203Zm-19.011,-3.609c-0.155,0.194 -0.078,0.66 0.271,0.893c0.35,0.232 1.048,0.349 1.048,0.349c-0,-0 0.272,0.039 0.543,0.31c0.272,0.272 1.28,0.117 1.28,0.117l0.466,-0.427c0,-0 0.349,0.233 0.621,0.504c0.271,0.272 0.853,0.776 0.853,0.776l0.776,0l0.854,0.039c-0,-0 0.388,0.504 0.931,0.349c0.543,-0.155 0.815,-0.271 1.242,-0.388c0.426,-0.116 0.543,-0.155 1.319,-0.271c0.776,-0.117 1.358,-0.35 1.358,-0.35c-0,0 1.396,-0.116 1.28,-0.543c-0.116,-0.427 0,-1.125 -0.543,-1.047c-0.543,0.077 -2.367,0.31 -2.561,0.659c-0.194,0.349 -0.737,0.893 -1.086,0.97c-0.349,0.078 -0.466,-0.465 -1.358,-0.465c-0.892,-0 -0.621,-0.039 -1.242,-0.039c-0.62,-0 -0.426,0.194 -1.086,-0.194c-0.66,-0.388 -0.155,-0.272 -1.125,-0.543c-0.97,-0.272 -0.543,-0.699 -1.203,-0.466c-0.659,0.233 -0.543,0.388 -1.009,0.349c-0.465,-0.039 -1.474,-0.776 -1.629,-0.582Zm78.411,2.677c-0.589,-0.147 -0.892,-0.582 -0.892,-0.582c-0,0 1.63,0 2.173,0.272c0.543,0.272 -0.815,0.427 -1.281,0.31Zm-36.897,-5.703c0.607,-0.434 1.203,-0 0.892,0.815c-0.31,0.815 -1.241,0.621 -0.155,1.125c1.087,0.504 1.436,-0.66 1.281,0.504c-0.156,1.164 -0.078,1.319 -0.427,1.94c-0.349,0.621 -0.272,1.397 -0.893,0.737c-0.62,-0.659 -1.047,-0.931 -1.125,-1.629c-0.077,-0.699 -0.31,-0.543 -0.194,-1.358c0.117,-0.815 0.156,-0.737 0.117,-1.28c-0.039,-0.544 0.232,-0.66 0.504,-0.854Zm23.512,4.151c-0.257,-0.342 -0.194,-1.125 0.659,-1.241c0.854,-0.117 0.932,-0.039 2.096,-0.582c1.164,-0.543 1.707,-0.698 2.211,-0.698c0.504,-0 1.009,0.349 -0.271,0.581c-1.281,0.233 -2.281,0.272 -2.281,0.272c0,-0 1.117,-0.039 0.457,0.427c-0.66,0.465 -1.474,0.892 -0.892,1.203c0.582,0.31 1.086,-0 2.095,-0.078c1.008,-0.078 2.172,-0.388 2.793,-0.233c0.621,0.155 1.746,1.203 0.155,1.203c-1.59,-0 -1.047,0.31 -2.871,0.272c-1.823,-0.039 -1.59,0.194 -2.405,0.038c-0.815,-0.155 -1.397,-0.698 -1.746,-1.164Zm-14.472,0.932c-0.815,-0.194 -1.164,-0.427 -1.086,-1.009c0.077,-0.582 0.349,-0.931 0.659,-1.087c0.311,-0.155 0.272,-0.97 0.466,-0.194c0.194,0.776 -0.039,0.776 0.155,1.32c0.194,0.543 0.621,1.164 -0.194,0.97Zm-20.641,-0.078c-0.422,0.211 -0.737,-0.194 -0.543,-0.737c0.194,-0.543 0,-0.815 0.349,-0.815c0.35,0 0.388,0 0.544,0.388c0.155,0.388 0.038,0.97 -0.35,1.164Zm45.433,-0.349c-0.427,0.116 -0.621,-0.621 0.233,-0.66c0.854,-0.039 2.25,0.039 2.25,0.039c0,0 -0.543,0.931 -1.164,0.854c-0.62,-0.078 -0.892,-0.35 -1.319,-0.233Zm-58.896,-0.388c-0.349,-0.155 -0.349,0.116 -0.465,-0.505c-0.117,-0.62 -0.194,-0.892 0.194,-1.319c0.388,-0.427 0.116,-0.814 0.504,-0.543c0.388,0.272 0.272,0.621 0.543,0.272c0.272,-0.349 0.349,-0.427 0.349,-0.427c0,-0 0.621,0.427 0.117,1.009c-0.505,0.582 -0.737,1.008 -0.737,1.008c-0,0 -0.155,0.66 -0.505,0.505Zm2.755,-0.039c-0.613,0 -0.427,-0.31 -0.272,-0.97c0.156,-0.66 0,-1.009 0.544,-1.474c0.543,-0.466 1.164,-1.397 1.125,-0.194c-0.039,1.202 0.039,1.823 -0.233,2.095c-0.272,0.271 -0.698,0.465 -0.698,0.465c-0,0 -0.117,0.078 -0.466,0.078Zm18.235,-0.543c-0.816,0.251 -1.164,-0.117 -1.086,-0.543c0.077,-0.427 -0.039,-1.164 0.543,-1.591c0.582,-0.427 0.272,-1.086 0.892,-0.621c0.621,0.466 1.203,-0.233 0.97,0.931c-0.232,1.164 -0.116,1.319 -0.582,1.591c-0.465,0.272 -0.232,0.078 -0.737,0.233Zm34.143,-1.087c-0,0 0.621,-0.077 1.241,0c0.621,0.078 1.242,0.117 1.242,0.117c-0,-0 -0.039,0.543 -0.815,0.582c-0.776,0.039 -1.28,-0.466 -1.668,-0.699Zm-64.439,0.495c-0.01,-0.085 -0.107,-0.287 -0.665,-0.65c-0.776,-0.504 -1.241,-0.543 -1.241,-0.543l-1.087,0.427c0,-0 -0.233,0.465 -0.427,0.155c-0.194,-0.31 -0.077,-0.815 -0.077,-0.815c-0,0 0.039,-0.194 0.427,-0.388c0.388,-0.194 -0.272,-0.116 0.892,-0.465c1.164,-0.349 1.28,-0.505 1.862,-0.543c0.582,-0.039 0.505,-0.156 1.164,0.582c0.66,0.737 0.854,0.737 1.436,0.931c0.582,0.194 0.698,0.155 0.621,0.737c-0.078,0.582 0.194,0.815 -0.776,0.659c-0.97,-0.155 -1.397,-0.504 -1.785,-0.349c-0.255,0.102 -0.326,0.204 -0.344,0.262c0.004,0.033 -0.005,0.049 -0.005,0.049c-0,-0 -0.005,-0.019 0.005,-0.049Zm37.629,0.087c0,0 -0.504,-0.776 -0.233,-1.125c0.272,-0.349 0.738,-1.086 0.738,-1.086c-0,-0 0.62,-0.31 0.931,0.582c0.31,0.892 0.931,0.504 0.426,1.047c-0.504,0.544 -1.435,0.582 -1.862,0.582Zm15.752,-0.698c-0.394,-0.375 -0.233,-0.815 1.281,-1.164c1.513,-0.349 1.978,-0.815 2.599,-0.504c0.621,0.31 1.979,0.31 1.979,0.31c-0,0 -0.776,0.699 -2.018,1.009c-1.241,0.31 -1.202,0.077 -1.629,0.388c-0.427,0.31 -1.397,0.737 -2.212,-0.039Zm-58.352,-0.155c-0.388,-0.155 -0.66,-0.272 -0.66,-0.272c-0,0 -0.116,-0.582 0.272,-0.504c0.388,0.078 0.698,0.039 0.62,0.427c-0.077,0.388 0.156,0.504 -0.232,0.349Zm56.063,-0.698c0,-0 -0.815,-0.893 0.66,-1.203c1.474,-0.311 2.172,-0.97 3.026,-1.009c0.854,-0.039 2.406,-0.078 0.194,0.66c-2.211,0.737 -2.91,1.358 -3.414,1.474c-0.505,0.116 -0.466,0.078 -0.466,0.078Zm-43.526,-3.121c0.035,-0.019 0.072,-0.039 0.111,-0.061c1.047,-0.582 0.582,0.078 0.582,0.078c-0,-0 -0.006,0.026 -0.016,0.075l0.016,0.002c-0,0 0.179,1.111 -0.082,1.439c0.045,0.163 0.128,0.209 0.197,0.215c-0.268,0.052 -0.499,0.084 -0.725,0.162c-0.09,0.061 -0.202,0.146 -0.36,0.279c-0.505,0.427 0.155,0.544 -0.776,0.621c-0.931,0.078 -0.97,0 -1.436,-0.271c-0.465,-0.272 -0.62,-0.932 -0.814,-1.087c-0,0 -0.078,-0.853 0.232,-0.698c0.311,0.155 0.311,0.116 0.544,0.427c0.172,0.229 0.302,0.438 0.499,0.373c0.065,-0.138 0.215,-0.26 0.524,-0.576c0.088,-0.144 0.166,-0.26 0.404,-0.413c0.171,-0.159 0.255,-0.198 0.395,-0.249c0.296,-0.185 0.544,-0.338 0.544,-0.338l0.161,0.022Zm37.59,1.258c-0.297,-0.679 -1.164,-0.659 0.388,-1.474c1.552,-0.815 0.854,-0.699 1.785,-0.931c0.931,-0.233 1.629,-0.543 1.978,-0.582c0.35,-0.039 0.776,0.194 0,0.504c-0.776,0.31 -1.008,0.31 -1.513,0.815c-0.504,0.504 -0.853,0.465 -0.776,0.853c0.078,0.388 -0.155,0.544 0.738,0.311c0.892,-0.233 0.543,-0.272 1.202,-0.311c0.66,-0.038 1.009,0.156 1.863,-0.116c0.853,-0.272 0.776,-0.233 1.474,-0.388c0.698,-0.155 1.707,-0.892 1.707,-0.349c0,0.543 0.272,0.853 -0.931,1.047c-1.203,0.194 -1.707,0.194 -2.406,0.505c-0.698,0.31 -0.426,0.077 -1.164,0.659c-0.737,0.582 -1.008,0.582 -1.008,0.582c-0,0 0.349,-0.388 -0.893,-0.543c-1.241,-0.155 -2.172,0.039 -2.444,-0.582Zm15.907,0.66c0.351,-0.028 0.661,0.078 0.772,0.192c0.112,0.114 0.024,0.235 -0.422,0.235c-0.893,-0 -1.32,-0.35 -0.35,-0.427Zm-52.572,-0.194c-0.003,0.002 -0.017,0.009 -0.038,0.015c-0.021,0.006 -0.049,0.011 -0.079,0.009l0.117,-0.024Zm48.576,-0.117c0.306,-0.127 0.937,-0.282 1.408,-0.352c0.472,-0.07 0.784,-0.055 0.454,0.158c-0.659,0.427 -2.327,0.388 -1.862,0.194Zm-44.696,-0.116c-0.543,-0 -1.125,-0.039 -0.814,-0.427c0.31,-0.388 0.426,-0.543 0.814,-1.086c0.388,-0.543 0.776,-1.087 0.97,-1.513c0.194,-0.427 -0.038,0.659 0.078,1.125c0.116,0.465 0.737,0.504 0.854,1.203c0.116,0.698 -0.932,0.892 -1.281,0.853c-0.349,-0.039 -0.077,-0.155 -0.621,-0.155Zm18.158,0.039c-0.678,0.313 -0.698,-0.815 -0.116,-1.319c0.582,-0.505 0.465,-0.505 0.776,-0.738c0.31,-0.232 1.047,-0.465 0.776,0.311c-0.272,0.776 -0.039,0.659 -0.505,1.125c-0.465,0.466 -0.427,0.388 -0.931,0.621Zm10.514,-1.94c-0.78,-0.26 0.388,-0.505 0.932,-0.854c0.543,-0.349 0.659,-0.543 1.086,-0.659c0.427,-0.117 0.582,-0.155 1.164,-0.194c0.582,-0.039 0.233,-0 1.707,-0.272c1.474,-0.271 2.25,-0.504 2.25,-0.504c0,-0 -2.211,1.086 -2.832,1.397c-0.621,0.31 -1.164,0.465 -1.591,0.775c-0.426,0.311 -0.931,0.854 -0.931,0.854c0,0 -1.435,-0.427 -1.785,-0.543Zm-31.038,0.388c-0.503,-0.042 -0.66,0.155 -0.466,-0.66c0.194,-0.814 0.039,-0.582 0.233,-0.97c0.194,-0.388 0.233,-0.504 0.543,-0.698c0.31,-0.194 0.543,0.272 0.31,0.854c-0.232,0.581 -0.465,0.775 -0.271,1.086c0.194,0.31 0.116,0.427 -0.349,0.388Zm40.35,-0.388c0,-0 0.349,-0.621 0.815,-0.621c0.465,0 1.125,0.427 0.465,0.504c-0.659,0.078 -0.62,0.194 -1.28,0.117Zm-13.114,-1.436c1.203,-1.125 0.543,-1.125 1.591,-1.435c1.047,-0.311 0.504,-0.272 1.397,-0.427c0.892,-0.155 0.97,-0.078 1.823,-0.466c0.854,-0.388 1.707,-0.543 1.707,-0.543c0,0 -0.776,0.815 -1.59,1.242c-0.815,0.427 -1.514,0.465 -1.94,0.815c-0.427,0.349 -0.738,0.349 -0.893,0.892c-0.155,0.543 -0.504,1.009 -0.504,1.009c-0,-0 -0.815,-0.388 -1.203,-0.699c-0.388,-0.31 -1.591,0.737 -0.388,-0.388Zm-2.444,-0.426c-0.626,-0 -0.699,-0.699 -0.699,-0.699c0,0 -0.271,-0.427 0.699,-1.047c0.97,-0.621 0.698,-0.66 1.435,-0.97c0.738,-0.311 1.708,-1.048 2.173,-1.048c0.466,0 0.504,0.155 0.504,0.155c0,0 -0.737,0.582 -1.551,1.087c-0.815,0.504 -1.358,0.543 -1.746,1.202c-0.388,0.66 -0.117,0.66 -0.466,0.893c-0.349,0.233 0.116,0.427 -0.349,0.427Zm8.923,-0.35c-0.397,0.08 -0.853,-0.776 0.233,-1.008c1.087,-0.233 1.319,-0.194 1.319,-0.194c0,-0 -0.116,0.582 -0.582,0.737c-0.465,0.155 -0.582,0.388 -0.97,0.465Zm-23.434,-2.017c0,-0.614 -0.155,-0.66 0.388,-1.242c0.543,-0.582 0.194,-0.504 1.009,-1.086c0.815,-0.582 1.746,-1.436 2.949,-1.746c1.202,-0.31 2.017,-0.272 0.931,0.194c-1.087,0.466 -1.552,0.349 -1.901,0.931c-0.349,0.582 -0.893,0.66 -0.66,1.087c0.233,0.426 -0.039,1.202 0.815,0.426c0.853,-0.776 1.668,-1.28 2.367,-1.59c0.698,-0.311 3.026,-1.63 3.297,-1.242c0.272,0.388 -1.28,0.66 -2.405,1.242c-1.125,0.582 -1.785,1.125 -2.173,1.59c-0.388,0.466 -0.62,0.349 -0.659,0.854c-0.039,0.504 -0.349,1.513 -0.97,0.931c-0.621,-0.582 -0.893,-0.892 -0.893,-0.892c0,-0 -0.465,-0.66 -0.737,0.232c-0.271,0.893 -1.358,0.35 -1.358,0.311Zm18.779,0.465c-0.336,-0.122 -0.427,-0.814 0.426,-1.047c0.854,-0.233 1.397,-0.311 1.397,-0.311c0,0 -0.155,0.505 -0.582,0.699c-0.427,0.194 -0.815,0.815 -1.241,0.659Zm-13.696,-0.194c-0.282,-0.219 -0.272,-0.543 0.621,-1.125c0.892,-0.582 1.047,-1.008 2.172,-1.164c1.125,-0.155 1.785,-0.31 1.785,-0.31c0,-0 0.504,0.582 -0.233,0.776c-0.737,0.194 -1.707,0.233 -2.25,0.659c-0.543,0.427 -0.504,0.854 -0.97,1.126c-0.466,0.271 -0.776,0.31 -1.125,0.038Zm-10.323,-1.352c-0.542,-0.132 -0.934,-0.13 -0.812,-0.587c0.155,-0.582 0.194,-1.669 0.814,-0.97c0.129,0.144 0.257,0.295 0.376,0.445c0.095,0.105 0.179,0.216 0.248,0.33c0.302,0.431 0.447,0.784 0.16,0.815c-0.126,0.348 -0.499,0.496 -0.745,0.039c-0.013,-0.024 -0.026,-0.048 -0.041,-0.072Zm2.098,0.033c-0.039,-0.504 0.038,-0.426 0.194,-1.202c0.155,-0.776 -0.233,-1.397 0.698,-1.048c0.931,0.349 0.698,0.737 1.436,0.272c0.737,-0.466 1.319,-1.126 2.017,-1.281c0.698,-0.155 1.785,-0.427 1.086,0.039c-0.698,0.466 -0.931,0.621 -1.784,1.28c-0.854,0.66 -1.552,1.32 -2.057,1.669c-0.504,0.349 -1.552,0.776 -1.59,0.271Z" style="fill:#cf7544;"/><path d="M38.974,76.605c-0,-0 1.374,2.697 1.628,4.427c0.255,1.73 0.814,4.275 1.069,5.649c0.254,1.374 0.407,-0.763 0.56,0.509c0.152,1.272 0.101,1.73 0.101,1.73c0,0 0.458,-1.934 0.713,-2.697c0.254,-0.763 0.254,-1.374 0.407,0.254c0.153,1.629 0.509,4.072 0.509,4.072c-0,-0 0.916,-1.782 0.967,-2.901c0.051,-1.12 0.254,1.374 0.254,1.374c0,-0 0.306,-2.748 -0.051,-4.071c-0.345,-1.282 -0.356,-1.323 -1.73,-2.596c-1.374,-1.272 -0.458,-0.407 -1.323,-1.374c-0.865,-0.967 -2.646,-3.562 -3.104,-4.376Zm2.849,0.61l1.171,1.069c-0,0 0.967,0.763 1.272,1.629c0.306,0.865 0.662,1.17 1.12,1.832c0.458,0.661 0.56,1.475 1.119,1.984c0.56,0.509 0.509,0.662 0.764,1.273c0.254,0.61 0.305,-1.12 0.559,-0.306c0.255,0.814 0.509,0.051 0.764,0.56c0.254,0.509 -0.102,-0.967 0.509,0.254c0.61,1.222 0.56,0.56 1.119,0.916c0.56,0.357 0.713,-0.101 0.458,-1.221c-0.254,-1.119 0.051,-0.916 -0.509,-1.679c-0.559,-0.764 -0.61,-0.967 -1.323,-1.527c-0.712,-0.56 -0.661,-0.56 -1.934,-1.628c-1.272,-1.069 -0.865,-0.967 -2.035,-1.782c-1.171,-0.814 -2.392,-0.966 -3.054,-1.374Z" style="fill:#a48a5a;"/><path d="M105.935,80.399c-0,0 -1.563,-2.914 -1.774,-3.801c-0.211,-0.887 0.084,-1.352 0.76,-1.732c0.676,-0.38 2.788,-1.267 2.788,-1.267c-0,-0 0.084,0.422 0.549,0.76c0.465,0.338 1.394,0.084 1.859,0.507c0.464,0.422 1.14,1.647 0.633,2.408c-0.507,0.76 -1.858,2.281 -1.858,2.281c-0,-0 -0.211,-0.887 -1.014,-0.803c-0.803,0.084 -1.732,0.38 -1.943,1.647Z" style="fill:#151b20;"/></g></g></svg>