<?xml version="1.0" encoding="UTF-8" standalone="no"?><!DOCTYPE svg PUBLIC "-//W3C//DTD SVG 1.1//EN" "http://www.w3.org/Graphics/SVG/1.1/DTD/svg11.dtd"><svg width="100%" height="100%" viewBox="0 0 150 150" version="1.1" xmlns="http://www.w3.org/2000/svg" xmlns:xlink="http://www.w3.org/1999/xlink" xml:space="preserve" xmlns:serif="http://www.serif.com/" style="fill-rule:evenodd;clip-rule:evenodd;stroke-linejoin:round;stroke-miterlimit:2;"><path id="base" d="M150,75c0,-41.394 -33.606,-75 -75,-75c-41.394,0 -75,33.606 -75,75c0,41.394 33.606,75 75,75c41.394,0 75,-33.606 75,-75Z" style="fill:#00b894;"/><path id="outline" d="M144,75c0,-38.082 -30.918,-69 -69,-69c-38.082,0 -69,30.918 -69,69c0,38.082 30.918,69 69,69c38.082,0 69,-30.918 69,-69Z" style="fill:#dfe6e9;"/><path id="core" d="M141,75c0,-36.426 -29.574,-66 -66,-66c-36.426,0 -66,29.574 -66,66c0,36.426 29.574,66 66,66c36.426,0 66,-29.574 66,-66Z" style="fill:#81ecec;"/><clipPath id="_clip1"><path d="M141,75c0,-36.426 -29.574,-66 -66,-66c-36.426,0 -66,29.574 -66,66c0,36.426 29.574,66 66,66c36.426,0 66,-29.574 66,-66Z"/></clipPath><g clip-path="url(#_clip1)"><path id="purple-morgurnda" d="M15.868,65.082c0,0 -0.416,-0.02 -0.812,-0.376c-0.396,-0.357 -0.851,-0.951 -1.208,-0.99c-0.356,-0.04 -1.347,0.831 -1.426,1.327c-0.079,0.495 -0.317,1.267 0.594,2.792c0.911,1.525 3.288,4.179 5.566,5.585c2.277,1.406 7.327,4.496 8.971,5.228c1.644,0.733 3.149,1.466 3.941,1.723c0.792,0.258 2.119,0.416 2.951,0.713c0.832,0.297 4.397,1.585 4.832,2.001c0.436,0.415 0.852,1.683 0.991,2.594c0.138,0.911 0.297,2.258 0.237,2.495c-0.059,0.238 -0.336,0.991 -0.158,1.09c0.178,0.099 0.198,0.099 0.317,0.277c0.119,0.178 0.574,-0.099 0.891,-0.079c0.317,0.02 0.198,0.237 0.198,0.237c-0,0 -0.277,0.198 -0.198,0.456c0.079,0.257 0.119,0.356 0.376,0.535c0.258,0.178 0.436,0.534 0.693,0.693c0.258,0.158 0.377,-0 0.476,0.376c0.099,0.376 -0.198,0.218 0.297,0.673c0.495,0.456 0.435,0.377 0.693,0.614c0.257,0.238 0.238,0.179 0.554,0.495c0.317,0.317 0.099,0.139 0.515,0.515c0.416,0.377 0.159,0.198 0.674,0.535c0.515,0.337 0.297,0.218 0.911,0.535c0.614,0.317 0.257,0.119 0.931,0.436c0.673,0.316 0.356,0.079 1.029,0.455c0.674,0.376 0.575,0.258 1.129,0.614c0.555,0.356 0.753,0.455 1.05,0.594c0.297,0.139 0.832,0.317 1.03,0.376c0.198,0.06 0.534,0.08 0.733,0.397c0.198,0.316 -0.08,0.257 0.316,0.415c0.397,0.159 0.535,0.159 0.911,0.357c0.377,0.198 0.515,0.218 0.951,0.376c0.436,0.159 0.772,0.198 0.772,0.198c0,0 0.099,-0.297 -0.019,-0.495c-0.119,-0.198 -0.238,-0.495 -0.535,-0.891c-0.297,-0.396 -0.495,-0.812 -0.911,-1.367c-0.416,-0.554 -0.475,-0.574 -0.812,-1.069c-0.337,-0.495 -0.297,-0.396 -0.535,-0.772c-0.237,-0.377 -0.416,-0.555 -0.396,-0.931c0.02,-0.377 0,-0.674 0.238,-0.971c0.237,-0.297 0.614,-0.099 0.435,-0.455c-0.178,-0.357 -0.138,-0.436 -0.713,-0.911c-0.574,-0.476 -3.604,-3.545 -4.297,-4.159c-0.693,-0.614 -2.377,-2.159 -2.377,-2.159c0,0 0.06,-1.584 -0.119,-1.941c0,0 3.387,0.575 4.734,0.852c1.347,0.277 5.941,0.812 7.129,1.109c1.189,0.297 8.002,2.594 8.576,3.327c-0,0 -0.654,2 -0.713,2.575c-0.059,0.574 -0.475,1.346 -0,1.861c0.475,0.515 0.693,0.416 0.733,0.773c0.039,0.356 0.158,0.713 0.198,1.03c0.039,0.316 -0.099,0.99 0.376,1.109c0.475,0.118 0.574,-0.02 0.772,0.138c0.198,0.159 0.515,1.01 0.832,1.367c0.317,0.356 0.773,0.634 0.773,0.634l0.614,-0.159c-0,0 0.198,-0.02 0.554,0.317c0.357,0.337 0.753,0.713 0.911,0.792c0.159,0.079 1.228,0.258 1.228,0.258c-0,-0 0.099,-0.436 0.396,-0.238c0.297,0.198 0.277,0.198 0.495,0.317c0.218,0.119 1.268,0.317 1.644,0.396c0.376,0.079 0.396,-0.317 0.634,-0.258c0.237,0.06 0.515,0.258 0.95,0.416c0.436,0.159 0.773,0.278 1.248,0.258c0.475,-0.02 0.555,-0.258 0.931,-0.218c0.376,0.04 1.406,0.356 2,0.455c0.594,0.099 1.347,0.08 1.624,0.08c0.277,-0 0.436,-0.198 0.733,-0.139c0.297,0.059 1.129,0.178 1.644,0.218c0.515,0.04 0.792,-0 1.069,0.02c0.277,0.02 0.06,-0.337 0.376,-0.278c0.317,0.06 2.1,-0.237 2.753,-0.277c0.654,-0.039 3.189,-0.416 4.04,-0.614c0.852,-0.198 2.793,-1.426 3.407,-1.663c0.614,-0.238 1.881,-1.228 2.099,-1.406c0.218,-0.179 0.02,-0.476 0.396,-0.753c0.377,-0.277 0.674,-0.456 0.535,-0.772c-0.139,-0.317 -0.634,-0.634 -0.139,-1.228c0.495,-0.594 0.674,-0.476 0.753,-0.911c0.079,-0.436 0.158,-0.793 0.257,-1.446c0.099,-0.654 -0.158,-0.852 0.08,-1.307c0.237,-0.456 0.356,-0.872 0.574,-0.792c0.218,0.079 1.347,0.653 1.822,1.089c0.475,0.436 1.763,1.386 2.159,1.881c0.396,0.495 0.752,1.367 1.346,2.001c0.595,0.633 1.347,1.663 1.624,2.02c0.278,0.356 0.535,0.673 0.872,1.089c0.336,0.416 0.455,0.653 0.871,1.248c0.416,0.594 1.545,1.782 1.822,2.099c0.277,0.317 0.614,0.733 0.99,1.129c0.377,0.396 1.565,1.129 1.921,1.564c0.357,0.436 0.733,0.773 1.446,1.288c0.713,0.515 1.347,0.871 1.961,1.129c0.614,0.257 2.119,0.613 2.594,0.712c0.476,0.099 2.08,-0.396 2.575,-0.376c0.495,0.02 1.287,0.159 2.119,-0.237c0.832,-0.397 1.664,-0.793 1.98,-1.07c0.317,-0.277 1.466,-1.901 1.822,-2.277c0.357,-0.377 1.426,-1.446 1.724,-1.822c0.297,-0.377 1.029,-1.486 1.326,-1.941c0.297,-0.456 0.773,-1.208 1.05,-1.565c0.277,-0.356 0.812,-0.891 1.03,-1.545c0.218,-0.653 0.455,-1.148 0.634,-1.584c0.178,-0.436 1.445,-1.981 1.564,-2.416c0.119,-0.436 1.03,-3.426 1.089,-3.823c0.06,-0.396 0.515,-3.901 0.515,-4.218c0,-0.317 -0.93,-5.308 -1.247,-5.882c-0.317,-0.574 -2.397,-4.911 -2.912,-5.268c-0.514,-0.356 -3.485,-2.159 -3.921,-2.238c-0.436,-0.079 -1.921,-0.436 -2.357,-0.356c-0.435,0.079 -3.465,0.752 -3.901,0.812c-0.436,0.059 -0.971,0.059 -1.367,0.118c-0.396,0.06 -2.594,0.535 -3.01,0.614c-0.416,0.08 -5.129,0.931 -5.625,1.109c-0.495,0.179 -0.217,0.02 -0.911,0.337c-0.693,0.317 -1.148,0.416 -1.643,0.614c-0.495,0.198 -0.911,0.456 -1.902,0.733c-0.99,0.277 -1.168,0.257 -1.921,0.515c-0.752,0.257 -1.742,0.713 -2.119,0.733c-0.376,0.019 -4.238,-1.149 -5.03,-1.308c-0.792,-0.158 -0.515,-0.079 -1.802,-0.376c-1.288,-0.297 -4.278,-1.406 -4.773,-1.584c-0.495,-0.178 -2.357,-0.773 -2.357,-0.773c-0,0 3.03,-0.059 3.387,0c0.356,0.06 1.921,0 2.713,-0.019c0.792,-0.02 1.228,-0 2.159,-0.297c0.93,-0.298 2.752,-0.535 3.208,-0.753c0.455,-0.218 1.03,-0.436 1.386,-0.693c0.357,-0.258 1.109,-0.733 1.446,-0.99c0.337,-0.258 1.267,-0.872 1.545,-1.11c0.277,-0.237 0.792,-0.812 0.792,-0.812c-0,0 -1.307,-1.267 -1.882,-1.723c-0.574,-0.455 -0.554,-0.415 -0.95,-0.712c-0.396,-0.298 -0.931,-0.733 -1.406,-1.11c-0.476,-0.376 0.059,-0.613 -1.347,-1.188c-1.406,-0.574 -1.188,-0.317 -1.961,-0.851c-0.772,-0.535 -1.604,-1.288 -1.941,-1.446c-0.336,-0.159 -0.812,-0.277 -1.564,-0.674c-0.753,-0.396 -0.891,-0.495 -1.545,-0.911c-0.653,-0.415 -0.832,-0.554 -1.426,-0.752c-0.594,-0.198 -0.99,-0.396 -1.485,-0.654c-0.495,-0.257 -0.872,-0.574 -1.684,-0.772c-0.812,-0.198 -1.465,-0.396 -2.079,-0.634c-0.614,-0.237 -1.248,-0.376 -1.842,-0.713c-0.594,-0.336 -0.337,-0.02 -0.752,-0.435c-0.416,-0.416 -0.555,-0.496 -1.11,-0.694c-0.554,-0.198 -0.752,0.198 -1.346,-0.099c-0.594,-0.297 -0.495,-0.396 -0.911,-0.515c-0.416,-0.118 -0.733,-0.198 -1.446,-0.138c-0.713,0.059 -0.931,0.416 -1.367,0.297c-0.435,-0.119 -0.574,-0.317 -0.574,-0.317c0,-0 -0.614,0.158 -0.832,0.238c-0.218,0.079 -0.534,0.297 -0.99,0.257c-0.455,-0.04 -0.852,0.06 -0.852,0.06c0,-0 -0.831,0.911 -1.742,3.267c-0.911,2.357 -1.129,2.238 -1.129,2.238c-0,0 -0.515,-0.099 -0.238,-0.594c0.277,-0.495 0.693,-1.208 0.872,-1.604c0.178,-0.396 0.693,-1.169 0.237,-1.287c-0.455,-0.119 -0.653,-0.04 -0.95,-0.317c-0.297,-0.278 -0.634,-0.773 -1.07,-0.991c-0.436,-0.217 -0.95,0.139 -2.436,-0.138c-1.485,-0.277 -1.881,-1.089 -2.06,-1.188c-0.178,-0.099 -1.227,0.237 -2.138,-0c-0.911,-0.238 -1.189,-0.694 -1.704,-0.654c-0.515,0.04 -1.624,0.555 -2.04,0.555c-0.415,-0 -1.623,-0.377 -2.277,-0.278c-0.654,0.099 -1.208,0.693 -1.743,0.753c-0.535,0.059 -2.079,0.099 -2.297,0.198c-0.218,0.099 -1.347,1.763 -1.446,2.178c-0.099,0.416 -0.436,1.941 -0.436,2.298c0,0.356 -0.118,1.129 -0.118,1.129c-0,-0 -5.031,-0.555 -6.892,-0.555c-1.862,0 -11.21,-0.554 -13.23,-0.515c-2.02,0.04 -5.07,0.396 -5.605,0.376c-0.534,-0.019 -4.832,0.476 -5.565,0.674c-0.733,0.198 -1.941,0.99 -2.654,1.426c-0.713,0.435 -1.802,0.851 -2.257,1.129c-0.456,0.277 -0.793,0.792 -0.971,0.851c-0.178,0.06 -0.693,0.159 -1.01,0.416c-0.317,0.258 -0.535,0.436 -0.337,0.852c0.198,0.416 0.733,1.426 0.931,1.782Z" style="fill:#a49d4e;"/><clipPath id="_clip2"><path d="M15.868,65.082c0,0 -0.416,-0.02 -0.812,-0.376c-0.396,-0.357 -0.851,-0.951 -1.208,-0.99c-0.356,-0.04 -1.347,0.831 -1.426,1.327c-0.079,0.495 -0.317,1.267 0.594,2.792c0.911,1.525 3.288,4.179 5.566,5.585c2.277,1.406 7.327,4.496 8.971,5.228c1.644,0.733 3.149,1.466 3.941,1.723c0.792,0.258 2.119,0.416 2.951,0.713c0.832,0.297 4.397,1.585 4.832,2.001c0.436,0.415 0.852,1.683 0.991,2.594c0.138,0.911 0.297,2.258 0.237,2.495c-0.059,0.238 -0.336,0.991 -0.158,1.09c0.178,0.099 0.198,0.099 0.317,0.277c0.119,0.178 0.574,-0.099 0.891,-0.079c0.317,0.02 0.198,0.237 0.198,0.237c-0,0 -0.277,0.198 -0.198,0.456c0.079,0.257 0.119,0.356 0.376,0.535c0.258,0.178 0.436,0.534 0.693,0.693c0.258,0.158 0.377,-0 0.476,0.376c0.099,0.376 -0.198,0.218 0.297,0.673c0.495,0.456 0.435,0.377 0.693,0.614c0.257,0.238 0.238,0.179 0.554,0.495c0.317,0.317 0.099,0.139 0.515,0.515c0.416,0.377 0.159,0.198 0.674,0.535c0.515,0.337 0.297,0.218 0.911,0.535c0.614,0.317 0.257,0.119 0.931,0.436c0.673,0.316 0.356,0.079 1.029,0.455c0.674,0.376 0.575,0.258 1.129,0.614c0.555,0.356 0.753,0.455 1.05,0.594c0.297,0.139 0.832,0.317 1.03,0.376c0.198,0.06 0.534,0.08 0.733,0.397c0.198,0.316 -0.08,0.257 0.316,0.415c0.397,0.159 0.535,0.159 0.911,0.357c0.377,0.198 0.515,0.218 0.951,0.376c0.436,0.159 0.772,0.198 0.772,0.198c0,0 0.099,-0.297 -0.019,-0.495c-0.119,-0.198 -0.238,-0.495 -0.535,-0.891c-0.297,-0.396 -0.495,-0.812 -0.911,-1.367c-0.416,-0.554 -0.475,-0.574 -0.812,-1.069c-0.337,-0.495 -0.297,-0.396 -0.535,-0.772c-0.237,-0.377 -0.416,-0.555 -0.396,-0.931c0.02,-0.377 0,-0.674 0.238,-0.971c0.237,-0.297 0.614,-0.099 0.435,-0.455c-0.178,-0.357 -0.138,-0.436 -0.713,-0.911c-0.574,-0.476 -3.604,-3.545 -4.297,-4.159c-0.693,-0.614 -2.377,-2.159 -2.377,-2.159c0,0 0.06,-1.584 -0.119,-1.941c0,0 3.387,0.575 4.734,0.852c1.347,0.277 5.941,0.812 7.129,1.109c1.189,0.297 8.002,2.594 8.576,3.327c-0,0 -0.654,2 -0.713,2.575c-0.059,0.574 -0.475,1.346 -0,1.861c0.475,0.515 0.693,0.416 0.733,0.773c0.039,0.356 0.158,0.713 0.198,1.03c0.039,0.316 -0.099,0.99 0.376,1.109c0.475,0.118 0.574,-0.02 0.772,0.138c0.198,0.159 0.515,1.01 0.832,1.367c0.317,0.356 0.773,0.634 0.773,0.634l0.614,-0.159c-0,0 0.198,-0.02 0.554,0.317c0.357,0.337 0.753,0.713 0.911,0.792c0.159,0.079 1.228,0.258 1.228,0.258c-0,-0 0.099,-0.436 0.396,-0.238c0.297,0.198 0.277,0.198 0.495,0.317c0.218,0.119 1.268,0.317 1.644,0.396c0.376,0.079 0.396,-0.317 0.634,-0.258c0.237,0.06 0.515,0.258 0.95,0.416c0.436,0.159 0.773,0.278 1.248,0.258c0.475,-0.02 0.555,-0.258 0.931,-0.218c0.376,0.04 1.406,0.356 2,0.455c0.594,0.099 1.347,0.08 1.624,0.08c0.277,-0 0.436,-0.198 0.733,-0.139c0.297,0.059 1.129,0.178 1.644,0.218c0.515,0.04 0.792,-0 1.069,0.02c0.277,0.02 0.06,-0.337 0.376,-0.278c0.317,0.06 2.1,-0.237 2.753,-0.277c0.654,-0.039 3.189,-0.416 4.04,-0.614c0.852,-0.198 2.793,-1.426 3.407,-1.663c0.614,-0.238 1.881,-1.228 2.099,-1.406c0.218,-0.179 0.02,-0.476 0.396,-0.753c0.377,-0.277 0.674,-0.456 0.535,-0.772c-0.139,-0.317 -0.634,-0.634 -0.139,-1.228c0.495,-0.594 0.674,-0.476 0.753,-0.911c0.079,-0.436 0.158,-0.793 0.257,-1.446c0.099,-0.654 -0.158,-0.852 0.08,-1.307c0.237,-0.456 0.356,-0.872 0.574,-0.792c0.218,0.079 1.347,0.653 1.822,1.089c0.475,0.436 1.763,1.386 2.159,1.881c0.396,0.495 0.752,1.367 1.346,2.001c0.595,0.633 1.347,1.663 1.624,2.02c0.278,0.356 0.535,0.673 0.872,1.089c0.336,0.416 0.455,0.653 0.871,1.248c0.416,0.594 1.545,1.782 1.822,2.099c0.277,0.317 0.614,0.733 0.99,1.129c0.377,0.396 1.565,1.129 1.921,1.564c0.357,0.436 0.733,0.773 1.446,1.288c0.713,0.515 1.347,0.871 1.961,1.129c0.614,0.257 2.119,0.613 2.594,0.712c0.476,0.099 2.08,-0.396 2.575,-0.376c0.495,0.02 1.287,0.159 2.119,-0.237c0.832,-0.397 1.664,-0.793 1.98,-1.07c0.317,-0.277 1.466,-1.901 1.822,-2.277c0.357,-0.377 1.426,-1.446 1.724,-1.822c0.297,-0.377 1.029,-1.486 1.326,-1.941c0.297,-0.456 0.773,-1.208 1.05,-1.565c0.277,-0.356 0.812,-0.891 1.03,-1.545c0.218,-0.653 0.455,-1.148 0.634,-1.584c0.178,-0.436 1.445,-1.981 1.564,-2.416c0.119,-0.436 1.03,-3.426 1.089,-3.823c0.06,-0.396 0.515,-3.901 0.515,-4.218c0,-0.317 -0.93,-5.308 -1.247,-5.882c-0.317,-0.574 -2.397,-4.911 -2.912,-5.268c-0.514,-0.356 -3.485,-2.159 -3.921,-2.238c-0.436,-0.079 -1.921,-0.436 -2.357,-0.356c-0.435,0.079 -3.465,0.752 -3.901,0.812c-0.436,0.059 -0.971,0.059 -1.367,0.118c-0.396,0.06 -2.594,0.535 -3.01,0.614c-0.416,0.08 -5.129,0.931 -5.625,1.109c-0.495,0.179 -0.217,0.02 -0.911,0.337c-0.693,0.317 -1.148,0.416 -1.643,0.614c-0.495,0.198 -0.911,0.456 -1.902,0.733c-0.99,0.277 -1.168,0.257 -1.921,0.515c-0.752,0.257 -1.742,0.713 -2.119,0.733c-0.376,0.019 -4.238,-1.149 -5.03,-1.308c-0.792,-0.158 -0.515,-0.079 -1.802,-0.376c-1.288,-0.297 -4.278,-1.406 -4.773,-1.584c-0.495,-0.178 -2.357,-0.773 -2.357,-0.773c-0,0 3.03,-0.059 3.387,0c0.356,0.06 1.921,0 2.713,-0.019c0.792,-0.02 1.228,-0 2.159,-0.297c0.93,-0.298 2.752,-0.535 3.208,-0.753c0.455,-0.218 1.03,-0.436 1.386,-0.693c0.357,-0.258 1.109,-0.733 1.446,-0.99c0.337,-0.258 1.267,-0.872 1.545,-1.11c0.277,-0.237 0.792,-0.812 0.792,-0.812c-0,0 -1.307,-1.267 -1.882,-1.723c-0.574,-0.455 -0.554,-0.415 -0.95,-0.712c-0.396,-0.298 -0.931,-0.733 -1.406,-1.11c-0.476,-0.376 0.059,-0.613 -1.347,-1.188c-1.406,-0.574 -1.188,-0.317 -1.961,-0.851c-0.772,-0.535 -1.604,-1.288 -1.941,-1.446c-0.336,-0.159 -0.812,-0.277 -1.564,-0.674c-0.753,-0.396 -0.891,-0.495 -1.545,-0.911c-0.653,-0.415 -0.832,-0.554 -1.426,-0.752c-0.594,-0.198 -0.99,-0.396 -1.485,-0.654c-0.495,-0.257 -0.872,-0.574 -1.684,-0.772c-0.812,-0.198 -1.465,-0.396 -2.079,-0.634c-0.614,-0.237 -1.248,-0.376 -1.842,-0.713c-0.594,-0.336 -0.337,-0.02 -0.752,-0.435c-0.416,-0.416 -0.555,-0.496 -1.11,-0.694c-0.554,-0.198 -0.752,0.198 -1.346,-0.099c-0.594,-0.297 -0.495,-0.396 -0.911,-0.515c-0.416,-0.118 -0.733,-0.198 -1.446,-0.138c-0.713,0.059 -0.931,0.416 -1.367,0.297c-0.435,-0.119 -0.574,-0.317 -0.574,-0.317c0,-0 -0.614,0.158 -0.832,0.238c-0.218,0.079 -0.534,0.297 -0.99,0.257c-0.455,-0.04 -0.852,0.06 -0.852,0.06c0,-0 -0.831,0.911 -1.742,3.267c-0.911,2.357 -1.129,2.238 -1.129,2.238c-0,0 -0.515,-0.099 -0.238,-0.594c0.277,-0.495 0.693,-1.208 0.872,-1.604c0.178,-0.396 0.693,-1.169 0.237,-1.287c-0.455,-0.119 -0.653,-0.04 -0.95,-0.317c-0.297,-0.278 -0.634,-0.773 -1.07,-0.991c-0.436,-0.217 -0.95,0.139 -2.436,-0.138c-1.485,-0.277 -1.881,-1.089 -2.06,-1.188c-0.178,-0.099 -1.227,0.237 -2.138,-0c-0.911,-0.238 -1.189,-0.694 -1.704,-0.654c-0.515,0.04 -1.624,0.555 -2.04,0.555c-0.415,-0 -1.623,-0.377 -2.277,-0.278c-0.654,0.099 -1.208,0.693 -1.743,0.753c-0.535,0.059 -2.079,0.099 -2.297,0.198c-0.218,0.099 -1.347,1.763 -1.446,2.178c-0.099,0.416 -0.436,1.941 -0.436,2.298c0,0.356 -0.118,1.129 -0.118,1.129c-0,-0 -5.031,-0.555 -6.892,-0.555c-1.862,0 -11.21,-0.554 -13.23,-0.515c-2.02,0.04 -5.07,0.396 -5.605,0.376c-0.534,-0.019 -4.832,0.476 -5.565,0.674c-0.733,0.198 -1.941,0.99 -2.654,1.426c-0.713,0.435 -1.802,0.851 -2.257,1.129c-0.456,0.277 -0.793,0.792 -0.971,0.851c-0.178,0.06 -0.693,0.159 -1.01,0.416c-0.317,0.258 -0.535,0.436 -0.337,0.852c0.198,0.416 0.733,1.426 0.931,1.782Z"/></clipPath><g clip-path="url(#_clip2)"><path d="M43.615,76.223c0,-0 -0.461,-0.293 -0.712,-1.047c-0.251,-0.754 -0.335,-0.838 -0.335,-1.466c-0,-0.629 0.419,-1.09 -0.126,-1.802c-0.544,-0.712 -1.298,-1.759 -1.592,-2.01c-0.293,-0.252 -0.586,-0.796 0.796,-0.712c1.383,0.083 1.634,-0.126 3.1,-0.629c1.466,-0.502 0.545,-1.34 2.932,-0.879c2.388,0.46 2.22,0.921 4.189,0.67c1.969,-0.251 2.765,-0.335 3.937,-0.419c1.173,-0.084 0.629,-0.335 2.974,0c2.346,0.335 3.561,0.628 4.608,0.419c1.047,-0.21 0.503,-0.922 2.681,-0.461c2.178,0.461 3.183,-0.167 4.733,0.838c1.55,1.005 1.592,1.466 3.268,1.885c1.675,0.419 2.471,-0 3.644,0.502c1.173,0.503 0.125,0.796 2.806,1.341c2.681,0.544 3.477,0.67 3.477,0.67c-0,0 1.089,1.382 1.466,1.382c0.377,0 0,-0.586 1.299,-0.502c1.298,0.084 -0.084,-0.335 1.884,0.125c1.969,0.461 3.77,0.084 4.859,0.084c1.09,0 4.064,0.754 6.2,1.341c2.136,0.586 3.1,0.795 4.901,1.131c1.801,0.335 5.571,0.125 6.827,0.167c1.257,0.042 0.922,1.257 0.964,1.885c0.042,0.628 0.335,0.712 0.042,1.215c-0.293,0.502 -0.084,-0 -0.587,1.131c-0.502,1.131 -0.419,1.885 -0.377,2.597c0.042,0.712 -0.921,2.639 -1.424,2.932c-0.502,0.293 -0.586,-0.419 -0.838,0.586c-0.251,1.006 -0.67,1.718 -0.754,2.262c-0.083,0.545 0.419,0.88 -0.628,1.257c-1.047,0.377 -0.586,1.047 -1.592,0.293c-1.005,-0.754 -1.843,-2.01 -1.759,-2.555c0.084,-0.545 0.964,-0.586 -0.544,-0.67c-1.508,-0.084 -1.467,-0.042 -2.346,-0.461c-0.88,-0.419 -0.838,-0.377 -1.676,-0.544c-0.837,-0.168 -0.796,-0.168 -1.759,-0.545c-0.963,-0.377 -0.042,-0.586 -2.262,-0.419c-2.22,0.168 -0.503,0.251 -3.225,-0.251c-2.723,-0.503 -2.262,-0.629 -4.105,-1.006c-1.843,-0.377 -2.304,-0.754 -3.477,-0.586c-1.173,0.168 -1.382,-1.424 -3.267,-1.675c-1.885,-0.252 -2.932,-0.168 -2.932,-0.168c-0,-0 0.795,-1.55 -1.089,-2.053c-1.885,-0.502 -2.304,-1.214 -3.393,-0.628c-1.089,0.587 0.377,0.964 -1.592,0.964c-1.969,-0 -1.299,-0.126 -3.812,-0.545c-2.513,-0.419 -3.937,-0.377 -4.943,-0.586c-1.005,-0.21 0.671,-1.048 -2.22,-1.466c-2.89,-0.419 -5.487,-0.838 -6.744,-1.425c-1.256,-0.586 -0.377,-0.586 -1.424,-0.712c-1.047,-0.125 -1.298,-0.461 -1.633,0.126c-0.336,0.586 1.214,0.419 -0.545,0.88c-1.759,0.46 -1.299,0.754 -2.471,0.377c-1.173,-0.377 -1.592,-0.671 -2.388,-1.341c-0.796,-0.67 -0.084,-3.477 -3.016,0.503Z" style="fill:#a5c2d4;"/><path d="M62.3,89.703c-0,0 -0.198,-2.52 4.644,-3.113c4.842,-0.593 18.924,-0.395 25.397,0.742c6.472,1.136 8.597,1.432 10.326,2.174c1.73,0.741 3.805,1.877 4.349,1.581c0.543,-0.297 2.124,-3.064 2.519,-3.953c0.396,-0.89 1.038,-1.334 1.532,-2.273c0.494,-0.939 0.395,-2.619 0.445,-3.557c0.049,-0.939 1.334,-2.076 0.247,-3.064c-1.087,-0.988 -0.247,-1.087 -2.125,-1.63c-1.877,-0.544 -3.409,-1.334 -5.237,-1.878c-1.828,-0.544 -5.238,-0.889 -8.4,-1.68c-3.162,-0.79 -9.536,-3.508 -11.562,-4.496c-2.026,-0.988 -8.399,-3.459 -11.117,-4.447c-2.718,-0.988 -7.016,-2.372 -8.844,-2.767c-1.829,-0.395 -9.635,-2.471 -11.266,-2.619c-1.63,-0.148 -1.357,-25.258 -1.357,-25.258l94.036,30.507l-12.338,57.502l-72.336,-19.122l1.087,-12.649Z" style="fill:#40471b;"/><path d="M107.724,90.947c0.815,0.109 1.153,0.14 2.447,0.665c1.293,0.524 1.119,-0.175 2.482,0.978c1.363,1.154 0.979,0.595 1.923,1.574c0.944,0.978 1.363,1.258 2.517,1.643c1.154,0.384 1.293,-0.944 0.105,-2.133c-1.189,-1.188 -3.391,-1.713 -1.154,-2.028c2.237,-0.314 3.286,-0.454 4.755,0.175c1.468,0.63 2.901,2.867 1.503,0.63c-1.399,-2.238 -4.23,-3.252 -3.426,-3.986c0.804,-0.734 1.398,-1.503 3.426,-1.258c2.027,0.244 4.684,0.699 3.006,-0.7c-1.678,-1.398 -3.985,-2.307 -3.985,-2.307c-0,0 -1.993,0.28 0.804,-0.909c2.797,-1.188 3.636,-1.118 3.041,-1.573c-0.594,-0.454 -0.874,-0.419 -2.936,-1.923c-2.063,-1.503 -1.573,-2.272 -4.125,-1.818c-2.552,0.455 -0.56,0.385 -3.496,0.385c-2.937,-0 -3.916,-0.245 -3.916,0.419c0,0.665 -2.097,9.335 -2.971,10.278c-0.874,0.944 -1.049,1.748 -0,1.888Z" style="fill:#53756c;"/><path d="M65.606,94.444c0.922,0.209 1.005,-0.084 1.424,0.251c0.419,0.335 0.461,0.461 0.88,0.754c0.419,0.294 0.377,0.21 0.838,0.419c0.461,0.21 0.251,0.21 0.963,0.545c0.712,0.335 0.545,0.083 1.341,0.377c0.795,0.293 0.293,0.083 1.759,0.544c1.466,0.461 0.838,0.377 2.052,0.545c1.215,0.167 0.922,0.125 2.095,0.167c1.173,0.042 1.34,-0.209 2.094,0c0.754,0.21 0.796,0.168 1.592,0.294c0.796,0.125 -0.419,0.083 1.634,0.083c2.052,0 1.675,-0.125 2.597,0.042c0.921,0.168 0.712,0.168 1.591,0.126c0.88,-0.042 0.964,-0.168 1.341,-0.126c0.377,0.042 0.084,0 0.879,0c0.796,0 0.671,-0.125 1.425,0c0.754,0.126 0.963,0.21 1.759,0.084c0.796,-0.126 0.461,0 1.089,-0.209c0.628,-0.21 0.628,-0.294 1.089,-0.419c0.461,-0.126 0.545,-0.335 1.801,-0.629c1.257,-0.293 1.592,-0.921 1.885,-1.256c0.293,-0.335 0.754,-0.964 0.754,-0.964l1.173,-0.251l-1.843,3.477l-11.477,3.811l-18.012,-0.754c-0,0 -3.644,-7.12 -2.723,-6.911Zm23.437,-0.603c-0.281,-0.226 -3.448,-2.776 -4.168,-3.376c-0.754,-0.629 -1.969,-1.383 -1.173,-0.21c0.796,1.173 1.55,2.639 1.55,2.639c-0,0 -2.472,-2.136 -2.974,-2.555c-0.503,-0.419 0.418,-0.67 -1.467,-0.67c-1.884,-0 -2.261,-0 -3.937,-0.042c-1.675,-0.042 -1.675,-0.126 -3.477,-0.168c-1.801,-0.042 -1.968,-0.167 -3.393,-0.335c-1.424,-0.167 -1.717,-0.502 -3.225,-0.502c-1.508,-0 -3.77,0.46 -3.77,0.46l-1.131,-0.754c0,0 -0.586,-1.466 0.168,-1.298c0.754,0.167 2.932,0.167 4.147,-0.21c1.214,-0.377 3.225,-0.251 4.859,-0.377c1.633,-0.125 2.932,-0.544 4.398,-0.293c1.466,0.252 3.477,0.252 4.984,0.335c1.508,0.084 3.519,0 5.027,0.042c1.508,0.042 4.733,0.419 6.87,0.712c2.136,0.294 3.267,0.503 4.775,0.964c1.508,0.46 2.01,2.22 0.921,2.722c-1.089,0.503 -1.382,0.545 -2.136,1.006c-0.754,0.46 -0.293,0.419 -2.723,0.293c-2.429,-0.126 -1.591,-0.126 -3.476,-0.293c-1.885,-0.168 -3.058,-1.634 -3.058,-1.634c-0,0 1.84,3.067 2.409,3.544l0.02,0.017c-0.006,-0.005 -0.013,-0.011 -0.02,-0.017Z" style="fill:#3c7ccf;"/><path d="M105.804,88.779c-0.126,-0.501 0.689,-1.28 1.206,-1.428c0.517,-0.148 0.714,0.271 0.517,0.911c-0.197,0.64 0.517,0.714 -0.172,1.133c-0.69,0.418 -1.453,-0.222 -1.551,-0.616Zm-0.676,-3.343c-0.04,0.233 -0.219,0.433 -0.63,0.561c-1.163,0.362 -0.861,-1.478 -0.985,-1.946c-0.123,-0.468 -1.255,-1.748 -0.418,-1.871c0.837,-0.123 1.009,0.935 1.157,1.428c0.085,0.282 0.646,0.871 0.828,1.411c0.013,-0.51 0.301,-0.959 0.945,-0.795c0.677,0.172 1.009,0.648 0.993,1.088c-0.016,0.441 -0.38,0.848 -1.091,0.882c-0.41,0.019 -0.692,-0.339 -0.799,-0.758Zm4.443,-0.006c0.719,0.387 1.281,-1.527 1.034,-2.118c-0.246,-0.591 -1.354,-0.27 -1.502,0.567c-0.147,0.837 -0.172,1.206 0.468,1.551Zm-10.17,-0.024c-0.159,0.021 -0.35,-0.484 -0.359,-1.047c-0.01,-0.562 0.162,-1.182 0.728,-1.391c1.133,-0.419 1.675,2.167 -0.369,2.438Zm-8.98,-1.336c0,-0.691 0.099,-1.136 0.593,-1.136c0.494,0 0.494,0.148 1.038,0.198c0.543,0.049 0.988,0.247 1.185,-0.247c0.198,-0.494 -0.345,-0.593 0,-1.137c0.346,-0.543 0.396,-0.889 1.137,-0.889c0.741,-0 0.84,-0.05 1.383,-0.198c0.544,-0.148 0.791,0.988 0.198,1.285c-0.593,0.296 -0.939,0.642 -0.939,0.642c0,0 0.099,0.247 -0.296,0.593c-0.396,0.346 -0.643,-0.395 -0.494,0.346c0.148,0.741 0.296,0.791 -0.247,0.939c-0.544,0.148 0.247,0.395 -1.087,0.148c-1.335,-0.247 -2.471,0.395 -2.471,-0.544Zm17.402,0.154c-0.264,0.104 -0.473,-0.099 -0.533,-0.396c-0.061,-0.297 0.028,-0.688 0.36,-0.959c0.665,-0.542 2.167,0.567 0.173,1.355Zm-22.469,-0.838c-0.758,-0.866 -1.048,-1.718 -0.294,-1.843c0.754,-0.126 1.508,0.67 1.634,1.047c0.126,0.377 -0.754,1.466 -1.34,0.796Zm13.407,-0.098c0.719,-0.315 -0.542,-1.01 -0.542,-1.576c0,-0.567 1.182,-1.404 0.493,-1.847c-0.69,-0.443 -1.872,-0.099 -2.094,1.231c-0.221,1.33 1.749,2.364 2.143,2.192Zm-19.356,-0.74c-0.632,-0.237 0.336,-1.592 0.336,-1.592c-0,0 1.885,-0.042 1.508,0.545c-0.377,0.586 -1.173,1.298 -1.844,1.047Zm22.163,-0.368c-0.274,-0.106 -0.348,-0.537 -0.233,-0.886c0.114,-0.349 0.418,-0.616 0.898,-0.395c0.96,0.443 0.295,1.65 -0.665,1.281Zm6.476,-0.271c-1.486,0.048 -1.699,-0.246 -2.142,-0.32c-0.443,-0.074 -1.256,0.369 -1.428,-0.444c-0.173,-0.812 0.369,-2.487 1.674,-1.034c1.305,1.453 1.355,0.074 2.34,0.616c0.985,0.542 0.32,1.157 -0.444,1.182Zm-20.588,-2.285c0.099,-0.939 -0.247,-1.334 0.396,-1.433c0.642,-0.099 1.087,0.444 1.531,0.494c0.445,0.049 1.038,-0.346 1.038,-0.346c0,-0 0.297,-0.642 0.84,-0.988c0.544,-0.346 0.642,-1.334 1.087,-0.494c0.445,0.84 -0.445,0.988 0.544,1.235c0.988,0.247 1.778,0.148 1.778,0.148c0,0 0.346,0.346 -0.247,0.791c-0.593,0.444 -0.296,0.691 -1.334,0.444c-1.037,-0.247 -0.84,-0.494 -1.532,-0.642c-0.691,-0.148 -0.642,-0.247 -0.543,0.395c0.099,0.643 0.296,1.186 0.296,1.186c0,0 0.791,1.137 -0.049,0.84c-0.84,-0.296 -0.741,-0.642 -1.334,-1.186c-0.593,-0.543 -1.186,-0.197 -1.828,-0.247c-0.643,-0.049 -0.741,0.741 -0.643,-0.197Zm-4.783,1.667c-0.332,-0.066 -0.311,-0.464 -0.155,-0.824c0.156,-0.361 0.448,-0.684 0.657,-0.6c0.419,0.168 -0.083,1.508 -0.502,1.424Zm17.516,-1.795c0.437,-0.088 0.998,-0.069 1.288,0.103c0.291,0.173 0.313,0.5 -0.328,1.029c-1.28,1.059 -1.206,-1.083 -0.96,-1.132Zm-24.512,-2.687c-0.583,-0.218 -0.712,-0.251 -0.754,-0.628c-0.041,-0.377 -0.377,-0.628 0.168,-1.215c0.545,-0.586 0.796,-0.502 1.257,-0.209c0.46,0.293 0.209,0.419 0.921,0.377c0.712,-0.042 0.922,-0.042 0.922,-0.042c-0,-0 -0.294,-0.67 0.209,-1.173c0.503,-0.503 0.796,-1.173 1.089,-0.628c0.293,0.544 1.089,0.586 0.335,1.34c-0.754,0.754 -0.921,0.838 -0.921,0.838l0.335,0.796l1.298,0.167c0,0 -0.335,-0.461 0.587,-1.005c0.921,-0.545 1.005,-0.377 1.298,-0.67c0.294,-0.293 -0.042,-1.131 0.712,-0.461c0.754,0.67 1.09,0.963 0.419,1.298c-0.67,0.336 -0.628,0.503 -1.256,0.587c-0.629,0.084 -0.419,-0.084 -0.88,0.167c-0.461,0.252 -0.88,0.168 -0.88,0.545c0,0.377 -0.125,0.461 0.21,0.754c0.335,0.293 0.712,0.461 1.55,-0.042c0.837,-0.503 -0.629,-0.921 0.963,-0.544c1.592,0.377 1.299,0.209 1.759,0.377c0.461,0.167 0.796,0.837 0.922,1.508c0.126,0.67 0.754,0.753 0.209,1.214c-0.544,0.461 -0.544,0.712 -0.837,0.252c-0.294,-0.461 -0.042,-0.545 -0.587,-1.006c-0.544,-0.46 -0.712,-0.837 -1.34,-0.796c-0.629,0.042 0.251,-0.293 -0.629,0.042c-0.879,0.335 -0.167,0.67 -1.298,0.461c-1.131,-0.209 -1.089,-0.461 -1.843,-0.628c-0.754,-0.168 -0.88,-0.084 -1.299,-0.252c-0.419,-0.167 -0.419,-0.46 -0.837,-0.795c-0.419,-0.336 -1.466,-0.503 -1.802,-0.629Zm-5.403,3.309c-0.251,-0.502 -0.377,-1.005 -0.21,-1.424c0.168,-0.419 -0.293,-0.502 0.294,-0.712c0.586,-0.209 0.628,0.293 1.382,0.21c0.754,-0.084 0.796,0.628 1.382,-0.377c0.587,-1.006 0.084,-1.592 0.88,-1.173c0.796,0.419 1.005,0.377 1.131,0.837c0.126,0.461 0.209,1.425 -0.503,1.299c-0.712,-0.126 -0.084,0.377 -0.628,0.796c-0.545,0.419 -0.503,1.256 -1.131,0.838c-0.628,-0.419 -0.586,-0.796 -1.047,-0.545c-0.461,0.251 -1.299,0.754 -1.55,0.251Zm-4.398,-0.754c-0.084,-0.712 0.042,-0.712 -0.084,-1.256c-0.126,-0.545 -0.21,-1.173 0.209,-1.341c0.419,-0.167 0.461,0.168 0.922,0.629c0.461,0.46 1.466,0.419 0.838,1.005c-0.629,0.586 -1.131,0.963 -1.131,0.963c-0,0 -0.671,0.712 -0.754,0Zm31.013,-0.041c-0.501,-0.067 -0.64,-0.763 -0.369,-1.206c0.271,-0.444 0.32,-0.739 -0.074,-0.788c-0.394,-0.05 -1.502,0.172 -1.995,-0.124c-0.492,-0.295 -0.738,-0.492 -1.058,-0.591c-0.321,-0.098 -0.715,-0.369 -0.715,-0.369c0,0 -0.394,-1.083 0.296,-1.305c0.689,-0.222 1.256,-0.32 1.601,0.074c0.344,0.394 0.073,0.345 0.664,0.418c0.591,0.074 0.788,-0.147 0.813,0.074c0.025,0.222 0.271,0.69 0.862,0.567c0.591,-0.123 1.133,0.024 0.936,0.32c-0.197,0.295 -0.838,0.615 -0.197,0.788c0.64,0.172 1.526,-0 1.034,0.615c-0.493,0.616 -1.059,1.626 -1.798,1.527Zm6.132,-0.123c0.758,0 1.379,-1.305 0.566,-1.576c-0.812,-0.271 -1.748,0.419 -1.65,0.985c0.099,0.566 0.641,0.591 1.084,0.591Zm-45.732,-0.422c-0.126,-0.88 -0.21,-1.215 -0.084,-1.759c0.126,-0.545 0.084,-0.88 0.503,-1.006c0.418,-0.125 0.67,-0.712 0.754,-0.083c0.083,0.628 0.083,1.214 0.251,1.549c0.167,0.336 -0.628,1.09 -1.047,1.173c-0.419,0.084 -0.252,1.006 -0.377,0.126Zm-39.165,-12.441c-0.297,0.408 0.628,1.131 0.628,1.131c-0,0 0.209,0 0.712,0.377c0.503,0.377 0.545,0.293 1.257,0.712c0.712,0.419 0.712,0.252 1.005,0.712c0.293,0.461 0.335,0.419 0.838,0.713c0.502,0.293 -0.084,-0.126 0.796,0.795c0.879,0.922 0.544,0.503 1.131,1.006c0.586,0.502 0.502,0.251 0.921,0.837c0.419,0.587 0.042,0.294 0.922,0.796c0.879,0.503 0.795,0.168 1.549,0.796c0.754,0.629 0.629,0.629 1.341,1.257c0.712,0.628 0.167,0.628 0.963,0.796c0.796,0.167 1.299,0.083 1.299,0.083l0.921,0.084c0,0 -0.251,0.084 0.377,0.67c0.629,0.587 0.042,0.503 1.257,0.964c1.215,0.461 1.005,0.544 1.382,0.503c0.377,-0.042 0.838,0.125 0.754,-0.252c-0.084,-0.377 0.042,-0.461 -0.419,-0.67c-0.46,-0.209 0.126,-0 -0.879,-0.419c-1.006,-0.419 -0.88,-0.167 -1.299,-0.754c-0.419,-0.586 -0.544,-0.838 -0.544,-0.838c-0,0 -0.377,-0.293 0.042,-0.586c0.418,-0.293 1.089,-0.335 1.089,-0.335c-0,-0 0.586,0.209 0.921,0.502c0.335,0.294 0.21,0.461 0.796,0.713c0.586,0.251 0.712,0.293 1.089,0.418c0.377,0.126 0.922,0.419 0.922,0.419l0.586,0.377l0.754,0.126l0.461,-0.545c-0,0 0.042,-0.754 -0.461,-1.172c-0.503,-0.419 -0.419,-0.503 -0.963,-0.712c-0.545,-0.21 -0.88,-0.252 -1.383,-0.671c-0.502,-0.419 -0.419,-0.419 -0.796,-0.796c-0.377,-0.377 -0.041,-0.335 -0.586,-0.586c-0.545,-0.251 -1.508,-0.084 -1.508,-0.084l-1.005,0.629l-0,0.586c-0,-0 0.084,0.461 -0.419,0.838c-0.503,0.377 -1.382,0.628 -1.759,0.377c-0.377,-0.252 -1.173,-0.796 -1.76,-1.341c-0.586,-0.544 0,-0.125 -0.921,-1.005c-0.922,-0.88 -0.419,-0.67 -1.55,-1.215c-1.131,-0.544 -1.005,-0.377 -1.466,-0.796c-0.461,-0.418 -0.335,0 -0.754,-0.795c-0.419,-0.796 0.544,-0.377 -1.005,-1.467c-1.55,-1.089 -1.885,-1.508 -2.639,-1.801c-0.754,-0.293 -2.137,-0.502 -2.137,-0.502c0,-0 -0.125,-0.335 -0.46,0.125Zm82.558,11.755c-0.231,0.077 -0.415,0.003 -0.499,-0.115c-0.084,-0.118 -0.068,-0.279 0.105,-0.378c0.344,-0.197 0.911,0.321 0.394,0.493Zm-50.766,-0.864c-0.041,-1.089 0.21,-1.424 0.252,-1.801c0.042,-0.377 -0.503,-1.005 -0,-1.466c0.502,-0.461 0.921,-1.215 1.047,-0.377c0.126,0.838 0.126,0.963 0.335,1.424c0.209,0.461 0.419,0.209 -0.126,0.963c-0.544,0.754 -1.466,2.346 -1.508,1.257Zm13.405,-2.764c0.317,-0.239 0.963,0.209 1.131,0.544c0.167,0.335 0.628,0.88 0.293,1.299c-0.335,0.418 -0.461,0.67 -1.089,0.795c-0.629,0.126 -0.964,0.671 -1.006,-0.209c-0.042,-0.88 0.335,-2.178 0.671,-2.429Zm22.456,2.146c-0.445,-0.544 -0.643,-1.384 0.197,-1.433c0.84,-0.05 1.433,0.148 1.433,0.148c0,-0 0.198,0.198 0.939,-0.395c0.741,-0.593 0.889,-1.038 1.383,-0.791c0.494,0.247 1.038,0.741 0.445,1.285c-0.593,0.543 -0.346,0.593 -0.939,0.593c-0.593,-0 -0.247,-0.396 -0.79,0.049c-0.544,0.445 -1.384,0.741 -1.927,0.741c-0.544,0 -0.297,0.346 -0.741,-0.197Zm-42.941,-4.323c-0.014,0.017 -0.127,0.164 -0.166,0.752c-0.042,0.629 0.126,1.383 0.293,1.802c0.168,0.418 -0.084,1.172 -0.419,1.591c-0.372,0.465 -0.293,-0.628 -0.544,-1.089c-0.252,-0.461 -0.712,-0.293 -0.545,-0.838c0.168,-0.544 0.377,-0.921 0.67,-1.34c0.283,-0.404 0.683,-0.848 0.711,-0.878c0.001,-0.001 0.001,-0.002 0.001,-0.002l-0.001,0.002Zm5.531,4.02c-0.671,-0.545 -0.796,-0.713 -0.964,-1.09c-0.167,-0.376 0.587,-0.67 0.587,-0.67l0.167,0.796c0,0 1.215,0.084 0.754,0.461c-0.461,0.377 0.126,1.047 -0.544,0.503Zm8.042,-0.629c-1.005,-0.251 -1.089,-0.419 -1.215,-0.837c-0.125,-0.419 -0.042,-0.461 0.126,-0.964c0.168,-0.503 0.251,-0.461 0.293,-1.215c0.042,-0.754 -0.335,-1.214 0.419,-1.005c0.754,0.209 1.173,0.503 0.88,1.131c-0.294,0.628 -0.671,0.126 -0.252,1.131c0.419,1.005 0.671,0.67 0.335,1.047c-0.335,0.377 0.419,0.964 -0.586,0.712Zm4.063,-1.298c-0.377,-0.712 -0.084,-1.257 0.084,-1.843c0.167,-0.587 -0.545,-0.922 0.461,-1.089c1.005,-0.168 1.047,-0.461 1.382,0.209c0.335,0.67 0.503,0.67 0.209,1.089c-0.293,0.419 0.042,0.377 -0.628,0.796c-0.67,0.419 -1.131,1.55 -1.508,0.838Zm11.771,-0.21c-0.294,-0.419 -0.042,-0.544 -0.503,-0.754c-0.461,-0.209 -0.67,-0.335 -0.67,-0.335c-0,0 -0.21,-0.293 -0.964,-0.251c-0.754,0.042 -0.377,0.167 -0.837,0.042c-0.461,-0.126 -0.042,-0.796 -0.042,-0.796l0.544,-0.88l0.838,0.252c0,-0 0.419,0.167 0.963,0.167c0.545,0 0.377,-0.335 1.048,0.21c0.67,0.544 0.335,0.502 0.963,0.795c0.628,0.294 1.382,-0.67 0.67,0.461c-0.712,1.131 -1.131,1.299 -1.131,1.299l-0.502,-0.21c-0,0 -0.084,0.419 -0.377,0Zm-20.19,-0.209c-0.335,-0.419 -0.545,-0.712 -0.252,-1.089c0.294,-0.377 0.461,-0.545 0.461,-0.545c0,0 0.628,-0.712 0.964,-0.167c0.335,0.544 0.628,0.963 0.167,1.633c-0.461,0.671 -1.005,0.587 -1.34,0.168Zm-18.221,-5.571c0.982,-0.227 1.047,0.502 1.549,0.712c0.503,0.209 0.335,0.419 1.089,0.377c0.754,-0.042 1.508,-0 1.508,-0c0,-0 0.168,0.251 0.964,0.628c0.796,0.377 0.586,0.21 1.34,0.503c0.754,0.293 1.383,0.586 1.76,0.838c0.377,0.251 0.46,1.005 0.083,1.382c-0.377,0.377 -0.125,1.298 -1.675,1.005c-1.55,-0.293 -1.676,-0.125 -2.22,-0.712c-0.545,-0.586 -0.503,-0.712 -1.466,-1.131c-0.964,-0.419 -0.754,-0.377 -1.383,-0.628c-0.628,-0.252 -1.508,-0.293 -1.843,-0.838c-0.335,-0.544 -0.837,-0.586 -0.628,-1.131c0.209,-0.544 0.377,-0.88 0.922,-1.005Zm-7.959,0.251c0.499,-0.333 1.131,-0.042 1.131,-0.042c-0,0 0.167,0.419 0.628,0.461c0.461,0.042 0.168,-0.293 0.88,-0.461c0.712,-0.167 0.419,-0.586 1.382,0.168c0.963,0.754 1.089,0.628 1.424,1.131c0.335,0.502 0.545,1.173 0.838,1.508c0.293,0.335 0.503,0.209 0.586,0.879c0.084,0.671 0.042,1.173 -0.754,0.712c-0.795,-0.46 -0.46,-0.293 -1.131,-0.837c-0.67,-0.545 -0.837,-0.796 -1.424,-1.173c-0.586,-0.377 0.042,-0 -1.089,-0.587c-1.131,-0.586 -0.838,-0.67 -1.592,-0.837c-0.754,-0.168 -1.382,-0.587 -0.879,-0.922Zm55.803,3.472c-0.297,-1.235 0.494,-2.273 0.494,-2.273c-0,0 1.482,0.939 0.79,1.483c-0.692,0.543 -0.988,2.026 -1.284,0.79Zm-37.331,0.214l-0.586,-0.377l0.251,-0.879c0,-0 0.419,-0.629 0.629,-0.21c0.209,0.419 -0,0.922 -0,0.922l-0.294,0.544Zm32.338,-0.335c-0.377,-0.503 -0.67,-0.544 -0.545,-0.963c0.126,-0.419 -0.335,-0.294 0.335,-0.503c0.671,-0.209 0.712,-0.67 1.006,-0.126c0.293,0.545 0.46,-0.041 0.335,0.671c-0.126,0.712 0.083,0.754 -0.294,0.921c-0.376,0.168 -0.46,0.503 -0.837,0Zm-12.19,0.126c-0.335,-0.335 -0.754,0.084 -0.377,-0.796c0.377,-0.88 1.173,-1.843 1.173,-1.843c0,-0 0.964,0.042 1.047,0.628c0.084,0.587 0.21,1.676 -0.293,1.759c-0.502,0.084 -1.215,0.587 -1.55,0.252Zm-4.859,-0.712c-0.586,-0.294 -0.837,-0.168 -1.005,-0.796c-0.167,-0.628 -0.921,-0.796 -0.126,-1.466c0.796,-0.67 1.425,-1.089 1.634,-0.419c0.209,0.67 0.377,1.131 0.126,1.55c-0.252,0.419 -0.042,1.424 -0.629,1.131Zm-14.208,-6.042c0.063,0 0.135,0.015 0.218,0.052c0.377,0.167 0.712,-0.042 0.712,0.335c-0,0.182 -0.187,0.277 -0.379,0.368l-0.038,0.018c-0.192,0.091 -0.379,0.185 -0.379,0.368c0,0.377 -0.126,0.377 0.419,0.712c0.545,0.335 0.712,-0.042 1.131,0.712c0.419,0.754 0.084,0.67 0.628,0.922c0.545,0.251 0.335,0.251 0.838,0.335c0.503,0.083 0.922,0.042 0.922,0.042c-0,-0 -0.294,-0.294 0.502,0.041c0.796,0.336 0.88,0.838 1.006,0.336c0.125,-0.503 -0.168,-0.754 0.083,-1.173c0.252,-0.419 0.796,-0.419 1.173,-0.503c0.377,-0.084 1.047,-0.796 1.131,-0.126c0.084,0.671 -0.419,0.922 -0.503,1.466c-0.083,0.545 0.377,0.545 -0.335,0.88c-0.599,0.282 -0.961,0.119 -1.06,0.06c-0.018,-0.012 -0.029,-0.018 -0.029,-0.018c0,-0 0.01,0.007 0.029,0.018c0.107,0.076 0.448,0.375 -0.238,0.736c-0.796,0.419 0.042,0.461 -0.838,0.419c-0.88,-0.042 -0.921,-0.21 -1.508,-0.252c-0.586,-0.041 -0.167,0.21 -0.838,0.042c-0.67,-0.167 -0.712,-0.125 -1.424,-0.754c-0.712,-0.628 -0.838,-0.209 -1.173,-0.963c-0.335,-0.754 -0.502,-0.963 -0.586,-1.508c-0.084,-0.545 -0.126,-1.466 -0.126,-1.466l0.335,-0.922c0,0 0.102,-0.177 0.324,-0.177l0.003,0Zm9.433,5.413c-0.67,-0.712 -1.089,-0.963 -0.628,-1.34c0.461,-0.377 0.88,-0.922 1.298,-0.963c0.419,-0.042 0.922,0.502 0.88,0.879c-0.042,0.377 -0.084,0.545 -0.419,0.796c-0.335,0.251 -0.461,1.34 -1.131,0.628Zm14.158,-0.083c-0.586,-0.21 -0.796,-0.419 -0.796,-0.419l0.671,-1.634c-0,0 0.125,-1.382 0.544,-0.628c0.419,0.754 0.754,0.586 0.754,1.34c0,0.754 -0.209,0.922 -0.586,1.047c-0.377,0.126 -0,0.503 -0.587,0.294Zm-25.886,-0.335c-0.569,-0.569 -1.173,-1.299 -0.838,-1.676c0.335,-0.377 0.921,-0.084 0.754,-0.628c-0.168,-0.545 -0.21,-0.545 -0.419,-1.006c-0.209,-0.46 -0.88,-0.963 -0.461,-1.214c0.419,-0.252 0.587,-0.252 0.964,0.209c0.377,0.461 0.628,1.131 0.628,1.131l-0.293,0.922c-0,-0 -0.252,0.293 -0.042,0.67c0.209,0.377 0.084,1.968 -0.293,1.592Zm31.415,-0.377c-0.67,-0.21 -0.921,-0.126 -0.795,-0.671c0.125,-0.544 -0.084,-1.005 0.377,-1.047c0.46,-0.042 0.837,0.335 0.837,0.335c0,0 0.629,0.084 0.377,0.545c-0.251,0.461 -0.125,1.047 -0.796,0.838Zm-8.336,-2.464c-0.395,-0.79 -0.79,-1.334 -0.099,-1.136c0.692,0.197 2.619,-0.05 1.73,0.691c-0.89,0.742 -1.235,1.236 -1.631,0.445Zm-4.298,-0.593c-0.643,-0.494 -0.346,-0.939 -0.346,-0.939l0.938,0.198c0,0 0.05,1.235 -0.592,0.741Zm-33.484,-1.258c-0.452,-0.038 -0.042,-0.88 0.335,-1.047c0.377,-0.168 0.419,-0.335 1.131,-0.419c0.712,-0.084 1.005,0.042 1.34,-0.209c0.336,-0.252 0,-0.754 0.671,-0.796c0.67,-0.042 0.963,0.502 0.963,0.502c0,0 -0.293,0.964 -1.089,1.048c-0.796,0.083 -0.88,-0.042 -1.759,0.167c-0.88,0.21 -1.089,0.796 -1.592,0.754Zm11.687,-0.335c-0,-0 -0.126,-0.126 -0.084,-0.712c0.042,-0.587 -0.126,-0.922 0.461,-0.838c0.586,0.084 0.754,-0.712 0.712,0.168c-0.042,0.879 0.293,1.131 -0.252,1.34c-0.544,0.21 -0.837,0.042 -0.837,0.042Zm-12.315,-1.508c-0,0 -0.88,-0.628 -0.461,-1.047c0.419,-0.419 1.131,-0.293 0.921,0.042c-0.209,0.335 -0.46,1.005 -0.46,1.005Z" style="fill:#8a4410;"/><path d="M116.207,96.751c-0.327,-0.206 -0.358,-0.509 -0.23,-0.673c0.127,-0.164 0.412,-0.188 0.715,0.164c0.607,0.703 0.17,0.921 -0.485,0.509Zm3.809,-0.995c0.126,0.096 0.101,0.321 0.003,0.479c-0.098,0.158 -0.27,0.249 -0.44,0.079c-0.34,-0.339 -0.073,-0.946 0.437,-0.558Zm0.97,-0.145c-0.225,0.041 -0.291,-1.092 -0.024,-1.359c0.267,-0.267 0.291,0.025 0.364,-0.072c0.072,-0.097 -0.049,-0.607 0.218,-0.85c0.267,-0.242 0.849,0.364 0.558,0.558c-0.291,0.195 -0.728,0.704 -0.801,1.044c-0.072,0.339 -0.048,0.63 -0.315,0.679Zm-3.105,-1.359c0.036,-0.215 0.315,-0.088 0.579,0.148c0.264,0.236 0.513,0.58 0.488,0.798c-0.048,0.437 -1.188,-0.218 -1.067,-0.946Zm-2.305,0.146c-0.207,-0.279 -0.159,-0.746 0.036,-1.031c0.194,-0.285 0.534,-0.388 0.91,0.061c0.752,0.897 -0.242,1.916 -0.946,0.97Zm2.984,-2.111c0.43,0 0.655,0.51 0.922,0.364c0.267,-0.145 0.776,-0.849 1.14,-0.364c0.364,0.486 -0.121,0.437 -0.436,0.583c-0.316,0.145 -0.947,-0.097 -1.068,0.485c-0.121,0.582 -0.97,0.655 -1.261,-0.097c-0.291,-0.752 0.388,-0.971 0.703,-0.971Zm-5.41,0.122c-0.542,-0.217 -1.14,-0.655 -0.97,-1.262c0.17,-0.606 0.704,-0.558 0.655,-0.922c-0.048,-0.364 -1.334,-0.946 -1.286,-1.771c0.049,-0.824 0.655,-0.921 1.335,-0.946c0.679,-0.024 0.97,0.777 0.921,1.383c-0.048,0.607 -0.606,0.728 -0.606,1.116c-0,0.388 0.776,0.582 0.776,1.261c0,0.68 -0.339,1.335 -0.825,1.141Zm8.758,-1.965c-0.253,0.168 -0.364,-0.025 -0.607,0.194c-0.242,0.218 0.073,0.606 -0.388,0.776c-0.461,0.17 -1.091,-1.407 -0.412,-1.795c0.679,-0.388 1.844,0.534 1.407,0.825Zm-6.429,0.8c-0.242,-0.267 -0.461,-0.8 -0.024,-1.067c0.437,-0.267 0.582,-0.922 0.34,-1.213c-0.243,-0.291 0.364,-1.407 0.922,-1.043c0.557,0.364 0.994,1.334 0.606,1.649c-0.388,0.316 -0.898,0.243 -1.043,0.583c-0.146,0.339 0.315,0.8 -0.121,0.994c-0.437,0.194 -0.437,0.364 -0.68,0.097Zm-7.423,-0.315c-0.15,-0.243 -0.028,-0.607 0.185,-0.768c0.213,-0.16 0.519,-0.118 0.737,0.452c0.437,1.141 -0.728,0.631 -0.922,0.316Zm15.793,-0.146c0.035,-0.221 -0.971,-0.388 -1.019,-0.145c-0.049,0.242 -0.146,0.485 0.024,0.63c0.17,0.146 0.922,-0.024 0.995,-0.485Zm-13.925,-0.121c-0.131,-0.34 0.097,-1.164 0.801,-1.067c0.703,0.097 0.824,0.97 0.412,1.261c-0.412,0.291 -0.97,0.437 -1.213,-0.194Zm-0.898,-1.989c0.025,-0.461 0.243,-1.432 0.558,-1.795c0.316,-0.364 1.116,-1.165 1.213,-0.51c0.097,0.655 0.243,1.043 -0.048,1.48c-0.291,0.437 -0.534,0.825 -0.898,0.873c-0.364,0.049 -0.849,0.413 -0.825,-0.048Zm10.068,0.194c-0.553,-0.035 -0.461,-0.995 -0.364,-1.626c0.097,-0.63 0.437,-0.873 0.412,-1.261c-0.024,-0.388 -0.194,-0.364 -0.242,-0.922c-0.049,-0.558 0.17,-0.703 0.17,-1.019c-0,-0.315 -0.267,-0.339 -0.243,-0.873c0.024,-0.534 0.728,-0.534 0.655,-0.922c-0.073,-0.388 -0.34,-0.461 -0.364,-0.922c-0.024,-0.461 0.194,-0.873 0.049,-1.164c-0.146,-0.291 -0.437,-0.437 -0.51,-0.849c-0.073,-0.413 0.485,-0.728 0.582,-0.995c0.097,-0.267 0.389,-0.776 0.777,-0.897c0.388,-0.122 0.606,0.485 0.121,0.655c-0.485,0.169 -0.267,0.509 -0.291,0.897c-0.024,0.388 -0.194,0.752 -0.049,1.043c0.146,0.291 0.704,0.34 0.752,0.849c0.049,0.51 -0.291,0.849 -0.315,1.238c-0.024,0.388 0.024,0.8 -0.048,1.285c-0.073,0.486 -0.389,0.413 -0.364,0.728c0.024,0.315 0.509,0.364 0.485,0.97c-0.024,0.607 -0.437,0.874 -0.461,1.165c-0.024,0.291 0.048,0.728 -0.024,1.334c-0.073,0.607 -0.34,1.31 -0.728,1.286Zm4.124,-1.359c0.043,-0.183 0.419,-0.25 0.742,-0.183c0.323,0.067 0.592,0.268 0.422,0.62c-0.339,0.704 -1.261,-0.024 -1.164,-0.437Zm-11.96,-1.674c-0.433,-0.061 -0.17,-1.043 0.316,-1.552c0.485,-0.51 0.558,-0.655 1.043,-0.388c0.485,0.267 3.178,1.577 2.838,2.353c-0.34,0.776 -1.019,1.164 -1.819,0.728c-0.801,-0.437 -1.868,-1.068 -2.378,-1.141Zm11.232,0.34c-0.474,-0.045 -0.638,-0.239 -0.589,-0.443c0.049,-0.204 0.31,-0.418 0.686,-0.503c0.752,-0.17 1.431,1.092 -0.097,0.946Zm-5.24,-0.849c-0.632,-0.021 -1.431,-0.291 -1.213,-0.752c0.219,-0.461 0.995,-0.558 1.456,-0.34c0.461,0.219 1.213,1.141 -0.243,1.092Zm5.774,-1.14c-0.522,0.026 -0.922,-0.995 -0.34,-1.213c0.582,-0.218 1.504,0.558 1.601,0.752c0.097,0.194 -0.776,0.437 -1.261,0.461Zm-9.219,-0.849c0.053,-0.262 0.51,-0.097 0.558,-0.413c0.049,-0.315 0.534,-1.504 0.995,-1.455c0.461,0.048 0.606,0.849 0.461,1.552c-0.146,0.704 -0.655,0.971 -1.14,0.801c-0.485,-0.17 -0.922,-0.243 -0.874,-0.485Zm-1.261,-0.364c-0.535,0.027 -0.776,-0.607 -1.019,-0.898c-0.242,-0.291 -0.631,-0.388 -0.485,-0.873c0.145,-0.485 0.558,-1.213 1.237,-1.189c0.679,0.025 1.092,0.874 1.043,1.48c-0.048,0.607 -0.291,1.456 -0.776,1.48Zm12.906,-2.208c-0.097,0.267 -0.437,0.291 -0.51,0.486c-0.072,0.194 0.146,0.776 -0.267,1.164c-0.412,0.388 -1.698,0.097 -1.018,-0.607c0.679,-0.703 0.873,-0.048 0.824,-0.46c-0.048,-0.413 -0.072,-0.922 0.316,-0.922c0.388,-0 0.752,0.073 0.655,0.339Zm-8.806,-0.266c0.242,-0.146 1.431,-0.461 1.431,0.242c0,0.704 -0.17,1.189 -0.776,1.14c-0.607,-0.048 -0.34,-0.436 -0.607,-0.776c-0.267,-0.34 -0.291,-0.461 -0.048,-0.606Zm7.205,-1.092c0.109,0.473 -0.558,0.364 -0.704,0.655c-0.145,0.291 0.364,0.461 0.17,0.8c-0.194,0.34 -1.359,0.558 -1.213,-0.703c0.146,-1.262 1.601,-1.383 1.747,-0.752Zm-9.971,0.097c-0.338,-0.136 0.194,-0.898 0.679,-1.043c0.486,-0.146 0.777,0.267 0.389,0.509c-0.389,0.243 -0.825,0.631 -1.068,0.534Zm10.844,-0.364c0.03,0.241 0.703,0.485 0.898,0.121c0.194,-0.364 -0.025,-0.727 -0.486,-0.703c-0.461,0.024 -0.436,0.388 -0.412,0.582Zm-8.782,-0.194c-0.267,-0.218 -0.145,-0.704 -0.194,-1.067c-0.048,-0.364 0.752,-0.51 1.286,-0.413c0.534,0.097 0.631,0.679 0.218,1.043c-0.412,0.364 -1.043,0.655 -1.31,0.437Zm-4.706,-0.849c-0.326,0.05 0.073,-0.558 -0.024,-0.825c-0.097,-0.267 0.073,-0.825 0.509,-0.8c0.437,0.024 0.752,0.436 0.679,0.8c-0.072,0.364 -0.849,0.776 -1.164,0.825Zm2.159,-2.353c0.228,0.082 -0.194,0.509 0.049,0.679c0.242,0.17 0.727,0.194 0.436,0.631c-0.291,0.436 -0.994,0.485 -1.164,0.145c-0.17,-0.339 0.073,-1.674 0.679,-1.455Zm9.243,1.601c-0.25,0.216 -0.316,-0.121 -0.777,-0.024c-0.461,0.097 -0.461,-0.364 -0.097,-0.461c0.364,-0.097 2.159,-0.631 0.874,0.485Zm-12.663,-0.534c-0.535,0 -1.238,-0.8 -1.141,-1.261c0.097,-0.461 0.68,-0.558 1.116,-0.146c0.437,0.413 0.874,1.407 0.025,1.407Z" style="fill:#452513;"/><path d="M97.373,70.939c0,0 0.267,-0.776 0.777,-0.849c0.509,-0.072 1.94,-0.169 1.94,-0.169c0,-0 -0.315,1.455 -2.717,1.018Zm-3.25,-0.048c-0,-0 0.752,-0.849 1.188,-0.97c0.437,-0.122 2.208,0.024 1.504,0.315c-0.703,0.291 -0.121,0.922 -2.692,0.655Zm-2.329,-1.237c0.536,-0 1.771,0.291 2.135,0.364c0.363,0.072 -0.267,0.388 -0.607,0.485c-0.34,0.097 -2.159,0.145 -2.571,-0.024c-0.413,-0.17 0.461,-0.825 1.043,-0.825Zm-4.076,-0.243c-0.16,-0.264 -1.067,-0.048 -1.261,-0.388c-0.194,-0.34 0.533,-1.407 1.674,-1.286c1.14,0.122 1.94,0.874 1.649,1.82c-0.291,0.946 -1.722,0.412 -2.062,-0.146Zm10.99,-0.679c-0,-0 1.043,-1.116 1.382,-0.631c0.34,0.485 0.316,1.407 -0.145,1.407c-0.461,0 -0.51,-0.388 -0.631,-0.631c-0.121,-0.242 -0.606,-0.145 -0.606,-0.145Zm-1.48,-1.771c0.409,0.13 -0.17,0.582 -0.073,0.995c0.097,0.412 0.509,0.776 -0.024,0.994c-0.534,0.219 -2.087,-0.097 -2.062,-0.873c0.024,-0.776 1.625,-1.286 2.159,-1.116Zm-13.076,1.213c-0.495,-0.138 -1.577,-0.728 -1.504,-1.043c0.073,-0.316 0.776,-0.461 0.995,-1.019c0.218,-0.558 0.873,-0.995 1.383,-0.388c0.509,0.606 1.164,1.552 0.654,2.329c-0.509,0.776 -1.091,0.242 -1.528,0.121Zm6.696,-0.267c-0.308,-0.118 -0.437,-1.286 0.194,-1.722c0.63,-0.437 1.771,-0.364 1.722,0.63c-0.048,0.995 0.291,1.941 -1.916,1.092Zm8.951,-0.922c0.226,-0.118 0.584,-0.185 0.794,-0.137c0.211,0.048 0.274,0.21 -0.09,0.55c-0.728,0.679 -1.213,-0.146 -0.704,-0.413Zm-20.596,-0.776c-0.218,-0.509 -0.266,-0.995 0.146,-1.553c0.412,-0.558 1.116,-1.601 1.577,-0.388c0.461,1.213 1.527,2.654 -0.267,2.475c-0.485,-0.049 -1.237,-0.025 -1.456,-0.534Zm16.302,-0.315c0.324,-0.416 0.463,-0.822 0.355,-1.007c-0.108,-0.184 -0.464,-0.146 -1.131,0.327c-1.334,0.946 0.097,1.553 0.776,0.68Zm2.814,0.388c0.241,0.043 0.568,-0.011 0.751,-0.104c0.182,-0.093 0.22,-0.224 -0.12,-0.333c-0.679,-0.218 -1.164,0.34 -0.631,0.437Zm-22.924,-1.65c-0.464,-0.314 -1.674,-0.631 -1.771,-1.164c-0.097,-0.534 0.485,-1.456 1.286,-1.262c0.8,0.194 1.795,0.946 1.989,1.601c0.194,0.655 0.679,2.305 -1.504,0.825Zm-6.068,-2.607c0.562,0.097 1.088,-1.177 0.642,-1.48c-0.446,-0.303 -1.23,-0.321 -1.444,0.107c-0.214,0.428 -0.018,1.23 0.802,1.373Zm-3.316,-1.712c0.322,-0.012 -0.054,0.481 0.231,0.642c0.286,0.16 0.892,0.41 0.624,0.695c-0.267,0.286 -2.104,0.41 -2.157,-0.142c-0.054,-0.553 0.339,-1.159 1.302,-1.195Zm-3.281,0.553c-0.376,0.01 -1.89,-0.321 -1.962,-0.821c-0.071,-0.499 1.052,-1.087 1.676,-0.784c0.624,0.303 0.945,1.587 0.286,1.605Zm1.979,-1.552c-0.373,-0.096 -0.446,-0.445 -0.018,-0.784c0.428,-0.339 0.963,-0.072 0.838,0.303c-0.125,0.374 -0.339,0.606 -0.82,0.481Zm-6.74,-0.142c-0.392,-0.058 -0.704,-0.384 -0.74,-0.69c-0.035,-0.307 0.205,-0.594 0.918,-0.576c1.427,0.035 1.391,1.498 -0.178,1.266Zm-4.262,-0.5c-0.089,-0.267 0.482,-0.588 0.892,-0.499c0.41,0.089 1.034,0.678 0.642,0.838c-0.393,0.161 -0.749,-0.071 -0.999,-0.178c-0.249,-0.107 -0.446,0.107 -0.535,-0.161Z" style="fill:#5c4a24;"/><path d="M94.429,91.374c0,0 -0.101,0.745 0.339,0.847c0.44,0.101 1.389,-0.44 0.932,-0.694c-0.458,-0.254 -0.932,-0.288 -1.271,-0.153Zm-2.675,-0.982c0.083,-0.148 1.71,0.322 1.541,0.728c-0.169,0.407 -0.982,0.322 -1.27,0.237c-0.288,-0.084 -0.423,-0.694 -0.271,-0.965Zm-1.473,0.948c0.198,-0.158 -0.322,-0.626 -0.119,-0.863c0.203,-0.237 0.373,-0.153 0.542,-0.305c0.169,-0.153 -1.05,-1.321 -1.507,-0.982c-0.457,0.338 0.66,2.489 1.084,2.15Zm3.742,-2.404c-0.135,0.169 0.119,1.151 0.559,1.1c0.44,-0.05 0.525,-0.846 0.237,-0.999c-0.288,-0.152 -0.66,-0.271 -0.796,-0.101Zm-2.642,-1.075c-0.061,-0.455 2.238,-0 1.984,0.469c-0.255,0.469 0.174,0.576 -0.215,1.126c-0.389,0.549 -1.501,0.429 -1.769,-1.595Zm-3.996,0.55c0,-0 0.169,1.371 0.796,1.236c0.627,-0.136 0.525,-0.508 0.288,-0.796c-0.237,-0.288 -1.118,-0.745 -1.084,-0.44Zm-10.175,0.186c0.49,0.049 0.355,-0.44 0.745,-0.508c0.389,-0.068 0.576,0.186 0.965,0.22c0.39,0.034 1.067,-0.847 0.711,-1.371c-0.355,-0.525 -1.202,-0.576 -1.524,-0.508c-0.321,0.067 -0.592,-0.238 -1.1,-0.119c-0.508,0.119 -0.644,2.201 0.203,2.286Zm3.793,-0.135c0.474,0.138 0.677,-0.407 1.033,-0.441c0.356,-0.034 0.66,0.322 1.118,0.305c0.457,-0.017 0.897,-1.727 -0.068,-1.829c-0.965,-0.101 -0.728,0.356 -1.135,0.339c-0.406,-0.017 -0.305,-0.254 -0.762,-0.271c-0.457,-0.017 -1.524,1.507 -0.186,1.897Zm8.997,-0.079c0.214,-0.103 -0.402,-0.603 -0.295,-0.764c0.107,-0.16 0.322,-0.026 0.442,-0.254c0.121,-0.228 -1.461,-0.644 -1.608,-0.416c-0.148,0.228 1.072,1.622 1.461,1.434Zm-17.091,-0.683c0.27,-0.035 0.152,0.609 0.525,0.558c0.372,-0.05 1.541,-0.846 1.236,-1.49c-0.305,-0.643 -0.779,-0.643 -1.812,-0.609c-1.033,0.033 -1.863,0.592 -1.558,1.354c0.305,0.762 1.084,0.254 1.609,0.187Zm-5.521,-0.119c-0.203,-0.236 0.728,-0.389 1.067,-0.525c0.339,-0.135 1.185,-0.525 1.406,-0.305c0.22,0.22 -0.491,0.881 -0.898,0.949c-0.406,0.067 -1.253,0.254 -1.575,-0.119Zm17.56,-0.085c0.147,0.21 0.763,0.22 1.203,0.254c0.44,0.034 1.676,-0.067 1.456,-0.66c-0.22,-0.593 -0.61,-0.779 -1.067,-0.627c-0.457,0.153 -0.355,0.695 -0.677,0.762c-0.322,0.068 -1.033,0.102 -0.915,0.271Z" style="fill:#491d10;"/></g></g></svg>