<?xml version="1.0" encoding="UTF-8" standalone="no"?><!DOCTYPE svg PUBLIC "-//W3C//DTD SVG 1.1//EN" "http://www.w3.org/Graphics/SVG/1.1/DTD/svg11.dtd"><svg width="100%" height="100%" viewBox="0 0 150 150" version="1.1" xmlns="http://www.w3.org/2000/svg" xmlns:xlink="http://www.w3.org/1999/xlink" xml:space="preserve" xmlns:serif="http://www.serif.com/" style="fill-rule:evenodd;clip-rule:evenodd;stroke-linejoin:round;stroke-miterlimit:2;"><path id="base" d="M150,75c0,-41.394 -33.606,-75 -75,-75c-41.394,0 -75,33.606 -75,75c0,41.394 33.606,75 75,75c41.394,0 75,-33.606 75,-75Z" style="fill:#00b894;"/><path id="outline" d="M144,75c0,-38.082 -30.918,-69 -69,-69c-38.082,0 -69,30.918 -69,69c0,38.082 30.918,69 69,69c38.082,0 69,-30.918 69,-69Z" style="fill:#dfe6e9;"/><path id="core" d="M141,75c0,-36.426 -29.574,-66 -66,-66c-36.426,0 -66,29.574 -66,66c0,36.426 29.574,66 66,66c36.426,0 66,-29.574 66,-66Z" style="fill:#81ecec;"/><clipPath id="_clip1"><path d="M141,75c0,-36.426 -29.574,-66 -66,-66c-36.426,0 -66,29.574 -66,66c0,36.426 29.574,66 66,66c36.426,0 66,-29.574 66,-66Z"/></clipPath><g clip-path="url(#_clip1)"><path id="rummy-nose-rasbora" d="M21.463,58.46c-0,-0 -0.479,-0.602 -0.301,-0.876c0.178,-0.273 0.684,-0.533 0.903,-0.697c0.219,-0.165 0.957,-0.643 1.6,-0.835c0.643,-0.192 1.669,-0.506 2.176,-0.794c0.506,-0.287 2.982,-1.162 3.584,-1.244c0.602,-0.083 3.092,-0.233 4.091,-0.274c0.998,-0.041 3.612,-0.014 4.282,-0.274c0.67,-0.26 1.395,-0.506 2.681,-0.848c1.286,-0.342 2.299,-0.534 2.969,-0.629c0.671,-0.096 6.512,-0.684 7.142,-0.671c0.629,0.014 4.897,0.192 5.691,0.288c0.793,0.095 6.854,0.752 8.523,0.492c1.669,-0.26 7.894,-1.518 9.057,-1.737c1.163,-0.219 8.058,-1.464 8.51,-1.464c0.451,-0 1.86,0.301 2.066,0.451c0.205,0.151 0.725,1.628 0.465,1.943c-0.26,0.315 -0.643,0.862 -0.766,1.382c-0.124,0.52 -0.096,0.78 -0.192,1.163c-0.096,0.383 -0.192,0.738 -0.739,1.245c-0.547,0.506 -0.602,0.916 -0.834,1.094c-0.233,0.178 -0.342,0.301 -0.548,0.479c-0.205,0.178 -1.026,0.397 -0.643,0.917c0.384,0.519 0.575,0.437 0.985,0.944c0.411,0.506 0.849,0.875 1.013,1.327c0.164,0.451 0.41,0.889 0.766,1.039c0.356,0.151 4.528,1.806 5.048,1.984c0.52,0.178 3.954,1.478 4.884,1.779c0.931,0.301 3.503,1.45 5.774,1.299c2.271,-0.15 6.922,-0.095 7.866,-0.15c0.944,-0.055 4.637,-0.301 5.131,-0.452c0.494,-0.15 4.967,-0.424 6.062,-0.218c1.094,0.205 2.668,0.684 2.777,1.244c0.109,0.561 0.287,1.697 -0.78,2.778c-1.067,1.081 -2.503,1.983 -4.008,2.462c-1.505,0.479 -5.062,2.258 -6.088,2.531c-1.026,0.274 -1.656,0.329 -1.806,0.534c-0.151,0.205 1.327,3.092 1.737,3.516c0.411,0.424 3.366,4.692 3.626,5.117c0.26,0.424 1.491,3.05 1.409,3.543c-0.082,0.493 -0.356,1.573 -0.862,1.929c-0.506,0.356 -1.272,0.711 -1.943,0.561c-0.67,-0.151 -3.379,-2.025 -3.885,-2.34c-0.506,-0.314 -3.653,-3.475 -4.036,-3.899c-0.383,-0.424 -3.886,-3.899 -4.624,-4.35c-0.739,-0.452 -2.846,-2.394 -3.598,-2.736c-0.753,-0.342 -4.501,-1.902 -5.637,-1.929c-1.136,-0.028 -2.476,-0.124 -2.9,0.328c-0.425,0.451 -0.165,0.451 -0.479,0.862c-0.315,0.41 -0.589,0.67 -1.245,0.862c-0.657,0.191 -0.78,-0.082 -1.054,0.355c-0.273,0.438 -0.219,1.054 0.096,1.902c0.315,0.848 0.698,1.943 0.753,2.257c0.054,0.315 0.342,1.806 0.041,2.367c-0.301,0.561 -0.466,1.368 -1.834,0.589c-1.368,-0.78 -4.911,-3.393 -5.212,-3.735c-0.301,-0.342 -4.132,-3.489 -4.487,-3.886c-0.356,-0.397 -1.314,-1.163 -1.314,-1.163c0,0 -0.383,-0.273 -0.711,-0.013c-0.329,0.26 -0.602,0.068 -0.356,0.602c0.246,0.533 0.274,0.369 0.602,1.067c0.328,0.697 0.67,1.491 0.424,1.71c-0.246,0.219 -0.342,0.821 -1.683,0.533c0,0 0.11,0.821 -0.547,1.068c-0.657,0.246 -1.56,0.246 -2.64,-0.192c-1.081,-0.438 -4.255,-2.449 -4.884,-2.846c-0.63,-0.396 -2.819,-2.12 -4.543,-3.461c0,0 -1.669,-0.205 -3.078,-0.616c-1.409,-0.41 -2.312,-0.944 -2.9,-1.026c-0.588,-0.082 -3.927,-0.219 -4.83,-0.314c-0.903,-0.096 -2.106,-0.903 -2.9,-1.136c-0.793,-0.232 -3.023,-0.506 -4.05,-0.766c-1.026,-0.26 -3.365,-0.52 -3.981,-0.629c-0.615,-0.11 -2.9,-0.465 -3.529,-0.643c-0.63,-0.178 -0.985,-0.301 -2.148,-0.89c-1.163,-0.588 -1.793,-1.08 -2.723,-1.409c-0.93,-0.328 -2.326,-0.52 -2.681,-0.629c-0.356,-0.109 -1.341,-1.19 -1.806,-1.56c-0.465,-0.369 -2.381,-2.408 -2.873,-3.023c-0.493,-0.616 -0.919,-2.148 -0.056,-2.189Z" style="fill:#9ed1d4;"/><clipPath id="_clip2"><path d="M21.463,58.46c-0,-0 -0.479,-0.602 -0.301,-0.876c0.178,-0.273 0.684,-0.533 0.903,-0.697c0.219,-0.165 0.957,-0.643 1.6,-0.835c0.643,-0.192 1.669,-0.506 2.176,-0.794c0.506,-0.287 2.982,-1.162 3.584,-1.244c0.602,-0.083 3.092,-0.233 4.091,-0.274c0.998,-0.041 3.612,-0.014 4.282,-0.274c0.67,-0.26 1.395,-0.506 2.681,-0.848c1.286,-0.342 2.299,-0.534 2.969,-0.629c0.671,-0.096 6.512,-0.684 7.142,-0.671c0.629,0.014 4.897,0.192 5.691,0.288c0.793,0.095 6.854,0.752 8.523,0.492c1.669,-0.26 7.894,-1.518 9.057,-1.737c1.163,-0.219 8.058,-1.464 8.51,-1.464c0.451,-0 1.86,0.301 2.066,0.451c0.205,0.151 0.725,1.628 0.465,1.943c-0.26,0.315 -0.643,0.862 -0.766,1.382c-0.124,0.52 -0.096,0.78 -0.192,1.163c-0.096,0.383 -0.192,0.738 -0.739,1.245c-0.547,0.506 -0.602,0.916 -0.834,1.094c-0.233,0.178 -0.342,0.301 -0.548,0.479c-0.205,0.178 -1.026,0.397 -0.643,0.917c0.384,0.519 0.575,0.437 0.985,0.944c0.411,0.506 0.849,0.875 1.013,1.327c0.164,0.451 0.41,0.889 0.766,1.039c0.356,0.151 4.528,1.806 5.048,1.984c0.52,0.178 3.954,1.478 4.884,1.779c0.931,0.301 3.503,1.45 5.774,1.299c2.271,-0.15 6.922,-0.095 7.866,-0.15c0.944,-0.055 4.637,-0.301 5.131,-0.452c0.494,-0.15 4.967,-0.424 6.062,-0.218c1.094,0.205 2.668,0.684 2.777,1.244c0.109,0.561 0.287,1.697 -0.78,2.778c-1.067,1.081 -2.503,1.983 -4.008,2.462c-1.505,0.479 -5.062,2.258 -6.088,2.531c-1.026,0.274 -1.656,0.329 -1.806,0.534c-0.151,0.205 1.327,3.092 1.737,3.516c0.411,0.424 3.366,4.692 3.626,5.117c0.26,0.424 1.491,3.05 1.409,3.543c-0.082,0.493 -0.356,1.573 -0.862,1.929c-0.506,0.356 -1.272,0.711 -1.943,0.561c-0.67,-0.151 -3.379,-2.025 -3.885,-2.34c-0.506,-0.314 -3.653,-3.475 -4.036,-3.899c-0.383,-0.424 -3.886,-3.899 -4.624,-4.35c-0.739,-0.452 -2.846,-2.394 -3.598,-2.736c-0.753,-0.342 -4.501,-1.902 -5.637,-1.929c-1.136,-0.028 -2.476,-0.124 -2.9,0.328c-0.425,0.451 -0.165,0.451 -0.479,0.862c-0.315,0.41 -0.589,0.67 -1.245,0.862c-0.657,0.191 -0.78,-0.082 -1.054,0.355c-0.273,0.438 -0.219,1.054 0.096,1.902c0.315,0.848 0.698,1.943 0.753,2.257c0.054,0.315 0.342,1.806 0.041,2.367c-0.301,0.561 -0.466,1.368 -1.834,0.589c-1.368,-0.78 -4.911,-3.393 -5.212,-3.735c-0.301,-0.342 -4.132,-3.489 -4.487,-3.886c-0.356,-0.397 -1.314,-1.163 -1.314,-1.163c0,0 -0.383,-0.273 -0.711,-0.013c-0.329,0.26 -0.602,0.068 -0.356,0.602c0.246,0.533 0.274,0.369 0.602,1.067c0.328,0.697 0.67,1.491 0.424,1.71c-0.246,0.219 -0.342,0.821 -1.683,0.533c0,0 0.11,0.821 -0.547,1.068c-0.657,0.246 -1.56,0.246 -2.64,-0.192c-1.081,-0.438 -4.255,-2.449 -4.884,-2.846c-0.63,-0.396 -2.819,-2.12 -4.543,-3.461c0,0 -1.669,-0.205 -3.078,-0.616c-1.409,-0.41 -2.312,-0.944 -2.9,-1.026c-0.588,-0.082 -3.927,-0.219 -4.83,-0.314c-0.903,-0.096 -2.106,-0.903 -2.9,-1.136c-0.793,-0.232 -3.023,-0.506 -4.05,-0.766c-1.026,-0.26 -3.365,-0.52 -3.981,-0.629c-0.615,-0.11 -2.9,-0.465 -3.529,-0.643c-0.63,-0.178 -0.985,-0.301 -2.148,-0.89c-1.163,-0.588 -1.793,-1.08 -2.723,-1.409c-0.93,-0.328 -2.326,-0.52 -2.681,-0.629c-0.356,-0.109 -1.341,-1.19 -1.806,-1.56c-0.465,-0.369 -2.381,-2.408 -2.873,-3.023c-0.493,-0.616 -0.919,-2.148 -0.056,-2.189Z"/></clipPath><g clip-path="url(#_clip2)"><path d="M36.643,52.448c-0,-0 2.123,1.653 3.163,3.041c1.041,1.388 3.123,6.653 3.286,7.327c0.164,0.673 4.29,7.101 1.123,7.47c-25.444,2.961 -40.398,-16.252 -7.572,-17.838Z" style="fill:#7a6b63;"/><path d="M26.071,67.122c0,0 6.286,-0.041 7.184,-1.061c0.898,-1.021 2,-2.633 1.327,-3.959c-0,-0 -0.449,1.367 -0.98,1.836c-0.531,0.47 0.041,-1.53 0.163,-2.224c0.123,-0.694 0.041,-1.47 -0.571,-0.776c-0.612,0.694 -1.898,1.47 -3.184,1.204c-1.286,-0.265 -2.408,-0.979 -2.898,-1.714c-0.49,-0.735 -0.714,-2.51 -0.367,-3.102c0.346,-0.592 1.061,-1.449 1.265,-1.613c0.204,-0.163 -1.204,0.592 -1.449,0.98c-0.245,0.388 0.143,-0.102 -1.184,0.143c-1.326,0.245 -1.612,0.224 -1.612,0.224c-0,0 0.081,-0.265 -0.592,-0.367c-0.674,-0.102 -1.667,-0.065 -1.919,0.02c-4.647,1.585 1.88,11.366 4.817,10.409Z" style="fill:#e78000;"/><path d="M108.168,86.605c-0.614,-1.973 -0.601,-5.838 3.686,-4.351c4.288,1.487 7.974,7.562 4.082,7.879c-3.892,0.316 -7.325,-2.104 -7.768,-3.528Zm5.353,-22.987c-0,-0 -2.057,0.443 -1.788,2.167c0.269,1.725 2.679,5.98 8.4,4.525c5.722,-1.456 3.265,-7.863 -6.612,-6.692Z" style="fill:#c97a1c;"/></g></g></svg>