<?xml version="1.0" encoding="UTF-8" standalone="no"?><!DOCTYPE svg PUBLIC "-//W3C//DTD SVG 1.1//EN" "http://www.w3.org/Graphics/SVG/1.1/DTD/svg11.dtd"><svg width="100%" height="100%" viewBox="0 0 150 150" version="1.1" xmlns="http://www.w3.org/2000/svg" xmlns:xlink="http://www.w3.org/1999/xlink" xml:space="preserve" xmlns:serif="http://www.serif.com/" style="fill-rule:evenodd;clip-rule:evenodd;stroke-linejoin:round;stroke-miterlimit:2;"><path id="base" d="M150,75c0,-41.394 -33.606,-75 -75,-75c-41.394,0 -75,33.606 -75,75c0,41.394 33.606,75 75,75c41.394,0 75,-33.606 75,-75Z" style="fill:#00b894;"/><path id="outline" d="M144,75c0,-38.082 -30.918,-69 -69,-69c-38.082,0 -69,30.918 -69,69c0,38.082 30.918,69 69,69c38.082,0 69,-30.918 69,-69Z" style="fill:#dfe6e9;"/><path id="core" d="M141,75c0,-36.426 -29.574,-66 -66,-66c-36.426,0 -66,29.574 -66,66c0,36.426 29.574,66 66,66c36.426,0 66,-29.574 66,-66Z" style="fill:#81ecec;"/><clipPath id="_clip1"><path d="M141,75c0,-36.426 -29.574,-66 -66,-66c-36.426,0 -66,29.574 -66,66c0,36.426 29.574,66 66,66c36.426,0 66,-29.574 66,-66Z"/></clipPath><g clip-path="url(#_clip1)"><g id="scarlet-badis"><path d="M134.025,75.25c0,0 -1.623,-3.065 -3.156,-4.869c-1.533,-1.803 -15.599,-10.009 -19.657,-11.812c-4.058,-1.804 -12.263,-3.787 -12.263,-3.787c-0,-0 0.27,-0.902 -0.631,-1.623c-0.902,-0.722 -13.526,-6.493 -14.788,-7.214c-1.263,-0.722 -8.206,-1.894 -10.731,-1.263c-2.525,0.632 -11.181,1.533 -14.698,1.263c-3.516,-0.271 -8.746,-2.615 -8.746,-2.615c-0,-0 -6.492,-0.902 -9.739,4.328c-3.246,5.23 1.173,9.378 4.329,10.099c3.156,0.722 7.664,2.615 7.664,2.615c0,0 1.263,1.172 0.361,1.353c-0.902,0.18 -8.747,1.533 -10.099,1.352c-1.353,-0.18 -7.304,-1.713 -9.288,-2.795c-1.984,-1.082 -7.935,-4.148 -13.886,-2.525c-5.951,1.623 -3.968,11.993 -2.976,15.51c0.992,3.516 4.689,15.779 6.853,17.853c2.164,2.074 6.583,1.082 10.009,-0.992c3.427,-2.073 6.673,-5.59 6.943,-6.582c0,0 1.894,-0.27 2.705,-1.172c0.812,-0.902 2.886,-3.787 8.386,-3.427c5.501,0.361 8.296,0.361 8.296,0.361c-0,-0 -8.566,0.902 -10.37,1.353c-1.803,0.45 -4.238,5.951 -4.598,8.025c-0.361,2.074 -0.091,6.131 5.23,6.222c5.32,0.09 8.926,-0.271 11.181,-1.353c2.254,-1.082 8.025,-6.943 11.001,-8.115c2.975,-1.173 8.295,-1.623 13.886,-1.173c5.59,0.451 9.738,0.812 9.738,0.812c0,-0 -5.951,1.172 -8.205,3.246c-2.255,2.074 -0.722,12.083 0.27,16.591c0.992,4.509 0.992,12.173 0.541,13.165c0,0 5.771,-7.484 7.034,-10.009c1.262,-2.524 6.221,-13.615 5.861,-17.673c-0.361,-4.058 -0.271,-5.05 -0.271,-5.05c0,0 1.984,0.361 5.771,0.361c3.787,0 9.288,-0.992 13.255,-1.803c3.968,-0.812 11.091,-3.968 14.788,-8.657Z" style="fill:#e33502;"/><path d="M53.269,86.981c0.655,-0.436 3.225,-2.215 2.682,-2.94c-0.622,-0.828 -3.038,0.76 -3.038,0.76c-0,-0 2.209,-1.519 1.795,-2.072c-0.414,-0.552 -0.69,-1.173 0.069,-2.347c0,-0 2.002,2.416 6.145,2.969c4.143,0.552 6.421,0.897 7.249,1.657l-1.518,2.14c-0,0 0.828,-1.519 -0,-1.933c-0.635,-0.317 -2.81,2.283 -3.792,3.517c-0.288,0.377 -0.489,0.626 -0.489,0.626c-0,-0 0.189,-0.25 0.489,-0.626c0.866,-1.138 2.515,-3.448 1.789,-3.655c-0.966,-0.276 -6.145,4.419 -6.145,4.419c0,-0 3.729,-4.212 3.038,-4.902c-0.69,-0.691 -6.628,4.349 -6.628,4.349c0,0 4.419,-4.418 3.867,-4.833c-0.497,-0.372 -4.668,2.319 -5.513,2.871c-0.094,0.063 -0.149,0.098 -0.149,0.098c-0,0 0.053,-0.035 0.149,-0.098Zm38.556,-2.533c0,-0 -0.631,-0.09 -1.082,-1.082c-0.451,-0.992 -0.721,-1.353 -1.262,-4.238c-0.541,-2.886 -0.451,-1.353 -0.541,-4.689c-0.09,-3.337 -0.541,-3.337 0.451,-6.312c0.992,-2.976 0.541,-3.156 0.541,-4.689c-0,-1.533 -0.361,-1.803 -0,-2.976c0.36,-1.172 1.352,-3.697 1.352,-3.697l1.533,-1.803c0,-0 2.615,2.976 2.435,4.058c-0.181,1.082 -0.541,0.27 -0.812,3.697c-0.27,3.426 0.09,3.156 -0.451,5.5c-0.541,2.344 -0.36,1.984 -0.09,3.697c0.271,1.713 0.992,1.172 0.271,3.426c-0.722,2.255 -1.082,2.706 -1.443,4.148c-0.361,1.443 -0.451,3.968 -0.451,3.968l-0.451,0.992Zm-6.763,-0.992c0,-0 -2.614,1.082 -3.336,0.451c-0.721,-0.631 -0.811,-0.631 -0.992,-2.705c-0.18,-2.074 0.722,-1.714 -0.09,-3.968c-0.811,-2.254 -1.352,-3.246 -1.352,-3.246c-0,-0 0.721,-0.812 0.991,-2.435c0.271,-1.623 0.902,-1.803 0.632,-4.057c-0.271,-2.255 -1.082,-2.255 -0.632,-3.337c0.451,-1.082 0.722,-1.352 0.992,-3.246c0.271,-1.893 1.173,-3.877 1.173,-3.877c-0,-0 -0.091,-2.254 0.901,-2.254c0.992,-0 1.804,2.074 1.984,3.606c0.18,1.533 0.631,2.165 0.721,3.788c0.091,1.623 0.541,1.442 0.091,2.615c-0.451,1.172 -0.542,-0.722 -0.902,2.254c-0.361,2.975 -0.631,5.14 -0.361,6.763c0.271,1.623 0.541,2.885 0.902,4.238c0.361,1.352 -0.541,4.959 -0.722,5.41Zm16.412,-24.617c-1.051,0.105 -2.165,1.804 -2.435,3.517c-0.271,1.713 -0.09,3.517 0.361,4.689c0.45,1.172 1.172,1.803 0.901,3.787c-0.27,1.984 -1.082,1.713 -0.36,3.517c0.721,1.803 1.893,2.795 2.705,3.516c0.811,0.722 1.803,2.796 1.803,2.796c0,-0 0.722,3.697 1.443,2.885c0.721,-0.812 1.443,-5.14 0.541,-6.222c-0.902,-1.082 -1.353,-0.451 -1.623,-2.885c-0.271,-2.435 -0.361,-2.886 -0.631,-4.779c-0.271,-1.894 -1.082,-2.615 -1.173,-4.328c-0.09,-1.714 -0.27,-1.984 -0.27,-3.337c-0,-1.352 -0.361,-3.246 -1.262,-3.156Zm-26.33,17.223c-0,-0 -0.09,1.803 0.631,2.885c0.721,1.082 1.172,1.533 1.713,2.435c0.541,0.902 0.631,1.984 0.631,1.984c0,-0 -1.983,0.18 -3.516,0.09c-1.533,-0.09 -2.345,-0.812 -2.345,-0.812c0,0 -0.18,-1.623 -0.451,-2.885c-0.27,-1.263 -1.262,-1.804 -0.631,-3.517c0.631,-1.713 1.443,-1.533 0.992,-2.615c-0.451,-1.082 -1.623,-0.451 -0.721,-3.697c0.901,-3.246 0.541,-5.771 0.811,-7.304c0.271,-1.532 0.902,-4.057 0,-5.139c-0.901,-1.082 -0.721,-1.623 -0.721,-1.623l2.525,-1.173c-0,0 1.352,0.902 1.983,2.165c0.632,1.262 1.714,3.065 1.173,5.77c-0.541,2.706 -0.902,1.984 -0.632,4.329c0.271,2.344 1.173,2.615 0.181,4.869c-0.992,2.254 -0.451,3.607 -1.623,4.238Zm-8.386,6.222c-0.992,-0.451 -1.713,-0.992 -2.074,-1.714c-0.361,-0.721 -0.992,0.361 -0.902,-1.803c0.09,-2.164 -0.18,-3.877 0.09,-4.959c0.271,-1.082 0.541,-1.894 0.451,-3.968c-0.09,-2.074 -0.992,-2.435 -0.901,-4.328c0.09,-1.894 -0.451,-4.328 -0.091,-6.042c0.361,-1.713 -0.18,-3.246 1.714,-3.606c1.893,-0.361 2.705,-0.451 3.065,1.172c0.361,1.623 0.451,-1.263 0.451,3.607c0,4.869 -0.36,4.869 -0.541,6.672c-0.18,1.804 -1.172,2.435 -0.811,4.328c0.36,1.894 1.172,1.443 1.082,3.427c-0.09,1.984 -0.181,1.623 0.09,3.517c0.27,1.893 0.631,4.418 -0.18,4.779c-0.812,0.36 -0.451,-0.632 -1.443,-1.082Zm-29.847,-20.199c0,0 -3.156,3.156 -3.065,4.509c0.09,1.352 1.623,2.795 1.713,4.959c0.09,2.164 -0.451,3.517 -0.09,5.501c0.36,1.983 2.434,4.689 3.426,5.049c0.992,0.361 -1.262,-3.697 -1.262,-5.139c-0,-1.443 0.451,-2.976 0.451,-4.599c-0,-1.623 -1.804,-2.886 -1.894,-5.05c-0.09,-2.164 -0,-3.065 0.721,-5.23Zm6.763,17.944c-0.902,0.271 -1.082,0.091 -1.082,0.091c0,-0 -0.631,-1.804 -0.27,-3.517c0.36,-1.713 1.082,-3.336 0.541,-4.238c-0.541,-0.902 -0.632,-0.361 -0.722,-2.705c-0.09,-2.345 0.812,-1.533 -0.36,-2.976c-1.173,-1.443 -1.263,-3.517 -1.263,-3.517l2.615,0.361c0,0 1.082,1.172 1.623,2.705c0.541,1.533 0.902,2.796 0.631,3.968c-0.27,1.172 -0.45,0.901 -0.45,1.984c-0,1.082 -0.181,1.352 -0,2.885c0.18,1.533 0.09,2.435 0.09,2.435c-0,-0 -0.451,2.254 -1.353,2.524Zm12.714,-22.091c-0.399,0.798 -0.631,0.811 -1.172,1.893c-0.541,1.082 -1.172,1.082 -0.992,2.435c0.18,1.352 -0.09,0.901 0.361,2.795c0.451,1.894 -0.271,0.09 0.451,3.607c0.721,3.517 0.631,3.697 1.172,4.508c0.541,0.812 1.082,1.804 1.262,2.976c0.181,1.172 1.443,3.427 1.443,3.427c-0,-0 0.451,-0.992 0.992,-3.247c0.541,-2.254 1.172,-3.787 0.992,-5.32c-0.181,-1.533 -0.451,-2.434 -0.812,-3.967c-0.36,-1.533 -0.27,-1.984 -0.36,-4.148c-0.091,-2.164 0.27,-3.156 -0.902,-4.418c-1.172,-1.263 -1.533,-2.345 -2.435,-0.541Zm57.967,12.764c0,0 -0.954,3.167 -0.839,4.197c0.114,1.031 3.892,4.465 3.892,4.465c-0,-0 -1.908,-3.244 -2.175,-4.884c-0.267,-1.641 -0.878,-3.778 -0.878,-3.778Zm-62.746,7.975c0.051,0.815 -2.074,-0.361 -2.074,-0.361c0,0 -1.442,1.263 -1.533,-0.18c-0.09,-1.443 0.812,-4.509 0.812,-4.509c-0,0 -1.353,-2.705 -1.353,-4.689c0,-1.983 -0.09,-3.156 0.271,-3.967c0.361,-0.812 0.361,-2.705 1.713,-2.435c1.353,0.271 1.172,-1.442 2.074,0.631c0.902,2.074 1.172,3.156 0.721,4.509c-0.45,1.353 -0.09,2.164 0.091,3.697c0.18,1.533 0.811,2.164 0.631,3.246c-0.181,1.082 -1.443,2.615 -1.353,4.058Zm22.182,-29.937c0,0 1.161,1.644 2.164,1.443c1.804,-0.361 0.541,-1.713 0.541,-1.713c0,-0 5.411,2.344 6.132,2.074c0.721,-0.271 -0.09,-1.263 -0.09,-1.263c-0,0 6.041,0.812 7.123,1.894c1.082,1.082 2.705,3.246 2.705,3.246l-3.516,0.361l-4.87,-4.419l1.353,2.886l-3.426,0.541l-2.706,-0.09c0,-0 -0.991,-0.451 -1.983,-0.541c-0.992,-0.091 -1.714,0.721 -1.714,0.721l-6.582,0.631l-2.345,-2.074l0,2.345c0,-0 -6.221,-0.091 -8.746,0.541c-2.525,0.631 -5.32,1.623 -6.492,3.877c-0,-0 -1.623,-0.631 -2.796,-1.172c-1.172,-0.541 -2.095,-0.929 -3.516,-2.074c-0.713,-0.575 -1.138,-1.501 -1.138,-1.501c-0,-0 3.802,2.23 4.037,1.894c0.235,-0.336 -2.629,-3.91 -2.629,-3.91c0,0 4.983,3.146 5.388,2.906c0.406,-0.241 -2.953,-4.349 -2.953,-4.349c-0,0 3.011,2.59 4.273,2.59c1.262,0 -1.929,-4.844 -1.929,-4.844c0,0 2.828,3.972 4.09,3.522c0.69,-0.247 -0.663,-2.53 -0.663,-2.53c-0,0 1.764,1.913 2.274,1.811c0.902,-0.18 -0.741,-2.172 -0.741,-2.172c-0,0 2.526,3.351 4.059,3.171c1.305,-0.154 0.147,-2.114 -0.038,-2.447c-0.035,-0.059 -0.032,-0.059 0,-0c0.974,1.23 1.603,2.706 2.664,2.414c0.584,-0.16 -0.734,-2.326 -0.734,-2.326c-0,-0 2.354,2.307 3.09,2.103c0.64,-0.177 -0.836,-3.005 -0.836,-3.005c0,0 1.852,2.971 2.345,2.705c1.172,-0.631 -1.173,-3.336 -1.173,-3.336c0,-0 4.148,2.435 5.14,2.164c0.992,-0.27 0,-1.803 0,-1.803c0,-0 2.254,2.344 3.787,1.893c0.871,-0.256 0.451,-2.164 0.451,-2.164Z" style="fill:#c7d0cd;"/><path d="M100.214,84.955c0,0 -2.257,11.125 -3.97,15.363c-1.714,4.238 -8.927,18.248 -8.927,18.248c-0,-0 6.095,-6.733 9.558,-14.912c1.007,-2.379 3.336,-9.378 3.607,-11.632c0.27,-2.254 -0.268,-7.067 -0.268,-7.067Zm-38.776,8.149c-0,0 -5.683,1.95 -9.017,1.804c-3.158,-0.139 -7.484,-1.353 -7.484,-1.353c-0,-0 3.495,2.412 7.574,2.344c3.788,-0.062 8.927,-2.795 8.927,-2.795Z" style="fill:#f8faec;"/></g></g></svg>