<?xml version="1.0" encoding="UTF-8" standalone="no"?><!DOCTYPE svg PUBLIC "-//W3C//DTD SVG 1.1//EN" "http://www.w3.org/Graphics/SVG/1.1/DTD/svg11.dtd"><svg width="100%" height="100%" viewBox="0 0 150 150" version="1.1" xmlns="http://www.w3.org/2000/svg" xmlns:xlink="http://www.w3.org/1999/xlink" xml:space="preserve" xmlns:serif="http://www.serif.com/" style="fill-rule:evenodd;clip-rule:evenodd;stroke-linejoin:round;stroke-miterlimit:2;"><path id="base" d="M150,75c0,-41.394 -33.606,-75 -75,-75c-41.394,0 -75,33.606 -75,75c0,41.394 33.606,75 75,75c41.394,0 75,-33.606 75,-75Z" style="fill:#4a6919;"/><path id="outline" d="M144,75c0,-38.082 -30.918,-69 -69,-69c-38.082,0 -69,30.918 -69,69c0,38.082 30.918,69 69,69c38.082,0 69,-30.918 69,-69Z" style="fill:#adff33;"/><path id="core" d="M141,75c0,-36.426 -29.574,-66 -66,-66c-36.426,0 -66,29.574 -66,66c0,36.426 29.574,66 66,66c36.426,0 66,-29.574 66,-66Z" style="fill:#80bc24;"/><clipPath id="_clip1"><path d="M141,75c0,-36.426 -29.574,-66 -66,-66c-36.426,0 -66,29.574 -66,66c0,36.426 29.574,66 66,66c36.426,0 66,-29.574 66,-66Z"/></clipPath><g clip-path="url(#_clip1)"><g id="altie"><path d="M19.042,70.553c0.106,-0.401 1.896,-1.232 2.365,-1.506c0.47,-0.273 1.936,-0.41 2.894,-0.488c0.957,-0.078 1.72,-0.235 2.404,-0.45c0.684,-0.215 2.58,-0.567 3.46,-0.567c0.879,0 5.844,0.254 6.724,0.391c0.88,0.137 3.03,0.352 3.519,0.548c0.488,0.195 1.861,0.208 3.427,0.538c1.565,0.33 3.419,1.112 4.573,1.607c1.153,0.494 3.666,0.988 5.314,0.947c1.648,-0.041 3.955,0 7.168,0.206c3.213,0.206 6.344,0.536 8.363,0.948c2.018,0.412 7.909,1.236 8.774,1.318c0.866,0.082 3.626,-0.453 4.285,-0.453c0.659,-0 4.243,0.288 4.531,0.906c0.289,0.618 0.124,0.865 1.277,1.277c1.154,0.412 4.738,0.948 4.738,0.948c0,-0 11.517,2.253 14.276,2.688c2.758,0.436 9.436,1.67 12.34,2.468c2.904,0.799 10.236,2.323 14.155,3.122c3.92,0.798 9.437,2.178 13.503,3.702c4.065,1.524 5.662,10.381 1.524,10.308c-4.138,-0.073 -10.889,0.508 -15.825,0.436c-4.936,-0.073 -22.794,-1.38 -26.496,-1.452c-3.702,-0.073 -19.092,-1.67 -22.503,-2.178c-3.412,-0.508 -10.454,-2.613 -10.454,-2.613c0,-0 -2.831,4.936 -2.903,7.549c-0.073,2.614 2.178,8.856 4.21,11.252c2.033,2.395 2.033,4.646 0.363,4.355c-1.67,-0.29 -8.058,-2.468 -10.09,-6.388c-2.033,-3.92 -3.485,-8.856 -3.92,-12.195c-0.436,-3.339 -0.871,-3.92 -0.653,-5.009c0.217,-1.089 1.814,-1.815 -1.089,-3.412c-2.904,-1.597 -8.421,-3.92 -11.542,-5.517c-3.122,-1.597 -7.623,-5.589 -10.744,-6.388c-3.121,-0.798 -5.154,-1.306 -6.388,-1.016c-1.234,0.29 -6.889,-0.596 -8.199,-1.004c-1.309,-0.408 -4.014,-2.481 -3.381,-4.878Z" style="fill:#44546a;"/><path d="M95.093,62.548c0.673,-1.715 2.088,-5.168 2.743,-6.288c0.765,-1.308 3.481,-6.048 4.172,-6.567c0.257,-0.192 2.37,0.198 3.259,0.346c0.889,0.148 3.456,0.469 3.629,0.765c0.173,0.296 0.593,4.296 0.568,6.049c-0.024,1.656 -0.223,6.287 -0.433,8.189l11.924,-2.587c-0,0 0.61,-0.125 0.934,-0.197c0.323,-0.072 1.419,-0.701 1.724,-0.827c0.306,-0.125 4.455,-0.988 4.742,-0.952c0.288,0.036 0.539,1.186 0.396,1.401c-0.144,0.216 -3.539,0.827 -4.581,1.006c-1.042,0.18 -1.994,0.018 -2.263,0c-0.27,-0.018 -0.737,0.144 -0.737,0.144l-12.227,2.644c-0.359,2.083 -1.902,8.259 -2.368,9.424c-0.493,1.234 -2.123,4.839 -2.888,5.925c-0.766,1.086 -4.42,5.851 -5.185,6.69c-0.765,0.84 -2.098,2.124 -2.617,2.593c-0.518,0.469 -0.716,0.691 -1.21,-0.766c-0.493,-1.456 -1.901,-6.172 -2.024,-8.344c-0.123,-2.173 -0.099,-7.432 0.074,-9.258c0.173,-1.827 1.654,-7.506 2.099,-8.691c0.02,-0.055 0.044,-0.117 0.07,-0.186l-11.213,-3.139c-0.287,-0.125 -0.377,-0.179 -0.646,-0.233c-0.27,-0.054 -2.641,-0.162 -2.946,-0.252c-0.306,-0.089 -3.97,-1.239 -4.15,-1.455c-0.179,-0.215 0.449,-1.293 0.755,-1.329c0.305,-0.036 4.688,1.455 5.191,1.653c0.503,0.197 1.76,1.006 1.76,1.006l11.448,3.236Z" style="fill:#e1ca89;"/></g></g></svg>