<?xml version="1.0" encoding="UTF-8" standalone="no"?><!DOCTYPE svg PUBLIC "-//W3C//DTD SVG 1.1//EN" "http://www.w3.org/Graphics/SVG/1.1/DTD/svg11.dtd"><svg width="100%" height="100%" viewBox="0 0 150 150" version="1.1" xmlns="http://www.w3.org/2000/svg" xmlns:xlink="http://www.w3.org/1999/xlink" xml:space="preserve" xmlns:serif="http://www.serif.com/" style="fill-rule:evenodd;clip-rule:evenodd;stroke-linejoin:round;stroke-miterlimit:2;"><path id="base" d="M150,75c0,-41.394 -33.606,-75 -75,-75c-41.394,0 -75,33.606 -75,75c0,41.394 33.606,75 75,75c41.394,0 75,-33.606 75,-75Z" style="fill:#4a6919;"/><path id="outline" d="M144,75c0,-38.082 -30.918,-69 -69,-69c-38.082,0 -69,30.918 -69,69c0,38.082 30.918,69 69,69c38.082,0 69,-30.918 69,-69Z" style="fill:#adff33;"/><path id="core" d="M141,75c0,-36.426 -29.574,-66 -66,-66c-36.426,0 -66,29.574 -66,66c0,36.426 29.574,66 66,66c36.426,0 66,-29.574 66,-66Z" style="fill:#80bc24;"/><clipPath id="_clip1"><path d="M141,75c0,-36.426 -29.574,-66 -66,-66c-36.426,0 -66,29.574 -66,66c0,36.426 29.574,66 66,66c36.426,0 66,-29.574 66,-66Z"/></clipPath><g clip-path="url(#_clip1)"><g id="bigfoot"><path d="M9.218,93.896c2.987,-0.272 5.793,-1.449 8.961,-0.544c3.168,0.906 5.43,-0.09 7.512,0c2.082,0.091 4.616,-0.543 6.698,-0.181c2.082,0.362 2.987,0.181 6.155,1.268c3.168,1.086 3.44,2.534 7.965,3.53c4.526,0.995 3.983,0.362 8.237,1.357c4.254,0.996 3.077,-1.448 9.142,2.263c6.064,3.711 4.978,3.802 11.314,6.246c6.336,2.443 9.594,1.991 13.577,1.81c3.982,-0.181 4.797,-0.724 9.413,-0.634c4.616,0.091 3.802,-0.271 9.142,0.453c5.34,0.724 6.789,0.271 11.767,0.995c4.978,0.725 4.616,0.181 9.323,1.358c4.706,1.177 7.331,0 8.508,2.263c1.176,2.263 -31.951,49.601 -31.951,49.601l-84.268,-6.336c0,0 -14.482,-63.178 -11.495,-63.449Z" style="fill:#cddfeb;"/><path d="M29.764,100.865c0,0 0.272,0.724 1.63,1.267c1.357,0.543 3.349,0.815 3.349,0.815c-0,-0 0.543,0.362 2.443,-0.091c1.901,-0.452 1.449,-0.814 3.44,-0.633c1.991,0.181 4.254,-0.091 4.254,-0.091c0,0 1.086,-1.448 1.991,-1.72c0.905,-0.271 2.806,-0.362 4.073,-0.543c1.268,-0.181 3.892,-0.905 3.892,-0.905c0,0 1.992,0.543 2.625,1.448c0.634,0.906 0.724,1.449 2.354,2.897c1.629,1.448 2.081,0.452 2.353,1.72c0.272,1.267 0.181,2.896 0.362,4.254c0.181,1.357 0.272,2.715 0.543,3.892c0.272,1.177 3.078,3.258 3.078,3.258c-0,0 1.086,1.811 2.081,0.905c0.996,-0.905 3.892,-3.982 3.892,-3.982c0,-0 0,-1.086 1.358,-0.634c1.358,0.453 3.078,1.358 4.345,2.082c1.267,0.724 2.353,1.358 2.353,1.358l1.358,2.625c-0,-0 1.267,4.435 2.263,6.607c0.995,2.172 0.905,3.621 2.081,5.34c1.177,1.72 2.716,3.44 4.436,3.44c1.719,-0 1.538,-0.091 3.439,-0c1.901,0.09 2.715,1.358 2.897,0.362c0.181,-0.996 -0.182,-0.272 -0,-3.44c0.181,-3.168 0.271,-2.172 0.362,-5.068c0.09,-2.897 0.543,-4.164 -0.544,-6.879c-1.086,-2.716 -0.724,-1.992 -2.172,-4.888c-1.448,-2.896 -1.991,-5.883 -3.982,-9.413c-1.992,-3.53 -1.177,-2.716 -2.897,-4.888c-1.72,-2.172 -2.806,-2.444 -3.349,-4.254c-0.543,-1.81 -0.814,-2.806 -0.362,-4.345c0.453,-1.539 0.815,-1.81 1.72,-3.077c0.905,-1.267 2.353,-1.267 3.439,-0.724c1.087,0.543 4.798,1.538 5.612,1.991c0.815,0.452 6.246,2.896 7.784,3.892c1.539,0.996 4.616,2.534 5.703,2.896c1.086,0.362 2.987,1.268 3.982,-1.267c0.996,-2.534 0.013,-4.92 -0.711,-6.188c-0.724,-1.267 -6.936,-4.03 -9.379,-5.207c-2.444,-1.177 -6.564,-7.069 -7.831,-8.789c-1.268,-1.72 -1.268,-0.905 -1.539,-3.621c-0.272,-2.715 -0.905,-6.426 -0.905,-6.426c-0,-0 -0.815,-0.905 -0.453,-3.44c0.362,-2.534 2.897,-5.068 3.078,-7.15c0.181,-2.082 0.452,-3.259 -0.272,-4.526c-0.724,-1.267 -0.181,-3.168 -1.81,-4.073c-1.629,-0.905 -3.44,-1.629 -4.254,-1.539c-0.815,0.091 -2.806,1.087 -3.711,1.901c-0.905,0.815 -3.44,2.444 -4.073,3.892c-0.634,1.448 -1.087,2.263 -2.173,2.987c-1.086,0.724 -3.349,2.353 -3.349,2.353c0,0 -2.263,0.181 -3.801,1.811c-1.539,1.629 -2.444,1.448 -3.711,3.258c-1.267,1.81 -3.53,4.254 -4.435,5.521c-0.906,1.268 -3.078,2.444 -4.526,3.983c-1.448,1.539 -2.172,2.896 -3.349,4.345c-1.177,1.448 -2.082,1.9 -2.715,3.711c-0.634,1.81 -1.811,2.444 -2.173,3.711c-0.362,1.267 -1.901,2.806 -3.168,5.34c-1.267,2.534 -0.452,2.715 -1.991,3.621c-1.539,0.905 -3.802,3.077 -5.069,3.982c-1.267,0.905 -4.978,3.168 -5.521,3.983c-0.543,0.814 -2.263,2.172 -2.263,2.172l-2.082,0.181" style="fill:#3d2d30;"/></g></g></svg>