<?xml version="1.0" encoding="UTF-8" standalone="no"?><!DOCTYPE svg PUBLIC "-//W3C//DTD SVG 1.1//EN" "http://www.w3.org/Graphics/SVG/1.1/DTD/svg11.dtd"><svg width="100%" height="100%" viewBox="0 0 150 150" version="1.1" xmlns="http://www.w3.org/2000/svg" xmlns:xlink="http://www.w3.org/1999/xlink" xml:space="preserve" xmlns:serif="http://www.serif.com/" style="fill-rule:evenodd;clip-rule:evenodd;stroke-linejoin:round;stroke-miterlimit:2;"><path id="base" d="M150,75c0,-41.394 -33.606,-75 -75,-75c-41.394,0 -75,33.606 -75,75c0,41.394 33.606,75 75,75c41.394,0 75,-33.606 75,-75Z" style="fill:#4a6919;"/><path id="outline" d="M144,75c0,-38.082 -30.918,-69 -69,-69c-38.082,0 -69,30.918 -69,69c0,38.082 30.918,69 69,69c38.082,0 69,-30.918 69,-69Z" style="fill:#adff33;"/><path id="core" d="M141,75c0,-36.426 -29.574,-66 -66,-66c-36.426,0 -66,29.574 -66,66c0,36.426 29.574,66 66,66c36.426,0 66,-29.574 66,-66Z" style="fill:#80bc24;"/><clipPath id="_clip1"><path d="M141,75c0,-36.426 -29.574,-66 -66,-66c-36.426,0 -66,29.574 -66,66c0,36.426 29.574,66 66,66c36.426,0 66,-29.574 66,-66Z"/></clipPath><g clip-path="url(#_clip1)"><g id="chupacabra-" serif:id="chupacabra "><path d="M68.765,93.365c0,-0 -0.817,1.185 -1.267,1.798c-0.449,0.612 -0.122,1.92 -0.122,1.92c-0,-0 0.286,-0.368 0.858,-0.899c0.572,-0.531 1.471,-0.368 1.471,-0.368c-0,0 -0.572,0.491 -0.817,0.94c-0.246,0.449 -1.022,2.492 -1.43,2.983c-0.409,0.49 -1.471,1.43 -1.308,2.206c0.164,0.776 0.736,2.329 1.267,2.737c0.531,0.409 0.817,0.94 0.817,0.94c-0,0 -1.022,0 -1.43,-0.449c-0.409,-0.45 -0.736,-0.123 -0.368,0.408c0.368,0.532 0.613,2.37 0.981,2.738c0.367,0.368 1.389,1.348 2.329,1.389c0.939,0.041 2.288,-0.899 3.146,-1.103c0.858,-0.204 2.247,0.49 3.064,0.654c0.817,0.163 0.817,-0 0.163,-2.002c-0.653,-2.003 -1.716,-5.026 -0.939,-6.497c0.776,-1.471 2.574,-4.372 3.35,-5.475c0.776,-1.103 1.716,-2.329 2.411,-2.37c0.694,-0.041 1.103,0.45 1.103,0.45c-0,-0 -0.49,0.122 -0.981,0.408c-0.49,0.286 -0.163,0.777 -0.408,1.39c-0.245,0.612 -1.675,2.778 -1.757,3.268c-0.082,0.49 0.163,0.736 0.654,-0.245c0.49,-0.981 1.307,-1.593 2.083,-1.879c0.777,-0.286 1.063,0.245 1.063,0.245c-0,-0 0.081,0.163 -0.532,0.613c-0.612,0.449 -0.898,1.389 -1.43,2.206c-0.531,0.817 -1.43,2.043 -1.92,2.411c-0.49,0.367 -0.817,0.735 -0.776,1.47c0.041,0.736 0.572,1.594 1.389,2.207c0.817,0.613 0.981,1.389 0.981,1.389c-0,-0 -0.695,0.368 -1.267,-0.082c-0.572,-0.449 -1.43,-1.103 -1.43,-0.327c-0,0.777 0.245,1.512 0.613,2.288c0.368,0.777 0.817,1.471 1.226,1.798c0.408,0.327 1.266,0.776 0.776,2.329c-0.49,1.553 -3.473,13.483 -3.473,13.483c-0,0 -0.858,0.572 -1.757,1.022c-0.899,0.449 -0.613,0.408 -1.307,0.858c-0.695,0.449 -1.308,0.204 -1.471,0.939c-0.164,0.736 -0.123,0.736 0.245,1.267c0.368,0.531 -1.43,0.695 -1.43,0.695c-0,-0 -0.736,0.286 0.204,0.939c0.94,0.654 1.471,0.818 0.695,1.594c-0.777,0.776 -1.226,0.245 -1.144,1.144c0.081,0.899 -0.491,0.613 0.367,1.43c0.858,0.817 1.512,1.226 1.88,1.634c0.368,0.409 0.449,1.839 -0.368,1.43c-0.817,-0.408 -1.879,-1.92 -1.634,-0.858c0.245,1.063 -0,1.063 0.94,2.288c0.939,1.226 2.369,2.738 1.43,2.533c-0.94,-0.204 -3.473,-3.146 -4.536,-3.268c-1.062,-0.123 -0.899,0.776 -0.081,1.389c0.817,0.613 2.696,0.817 2.819,2.411c0.122,1.593 0.776,3.064 -0.123,3.023c-0.899,-0.041 -0.776,0.082 -0.817,1.103c-0.041,1.022 0.082,1.921 -1.43,0.245c-1.512,-1.675 -3.391,-2.574 -4.208,-3.432c-0.818,-0.858 -1.594,-1.552 -2.738,-2.615c-1.144,-1.062 -0.98,-1.103 -2.043,-2.288c-1.062,-1.184 -4.617,-5.638 -4.658,-4.903c-0.04,0.736 -0.858,2.575 -1.144,1.594c-0.286,-0.981 0.654,-5.271 -0.408,-4.862c-1.062,0.408 -2.002,0.858 -3.759,1.348c-1.757,0.49 -1.226,-0.204 -2.206,0.695c-0.981,0.899 -1.39,0.694 -2.738,0.613c-1.348,-0.082 -5.761,0.408 -5.761,0.408l-8.703,-9.806c0,0 1.144,-0.245 0.94,-1.062c-0.204,-0.817 -1.185,-0.858 -0.613,-1.226c0.572,-0.368 1.961,-0.531 0.858,-1.389c-1.103,-0.858 -1.43,-1.062 -1.43,-1.062c0,-0 1.348,-0.695 0.368,-1.675c-0.981,-0.981 -1.022,-1.921 -0.368,-1.676c0.654,0.245 1.389,1.144 1.716,0.327c0.327,-0.817 0.45,-1.226 1.185,-1.838c0.736,-0.613 1.92,-1.063 1.92,-1.063l6.497,-3.146c-0,0 0.368,0.204 0.613,-0.122c0.245,-0.327 0.653,-2.084 0.98,-1.43c0.327,0.653 -0.122,1.348 0.45,0.694c0.572,-0.654 0.613,-1.062 0.939,-1.838c0.327,-0.777 1.349,-1.635 1.88,-1.512c0.531,0.122 -0.449,1.552 0.123,2.084c0.572,0.531 0.572,0.531 1.879,0.081c1.307,-0.449 2.451,-0.939 3.514,-1.797c1.062,-0.858 2.124,-1.471 3.146,-1.349c1.021,0.123 5.475,0.327 6.701,0.695c1.225,0.368 1.307,0.694 2.206,0.817c0.899,0.123 2.002,-0.082 1.021,-1.103c-0.98,-1.022 -1.185,-1.144 -1.634,-1.839c-0.449,-0.694 -1.43,-2.084 -1.021,-2.982c0.408,-0.899 0.898,-1.349 1.716,-2.697c0.817,-1.348 1.062,-3.432 2.002,-4.331c0.939,-0.899 1.797,-1.512 2.206,-1.103Z" style="fill:#766455;"/><path d="M77.177,135.825c-0.111,-0.367 -0.673,-2.15 -0.113,-2.66c0.662,-0.601 0.722,-4.99 0.361,-4.298c-0.361,0.691 -0.24,3.066 -0.932,3.607c-0.691,0.541 -2.825,2.945 -4.238,2.735c-1.413,-0.211 -1.443,-1.383 -1.443,-1.383c0,0 2.014,-0.661 2.585,-1.352c0.571,-0.692 1.052,-2.645 1.112,-3.367c0.061,-0.721 0.03,-1.683 0,-2.164c-0.03,-0.481 1.113,-5.11 0.121,-5.17c-0.992,-0.06 -1.353,0.12 -1.684,1.293c-0.33,1.172 -1.322,2.524 -1.773,1.653c-0.451,-0.872 -0.15,-2.164 0.361,-3.036c0.511,-0.872 1.683,-2.675 2.615,-3.727c0.932,-1.052 3.697,-3.156 5.56,-6.342c1.864,-3.186 5.14,-8.988 5.711,-11.122c0.571,-2.134 2.946,-11.271 2.255,-12.925c-0.692,-1.653 -4.629,-4.147 -6.643,-5.47c-2.014,-1.323 -4.358,-3.427 -7.154,-1.834c-2.795,1.594 -11.422,8.387 -13.345,9.919c-1.924,1.533 -8.447,6.884 -10.911,9.078c-2.465,2.194 -7.274,6.522 -7.395,7.184c-0.12,0.661 -0.3,3.637 -0.3,4.298c-0,0.661 0.571,0.661 -0.691,1.924c-1.263,1.262 -0.752,0.931 -1.864,1.863c-1.112,0.932 -1.232,0.962 -2.375,2.255c-1.142,1.292 -0.811,1.863 -1.923,2.434c-1.112,0.571 -1.533,0.902 -1.443,0.451c0.09,-0.451 0.601,-1.322 0.751,-3.006c0.151,-1.683 0.602,-2.434 0.692,-3.757c0.09,-1.322 0.691,-3.096 0.631,-4.178c-0.06,-1.082 -0.24,-2.314 0.361,-3.066c0.601,-0.751 4.328,-3.817 6.252,-6.643c1.923,-2.825 6.823,-9.768 7.574,-12.053c0.752,-2.284 2.465,-7.574 1.413,-7.544c-1.052,0.03 -5.29,6.071 -6.372,7.574c-1.082,1.503 -2.826,4.329 -3.547,4.449c-0.722,0.12 -2.014,0.751 -2.495,1.353c-0.481,0.601 -1.112,4.598 -1.112,4.598l-0.21,-2.705c-0,0 -0.632,-0.03 -1.022,0.722c-0.391,0.751 -0.572,2.494 -3.517,2.645c-1.381,0.07 -2.495,-1.774 -2.495,-1.774l-0.751,0.902l-0.481,-3.246c-0,-0 -1.684,-2.435 -1.834,-3.968c-0.15,-1.533 -0.811,-2.194 -1.322,-3.727c-0.511,-1.533 -0.632,-5.26 -0.541,-7.003c0.09,-1.744 0.27,-8.086 0.18,-9.288c-0.09,-1.203 -1.022,-2.796 -2.104,-4.299c-1.082,-1.502 -2.044,-3.306 -2.405,-5.049c-0.36,-1.744 -1.172,-7.935 -1.352,-8.988c-0.181,-1.052 -1.142,-3.727 0.571,-3.005c1.713,0.721 4.869,2.705 6.342,3.757c1.473,1.052 5.891,4.869 6.553,6.011c0.661,1.143 1.653,3.938 2.164,3.006c0.511,-0.932 0.721,-0.992 0.751,-2.464c0.03,-1.473 -0.511,-3.096 0.301,-1.804c0.811,1.293 1.202,0.21 1.623,-0.391c0.421,-0.601 1.623,-1.653 2.675,-2.284c1.052,-0.631 1.142,-0.421 1.683,-0.932c0.541,-0.511 1.383,-1.262 1.383,-1.262c-0,-0 -1.022,2.164 -1.233,2.615c-0.21,0.451 1.533,0.09 2.014,-0.451c0.481,-0.541 1.383,-0.451 1.864,-0.271c0.481,0.181 1.353,-0.06 1.743,-0.511c0.391,-0.451 2.525,-3.336 2.886,-4.358c0.36,-1.022 2.194,-4.238 3.456,-2.976c1.263,1.263 1.834,6.042 1.894,7.034c0.06,0.992 0.06,1.503 1.293,0.841c1.232,-0.661 3.276,-1.833 3.907,-3.697c0.631,-1.863 0.661,-2.374 0.691,-2.104c0.03,0.271 -0.601,1.954 -0.3,2.164c0.3,0.211 2.044,0.181 2.765,-0.481c0.721,-0.661 1.353,-1.833 1.924,-2.254c0.571,-0.421 0.601,-0.571 1.082,-0.962c0.481,-0.39 0.06,0.451 0.06,1.593c-0,1.143 1.383,0.571 2.314,0.602c0.932,0.03 2.856,-0.151 3.968,-1.173c1.112,-1.022 1.773,-0.992 2.946,-2.014c1.172,-1.022 2.014,-1.773 2.705,-2.735c0.691,-0.962 1.743,-2.585 2.374,-3.096c0.632,-0.511 -3.306,4.689 -1.953,4.749c1.352,0.06 3.787,-4.899 4.568,-5.681c0.782,-0.781 -2.554,6.613 -1.232,5.321c1.323,-1.293 4.238,-7.004 5.29,-7.815c1.052,-0.812 -4.058,7.935 -2.615,7.033c1.443,-0.902 5.711,-7.244 6.553,-7.815c0.841,-0.571 -4.208,9.198 -2.104,6.733c2.104,-2.465 2.374,-4.779 3.757,-5.47c1.383,-0.692 -3.336,7.664 -1.022,5.41c2.314,-2.254 2.134,-3.306 4.028,-3.817c1.893,-0.511 -3.938,5.59 -1.173,3.817c2.766,-1.773 2.375,-1.112 3.066,-1.172c0.692,-0.06 -2.074,2.765 -0.721,2.314c1.353,-0.451 1.743,-0.511 2.555,-0.751c0.811,-0.241 -0.361,1.533 0.631,1.232c0.992,-0.3 3.727,2.645 4.689,3.156c0.962,0.511 1.743,1.503 2.495,2.345c0.751,0.841 4.569,4.208 5.591,4.719c1.022,0.511 1.893,0.24 2.975,0.962c1.082,0.721 3.006,2.675 3.818,3.216c0.811,0.541 5.53,4.238 6.522,5.019c0.992,0.782 2.946,1.293 3.577,2.826c0.631,1.533 1.803,2.585 2.194,3.907c0.391,1.323 0.752,3.216 0.631,5.11c-0.12,1.894 0.03,2.886 -0.601,4.028c-0.631,1.142 -1.803,3.366 -2.074,3.967c-0.27,0.602 -1.893,4.148 -3.096,5.17c-1.202,1.022 -1.593,1.593 -2.705,2.074c-1.112,0.481 -1.893,0.752 -1.893,0.752c-0,-0 0.751,0.871 2.134,2.495c1.382,1.623 2.615,4.238 3.637,5.921c1.022,1.683 2.164,2.946 3.336,4.539c1.172,1.593 2.675,3.576 3.547,4.298c0.871,0.721 3.126,1.593 3.126,2.735c-0,1.142 -0.09,2.164 -2.405,3.577c-2.314,1.413 -6.492,4.899 -7.304,5.44c-0.811,0.541 -4.298,3.156 -5.891,4.539c-1.593,1.383 -3.817,3.517 -4.719,5.08c-0.902,1.563 -2.254,4.689 -3.908,4.899c-1.653,0.211 -2.014,-0.06 -2.014,-0.06l-0.511,0.932c0,-0 -0.36,-0.812 -0.24,-1.383c0.12,-0.571 0.842,-2.164 1.022,-2.585c0.18,-0.42 -0.12,-0.992 -0.691,-0.571c-0.571,0.421 -1.473,1.894 -2.285,2.555c-0.811,0.661 -1.082,1.954 -1.893,2.164c-0.812,0.211 -2.044,-0.18 -2.555,-0.18c-0.511,-0 -1.473,0.18 -1.473,0.18c-0,0 0.691,-0.841 1.022,-1.713c0.331,-0.872 0.601,-1.653 1.473,-2.675c0.871,-1.022 1.202,-1.623 2.374,-2.254c1.173,-0.632 2.285,-1.173 3.307,-1.804c1.022,-0.631 2.013,-1.322 2.013,-1.322c0,-0 -0.721,-0.872 -1.833,-1.293c-1.112,-0.421 -1.473,-1.052 -1.623,-1.383c-0.15,-0.33 -0.361,-1.022 -1.503,-1.172c-1.142,-0.15 -1.894,-0.18 -1.894,-0.18c0,-0 0.601,-0.842 2.375,-0.752c1.773,0.091 2.946,0.511 4.268,1.353c1.323,0.842 1.924,1.383 3.036,0.721c1.112,-0.661 3.637,-2.675 5.741,-4.328c2.104,-1.653 4.929,-3.547 5.621,-4.418c0.691,-0.872 2.855,-2.104 2.104,-3.096c-0.752,-0.992 -2.104,-2.044 -3.938,-3.457c-1.833,-1.413 -2.705,-2.615 -4.358,-3.517c-1.653,-0.901 -6.042,-3.847 -6.974,-5.17c-0.931,-1.322 -5.35,-6.101 -5.35,-6.101c0,-0 0.451,3.727 1.142,4.689c0.692,0.961 2.886,3.697 1.774,5.139c-1.112,1.443 -5.621,3.938 -6.613,4.81c-0.992,0.871 -4.99,2.915 -6.042,3.907c-1.052,0.992 -4.147,2.224 -5.32,3.427c-1.172,1.202 -2.705,3.006 -3.547,4.268c-0.841,1.262 -2.494,2.645 -4.238,2.946c-1.743,0.3 -3.607,-0.451 -4.057,-0.782c-0.451,-0.331 -0.992,0.241 -0.992,0.241c-0,-0 0.992,-1.864 1.743,-1.894c0.751,-0.03 0.872,0.03 1.623,-0.601c0.752,-0.631 1.924,-1.683 1.683,-2.224c-0.24,-0.542 -0.27,-0.602 -0.15,-1.173c0.12,-0.571 0,-0.871 0,-0.871c0,-0 -5.11,2.825 -5.981,3.667c-0.872,0.841 -1.774,0.961 -1.774,0.961c0,0 0.09,7.304 0.06,8.266c-0.03,0.962 -0.18,5.952 -0.962,6.282c-0.742,0.314 -1.999,1.089 -2.021,1.398c0.02,0.066 0.026,0.086 0.008,0.045c-0.006,-0.013 -0.009,-0.028 -0.008,-0.045Zm24.906,-45.416c-0,-0 -0.833,0.678 -0.987,1.449c-0.154,0.771 -0,1.511 -1.079,2.405c-1.079,0.894 -2.282,1.171 -3.577,3.206c-1.295,2.035 -1.788,5.088 -2.343,6.321c-0.555,1.233 -4.255,5.365 -4.44,5.827c0,0 0.894,0.123 1.727,-0.432c0.832,-0.555 3.422,-1.849 3.7,-1.819c0.277,0.031 -1.208,2.752 -1.883,3.376c-0,-0 4.467,-2.026 6.441,-3.377c1.974,-1.351 8.364,-3.948 7.844,-5.818c-0.519,-1.87 -2.597,-6.182 -3.48,-7.377c-0.883,-1.195 -1.717,-2.743 -1.923,-3.761Z" style="fill:#986d50;"/><path d="M44.359,71.937c0,0 -0.666,1.527 -0.305,2.054c0.361,0.528 1.082,2.388 0.833,3.498c-0.25,1.111 -1.222,3.304 -3.026,3.553c-1.805,0.25 -2.471,0.694 -2.471,0.694c-0,0 -0.167,-0.749 -0.416,-1.221c-0.25,-0.472 -0.611,-3.831 0.777,-5.413c1.388,-1.583 3.165,-1.138 4.608,-3.165Zm-15.185,-0.722c0,0 -0.527,1.055 -0.25,1.721c0.278,0.667 0.694,1.499 0.583,2.804c-0.066,0.781 -1.471,2.415 -1.804,2.832c-0.333,0.416 -0.777,1.221 -0.777,1.221c-0,0 -0.417,-1.193 -1.028,-1.693c-0.61,-0.5 -1.276,-2.276 -1.054,-3.248c0.222,-0.972 1.499,-2.832 4.33,-3.637Z" style="fill:#131215;"/></g></g></svg>