<?xml version="1.0" encoding="UTF-8" standalone="no"?><!DOCTYPE svg PUBLIC "-//W3C//DTD SVG 1.1//EN" "http://www.w3.org/Graphics/SVG/1.1/DTD/svg11.dtd"><svg width="100%" height="100%" viewBox="0 0 150 150" version="1.1" xmlns="http://www.w3.org/2000/svg" xmlns:xlink="http://www.w3.org/1999/xlink" xml:space="preserve" xmlns:serif="http://www.serif.com/" style="fill-rule:evenodd;clip-rule:evenodd;stroke-linejoin:round;stroke-miterlimit:2;"><path id="base" d="M150,75c0,-41.394 -33.606,-75 -75,-75c-41.394,0 -75,33.606 -75,75c0,41.394 33.606,75 75,75c41.394,0 75,-33.606 75,-75Z" style="fill:#4a6919;"/><path id="outline" d="M144,75c0,-38.082 -30.918,-69 -69,-69c-38.082,0 -69,30.918 -69,69c0,38.082 30.918,69 69,69c38.082,0 69,-30.918 69,-69Z" style="fill:#adff33;"/><path id="core" d="M141,75c0,-36.426 -29.574,-66 -66,-66c-36.426,0 -66,29.574 -66,66c0,36.426 29.574,66 66,66c36.426,0 66,-29.574 66,-66Z" style="fill:#80bc24;"/><clipPath id="_clip1"><path d="M141,75c0,-36.426 -29.574,-66 -66,-66c-36.426,0 -66,29.574 -66,66c0,36.426 29.574,66 66,66c36.426,0 66,-29.574 66,-66Z"/></clipPath><g clip-path="url(#_clip1)"><g id="dover-demon"><path d="M22.808,127.142c-0.273,-0.087 -0.363,-0.597 -0.128,-1.109c0.235,-0.512 0.406,-1.238 0.811,-1.857c0.405,-0.619 1.024,-2.241 1.302,-2.731c0.277,-0.491 0.939,-1.75 0.939,-1.75c-0,-0 -0.534,0.171 -1.089,0.512c-0.555,0.341 -1.195,0.555 -1.707,0.619c-0.512,0.064 -1.323,-0.022 -1.323,-0.022c0,0 -0.811,0.363 -1.088,0.491c-0.278,0.128 -0.683,0.171 -0.875,0.278c-0.192,0.106 -0.832,0.875 -1.089,1.024c-0.256,0.149 -1.301,0.384 -1.536,0.619c-0.235,0.235 -1.174,1.408 -1.536,1.75c-0.363,0.341 -1.772,0.981 -2.092,0.853c-0.32,-0.128 -0.491,-0.448 -0.491,-0.448c0,0 2.22,-1.878 2.326,-2.326c0,0 -2.112,1.003 -2.518,0.896c-0.405,-0.106 -0.917,-0.469 -0.597,-0.576c0.32,-0.106 0.939,-0.448 1.259,-0.661c0.32,-0.214 2.39,-1.323 2.689,-1.622c0.298,-0.299 1.429,-1.152 1.835,-1.238c0.405,-0.085 1.131,-0.555 1.302,-0.661c0.17,-0.107 0.981,-0.79 1.365,-0.939c0.385,-0.15 0.726,-0.32 0.918,-0.406c0.192,-0.085 1.793,-0.363 2.326,-0.597c0.534,-0.235 2.433,-1.046 3.436,-1.686c1.003,-0.64 1.92,-1.473 3.884,-1.686c1.963,-0.213 6.679,-0.427 8.664,-0.96c1.984,-0.534 11.246,-2.305 12.761,-2.433c1.515,-0.128 3.179,-0.299 3.179,-0.299c0,0 0.79,-0.96 1.132,-1.963c0.341,-1.003 1.941,-5.207 2.283,-6.082c0.341,-0.875 2.966,-6.743 2.987,-7.661c0.022,-0.918 1.43,-6.573 1.836,-7.682c0.405,-1.11 1.045,-2.134 1.088,-2.646c0.043,-0.513 -0.384,-1.665 -1.003,-2.113c-0.619,-0.448 -1.686,-1.195 -1.686,-1.195c0,-0 -0.491,1.131 -0.96,1.579c-0.47,0.448 -1.942,1.387 -2.39,1.515c-0.448,0.128 -1.643,-0.149 -2.433,-0.085c-0.789,0.064 -2.582,0.704 -2.859,0.683c-0.278,-0.022 -2.817,-1.836 -3.137,-2.518c-0.321,-0.683 -2.241,-3.842 -2.348,-4.524c-0.106,-0.683 -0.235,-2.369 -0.512,-2.839c-0.277,-0.469 -1.174,-2.731 -1.579,-3.158c-0.406,-0.427 -2.774,-3.158 -3.244,-4.631c-0.469,-1.472 -1.942,-4.776 -0.533,-9.581c1.408,-4.805 4.78,-8.881 8.77,-9.756c3.991,-0.875 9.049,-2.22 13.039,1.686c3.991,3.905 5.997,8.168 4.524,12.91c-1.472,4.742 -2.433,5.831 -3.094,6.663c-0.662,0.832 -0.598,1.856 -0.555,2.838c0.043,0.982 0.96,3.82 1.622,4.695c0.661,0.875 2.305,3.158 4.737,2.795c2.433,-0.362 4.802,0.064 6.061,0.214c1.259,0.149 2.987,0.17 4.737,0.32c1.75,0.149 5.954,0.576 9.902,1.814c3.948,1.237 13.017,4.737 17.989,8.45c4.973,3.713 5.719,3.607 5.954,5.655c0.235,2.049 0.939,5.058 1.473,6.21c0.533,1.153 1.728,4.802 2.006,6.082c0.277,1.281 1.429,7.362 1.579,8.344c0.149,0.982 0.32,1.814 1.579,1.408c1.259,-0.405 4.396,-0.618 6.743,0.406c2.348,1.024 4.844,3.03 6.061,3.734c1.216,0.705 3.329,1.473 3.329,1.473l0.405,3.265l-1.451,-0.384c0,-0 -6.999,-3.009 -8.685,-3.329c-1.686,-0.32 -4.93,-1.217 -6.103,-1.11c-1.174,0.107 -2.86,0.811 -4.012,0.192c-1.153,-0.619 -4.46,-5.676 -4.951,-6.53c-0.491,-0.854 -3.585,-5.783 -4.353,-7.255c-0.769,-1.473 -2.583,-5.186 -2.583,-5.186c0,-0 -0.042,0.32 -0.661,0.79c-0.619,0.469 -5.74,4.011 -6.53,5.057c-0.79,1.046 -5.975,6.53 -6.914,7.341c-0,-0 2.134,0.363 4.353,1.857c2.22,1.493 5.378,3.819 7.021,4.758c1.643,0.939 6.338,2.22 6.701,2.22c0.362,-0 1.707,-1.387 2.134,-1.515c0.426,-0.128 2.496,0.704 2.624,2.454c0.129,1.749 0.043,3.158 0.086,3.713c0.043,0.555 0.597,1.835 0.896,2.283c0.299,0.448 0.491,1.43 0.491,1.942c-0,0.512 -0.448,1.238 -0.896,1.558c-0.448,0.32 -0.961,0.811 -1.11,1.024c-0.149,0.214 -5.314,-2.795 -5.314,-2.795l2.39,-0.961c0,0 -0.768,-1.088 -0.981,-1.685c-0.214,-0.598 -0.982,-2.647 -1.302,-3.073c-0.32,-0.427 -3.862,-1.772 -4.588,-2.028c-0.726,-0.256 -12.1,-3.222 -14.148,-3.734c-2.049,-0.512 -5.743,-1.579 -6.149,-1.601c-0.405,-0.021 -1.6,0.022 -1.152,-1.92c0.448,-1.942 1.75,-4.524 2.219,-5.25c0.47,-0.725 3.884,-5.719 4.652,-6.829c0.769,-1.109 4.204,-4.652 4.204,-4.652c0,0 -0.747,-0.064 -3.521,0.214c-2.774,0.277 -10.606,0.597 -14.959,-0.961c-4.353,-1.557 -4.801,-1.878 -4.801,-1.878l-0.918,0.982c-0,0 -1.686,3.5 -2.049,4.353c-0.362,0.854 -1.814,4.247 -2.176,4.973c-0.363,0.725 -2.22,4.844 -2.561,5.548c-0.342,0.704 -1.451,3.585 -1.985,4.012c-0.533,0.427 -3.348,1.344 -7.616,1.92c-4.268,0.577 -6.445,1.196 -7.789,1.58c-1.345,0.384 -3.372,0.957 -5.229,1.49c-1.856,0.534 -3.755,1.217 -4.161,1.494c-0.405,0.277 -1.451,2.603 -2.134,3.372c-0.683,0.768 -1.728,1.664 -1.728,1.664l-5.698,-3.713c-0,0 1.238,-0.576 1.792,-0.854c0.555,-0.277 2.391,-1.067 3.031,-1.515c0.64,-0.448 2.198,-1.621 2.795,-1.878c0.598,-0.256 8.707,-3.286 9.326,-3.542c0.619,-0.256 8.216,-2.924 8.216,-2.924c-0,0 -12.399,0.107 -13.06,0.171c-0.662,0.064 -7.811,-0.021 -8.088,0.256c-0.278,0.278 -1.259,2.006 -1.622,2.39c-0.363,0.384 -2.283,1.964 -2.625,2.369c-0.341,0.406 -1.814,1.963 -2.006,2.518c-0.192,0.555 -0.789,1.387 -1.067,1.814c-0.277,0.427 -0.873,1.712 -1.685,1.453Z" style="fill:#effbfe;"/><path d="M51.139,71.336c0,0 -0.277,0.043 -0.576,0.107c-0.299,0.064 -2.305,1.217 -3.158,-0.192c-0.854,-1.408 -0.64,-1.835 -0.662,-2.134c-0.021,-0.299 0.683,-0.917 1.43,-0.832c0.747,0.085 2.945,0.704 3.265,1.43c0.32,0.725 0.021,1.536 -0.299,1.621Zm11.374,-6.231c0.271,0.094 0.961,1.963 0.086,3.585c-0.875,1.622 -2.924,2.241 -4.311,0.918c0,-0 -0.576,-0.107 -0.64,-0.406c-0.064,-0.298 0.341,-1.963 1.408,-2.923c1.067,-0.96 2.412,-1.537 3.457,-1.174Z" style="fill:#c28979;"/></g></g></svg>