<?xml version="1.0" encoding="UTF-8" standalone="no"?><!DOCTYPE svg PUBLIC "-//W3C//DTD SVG 1.1//EN" "http://www.w3.org/Graphics/SVG/1.1/DTD/svg11.dtd"><svg width="100%" height="100%" viewBox="0 0 150 150" version="1.1" xmlns="http://www.w3.org/2000/svg" xmlns:xlink="http://www.w3.org/1999/xlink" xml:space="preserve" xmlns:serif="http://www.serif.com/" style="fill-rule:evenodd;clip-rule:evenodd;stroke-linejoin:round;stroke-miterlimit:2;"><path id="base" d="M150,75c0,-41.394 -33.606,-75 -75,-75c-41.394,0 -75,33.606 -75,75c0,41.394 33.606,75 75,75c41.394,0 75,-33.606 75,-75Z" style="fill:#4a6919;"/><path id="outline" d="M144,75c0,-38.082 -30.918,-69 -69,-69c-38.082,0 -69,30.918 -69,69c0,38.082 30.918,69 69,69c38.082,0 69,-30.918 69,-69Z" style="fill:#adff33;"/><path id="core" d="M141,75c0,-36.426 -29.574,-66 -66,-66c-36.426,0 -66,29.574 -66,66c0,36.426 29.574,66 66,66c36.426,0 66,-29.574 66,-66Z" style="fill:#80bc24;"/><clipPath id="_clip1"><path d="M141,75c0,-36.426 -29.574,-66 -66,-66c-36.426,0 -66,29.574 -66,66c0,36.426 29.574,66 66,66c36.426,0 66,-29.574 66,-66Z"/></clipPath><g clip-path="url(#_clip1)"><g id="jersey-devil"><path d="M62.806,69.616c-0.952,-0.623 -2.228,-1.336 -3.172,-1.783c-1.41,-0.667 -2.263,-0.185 -3.414,-0.222c-1.15,-0.037 -2.486,-0.074 -4.6,-0.408c-2.115,-0.334 -2.19,0.222 -3.34,0.556c-1.15,0.334 -2.263,1.076 -3.562,1.781c-1.299,0.705 -0.631,0.557 -0.816,1.225c-0.186,0.668 -0.297,0.816 -0.705,1.447c-0.408,0.631 -1.039,1.113 -1.039,1.113c-0,-0 0.111,-0.26 -0.371,-0.52c-0.482,-0.259 -1.187,-0.037 -2.078,-0.074c-0.89,-0.037 -2.3,-0.445 -3.005,-0.519c-0.705,-0.074 -0.78,-0.483 -0.817,-0.928c-0.037,-0.445 -0.037,-1.744 -0.222,-2.56c-0.186,-0.816 -0.334,-1.039 -0.557,-1.67c-0.223,-0.631 0.557,-2.671 0.557,-2.671l0.148,-0.334c0.149,-0.334 2.078,-0.816 2.226,-0.52c0.149,0.297 -0.742,0.891 -1.039,1.225c-0.296,0.334 -0.445,1.076 -0.333,1.484c0.111,0.408 0.111,0.594 0.482,1.633c0.371,1.038 0.111,1.892 0.482,1.595c0.371,-0.297 1.447,-2.671 1.855,-4.23c0.409,-1.558 1.967,-3.933 2.412,-5.417c0.445,-1.484 2.301,-4.564 4.898,-10.426c2.597,-5.863 5.38,-6.865 7.532,-8.349c2.152,-1.484 8.052,-3.339 12.17,-5.751c4.119,-2.412 9.796,-4.304 13.581,-4.861c3.784,-0.556 10.203,0.928 10.203,0.928c0,-0 -8.571,1.039 -9.87,1.447c-1.298,0.408 -3.784,2.115 -3.673,2.226c0.111,0.112 0.928,0.26 0.631,0.334c-0.297,0.074 -3.562,1.707 -3.599,2.597c-0.037,0.891 5.157,1.188 4.972,1.373c-0.186,0.186 -1.41,2.004 -1.596,2.857c-0.185,0.854 1.002,2.152 0.668,2.338c-0.334,0.185 -0.556,1.039 -2.412,3.005c-1.855,1.967 -1.558,2.375 -0.816,4.713c0.742,2.337 6.122,4.563 6.122,4.563c0,0 0.891,-0.296 1.336,-0.519c0.445,-0.223 0.482,-0.297 0.891,-0.482c0.408,-0.186 0.779,-0.52 0.964,-0.854c0.186,-0.334 0.334,-0.631 0.965,-1.484c0.631,-0.853 0.631,-0.668 1.336,-1.224c0.705,-0.557 1.447,-0.854 2.003,-1.225c0.557,-0.371 0.483,-0.445 1.039,-1.002c0.557,-0.556 0.668,-0.519 1.373,-0.89c0.705,-0.371 1.262,-0.149 2.152,-0.445c0.891,-0.297 0.705,1.558 0.705,1.558c0,-0 1.299,-1.521 1.781,-2.189c0.483,-0.668 0.965,-0.965 1.262,-1.41c0.297,-0.445 0.519,-0.891 0.816,-1.076c0.297,-0.186 0.965,0.408 0.965,0.408c-0,-0 0.371,-0.334 0.148,-0.668c-0.222,-0.334 -3.117,-2.671 -3.636,-3.117c-0.52,-0.445 -2.189,-3.339 -2.412,-3.821c-0.222,-0.483 0.557,-2.412 0.557,-3.859c-0,-1.447 -0.631,-1.93 -0.631,-1.93c1.892,0.557 4.378,0.483 4.378,0.483c0,-0 -2.968,-3.265 -3.154,-3.599c-0.185,-0.334 0.446,-0.075 0.631,-0.223c0.186,-0.148 -1.336,-2.226 -1.818,-2.597c-0.482,-0.371 -2.375,-2.486 -3.117,-3.006c-0.742,-0.519 -3.116,-2.634 -3.636,-2.968c-0.519,-0.334 -3.005,-2.301 -3.005,-2.301c-0,0 5.157,2.338 7.309,3.674c2.152,1.335 6.679,4.86 8.757,6.901c2.078,2.041 10.241,10.204 11.28,11.317c1.038,1.113 4.971,5.343 6.122,6.642c1.15,1.298 2.857,4.044 2.857,4.044l0.519,-0c0,-0 0.334,-0.186 1.076,-0.519c0.742,-0.334 0.779,-0.483 1.188,-0.557c0.408,-0.074 -0.186,1.187 -0.186,1.187c0,0 1.262,-0.445 1.558,-0.779c0.297,-0.334 0.594,-0.185 1.225,-0.334c0.631,-0.148 -0.742,1.039 -0.742,1.039c-0,0 0.779,-0.111 1.113,-0.297c0.334,-0.185 0.594,0.594 1.818,-0.148c1.224,-0.742 1.113,-0 1.521,-0l0.965,-0l-0.89,1.781c-0,-0 1.484,-0.594 1.818,-0.742c0.334,-0.149 1.076,-0.26 1.484,-0.26c0.408,0 0.631,0.371 1.076,0.408c0.445,0.037 2.263,-0.556 3.042,-0.927c0.78,-0.371 3.859,-0.78 3.859,-0.78c0,0 2.598,13.21 1.707,13.84c-0.89,0.631 -2.746,0.854 -4.638,1.484c-1.892,0.631 -3.191,0.854 -3.859,1.039c-0.668,0.186 -2.82,0.446 -3.451,0.78c-0.63,0.333 -1.15,1.113 -1.595,1.335c-0.445,0.223 -1.373,0.854 -1.596,1.596c-0.222,0.742 1.262,3.042 1.707,4.786c0.446,1.744 0.854,2.56 1.151,2.635c0.296,0.074 -0.038,-2.115 0.037,-2.783c0.074,-0.668 0.593,-0.668 0.779,-1.336c0.185,-0.668 -0.445,-1.187 -1.15,-1.818c-0.705,-0.631 0.519,-0.816 1.372,-0.223c0.854,0.594 0.928,2.598 0.891,3.08c-0.037,0.482 -0.631,1.818 -0.668,2.672c-0.037,0.853 0.111,1.892 0.111,2.226c0,0.334 -0.482,0.816 -0.853,0.927c-0.371,0.112 -5.825,-0.148 -5.825,-0.148c-0,-0 -0.594,-0.445 -1.076,-0.965c-0.483,-0.519 -1.114,-1.41 -1.559,-2.597c-0.445,-1.187 -1.039,-1.484 -1.558,-1.892c-0.52,-0.409 -1.336,-1.002 -1.336,-1.002c0,-0 -0.297,0.519 -0.668,1.336c-0.371,0.816 -0.594,5.602 -0.742,7.977c-0.148,2.375 0.074,4.119 0.037,5.083c-0.037,0.965 0.334,3.859 0.371,4.972c0.037,1.113 1.225,4.49 1.559,5.492c0.334,1.002 1.632,4.081 2.337,4.86c0.705,0.78 1.967,2.857 1.967,2.857c-0,0 2.486,-1.669 3.302,-2.486c0.816,-0.816 2.894,-2.745 3.636,-3.747c0.742,-1.002 2.078,-2.523 2.894,-4.49c0.817,-1.966 1.151,-0.297 0.854,0.483c-0.297,0.779 -1.67,3.821 -2.152,4.897c-0.483,1.076 -2.264,3.043 -3.228,4.008c-0.965,0.964 -3.228,4.081 -4.267,5.083c-1.039,1.002 -1.633,1.67 -2.227,2.709c-0.593,1.038 -1.484,3.896 -1.818,5.305c-0.334,1.41 -1.373,4.527 -1.41,5.937c-0.037,1.41 0.112,3.97 0.112,3.97l-6.939,4.156c0,-0 0,-2.263 0.186,-3.117c0.185,-0.853 0.259,-2.189 0.334,-2.931c0.074,-0.742 1.076,-1.41 1.558,-2.004c0.482,-0.593 0.965,-1.929 1.261,-2.931c0.297,-1.002 0.928,-3.896 1.188,-5.009c0.26,-1.113 0.631,-4.119 0.556,-5.046c-0.074,-0.928 -0.667,-2.078 -0.742,-2.746c-0.074,-0.668 0.037,-1.67 0.112,-2.746c0.074,-1.076 -0.965,-4.823 -1.41,-6.196c-0.446,-1.373 -1.744,-3.896 -2.189,-4.564c-0.446,-0.668 -2.858,-4.193 -3.377,-4.972c-0.519,-0.779 -1.299,-2.337 -1.967,-3.599c-0.667,-1.261 -0.964,-2.3 -1.447,-3.191c-0.482,-0.89 -1.298,-2.56 -1.41,-3.228c-0.111,-0.668 -0.333,-1.892 -0.667,-2.004c-0.334,-0.111 -3.154,1.781 -3.154,1.781c-0,0 -0.408,0.409 -0.668,1.114c-0.26,0.705 -1.002,2.486 -1.225,3.042c-0.222,0.557 -0.259,0.853 -0.259,1.633c-0,0.779 -0.742,2.708 -1.113,3.154c-0.372,0.445 -0.446,-0.409 -0.705,0.519c-0.26,0.928 -0.371,6.234 -0.371,7.124c-0,0.891 0.853,4.527 1.076,5.343c0.222,0.816 1.966,3.525 1.966,3.525c0,-0 3.302,-1.484 4.675,-1.929c1.373,-0.446 4.675,-2.486 6.716,-4.119c2.041,-1.633 1.596,-0.334 1.225,0.223c-0.372,0.556 -3.488,3.191 -5.381,4.526c-1.892,1.336 -6.975,4.416 -8.422,4.935c-1.447,0.52 -2.115,1.262 -2.523,1.744c-0.409,0.482 -5.343,9.239 -5.937,10.575c-0.594,1.336 -0.52,2.226 -0.668,3.302c-0.148,1.076 -0.928,2.634 -1.224,3.265c-0.297,0.631 -0.297,1.076 -0.186,1.967c0.111,0.89 0.186,3.042 -0.185,3.079c-0.371,0.038 -0.854,0 -1.373,-0.037c-0.52,-0.037 -1.856,1.893 -2.189,2.969c-0.334,1.076 -1.039,1.818 -1.67,1.929c-0.631,0.111 -0.631,-0.185 -0.52,-1.002c0.112,-0.816 2.152,-5.751 2.375,-6.27c0.223,-0.52 -0.185,-1.596 -0.185,-1.596c-0.371,0.408 -2.969,5.343 -3.711,6.085c-0.742,0.742 -5.157,0.557 -6.567,0.854c-1.41,0.297 -2.961,1.733 -3.043,1.187c-0.111,-0.742 0.445,-1.744 0.779,-2.189c0.334,-0.445 0.817,-0.668 1.484,-1.336c0.668,-0.668 1.67,-1.892 3.006,-3.413c1.336,-1.522 0.965,-1.114 2.004,-2.115c1.038,-1.002 1.15,-1.373 3.005,-2.857c1.855,-1.485 2.634,-2.19 3.414,-3.414c0.779,-1.224 0.667,-0.705 1.15,-1.299c0.482,-0.593 1.039,-1.669 1.521,-2.523c0.482,-0.853 0.891,-1.558 1.336,-2.486c0.445,-0.927 1.261,-3.376 2.412,-4.712c1.15,-1.336 0.668,-0.928 0.779,-1.67c0.111,-0.742 0.074,-0.89 0.26,-1.781c0.185,-0.89 0.296,-0.482 0.037,-1.335c-0.26,-0.854 -1.67,-1.373 -2.078,-1.596c-0.408,-0.223 -2.746,-2.152 -3.006,-2.412c-0.259,-0.259 -1.039,-1.076 -1.187,-1.632c-0.148,-0.557 -0.074,-2.894 0.037,-3.785c0.111,-0.89 0.111,-1.521 0.111,-2.746c0,-1.224 -0.333,-1.929 -0.333,-1.929c-0,-0 -0.446,1.373 -0.52,1.781c-0.074,0.408 -0.297,0.853 -0.705,1.707c-0.408,0.853 -0.111,0.853 0.297,1.558c0.408,0.705 0.631,1.596 0.631,1.596c-0,-0 -0.52,-0.557 -1.076,-1.114c-0.557,-0.556 -0.928,-1.855 -0.965,-2.486c-0.037,-0.63 0.185,-0.63 0.928,-1.335c0.742,-0.705 0.482,-1.076 0.705,-1.67c0.222,-0.594 -0,-1.039 -0,-1.039c-0,0 -1.448,0.111 -2.041,0.111c-0.594,0 -2.078,0.149 -3.488,0.075c-1.41,-0.075 -1.447,-0.075 -2.189,0.037c-0.742,0.111 -0.668,1.818 -0.297,2.189c0.371,0.371 1.558,1.558 2.56,2.226c1.002,0.668 2.635,0.816 2.635,0.816c-0,0 -2.375,0.371 -3.34,0.223c-0.964,-0.148 -1.076,-0.519 -1.076,-0.519c0,-0 0.186,1.41 0.594,2.337c0.408,0.928 1.41,1.967 2.152,2.746c0.742,0.779 1.113,1.076 2.004,1.929c0.89,0.854 0.667,0.408 1.558,1.039c0.89,0.631 1.373,1.373 1.929,2.226c0.557,0.854 0.334,0.26 1.447,0.854c1.114,0.594 1.299,1.002 1.967,1.595c0.668,0.594 0.111,1.113 -0.334,1.151c-0.445,0.037 -1.262,0.111 -2.375,-0.223c-1.113,-0.334 -2.374,-1.373 -2.82,-1.929c-0.445,-0.557 -1.372,-0.297 -2.56,-0.594c-1.187,-0.297 -2.412,-1.113 -3.117,-1.596c-0.705,-0.482 -0.89,-1.039 -1.187,-2.189c-0.297,-1.15 -0.26,-0.779 -0.519,-1.929c-0.26,-1.15 -0.408,-1.781 -0.668,-2.375c-0.26,-0.594 -0.965,-2.115 -0.965,-2.115c0,0 -0.297,1.67 -0.223,2.041c0.075,0.371 0.557,1.187 0.854,1.818c0.297,0.631 0.111,0.928 0.408,1.707c0.297,0.779 0.705,1.373 0.705,1.373l-0.631,-0.075c0,0 -0.816,-0.593 -1.113,-1.335c-0.297,-0.742 -0.631,-2.152 -0.631,-2.152c0,-0 -0.705,-1.41 -0.556,-1.707c0.148,-0.297 0.222,-1.744 0.408,-2.486c0.185,-0.742 -0.111,-1.373 -0.557,-1.67c-0.445,-0.297 -1.298,-0.965 -1.781,-1.113c-0.482,-0.148 -0.445,0.52 -0.482,1.41c-0.037,0.891 -0.297,2.041 -0.297,2.041c0,-0 -0.631,0.074 -1.076,-0.112c-0.445,-0.185 -0.371,0.075 -0.89,0.26c-0.52,0.186 -1.633,1.076 -2.115,1.484c-0.483,0.408 -4.564,3.191 -4.564,3.191c-0,0 -5.269,3.674 -5.677,3.303c-0.408,-0.371 -1.039,-0.446 -2.152,-0.483c-1.113,-0.037 -0.557,0.037 -1.559,0.594c-1.001,0.556 -0.816,0.965 -1.892,2.004c-1.076,1.038 -0.371,0.63 -1.261,1.595c-0.891,0.965 -1.373,0.408 -4.045,-0.482c-2.671,-0.891 -2.152,-0.52 -3.747,-0.631c-1.596,-0.111 -0.742,0.668 -1.596,1.818c-0.853,1.15 -0.816,1.336 -1.67,2.894c-0.853,1.559 -1.001,1.299 -1.855,1.967c-0.853,0.668 -0.297,-0.483 -0.779,-1.781c-0.482,-1.299 -1.261,0.074 -1.929,0.408c-0.668,0.334 -0.483,1.224 -0.891,2.634c-0.408,1.41 0,3.191 -0.037,3.674c-0.037,0.482 -0.037,-0.409 -0.594,-1.596c-0.556,-1.187 -0.593,0.779 -1.447,1.781c-0.853,1.002 -0.593,-0.779 -0.705,-2.375c-0.064,-0.916 -0.299,-1.893 -0.438,-2.461c0.006,-0.18 -0.006,-0.32 -0.044,-0.396c-0.111,-0.221 -0.06,-0.025 0.044,0.396c-0.04,1.056 -0.75,3.508 -0.972,2.684c-0.259,-0.965 -0.148,-1.15 -0.519,-2.968c-0.371,-1.818 -0.111,-1.076 -1.15,-1.596c-1.039,-0.519 0.037,-0.779 -0.037,-1.781c-0.075,-1.002 0.111,-0.779 0.667,-2.115c0.557,-1.336 0.297,-1.002 0.928,-1.818c0.631,-0.816 0.853,-0.705 1.67,-1.336c0.816,-0.63 0.297,-0.222 1.002,-1.335c0.705,-1.114 0.927,-1.447 1.41,-2.746c0.482,-1.299 -0.112,-1.521 -0.297,-2.746c-0.186,-1.224 -0.112,-2.041 -0.408,-2.486c-0.297,-0.445 -0.668,0.223 -1.856,0.594c-1.187,0.371 -1.187,0.482 -2.449,0.779c-1.261,0.297 -1.892,0.334 -3.302,0.334c-1.41,-0 -1.15,-0.186 -1.781,-0.297c-0.631,-0.111 -0.297,-0.705 -0.445,-1.298c-0.149,-0.594 0.594,-0.817 0.111,-0.928c-0.482,-0.111 -2.263,0.111 -3.042,-0.037c-0.78,-0.149 -0.705,-0.557 -0.78,-1.188c-0.074,-0.63 0.112,-0.259 0.52,-1.001c0.408,-0.742 -0,-0.557 -0.074,-0.928c-0.075,-0.371 0.927,-0.928 1.595,-1.484c0.668,-0.557 0.891,-0.557 0.891,-0.557l-0.928,-1.335c0,-0 0.371,-0 0.668,0.148c0.297,0.148 0.371,-0.557 0.371,-0.557c0,0 -1.558,-1.187 -2.263,-1.744c-0.705,-0.556 -1.67,-1.669 -2.449,-2.226c-0.779,-0.556 -1.818,-1.224 -2.412,-2.003c-0.594,-0.78 -0.779,-2.375 -0.779,-2.375c-0,-0 0.519,0.185 1.224,0.705c0.705,0.519 2.078,1.966 4.119,3.376c2.041,1.41 2.3,0.78 3.859,1.299c1.558,0.52 3.116,0.408 4.118,0.26c1.002,-0.149 3.043,-0.334 4.193,-0.594c1.15,-0.26 1.744,-0.26 2.82,-0.89c1.076,-0.631 -0.111,-1.262 -0.111,-1.707c-0,-0.445 -0.186,-1.41 0.074,-2.078c0.26,-0.668 1.002,-0.668 1.447,-0.853c0.445,-0.186 0.779,1.335 1.336,1.892c0.556,0.556 1.039,0.556 1.447,0.297c0.408,-0.26 0.816,-0.52 1.447,-1.076c0.631,-0.557 0.482,-0.705 0.556,-1.151c0.075,-0.445 0.297,-0.482 0.594,-1.076c0.297,-0.593 1.15,-1.076 1.15,-1.076c0,0 1.076,-0.408 1.039,0.075c-0.037,0.482 -0.371,0.927 -0.593,1.706c-0.223,0.78 0.482,0.928 0.482,0.928c-0,0 0.371,-0.297 0.668,-0.557c0.297,-0.259 1.336,-1.521 1.336,-1.521c-0,0 0.519,-0.742 0.779,-1.076c0.259,-0.334 1.558,-1.113 1.558,-1.113l-0.297,0.853c0,0 1.188,-0.334 2.078,-0.667c0.891,-0.334 0.779,-0.371 1.596,-0.928c0.816,-0.557 1.706,-1.076 3.228,-1.892c1.521,-0.817 0.927,-0.557 2.152,-1.039c1.224,-0.483 0.89,-0.371 1.595,-0.965c0.705,-0.594 1.002,-1.373 2.041,-2.263c1.039,-0.891 1.892,-0.075 0.853,0.556c-1.039,0.631 -1.224,1.002 -2.337,1.781c-1.113,0.779 -1.188,1.447 -1.262,1.781c-0.074,0.334 0,0 0.631,-0.556c0.631,-0.557 0.445,-0.371 0.816,-0.705c0.2,-0.18 0.55,-0.284 1.048,-0.441c0.294,-0.188 0.655,-0.344 1.179,-0.487c0.149,-0.041 0.294,-0.079 0.435,-0.115l0,0c0.863,-0.39 1.78,-0.707 2.217,-0.811Zm25.695,22.261c0,0 0.705,1.076 1.262,1.336c0.556,0.26 1.113,0.26 1.447,0.705c0.334,0.445 1.67,7.717 1.113,7.755c-0.557,0.037 -1.076,-0.928 -1.336,-1.819c-0.26,-0.89 -0.593,-1.15 -1.15,-2.152c-0.557,-1.001 -1.002,-0.927 -1.076,-2.152c-0.074,-1.224 -0.334,-3.005 -0.26,-3.673Zm0.149,-5.046c0.181,-0.408 1.298,2.671 1.521,3.376c0.223,0.705 1.373,2.82 1.373,2.82c-0,0 -1.93,-0.927 -2.412,-2.003c-0.482,-1.076 -0.928,-3.191 -0.482,-4.193Zm-25.711,-17.127l-0,-0c0.227,-0.134 0.14,-0.152 -0.133,-0.088c0.045,0.03 0.089,0.059 0.133,0.088c-0.52,0.306 -1.331,0.463 -2.35,0.723c-0.647,0.293 -1.185,0.467 -1.614,0.602c-0.393,0.25 -0.666,0.557 -1.048,0.96c-0.668,0.705 -1.447,1.187 -0.89,1.521c0.556,0.334 0.148,0.075 1.929,0.483c1.781,0.408 3.191,0.964 3.785,1.781c0.593,0.816 -0.037,0.037 -1.596,-0.26c-1.558,-0.297 -1.484,0.074 -3.265,0.519c-1.781,0.446 -1.002,0.817 -0.519,0.631c0.482,-0.185 0.816,-0.037 2.931,-0.111c2.115,-0.074 0.779,-0.037 3.599,-0.037c2.82,-0 4.49,0.927 4.49,0.927c-0,0 -0.705,0.186 -1.93,0.112c-1.224,-0.074 -1.224,-0 -2.783,0.074c-1.558,0.074 -1.113,0.148 -2.486,0.631c-1.372,0.482 -0.667,0.668 0.186,0.593c0.853,-0.074 6.011,0.297 6.011,0.297c-0,0 -1.521,0.074 -2.894,0.297c-1.373,0.223 -0,0.223 0.111,0.557c0.111,0.334 -0.445,0.334 -0.816,0.63c-0.371,0.297 -0.52,0.631 -0.52,0.631c0,0 2.264,0.445 2.746,0.297c0.482,-0.148 0.928,-0.519 1.373,-0.853c0.445,-0.334 0.519,-0.742 1.039,-1.336c0.519,-0.594 0.445,-1.484 0.26,-2.338c-0.186,-0.853 -1.633,-3.525 -2.746,-4.526c-1.113,-1.002 -1.336,-1.41 -2.041,-2.078c-0.211,-0.2 -0.551,-0.453 -0.962,-0.727Z" style="fill:#3b3328;"/><path d="M47.953,92.109c1.84,-0.21 2.733,-0.788 4.573,0.211c1.84,0.998 3.626,1.366 4.1,2.733c0.473,1.366 0.84,4.73 0.63,6.674c-0.21,1.945 -0.736,3.049 -2.417,4.941c-1.682,1.892 -4.363,2.838 -4.626,3.889c-0.262,1.051 -0.946,1.209 1.63,1.104c2.575,-0.105 3.416,-0.526 3.626,0.105c0.21,0.631 0.526,0.841 0.158,1.787c-0.368,0.946 -1.577,4.572 -1.577,4.572c0,0 0.263,0.684 1.314,-0.105c1.051,-0.788 2.102,-1.103 2.838,-2.68c0.736,-1.577 1.472,-3.154 1.997,-4.31c0.526,-1.156 0.789,-1.892 1.525,-1.472c0.735,0.421 1.524,0.789 1.471,1.893c-0.052,1.103 -0.736,3.521 -0.736,3.521l-0.63,1.051c-0,0 2.785,-1.892 3.048,-3.048c0.263,-1.157 0.841,-3.364 0.578,-4.205c-0.263,-0.841 -0.946,-1.366 -0.42,-1.787c0.525,-0.42 1.366,-0.841 1.366,-0.841c0,0 1.104,0.683 1.472,1.262c0.368,0.578 1.104,1.103 1.104,1.103c-0,0 -0.053,-2.628 -0.789,-3.836c-0.736,-1.209 -1.051,-1.63 -1.419,-1.998c-0.368,-0.367 -0.946,-1.366 -0.42,-1.734c0.525,-0.368 1.366,-0.473 1.366,-0.473c0,-0 -0.42,-0.578 -0.578,-1.104c-0.158,-0.525 -0.736,-1.892 -0.788,-3.363c-0.053,-1.472 0.262,-1.577 -0.105,-3.417c-0.368,-1.839 -3.522,-8.567 -4.678,-9.197c-1.156,-0.631 -4.31,-2.26 -6.044,-2.786c-1.735,-0.525 -4.783,-1.104 -6.833,-0.788c-2.049,0.315 -3.679,0.525 -4.625,1.104c-0.946,0.578 -2.943,1.839 -3.048,2.627c-0.105,0.789 1.419,1.157 2.943,2.733c1.524,1.577 1.787,1.682 2.26,2.786c0.473,1.104 0.315,0.999 0.736,1.945c0.42,0.946 -0.841,1.314 0.998,1.103Z" style="fill:#575350;"/></g></g></svg>