<?xml version="1.0" encoding="UTF-8" standalone="no"?><!DOCTYPE svg PUBLIC "-//W3C//DTD SVG 1.1//EN" "http://www.w3.org/Graphics/SVG/1.1/DTD/svg11.dtd"><svg width="100%" height="100%" viewBox="0 0 150 150" version="1.1" xmlns="http://www.w3.org/2000/svg" xmlns:xlink="http://www.w3.org/1999/xlink" xml:space="preserve" xmlns:serif="http://www.serif.com/" style="fill-rule:evenodd;clip-rule:evenodd;stroke-linejoin:round;stroke-miterlimit:2;"><path id="base" d="M150,75c0,-41.394 -33.606,-75 -75,-75c-41.394,0 -75,33.606 -75,75c0,41.394 33.606,75 75,75c41.394,0 75,-33.606 75,-75Z" style="fill:#4a6919;"/><path id="outline" d="M144,75c0,-38.082 -30.918,-69 -69,-69c-38.082,0 -69,30.918 -69,69c0,38.082 30.918,69 69,69c38.082,0 69,-30.918 69,-69Z" style="fill:#adff33;"/><path id="core" d="M141,75c0,-36.426 -29.574,-66 -66,-66c-36.426,0 -66,29.574 -66,66c0,36.426 29.574,66 66,66c36.426,0 66,-29.574 66,-66Z" style="fill:#80bc24;"/><clipPath id="_clip1"><path d="M141,75c0,-36.426 -29.574,-66 -66,-66c-36.426,0 -66,29.574 -66,66c0,36.426 29.574,66 66,66c36.426,0 66,-29.574 66,-66Z"/></clipPath><g clip-path="url(#_clip1)"><g id="mothman"><path d="M53.274,23.488l-16.401,-9.469l-24.067,22.996c0,-0 6.764,-0.508 10.315,1.634c3.55,2.142 12.681,6.313 16.006,14.88c3.326,8.567 4.622,18.825 0.282,25.644l-0.958,1.691c0,0 3.889,-2.874 5.185,-3.72c1.297,-0.845 3.777,-1.578 5.355,-1.634c1.578,-0.056 4.96,1.127 5.523,2.367c0.564,1.24 2.762,3.776 3.495,4.791c0.732,1.014 2.592,3.832 2.592,3.832l19.22,-0.845c-0,0 6.707,-0.564 7.778,-0.451c1.071,0.113 5.072,2.593 5.918,4.284c0.845,1.691 4.058,8.116 4.227,10.483c0.169,2.367 -0.113,7.722 -0.113,7.722c0,-0 2.198,-2.875 3.326,-3.157c-0,0 1.07,2.48 1.465,3.889c0.394,1.409 1.578,6.2 1.184,8.511c-0.395,2.311 -2.706,8.285 -3.157,8.792c0,0 1.747,-0.507 2.931,-1.916c1.184,-1.409 4.847,-3.607 6.369,-3.945c1.522,-0.338 3.945,-1.127 5.129,-0.338c1.184,0.789 2.987,1.916 3.043,4.114c0.057,2.198 -0.338,6.144 0.395,6.989c0.733,0.845 3.044,-0.902 3.044,-0.902l1.803,1.86l1.015,4.171l0.732,-2.931c0,0 0.057,-12.343 -0.225,-15.781c-0.282,-3.438 -1.465,-17.416 -2.536,-21.982c-1.071,-4.565 -5.411,-15.725 -5.918,-16.626c-0.508,-0.902 -1.297,-3.889 -1.973,-4.96c-0.676,-1.071 -2.424,-2.311 -2.875,-2.931c-0.45,-0.62 -0.225,-2.593 -0.901,-3.156c-0.677,-0.564 -2.198,0.282 -3.1,-0.395c-0.902,-0.676 -1.184,-2.705 -2.198,-2.874c-1.015,-0.169 -2.198,1.803 -2.649,3.043c-0.451,1.24 -0.846,2.255 -1.973,2.367c-1.127,0.113 -3.833,-0.507 -5.862,-1.296c-2.029,-0.789 -25.644,-17.472 -25.644,-17.472l-13.471,-12.569l-2.311,-14.71Z" style="fill:#598881;"/><path d="M90.21,53.822c0.482,0.356 1.875,1.222 1.875,1.222c0,-0 1.173,0.722 1.444,1.353c0.27,0.632 2.12,1.94 2.12,2.661c-0,0.722 -0.361,2.527 -0.632,3.023c-0.27,0.496 -0.586,0.721 -0.676,1.263c-0.091,0.541 0.27,1.263 0.857,1.849c0.586,0.587 1.353,1.534 1.488,1.94c0.135,0.406 0.181,0.225 1.083,0.631c0.902,0.406 0.496,0.993 1.759,0.902c1.263,-0.09 1.443,0.316 1.94,-0.676c0.496,-0.993 0.721,-1.263 1.127,-1.85c0.406,-0.586 0.542,-1.037 1.128,-1.263c0.586,-0.225 1.534,-0.496 1.534,-0.496c-0,0 0.586,-0.451 -0.497,0.902c-1.082,1.354 -1.217,1.083 -1.172,1.669c0.045,0.587 0.18,0.316 0.18,1.94c0,1.624 -0.451,2.797 -0.541,3.879c-0.09,1.083 -0.226,1.128 -0.316,2.391c-0.09,1.263 -0.225,2.481 -0.451,3.473c-0.226,0.993 -0.406,1.669 -0.586,2.662c-0.181,0.992 -0.452,2.661 -0.767,2.932c-0.316,0.27 -1.354,0.36 -1.985,0.902c-0.632,0.541 -0.947,0.722 -1.624,0.586c-0.677,-0.135 -1.263,-0.812 -1.985,-1.849c-0.721,-1.038 -1.037,-0.947 -1.849,-1.985c-0.812,-1.037 -1.444,-1.308 -1.849,-3.158c-0.406,-1.849 -0.677,-5.548 -0.993,-5.593c-0.316,-0.045 -0.902,1.308 -1.398,2.346c-0.496,1.037 -2.481,2.932 -2.932,3.879c-0.451,0.947 -0.767,2.526 -0.587,4.06c0.181,1.533 1.76,3.789 2.526,4.826c0.767,1.038 1.624,4.015 1.715,7.217c0.09,3.203 0.27,5.278 -0.046,6.722c-0.315,1.443 -1.398,2.616 -1.849,3.202c-0.451,0.587 -3.789,4.24 -4.556,5.368c-0.767,1.128 -1.669,3.924 -2.075,4.962c-0.406,1.037 -1.488,2.842 -1.443,4.33c0.045,1.489 -0.181,3.474 0.767,4.556c0.947,1.083 2.075,3.203 3.112,4.421c1.037,1.218 2.03,3.247 2.3,3.789c0.271,0.541 -0.721,0.586 -1.443,-0c-0.722,-0.587 -1.443,-2.03 -1.398,-1.263c0.019,0.335 0.013,0.74 0.004,1.153l-0.008,0.355c-0.01,0.413 -0.016,0.818 0.004,1.153c0.045,0.767 -0.722,0.496 -1.173,-0.316c-0.451,-0.812 -1.85,-4.24 -2.21,-4.826c-0.361,-0.587 -1.714,-1.128 -1.534,-0.226c0.18,0.902 -0.541,3.068 -1.038,3.383c-0.342,0.218 -0.811,-1.533 -0.721,-2.796c0.09,-1.263 0.27,-3.338 -0.09,-4.195c-0.361,-0.857 -1.173,-2.617 -1.85,-3.835c-0.677,-1.217 -0.857,-1.894 -1.759,-3.247c-0.902,-1.354 -0.722,-1.444 -1.85,-2.526c-1.127,-1.083 -1.714,-2.346 -2.751,-3.113c-1.038,-0.767 -1.85,-1.579 -2.842,-2.481c-0.992,-0.902 -2.481,-3.563 -2.661,-4.285c-0.181,-0.722 0.406,-2.03 0.316,-2.706c-0.091,-0.677 -1.895,-6 -2.346,-6.947c-0.451,-0.947 -1.038,-1.804 -1.489,-3.654c-0.451,-1.849 -0.631,-4.691 -0.135,-6.27c0.496,-1.579 2.346,-6.225 3.383,-7.397c1.038,-1.173 2.391,-5.458 2.661,-6.631c0.271,-1.173 2.572,-12.495 2.166,-13.307c-0.406,-0.812 -2.887,-7.082 -4.286,-8.029c-1.398,-0.948 -9.833,-8.12 -10.374,-9.563c-0.542,-1.444 -1.083,-5.458 -0.903,-8.3c0.181,-2.842 0.948,-7.758 0.361,-8.661c-0.586,-0.902 -4.691,-4.24 -5.142,-4.556c-0.092,-0.064 -0.07,-0.092 0.032,-0.093l0.013,-0c0.42,0.004 2.033,0.424 2.887,0.815c1.083,0.496 3.834,0.271 5.097,0.361c1.263,0.09 2.571,-0.857 3.789,-0.857c1.218,0 4.737,1.263 4.782,1.849c0.045,0.587 0.361,3.384 -0.045,3.474c-0.406,0.09 -0.542,-2.075 -1.444,-2.526c-0.902,-0.451 -2.616,-0.632 -3.473,-0.181c-0.857,0.451 -1.173,0.542 -1.218,0.948c-0.045,0.406 0.722,0.902 1.308,1.082c0.586,0.181 1.444,1.218 1.444,1.218c-0,0 -0.091,0.586 0.902,0.992c0.992,0.406 2.21,0.406 2.706,0.542c0.496,0.135 1.444,0.09 1.083,0.541c-0.361,0.451 -0.587,1.263 -1.354,1.218c-0.766,-0.045 -3.337,-0.316 -3.337,-0.316c-0,0 -0.226,0.902 -0.226,1.353c-0,0.451 -0.406,0.812 -0.406,0.812l-0.902,-1.218c-0,0 -0.271,-0.992 -0.09,-1.669c0.18,-0.676 0.496,-1.037 -0.181,-1.127c-0.676,-0.09 -1.759,-0.451 -1.985,0.406c-0.225,0.857 -0.045,1.127 0.226,2.526c0.271,1.398 1.489,4.736 1.534,5.864c0.045,1.127 0.451,2.526 1.082,3.112c0.632,0.587 2.03,1.489 2.616,2.616c0.587,1.128 2.527,2.481 3.429,3.068c0.902,0.586 3.247,2.255 3.247,2.255c0,0 1.354,0.632 2.932,1.128c1.579,0.496 2.797,0.992 3.699,1.082c0.902,0.091 1.759,-0.045 2.481,-0.135c0.722,-0.09 1.624,-0.451 2.075,-0.316c0.451,0.136 1.895,0.271 2.662,0.722c0.766,0.451 1.939,0.767 2.661,1.083c0.722,0.315 2.165,0.767 2.165,0.767l0.182,0.22c-0.007,-0.528 -0.032,-1.085 -0.092,-1.574c-0.18,-1.488 -0.045,-2.616 -0.315,-3.473c-0.271,-0.857 -0.812,-2.797 -0.812,-2.797c-0,0 0.857,0.857 1.218,0.902c0.36,0.046 0.586,-0.586 0.586,-0.586c-0,0 0.316,0.271 0.271,0.947c-0.046,0.677 -0,2.12 -0.091,2.932c-0.09,0.812 -0.18,3.293 -0.09,3.699c0.09,0.406 0.451,0.902 0.451,0.902c0,0 0.767,0.361 1.444,0.181c0.676,-0.181 1.353,-0.361 2.526,-0.677c1.172,-0.316 1.533,-0.451 2.751,-0.857c1.218,-0.406 1.714,-0.677 2.526,-0.857c0.812,-0.18 1.759,-0.451 1.759,-0.451l-0.09,0.496l0.406,0.135c0,0 -0.27,0.361 -1.127,0.587c-0.857,0.225 -1.309,0.135 -1.94,0.451c-0.632,0.316 -2.391,0.947 -3.473,1.308c-1.083,0.361 -1.985,0.406 -2.617,0.632c-0.436,0.155 -0.506,0.354 -0.702,0.582Zm-18.333,39.203c0.265,-0.457 1.669,0.135 2.751,-0c1.083,-0.136 3.203,-1.128 3.609,-0.993c0.406,0.136 1.353,1.624 1.895,2.481c0.541,0.857 1.984,2.21 2.165,4.24c0.18,2.03 -0.496,3.158 -1.263,3.97c-0.767,0.812 -2.075,2.12 -1.94,3.563c0.135,1.444 -0.451,3.699 -1.173,4.872c-0.721,1.173 -1.172,2.481 -2.345,2.481c-1.173,-0 -2.932,-1.714 -2.887,-2.661c0.045,-0.948 0.676,-3.835 0.316,-4.872c-0.361,-1.038 -1.805,-1.85 -2.03,-2.526c-0.226,-0.677 -0.677,-3.879 -0.451,-5.999c0.225,-2.121 0.225,-2.617 1.353,-4.556Zm25.17,-23.096c0,0 2.03,1.354 2.391,1.489c0.361,0.135 0.406,1.398 0.18,2.21c-0.225,0.812 -1.037,2.391 -1.037,2.391c-0,0 -1.94,-1.714 -1.534,-6.09Z" style="fill:#33393e;"/><path d="M94.25,57.795c0,0.8 -1.894,1.76 -2.526,1.173c-0.631,-0.586 -1.624,-2.481 -1.308,-3.202c0.316,-0.722 1.804,-0.767 2.526,-0.271c0.722,0.496 1.308,1.037 1.308,2.3Zm-10.059,-6.224c-0.715,0.491 -3.067,0.766 -3.563,-0.677c-0.496,-1.443 0.135,-3.067 1.443,-3.203c1.308,-0.135 2.03,0.181 2.571,1.038c0.542,0.857 0.271,2.345 -0.451,2.842Z" style="fill:#444d4f;"/></g></g></svg>