<?xml version="1.0" encoding="UTF-8" standalone="no"?><!DOCTYPE svg PUBLIC "-//W3C//DTD SVG 1.1//EN" "http://www.w3.org/Graphics/SVG/1.1/DTD/svg11.dtd"><svg width="100%" height="100%" viewBox="0 0 150 150" version="1.1" xmlns="http://www.w3.org/2000/svg" xmlns:xlink="http://www.w3.org/1999/xlink" xml:space="preserve" xmlns:serif="http://www.serif.com/" style="fill-rule:evenodd;clip-rule:evenodd;stroke-linejoin:round;stroke-miterlimit:2;"><path id="base" d="M150,75c0,-41.394 -33.606,-75 -75,-75c-41.394,0 -75,33.606 -75,75c0,41.394 33.606,75 75,75c41.394,0 75,-33.606 75,-75Z" style="fill:#4a6919;"/><path id="outline" d="M144,75c0,-38.082 -30.918,-69 -69,-69c-38.082,0 -69,30.918 -69,69c0,38.082 30.918,69 69,69c38.082,0 69,-30.918 69,-69Z" style="fill:#adff33;"/><path id="core" d="M141,75c0,-36.426 -29.574,-66 -66,-66c-36.426,0 -66,29.574 -66,66c0,36.426 29.574,66 66,66c36.426,0 66,-29.574 66,-66Z" style="fill:#80bc24;"/><clipPath id="_clip1"><path d="M141,75c0,-36.426 -29.574,-66 -66,-66c-36.426,0 -66,29.574 -66,66c0,36.426 29.574,66 66,66c36.426,0 66,-29.574 66,-66Z"/></clipPath><g clip-path="url(#_clip1)"><g id="nessy"><path d="M0.64,63.355l148.115,2.208l27.599,96.828l-182.89,-3.726l7.176,-95.31Z" style="fill:#bfd6e2;"/><path d="M109.232,76.833c0.65,-0.26 1.005,-2.623 0.28,-3.517c-0.726,-0.893 -3.07,-2.958 -3.573,-3.795c-0.502,-0.837 -1.898,-2.233 -4.186,-1.675c-2.289,0.559 -6.81,2.289 -8.373,3.796c-1.562,1.507 -6.307,9.489 -6.809,11.442c-0.503,1.954 -2.289,11.164 -3.07,14.625c-0.782,3.46 -3.182,11.554 -3.963,12.67c-0.782,1.116 -1.117,3.07 -1.675,3.349c-0.558,0.279 -1.507,0 -2.456,0.949c-0.949,0.949 0.056,0.614 -2.567,0.781c-2.624,0.168 -5.526,-2.232 -8.875,-2.009c-3.349,0.223 -20.82,3.237 -26.904,7.089c-0,-0 3.014,0.446 7.479,0.558c4.466,0.112 9.266,0.614 13.117,0.893c3.852,0.279 13.843,-0.781 16.466,-0.781c2.624,-0 8.206,0.837 10.941,0.669c2.735,-0.167 7.033,-0.837 7.033,-0.837c-0,0 0.446,-4.019 0.111,-6.698c-0.335,-2.679 -1.674,-8.484 -1.563,-12.559c0.112,-4.074 0.112,-9.489 1.507,-13.842c1.396,-4.354 3.349,-8.931 4.968,-10.494c1.619,-1.563 2.344,-2.4 3.461,-2.512c1.116,-0.111 3.572,0.447 4.409,0.837c0.838,0.391 3.126,1.507 4.242,1.061Z" style="fill:#466d86;"/></g></g></svg>