<?xml version="1.0" encoding="UTF-8" standalone="no"?><!DOCTYPE svg PUBLIC "-//W3C//DTD SVG 1.1//EN" "http://www.w3.org/Graphics/SVG/1.1/DTD/svg11.dtd"><svg width="100%" height="100%" viewBox="0 0 150 150" version="1.1" xmlns="http://www.w3.org/2000/svg" xmlns:xlink="http://www.w3.org/1999/xlink" xml:space="preserve" xmlns:serif="http://www.serif.com/" style="fill-rule:evenodd;clip-rule:evenodd;stroke-linejoin:round;stroke-miterlimit:2;"><path id="base" d="M150,75c0,-41.394 -33.606,-75 -75,-75c-41.394,0 -75,33.606 -75,75c0,41.394 33.606,75 75,75c41.394,0 75,-33.606 75,-75Z" style="fill:#4a6919;"/><path id="outline" d="M144,75c0,-38.082 -30.918,-69 -69,-69c-38.082,0 -69,30.918 -69,69c0,38.082 30.918,69 69,69c38.082,0 69,-30.918 69,-69Z" style="fill:#adff33;"/><path id="core" d="M141,75c0,-36.426 -29.574,-66 -66,-66c-36.426,0 -66,29.574 -66,66c0,36.426 29.574,66 66,66c36.426,0 66,-29.574 66,-66Z" style="fill:#80bc24;"/><clipPath id="_clip1"><path d="M141,75c0,-36.426 -29.574,-66 -66,-66c-36.426,0 -66,29.574 -66,66c0,36.426 29.574,66 66,66c36.426,0 66,-29.574 66,-66Z"/></clipPath><g clip-path="url(#_clip1)"><g id="skunk-ape"><path d="M119.922,19.595c0,-0 -9.945,-1.058 -13.33,-0.635c-3.386,0.423 -5.29,1.058 -9.522,3.597c-4.232,2.539 -7.617,8.464 -13.754,12.696c-6.136,4.232 -12.272,2.327 -12.272,2.327c-0,0 -3.809,0 -7.195,2.54c-3.385,2.539 -6.136,4.232 -8.04,6.982c-1.905,2.751 -1.481,4.021 -5.29,6.983c-3.809,2.962 -6.56,4.443 -7.829,6.559c-1.27,2.116 -4.444,6.56 -5.502,8.253c-1.058,1.692 -1.058,1.481 -3.174,5.713c-2.116,4.232 -7.394,11.328 -7.824,14.293c-0.396,2.73 -1.697,10.252 -3.39,14.061c-1.693,3.808 -1.27,3.385 -2.328,7.194c-1.058,3.809 -2.327,4.867 -3.809,8.041c-1.481,3.173 -8.887,11.214 -8.887,11.214l77.868,24.334l38.722,-5.925c-0,0 4.655,-8.041 5.713,-13.331c1.058,-5.289 -1.27,-0.211 2.328,-11.849c3.597,-11.638 2.801,-13.488 3.173,-19.255c0.424,-6.56 -0.423,-8.041 1.27,-16.293c1.693,-8.252 2.001,-9.937 2.328,-14.177c0.326,-4.232 0.446,-9.31 0.846,-13.119c0.4,-3.811 -0.212,-10.368 -4.02,-12.061c-3.809,-1.693 -3.174,-1.058 -4.867,-2.327c-1.693,-1.27 -1.27,1.904 -1.904,-2.116c-0.635,-4.021 -0.635,-1.27 -1.058,-10.369c-0.424,-9.098 -2.963,-10.579 -8.253,-13.33Z" style="fill:#452938;"/><path d="M98.7,49.974c0.106,-2.972 -0.201,-3.414 1.707,-6.025c1.907,-2.61 0.903,-3.012 3.313,-4.618c2.41,-1.607 -0.602,-2.912 4.317,-2.008c4.92,0.903 5.924,0.903 8.033,1.405c2.108,0.502 4.217,-0.803 4.417,1.306c0.201,2.108 -0.1,2.811 -1.807,5.221c-1.707,2.409 -1.405,1.405 -1.506,4.719c-0.1,3.313 -0.904,3.614 -0.201,5.723c0.703,2.108 1.004,3.012 2.109,4.417c1.104,1.406 1.305,0.302 1.506,3.012c0.201,2.711 -5.02,5.422 -6.526,6.426c-1.506,1.004 -2.41,2.41 -2.51,3.916c-0.101,1.506 -1.507,2.41 0.301,5.321c1.807,2.912 3.413,-1.405 4.417,2.51c1.005,3.916 1.607,3.013 0.503,5.422c-1.105,2.41 -6.728,3.414 -10.041,4.217c-3.313,0.803 -1.606,4.92 -7.128,0c-5.523,-4.92 -6.828,-6.827 -8.635,-9.94c-1.807,-3.112 -3.916,-2.811 -3.414,-5.723c0.502,-2.911 1.506,-2.911 3.514,-5.221c2.008,-2.309 3.514,-3.614 4.418,-6.426c0.904,-2.811 3.113,-10.843 3.213,-13.654Z" style="fill:#60486a;"/><path d="M114.006,45c0.349,-0.268 0.268,-0.43 0.51,-0.322c0.242,0.107 0.645,0.161 0.591,0.403c-0.054,0.242 -0.054,0.268 -0.269,0.537c-0.215,0.269 -0.564,0.564 -0.564,0.564c0,0 -0.08,0.108 -0.429,0.457c-0.35,0.349 -0.699,0.483 -0.967,1.074c-0.269,0.591 -1.37,0.108 -1.37,0.108c-0,-0 -0.188,0.107 -0.591,-0c-0.403,-0.108 -0.564,-0.188 -1.155,-0.108c-0.591,0.081 -0.511,0.108 -1.558,0.054c-1.048,-0.054 -1.101,0.054 -2.015,-0.296c-0.913,-0.349 -1.719,-0.591 -2.041,-0.94c-0.322,-0.349 -0.725,-0.134 -0.618,-0.806c0.108,-0.671 0.591,-1.611 0.887,-1.96c0.295,-0.35 0.617,-0.752 0.698,-0.457c0.081,0.295 -0.027,0.94 -0.027,0.94c0,0 -0.483,0.51 0.242,0.833c0.725,0.322 0.967,0.161 1.262,0.456c0.296,0.296 0.376,0.457 0.887,0.645c0.51,0.188 0.456,0.108 1.074,0.269c0.618,0.161 0.591,0.188 0.967,0.161c0.376,-0.027 0.672,-0.108 0.913,-0.188c0.242,-0.081 0.457,-0.43 0.591,-0.134c0.135,0.295 0.269,0.59 0.269,0.59c-0,0 0.268,-0.752 0.215,-1.047c-0.054,-0.296 -0.081,-1.128 -0.081,-1.128l0.672,-0.43c-0,-0 0.456,0.967 0.429,1.343c-0.026,0.376 0.081,0.94 0.081,0.94l0.645,-0.671c-0,-0 0.268,-0.162 0.403,-0.43c0.134,-0.269 -0,-0.188 0.349,-0.457Z" style="fill:#ffdae0;"/><path d="M117.349,35.69c0.674,0 1.221,0.534 1.221,1.191c0,0.657 -0.547,1.191 -1.221,1.191c-0.674,0 -1.221,-0.534 -1.221,-1.191c0,-0.657 0.547,-1.191 1.221,-1.191Zm-10.815,-3.083c0.651,0 1.181,0.565 1.181,1.261c-0,0.696 -0.53,1.262 -1.181,1.262c-0.652,-0 -1.182,-0.566 -1.182,-1.262c0,-0.696 0.53,-1.261 1.182,-1.261Z" style="fill:#7e1c42;"/><path d="M45.398,146.662l-12.349,-6.225l0.301,-1.305l1.506,-0l5.623,2.008c-0,-0 -1.105,-2.209 -2.109,-2.711c-1.004,-0.502 4.317,5.422 12.651,4.819c-0,0 -4.619,-6.325 -10.442,-8.032c-5.823,-1.707 -9.84,-4.719 -9.84,-4.719l3.515,0c-0,0 -2.41,-0.904 -3.113,-2.51c0,-0 6.325,4.116 10.342,4.518c-0,0 -2.51,-2.209 -2.912,-4.116c-0,-0 10.542,8.735 13.454,8.835c2.912,0.1 0.904,-2.309 -0.402,-4.518c-1.305,-2.209 -10.743,-14.257 -11.245,-16.265c0,-0 11.948,13.554 13.956,15.462c0,-0 -13.153,-14.358 -13.956,-17.37c0,-0 17.169,18.173 19.679,21.285c2.51,3.113 7.129,9.137 7.129,9.137l14.759,3.414l-6.325,-5.522l-3.414,-5.523c0,0 4.518,4.619 5.723,5.924c1.205,1.305 7.631,1.707 7.631,1.707c-0,0 -9.639,-14.257 -10.442,-17.771c-0,-0 11.245,16.064 19.578,20.482c0,-0 -11.747,-20.081 -12.952,-25.201c0,-0 5.824,9.337 6.928,10.04c0,0 -0.703,-4.418 -0.703,-7.028c0,-0 4.92,11.948 8.836,17.169c-0,-0 -6.526,-10.141 -6.024,-16.667c-0,-0 9.136,16.767 11.948,21.587c2.811,4.819 -7.129,13.253 -7.129,13.253l-50.202,-14.157Z" style="fill:#76855a;"/><path d="M115.869,146.06l-15.663,-3.515l-2.309,-3.213l12.048,2.41l-13.253,-4.518l-2.008,-4.016c-0,-0 9.237,1.707 10.542,2.51c0,-0 -34.852,-18.273 -49.097,-24.9c-0,-0 20.194,8.233 20.896,8.434c0,-0 -19.177,-10.241 -19.779,-11.547c-0,0 39.358,16.266 44.679,17.772c0,-0 -34.84,-23.294 -36.346,-25.703c0,-0 13.254,7.128 16.165,8.534c0,-0 -14.056,-10.342 -14.96,-11.948c0,-0 7.832,4.719 9.438,5.622c0,0 -8.133,-6.225 -8.635,-7.229c0,0 39.258,25.402 42.772,27.411c0,-0 -35.04,-31.125 -35.944,-32.431c-0,0 13.956,10.543 16.566,12.35c0,-0 -14.759,-15.161 -15.361,-16.065l8.132,6.225l-6.526,-7.429c0,-0 17.772,15.16 18.876,16.164c-0,0 -13.052,-14.558 -14.056,-15.662c-0,-0 13.353,11.847 14.257,12.851c-0,0 -4.619,-6.928 -5.623,-7.731c-1.004,-0.803 -5.622,-4.418 -5.924,-5.02c-0.301,-0.602 13.053,8.032 14.057,8.936c-0,-0 -12.35,-14.559 -13.354,-15.864c-1.004,-1.305 8.635,7.832 9.539,8.936c0.903,1.104 -3.715,-5.321 -4.117,-5.924c-0.402,-0.602 22.49,24.097 24.8,25.703c-0,0 2.309,-1.606 -6.828,-14.357c0,-0 8.936,9.739 9.739,10.643c0.804,0.903 -15.161,-21.688 -16.165,-22.993c0,0 17.37,19.177 19.679,21.888c2.31,2.711 7.531,10.141 7.531,10.141c-0,-0 -10.743,-15.864 -12.45,-18.173c-0,-0 9.438,9.94 11.646,13.253c0,0 -14.156,-37.752 -15.361,-42.571c-0,0 15.06,31.627 16.466,33.836c-0,-0 -6.727,-23.294 -7.33,-28.615c0,0 4.82,10.241 7.731,15.061c2.912,4.819 -0.442,-0.748 -0.442,-0.748c0,-0 -4.477,-12.807 -4.678,-14.413c-0,-0 12.651,26.406 14.759,30.823l6.125,9.94c-0,0 -15.161,-39.96 -16.065,-47.39c-0.903,-7.43 8.434,21.988 12.149,26.607c3.715,4.618 19.78,44.177 19.78,44.177l-27.913,15.161l-18.185,-3.413Z" style="fill:#90927c;"/><path d="M142.074,50.174c-2.711,-5.321 -17.872,-22.791 -17.872,-22.791l18.475,29.318l-0,6.526l-34.539,-26.908l32.028,33.032c0,0 -28.112,-16.767 -36.848,-17.47c0,0 31.627,16.768 37.652,20.884l1.606,6.928c0,-0 -24.297,-13.956 -29.518,-16.767c-0,-0 23.996,17.972 28.313,21.285c4.318,3.313 0,6.125 0,6.125c0,-0 -21.988,-5.723 -30.321,-7.631c-0,0 27.811,10.342 31.727,12.751c3.916,2.41 -0.1,5.121 -0.1,5.121c-0,-0 -19.579,-1.807 -22.892,-1.908c-0,0 20.381,5.121 23.996,5.824l0.201,6.124c-0,0 -18.976,4.518 -20.683,5.02c-0,0 70.664,-0.09 72.973,-0.893c2.309,-0.803 -1.579,-38.612 -1.579,-38.612c-0,0 -49.908,-20.636 -52.619,-25.958Z" style="fill:#7b876f;"/></g></g></svg>