<?xml version="1.0" encoding="UTF-8" standalone="no"?><!DOCTYPE svg PUBLIC "-//W3C//DTD SVG 1.1//EN" "http://www.w3.org/Graphics/SVG/1.1/DTD/svg11.dtd"><svg width="100%" height="100%" viewBox="0 0 150 150" version="1.1" xmlns="http://www.w3.org/2000/svg" xmlns:xlink="http://www.w3.org/1999/xlink" xml:space="preserve" xmlns:serif="http://www.serif.com/" style="fill-rule:evenodd;clip-rule:evenodd;stroke-linejoin:round;stroke-miterlimit:2;"><path id="base" d="M150,75c0,-41.394 -33.606,-75 -75,-75c-41.394,0 -75,33.606 -75,75c0,41.394 33.606,75 75,75c41.394,0 75,-33.606 75,-75Z" style="fill:#4a6919;"/><path id="outline" d="M144,75c0,-38.082 -30.918,-69 -69,-69c-38.082,0 -69,30.918 -69,69c0,38.082 30.918,69 69,69c38.082,0 69,-30.918 69,-69Z" style="fill:#adff33;"/><path id="core" d="M141,75c0,-36.426 -29.574,-66 -66,-66c-36.426,0 -66,29.574 -66,66c0,36.426 29.574,66 66,66c36.426,0 66,-29.574 66,-66Z" style="fill:#80bc24;"/><clipPath id="_clip1"><path d="M141,75c0,-36.426 -29.574,-66 -66,-66c-36.426,0 -66,29.574 -66,66c0,36.426 29.574,66 66,66c36.426,0 66,-29.574 66,-66Z"/></clipPath><g clip-path="url(#_clip1)"><g id="watchers"><path d="M124.834,54.318c0.407,-0.044 1.598,-0.177 2.353,-0.31c0.922,-0.163 0.217,2.44 0.542,3.199c0.326,0.76 0.651,-1.084 0.76,-2.06c0.108,-0.976 0.488,-1.031 1.952,-0.814c1.464,0.217 0.976,-1.193 0.976,-1.193c-0,0 0.922,0.488 1.898,0.705c0.976,0.217 -1.356,-1.356 -1.573,-2.223c-0.217,-0.868 0.814,-1.031 1.573,-1.085c0.759,-0.054 1.193,1.844 1.952,2.386c0.76,0.543 0.814,-0.542 1.41,-0.813c0.597,-0.271 3.254,0.542 3.254,0.542c0,0 0.271,33.84 -0.325,34.219c-0.597,0.38 -2.224,0.868 -3.091,1.193c-0.868,0.326 -0.868,-0.759 -0.38,-0.976c0.488,-0.217 0.813,-0.922 -0.108,-1.355c-0.922,-0.434 -1.465,-1.573 -2.17,-1.627c-0.705,-0.055 -0.867,0.325 -2.332,1.139c-1.464,0.813 -4.013,0.542 -4.88,0.921c-0.868,0.38 -0.38,4.935 -0.38,6.345c0,1.41 1.356,4.881 2.115,6.725c0.759,1.844 -0.651,5.315 -1.301,5.911c-0.651,0.597 -0.217,7.213 -0.272,8.84c-0.054,1.626 0.272,4.175 0.272,4.175c-12.988,19.819 -29.448,26.963 -48.666,24.04c-0,-0 0.699,-8.881 0.639,-9.657c-0.059,-0.776 0.179,-3.939 0.239,-5.908c0.06,-1.97 0.895,-8.057 1.074,-10.624c0.179,-2.566 0.179,-3.401 0.418,-5.251c0.239,-1.851 -0.358,-5.193 -0.418,-7.103c-0.059,-1.909 0.776,-5.61 0.895,-7.519c0.12,-1.91 -0.477,-5.849 -0.716,-9.788c-0.238,-3.939 0.358,-7.818 0.955,-9.31c0.597,-1.492 5.252,-5.133 6.028,-5.789c0.776,-0.657 0.836,-1.075 1.313,-1.731c0.477,-0.657 2.148,-2.925 2.447,-3.641c0.298,-0.716 -1.611,-3.521 -2.208,-4.834c-0.597,-1.313 -0.299,-1.552 -0.776,-2.328c-0.478,-0.775 -1.134,-1.074 -1.612,-2.148c-0.477,-1.074 -0.537,-1.85 -0.537,-2.566c0,-0.717 0.179,-0.597 -0.537,-0.836c-0.716,-0.239 -3.879,-2.089 -5.073,-3.282c-1.193,-1.194 0.06,-2.626 1.134,-3.402c1.074,-0.776 5.491,-1.91 5.491,-1.91c-0,-0 -0.06,-2.745 0.597,-3.402c0.656,-0.656 4.058,-1.611 5.371,-1.552c1.313,0.06 4.118,0.299 4.715,0.179c0.597,-0.119 -0.239,-0.656 0.358,-1.074c0.597,-0.418 0.895,-0.537 1.253,-1.134c0.358,-0.597 0.266,-27.274 0.266,-27.274l22.143,16.846c0,-0 -0.271,5.911 0.055,6.67c0.325,0.759 0.65,-0.163 1.627,-0.542c0.345,-0.134 0.588,-0.262 0.802,-0.383c-0.016,0.761 0.208,1.812 0.523,1.952c0.483,0.215 0.859,-0.322 1.128,0.323c0.268,0.644 -0.161,3.383 0.429,3.275c0.591,-0.107 0.43,-0.375 0.43,-1.181c-0,-0.806 0.376,-2.631 -0.054,-3.007c-0.429,-0.376 -1.128,-0.161 -1.181,-0.806c-0.029,-0.343 -0.149,-0.748 -0.345,-1.026c0.114,-0.043 0.239,-0.084 0.383,-0.123c0.976,-0.271 11.605,17.028 11.605,17.028c-0,0 -2.332,-0.163 -3.525,-0.705c-1.193,-0.542 -2.657,-0.922 -3.362,-1.03c-0.705,-0.109 -3.742,0.542 -4.664,-0.272c-0.922,-0.813 -2.224,-1.518 -2.766,-1.193c-0.542,0.326 0.163,5.586 1.247,6.996c0.648,0.842 0.696,1.104 0.63,1.178c-0.09,0.01 -0.142,0.015 -0.142,0.015c0,0 0.097,0.035 0.142,-0.015Zm-112.292,45.125c-0,-0 -0.043,-5.78 0.17,-7.438c0.213,-1.658 1.063,-4.845 2.805,-7.013c1.743,-2.167 5.015,-5.015 6.418,-5.525c1.402,-0.51 1.87,-0.553 1.87,-2.21c-0,-1.658 0.212,-3.74 -0.893,-4.633c-1.105,-0.892 -2.21,-3.273 -2.422,-5.228c-0.213,-1.955 -0.085,-5.227 0.935,-7.352c1.02,-2.126 2.89,-3.231 4.42,-3.868c1.53,-0.638 4.59,-0.638 6.46,-0.298c1.87,0.34 4.973,2.381 5.653,4.166c0.68,1.785 0.893,6.587 0.68,8.202c-0.212,1.616 -0.51,2.253 -1.062,3.061c-0.553,0.807 -0.638,2.55 -1.19,3.527c-0.553,0.978 -2.041,1.615 -2.211,2.55c-0.17,0.935 -1.19,2.805 -0.807,3.315c0.382,0.51 1.7,1.318 2.465,1.998c0.765,0.68 2.083,1.87 2.763,2.125c0.68,0.255 3.527,1.318 4.08,2.465c0.552,1.148 1.487,3.74 1.87,5.27c0.382,1.531 0.977,4.166 1.402,5.526c0.425,1.36 1.488,3.655 1.743,5.142c0.255,1.488 1.02,4.208 0.17,5.016c-0.85,0.807 -1.828,0.595 -1.828,1.232c0,0.638 0.383,2.763 0.85,4.463c0.468,1.7 1.616,7.82 1.743,9.563c0.128,1.742 0.468,5.568 0.935,6.29c0.468,0.723 3.528,4.335 3.91,5.738c0.383,1.402 0.808,5.61 0.808,5.61c-14.158,-1.357 -28.166,-10.415 -41.737,-41.694Zm110.887,-41.436c0.27,-0 0.417,0.537 0.437,1.081c0.02,0.543 -0.088,1.094 -0.33,1.121c-0.483,0.053 -0.59,-2.202 -0.107,-2.202Zm7.142,-2.041c0.243,-0.02 0.39,0.235 0.404,0.495c0.013,0.26 -0.108,0.526 -0.404,0.526c-0.59,-0 -0.644,-0.967 0,-1.021Zm-1.074,-9.988c0.479,0.037 0.108,-0.967 -0.537,-1.289c-0.644,-0.322 -1.289,0.591 -0.859,0.966c0.43,0.376 0.698,0.269 1.396,0.323Zm-6.068,-0.86c0.322,0 0.577,-0.255 0.618,-0.496c0.04,-0.242 -0.135,-0.47 -0.672,-0.416c-1.074,0.107 -1.128,0.912 0.054,0.912Zm4.404,-2.524c0.789,-0.157 1.557,1.075 0.859,1.128c-0.698,0.054 -2.524,0 -1.826,-0.376c0.698,-0.376 0.429,-0.644 0.967,-0.752Zm-3.062,-1.181c0.306,0.016 0.481,-0.199 0.492,-0.424c0.01,-0.226 -0.142,-0.462 -0.492,-0.489c-0.698,-0.054 -1.02,0.859 0,0.913Z" style="fill:#29392c;"/><path d="M34.072,68.553c0.524,0.038 0.863,-0.453 0.903,-0.953c0.041,-0.5 -0.217,-1.009 -0.886,-1.006c-1.156,0.004 -1.186,1.876 -0.017,1.959Zm-6.087,0c-0.775,0.008 -1.062,-0.502 -1.011,-1.005c0.05,-0.503 0.437,-1.001 1.011,-0.972c1.25,0.065 1.305,1.965 -0,1.977Zm62.821,-15.395c0.961,0.059 1.506,0.761 1.543,1.455c0.038,0.694 -0.432,1.38 -1.502,1.408c-2.167,-0.321 -1.837,-2.758 -0.041,-2.863Zm6.309,2.842c1.049,0.077 1.657,-0.621 1.696,-1.347c0.04,-0.726 -0.49,-1.481 -1.716,-1.516c-1.862,0.27 -2.227,2.697 0.02,2.863Z" style="fill:#e6f8ea;"/></g></g></svg>