<?xml version="1.0" encoding="UTF-8" standalone="no"?><!DOCTYPE svg PUBLIC "-//W3C//DTD SVG 1.1//EN" "http://www.w3.org/Graphics/SVG/1.1/DTD/svg11.dtd"><svg width="100%" height="100%" viewBox="0 0 150 150" version="1.1" xmlns="http://www.w3.org/2000/svg" xmlns:xlink="http://www.w3.org/1999/xlink" xml:space="preserve" xmlns:serif="http://www.serif.com/" style="fill-rule:evenodd;clip-rule:evenodd;stroke-linejoin:round;stroke-miterlimit:2;"><path id="base" d="M150,75c0,-41.394 -33.606,-75 -75,-75c-41.394,0 -75,33.606 -75,75c0,41.394 33.606,75 75,75c41.394,0 75,-33.606 75,-75Z" style="fill:#daaf57;"/><path id="outline" d="M144,75c0,-38.082 -30.918,-69 -69,-69c-38.082,0 -69,30.918 -69,69c0,38.082 30.918,69 69,69c38.082,0 69,-30.918 69,-69Z" style="fill:#0b1324;"/><path id="core" d="M141,75c0,-36.426 -29.574,-66 -66,-66c-36.426,0 -66,29.574 -66,66c0,36.426 29.574,66 66,66c36.426,0 66,-29.574 66,-66Z" style="fill:#97c6ce;"/><clipPath id="_clip1"><path d="M141,75c0,-36.426 -29.574,-66 -66,-66c-36.426,0 -66,29.574 -66,66c0,36.426 29.574,66 66,66c36.426,0 66,-29.574 66,-66Z"/></clipPath><g clip-path="url(#_clip1)"><g id="brand"><path d="M46.884,135.629c0.08,-0.341 0.761,-3.428 1.062,-4.31c0.301,-0.882 2.566,-5.372 3.087,-5.954c0.521,-0.581 3.668,-3.808 4.23,-4.329c0.561,-0.522 3.247,-2.546 4.129,-3.047c0.882,-0.501 6.642,-7.525 6.642,-7.525l11.82,-3.42l4.871,14.553c0,-0 -9.212,6.755 -9.533,7.637c-0.32,0.882 -2.855,3.308 -3.196,3.769c-0.341,0.461 -2.505,2.826 -3.107,3.247c-0.601,0.421 -4.851,2.205 -5.192,2.245c0,0 -0.16,0.281 -1.002,0.943c-0.842,0.661 -1.303,1.262 -1.303,1.262c0,0 -12.589,-4.73 -12.508,-5.071Z" style="fill:#2a2118;"/><path d="M137.991,52.857c0.42,0.266 3.108,1.978 2.992,2.342c2.455,8.318 1.509,18.69 1.509,18.69c0,-0 -2.814,0.83 -3.425,1.61c-0.61,0.78 -1.661,2.527 -1.661,2.527c-0,-0 1.729,-1.204 2.967,-1.441c1.238,-0.238 0.508,1.644 0.508,1.644c0,0 -0.644,-0.932 -2.17,0.102c-1.526,1.034 -1.678,0.882 -1.56,1.645c0.119,0.763 0.78,0.898 0.051,1.882c-0.729,0.983 -0.932,1.22 -1.305,1.814c-0.373,0.593 -0.458,0.559 -0.916,1.085c-0.458,0.526 -1.814,1.831 -0.915,1.509c0.898,-0.322 2.221,-0.339 2.577,-0.967c0.356,-0.627 -0.017,-1.017 0.627,-2.187c0.644,-1.17 1.238,-1.526 2.086,-2.102c0.847,-0.577 1.203,-0.848 1.203,-0.848l0.933,5.121c-0,-0 -1.984,0.067 -2.255,0.339c-0.271,0.271 -0.967,0.695 -1.916,1.39c-0.95,0.695 -1.611,1.204 -2.509,1.882c-0.899,0.678 -0.696,0.746 -2.205,1.306c-1.509,0.559 -2.085,0.746 -2.967,1.102c-0.881,0.356 -0.356,0.525 -2.238,0.847c-1.882,0.322 -1.678,0.509 -2.713,0.255c-1.034,-0.255 -0.39,-0.662 -1.729,-0.746c-1.34,-0.085 -1.848,-0.119 -3.001,0.034c-1.153,0.152 -0.271,-0.238 -1.323,0.186c-1.051,0.424 -0.44,0.424 -1.695,0.305c-1.255,-0.118 -3.374,-0.458 -3.374,-0.458l-13.337,-6.265l-25.068,-19.631c0,-0 -15.424,1.424 -15.649,1.537c-0.224,0.112 -1.572,0.73 -2.19,1.029c-0.617,0.299 -1.104,0.393 -2.058,0.393c-0.955,0 -0.319,0.412 -0.992,0.468c-0.674,0.056 -1.404,0.037 -1.928,-0.056c-0.524,-0.094 -1.179,-0.73 -1.853,-0.711c-0.674,0.018 -0.824,-0.038 -1.685,-0.057c-0.861,-0.018 -0.861,-0.299 -1.927,-0.224c-1.067,0.075 -1.591,0.486 -1.517,0.243c0.075,-0.243 -1.422,-1.722 -1.31,-2.377c0.113,-0.655 0.936,-1.123 0.712,-1.797c-0.225,-0.673 0.374,-1.16 -0.15,-1.703c-0.524,-0.543 -1.891,-2.396 -2.171,-2.77c-0.281,-0.374 -0.487,-0.917 -1.011,-0.337c-0.524,0.58 -0.693,0.58 -1.348,1.161c-0.655,0.58 -0.599,0.262 -0.992,0.992c-0.393,0.73 -0.449,1.31 -1.085,1.722c-0.637,0.411 -0.955,0.804 -0.824,0.299c0.131,-0.505 -0.486,-1.535 -0.636,-1.31c-0.15,0.224 -2.265,2.171 -2.714,2.751c-0.449,0.58 -1.067,0.861 -1.591,1.292c-0.524,0.43 -0.168,0.374 -0.917,0.617c-0.749,0.244 -1.497,0.094 -1.928,0.711c-0.43,0.618 -0.879,1.217 -1.703,2.434c-0.824,1.216 -0.599,1.16 -1.011,1.89c-0.411,0.73 -0.992,1.16 -1.235,1.741c-0.243,0.58 -0.131,1.385 -0.749,2.601c-0.617,1.217 -0.692,0.88 -0.786,1.629c-0.093,0.748 -0.206,1.647 -0.224,1.871c-0.019,0.225 -0.356,1.179 -0.749,1.572c-0.393,0.394 -1.142,0.693 -2.134,1.46c-0.992,0.768 -1.553,1.591 -1.703,1.778c-0.15,0.188 -1.123,1.011 -1.479,1.292c-0.355,0.281 -0.767,0.786 -1.459,1.273c-0.693,0.486 -0.487,0.318 -1.311,0.767c-0.823,0.449 -0.655,0.206 -1.216,0.936c-0.562,0.73 -0.637,1.553 -1.498,2.246c-0.86,0.692 -1.553,1.16 -1.553,1.16c-6.684,-11.58 -8.746,-23.836 0.019,-37.676c-0,-0 2.994,-2.415 3.874,-2.527c0.88,-0.112 0.618,-0.019 2.152,-0.58c1.535,-0.562 1.105,-0.337 3.22,-0.768c2.115,-0.43 2.994,-0.393 3.818,-0.748c0.823,-0.356 1.666,-0.674 1.703,-1.554c0.038,-0.879 -1.104,-1.347 -1.254,-2.133c-0.15,-0.787 1.03,-3.033 1.497,-3.407c0.468,-0.374 0.487,-0.206 1.741,-0.786c1.254,-0.58 1.404,-0.299 2.227,-1.029c0.824,-0.73 1.049,-1.984 1.516,-2.19c0.468,-0.206 1.142,-0.899 1.835,-1.086c0.692,-0.187 1.366,-0.131 2.115,-0.093c0.748,0.037 2.564,-0.057 2.863,0.037c0.3,0.094 2.396,1.048 2.621,1.254c0.224,0.206 1.684,1.497 2.302,2.134c0.617,0.636 0.861,1.366 1.591,1.871c0.73,0.506 0.636,0.524 1.609,0.73c0.974,0.206 1.966,-0.018 1.966,-0.018c-0,-0 -0.375,0.318 -0.094,0.692c0.281,0.375 0.599,0.655 1.086,0.805c0.486,0.15 1.16,0.318 1.16,0.318c-0,0 -0.449,0.318 -0.674,0.618c-0.224,0.299 -0.449,0.58 -0.355,0.992c0.093,0.412 0.636,0.412 1.254,0.019c0.617,-0.394 1.422,-0.73 1.721,-0.861c0.3,-0.131 2.34,-0.244 3.107,-0.581c0.768,-0.337 1.217,0 1.217,0c-0,0 -0.73,0.412 -0.636,0.637c0.093,0.224 0.636,0.206 1.048,-0.019c0.412,-0.225 0.486,-0.618 0.748,-0.599c0.262,0.019 0.188,0.412 0.431,0.693c0.243,0.28 0.711,0.617 0.599,1.179c-0.112,0.561 -0.487,1.01 -0.693,1.347c-0.206,0.337 -0.936,1.348 -1.216,1.61c-0.281,0.262 -1.086,0.505 -1.348,0.692c-0.262,0.188 -0.861,0.581 -1.16,0.918c-0.3,0.336 -0.281,0.617 -0.281,0.842c-0,0.224 3.687,4.904 3.687,4.904l23.901,-4.549c0,0 0.412,-1.254 0.768,-1.59c0.355,-0.337 0.486,-0.487 0.954,-0.618c0.468,-0.131 1.048,0.075 1.03,-0.805c-0.019,-0.88 -0.337,-1.385 -0.15,-1.666c0.187,-0.28 0.655,0.187 0.786,0.431c0.131,0.243 0.262,0.636 0.674,0.674c0.412,0.037 1.048,-0.487 1.179,-0.749c0.131,-0.262 1.198,-1.179 1.198,-1.179l-1.048,-1.011c-0,0 -0.412,-0.917 -0.637,-1.815c-0.224,-0.899 -0.131,-1.011 -0.505,-2.059c-0.374,-1.048 -0.505,-1.273 -0.88,-1.741c-0.374,-0.468 -0.767,-1.591 -0.861,-1.965c-0.093,-0.375 -0.43,-1.142 -0.43,-1.142c-0,0 0.954,0.15 1.029,0.449c0.075,0.3 -0.075,0.693 0.094,0.974c0.168,0.28 1.048,0.449 1.291,0.711c0.244,0.262 0.562,0.561 0.356,0.936c-0.206,0.374 -0.412,0.748 -0.243,0.973c0.168,0.224 1.197,0.093 1.254,-0.58c0.056,-0.674 0.467,-1.591 0.037,-2.228c-0.43,-0.636 -0.487,-1.048 -1.46,-1.366c-0.973,-0.318 -0.898,-0.15 -1.404,-0.561c-0.505,-0.412 -0.73,-0.843 -0.73,-0.843c0,0 -0.393,0.206 -0.617,0.319c-0.225,0.112 -0.618,-0.057 -0.805,-0.712c-0.187,-0.655 -0.281,-1.609 -0.449,-2.171c-0.169,-0.561 -0.449,-1.029 -0.487,-1.366c-0.037,-0.337 -0.075,-0.58 -0.075,-0.58c0,-0 0.487,1.179 0.786,1.628c0.3,0.449 0.936,0.917 0.936,0.917c0,0 -0.037,-1.048 0.206,-1.029c0.243,0.018 0.749,0.711 1.048,0.599c0.3,-0.113 0.468,-0.805 0.225,-1.348c-0.244,-0.543 -0.468,-1.404 -0.393,-1.965c0.075,-0.562 0.355,-0.318 -0.019,-1.011c-0.374,-0.692 -0.655,-1.029 -0.655,-1.029c-0,-0 -0.075,1.123 -0,1.759c0.075,0.636 0.73,1.46 0.056,0.936c-0.674,-0.524 -0.599,-0.861 -1.067,-1.516c-0.468,-0.655 -0.543,-1.273 -1.254,-1.629c-0.711,-0.355 -1.853,-1.123 -2.658,-1.459c-0.804,-0.337 -3.612,-1.573 -3.799,-1.46c-0.187,0.112 -0.711,0.28 -0.299,0.655c0.411,0.374 0.505,0.037 0.617,0.636c0.112,0.599 -0.131,0.917 0.337,1.254c0.468,0.337 0.337,0.992 0.674,0.861c0.337,-0.131 0.337,-0.674 1.273,-0.449c0.935,0.225 1.403,0.15 1.516,0.786c0.112,0.636 0.299,1.198 0.599,1.722c0.299,0.524 0.318,1.029 0.318,1.029c-0,0 -0.524,0.169 -0.73,0.019c-0.206,-0.15 -0.58,-0.805 -0.899,-1.497c-0.318,-0.693 -0.037,-1.179 -0.692,-1.067c-0.655,0.112 -1.217,-0.374 -1.479,0.355c-0.262,0.73 -0.299,0.637 -0.056,1.685c0.243,1.048 -0.112,1.422 0.019,2.04c0.131,0.618 0.524,1.554 0.524,1.554c-0,-0 -0.955,-0.281 -1.086,-0.468c-0.131,-0.187 -0.617,-1.61 -1.029,-2.19c-0.412,-0.58 -0.955,-0.88 -1.31,-0.543c-0.356,0.337 -0.543,0.786 -0.637,1.572c-0.093,0.786 0.356,0.842 0.206,1.254c-0.149,0.412 -0.636,0.711 -0.449,1.086c0.187,0.374 1.722,0.168 1.89,0.337c0.169,0.168 -0.505,1.778 -0.711,2.059c-0.206,0.28 -0.823,1.534 -1.478,1.684c-0.655,0.15 -0.712,-0.318 -1.348,-0.674c-0.636,-0.355 -0.393,-0.692 -1.778,-0.898c-1.385,-0.206 -2.283,-1.235 -2.826,-1.366c-0.543,-0.131 -0.768,-0.637 -0.506,-0.599c0.262,0.037 0.468,0.168 1.049,0.374c0.58,0.206 1.852,0.674 1.347,0.019c-0.505,-0.655 -0.861,-1.442 -1.46,-1.442c-0.599,0 -0.692,0.356 -1.048,-0.205c-0.356,-0.562 -0.936,-1.741 -1.085,-1.984c-0.15,-0.244 -1.18,-1.03 -1.385,-1.105c-0.206,-0.075 -1.217,-0.973 -1.704,-0.898c-0.486,0.075 -0.692,-0.131 -0.692,-0.131c-0,-0 0.449,-1.011 0.374,-1.217c-0.075,-0.206 -0.412,-0.917 -0.898,-0.879c-0.487,0.037 -1.011,-0.581 -1.105,-0.056c-0.093,0.524 0.206,1.179 0.206,1.179c0,-0 -0.449,-0.356 -1.01,-0.805c-0.562,-0.449 -2.527,-1.965 -3.557,-2.733c-1.029,-0.767 -2.433,-2.264 -2.433,-2.264c0,-0 3.032,1.965 3.519,2.283c0.487,0.318 1.329,0.674 1.685,0.823c0.355,0.15 0.561,0 0.262,-0.542c-0.3,-0.543 -0.337,-0.356 -0.319,-0.955c0.019,-0.599 0.3,-0.636 -0.018,-1.441c-0.319,-0.805 0.037,-0.505 -0.599,-1.217c-0.637,-0.711 -1.142,-1.478 -1.142,-1.478c0,-0 -2.19,-2.752 -2.283,-2.92c-0.094,-0.168 1.216,1.254 1.029,0.618c-0.187,-0.637 0.412,-0.393 0.842,-0.057c0.431,0.337 1.179,1.086 1.816,1.591c0.636,0.506 1.141,0.599 1.666,1.067c0.524,0.468 1.31,0.936 1.553,1.31c0.243,0.375 0.393,0.768 0.674,1.329c0.281,0.562 0.599,0.974 0.636,1.236c0.038,0.262 0.375,0.748 0.655,1.197c0.281,0.45 0.58,0.581 1.198,0.787c0.618,0.205 0.936,-0.113 1.591,-0.094c0.655,0.019 1.217,-0.318 2.19,-0c0.973,0.318 2.021,0.561 2.339,0.73c0.319,0.168 0.992,0.505 0.992,0.505c0,0 0.038,-1.179 -0.299,-1.628c-0.337,-0.449 -0.187,-0.543 -0.187,-0.543c-0,0 1.085,0.674 1.235,0.786c0.15,0.113 0.056,-0.374 0.318,-0.449c0.262,-0.075 1.254,0 1.254,0c0,0 0.337,-0.505 -0.411,-1.235c-0.749,-0.73 -1.648,-2.471 0.374,-2.078c2.021,0.393 3.874,0.543 4.211,0.768c0.337,0.224 0.431,0.243 0.431,0.243l0.617,-0.356c0,0 1.011,0.113 1.217,0.038c0.206,-0.075 0.524,-0.056 0.973,0.075c0.449,0.131 1.048,0.467 0.693,-0.094c-0.356,-0.562 -0.038,-2.059 -1.18,-2.62c-1.141,-0.562 -1.123,-0.412 -1.141,-0.562c-0.019,-0.15 1.609,0.15 2.077,0.917c0.468,0.768 0.356,0.955 0.824,1.666c0.468,0.711 0.786,2.265 1.347,2.826c0.562,0.562 1.18,1.123 1.479,1.161c0.26,0.032 0.929,-0.528 0.721,-0.933c-0.096,-0.106 -0.159,-0.172 -0.159,-0.172c0.076,0.052 0.128,0.11 0.159,0.172c0.292,0.319 0.884,1.002 0.926,1.326c0.056,0.43 0.243,0.692 0.393,1.179c0.15,0.487 -0.393,0.73 0.505,0.898c0.899,0.169 1.011,0.262 1.292,0.337c0.281,0.075 1.104,0 0.505,-1.011c-0.599,-1.01 -1.104,-1.347 -1.441,-1.796c-0.337,-0.45 -0.449,-1.123 -0.449,-1.123c-0,-0 0.88,0.879 1.254,1.104c0.374,0.225 0.318,-0.281 0.636,0.131c0.318,0.412 0.58,0.693 0.768,0.973c0.187,0.281 0.935,1.011 0.973,1.46c0.037,0.449 0.674,1.554 0.73,1.741c0.056,0.187 0.299,-0.768 0.281,-1.254c-0.019,-0.487 -0.019,-0.955 -0.057,-1.498c-0.037,-0.542 -0.056,-0.748 -0.056,-0.748c0,-0 0.375,0.655 0.73,0.973c0.356,0.318 1.011,0.168 1.011,0.168c-0,0 -0.037,-0.917 -0.262,-1.235c-0.225,-0.318 -0.524,-0.842 -0.356,-0.674c0.169,0.169 0.768,0.618 1.048,1.161c0.281,0.543 1.329,0.187 1.292,-0.112c-0.038,-0.3 0.187,-0.506 0.037,-0.749c-0.149,-0.243 -0.655,-1.067 -0.767,-1.441c-0.112,-0.375 -0.131,-1.198 -0.131,-1.198c-0,-0 0.73,0.73 0.861,0.936c0.131,0.206 0.337,0.861 0.393,1.085c0.056,0.225 0.655,0.393 0.936,0.655c0.281,0.262 0.374,0.318 0.898,0.562c0.524,0.243 0.805,0.168 1.086,0.599c0.28,0.43 0.206,0.936 0.393,1.347c0.187,0.412 0.281,0.843 0.412,1.086c0.131,0.243 0.318,0.468 0.43,0.936c0.112,0.468 -0.187,0.655 0.225,1.048c0.411,0.393 0.636,0.131 1.066,0.618c0.431,0.486 0.824,0.43 0.88,0.729c0.056,0.3 1.516,1.76 2.04,2.059c0.524,0.3 0.768,0.3 0.861,0.58c0.094,0.281 0.206,0.674 0.281,1.348c0.075,0.674 0.262,1.086 0.487,1.104c0.224,0.019 0.336,0.375 0.037,0.618c-0.299,0.243 -0.861,1.291 -1.291,1.778c-0.431,0.487 -0.468,0.318 -0.712,0.973c-0.243,0.655 -0.187,1.666 -2.189,2.49c-2.003,0.823 -4.324,11.529 -4.399,12.053c-0.075,0.524 0.337,1.366 1.31,1.198c0.974,-0.168 1.273,-0.711 1.834,-0.599c0.562,0.112 0.431,0.562 0.057,0.861c-0.375,0.3 -1.46,0.019 -0.768,0.599c0.693,0.58 1.086,0.58 1.46,0.599c0.374,0.019 -0.243,0.599 0.393,0.374c0.637,-0.224 0.805,-0.767 1.46,-0.842c0.655,-0.075 0.636,0 1.46,-0.15c0.824,-0.149 0.973,0.244 0,0.562c-0.973,0.318 -1.759,0.543 -2.021,0.861c-0.262,0.318 -0.786,0.224 -0.075,0.561c0.711,0.337 1.01,0.225 1.31,0.58c0.299,0.356 0.561,0.094 0.543,0.581c-0.019,0.486 -0.056,0.468 -0.056,0.748c-0,0.144 0.034,0.421 0.068,0.657c0.474,0.311 1.158,0.7 1.675,0.811c0.688,0.147 1.4,-0.123 1.94,-0.245c0.54,-0.123 0.589,-0.221 0.932,-0.172c0.344,0.049 0.148,0.491 -0.221,0.687c-0.368,0.196 -0.54,0.123 -0.859,0.491c-0.319,0.368 0.049,0.295 -0.147,0.736c-0.196,0.442 -0.245,1.277 -0.245,1.277c-0,-0 -2.091,-2.25 -3.035,-3.318c0.013,0.087 0.023,0.143 0.023,0.143l4.828,20.682l11.268,0.468c-0,-0 -1.03,-5.765 -0.599,-6.57c0.43,-0.804 1.067,-1.89 0.262,-2.133c-0.805,-0.244 -1.217,0.561 -1.703,0.879c-0.487,0.319 -0.131,0.543 -0.412,0.562c-0.281,0.019 0.15,-0.992 0.43,-1.254c0.281,-0.262 0.805,-0.112 0.974,-0.674c0.168,-0.561 -0.075,-1.591 0.43,-2.489c0.506,-0.899 1.03,-1.105 1.909,-1.198c0.88,-0.094 1.891,-0.225 2.433,0.318c0.543,0.543 0.562,0.786 0.562,0.786c-0,0 -1.348,0.075 -1.722,0.15c-0.374,0.075 -0.487,-0.262 -1.123,0.356c-0.636,0.617 -1.179,0.655 -0.917,1.385c0.262,0.73 0.075,1.048 0.318,1.01c0.243,-0.037 0.898,-0.355 1.348,-0.823c0.449,-0.468 0.954,-1.086 1.31,-1.161c0.355,-0.075 0.954,-0.056 0.43,0.487c-0.524,0.543 -0.973,0.861 -1.291,1.441c-0.318,0.58 -0.711,0.786 -0.693,1.292c0.019,0.505 0.057,1.01 -0.075,1.366c-0.131,0.355 -0.299,1.329 -0.449,1.703c-0.149,0.374 -0.374,1.31 0.3,0.749c0.674,-0.562 0.524,-0.674 1.272,-1.535c0.749,-0.861 0.955,-0.711 1.498,-1.853c0.543,-1.142 1.198,-1.366 0.711,-2.227c-0.487,-0.861 -0.73,-1.367 -0.805,-1.703c-0.075,-0.337 0.281,-0.861 1.123,-1.554c0.842,-0.692 1.179,-1.273 1.46,-1.104c0.281,0.168 0.636,0.954 0.094,1.404c-0.543,0.449 -1.217,0.561 -1.254,1.01c-0.038,0.449 0.524,1.834 0.524,2.134c-0,0.299 0.936,-0.112 1.516,-0.112c0.58,-0 1.329,0.318 1.647,-0.225c0.318,-0.543 0.243,-1.291 -0.187,-1.946c-0.431,-0.656 -0.655,-1.067 -0.674,-1.535c-0.019,-0.468 -0.281,-0.618 0.131,-1.161c0.412,-0.542 0.823,-1.853 1.198,-2.358c0.374,-0.505 0.524,-0.281 0.505,-0.973c-0.019,-0.693 -0.374,-0.637 -0.075,-1.198c0.3,-0.562 1.011,-1.142 0.992,-1.366c-0.018,-0.225 -0.748,0.037 -0.224,-0.787c0.524,-0.823 0.692,-1.01 0.842,-1.123c0.15,-0.112 1.142,-0.598 1.216,-0.449c0.075,0.15 -0.879,0.599 -0.898,1.161c-0.019,0.561 0.487,0.337 0.505,0.692c0.019,0.356 -0.056,0.618 -0.336,0.917c-0.281,0.3 -0.038,1.367 0.187,1.479c0.224,0.112 0.879,-0.112 0.992,0.15c0.112,0.262 0.449,0.075 0.823,-0.655c0.375,-0.73 1.011,-2.04 0.749,-2.49c-0.262,-0.449 -0.505,-0.748 -0.318,-1.048c0.187,-0.299 0.842,-1.666 1.179,-2.321c0.337,-0.655 0.561,-1.141 0.73,-1.665c0.168,-0.525 0.543,-1.984 0.543,-1.984c-0,-0 -0.543,0.917 -0.805,1.216c-0.262,0.3 -0.393,0.131 -0.693,0.618c-0.299,0.486 -0.636,0.917 -1.029,1.553c-0.393,0.637 -0.449,1.011 -0.899,1.142c-0.449,0.131 -0.692,0.543 -0.561,-0.393c0.131,-0.936 0.468,-1.759 0.412,-2.209c-0.056,-0.449 0.448,-0.828 0.073,-1.053c-0.374,-0.224 -1.571,-0.088 -1.458,-0.837c0.112,-0.749 0.58,-2.265 1.216,-2.62c0,-0 0.318,0.842 0.3,1.329c-0.019,0.486 -0.674,1.31 -0,1.403c0.674,0.094 0.711,0.318 1.104,-0.224c0.393,-0.543 0.468,-1.46 0.936,-1.909c0.468,-0.45 1.273,-0.974 1.273,-0.974c-0,0 -0.393,0.618 -0.393,0.917c-0,0.3 0.43,-0.056 0.58,-0.486c0.019,-0.057 0.039,-0.115 0.058,-0.175c0.095,-1.111 0.529,-1.883 0.914,-2.561c-0.036,-0.022 -0.055,-0.034 -0.055,-0.034c-0,-0 -0.208,-1.248 -0.559,-2c-1.091,-0.213 -2.219,-1.435 -2.267,-1.482c-0.45,-0.43 -1.46,-0.393 -1.385,-1.029c0.074,-0.636 0.767,-0.692 0.374,-1.142c-0.393,-0.449 -1.235,-1.123 -1.666,-0.842c-0.43,0.281 -0.486,0.861 -0.861,0.992c-0.374,0.131 -0.823,0.094 -1.572,0.73c-0.749,0.636 -1.46,0.936 -1.947,1.722c-0.486,0.786 -1.497,1.61 -0.486,1.385c1.011,-0.225 0.599,1.104 1.029,0.487c0.431,-0.618 1.254,-1.647 1.685,-2.059c0.43,-0.412 0.692,0.187 0.187,1.067c-0.505,0.879 0.168,0.954 -0.88,1.403c-1.048,0.45 -0.879,1.18 -1.722,0.786c-0.842,-0.393 -0.823,-0.823 -1.553,-0.393c-0.73,0.431 -2.321,0.319 -2.92,0.899c-0.599,0.58 -0.43,1.478 0.599,1.422c1.029,-0.056 2.096,-0.599 1.759,0.131c-0.337,0.73 -1.067,1.105 -1.815,1.067c-0.749,-0.037 -2.022,0.131 -2.284,0.019c-0.262,-0.112 -0.505,-0.225 -1.328,-0.243c-0.824,-0.019 -1.554,0.112 -1.779,0.486c-0.224,0.375 0.618,0.337 -1.029,0.842c-1.647,0.506 -1.441,0.337 -1.965,0.824c-0.524,0.487 -1.703,1.591 -1.703,1.591c-0,-0 -0.019,-1.104 0.542,-1.759c0.562,-0.656 1.254,-1.423 0.674,-1.423c-0.58,0 -0.674,0.056 -1.366,0.075c-0.693,0.019 -0.955,0.524 -1.46,0.112c-0.505,-0.412 -0.374,0.094 -0.225,0.449c0.15,0.356 0.786,0.656 0.543,0.787c-0.243,0.131 -0.692,0.767 -1.329,0.093c-0.636,-0.674 -1.404,-1.385 -1.497,-1.853c-0.094,-0.468 0.524,-0.861 0.187,-1.273c-0.337,-0.411 -1.085,-1.123 -1.142,-1.853c-0.056,-0.729 0.412,-1.478 0.15,-1.965c-0.262,-0.486 -0.823,-1.535 -1.085,-1.871c-0.263,-0.337 -0.525,-1.591 -0.525,-2.097c0,-0.505 0.618,-2.208 0.562,-2.863c-0.056,-0.655 -0.15,-1.479 0.056,-2.602c0.206,-1.123 1.385,-4.511 1.591,-4.96c0.206,-0.449 0.955,-1.984 1.441,-2.901c0.467,-0.879 1.259,-2.634 1.852,-3.174c0.048,-0.041 0.076,-0.064 0.076,-0.064c-0.025,0.019 -0.05,0.04 -0.076,0.064c-0.217,0.179 -0.854,0.701 -1.328,1.022c-0.58,0.393 -0.973,0.149 -1.478,0.786c-0.506,0.636 -1.142,1.815 -1.423,2.47c-0.281,0.655 -0.524,1.629 -0.748,1.254c-0.225,-0.374 -0.431,-0.748 -0.281,-1.853c0.15,-1.104 0.43,-1.834 0.898,-2.62c0.468,-0.786 0.468,-1.366 0.899,-1.347c0.43,0.018 1.422,0.056 1.74,-0.356c0.318,-0.412 0.693,-1.703 0.73,-2.134c0.038,-0.43 0.412,-0.767 1.086,-1.366c0.674,-0.599 0.879,-0.374 1.553,-1.273c0.674,-0.898 0.674,-0.898 1.048,-1.478c0.375,-0.581 0.936,-0.974 0.936,-0.974l3.837,3.556c0,0 -0.767,0.637 -0.936,0.805c-0.168,0.169 -1.235,0.73 -1.628,1.086c-0.393,0.355 -0.636,0.954 -0.955,1.441c-0.318,0.487 -0.393,0.487 -0.917,1.179c-0.524,0.693 -0.561,0.58 -0.767,1.198c-0.206,0.618 -0.187,2.04 -0.337,2.602c-0.15,0.561 -0,0.58 -0.3,1.141c-0.299,0.562 0.113,0.73 -0.411,1.161c-0.524,0.43 -1.217,0.879 -1.441,1.085c-0.225,0.206 -0.225,0.075 -0.356,0.936c-0.131,0.861 -0.468,1.273 -0.562,1.872c-0.093,0.599 -0.486,1.16 -0.355,1.46c0.131,0.299 0.954,0.449 0.786,1.141c-0.169,0.693 0.168,0.955 -0.094,1.516c-0.262,0.562 -0.954,1.161 -0.823,1.966c0.131,0.805 0.505,2.059 0.636,2.751c0.131,0.693 -0.15,1.366 0.056,1.947c0.206,0.58 0.15,1.553 1.048,0.58c0.899,-0.973 2.172,-1.498 2.471,-1.722c0.299,-0.225 0.58,-0.3 0.075,-0.992c-0.505,-0.693 -1.217,-1.104 -1.067,-2.021c0.15,-0.918 -0.019,-1.086 0.58,-1.928c0.599,-0.843 1.46,-1.329 1.647,-2.04c0.187,-0.712 0.375,-2.153 0.375,-2.153c-0,0 2.826,1.142 2.788,1.816c-0.037,0.673 -0.935,1.067 -1.347,1.591c-0.412,0.524 0.393,0.748 -0.15,1.197c-0.543,0.45 -0.805,-0.168 -1.067,-0.205c-0.262,-0.038 -0.917,-0.075 -1.235,0.73c-0.318,0.804 -0.206,1.89 -0.112,2.377c0.093,0.486 0.187,1.01 0.561,0.542c0.374,-0.468 1.497,-1.497 2.134,-2.096c0.636,-0.599 1.123,-1.104 1.385,-1.291c0.262,-0.188 0.936,-0.487 0.936,-0.487c-0,-0 -0.487,0.636 -0.337,0.973c0.15,0.337 0.468,0.768 0.842,0.412c0.374,-0.356 0.861,-0.898 1.104,-1.104c0.244,-0.206 0.337,-0.094 1.385,-0.468c1.049,-0.375 2.789,-0.637 3.201,-0.936c0.412,-0.299 0.299,-0.749 0.056,-0.599c-0.243,0.15 -0.599,0.206 -0.262,-0.225c0.337,-0.43 0.168,-0.804 0.992,-0.935c0.824,-0.131 2.078,-0.094 2.733,-0.337c0.655,-0.244 1.909,-0.674 1.909,-0.674c-0,-0 -0.056,0.973 -0.3,1.085c-0.243,0.113 -1.628,0.674 -1.815,0.899c-0.187,0.224 -1.142,0.505 -0.711,0.898c0.43,0.393 0.823,0.393 1.366,0.206c0.543,-0.187 0.655,-0.468 1.291,-0.393c0.637,0.075 1.313,0.618 1.498,0.674c0.108,0.032 3.094,1.699 3.203,4.435c0.45,0.338 -0.659,0.927 -0.134,1.086c0.169,0.051 0.32,0.264 0.452,0.546c0.413,0.081 0.822,0.017 1.164,-0.312c0.271,0.91 -0.108,1.567 -0.55,2.346Zm-6.42,22.02c0,0 0.323,-0.376 0.448,-1.325c0.125,-0.949 -0.34,-0.877 0.197,-1.468c0.537,-0.591 2.059,-1.559 2.507,-1.791c0.448,-0.233 0.555,0.053 0.358,0.483c-0.197,0.43 -0.34,0.842 -0.752,1.29c-0.412,0.447 -0.645,0.555 -1.11,1.092c-0.466,0.537 -1.415,1.469 -1.648,1.719Zm-0.483,-3.098c-0.217,0.075 -0.305,-1.289 -0.179,-1.63c0.125,-0.34 0.841,-1.289 1.056,-0.841c0.215,0.447 0.448,0.591 0.215,1.092c-0.233,0.502 -0.68,1.236 -1.092,1.379Zm-3.468,-23.369c0,0 -1.813,1.813 -2.081,1.937c-0.267,0.124 -0.432,-0.721 0.124,-1.216c0.556,-0.494 1.36,-0.576 1.957,-0.721Zm-17.8,-4.388c0.062,-0.556 -0.083,-0.886 -0,-1.319c0.082,-0.432 0.391,-1.462 0.494,-0.927c0.103,0.536 0.495,1.051 0.474,1.669c-0.021,0.618 -0.35,0.968 -0.371,1.793c-0.02,0.824 -0.185,2.019 0.021,2.472c0.206,0.453 -0.392,0.371 -0.495,0.062c-0.103,-0.309 -0.412,-1.607 -0.391,-2.122c0.021,-0.515 0.206,-1.072 0.268,-1.628Zm-3.856,-1.827c-0.22,0.078 -0.474,0.219 -0.802,0.62c-0.328,0.401 -0.584,0.674 -0.839,0.893c-0.255,0.218 -0.455,0.546 -0.455,0.546c-0,0 1.312,-0.054 1.512,-0.309c0.201,-0.256 0.839,-1.841 0.584,-1.75Zm6.225,-7.588c0,-0 -1.154,1.05 -1.318,1.524c-0.165,0.474 -0.907,1.855 -0.928,2.431c-0.02,0.577 0.062,0.845 0.206,0.577c0.145,-0.268 0.928,-1.421 1.237,-1.772c0.309,-0.35 0.803,-1.38 0.885,-1.689c0.083,-0.309 -0.082,-1.071 -0.082,-1.071Zm-21.179,-8.145c-0.045,-0.27 -0.56,-1.022 -0.837,-1.041c-0.299,-0.02 -0.299,-0.299 -0.299,-0.538c0,-0.239 -0.359,-0.598 -0.359,-0.598c1.359,0.339 1.483,1.866 1.495,2.177c0.003,0.022 0.004,0.041 0.001,0.056c-0,0 -0,-0.02 -0.001,-0.056Zm-16.41,-3.075c-0.578,-0.239 -1.476,-0.319 -1.735,-0.837c-0.259,-0.519 -1.017,-1.635 -1.176,-1.894c-0.16,-0.26 0.777,0.099 1.176,0.418c0.399,0.319 0.479,0.619 0.838,1.037c0.359,0.419 1.176,1.057 1.176,1.057c0,0 0.299,0.459 -0.279,0.219Z" style="fill:#d57c38;"/><path d="M87.714,47.976c0.016,-0.3 0.111,-1.672 0.177,-2.054c0.067,-0.382 1.796,-3.639 2.012,-3.889c0.216,-0.249 2.004,-0.329 2.618,-0.445c0.615,-0.116 2.965,-0.096 3.563,0.169c0.598,0.266 2.333,1.21 2.781,1.641c0.449,0.432 1.644,1.445 1.943,2.043c0.299,0.598 0.963,2.026 0.963,2.408c0,0.382 -0.265,1.096 -0.265,1.279c-0,0.182 -0.2,2.624 -0.2,2.624c0,-0 -0.614,0.548 -0.763,0.747c-0.15,0.199 -0.133,1.196 -0.316,1.345c-0.183,0.149 -0.897,0.448 -1.03,0.681c-0.132,0.232 -1.029,1.461 -1.079,1.793c-0.05,0.333 -0.066,0.648 -0.299,0.914c-0.232,0.266 -0.332,0.598 -0.399,1.129c-0.066,0.532 0.013,2.808 0.312,3.073c0.299,0.266 5.806,3.205 6.271,3.703c0.465,0.498 1.97,2.009 2.286,2.242c0.315,0.232 1.61,2.142 1.876,2.707c0.266,0.564 1.362,3.537 1.461,4.201c0.1,0.664 0.416,1.893 0.349,2.375c-0.066,0.481 -0.481,1.461 -0.498,1.893c-0.017,0.432 0.814,1.81 0.88,2.508c0.067,0.697 0.233,3.005 0.233,3.005c-0,0 0.963,0.266 1.395,0.416c0.431,0.149 2.009,0.797 2.009,0.797l4.351,0.232l-0.103,-4.225c-0,-0 1.957,-2.88 2.41,-2.33c1.433,1.737 -1.49,2.862 0.268,4.242c-0,0 5.521,-1.7 7.791,1.115c3.416,4.235 0.135,7.973 -3.781,6.95c-0.251,-0.146 -2.401,-0.396 -3.737,-0.073c-1.177,0.284 -1.056,-0.076 -1.316,-0.017c-4.972,1.113 -4.372,0.856 -5.169,1.055c-0.797,0.199 -2.84,0.681 -2.84,0.681l-26.056,-5.564c0,0 0.648,-0.697 0.648,-0.979c-0,-0.283 0.282,-0.997 0.432,-1.229c0.149,-0.233 0.664,-1.013 0.913,-1.312c0.249,-0.299 0.548,-0.299 0.532,-0.781c-0.017,-0.481 -0.399,-0.747 -0.698,-1.328c-0.299,-0.582 -0.349,-1.146 -0.731,-1.528c-0.382,-0.382 -0.531,-0.598 -1.079,-0.747c-0.548,-0.15 -1.495,-0.449 -1.76,-0.665c-0.266,-0.216 -1.412,-0.83 -1.661,-1.029c-0.249,-0.2 -0.83,-0.648 -1.08,-0.731c-0.249,-0.083 -0.78,-0.05 -1.145,-0.299c-0.366,-0.249 -1.993,-1.76 -2.392,-2.109c-0.398,-0.349 -1.494,-1.926 -1.744,-2.225c-0.249,-0.299 -1.411,-1.678 -1.743,-2.06c-0.332,-0.382 -1.312,-1.727 -1.312,-1.727c-0,0 -0.947,0 -1.179,0.017c-0.233,0.016 -2.176,0.548 -2.707,0.548c-0.532,-0 -2.873,0.033 -3.371,-0.017c-0.499,-0.05 -3.272,-0.88 -3.272,-0.88c0,0 -2.292,-0.398 -2.923,-0.498c-0.631,-0.1 -1.295,-0.166 -1.677,-0.183c-0.382,-0.016 -2.441,0.033 -2.823,0c-0.382,-0.033 -1.976,-0.083 -3.089,-0.581c-1.113,-0.498 -2.043,-0.947 -2.757,-1.345c-0.714,-0.399 -1.876,-1.113 -2.408,-1.611c-0.531,-0.498 -1.184,-2.071 -1.677,-2.511c-0.673,-0.6 -1.958,-2.616 -2.224,-2.898c-0.266,-0.283 -1.811,-1.506 -1.811,-1.506c-0,-0 -1.913,0.285 -2.378,0.202c-0.465,-0.083 -2.408,-1.524 -2.626,-1.369c-8.835,6.311 -20.665,1.913 -13.244,-3.628c-0,-0 1.109,-1.156 1.46,-1.3c0.352,-0.143 0.482,-0.299 0.99,-0.495c0.508,-0.195 1.238,-0.234 1.706,-0.507c0.469,-0.274 1.186,-0.717 1.537,-0.964c0.352,-0.248 0.339,-0.665 1.133,-0.599c0.795,0.065 2.996,0.534 3.491,0.508c0.495,-0.026 1.394,-0.6 1.42,-0.86c0.026,-0.261 -0.326,-1.029 -0.821,-1.198c-0.495,-0.17 -1.628,-0.665 -2.162,-0.86c-0.534,-0.195 -1.459,-0.599 -1.459,-0.599c0,-0 -0.521,0.417 -1.302,0.742c-0.782,0.326 -1.381,0.417 -1.941,0.3c-0.56,-0.117 -1.588,-0.846 -1.588,-0.846c0,-0 1.025,-1.622 4.207,-2.425c0.633,-0.16 2.057,0.141 2.617,0.219c0.56,0.078 1.576,0.134 1.902,0.239c0.325,0.104 1.719,1.003 2.149,1.289c0.429,0.287 2.631,0.208 2.618,-0.039c-0.014,-0.247 -0.482,-2.123 -0.639,-2.475c-0.156,-0.351 -0.651,-0.742 -1.094,-1.094c-0.443,-0.351 -2.201,-0.716 -2.709,-0.937c-0.508,-0.222 -1.055,-0.365 -1.068,-0.86c-0.013,-0.495 -0.195,-0.86 0.417,-0.977c0.612,-0.117 2.735,-0.065 3.1,-0.104c0.364,-0.039 0.962,-0.12 1.224,-0.039c0.689,0.212 1.299,0.797 1.638,1.057c0.339,0.261 1.465,0.708 1.41,1.066c-0.082,0.532 2.955,4.825 3.53,5.014c0.49,0.161 2.787,2.501 3.151,2.709c0.365,0.209 1.262,0.618 1.927,0.553c0.664,-0.065 1.01,-1.081 3.462,-1.508c1.627,-0.284 5.488,-0.338 4.015,1.841c-0.506,0.748 -1.357,1.389 -1.865,1.623c-0.508,0.235 -1.873,0.747 -2.134,1.021c-0.26,0.273 -0.729,0.599 -0.729,0.599c0,0 0.781,0.482 1.276,0.612c0.495,0.13 2.11,0.703 2.605,0.912c0.495,0.208 1.837,0.482 2.24,0.625c0.404,0.143 1.759,1.068 2.123,1.081c0.365,0.013 1.029,-0.365 1.316,-0.391c0.286,-0.026 1.107,0 1.42,-0.221c0.312,-0.222 1.745,-0.821 2.331,-1.146c0.586,-0.326 2.331,-1.185 2.657,-1.277c0.325,-0.091 2.006,-0.208 2.657,-0.013c0.651,0.196 2.097,0.547 2.865,0.782c0.769,0.234 1.68,0.534 2.11,0.547c0.43,0.013 0.795,0.156 1.42,0.013c0.625,-0.143 2.527,-0.547 2.943,-0.703c0.417,-0.157 1.669,-0.583 1.955,-0.7c0.287,-0.118 2.048,-0.346 2.243,-0.463c0.195,-0.117 1.582,-1.635 1.778,-1.922c0.195,-0.286 1.337,-1.86 1.356,-2.192Z" style="fill:#5c494c;"/><path d="M108.183,132.17c-0.039,-0.487 -0.022,-0.946 -0.352,-1.145c-0.33,-0.198 -0.814,0.177 -0.528,-0.572c0.286,-0.748 0.506,-0.814 0.462,-1.122c-0.044,-0.309 -1.387,-0.066 -0.11,-0.529c1.277,-0.462 2.773,-0.902 3.059,-1.21c0.287,-0.309 0.793,0.088 0.353,-1.013c-0.441,-1.1 -1.013,-2.025 -1.563,-2.641c-0.55,-0.617 -5.459,-6.824 -6.45,-7.726c-0.99,-0.903 -4.864,-5.877 -5.172,-6.098c-0.308,-0.22 -2.4,-0.616 -2.884,-0.66c-0.484,-0.044 0,0.022 -0.55,0.44c-0.55,0.419 -4.402,3.808 -4.777,4.138c-0.374,0.331 -3.543,3.963 -3.874,4.447c-0.33,0.484 -0.792,0.616 -0.682,1.519c0.11,0.902 1.343,4.82 1.629,5.789c0.286,0.968 1.144,4.556 1.299,5.15c0.154,0.595 0.704,2.29 0.704,2.29c-0,-0 -0.638,-0.727 -1.101,-0.991c-0.462,-0.264 -0.902,-0.572 -0.814,-0.264c0.088,0.308 0.748,1.563 0.748,1.563c0,-0 -1.034,-0.705 -1.541,-1.145c-0.506,-0.44 -3.125,-2.685 -3.389,-3.037c-0.264,-0.353 -0.529,-1.013 -0.639,-0.375c-0.11,0.639 -0.528,2.246 -1.122,2.796c-0.595,0.55 -2.289,1.805 -2.84,1.959c-0.55,0.154 -0.528,-0.044 -1.012,0.77c-0.484,0.815 -1.035,0.705 -1.211,1.233c-0.176,0.528 -0.396,1.056 -0.396,1.056c-0,0 0.264,-1.782 0.33,-2.223c0.066,-0.44 0.418,-1.673 0.572,-2.333c0.154,-0.66 0.221,-2.553 0.044,-2.861c0,-0 -0.462,1.408 -0.968,2.091c-0.506,0.682 -0.859,1.562 -0.859,1.562c0,0 0.066,-0.528 -0.396,-0.858c-0.462,-0.33 -1.871,-0.528 -2.113,-0.528c-0.242,-0 -0.704,-0.22 -0.704,-0.22c-0,-0 0.22,-0.176 0.528,-0.793c0.308,-0.616 2.223,-3.544 2.333,-3.83c0.11,-0.286 0.286,-0.396 0.793,-0.836c0.506,-0.44 1.232,-1.167 1.651,-1.519c0.418,-0.352 3.742,-1.871 3.742,-1.871c-0,-0 -0.309,-1.057 -0.595,-1.871c-0.286,-0.814 -0.33,-1.233 -0.55,-0.836c-0.22,0.396 -1.057,1.1 -1.057,1.1c0,0 0.264,-0.77 0.353,-1.563c0.088,-0.792 -0.089,-0.924 -0.089,-0.924c0,-0 0.243,0.242 0.595,-0.374c0.352,-0.617 0.352,-1.959 0.132,-2.157c-0.22,-0.199 -0.506,-0.089 -0.771,0.22c-0.264,0.308 0.133,-0.683 -0.022,-1.035c-0.154,-0.352 -0.99,-0.66 -1.1,-1.078c-0.11,-0.419 -0.066,-1.915 -0.616,-1.607c-0.551,0.308 -1.101,1.276 -1.101,1.276c-0,0 0.44,-1.408 0.528,-2.179c0.088,-0.77 0.066,-2.663 -0.396,-2.399c-0.462,0.264 -1.012,0.462 -1.321,0.902c-0.308,0.441 -0.352,0.793 -0.352,0.793c0,-0 -0.198,-0.903 -0.594,-0.594c-0.396,0.308 -0.506,0.484 -0.594,0.924c-0.089,0.44 -0.309,0.572 -0.397,0.946c-0.088,0.375 -0.11,0.353 -0.154,1.101c-0.044,0.748 -0.066,0.947 -0.308,1.387c-0.242,0.44 -0.374,0.484 -0.506,1.056c-0.132,0.573 -0.066,1.629 -0.198,2.025c-0.132,0.397 -0.507,0.947 -0.463,1.431c0.045,0.484 0.463,2.003 0.463,2.003c-0,0 -0.859,-1.519 -0.947,-1.893c-0.088,-0.374 0.506,-1.519 0.551,-1.937c0.044,-0.418 -0.022,-1.563 -0.177,-1.937c-0.154,-0.374 -0.264,-0.462 -0.396,-0.726c-0.132,-0.264 -0.506,-0.815 -0.682,-1.409c-0.176,-0.594 -0,-1.167 -0.506,-1.167c-0.507,0 -1.079,-0.044 -1.541,0.044c-0.462,0.089 -1.453,-0.198 -1.673,0.221c-0.22,0.418 -0.572,1.452 -0.572,1.452c-0,0 -0.331,0.639 -0.815,0.969c-0.484,0.33 -2.311,1.651 -2.619,1.849c-0.308,0.198 -2.157,1.277 -2.488,1.431c-0.33,0.154 -0.77,0.594 -0.77,0.594c0,-0 0.11,-0.66 0.396,-1.167c0.286,-0.506 0.573,-0.858 0.749,-1.21c0.176,-0.353 -0.176,-0.595 -0.793,0.088c0,-0 0.859,-0.947 1.299,-1.409c0.44,-0.462 0.902,-0.991 1.034,-1.233c0.133,-0.242 0.265,-0.682 -0.418,-0.22c-0.682,0.462 -1.981,0.881 -2.355,1.057c-0.374,0.176 -2.619,0.836 -2.619,0.836c-0,0 0.726,-0.55 1.1,-0.88c0.374,-0.33 1.673,-1.299 2.289,-1.541c0.617,-0.242 1.673,-0.881 2.312,-1.167c0.638,-0.286 2.965,-1.201 2.993,-1.518c0.142,-1.573 15.113,-18.772 16.817,-17.94c0,0 0.418,-0.726 0.66,-1.056c0.243,-0.331 0.309,-0.771 0.639,-1.189c0.33,-0.418 0.55,-0.616 0.836,-1.101c0.286,-0.484 1.871,-1.893 2.267,-2.201c0.397,-0.308 2.18,-0.946 3.126,-1.188c0.947,-0.243 3.06,-0.661 4.006,-0.705c0.947,-0.044 3.412,0.418 4.402,0.638c0.991,0.221 3.852,0.859 4.469,0.925c0.616,0.066 2.025,0.902 2.641,1.189c0.617,0.286 1.981,1.012 2.576,1.474c0.594,0.463 2.091,1.475 2.465,1.739c0.374,0.264 1.519,0.991 1.827,1.255c0.308,0.264 0.88,0.902 1.012,1.387c0.132,0.484 0.485,2.773 0.551,3.389c0.066,0.617 0.11,1.409 0.418,1.805c0.308,0.397 0.198,0.639 0.704,1.035c0.506,0.396 1.651,1.189 2.091,1.739c0.441,0.55 2.686,2.707 3.016,3.081c0.33,0.375 3.324,4.029 3.522,4.381c0.198,0.352 2.443,5.635 2.619,5.921c0.176,0.286 1.058,1.569 1.145,2.267c0.455,3.675 -17.984,18.358 -18.248,15.078Z" style="fill:#403229;"/><path d="M112.001,128.417c-0.362,-0.057 -0.427,-0.175 -0.602,-0.931c-0.174,-0.757 -0.717,-2.037 -0.388,-2.115c0.33,-0.077 1.649,0.097 3.182,0.194c1.532,0.097 5.664,-0.795 5.664,-0.795l-1.901,3.181c-0,0 -1.979,1.086 -5.955,0.466Zm-6.945,-10.157c-0,-0 0.016,0.2 0.133,0.467c0.117,0.266 1.517,1.967 2.051,2.634c0.533,0.667 1.65,2.151 1.917,2.201c0.267,0.05 1.751,0.3 4.418,-0.417c2.668,-0.717 6.636,-2.501 7.569,-3.351c0.934,-0.851 3.285,-3.418 3.652,-4.435c0.366,-1.017 0.6,-1.951 0.416,-2.284c-0.183,-0.334 -2.15,-3.985 -2.45,-4.368c-0.3,-0.384 -0.634,-0.5 -0.634,-0.5c0,-0 0.234,0.216 0.35,0.5c0.117,0.283 -0.05,0.65 -0.617,1.5c-0.566,0.85 -1.35,2.051 -3.751,3.768c-2.401,1.717 -5.902,4.101 -7.836,4.668c-1.934,0.567 -4.385,0.134 -5.218,-0.383Zm-39.601,-10.621l2.183,-1.879c0,-0 2.74,-2.025 4.611,-2.454c1.87,-0.429 4.181,-0.81 6.647,-0.274c2.466,0.536 3.383,1.834 4.277,2.609c0.893,0.774 2.883,3.49 3.335,4.503c0.453,1.012 0.882,2.74 0.941,3.192c0.06,0.453 0.119,3.05 0.108,3.193c-0.012,0.143 -0.906,0.977 -1.323,1.334c-0.417,0.358 -1.227,1.477 -1.227,1.477c0,0 -0.131,-0.131 -0.238,-0.583c-0.107,-0.453 -1.167,-4.468 -1.561,-5.278c-0.393,-0.81 -1.81,-2.716 -2.609,-3.514c-0.798,-0.798 -2.382,-1.549 -3.752,-2.132c-1.37,-0.584 -5.111,-0.453 -5.73,-0.358c-0.62,0.096 -3.109,0.989 -3.776,1.382c-0.484,0.285 -1.581,0.843 -2.15,1.129c-0.045,0.068 -0.071,0.107 -0.071,0.107c0,0 -1.161,0.849 -1.682,1.146c-0.521,0.298 -0.906,0.939 -2.367,1.221c-0.965,0.186 -1.576,0.15 -1.962,0.036c-0.445,-0.055 -1.006,-0.138 -1.221,-0.23c-0.379,-0.163 -1.688,-0.777 -1.733,-0.939c-0.045,-0.163 0.244,-2.383 0.452,-2.573c0.206,-0.188 2.256,-1.408 2.617,-1.435c0.361,-0.027 1.381,0.542 1.878,0.632c0.3,0.055 1.595,0.142 2.571,0.203c0.543,-0.109 1.183,-0.273 1.782,-0.515Zm33.582,3.902c0,-0 0.267,0.5 0.967,0.667c0.7,0.167 0.767,0.967 4.302,-1.101c3.534,-2.067 7.485,-6.302 8.419,-7.385c0.934,-1.084 1.734,-2.301 1.851,-2.851c0.116,-0.55 -0.084,-0.767 -0.084,-0.767c0,-0 0.4,-0.184 0.784,0.133c0.383,0.317 3.918,3.551 3.935,3.801c0.016,0.251 0.133,0.667 -0.017,1.101c-0.15,0.433 -1.017,3.051 -3.868,5.635c-2.851,2.584 -8.069,5.569 -9.77,5.935c-1.701,0.367 -2.801,-0.15 -2.801,-0.15c0,0 -3.785,-4.134 -3.818,-4.551c-0.033,-0.417 0.1,-0.467 0.1,-0.467Zm-29.826,-7.103c-0,-0 1.775,-0.953 2.442,-1.501c0.667,-0.548 2.216,-1.656 3.455,-1.871c1.239,-0.214 4.574,-1.131 6.933,0.155c2.359,1.287 2.466,1.394 3.788,3.109c1.323,1.716 2.895,3.396 3.074,4.897c0.178,1.501 0.262,4.55 -0.084,5.551c-0.345,1.001 -0.703,1.501 -0.703,1.501c0,-0 1.633,-2.061 2.133,-2.597c0.5,-0.536 1.858,-1.644 1.965,-2.121c0.108,-0.476 0.465,-3.49 0.334,-4.467c-0.131,-0.977 -0.87,-4.408 -2.287,-5.968c-1.418,-1.561 -2.967,-3.634 -5.909,-4.36c-2.942,-0.727 -5.539,-0.644 -7.553,0.024c-2.013,0.667 -4.014,2.597 -4.014,2.597l-3.574,5.051Zm6.671,-7.839c0,0 2.132,-1.477 3.622,-1.727c1.489,-0.251 2.954,-0.894 5.265,-0.37c2.311,0.525 4.158,1.168 5.265,2.228c1.108,1.06 2.609,2.466 3.336,5.504c0.727,3.038 0.179,8.053 -0.393,8.887c-0,-0 1.596,-1.299 2.228,-1.883c0.631,-0.583 2.334,-3.18 2.43,-4.777c0.095,-1.596 -0.155,-5.146 -1.787,-7.028c-1.632,-1.882 -4.146,-4.825 -8.148,-5.218c-4.003,-0.393 -8.077,0.643 -8.077,0.643l-3.741,3.741Zm-16.414,12.914c0.265,0.024 0.441,0.223 0.458,0.408c0.017,0.184 -0.125,0.355 -0.494,0.323c-0.529,-0.046 -0.357,-0.768 0.036,-0.731Zm0.722,-8.89c0.191,-0.137 2.091,-0.613 2.271,-0.558c0.181,0.055 1.274,0.857 1.698,1.054c0.425,0.196 1.903,0.912 3.286,0.951c1.384,0.039 2.681,-0.904 2.681,-0.904c0.373,1.891 -1.419,3.189 -3.38,4.441c-0,0 -0.763,0.04 -1.219,0.071c-0.456,0.031 -2.657,-0.126 -3.121,-0.314c-0.463,-0.189 -1.973,-0.967 -2.602,-1.51c-0.629,-0.542 -0.974,-1.077 -0.872,-1.289c0.102,-0.212 0.927,-1.706 1.258,-1.942Zm6.524,2.909c0.089,-0.044 0.211,-0.091 0.271,-0.086c0.061,0.005 0.059,0.062 -0.098,0.227c-0.314,0.331 -0.637,0.087 -0.173,-0.141Zm-4.088,-1.116c0.228,-0.005 0.407,0.149 0.449,0.309c0.041,0.16 -0.056,0.327 -0.378,0.351c-0.644,0.047 -0.912,-0.645 -0.071,-0.66Zm4.755,-5.147c0.253,-0.216 2.088,-0.844 2.472,-0.783c0.385,0.062 0.783,0.44 1.278,0.495c0.494,0.055 2.891,0.103 2.891,0.103l-3.056,3.509c-0,0 -1.298,0.055 -1.896,-0.013c-0.597,-0.069 -2.637,-0.701 -2.857,-1.154c-0.219,-0.453 0.598,-1.669 1.168,-2.157Zm2.287,1.168c0.287,-0.137 0.553,-0.183 0.663,-0.144c0.111,0.04 0.065,0.164 -0.272,0.371c-0.673,0.412 -1.099,0.109 -0.391,-0.227Z" style="fill:#331b0f;"/><path d="M114.308,86.219c-0.216,-0.191 -1.462,-1.35 -1.733,-1.503c-0,-0 0.858,0.182 1.079,0.299c0.221,0.117 0.975,0.104 1.248,0.169c0.273,0.065 0.949,0.078 1.586,0.117c0.637,0.039 1.222,0.156 1.443,-0.104c0.221,-0.26 0.273,-0.325 0.247,-0.715c-0.026,-0.39 -0.065,-2.679 -0.078,-2.939c-0.013,-0.26 0.468,-1.014 0.897,-1.508c0.429,-0.494 1.378,-1.586 1.69,-1.729c0.312,-0.143 0.598,0.13 0.585,0.39c-0.013,0.26 0.026,0.715 -0.039,1.261c-0.065,0.546 -0.299,0.689 -0.481,1.157c-0.182,0.468 -0.442,1.223 -0.065,1.431c0.377,0.208 0.559,0.442 0.885,0.195c0.325,-0.247 0.156,-0.26 0.624,-0.611c0.468,-0.352 0.884,-1.067 1.339,-1.028c0.455,0.039 0.832,0.429 0.936,-0.078c0.104,-0.507 0.143,-1.04 0.078,-1.443c-0.065,-0.403 0.455,-1.196 0.663,-1.326c0.208,-0.13 0.338,0.832 0.494,0.832c0.156,0 0.871,-0.13 1.443,-0.481c0.572,-0.351 1.3,-0.975 1.794,-1.274c0.494,-0.299 2.197,-1.352 2.197,-1.352c0,-0 -0.442,1.014 -0.936,1.82c-0.494,0.806 1.209,-0.767 1.625,-1.17c0.416,-0.403 0.781,-1.066 1.457,-1.755c0.676,-0.689 1.066,-0.975 1.651,-1.508c0.585,-0.533 1.482,-1.339 0.988,-0.312c-0.494,1.027 -0.611,1.456 -0.949,1.742c-0.338,0.286 -0.585,0.403 -0.988,0.949c-0.403,0.546 -0.949,0.858 -0.91,1.183c0.039,0.325 0.078,0.78 0.845,0.143c0.767,-0.637 0.897,-0.949 1.872,-1.261c0.975,-0.312 1.495,-0.923 1.43,-0.169c-0.065,0.754 -0.39,1.144 -0.364,1.586c0.026,0.442 0.143,1.183 0.052,1.495c-0.091,0.312 0.546,0.442 -0.117,0.819c-0.663,0.377 -0.871,0.533 -1.144,0.767c-0.273,0.234 -0.65,0.494 -1.274,0.429c-0.624,-0.065 -0.637,0.104 -0.715,0.351c-0.078,0.247 -0.351,0.845 -0.741,1.249c-0.391,0.403 -0.755,-0.013 -0.729,0.533c0.026,0.546 -0.494,1.066 0.325,1.04c0.82,-0.026 1.99,-1.17 1.938,-0.234c-0.052,0.936 0.338,1.3 -0.78,1.664c-1.119,0.364 -0.988,-0.143 -1.86,0.403c-0.871,0.546 -1.235,1.053 -1.469,1.222c-0.234,0.169 0.416,0.429 1.274,0.442c0.858,0.013 1.444,-0.52 1.899,0.078c0.455,0.598 0.988,0.611 0.507,1.027c-0.481,0.416 -1.248,0.702 -1.652,0.923c-0.403,0.221 -0.429,0.338 -1.196,0.741c-0.767,0.403 -1.742,0.819 -2.366,0.988c-0.624,0.169 -1.248,0.364 -1.716,0.429c-0.468,0.065 -1.131,0.065 -1.547,0c-0.416,-0.065 -0.65,-0.338 -1.703,-0.364c-1.053,-0.026 -1.001,-0.208 -1.703,-0.065c-0.703,0.143 -0.455,0.143 -1.353,0.208c-0.897,0.065 -1.066,-0.052 -1.742,0.104c-0.676,0.156 -1.417,0.273 -1.872,0.351c-0.455,0.078 -2.028,0.338 -2.028,0.338c-0,0 1.495,-0.494 1.794,-0.611c0.299,-0.117 1.196,-0.325 1.82,-0.494c0.624,-0.169 0.845,-0.273 1.157,-0.221c0.312,0.052 0.806,0.247 1.053,0.221c0.247,-0.026 0.533,-0.234 0.859,-0.312c0.325,-0.078 1.092,-0.039 1.586,0c0.494,0.039 1.144,0.078 1.469,0.247c0.325,0.169 0.624,0.364 0.884,0.273c0.26,-0.091 0.455,-0.143 0.91,-0.169c0.455,-0.026 0.416,-0.195 0.832,-0.247c0.416,-0.052 0.65,-0.052 0.832,-0.221c0.182,-0.169 0.754,-1.118 0.884,-1.339c0.13,-0.221 0.351,-0.494 0.39,-0.728c0.039,-0.234 0.078,-0.715 -0.052,-0.975c-0.13,-0.26 -0.26,-0.468 -0.247,-0.897c0.013,-0.429 0.299,-1.209 -0.078,-1.17c-0.377,0.039 -0.715,-0.013 -1.118,0.247c-0.403,0.26 -0.637,0.845 -0.806,1.04c-0.169,0.195 -0.559,0.455 -0.845,0.65c-0.286,0.195 -0.845,0.481 -0.858,0.598c-0.013,0.117 -0,0.247 0.104,0.312c0.104,0.065 0.78,0.403 0.832,0.585c0.052,0.182 0.052,0.377 0.052,0.377c-0,0 -0.637,-0.364 -0.858,-0.481c-0.221,-0.117 -0.546,-0.299 -0.65,-0.481c-0.104,-0.182 -0.39,-0.663 -0.585,-0.767c-0.195,-0.104 -0.65,-0.416 -0.91,-0.533c-0.26,-0.117 -0.403,-0.234 -0.897,-0.273c-0.494,-0.039 -0.78,-0.052 -1.21,0.013c-0.429,0.065 0.157,-0.494 0.157,-0.494c-0,-0 0.429,-0.286 0.52,-0.377c0.091,-0.091 0.195,-0.182 0.039,-0.533c-0.156,-0.351 -0.52,-0.65 -0.742,-0.832c-0.221,-0.182 -0.819,-1.079 -0.975,-1.3c-0.156,-0.221 -0.442,-0.702 -0.39,-0.923c0.052,-0.221 0.013,-0.378 0.156,-0.651c0.143,-0.273 0.39,-0.741 0.494,-1.001c0.104,-0.26 0.195,-1.196 0.078,-1.365c-0.117,-0.169 -0.585,-0.13 -0.728,-0.013c-0.143,0.117 -0.325,0.247 -0.52,0.455c-0.195,0.208 -0.559,0.533 -0.78,0.806c-0.221,0.273 -0.429,0.507 -0.442,0.78c-0.013,0.273 0.052,1.028 0.104,1.379c0.052,0.351 -0.039,2.093 -0.026,2.353c0.013,0.26 0.286,0.494 0.286,0.494c0,-0 0,0.156 -0.117,0.117c-0.117,-0.039 -0.364,-0.026 -0.598,-0.039c-0.234,-0.013 -0.676,-0.078 -1.274,-0.039c-0.598,0.039 -1.768,-0.091 -2.093,-0.091c-0.325,-0 -0.39,-0.052 -0.286,0.091c0.104,0.143 0.689,0.767 0.689,0.767l-0.182,0.234c-0,-0 -0.533,0.013 -0.637,-0.052c-0.104,-0.065 -0.585,-0.637 -0.585,-0.637c-0,-0 0.499,0.155 0.667,0.281c0.023,0.02 0.035,0.031 0.035,0.031c-0.009,-0.01 -0.021,-0.02 -0.035,-0.031Zm-20.456,-26.113c0,-0 0.921,0.123 1.487,0.39c0.565,0.268 0.069,-0.187 -1.355,-1.279c-1.919,-1.474 -1.845,-3.408 -1.845,-3.408c0.387,0.848 0.119,1.473 2.128,3.155c0.438,0.367 1.399,1.131 1.652,1.294c0.253,0.164 0.952,0.402 0.952,0.402c0,0 0.045,-0.595 0,-0.937c-0.044,-0.343 -0.268,-0.849 -0.268,-0.849c0,0 0.179,-0.119 0.447,-0.357c0.268,-0.238 0.416,-0.595 0.416,-0.595c0,0 0,1.949 0.149,2.292c0.149,0.342 0.521,1.16 1.176,1.443c0.655,0.283 1.443,0.729 2.038,1.071c0.596,0.343 1.295,0.938 1.965,1.34c0.669,0.401 1.45,1.139 1.926,1.526c0.476,0.387 0.878,1.16 1.235,1.383c0.357,0.223 1.05,1.168 1.407,1.599c0.357,0.432 0.595,1.057 0.863,1.518c0.268,0.462 0.551,1.399 0.744,1.801c0.193,0.402 0.521,1.399 0.61,1.652c0.089,0.253 0.279,1.578 0.417,2.053c0.153,0.53 -0.216,2.138 -0.179,1.692c0.088,-1.043 -0.283,-1.737 -0.283,-2.376c0,-0.64 -0.238,-1.593 -0.357,-2.039c-0.119,-0.446 -0.327,-0.655 -0.654,-1.042c-0.328,-0.387 -0.67,-0.729 -0.67,-0.729c-0,0 -0.104,-0.803 -0.208,-1.027c-0.104,-0.223 -1.607,-0.476 -1.607,-0.476c0.639,-0.015 1.339,-0.163 1.339,-0.163c-0.209,-0.224 -0.432,-0.477 -0.64,-0.759c-0.208,-0.283 -0.461,-0.536 -0.685,-0.849c-0.223,-0.312 -0.476,-0.372 -0.744,-0.669c-0.267,-0.298 -0.342,-0.342 -0.967,-1.161c-0.625,-0.818 -0.491,-0.58 -0.788,-0.937c-0.298,-0.357 -0.953,-0.551 -1.369,-0.789c-0.417,-0.238 -1.191,-0.655 -1.191,-0.655c0,0 0.134,0.759 0.372,1.161c0.238,0.402 0.61,0.908 0.893,1.265c0.283,0.357 0.818,-0.104 1.027,0.223c0.208,0.327 0.148,1.22 0.178,1.458c0.03,0.238 0.447,0.7 0.551,0.982c0.104,0.283 0.565,0.105 0.714,0.209c0.149,0.104 0.074,0.907 0.164,1.22c0.089,0.312 0.997,1.518 1.16,1.711c0.164,0.194 0.462,0.848 0.462,0.848c-0,0 -0.893,-0.208 -1.22,0c-0.328,0.209 0.461,1.905 0.833,2.828c0.372,0.922 0.952,1.532 1.22,1.934c0.268,0.402 0.104,0.863 -0.074,1.161c-0.179,0.297 -0.015,1.785 0.104,2.351c0.119,0.565 1.131,1.771 1.131,2.053c-0,0.283 -0.61,0.938 -0.7,1.265c-0.089,0.328 0.194,1.28 0.268,1.712c0.075,0.431 0.61,0.997 0.521,1.294c-0.089,0.298 -0.61,0.491 -0.61,0.848c-0,0.357 -0.074,1.459 -0.074,1.459l-0.253,-0.164c-0,-0 -0.09,-0.372 -0.09,-1.012c0,-0.64 -0.387,-1.473 -0.506,-1.964c-0.119,-0.491 -1.265,-1.548 -1.265,-1.548c0,0 0.997,0.491 1.057,0.357c0.06,-0.134 -0.015,-0.803 0.164,-1.503c0.178,-0.699 -0.417,-1.651 -0.729,-2.127c-0.313,-0.477 -1.563,-1.325 -1.905,-1.563c-0.342,-0.238 -1.146,-0.863 -1.146,-0.863c1.25,-0.015 1.994,0.952 2.292,1.116c0.297,0.164 0.476,-0.059 0.595,-0.64c0.119,-0.58 -0.164,-1.681 -0.164,-2.41c0,-0.73 -1.056,-1.846 -1.25,-2.069c-0.193,-0.223 -1.8,-1.324 -2.515,-1.577c-0.714,-0.253 -3.541,-0.268 -3.541,-0.268c-0,-0 3.095,-0.223 3.794,0.045c0.7,0.267 1.727,0.788 1.979,0.878c0.253,0.089 0.179,-0.596 0.179,-1.221c0,-0.625 -0.357,-1.205 -0.565,-1.607c-0.209,-0.401 -0.328,-0.625 -0.789,-0.952c-0.461,-0.327 -1.057,-0.595 -1.339,-0.848c-0.283,-0.253 -1.072,-0.655 -1.816,-0.729c-0.744,-0.075 -1.428,0.044 -1.979,0.074c-0.55,0.03 -0.669,0.357 -0.863,0.387c-0.193,0.03 -0.178,-0.372 -0.595,-0.461c-0.417,-0.09 -1.905,0.55 -2.321,0.669c-0.417,0.119 -0.521,0.432 -0.893,0.61c-0.372,0.179 -0.491,0 -0.804,-0.163c-0.312,-0.164 -0.744,-0.209 -1.547,-0.134c-0.804,0.074 0.074,-0.387 0.386,-0.536c0.313,-0.149 -0.282,-0.595 -0.714,-0.833c-0.431,-0.238 -2.797,-2.084 -2.797,-2.084c-0,0 1.086,0.372 1.666,0.596c0.581,0.223 1.518,0.967 1.92,1.175c0.402,0.209 0.268,-0.282 0.595,-0.446c0.327,-0.164 0.208,0.387 0.149,0.863c-0.06,0.476 0.149,0.208 0.595,0.446c0.447,0.238 0.566,0.09 1.31,0.015c0.744,-0.074 0.818,-0.402 1.026,-0.55c0.209,-0.149 -0.015,-0.432 -0.193,-0.744c-0.179,-0.313 -1.458,-1.31 -1.682,-1.488c-0.223,-0.179 -1.696,-0.997 -2.976,-1.533c-1.279,-0.536 -0.788,-0.506 0.447,-0.134c1.235,0.372 1.89,0.699 2.262,0.878c0.372,0.178 1.443,0.863 1.86,1.175c0.416,0.313 0.267,0.64 0.312,0.983c0.045,0.342 0.417,0.505 0.595,0.61c0.179,0.104 2.009,0.282 2.247,0.238c0.238,-0.045 0.595,-0.417 0.7,-0.506c0.104,-0.089 0.669,-0.402 0.952,-0.432c0.283,-0.03 0.253,-0.312 -0.149,-0.714c-0.402,-0.402 -2.053,-1.518 -3.125,-2.321c-1.071,-0.804 -3.452,-1.875 -3.452,-1.875c0.848,0.223 2.455,0.699 3.065,0.893c0.611,0.193 2.426,1.755 2.679,1.979c0.253,0.223 1.309,1.131 1.8,1.577c0.491,0.446 0.462,-0.015 0.253,-0.313c-0.208,-0.297 -0.476,-0.208 -0.669,-0.416c-0.194,-0.209 -0.283,-0.804 -0.462,-1.161c-0.178,-0.357 -0.729,-1.547 -1.369,-2.053c-0.639,-0.506 -1.934,-1.265 -2.648,-1.622c-0.568,-0.284 -1.879,-0.784 -2.392,-0.978l0.007,-0.034c0.848,0.186 2.801,0.714 2.801,0.714c-0.371,-0.186 -1.38,-0.632 -2.245,-1.179Zm33.18,28.952c-0,0 0.26,-0.286 0.403,-0.377c0.143,-0.091 0.468,-0.377 0.468,-0.377c0,0 -0.078,0.481 -0.208,0.559c-0.13,0.078 -0.663,0.195 -0.663,0.195Zm0.936,-5.239c0.165,0.148 0.299,0.676 0.143,0.897c-0.156,0.221 -0.78,0.949 -1.014,1.157c-0.234,0.208 -1.053,1.365 -1.222,1.404c-0.169,0.039 -0.403,-0.416 -0.546,-0.611c-0.143,-0.195 -0.494,-0.338 -0.468,-0.533c0.026,-0.195 1.105,-0.962 1.261,-1.287c0.156,-0.325 0.832,-0.949 1.092,-1.001c0.26,-0.052 0.624,-0.143 0.754,-0.026Zm-99.231,-22.622c-0.251,0.201 -0.551,0.436 -0.754,0.53c-0.37,0.172 -0.859,0.119 -0.74,0.581c0.119,0.463 0.7,0.991 0.832,1.163c0.132,0.172 0.661,1.044 -0.04,0.713c-0.7,-0.33 -1.347,-0.911 -1.347,-0.911c0,-0 -0.225,-0.436 -0.502,0.211c-0.277,0.647 -0.66,0.436 -0.026,1.031c0.634,0.594 1.294,0.819 1.109,1.175c-0.185,0.357 -0.475,1.519 -1.004,1.77c-0.528,0.251 -0.872,0.661 -0.924,0.278c-0.053,-0.383 -0.74,0.792 -0.78,1.123c-0.039,0.33 0.37,1.189 0.648,1.545c0.277,0.357 0.251,0.846 0.066,1.163c-0.185,0.317 -0.674,1.004 -0.899,1.598c-0.224,0.595 -0.555,1.493 -0.739,1.85c-0.185,0.356 -0.251,0.66 -0.331,0.871c-0.079,0.212 -0.343,0.74 -0.171,0.582c0.171,-0.159 0.396,-0.212 0.647,-0.753c0.251,-0.542 0.726,-0.423 0.806,-0.793c0.079,-0.37 0.37,-1.149 0.594,-1.466c0.225,-0.317 1.731,-1.876 1.242,-1.057c-0.489,0.819 -0.713,1.281 -0.978,1.836c-0.264,0.555 -0.409,1.717 -0.726,1.902c-0.317,0.185 -0.753,0.185 -0.951,0.37c-0.199,0.185 -0.185,0.397 -0.516,0.753c-0.33,0.357 -0.792,0.832 -1.004,0.899c-0.211,0.066 -0.739,0.33 -0.819,0.449c-0.079,0.119 -0.422,0.409 -0.515,0.753c-0.092,0.343 -0.013,1.994 -0.132,2.364c-0.119,0.37 -0.132,0.7 -0.541,0.925c-0.41,0.224 -0.423,0.053 -0.978,0.542c-0.555,0.488 -0.938,0.607 -1.136,0.766c-0.198,0.158 -0.423,0.224 -0.476,0.502c-0.052,0.277 -0.7,1.413 -1.189,1.492c0,0 0.397,-0.554 0.516,-0.99c0.119,-0.436 0.237,-1.031 0.449,-1.453c0.211,-0.423 0.515,-0.806 0.779,-0.978c0.264,-0.172 0.291,-0.013 0.476,-0.291c0.185,-0.277 0.185,-0.171 0.356,-0.515c0.172,-0.343 0.291,-0.356 0.119,-0.673c-0.171,-0.318 -0.475,-0.212 -0.422,-0.542c0.052,-0.33 0.554,-1.215 0.554,-1.215c0,-0 -0.211,-0.516 -0.198,-0.74c0.014,-0.225 0.08,-1.255 0.053,-1.638c-0.026,-0.383 -0.224,-0.542 -0.277,-1.004c-0.053,-0.463 -0,-1.163 -0.291,-1.44c-0.291,-0.278 -0.621,-0.529 -0.621,-0.529c0,0 0.081,-0.025 0.196,-0.046c-0.114,-0.109 -0.254,-0.241 -0.525,-0.382c-0.337,-0.175 -0.983,-0.862 -1.131,-1.091c-0.148,-0.228 -0.269,-0.807 -0.633,-0.915c-0.363,-0.107 -0.969,-0.202 -1.359,0.014c0,-0 0.364,-0.646 0.727,-0.687c0.363,-0.04 0.579,-0.107 0.875,0.27c0.296,0.376 0.43,0.767 0.861,1.211c0.431,0.444 0.673,0.727 1.319,0.888c0.646,0.162 1.144,0.242 1.238,0.39c0.094,0.148 -0.444,0.646 -0.43,0.889c-0,0.003 -0,0.007 -0,0.01c0.167,0.358 0.352,0.731 0.5,1.008c0.198,0.37 0.502,-0.039 0.502,-0.039c0,-0 0.595,-0.436 0.674,-0.608c0.079,-0.172 0.211,-0.621 0.317,-0.938c0.106,-0.317 0.264,-0.515 0.277,-0.753c0.014,-0.238 0.066,-0.753 0.238,-1.189c0.172,-0.436 0.344,-0.581 0.397,-0.792c0.052,-0.212 0.317,-0.172 -0.318,-0.701c-0.634,-0.528 -0.449,-1.241 -0.449,-1.241c0,-0 0.238,0.304 0.542,0.515c0.304,0.211 1.149,0.66 0.938,1.321c-0.212,0.66 -0.159,1.889 -0.225,2.338c-0.066,0.449 -0.105,0.595 0.053,1.044c0.159,0.449 0.37,0.845 0.37,0.845c-0,0 0.66,-1.215 0.819,-1.638c0.159,-0.423 0.291,-1.07 0.396,-1.479c0.106,-0.41 0.476,-0.674 0.291,-1.11c-0.185,-0.436 -0.317,-1.044 -0.542,-1.427c-0.224,-0.383 -0.515,-0.607 -0.858,-0.753c-0.344,-0.145 -0.621,-0.079 -0.978,-0.581c-0.357,-0.502 -0.264,-0.806 -0.792,-1.242c-0.529,-0.436 -0.833,-0.7 -1.057,-0.687c-0.225,0.014 -0.793,-0.132 -1.308,-0.185c-0.515,-0.052 0.779,-0.647 1.083,-0.766c0.304,-0.119 0.674,-0.145 1.031,0.066c0.356,0.212 0.607,-0.171 0.739,-0.409c0.132,-0.238 0.198,-0.714 -0.092,-0.859c-0.291,-0.145 -0.991,-0.04 -0.991,-0.04c0,0 -1.057,0.753 -1.268,0.701c-0.211,-0.053 0.026,-0.582 0.198,-0.674c0.172,-0.093 0.846,-0.304 1.004,-0.436c0.159,-0.132 1.017,-0.449 0.568,-0.515c-0.449,-0.066 -1.347,-0.436 -1.44,-0.515c-0.092,-0.08 -0.634,-0.674 -0.991,-0.846c-0.356,-0.172 -0.502,-0.317 -0.898,-0.211c-0.396,0.105 -0.409,0.079 -0.938,0.396c-0.528,0.317 -0.951,0.595 -1.294,0.753c-0.344,0.159 -0.555,0.291 -0.753,0.515c-0.198,0.225 -0.449,0.634 -0,0.687c0.449,0.053 1.07,-0.079 1.255,0.225c0.185,0.304 0.634,0.409 0.7,0.726c0.066,0.317 0.039,0.687 -0.093,0.766c-0.132,0.08 -0.634,-0.026 -0.938,-0.237c-0.303,-0.212 0.04,-0.331 -0.515,-0.291c-0.555,0.04 -1.915,0.238 -2.312,0.396c-0.396,0.159 -0.858,-0.343 -1.056,0.357c-0.199,0.7 0.475,1.017 0.779,1.242c0.304,0.224 0.357,0.198 0.687,0.607c0.33,0.41 0.779,0.568 1.004,0.819c0.224,0.251 0.515,0.952 -0.145,0.582c-0.661,-0.37 -0.978,-0.397 -1.493,-0.912c-0.515,-0.515 -0.621,-0.673 -1.083,-0.779c-0.463,-0.106 -0.806,-0.159 -1.335,-0.093c-0.528,0.066 -1.017,0.093 -1.017,0.093l-0.264,-3.157c0,-0 0.951,-0.172 1.229,-0.383c0.277,-0.212 1.122,-0.436 1.492,-0.701c0.37,-0.264 1.123,-0.171 0.806,-0.607c-0.317,-0.436 -1.083,-1.216 -1.545,-1.268c-0.463,-0.053 -1.123,-0.014 -1.123,-0.014l0.185,-2.8c-0,-0 2.377,-0.278 2.219,-0.449c-0,-0 -1.559,-0.449 -1.678,-0.542c-0.119,-0.092 1.15,-1.004 1.15,-1.004c-0,0 0.501,-0.317 0.594,-0.409c0.092,-0.093 0.37,-0.212 0.634,-0.516c0.264,-0.303 1.096,-0.66 1.268,-0.726c0.172,-0.066 2.021,-1.202 2.629,-1.149c0.608,0.052 0.647,0.105 1.096,-0.133c0.45,-0.237 0.886,-0.634 1.348,-0.7c0.462,-0.066 1.07,-0.356 1.228,-0.356c0.159,-0 0.74,-0.093 1.018,-0.238c0.277,-0.145 0.66,-0.489 0.66,-0.489l1.493,-1.149c-0,-0 -1.004,0.317 -1.519,0.528c-0.516,0.212 -0.951,0.212 -0.951,0.212c-0,-0 -0.04,-0.278 0.435,-0.476c0.476,-0.198 2.088,-0.687 2.365,-0.793c0.277,-0.105 0.634,-0.264 0.885,-0.488c0.251,-0.225 0.608,0.119 0.793,0.039c0.185,-0.079 -0.502,0.516 -0.555,0.806c-0.053,0.291 -0.383,0.304 -0.846,0.502c-0.462,0.198 -1.175,0.846 -1.307,1.242c-0.132,0.396 1.479,0.185 1.743,0.37c0.265,0.185 -0.317,0.885 0.423,0.568c0.74,-0.317 1.532,-0.766 2.074,-0.925c0.542,-0.158 1.281,-0.555 1.757,-0.621c0.476,-0.066 2.074,0.225 2.787,0.264c0.714,0.04 1.123,0.225 1.467,-0.039c0.343,-0.264 1.611,-2.299 1.611,-2.299c0,0 0.146,0.581 -0.343,1.334c-0.489,0.753 -0.898,1.454 -0.78,1.467c0.119,0.013 1.137,-0.291 1.493,-0.515c0.357,-0.225 1.017,-0.463 0.74,-0.727c-0.277,-0.264 -0.753,-0.225 -0.528,-0.66c0.224,-0.436 1.849,-2.246 2.087,-2.524c0.238,-0.277 0.383,-0.819 0.422,-1.136c0.04,-0.317 0,-0.568 0.225,-0.66c0.225,-0.093 1.004,-0.013 1.308,-0.449c-0,-0 0.277,0.105 -0.119,0.356c-0.396,0.251 -0.964,0.304 -1.004,0.634c-0.04,0.331 -0.079,1.031 -0.396,1.467c-0.317,0.436 -0.542,0.673 -0.542,0.898c0,0.225 1.757,-0.436 1.942,-0.502c0.185,-0.066 0.475,-0.079 0.238,0.185c-0.238,0.264 -0.436,0.423 -0.463,0.634c-0.026,0.211 -0.343,0.528 -0.092,0.436c0.251,-0.092 0.977,-0.225 1.4,-0.449c0.423,-0.225 0.938,-0.436 1.334,-0.555c0.397,-0.119 1.084,-0.33 1.374,-0.476c0.291,-0.145 1.282,-0.726 1.334,-1.096c0.053,-0.37 0.251,-0.66 -0.224,-0.977c-0.476,-0.318 -0.515,-0.674 -0.515,-0.674c-0,-0 0.462,0.132 0.673,0.172c0.212,0.039 0.317,-0 0.317,-0c0,-0 -0.171,-0.133 -0.713,-0.595c-0.542,-0.462 -0.885,-1.044 -1.295,-1.361c-0.409,-0.317 -0.937,-1.572 -1.122,-1.77c-0.185,-0.198 -0.423,-1.268 -0.542,-1.374c-0.119,-0.105 -0.409,-0.449 -0.647,-0.568c-0.238,-0.118 -1.519,-1.175 -1.678,-1.241c-0.158,-0.066 -0.584,-0.416 -0.584,-0.416c0,-0 0.505,0.032 0.849,0.297c0.343,0.264 0.343,0.356 0.554,0.555c0.212,0.198 0.528,0.343 0.872,0.475c0.343,0.132 0.951,0.119 0.951,0.423c0,0.304 0.093,0.687 0.251,1.017c0.159,0.33 0.436,0.938 0.634,1.308c0.198,0.37 0.766,1.07 0.872,1.176c0.106,0.105 1.017,0.977 1.189,1.321c0.172,0.343 0.726,0.634 1.004,0.964c0.277,0.33 1.149,1.017 1.625,1.334c0.475,0.317 1.651,1.361 0.845,1.03c-0.806,-0.33 -1.73,-1.175 -1.929,-1.347c-0.198,-0.172 -0.832,-0.528 -0.832,-0.528c0,-0 -0.039,0.237 -0.053,0.594c-0.013,0.357 0.119,0.7 -0.039,0.779c-0.159,0.08 -0.978,0.635 -1.295,0.806c-0.317,0.172 -1.321,0.753 -1.493,0.912c-0.171,0.158 0.304,0.224 0.212,0.489c-0.093,0.264 -0.225,0.607 -0.291,0.845c-0.066,0.238 0.079,0.396 -0.158,0.713c-0.238,0.317 -0.489,0.436 -0.568,0.687c-0.08,0.251 -0.172,0.225 -0,0.502c0.171,0.278 0.33,0.978 0.317,1.163c-0.014,0.185 -0.185,0.607 -0.185,0.607c-0,0 -0.278,-0.436 -0.397,-0.475c-0.118,-0.04 -0.237,0.29 -0.237,0.541c-0,0.251 -0.225,1.361 -0.476,1.559c0,0 0.119,-0.832 0.145,-1.083c0.027,-0.251 0,-0.753 -0.171,-0.674c-0.172,0.08 -0.714,0.238 -0.727,0c-0.013,-0.237 0.396,-0.502 0.515,-0.581c0.119,-0.079 0.529,-0.872 0.132,-0.845c-0.396,0.026 -0.62,0.528 -0.713,0.713c-0.092,0.185 -0.515,0.647 -0.687,0.766c-0.172,0.119 -0.475,0.238 -0.581,0.515c-0.106,0.278 -0.172,0.529 -0.198,0.74c-0.027,0.211 -0.238,0.449 -0.397,0.476c-0.158,0.026 -0.528,0.066 -0.528,0.066c0,-0 0.845,0.066 0.991,0.237c0.145,0.172 0.356,0.542 0.555,0.502c0.198,-0.039 0.792,0.133 1.136,-0.026c0.343,-0.158 1.255,-0.608 1.44,-0.753c0.185,-0.145 0.858,-0.66 1.004,-0.66c0.145,-0 0.739,-0.014 0.739,-0.014c0,0 -0.515,0.291 -0.805,0.489c-0.291,0.198 -0.674,0.647 -0.806,0.872c-0.132,0.225 -0.08,0.264 0.079,0.396c0.158,0.132 0.687,0.568 0.885,0.714c0.198,0.145 0.436,0.317 0.647,0.515c0.212,0.198 0.7,0.766 0.833,1.004c0.132,0.238 0.409,0.858 0.554,1.07c0.146,0.211 0.819,0.872 1.07,1.176c0.251,0.303 0.463,0.66 0.885,1.202c0.423,0.541 1.11,1.175 1.44,1.347c0.331,0.172 1.652,0.41 2.193,0.489c0.542,0.079 2.325,-0.04 2.906,-0.027c0.582,0.014 1.374,-0.251 1.374,-0.251c0,0 -0.356,0.41 -0.502,0.502c-0.145,0.093 -0.766,0.172 -1.175,0.185c-0.41,0.014 -2.524,0.04 -2.524,0.04c0,-0 0.185,0.462 0.806,0.634c0.621,0.172 1.335,0.317 1.612,0.37c0.277,0.053 0.674,0.225 1.413,0.277c0.74,0.053 1.929,0.357 2.352,0.185c0.423,-0.171 1.532,-0.422 1.876,-0.594c0.343,-0.172 0.554,-0.344 0.554,-0.344c0,0 -0.039,-0.422 -0.356,-0.528c-0.317,-0.106 -0.74,-0.661 -2.193,-0.41c-0,0 1.294,-0.264 1.783,-0.211c0.489,0.053 0.595,0.33 1.031,0.304c0.436,-0.026 2.351,-0.476 2.351,-0.476c0,0 -0.343,0.568 -0.594,0.767c-0.251,0.198 -0.886,1.056 -1.07,1.228c-0.185,0.172 -1.044,0.634 -1.321,0.727c-0.278,0.092 -1.401,0.409 -1.718,0.581c-0.317,0.172 -1.334,0.806 -1.942,0.7c0,0 0.172,-0.41 0.383,-0.449c0.212,-0.04 0.331,-0 0.476,-0.04c0.145,-0.039 0.462,-0.277 0.04,-0.238c-0.423,0.04 -1.255,0.014 -1.665,-0.052c-0.409,-0.066 -0.555,-0.251 -1.162,-0.225c-0.608,0.026 -0.753,0.04 -1.282,0.066c-0.528,0.027 -0.99,0.145 -1.558,0.238c-0.568,0.092 -1.176,0.079 -1.546,-0.04c-0.37,-0.119 -0.753,-0.238 -1.519,-0.105c-0.392,0.067 -0.657,0.218 -0.821,0.349c-0.132,0.14 -0.223,0.232 -0.223,0.232c0,-0 0.066,-0.107 0.223,-0.232c0.279,-0.293 0.743,-0.798 0.94,-1.102c0.29,-0.45 1.268,-0.846 0.845,-1.308c-0.423,-0.463 -1.136,-1.136 -1.36,-1.467c-0.225,-0.33 -0.476,-0.7 -0.925,-0.647c-0.449,0.053 -0.396,-0.053 -0.396,-0.053c-0,0 0.026,-0.383 0.066,-0.647c0.039,-0.264 0.132,-0.898 -0.066,-1.189c-0.199,-0.29 -0.384,-0.449 -0.806,-0.515c-0.423,-0.066 -0.542,-0.079 -0.542,-0.079c0,-0 0.079,-0.106 0.013,-0.582c-0.066,-0.475 -0.145,-0.845 -0.515,-1.109c-0.37,-0.264 -0.819,-0.951 -1.043,-1.202c-0.225,-0.251 -0.978,-0.819 -0.978,-0.819c-0,-0 -0.291,0.158 -0.423,0.607c-0.132,0.449 -0.528,0.965 -0.528,0.965c-0,-0 -0.159,-0.238 -0.132,-0.529c0.026,-0.29 0.422,-1.136 0.422,-1.136c0,0 -0.409,0.661 -0.845,0.898c-0.436,0.238 -0.964,0.569 -1.11,0.555c-0.145,-0.013 0.542,-0.647 -0.185,-0.502c-0.726,0.146 -2.338,1.335 -2.602,1.414c-0.264,0.079 -0.158,-0.383 0.198,-0.674c0.357,-0.291 1.374,-0.859 1.4,-1.03c0.027,-0.172 0.318,-0.449 -0.211,-0.555c-0.528,-0.106 -0.528,-0.542 -0.713,-0.555c-0.185,-0.013 -0.502,-0.343 -0.661,0.093c-0.158,0.435 -0.132,0.792 -0.422,0.99c-0.291,0.198 -0.886,0.436 -1.189,0.806c-0.304,0.37 -0.872,0.978 -0.872,0.978c-0,-0 -0.066,-0.885 0.383,-1.229c0.449,-0.343 0.779,-0.621 0.779,-0.621c0,0 -0.356,-0.29 -0.594,-0.211c-0.238,0.079 -0.555,0.33 -1.176,0.621c-0.621,0.29 -0.423,0.37 -0.687,0.621c-0.264,0.251 -0.37,0.198 -0.33,0.607c0.04,0.41 0.198,1.136 0.211,1.255c0.014,0.119 -0.158,0.621 -0.436,0.819c-0.277,0.198 -1.122,0.766 -1.321,0.925c-0.198,0.158 -0.449,0.092 -0.7,0.264c-0.251,0.172 0.581,-0.66 0.793,-0.911c0.189,-0.225 0.473,-0.577 0.673,-0.752c-0.184,0.039 -0.439,0.06 -0.702,0.096c-0.3,0.041 -0.579,0.331 -0.744,0.465c-0.166,0.134 -0.083,-0.01 -0.341,-0.238c-0.135,-0.118 -0.315,-0.169 -0.47,-0.194Zm95.994,21.92c0.238,0.123 0.468,0.754 0.052,1.183c-0.416,0.429 -0.897,1.209 -1.118,1.235c-0.221,0.026 -0.507,-0.143 -0.689,-0.312c-0.182,-0.169 -0.52,-0.234 -0.442,-0.494c0.078,-0.26 0.793,-0.962 1.118,-1.196c0.325,-0.234 0.702,-0.611 1.079,-0.416Zm-110.529,-2.425c-0.084,0.051 -1.041,0.956 -1.127,1.193c-0.086,0.236 0.139,0.827 0.118,1.364c-0.022,0.537 -0.097,1.546 -0.097,1.546c0,0 0.301,-0.44 0.494,-0.698c0.194,-0.257 0.408,-0.633 0.484,-1.192c0.075,-0.559 -0.129,-1.225 -0.076,-1.429c0.054,-0.204 0.312,-0.848 0.204,-0.784Zm-5.364,-3.352c0,-0 0.269,-0.296 0.686,-0.364c0.418,-0.067 0.606,-0.228 0.552,0.243c-0.054,0.471 -0.054,0.377 -0.148,0.848c-0.094,0.471 -0.296,0.807 -0.081,1.036c0.216,0.229 0.848,-0.054 1.467,-0.108c0.62,-0.054 1.252,-0.175 1.01,0.027c-0.242,0.202 -0.592,0.458 -0.942,0.66c-0.35,0.201 -0.646,0.107 -0.633,0.565c0.014,0.457 0.108,0.78 -0.067,1.211c-0.175,0.431 -0.431,1.225 -0.861,1.292c-0.431,0.067 -0.848,0.094 -0.848,0.094l-0.135,-5.504Zm89.521,-1.115c0,0 0.953,1.354 1.414,1.622c0.461,0.268 2.485,0.937 2.485,0.937c-0,0 -0.997,-0.401 -2.098,-1.249c-1.101,-0.849 -1.801,-1.31 -1.801,-1.31Zm-65.502,-10.721c-0,0 -0.856,0.555 -1.123,0.927c-0.268,0.372 -0.666,0.34 -0.411,-0.202c0.254,-0.542 1.129,-0.875 1.534,-0.725Zm9.99,-3.409c0.119,-0.017 0.189,0.062 0.196,0.145c0.007,0.083 -0.05,0.168 -0.187,0.164c-0.274,-0.009 -0.287,-0.269 -0.009,-0.309Zm44.877,-6.832c0.05,0.321 0.185,0.677 0.472,1.022c0.878,1.057 2.024,1.22 2.024,1.22c-0,0 0.327,0.372 0.625,0.611c0.297,0.238 1.026,0.788 1.131,0.892c0.037,0.038 0.032,0.11 0.219,0.528c-1.041,-0.994 -1.373,-0.873 -2.408,-1.338c-0.463,-0.208 -0.232,-0.442 -1.294,-0.767c-0.746,-0.229 -1.692,-0.237 -1.666,-0.03c0.059,0.476 1.265,0.533 1.949,0.729c1.061,0.305 2.214,1.159 2.976,1.681c-0.746,-0.183 -1.805,-0.596 -2.262,-0.728c-0.669,-0.194 -2.782,-0.848 -3.437,-1.087c-0.655,-0.238 -2.157,-0.038 -2.768,-0.238c-0.818,-0.267 -1.265,-0.282 -1.265,-0.282c0,-0 0.611,-0.399 1.459,-0.387c5.015,0.071 -0.774,-0.61 -0.179,-0.595c0.595,0.014 4.033,0.104 4.211,-0.015c0.115,-0.077 0.18,-0.745 0.213,-1.216Zm-14.036,2.232c0,0 2.993,1.509 3.234,1.535c0.241,0.025 3.538,-0.064 3.538,-0.064c-0,0 -3.031,-0.482 -3.589,-0.646c-0.558,-0.165 -3.183,-0.825 -3.183,-0.825Zm-0.887,-4.425c-0,-0 0.836,0.342 1.217,0.71c0.38,0.368 0.875,0.469 1.217,0.685c0.343,0.215 1.18,0.57 1.522,0.913c0.342,0.342 1.357,1.356 1.674,1.534c0.317,0.178 1.04,0.33 1.331,0.216c0.292,-0.115 1.547,-0.634 1.814,-0.799c0.266,-0.165 0.342,-0.47 1.509,-0.66c-0,0 -0.761,-0.101 -1.383,-0.089c-0.621,0.013 -1.23,0.14 -1.23,0.14c0,-0 0.888,0.127 1.104,0.165c-0,-0 -0.026,0.279 -0.533,0.444c-0.507,0.165 -0.913,0.482 -1.306,0.444c-0.393,-0.039 -1.116,-0.305 -0.976,-0.533c0.139,-0.228 0.836,-0.457 0.989,-0.507c-0,-0 -0.393,-0.076 -0.825,-0.114c-0.431,-0.039 -0.824,-0.216 -1.204,-0.343c-0.381,-0.127 -0.013,-0.304 0.165,-0.368c0.177,-0.063 0.025,-0.19 -0.406,-0.215c-0.431,-0.026 -1.294,-0.33 -1.585,-0.444c-0.292,-0.114 -0.85,-0.304 -1.218,-0.457c-0.367,-0.152 -1.23,-0.672 -1.876,-0.722Zm-27.067,1.778c0.249,0.001 0.546,0.043 0.596,0.05l0.008,0.001c-0.348,0.145 -0.658,0.193 -1.003,0.254c-0.344,0.06 -0.111,-0.193 0.112,-0.274c0.062,-0.023 0.16,-0.031 0.269,-0.031l0.018,-0Zm1.547,-0.438c0.057,-0.041 0.295,-0.108 0.435,-0.179c0.192,-0.099 0.456,-0.264 0.719,-0.416c0.263,-0.152 1.124,-0.455 0.638,-0.506c-0.486,-0.051 -1.155,-0.334 -1.155,-0.334c0,-0 0.912,-0.092 1.297,-0.081c0.385,0.01 1.388,-0.112 1.631,-0.213c0.243,-0.101 1.266,-0.193 1.671,-0.446c0.405,-0.253 0.638,-0.446 0.882,-0.668c0.243,-0.223 1.043,-0.578 1.398,-0.76c0.354,-0.183 0.749,-0.101 0.749,-0.101c0,-0 -0.395,0.374 -0.77,0.607c-0.375,0.233 -0.719,0.395 -1.134,0.76c-0.416,0.365 -0.284,0.405 -0.79,0.537c-0.507,0.132 0.131,0.213 0.131,0.213c0,-0 -0.435,0.05 -0.587,0.01c-0.152,-0.041 -0.203,0.091 -0.081,0.172c0.121,0.081 1.124,1.074 1.124,1.074c0,-0 -1.408,-1.185 -1.621,-1.185c-0.212,-0 -0.709,0.233 -1.023,0.314c-0.314,0.081 -0.628,0.212 -0.982,0.395c-0.355,0.182 -0.537,0.537 -0.821,0.719c-0.248,0.159 -1.008,0.179 -1.336,0.175c-0.127,-0.029 -0.255,-0.059 -0.375,-0.087Zm35.867,-0.592c0,-0 -0.71,0.444 -1.052,0.494c-0.343,0.051 -1.611,0.076 -1.611,0.076c0,0 1.116,-0.24 1.535,-0.38c0.418,-0.139 1.128,-0.19 1.128,-0.19Zm10.274,-19.228c0.114,0.192 0.217,0.382 0.304,0.585c0.041,0.249 0.08,0.489 0.105,0.644c0.076,0.466 0.114,0.755 0.353,1.095c0.239,0.34 0.34,0.466 0.327,0.831c-0.012,0.366 0.214,0.693 -0.151,0.895c-0.365,0.201 -1.284,0.491 -1.435,0.717c-0.151,0.227 -0.34,0.177 -0.378,0.693c-0.038,0.516 -0.101,0.806 0.176,0.743c0.277,-0.063 0.781,-0.39 0.894,-0.265c0.114,0.126 0.34,0.844 0.58,0.643c0.239,-0.202 0.566,-0.718 0.705,-0.768c0.138,-0.051 0.365,0.642 0.68,0.805c0.315,0.164 0.755,0.869 0.894,0.303c0.138,-0.567 0.201,-1.171 0.063,-1.7c-0.139,-0.529 -0.34,-1.247 -0.428,-1.549c-0.089,-0.302 -0.315,-1.096 -0.328,-1.423c-0.012,-0.328 -0.138,-0.605 -0.441,-0.731c-0.302,-0.125 -0.566,-0.377 -0.566,-0.554c-0,-0.089 0.022,-0.133 0.033,-0.216c0.057,-0.129 0.579,-0.208 0.609,-0.224c0.313,-0.172 0.527,-2.558 0.604,-1.889c0.062,0.532 1.109,1.8 1.184,1.977c0.076,0.176 1.033,0.604 1.234,0.919c0.202,0.315 -0.264,-2.858 0.088,-2.733c0.573,0.205 1.297,1.612 1.348,1.915c0.05,0.302 0.453,1.422 0.453,1.422c0,0 -0.252,0.693 -0.39,0.869c-0.139,0.177 -0.794,0.416 -0.718,0.554c0.076,0.139 0.013,0.882 0.264,1.159c0.252,0.277 0.643,1.146 0.718,1.549c0.076,0.403 0.239,1.007 0.731,1.335c0.491,0.327 0.617,0.478 0.957,0.214c0.34,-0.265 1.649,-0.894 1.851,-1.02c0.201,-0.126 0.088,0.1 -0.164,0.39c-0.252,0.29 -0.478,0.781 -0.768,1.146c-0.29,0.365 -0.894,1.524 -1.083,1.776c-0.189,0.251 -0.403,0.226 -0.428,0.629c-0.025,0.403 -0.189,0.63 -0.202,0.831c-0.012,0.202 -0.453,-0.063 -0.453,0.101c-0,0.164 -0.139,1.31 -0.202,1.436c-0.062,0.126 -0.062,-1.688 -0.062,-1.927c-0,-0.239 -0.353,-0.693 -0.555,-0.932c-0.201,-0.239 -0.365,-0.227 -0.604,-0.516c-0.239,-0.29 -0.264,-0.403 -0.617,-0.718c-0.353,-0.315 -0.705,-0.73 -1.058,-0.97c-0.352,-0.239 0,-0.113 -0.844,-0.44c-0.843,-0.328 -0.805,-0.391 -1.208,-0.441c-0.403,-0.05 -0.454,-0.101 -0.983,-0.101c-0.529,0 -0.906,-0.05 -1.246,-0.012c-0.34,0.037 -1.108,0.151 -1.323,0.226c-0.214,0.076 -0.705,0.252 -0.566,0.252c0.138,0 0.68,0 0.995,-0.012c0.314,-0.013 0.856,0.163 1.234,0.377c0.377,0.214 0.784,0.729 0.717,1.108c-0.113,0.643 -0.78,0.983 -1.045,1.197c-0.264,0.214 -1.75,0.68 -2.153,0.68c-0,-0 2.184,-0.632 2.594,-1.864c0.264,-0.793 -0.793,-1.297 -1.423,-1.284c-0.63,0.012 -1.675,0.176 -2.279,0.705c-0.605,0.529 -0.567,1.095 -0.554,1.209c0.012,0.113 -0.139,0.201 -0.139,0.201l-0.163,-0.176c-0,-0 -0.114,0.012 -0.215,0.239c-0.1,0.227 -0.365,0.982 -0.68,1.222c-0.314,0.239 -0.251,0.277 -0.226,0.667c0.025,0.39 0.352,1.385 0.302,1.549c-0.05,0.164 -0.894,0.718 -1.058,0.982c-0.163,0.265 -1.083,1.725 -1.272,1.914c-0.189,0.189 -0.818,0.857 -0.818,0.857c-0,-0 0.592,-0.114 0.793,-0.252c0,-0 -0.327,0.491 -0.844,0.604c-0.516,0.113 -0.692,0.315 -1.158,0.378c-0.466,0.063 -1.247,0.088 -1.612,0.214c-0.365,0.126 -2.197,0.689 -2.197,0.689c0,-0 2.046,-0.853 2.298,-0.916c0.252,-0.063 1.435,-0.239 1.864,-0.415c0.428,-0.177 1.057,-0.743 1.473,-1.297c0.415,-0.554 1.095,-1.486 1.284,-1.839c0.189,-0.352 0.428,-0.554 0.391,-0.894c-0.038,-0.34 -0.416,-1.045 -0.403,-1.272c0.012,-0.226 0.856,-1.133 0.957,-1.41c0.101,-0.277 0.34,-1.033 0.541,-1.473c0.202,-0.441 0.605,-1.612 0.668,-1.94c0.063,-0.327 -0.051,-1.234 -0.139,-1.574c-0.088,-0.34 -0.516,-1.423 -0.718,-1.687c-0.201,-0.265 -1.07,-0.655 -1.12,-0.756c-0.051,-0.101 -0.177,-0.743 -0.177,-0.743c0,0 0.731,-0.126 0.794,-0.264c0.063,-0.139 0.264,-0.378 0.189,-0.844c-0.076,-0.466 -0.177,-1.977 -0.177,-1.977c0,0 -0.214,-1.297 0.353,-0.554c0.567,0.743 0.869,0.617 1.196,0.831c0.328,0.214 0.869,0.113 0.882,0c0.012,-0.113 -0.063,-1.473 0.088,-1.284c0.151,0.189 0.843,0.755 0.894,1.032c0.05,0.277 0.579,1.184 0.718,1.423c0.022,0.038 0.162,0.092 0.201,0.151c0.265,0.403 0.466,0.617 0.554,0.932c0.088,0.315 0.189,0.592 0.34,0.806c0.151,0.214 0.302,0.34 0.34,-0.063c0.038,-0.403 -0.05,-1.196 -0.025,-1.738c0.02,-0.42 -0.006,-0.811 -0.019,-0.964Zm-74.361,17.49c0.499,-0.237 0.684,-0.394 0.627,-0.445c-0.056,-0.05 -0.354,0.005 -0.819,0.192c-0.93,0.374 -0.981,0.809 0.192,0.253Zm13.205,-1.143c0.21,-0.026 0.317,0.111 0.319,0.259c0.003,0.148 -0.097,0.307 -0.299,0.328c-0.405,0.04 -0.435,-0.536 -0.02,-0.587Zm23.721,-0.567c0,-0 0.366,0.049 0.761,-0.198c0.328,-0.205 0.336,-0.415 0.514,-0.712c0.178,-0.296 0.524,-0.642 0.554,-0.959c0.03,-0.316 0.287,-0.455 -0.168,-0.692c-0.455,-0.237 -0.781,-0.455 -0.999,-0.524c-0.217,-0.069 -0.593,-0.019 -1.097,-0.277c-0.504,-0.257 -1.394,-0.158 -1.493,-0.128c-0.098,0.03 -1.443,0.306 -1.996,0.297c-0.554,-0.01 -0.692,0.069 -1.009,0.454c-0.316,0.386 -0.534,0.682 -1.235,0.791c-0.702,0.109 -1.592,0.129 -1.592,0.129c0,-0 0.84,0.375 0.989,0.395c0.148,0.02 1.235,-0.059 1.374,-0.168c0.138,-0.109 0.83,-0.672 0.988,-0.811c0.158,-0.138 0.435,-0.365 1.028,-0.385c0.593,-0.02 1.285,-0.247 1.948,-0.208c0.662,0.04 1.186,-0.069 1.502,0.05c0.317,0.118 1.019,0.316 1.028,0.652c0.01,0.336 0.099,0.89 -0.138,1.177c-0.237,0.286 -0.692,0.949 -0.959,1.117Zm-21.831,-2.456c-0.381,-0.018 -1.423,0.023 -1.405,0.013c0.182,-0.101 0.394,-0.294 0.799,-0.415c0.404,-0.121 -0.101,-0.334 -0.354,-0.505c-0.253,-0.172 -1.143,-0.354 -1.143,-0.354c1.436,-0.617 1.81,0.566 2.538,0.586c0.728,0.02 0.94,-0.516 1.112,-0.677c0.172,-0.162 0.435,-0.941 0.435,-0.941c0.081,0.994 -0.536,1.588 -0.738,1.709c-0.202,0.121 -0.263,0.455 -0.384,0.657c-0.122,0.203 -0.293,0.334 -0.627,0.617c-0.334,0.283 -0.678,0.253 -1.133,0.364c-0.454,0.111 -1.223,0.586 -1.567,0.627c-0.343,0.04 -0.081,-0.121 0.233,-0.465c0.122,-0.134 0.387,-0.355 0.431,-0.545c0.154,-0.077 0.465,-0.157 0.641,-0.206c0.657,-0.182 2.012,-0.425 1.162,-0.465Zm-8.169,-1.464c-0,0 -0.566,-0.303 -0.718,-0.364c-0.152,-0.06 -0.384,-0.07 -0.475,-0.151c-0.091,-0.081 -0.132,-0.374 0.141,-0.546c0.273,-0.172 0.718,-0.465 1.052,-0.667c0.334,-0.203 0.859,-0.83 1.324,-1.062c0.465,-0.233 0.556,-0.293 0.941,-0.303c0.384,-0.011 0.687,-0.233 1.001,-0.253c0.313,-0.02 1.848,-0.14 2.466,0.277c0,0 -0.502,0.084 -0.846,0.094c-0.344,0.011 -0.518,-0.209 -0.822,-0.199c-0.303,0.01 -0.869,0.091 -1.081,0.222c-0.213,0.132 -0.476,0.516 -1.143,0.809c-0.667,0.293 -1.345,0.698 -1.8,0.91c-0.455,0.212 -0.657,0.354 -0.536,0.465c0.122,0.111 0.577,0.435 0.769,0.516c0.192,0.081 0.778,0.566 -0.273,0.252Zm8.483,-2.557c-0,-0 0.596,0.525 0.829,0.697c0.232,0.172 0.283,0.334 0.839,0.556c0.556,0.223 1.183,0.364 1.314,0.506c0.132,0.141 0.112,0.576 0.112,0.576c-0,0 0.121,-0.384 0.445,-0.657c0.323,-0.273 1.091,-0.283 1.091,-0.546c0,-0.263 -0.283,-0.324 -0.323,-0.647c-0.041,-0.324 -0.151,-1.436 -0.586,-1.77c0,0 0.425,1.142 0.284,1.375c-0.142,0.232 -0.173,0.162 -0.628,0.142c-0.455,-0.02 -0.455,-0.091 -0.728,0.071c-0.273,0.162 -0.384,0.232 -0.728,0.242c-0.344,0.011 -1.031,-0.1 -1.921,-0.545Zm55.745,0.394c0,0 0.406,0.553 1.282,0.083c0.877,-0.471 1.118,-1.282 0.23,-1.335c-0.888,-0.053 -1.012,0.459 -1.012,0.459c0,-0 1.323,-0.465 1.188,0.017c-0.135,0.482 -0.835,1.17 -1.688,0.776Zm-1.131,-7.763c-0,0 0.592,0.693 0.655,0.944c0.063,0.252 -0.164,0.605 -0.504,0.252c-0.34,-0.352 -0.277,-0.667 -0.151,-1.196Zm7.896,-0.982c-0,-0 0.78,0.604 0.894,0.969c0.113,0.366 0.151,0.769 -0.063,0.819c-0.214,0.05 -0.731,-0.05 -0.831,-0.239c-0.101,-0.189 -0.504,-1.436 -0,-1.549Zm-12.508,-6.01c0,0 -0.756,-0.938 -1.008,-1.176c-0.252,-0.238 -0.77,-0.378 -0.714,-0.182c0.056,0.196 -0.658,-0.812 -0.966,-1.274c-0.308,-0.462 -1.12,-0.798 -1.358,-1.05c-0.238,-0.252 -0.378,-0.28 -0.378,-0.28c-0,-0 0.07,0.56 0.14,0.672c0.07,0.112 -0.504,0.042 -0.504,0.042c-0,-0 0.154,0.084 0.406,0.294c0.252,0.21 0.882,0.532 0.882,0.532c-0,-0 -0.112,-0.453 -0.028,-0.448c0.084,0.004 0.322,0.21 0.532,0.476c0.21,0.266 0.42,0.448 0.588,0.798c0.168,0.35 0.378,1.232 0.476,1.442c0.098,0.21 0.616,0.056 0.588,-0.294c-0.028,-0.35 -0.07,-0.742 0.238,-0.434c0.308,0.308 0.658,0.56 1.106,0.882Z" style="fill:#f8c35e;"/><path d="M65.431,109.914l-0.5,0.085c-0,-0 0.012,-2.23 0.073,-2.45c0.061,-0.219 1.133,-1.743 1.146,-2.047c0.012,-0.305 -0.098,-0.573 0.134,-0.744c0.231,-0.171 0.548,-0.134 0.658,-0.268c0.11,-0.134 1.011,-1.195 1.219,-1.45c0.207,-0.256 0.95,-0.403 1.121,-0.488c0.171,-0.085 0.244,-0.171 0.268,-0.463c0.025,-0.293 0.317,-1 0.512,-1.256c0.195,-0.256 0.987,-1.133 1.036,-1.304c0.049,-0.17 0.061,-0.536 0.207,-0.743c0.147,-0.207 0.744,-0.183 0.878,-0.378c0.134,-0.195 1.341,-1.645 1.56,-1.682c0.219,-0.037 0.719,-0.158 0.719,-0.158c0,-0 0.256,-0.488 0.341,-0.659c0.086,-0.17 0.549,-0.767 0.829,-0.999c0.28,-0.232 0.975,-0.829 1.048,-1.012c0.073,-0.182 -0.061,-0.633 0.171,-0.78c0.231,-0.146 0.719,-0.158 0.829,-0.219c0.109,-0.061 1.219,-1.012 1.584,-0.963c0.366,0.049 0.853,0.207 0.853,0.207c0,0 0.415,0.268 0.183,0.707c-0.231,0.439 -2.413,2.206 -2.535,2.316c-0.122,0.11 -1.609,1.414 -1.84,1.67c-0.232,0.256 -1.707,1.974 -2.048,2.352c-0.341,0.378 -2.657,2.657 -2.84,3.035c-0.183,0.378 -0.902,1.255 -1.231,1.706c-0.329,0.451 -1.901,2.694 -2.401,3.413c-0.5,0.719 -1.645,1.901 -1.974,2.572Z" style="fill:#e4b766;"/></g></g></svg>