<?xml version="1.0" encoding="UTF-8" standalone="no"?><!DOCTYPE svg PUBLIC "-//W3C//DTD SVG 1.1//EN" "http://www.w3.org/Graphics/SVG/1.1/DTD/svg11.dtd"><svg width="100%" height="100%" viewBox="0 0 150 150" version="1.1" xmlns="http://www.w3.org/2000/svg" xmlns:xlink="http://www.w3.org/1999/xlink" xml:space="preserve" xmlns:serif="http://www.serif.com/" style="fill-rule:evenodd;clip-rule:evenodd;stroke-linejoin:round;stroke-miterlimit:2;"><path id="base" d="M150,75c0,-41.394 -33.606,-75 -75,-75c-41.394,0 -75,33.606 -75,75c0,41.394 33.606,75 75,75c41.394,0 75,-33.606 75,-75Z" style="fill:#daaf57;"/><path id="outline" d="M144,75c0,-38.082 -30.918,-69 -69,-69c-38.082,0 -69,30.918 -69,69c0,38.082 30.918,69 69,69c38.082,0 69,-30.918 69,-69Z" style="fill:#0b1324;"/><path id="core" d="M141,75c0,-36.426 -29.574,-66 -66,-66c-36.426,0 -66,29.574 -66,66c0,36.426 29.574,66 66,66c36.426,0 66,-29.574 66,-66Z" style="fill:#97c6ce;"/><clipPath id="_clip1"><path d="M141,75c0,-36.426 -29.574,-66 -66,-66c-36.426,0 -66,29.574 -66,66c0,36.426 29.574,66 66,66c36.426,0 66,-29.574 66,-66Z"/></clipPath><g clip-path="url(#_clip1)"><g id="fizz"><path d="M21.02,115.446l63.839,-16.944l5.083,16.86c-11.799,16.245 -29.672,24.761 -56.383,22.028l-12.539,-21.944Z" style="fill:#1c1d2f;"/><path d="M36.993,131.076l-17.516,-15.96l-2.394,-11.362l72.465,-11.971l9.862,1.787l6.046,1.551l-4.355,16.663c0,-0 -2.549,1.224 -3.478,1.867c-0.929,0.644 -4.788,3.145 -4.788,3.145l-16.044,7.003c0,0 -0.679,-3.108 -0.607,-3.609c0.071,-0.5 -0.429,-2.501 -0.643,-3.644c-0.215,-1.144 -0.536,-4.074 -0.536,-5.11c-0,-1.036 0.357,-2.859 0.357,-2.859c0,0 2.108,2.43 3.323,3.145c1.215,0.715 3.395,2.215 3.395,2.215c-0.072,-0.571 0.393,-3.752 0.536,-4.395c0.143,-0.643 0.464,-1.894 0.464,-1.894c0.894,0.644 1.823,3.038 1.823,3.038c-0,-0 0.071,-0.965 0.107,-1.715c0.036,-0.751 -0.511,-2.264 -0.582,-3.765c-0.072,-1.501 -1.598,-2.524 -1.598,-2.524c0,-0 -4.038,-1.858 -2.501,-0.108c1.536,1.751 1.572,5.36 1.465,6.575c-0.107,1.215 -1.072,3.109 -1.072,3.109c-0,-0 -0.465,-0.536 -0.893,-1.001c-0.429,-0.464 -1.501,-1.393 -2.073,-2.501c-0.572,-1.108 -3.037,-2.144 -3.037,-2.144l-1.251,0.215c0,-0 0.536,2.858 0.429,4.573c-0.107,1.715 0.107,5.146 0.5,7.325c0.393,2.18 -0.214,1.573 -0.214,1.573c-0,-0 -5.396,-3.073 -6.36,-3.788c-0.965,-0.715 -2.823,-2.751 -3.18,-3.216c-0.358,-0.464 -3.181,-1.965 -3.181,-1.965c0,-0 0.572,1.929 0.858,2.715c0.286,0.787 0.179,2.287 0.179,2.287c-0,0 3.215,3.716 4.823,5.146c1.608,1.429 4.931,4.609 4.931,4.609l-12.291,10.22l-13.936,-2.073c0,0 -0.107,-5.324 0,-6.253c0.107,-0.929 0.786,-6.039 0.786,-6.039c0,0 1.823,3.609 3.109,5.396c1.286,1.786 4.145,6.003 4.145,6.003l3.251,-1.036c0,-0 -1.143,-2.859 -1.608,-4.324c-0.273,-0.862 -0.856,-3.632 -1.333,-5.961c-0.028,1.294 0.048,2.52 0.048,2.52c0,0 -1.775,-2.152 -2.582,-3.039c-0.807,-0.888 -1.776,-2.314 -2.179,-3.013c-0.277,-0.48 -0.717,-1.688 -0.999,-2.69c-0.724,0.244 -1.497,0.496 -2.237,0.728c-0.199,1.503 -0.584,3.425 -0.799,4.248c-0.323,1.238 -0.161,3.309 -0.377,5.111c-0.215,1.803 -0.322,4.17 -0.322,4.17c-0,-0 -3.04,-3.013 -3.955,-4.573c-0.776,-1.325 -2.594,-4.105 -2.992,-6.695c-0.561,0.106 -1.104,0.18 -1.608,0.205c-0.065,0.003 -0.132,0.006 -0.2,0.008c-0.237,1.345 -1.148,5.91 -0.499,8.042c0.753,2.475 1.318,4.035 1.318,4.035Z" style="fill:#6f7c74;"/><path d="M24.35,117.599c0,0 0.161,0.215 1.533,0.431c1.372,0.215 2.906,0.538 5.192,0.645c2.287,0.108 6.429,-0.134 7.559,-0.323c1.13,-0.188 4.681,-0.914 5.972,-1.425c1.291,-0.511 4.142,-1.453 4.653,-1.695c0.512,-0.242 3.686,-1.641 3.686,-1.641c-0,0 -0,1.506 0.08,1.802c0.081,0.296 0.054,0.754 0.054,0.754c0,-0 -1.399,0.376 -2.367,0.887c-0.968,0.511 -1.022,0.727 -1.991,0.915c-0.968,0.188 -1.506,0.242 -2.044,0.457c-0.538,0.215 -0.646,0 -1.802,0.323c-1.157,0.323 -1.184,0.269 -1.695,0.619c-0.511,0.349 -1.13,0.296 -1.91,0.242c-0.78,-0.054 -0.592,-0.565 -1.264,-0.162c-0.673,0.404 -0.538,0.377 -1.022,1.076c-0.485,0.7 -0.485,0.888 -1.157,1.076c-0.673,0.189 -2.206,0.404 -2.932,0.323c-0.726,-0.081 -2.233,-1.13 -2.636,-1.13c-0.404,0 -0.619,0.485 -0.915,0.646c-0.296,0.161 -0.054,-0 -0.968,0.161c-0.915,0.162 -0.888,-0.027 -1.157,0.404c-0.269,0.43 -1.506,0.403 -1.506,0.403l-3.363,-4.788Zm34.486,-5.138l0.269,0.484c-0,0 0.43,-0.457 1.022,-0.591c0.592,-0.135 0.511,-0.269 1.291,-0.135c0.78,0.135 0.538,0.484 1.13,0.162c0.592,-0.323 0.673,-0.565 1.184,-0.807c0.511,-0.243 0.215,-0 0.941,-0.377c0.726,-0.377 0.484,-0.054 0.888,-0.565c0.403,-0.511 0.403,-1.291 1.076,-1.345c0.672,-0.054 1.291,0.108 1.721,0.108c0.431,-0 0.619,0.188 1.103,-0.511c0.485,-0.7 0.7,-1.372 0.7,-1.372c-0,-0 1.076,-0.323 1.452,-0.323c0.377,-0 1.13,0.107 1.48,0.134c0.35,0.027 0.619,0.619 1.695,-0.027c1.076,-0.645 1.587,-1.398 2.125,-2.125c0.538,-0.726 0.565,-1.076 1.56,-1.345c0.995,-0.269 0.511,0.054 1.479,-0.43c0.969,-0.484 1.856,-0.942 2.287,-0.673c0.43,0.269 1.432,0.783 1.432,0.783c-0,0 -0.168,-2.558 -1.701,-2.8c-1.533,-0.242 -1.964,-0.054 -3.094,0.457c-1.129,0.511 -4.573,2.045 -5.353,2.583c-0.78,0.538 -7.559,4.331 -8.769,4.869c-1.211,0.538 -5.165,2.555 -5.73,2.851c-0.565,0.296 -0.188,0.995 -0.188,0.995Z" style="fill:#553e5d;"/><path d="M40.901,134.561c0.414,-0.23 2.714,-1.012 3.91,-1.058c1.196,-0.046 2.945,0.276 4.279,0.138c1.334,-0.138 0.092,-0.69 2.898,-1.15c2.807,-0.46 4.325,-0.782 5.429,-1.242c1.104,-0.46 0.506,-0.322 3.037,-0.966c2.53,-0.645 4.048,-1.381 4.876,-2.163c0.828,-0.782 1.565,-1.748 2.899,-2.806c1.334,-1.058 1.886,-1.978 3.634,-2.163c1.749,-0.184 3.359,-0.138 4.003,-0.552c0.644,-0.414 0.69,-0.506 1.932,-2.162c1.242,-1.656 1.84,-3.312 3.911,-5.613c2.07,-2.3 1.748,-0.598 3.036,-3.404c1.288,-2.807 1.334,-3.497 1.795,-3.727c0.46,-0.23 2.3,2.991 2.3,2.991c-0,-0 1.61,-2.853 2.346,-3.957c0.736,-1.104 0.966,-1.38 1.38,-2.07c0.414,-0.69 0.967,-1.564 1.519,-1.518c0.552,0.046 1.426,-0.415 4.416,-1.933c2.991,-1.518 5.036,-2.484 5.036,-2.484c-0,-0 -0.015,2.14 -0.153,2.83c-0.138,0.69 0.147,1.952 0.101,2.688c-0.046,0.736 12.228,2.564 14.702,2.295c3.31,-0.359 19.668,0.389 19.668,0.389c-28.667,43.156 -61.608,44.615 -94.654,30.444c0,-0 -2.714,-2.577 -2.3,-2.807Z" style="fill:#3784ba;"/><path d="M15.866,103.15c-1.964,-1.288 -3.617,-2.381 -3.617,-2.381l0.179,-1.215c-0,0 4.356,-2.928 4.999,-3.356c0.643,-0.429 2.964,-1.465 4.607,-2.036c1.643,-0.571 5.249,-2.357 6.464,-2.893c1.214,-0.535 9.07,-4.249 10.427,-4.606c1.357,-0.357 8.607,-1.679 10.285,-2.107c1.678,-0.429 14.963,-0.929 16.356,-0.893c1.392,0.036 7.463,1.857 7.963,1.893c0.5,0.035 0.822,-0.322 1.571,-1.072c0.75,-0.75 1.643,-2.642 2.036,-3.214c0.393,-0.571 7.142,-10.463 7.142,-10.463l4.785,2.535c0,0 0.036,5.357 -0.035,5.857c-0.072,0.5 -1.643,2.5 -1.857,3.071c-0.214,0.572 1.75,2.179 2.142,2.607c0.393,0.429 0.643,4 0.75,4.464c0.108,0.464 1.465,0.893 2.607,1.143c1.143,0.25 5.587,2.315 6.293,2.721c0.811,0.467 0.665,0.432 0.201,0.468c-0.464,0.036 -6.494,-0.047 -8.636,-0.118c-2.143,-0.071 -10.285,0.821 -11.428,1.214c-1.143,0.393 -4.928,0.857 -6.999,1.429c-2.072,0.571 -10.106,3.678 -10.856,3.928c-0.75,0.25 -5.893,1.928 -7.285,2.25c-1.393,0.321 -8.75,2.999 -9.928,3.249c-1.179,0.25 -6,1.536 -6.892,1.822c-0.893,0.285 -5.428,1.749 -6.571,1.928c-1.143,0.179 -1,0.25 -2.036,0.393c-1.035,0.143 -0.464,0.393 -1.143,0.393c-0.678,-0 -4.142,-2.393 -5.213,-2.964c-0.441,-0.236 -2.201,-1.366 -4.12,-2.615c-0.012,0.266 -0.017,0.475 -0.009,0.565c0.036,0.393 0.536,1.93 0.643,2.93c0.107,1.001 0.25,2.323 0.25,2.323l-1.072,-0.5c0,-0 -0.857,-2.859 -1.036,-3.752c-0.179,-0.894 -0.357,-0.822 -0.536,-1.287c-0.094,-0.245 -0.278,-1.027 -0.431,-1.711Z" style="fill:#342d34;"/><path d="M134.302,83.3c6.642,-1.94 11.805,-2.425 12.033,-0.067l-8.093,27.231c0,-0 -8.311,3.117 -9.077,3.171c-0.765,0.055 -2.351,0.492 -2.952,0.547c-0.602,0.055 -0.547,0.766 -1.531,0.82c-0.985,0.055 -0.219,-0.82 -0,-2.242c0.218,-1.421 0.656,-2.898 0.984,-4.101c0.328,-1.203 -1.313,2.57 -2.898,4.867c-1.586,2.297 -0.547,0.601 -2.187,1.094c-1.641,0.492 -1.477,0.382 -1.477,0.382c0,0 -0.328,0.055 -0.711,-0.273c-0.382,-0.328 -0.328,-0.82 -0.437,-1.969c-0.11,-1.148 -0.547,-2.406 -1.805,-1.367c-1.257,1.039 -0.601,0.875 -2.132,2.68c-1.531,1.804 -1.477,1.64 -1.805,2.296c-0.328,0.657 -1.148,1.914 -1.148,1.914c0,0 -0.437,-2.515 -0.711,-1.859c-0.273,0.656 -0.055,2.078 -0.656,2.789c-0.601,0.711 -0.984,0.929 -1.64,1.312c-0.657,0.383 -1.86,-0.328 -3.063,-0.055c-1.203,0.274 -0.601,0.329 -1.421,0.875c-0.82,0.547 -0.219,0 -0.985,0.055c-0.765,0.055 -0.328,-0.383 -0.328,-0.383l-1.039,0.985c0,-0 0.383,-2.242 1.094,-3.828c0.711,-1.586 -0.711,-0.766 -1.586,0.273c-0.875,1.039 -1.148,1.75 -2.57,4.101c-1.421,2.352 -0.765,0.492 -1.257,0.766c-0.492,0.273 -1.203,0.547 -1.586,-0c-0.01,-0.014 -0.02,-0.027 -0.03,-0.039c-0.06,0.094 -0.131,0.205 -0.217,0.338c-0.911,1.408 -0.911,1.076 -1.988,2.236c-1.076,1.159 -3.892,1.656 -3.892,1.656c0,-0 0.58,-1.077 1.408,-3.147c0.828,-2.07 1.822,-4.554 0.166,-4.306c-1.657,0.249 -2.402,4.969 -4.306,6.128c-1.905,1.159 1.407,-3.064 1.821,-4.389c0.414,-1.325 1.325,-2.567 2.733,-4.637c1.408,-2.07 1.573,-1.987 3.643,-4.637c2.071,-2.65 2.733,-4.223 3.81,-6.376c1.076,-2.153 0.993,-1.822 2.235,-3.312c1.242,-1.491 3.415,-1.239 3.395,-2.319c-0.076,-4.204 13.996,-11.661 25.917,-15.828l1.798,1.519c0,0 1.97,-0.795 2.614,-1.06c0.364,-0.15 0.14,-1.07 -0.123,-1.841Z" style="fill:#4d393a;"/><path d="M130.33,81.705c-0,0 0.408,0.26 0.668,0.595c0.26,0.334 0.817,0.78 1.04,1.077c0.223,0.297 0.929,0.724 1.263,1.318c0.334,0.595 0.706,1.059 1.077,1.783c0.372,0.724 1.003,1.541 1.003,1.541c-0,0 0.204,-0.259 0.26,-0.631c0.056,-0.371 0.13,-0.836 0.13,-0.836c-0,0 0.65,-0.111 0.687,0.056c0.037,0.167 -0.037,0.372 0.279,0.594c0.315,0.223 0.817,0.799 1.132,0.947c0.316,0.149 1.078,0.483 1.078,0.483l0.445,-0.872c0,-0 0.539,-0.149 0.687,-0.26c0.149,-0.112 1.579,-7.596 1.263,-7.744c-0.316,-0.149 -1.207,-0.632 -1.597,-0.966c-0.39,-0.334 -0.724,-0.464 -0.724,-0.464l-4.643,1.485l-2.117,0.13l-1.931,1.764Z" style="fill:#8d655b;"/><path d="M130.683,81.817c0.222,0.111 1.188,0.854 1.634,1.393c0.445,0.538 1.448,2.098 1.708,2.581c0.26,0.483 1.449,2.321 1.449,2.321c-0,0 0.278,-0.742 0.26,-1.021c-0.019,-0.279 -0.427,-1.17 -0.724,-1.541c-0.298,-0.372 -1.059,-1.393 -1.653,-2.043c-0.595,-0.65 -0.427,-1.003 0.241,-0.632c0.669,0.372 1.319,0.706 1.727,1.375c0.409,0.668 1.467,2.061 1.876,2.637c0.408,0.575 2.265,2.377 2.265,2.377l0.502,-0.91c-0,-0 -0.65,-1.096 -1.151,-1.709c-0.502,-0.613 -2.006,-2.117 -2.34,-2.562c-0.335,-0.446 -1.133,-2.322 0.65,-1.356c1.782,0.966 2.637,1.597 2.971,2.08c0.334,0.483 0.91,1.133 0.91,1.133l0.018,-2.749c0,0 -1.17,-0.39 -1.819,-0.687c-0.65,-0.297 -1.393,-0.706 -2.062,-0.854c-0.668,-0.149 -1.207,-0.372 0.242,-0.725c1.448,-0.352 3.639,-1.299 4.327,-1.634c0.687,-0.334 0.148,-0.65 0.148,-0.65c0,0 -0.91,0.26 -2.358,0.65c-1.449,0.39 -2.916,0.706 -3.677,0.762c-0.762,0.055 -1.059,-0.093 -1.059,-0.093c0,-0 1.151,-0.502 2.061,-0.799c0.91,-0.297 1.895,-0.928 1.895,-0.928c-0,-0 -1.783,0.52 -2.507,0.687c-0.725,0.167 -2.266,0.668 -2.637,0.706c-0.372,0.037 -0.985,-0 -0.985,-0" style="fill:#566554;"/><path d="M128.036,81.896c0.106,0.075 0.883,0.618 1.476,0.873c0.638,0.273 2.522,2.218 2.947,2.673c0.426,0.456 0.335,0.608 0.213,1.003c-0.121,0.395 -0.364,0.942 -0.516,1.185c-0.152,0.243 -2.066,1.276 -2.583,1.762c-0.516,0.486 -0.486,0.577 -0.455,1.124c0.03,0.547 2.248,1.033 3.159,1.306c0.912,0.274 4.253,1.124 5.256,1.246c1.003,0.121 1.641,-0.122 1.641,-0.122l-1.003,1.459c0,-0 -1.367,0.03 -2.339,-0.031c-0.972,-0.061 -2.066,-0.516 -2.704,-0.304c-0.638,0.213 -1.762,0.183 -1.762,0.183c0.212,0.273 1.58,0.304 2.309,0.152c0.729,-0.152 1.671,0.273 2.339,0.425c0.668,0.152 0.243,0.851 -0.243,1.124c-0.486,0.273 -2.977,0.03 -4.162,-0.03c-1.185,-0.061 -3.859,-0.881 -4.193,-0.973c-0.334,-0.091 -2.035,-0.638 -2.582,-0.516c-0.547,0.122 -1.853,0.82 -2.37,1.063c-0.516,0.243 -0.729,-0.547 -0.911,-0.972c-0.183,-0.425 0.547,-0.82 0.79,-1.185c0.243,-0.364 0.486,-1.124 0.577,-1.58c0.091,-0.455 0.395,-0.85 0.577,-1.397c0.182,-0.547 1.063,-1.063 1.276,-1.549c0.213,-0.487 0.638,-0.942 0.638,-0.942c-0.136,-0.317 -8.595,1.832 -8.78,2.217c-1.016,2.12 -5.438,5.773 -5.56,6.654c-0.121,0.881 -1.731,3.555 -2.552,4.375c-0.82,0.82 -0.516,1.245 -0.364,1.944c0.152,0.699 2.339,1.215 3.068,1.094c0.729,-0.122 2.066,-0.79 3.008,-0.851c0.942,-0.061 -0,1.732 -0.82,2.097c-0.821,0.364 -2.613,1.306 -3.433,1.944c-0.821,0.638 -0.456,1.337 -0.699,2.157c-0.243,0.82 0.486,0.881 1.276,1.519c0.79,0.638 0.972,1.124 1.002,1.792c0.031,0.669 -1.397,0.517 -2.035,0.578c-0.638,0.06 -1.003,-0.79 -1.55,-1.519c-0.546,-0.729 -2.278,-0.699 -3.402,-0.365c-1.124,0.334 -2.279,1.215 -2.886,2.066c-0.608,0.851 -3.13,4.193 -3.373,4.739c-0.243,0.547 -2.035,1.823 -2.612,2.218c-0.578,0.395 -1.055,0.216 -1.337,-0.152c-0.304,-0.395 1.033,-1.488 1.397,-1.883c0.365,-0.395 1.276,-1.641 1.793,-2.37c0.516,-0.729 2.035,-2.977 2.339,-3.706c0.063,-0.152 0.875,-1.52 1.294,-3.108c0.177,-0.672 0.502,-0.913 0.707,-1.737c0.115,-0.463 0.167,-1.578 0.287,-2.079c0.219,-0.919 0.619,-2.011 0.847,-2.988c0.23,-0.99 0.066,-2.556 0.285,-3.539c0.265,-1.191 0.757,-1.78 1.021,-2.815c0.262,-1.024 0.212,-2.504 0.408,-3.37c0.444,-1.965 0.984,-2.846 0.984,-2.846c-0.577,-0.092 -1.731,-1.033 -2.096,-1.58c-0.365,-0.547 -0.243,-1.033 -0.243,-1.033c-0,-0 0.881,0.851 1.519,0.881c0.638,0.03 1.64,-0.547 1.884,-0.699c0.243,-0.152 1.64,-3.98 1.822,-4.527c0.183,-0.546 0.426,-1.428 0.486,-2.46c0.061,-1.033 0,-1.398 -0.273,-2.158c-0.273,-0.759 -0.608,-0.789 -1.154,-1.276c-0.547,-0.486 -1.216,-1.61 -1.58,-2.126c-0.365,-0.517 -1.064,-2.461 -1.671,-2.795c-0.608,-0.334 -3.19,0.79 -3.585,1.093c-0.395,0.304 -1.124,0.851 -1.61,1.064c-0.486,0.212 -1.428,0.699 -1.702,0.759c-0.273,0.061 -1.397,-0.121 -2.217,-0.243c-0.821,-0.121 -2.006,0 -2.978,-0.03c-0.972,-0.03 -1.823,-0.061 -2.552,-0.182c-0.729,-0.122 -1.944,-0.608 -2.704,-0.942c-0.759,-0.334 -1.974,-0.638 -2.491,-0.942c-0.516,-0.304 -0.82,-0.486 -0.82,-0.486c-0.304,0.121 -1.215,0.456 -1.519,0.456c-0.304,-0 -1.732,0.03 -2.005,0.03c-0.274,0 -0.395,-0.456 -0.547,-0.729c-0.152,-0.274 1.063,-1.55 1.245,-1.793c0.183,-0.243 0.213,-0.455 0.092,-0.759c-0.122,-0.304 -1.033,-1.823 -1.155,-2.066c-0.121,-0.243 -0.558,-1.498 -0.949,-1.8c-0.535,-0.412 0.876,-3.354 1.283,-3.422c0,0 -0.091,-0.824 -0.243,-1.553c-0.152,-0.729 0.182,-0.668 1.064,-0.942c0.881,-0.273 1.458,0.274 1.853,0.669c0.395,0.395 0.152,0.881 0.152,0.881c-0,-0 0.881,0.486 1.093,0.941c0.213,0.456 0.092,1.094 0.092,1.094l0.85,-0.425c-0.243,-1.276 1.003,-2.552 1.307,-3.008c0.303,-0.456 1.002,-1.185 1.002,-1.185c0,0 -1.823,-1.063 -2.248,-1.488c-0.425,-0.426 -1.003,-1.155 -1.185,-2.066c-0.182,-0.912 0.699,-0.274 1.61,-0.031c0.912,0.243 1.914,-0.334 2.431,-0.607c0.516,-0.274 2.339,-2.4 2.764,-2.826c0.426,-0.425 2.097,-3.251 2.492,-3.706c0.395,-0.456 1.823,-2.491 2.217,-2.826c0.395,-0.334 2.188,-2.096 2.644,-2.187c0.455,-0.091 3.828,-0.122 4.101,-0.213c0.273,-0.091 1.124,-0.607 1.823,-1.002c0.699,-0.395 2.704,-0.79 3.403,-0.973c0.698,-0.182 1.519,0.152 2.005,0.304c0.486,0.152 1.124,-0.273 1.792,-0.547c0.669,-0.273 2.431,-0.638 3.342,-0.698c0.911,-0.061 2.765,0.82 3.524,1.367c0.76,0.547 2.735,3.22 2.978,3.646c0.243,0.425 0.789,1.883 1.002,2.157c0.213,0.273 2.005,3.888 2.096,4.466c0.092,0.577 0.061,3.311 0.152,3.949c0.091,0.638 0.973,3.281 1.003,3.919c0.03,0.638 -1.398,2.005 -1.762,2.735c-0.365,0.729 -1.215,1.488 -2.036,2.308c-0.82,0.821 -2.157,2.522 -2.643,2.917c-0.486,0.395 -1.367,1.367 -1.367,1.367c0,0 0.091,0.547 0.273,1.185c0.183,0.638 1.094,1.61 1.489,2.218c0.395,0.607 0.76,2.127 0.76,2.127c-0,-0 2.491,-0.365 3.098,-0.395c0.608,-0.031 3.434,0.334 4.163,0.486c0.729,0.152 3.281,1.154 3.767,1.519c0.486,0.364 1.458,1.549 1.792,1.701c0.335,0.152 0.183,1.276 0.213,1.853c0.03,0.578 -0.577,1.58 -0.911,2.066c-0.335,0.486 -0.973,0.365 -1.398,0.395c-0.425,0.031 -0.334,0.061 -1.489,0.152c-0.961,0.076 -1.185,0.004 -1.233,-0.022c-0.008,-0.005 -0.012,-0.008 -0.012,-0.008c-0,-0 0.002,0.003 0.012,0.008Zm-31.56,-23.001c0,-0 -0.532,0.693 -0.936,1.258c-0.403,0.564 -1.726,3.291 -2.016,3.743c-0.291,0.451 -1.146,2.387 -1.146,2.387l2.614,1.146c-0,-0 0.161,-1.759 0.29,-2.291c0.129,-0.533 0.872,-2.485 0.952,-2.775c0.081,-0.29 0.323,-3.097 0.242,-3.468Zm10.47,6.743c0,-0 -0.016,-0.097 -0.532,-0.387c-0.516,-0.291 -0.629,-0.452 -1.113,-0.436c-0.484,0.016 -1.63,-0.032 -1.63,-0.032l-0.048,0.694c-0,-0 0.387,0.177 1.016,0.29c0.629,0.113 2.017,-0.129 2.307,-0.129Z" style="fill:#547ca0;"/><path d="M82.167,70.945c-0,-0 -0.699,0.433 -1.061,0.891c-0.361,0.458 -0.385,0.748 -0.385,0.748c-0,-0 0.771,0.048 1.253,-0c0.482,-0.049 1.76,-0.386 1.76,-0.386c-0,-0 -1.374,-0.916 -1.567,-1.253Zm16.39,-7.4c0,-0 0.506,0.289 1.061,0.554c0.554,0.265 1.398,0.555 2.121,0.699c0.723,0.145 0.94,0.169 0.94,0.169c0,-0 -0.362,0.12 -0.41,0.603c-0.048,0.482 -0.168,0.699 -0.168,0.699c-0,-0 -0.892,0.674 -1.447,1.108c-0.554,0.434 -1.711,1.157 -1.711,1.157l-1.735,-0.699c-0,0 -0.121,-0.554 -0.025,-1.109c0.097,-0.554 0.193,-1.976 0.482,-2.265c0.29,-0.289 0.892,-0.916 0.892,-0.916Zm23.477,-6.147c0,0 -0.361,0.507 -0.868,0.868c-0.506,0.362 -1.084,1.157 -1.084,1.157c-0,0 -0.145,0.796 -0.675,1.398c-0.53,0.603 -1.157,2.001 -1.663,2.579c-0.506,0.579 -1.784,2.001 -2.362,2.483c-0.579,0.482 -1.664,1.06 -1.664,1.06c0,0 1.447,-0.072 1.784,0.073c0.338,0.144 0.795,0.434 0.795,0.434c0,-0 0.892,-0.772 1.447,-1.326c0.554,-0.554 1.759,-2.386 2.073,-2.82c0.313,-0.434 1.952,-2.941 1.976,-3.64c0.024,-0.699 0.289,-1.783 0.241,-2.266Zm-4.266,3.785c-0,-0 -0.506,1.06 -0.988,1.615c-0.483,0.554 -1.085,0.94 -1.447,1.398c-0.361,0.458 -0.723,0.602 -1.446,0.916c-0.723,0.313 -1.253,0.602 -1.253,0.602c-0,0 -0.386,-0.578 -0.169,-1.133c0.217,-0.554 0.193,-0.699 0.627,-0.916c0.434,-0.217 1.856,-0.964 2.555,-1.325c0.699,-0.362 2.121,-1.157 2.121,-1.157Zm-22.055,-6.147c0,0 0.241,0.217 0.097,0.555c-0.145,0.337 -0.362,0.65 -0.338,0.916c0.024,0.265 0.458,1.06 0.458,1.06l0.217,0.675c-0,0 -0.988,1.374 -1.784,2.338c-0.795,0.964 -1.012,2.194 -1.47,2.941c-0.458,0.747 -1.35,2.169 -1.35,2.169c0,0 -1.591,-1.277 -1.904,-1.518c-0.313,-0.242 -0.868,-0.699 -0.868,-0.699c0,-0 0.29,-0.989 0.434,-1.326c0.145,-0.338 0.771,-1.687 1.061,-2.145c0.289,-0.458 1.494,-1.591 1.976,-2.097c0.482,-0.507 1.495,-1.615 1.736,-1.832c0.241,-0.217 1.301,-0.94 1.735,-1.037Zm-9.921,2.492c0,0 0.592,0.387 0.877,0.551c0.286,0.163 0.694,0.489 0.694,0.489c-0,0 0.204,-0.265 0.489,-0.551c0.286,-0.285 0.836,-0.734 0.836,-0.734c0,0 -1.244,0.123 -1.713,0.184c-0.469,0.061 -1.183,0.061 -1.183,0.061Zm10.018,-8.252c-0,-0 -0.916,1.157 -1.23,1.687c-0.313,0.53 -0.578,1.542 -0.843,2.049c-0.266,0.506 -0.169,0.65 -0.169,0.65c-0,0 0.289,0.024 0.627,-0.289c0.337,-0.313 0.795,-0.41 0.916,-0.843c0.12,-0.434 0.313,-0.868 0.433,-1.254c0.121,-0.386 0.266,-2 0.266,-2Z" style="fill:#7f5262;"/><path d="M111.597,95.916c0,-0 1.543,-1.157 1.76,-1.398c0.217,-0.241 3.085,-2.314 4.893,-3.543c1.808,-1.23 4.917,-2.82 4.917,-2.82c-0,-0 0.096,-0.603 -0.169,-0.675c-0.265,-0.073 -0.265,-0.049 -0.241,-0.579c0.024,-0.53 0.41,-0.964 0.193,-1.663c-0.217,-0.699 -0.94,-1.856 -1.157,-2.386c-0.217,-0.531 -0.771,-1.977 -0.795,-2.531c-0.024,-0.555 -0.531,-2.989 -0.723,-3.688c-0.193,-0.699 -0.097,-0.819 -0.627,-1.856c-0.53,-1.036 -1.012,-2.362 -1.229,-2.675c-0.217,-0.314 -2.242,-2.748 -3.158,-2.869c-0.916,-0.12 -1.47,0.314 -1.735,0.531c-0.266,0.216 -1.35,1.205 -1.495,1.47c-0.144,0.265 -0.675,1.446 -0.699,1.711c-0.024,0.265 0.868,3.11 0.892,3.712c0.024,0.603 0.53,3.109 0.603,3.592c0.072,0.482 0.554,1.711 0.578,2.579c0.024,0.867 0.289,2.723 0.265,3.977c-0.024,1.253 -0.434,4.676 -0.892,5.688c-0.458,1.012 -1.06,2.579 -1.181,3.423Z" style="fill:#c5aeab;"/><path d="M87.94,66.245c0,-0 0.944,0.459 1.353,0.816c0.408,0.357 0.893,0.74 1.275,1.199c0.383,0.46 0.97,1.174 1.276,1.531c0.306,0.357 0.664,0.562 0.868,0.689c0.204,0.128 6.123,1.71 6.123,1.71c0,-0 4.848,1.377 5.716,1.658c0.867,0.281 7.782,2.807 9.338,3.317c1.557,0.51 7.961,2.348 8.369,2.45c0.409,0.102 2.348,0.867 2.629,0.867c0.28,0 1.071,-0.179 1.071,-0.179c0,0 0.562,-0.663 0.51,-0.918c-0.051,-0.255 -0.127,-0.944 -0.357,-1.046c-0.229,-0.102 -0.51,-0.179 -1.046,-0.357c-0.536,-0.179 -4.975,-1.761 -4.975,-1.761l-10.819,-3.598l-9.951,-3.801l-7.501,-2.756c-0,-0 -0.664,-0.102 -0.995,-0.102c-0.332,-0 -0.791,0.025 -1.276,-0.153c-0.485,-0.179 -0.638,-0.281 -0.919,-0.332c-0.28,-0.051 -0.714,0.281 -0.714,0.281l0.025,0.485Zm-8.533,0.154c-0.054,-0.106 -0.258,-0.289 -0.958,-0.512c-1.123,-0.357 -3.215,-0.816 -3.547,-0.893c-0.332,-0.076 0.204,-0.178 -0.714,-0.102c-0.919,0.077 -1.633,0.306 -2.322,0.306c-0.689,0 -1.786,-0.025 -2.271,-0.51c-0.485,-0.485 -1.123,-1.429 -1.072,-1.862c0.051,-0.434 0,-0.996 0.026,-1.608c0.025,-0.612 0.433,-1.454 0.893,-1.99c0.459,-0.536 1.122,-1.352 1.556,-1.582c0.434,-0.23 1.557,-0.485 2.016,-0.153c0.459,0.332 1.403,0.714 1.556,1.25c0.153,0.536 0.46,0.868 0.944,1.199c0.485,0.332 1.2,0.613 2.322,1.123c1.123,0.51 2.246,0.842 2.807,1.072c0.561,0.229 -0.128,0.357 -0.128,0.357c0,-0 -0.697,0.209 -0.964,0.855c-0.322,0.783 -0.223,2.046 -0.209,2.283c0.018,0.307 0.049,0.614 0.065,0.767c0.033,0.065 0.011,0.101 0.011,0.101c0,-0 -0.004,-0.037 -0.011,-0.101Zm4.469,-3.407c0.101,0.022 1.966,0.932 1.966,0.932c0,0 -0.572,0.686 -0.921,0.944c-0.348,0.259 -1.224,1.247 -1.224,1.247c-0,0 -0.191,-0.955 -0.225,-1.247c-0.034,-0.292 -0.068,-1.416 0.112,-1.64c0.18,-0.225 0.191,-0.259 0.292,-0.236Z" style="fill:#371e3d;"/><path d="M71.004,61.145c0.187,-0.244 -0.168,-0.757 -0.565,-0.961c-0.396,-0.205 -1.274,-0.577 -1.274,-0.577c0,-0 0.049,-0.661 -0.204,-0.865c-0.252,-0.205 -1.911,-1.202 -2.451,-1.911c-0.541,-0.709 -1.899,-2.307 -2.416,-3.918c-0.517,-1.61 -0.913,-3.869 -1.009,-5.035c-0.096,-1.166 -0.108,-3.593 -0.108,-3.593c-0,-0 -1.106,-0.457 -1.839,-0.733c-0.733,-0.277 -3.305,-1.358 -4.134,-2.079c-0.829,-0.721 -2.98,-2.824 -3.641,-4.122c-0.661,-1.298 -1.154,-2.74 -1.154,-2.74c-0,-0 -3.281,-0.589 -4.531,-0.673c-1.249,-0.084 -3.449,-0.205 -4.482,-0.156c-1.034,0.048 -5.108,0.709 -5.973,0.913c-0.865,0.204 -3.991,1.105 -5.96,2.319c-0,0 1.528,0.156 2.645,0.577c1.118,0.421 3.918,2.163 4.519,2.68c0.601,0.517 3.689,3.954 3.905,4.194c0.217,0.24 0.421,0.252 0.649,0.264c0.229,0.012 5.564,0.109 6.394,0.229c0.829,0.12 2.235,0.577 2.824,0.925c0.588,0.349 2.499,1.358 3.196,2.476c0.697,1.117 1.154,1.49 1.226,3.34c0.072,1.851 -0.108,2.055 -0.108,2.055c-0,0 -1.406,1.238 -3.617,0.962c-2.212,-0.277 -6.574,-1.514 -8.316,-2.103c-1.743,-0.589 -5.06,-1.935 -5.312,-2.247c-0.252,-0.313 -0.012,-0.217 -0.685,-0.277c-0.673,-0.06 -6.562,-1.141 -8.04,-1.298c-1.478,-0.156 -1.778,-0.18 -2.74,-0.444c-0.961,-0.265 -3.413,-0.974 -3.413,-0.974c0,0 0.493,0.469 1.13,0.902c0.637,0.432 2.896,1.802 3.918,2.271c1.021,0.469 4.422,2.115 5.396,2.415c0.973,0.301 4.554,1.863 5.876,2.296c1.322,0.432 5.336,1.874 6.91,2.295c1.574,0.421 5.312,1.574 5.973,1.634c0.661,0.06 1.153,0.108 1.081,0.493c-0.072,0.385 0.168,0.613 -0.685,0.937c-0.853,0.325 -2.259,0.818 -3.485,0.721c-1.226,-0.096 -2.764,0 -5.684,-1.382c-2.92,-1.382 -5.071,-3.304 -5.071,-3.304c-0,-0 -2.44,0.036 -3.497,0.096c-1.058,0.06 -5.3,-0.325 -6.898,-0.95c-1.599,-0.624 -3.738,-1.934 -4.255,-2.271c-0.516,-0.336 -1.418,-0.961 -0.985,0.12c0.433,1.082 2.151,3.582 2.764,4.375c0.613,0.793 3.329,3.461 3.834,3.845c0.504,0.385 2.703,2.019 3.28,2.5c0.577,0.481 2.32,2.331 4.062,3.257c1.743,0.925 3.726,1.898 3.978,1.85c0.252,-0.048 2.439,-0.985 3.713,-1.274c1.274,-0.288 4.615,-0.745 6.141,-0.444c1.526,0.3 4.098,1.334 4.363,1.478c0.264,0.144 0.276,0.132 0.504,-0.361c0.229,-0.492 0.529,-1.334 1.406,-2.343c0.878,-1.009 1.863,-2.704 3.521,-3.233c1.659,-0.528 2.824,-0.769 4.399,-0.793c1.574,-0.024 1.959,-0.481 2.187,-0.805c0.228,-0.324 0.348,-0.625 0.673,-0.601c0.324,0.024 0.649,0.108 1.105,0.228c0.457,0.121 0.73,0.121 0.96,-0.18Z" style="fill:#4a7387;"/></g></g></svg>