<?xml version="1.0" encoding="UTF-8" standalone="no"?><!DOCTYPE svg PUBLIC "-//W3C//DTD SVG 1.1//EN" "http://www.w3.org/Graphics/SVG/1.1/DTD/svg11.dtd"><svg width="100%" height="100%" viewBox="0 0 150 150" version="1.1" xmlns="http://www.w3.org/2000/svg" xmlns:xlink="http://www.w3.org/1999/xlink" xml:space="preserve" xmlns:serif="http://www.serif.com/" style="fill-rule:evenodd;clip-rule:evenodd;stroke-linejoin:round;stroke-miterlimit:2;"><path id="base" d="M150,75c0,-41.394 -33.606,-75 -75,-75c-41.394,0 -75,33.606 -75,75c0,41.394 33.606,75 75,75c41.394,0 75,-33.606 75,-75Z" style="fill:#daaf57;"/><path id="outline" d="M144,75c0,-38.082 -30.918,-69 -69,-69c-38.082,0 -69,30.918 -69,69c0,38.082 30.918,69 69,69c38.082,0 69,-30.918 69,-69Z" style="fill:#0b1324;"/><path id="core" d="M141,75c0,-36.426 -29.574,-66 -66,-66c-36.426,0 -66,29.574 -66,66c0,36.426 29.574,66 66,66c36.426,0 66,-29.574 66,-66Z" style="fill:#97c6ce;"/><clipPath id="_clip1"><path d="M141,75c0,-36.426 -29.574,-66 -66,-66c-36.426,0 -66,29.574 -66,66c0,36.426 29.574,66 66,66c36.426,0 66,-29.574 66,-66Z"/></clipPath><g clip-path="url(#_clip1)"><g id="heimerdinger"><path d="M74.354,113.665c-4.985,71.43 23.129,54.692 59.162,22.717c-11.395,-17.563 -27.409,-29.584 -59.162,-22.717Z" style="fill:#0d0e22;"/><path d="M61.888,63.389c0,-0 -2.588,-2.099 -3.637,-3.253c-1.05,-1.155 -1.47,-1.924 -2.974,-2.589c-1.504,-0.664 -3.673,-1.294 -5.002,-1.994c-1.329,-0.699 -5.352,-3.812 -6.786,-5.142c-1.434,-1.329 -3.883,-3.707 -5.107,-5.281c-1.224,-1.575 -2.308,-2.764 -2.763,-4.373c-0.455,-1.609 0.035,-1.924 0.944,-0.629c0.91,1.294 3.078,3.253 4.618,3.847c1.539,0.595 3.777,1.819 6.121,2.064c2.344,0.245 2.763,-0.07 2.763,-0.07c0,0 -0.21,-0.175 -0.594,-0.595l1.259,0.035c-0,0 0.769,0.315 1.399,0.665c0.63,0.35 0.875,0.175 0.875,0.175c-0,-0 -1.12,-0.63 -1.609,-0.91c-0.49,-0.279 -4.303,-2.833 -5.212,-4.827c-0.91,-1.994 -2.379,-6.331 -2.379,-6.331c0,0 -1.014,-0.595 -1.924,-1.119c-0.909,-0.525 -2.693,-1.295 -3.428,-1.19c-0.734,0.105 2.239,-1.224 3.568,-0.839c1.329,0.385 3.778,1.329 5.422,3.078c-0,0 -0.63,-3.428 -2.064,-5.702c-1.434,-2.273 -3.638,-3.567 -4.442,-4.792c-0.805,-1.224 -1.679,-4.372 -1.679,-4.372l0.419,-0.28c0,-0 0.105,-0.105 0.595,0.735c0.49,0.839 1.469,2.063 2.903,2.448c1.435,0.385 2.204,0.315 1.749,-0.665c-0.454,-0.979 -1.993,-3.917 -2.448,-4.442c-0.455,-0.525 4.547,-7.765 4.547,-7.765c74.751,-29.088 92.207,1.287 96.019,45.823c-0,-0 -2.344,3.218 -3.883,3.113c-1.539,-0.105 -2.798,0.07 -4.477,-0c-1.679,-0.07 -3.289,-0.175 -4.058,-0.21c-0.77,-0.035 -8.5,2.134 -8.5,2.134l-60.235,3.253Z" style="fill:#8d7e46;"/><path d="M81.18,96.267l-0.404,-1.973c-0,-0 -0.032,-0.608 0.192,-1.183c0.223,-0.575 0.926,-0.639 0.926,-0.639c-0.383,-0.543 -2.556,-5.049 -2.556,-5.049c-0,-0 -1.151,0.223 -2.269,0.447c-1.119,0.224 -6.903,1.151 -7.734,1.246c-0.831,0.096 -5.146,1.311 -6.456,1.726c-1.31,0.416 -3.356,0.128 -4.41,0.096c-1.055,-0.032 -5.369,-0.128 -7.031,-0.256c-1.662,-0.127 -3.42,-0.064 -4.347,-0.159c-0.926,-0.096 -1.086,-0 -1.278,0.223c-0.192,0.224 -2.269,2.173 -2.269,2.173l-2.397,-0.767c0,0 0.256,-1.757 0.479,-2.556c0.224,-0.799 0.608,-2.397 0.735,-3.26c0.128,-0.863 0.352,-2.301 0.512,-3.771c0.16,-1.47 -0.256,-3.643 -0.32,-4.538c-0.064,-0.895 -0.415,-1.63 -0.671,-2.429c-0.256,-0.799 0.288,-0.927 0.288,-0.927c-0,0 0.703,0.064 1.725,0.032c1.023,-0.032 2.333,-0.543 2.589,-0.384c0.256,0.16 0.959,0.736 1.374,0.831c0.416,0.096 2.397,0.799 3.196,1.055c0.799,0.256 1.598,-0.064 1.95,-0.16c0.351,-0.096 3.196,1.247 4.602,1.151c1.406,-0.096 7.766,-0.959 7.766,-0.959l29.046,-0.78l22.472,-9.967l15.819,26.918c-0,0 -0.096,1.087 -0.128,1.502c-0.032,0.416 0.032,1.406 0.224,1.886c0.191,0.479 0.128,2.429 0.16,3.132c0.031,0.703 0.798,3.1 1.31,4.218c0.511,1.119 0.767,2.142 0.767,2.142l-5.658,7.654l-0.585,6.077l-29.027,18.611c-0.639,-4.681 -2.026,-8.804 -3.612,-14.116c-0.505,-1.692 -0.745,-4.265 -1.357,-6.028l-4.336,-0.688c-0.654,5.924 -1.207,11.453 -2.432,14.381c-4.133,-3.641 -6.9,-5.628 -8.354,-6.027c-4.474,-1.186 -7.891,-4.485 -6.715,-16.972c1.426,-7.71 4.489,-10.677 8.214,-11.913Zm35.823,6.967c0,0 1.166,2.743 1.372,3.383c0.205,0.64 1.074,2.697 1.074,2.697c-0,-0 -0.937,0.068 -1.554,0.525c-0.617,0.457 -1.029,1.166 -1.029,1.166c0,-0 -0.914,-1.303 -1.303,-1.577c-0.388,-0.274 -1.028,-0.754 -1.028,-0.754c-0,-0 1.097,-4.503 1.211,-5.211c0.115,-0.709 1.257,-0.229 1.257,-0.229Z" style="fill:#1e537c;"/><path d="M77.111,93.93c-0,-0 -0.401,1.281 -0.621,1.695c-0.22,0.414 -0.298,0.829 -0.311,0.945c-0.013,0.117 0,2.64 0,2.64c0,0 -1.812,2.757 -2.213,3.702c-0.401,0.944 -1.631,3.313 -1.773,6.587c-0.142,3.274 0.401,9.577 1.048,10.807c0.647,1.229 2.744,4.335 5.992,5.5c3.249,1.165 5.294,2.731 6.109,3.74c0.815,1.01 1.89,3.184 3.171,2.835c1.281,-0.35 1.087,-2.252 1.178,-3.456c0.09,-1.203 0.103,-6.613 0.401,-8.089c0.297,-1.475 0.621,-3.39 0.919,-3.546c0.297,-0.155 2.808,0.35 2.912,0.583c0.103,0.233 0.556,2.679 0.918,4.219c0.363,1.54 2.058,6.199 2.369,7.079c0.31,0.88 0.725,1.268 0.983,4.361c0.259,3.094 0.285,5.126 0.285,5.126l1.618,-1.696c-0,0 -0.026,-1.889 -0.091,-3.015c-0.064,-1.126 -0.479,-3.754 -1.009,-5.009c-0.531,-1.255 -1.929,-4.258 -2.11,-4.957c-0.181,-0.699 -0.932,-2.847 -1.113,-4.504c-0.181,-1.656 -0.155,-2.329 -0.388,-2.51c-0.233,-0.181 -4.323,-1.113 -4.776,-1.191c-0.453,-0.078 -1.371,2.821 -1.488,3.844c-0.116,1.022 -0.453,4.775 -0.492,5.94c-0.039,1.165 0.156,2.835 -0.297,3.184c-0.453,0.349 -1.113,0.129 -1.683,0.116c-0.569,-0.013 -0.259,0.246 -0.828,-0.077c-0.57,-0.324 -1.139,-1.359 -2.369,-2.11c-1.229,-0.75 -2.989,-2.045 -4.037,-2.239c-1.049,-0.194 -2.136,-0.517 -2.783,-1.281c-0.647,-0.764 -2.394,-2.278 -2.705,-4.193c-0.31,-1.916 -0.934,-4.028 -0.934,-6.559c0,-2.531 0.043,-5.19 0.754,-6.982c0.711,-1.792 2.247,-4.948 2.247,-4.948l0.071,2.531c-0,-0 -0.071,1.663 0.27,2.46c0.341,0.796 0.398,1.464 0.668,1.578c0.27,0.114 4.664,0.085 4.664,0.085l0.156,-1.621c0,0 0.811,0.996 1.209,1.479c0.398,0.483 1.251,1.322 1.251,1.322l0.171,3.342c0,-0 1.834,1.194 2.702,1.649c0.867,0.455 3.597,1.465 4.976,1.806c1.38,0.341 4.152,0.996 4.152,0.996l7.753,-1.466c0,0 6.12,-6.09 6.59,-6.661c0.469,-0.571 2.407,-2.347 3.019,-2.653c0.613,-0.306 0.919,-0.816 0.572,-1.061c-0.347,-0.245 -1.592,-2.367 -1.816,-2.591c-0.225,-0.225 -1.102,-0.143 -1.633,0.102c-0.53,0.245 -3.775,1.816 -4.611,2.285c-0.837,0.469 -3.102,3.836 -5.306,3.918c-2.203,0.081 -3.081,0.02 -3.652,-0.204c-0.571,-0.225 -5.163,-0.98 -6.366,-1.429c-1.204,-0.448 -3.143,-1.693 -4.183,-2.285c-1.041,-0.592 -2.082,-1.367 -2.857,-2.387c-0.776,-1.021 -1.592,-2.388 -1.877,-3.653c-0.286,-1.265 -0.572,-2.408 -0.694,-2.571c-0.123,-0.163 -0.368,-1 -0.572,-1.061c-0.204,-0.061 -3.54,-0.451 -3.54,-0.451Z" style="fill:#3f373e;"/><path d="M124.635,80.071c-1.667,-4.692 -5.251,-7.136 -5.251,-7.136c-0,-0 -4.972,-6.436 2.13,-2.352c3.731,2.145 5.256,5.257 5.865,7.729c0.015,0.007 0.026,0.019 0.032,0.034c0.301,0.771 6.23,11.657 6.867,12.863c0.636,1.206 -0.235,1.507 -0.938,2.043c-0.704,0.536 -3.718,1.909 -4.891,2.881c-1.172,0.971 -6.062,3.617 -7.168,4.388c-1.105,0.77 -3.852,2.813 -4.22,2.746c-0.369,-0.067 -1.675,-3.617 -1.876,-4.153c-0.201,-0.536 -0.938,-3.383 -0.938,-3.383c0,-0 0.804,-2.847 1.072,-3.852c0.268,-1.005 0.435,-4.422 0.435,-4.422c0,0 5.432,-4.726 8.881,-7.386Z" style="fill:#3f312c;"/><path d="M105.325,133.979c0.021,-0.246 -0.144,-2.362 0.555,-2.752c0.698,-0.391 1.684,-0.021 1.684,-0.021c0,0 0.473,-0.801 1.171,-1.109c0.699,-0.308 1.664,0.02 2.424,0.842c0.76,0.822 0.555,-0.698 0.555,-1.5c-0,-0.801 2.033,-2.054 2.547,-2.033c0.514,0.02 2.506,0.431 2.506,0.431l5.814,-6.43c-0,0 0.698,-3.286 0.041,-4.806c-0.658,-1.521 -1.644,-2.301 -2.383,-2.732c-0.74,-0.432 -1.356,-0.822 -1.746,-1.377c-0.391,-0.554 -1.767,-1.027 -1.705,-1.376c0.061,-0.349 0.862,-1.397 1.561,-1.726c0.698,-0.328 1.479,-0.616 2.136,-0.246c0.658,0.37 1.253,0.739 1.931,1.458c0.678,0.719 0.658,0.945 1.89,1.192c1.233,0.246 1.068,-0.144 1.849,0.308c0.78,0.452 1.808,1.068 2.301,3.061c0.493,1.992 -16.9,24.856 -23.131,18.816" style="fill:#16325e;"/><path d="M26.915,90.353l1.103,4.614l-0.877,-0.283c0,-0 -0.198,1.188 0.198,1.783c0.396,0.594 1.981,2.151 1.981,2.151l2.916,1.33l-0.396,-4.161l-0.595,-5.689l-4.33,0.255Z" style="fill:#20225b;"/><path d="M30.425,100.475c2.719,-4.418 6.259,-5.251 7.309,-4.789c1.05,0.462 2.52,1.722 3.024,3.864c0,0 0.084,0.883 0.504,0.715c0.42,-0.168 0.63,-0.967 0.63,-0.967c0,0 -0.504,-0.966 -0.42,-1.47c0.084,-0.504 0.084,-0.882 0.084,-0.882c0,0 -3.906,-5.124 -4.032,-5.628c-0.126,-0.504 3.024,-2.058 3.192,-1.974c0.168,0.084 3.864,5.46 4.074,5.964c0,0 0.756,-0.168 1.261,0.126c0.504,0.294 0.798,0.84 0.798,0.84c-0,0 1.722,-0.966 4.074,-1.134c2.352,-0.168 3.822,0.378 3.822,0.378c0,0 0.42,-1.386 1.722,-1.638c1.302,-0.252 3.444,0.294 3.823,1.344c0.378,1.05 -0.127,2.562 -0.127,2.562c0,0 0.715,0.252 1.387,0.42c0.672,0.168 8.274,5.167 8.736,5.545c0.462,0.378 0.63,9.282 0.63,9.282l-2.982,0.882c0,0 -2.856,6.847 -3.318,7.183c-0.462,0.336 -0.798,0.21 -0.798,0.21c-0,-0 0.252,0.546 -0.042,0.798c-0.294,0.252 -5.125,5.754 -11.929,4.956c-6.805,-0.798 -14.827,-6.552 -15.037,-11.256c-0.21,-4.705 0.084,-6.973 0.084,-6.973c-0,0 -0.378,0.168 -1.092,0.42c-0.714,0.252 -3.486,0.63 -5.125,-0.756c-1.638,-1.386 -1.596,-5.838 -0.252,-8.022Z" style="fill:#29243c;"/><path d="M64.159,124.713c-0,-0 -0.57,-1.528 0.751,-0.777c1.32,0.751 1.346,0.466 1.346,0.466c-0,0 0.31,0.518 0.647,0.544c0.336,0.026 0.388,0.362 0.388,0.362c0,0 -0.129,0.622 0.389,0.699c0.517,0.078 0.802,0.337 0.802,0.337c0,-0 -0.207,1.009 0.311,1.061c0.517,0.052 1.216,0.363 1.216,0.363c0,-0 0.932,-0.415 1.528,-0.492c0.595,-0.078 1.217,-0.182 1.786,0.129c0.57,0.311 1.061,0.311 1.191,0.854c0.129,0.544 0.129,1.502 -0.363,2.589c-0.491,1.087 -1.76,2.175 -2.174,2.201c-0.414,0.026 -0.492,-0.259 -0.803,-0.182c-0.31,0.078 -0.543,1.062 -1.009,1.191c-0.466,0.13 -2.175,0.259 -2.718,-0.517c-0.544,-0.777 -0.984,-2.304 -0.415,-3.029c0.57,-0.725 0.725,-0.751 0.492,-1.139c-0.233,-0.389 -0.44,-0.699 -0.44,-0.699c0,-0 -0.155,-0.44 -0.336,-0.803c-0.182,-0.362 -0.751,-0.569 -0.751,-0.569c-0,-0 0.207,-0.285 -0.078,-0.57c-0.285,-0.285 -1.32,-1.165 -1.32,-1.165l-0.44,-0.854Zm12.219,-9.035c-0,0 1.139,-0.362 1.501,-0.336c0.363,0.025 1.605,0.103 2.02,0.181c0.414,0.077 1.242,0.129 1.838,0.259c0.595,0.129 1.553,0.31 1.915,0.362c0.363,0.052 0.699,-0.337 1.036,-0.725c0.336,-0.388 1.501,-0.88 1.915,-0.776c0.415,0.103 0.803,0.957 0.855,1.475c0.051,0.518 -0.389,3.081 -0.648,3.599c-0.258,0.517 -1.268,1.553 -1.76,1.346c-0.492,-0.207 -1.087,-1.424 -1.061,-2.045c-0,-0 -0.466,-0.389 -1.01,-0.492c-0.544,-0.104 -2.64,-0.699 -3.21,-0.932c-0.569,-0.233 -2.356,-0.44 -3.391,-1.916Zm-62.815,-15.509c-0,0 0.821,-3.497 1.277,-3.618c0.456,-0.122 0.851,-0 1.368,0.243c0.517,0.243 5.96,2.524 5.96,2.524c-0,-0 -0.517,2.402 -0.7,3.132c-0.182,0.729 -1.064,3.375 -1.064,3.375c0,-0 0.639,-0.669 1.247,-0.669c0.608,-0 2.676,1.155 2.98,1.49c0.304,0.334 0.121,1.642 -0.183,2.068c-0.304,0.425 -1.033,1.459 -2.159,1.125c-1.125,-0.335 -0.851,0.577 -0.851,0.577l0.152,3.832c-4.681,-2.862 -7.076,-7.811 -8.027,-14.079Z" style="fill:#132471;"/><path d="M100.11,123.179c0,-0 0.031,1.231 0.37,1.631c0.338,0.4 1.415,1.785 1.415,1.785l-2.616,1.785l0.093,0.585l2.369,0.985l2.186,-1.632c-0,0 0.184,0.216 0.554,-0.061c0.369,-0.277 0.554,-0.185 0.554,-0.185c-0,0 1.077,1.016 1.631,1.293c0.554,0.277 0.677,0.431 0.677,0.431l-0.123,0.554l0.677,0.431l0.985,-0.585l2.585,0.4l0.184,-2.154l1.231,-0.647c0,0 1.293,-0.307 2.093,-0.184c0.8,0.123 7.11,-4.401 7.11,-4.401c-0,-0 0.553,-2.77 0.584,-3.94c0.031,-1.169 -0.123,-2.77 -0.646,-3.631c-0.523,-0.862 -0.985,-1.108 -1.508,-1.447c-0.523,-0.338 -0.893,-0.523 -1.231,-0.862c-0.339,-0.338 -1.262,-1.661 -1.724,-1.723c-0.461,-0.062 -1.046,-0.892 -1.661,-1.662c-0.616,-0.769 -1.447,-1.477 -2.339,-1.6c-0.893,-0.123 -2.709,0.184 -2.709,0.184l-10.741,14.65Z" style="fill:#4c4c84;"/><path d="M99.956,109.822l2.524,3.232c0,-0 -0.185,-1.909 -0.462,-2.832c-0.277,-0.923 -0.707,-2.247 -0.707,-2.247c-0,0 0.707,-1.169 1.846,-1.785c1.139,-0.615 3.17,-2.431 4.955,-1.631c1.785,0.8 4.401,3.693 4.401,3.693c0,0 1.97,1.847 2.031,2.832c0.062,0.985 0.339,4.493 -0.707,6.34c-1.047,1.846 -2.432,5.078 -4.925,6.647c-2.493,1.57 -5.632,1.601 -6.77,1.078c-1.139,-0.524 -2.709,-2.062 -3.447,-2.709c-0.739,-0.646 -2.555,-1.662 -2.462,-3.324c0.092,-1.662 0.892,-6.524 2.062,-7.263l0.615,-0.092l-0.246,-0.677l1.046,-1.477l0.246,0.215Z" style="fill:#4383d0;"/><path d="M109.405,109.73c-0,-0 0.184,2.954 -2.616,6.309c-2.801,3.354 -3.201,4.062 -5.601,5.17c-0,0 -0.339,-3.478 2.154,-6.524c2.493,-3.047 4.801,-4.955 6.063,-4.955Z" style="fill:#3d72c5;"/><path d="M23.429,89.257c-0.443,-0.354 0.158,-1.423 -0.211,-2.267c-0.369,-0.844 -1.213,-2.215 -1.687,-2.584c-0.475,-0.369 -1.741,0.053 -1.899,-0.949c-0.158,-1.002 -0.738,-2.743 -0.263,-3.375c0.474,-0.633 1.529,-1.108 1.529,-1.108c-0,0 -0.844,-0.158 -0.791,-1.476c0.053,-1.319 0.158,-1.793 0.474,-2.848c0.317,-1.055 0.37,-2.057 0.37,-2.057c-0,0 9.597,-3.374 10.335,-3.374c0.739,-0 4.905,2.32 5.537,2.9c0.633,0.58 5.878,3.679 6.194,4.417c0.316,0.738 1.055,1.793 1.213,3.322c0.158,1.53 -0,4.588 -0.211,5.801c-0.211,1.213 -0.791,3.059 -2.057,4.008c-1.265,0.949 -3.662,0.751 -4.558,0.592c-0.897,-0.158 -2.373,-0.369 -2.848,-0.369c-0.475,0 -1.002,-0.316 -1.635,-0.105c-0.633,0.211 -1.846,0.896 -3.533,1.002c-1.687,0.105 -3.164,0.105 -4.008,-0c-0.843,-0.106 -1.424,-1.108 -1.951,-1.53Z" style="fill:#13274a;"/><path d="M34.82,49.602c-0,-0 5.589,5.167 5.748,5.695c0.158,0.527 0.791,11.496 0.791,11.496c-0,-0 0.105,7.593 0.158,8.49c0.053,0.896 -0.211,1.529 -1.108,1.951c-0.896,0.422 -3.902,0.527 -5.009,-0.738c-0,-0 -3.85,0.158 -5.326,-0.264c-1.477,-0.422 -9.493,-2.32 -10.284,-2.531c-0.791,-0.211 -1.371,-0.158 -1.371,-0.158c0,-0 -0.949,0.791 -2.689,0.316c-1.74,-0.475 -3.797,-2.215 -4.166,-3.902c-0.369,-1.688 0.58,-1.635 0.58,-1.635c0,0 -0.685,-3.691 -1.107,-4.746c-0.422,-1.055 -1.108,-2.795 -1.108,-2.795l2.953,-11.496c0,0 1.582,2.268 1.582,2.901c0,0.632 -0.316,1.687 -0.052,2.478c0.263,0.791 1.318,4.746 1.74,5.537c0.422,0.791 0.949,1.898 1.16,2.373c0.211,0.475 1.213,2.531 1.213,2.531c-0,0 1.055,0.369 1.371,0.95c0.316,0.58 0.844,1.792 0.844,1.792c-0,0 3.586,0.581 5.009,1.002c1.424,0.422 4.272,0.791 4.272,0.791c-0,0 0.527,-0.316 1.16,-0.211c0.633,0.106 4.008,1.424 4.008,1.424l-0.475,-5.8l0.58,-0.739l-0.211,-4.166l-1.318,-2.056l-0.58,-5.643l1.635,-2.847Z" style="fill:#513e65;"/><path d="M78.249,74.476c-1.348,-0.405 -2.553,-0.976 -3.729,-2.23c-1.551,-1.655 -6.894,-3.868 -6.894,-3.868c-0,0 -0.135,-0.097 -0.744,-0.304c-0.609,-0.207 -1.791,-0.512 -2.62,-0.963c-0.829,-0.451 -2.413,-2.315 -2.62,-2.9c-0.207,-0.585 -0.78,-1.268 -1.779,-2.62c-0.999,-1.353 -2.437,0.068 -2.437,0.068c0.512,-1.389 2.059,-1.267 2.863,-0.975c0.805,0.293 1.67,1.621 1.67,1.621c-0.244,-1.084 -2.118,-3.26 -2.713,-3.932c-0.595,-0.672 -1.69,-1.613 -1.69,-1.613c0,-0 0.615,-0.211 1.325,-0.135c0.711,0.077 1.555,0.384 1.555,0.384c0,0 -0.71,-1.497 -0.921,-1.939c-0.211,-0.441 -0.096,-2.381 -0.135,-2.765c-0.038,-0.384 -1.44,-1.862 -1.862,-2.38c-0.422,-0.519 -0.346,-0.519 -0.768,-0.25c-0.422,0.269 -0.211,1.594 -0.211,1.594c-0.768,-0.768 -0.672,-2.208 0.249,-2.573c0.922,-0.365 3.38,-0.096 3.706,-0.135c0.326,-0.038 1.363,0.02 1.363,0.02c0,-0 -1.363,-1.133 -1.958,-1.402c-0.595,-0.269 -1.037,-0.365 -1.037,-0.365c-0,0 0.691,-0.23 1.171,-0.173c0.48,0.058 0.941,0.116 0.941,0.116c-0,-0 -0.691,-0.845 -0.691,-1.748c-0,-0.902 0.249,-2.284 0.845,-2.726c0.595,-0.442 1.209,-0.077 1.209,-0.077c-0.307,0.384 -0.249,0.711 0.019,1.863c0.269,1.152 1.325,1.67 2.208,2.112c0.884,0.441 1.632,0.633 1.632,0.633c-0.057,-0.288 0.346,-0.902 0.346,-0.902c-0.211,-0.384 -0.614,-1.114 -0.538,-2.055c0.077,-0.94 0.692,-2.419 0.692,-2.419c-0.538,-0.883 -1.172,-2.669 -0.942,-4.224c0.229,-1.555 0.653,-2.457 1.459,-2.822c0.806,-0.365 0.922,0.288 0.922,0.288c-0.596,-0.231 -0.999,0.557 -0.903,1.901c0.096,1.344 1.018,2.438 2.208,3.34c1.191,0.903 2.4,1.46 3.456,1.479c1.056,0.019 4.147,-0.269 5.645,0.077c1.498,0.345 3.514,1.689 4.07,2.112c0.557,0.422 0.864,0.979 0.826,0.729c-0.038,-0.249 -0.154,-0.653 -0.154,-0.653c0.173,0.346 2.496,3.994 2.823,4.704c0.326,0.711 0.038,-0.672 -0.058,-1.094c-0.096,-0.422 -0.48,-2.554 -0.48,-2.554c0,0 0.768,2.612 1.114,3.975c0.345,1.363 1.094,2.265 1.651,2.822c0.557,0.557 0.557,-0.672 0.557,-0.672c-0.192,-2.822 0.23,-4.339 0.614,-5.702c0.384,-1.363 1.747,-2.535 1.747,-2.535c0,0 -0.902,1.191 -1.305,2.132c-0.403,0.94 -0.595,2.937 -0.48,4.051c0.115,1.113 0.249,0.192 0.307,-0.288c0.058,-0.48 0.73,-2.343 1.114,-3.072c0.384,-0.73 0.864,-1.555 0.998,-1.786c0.134,-0.23 0.288,-0.749 1.325,-2.112c1.037,-1.363 0.518,-1.305 0.403,-2.227c-0.115,-0.922 -0.25,-1.958 -0.25,-1.958c0,-0 0.653,1.305 0.922,2.035c0.269,0.729 0.115,1.555 0.115,1.555c0,-0 0.173,-0.384 0.269,-0.845c0.096,-0.461 0.154,-1.497 0.154,-1.497c-0,-0 0.134,0.768 0.172,1.459c0.039,0.691 -0.134,0.633 -0.096,1.517c0.039,0.883 0.48,2.227 0.615,3.168c0.134,0.94 -0.634,1.996 -0.634,1.996c0,0 0.807,-1.036 1.21,-1.478c0.403,-0.442 1.478,-2.88 1.478,-2.88c0,-0 -0.134,1.882 -0.595,2.899c-0.461,1.018 -0.326,0.864 0.845,-0.096c1.171,-0.96 2.054,-2.688 2.304,-3.225c0.249,-0.538 -0.154,-1.383 0.077,-3.764c0.23,-2.38 1.478,-5.068 1.478,-5.068c0,-0 -0.864,2.304 -0.653,4.992c0.211,2.688 1.632,1.939 2.055,1.843c0.422,-0.096 0.748,-0.845 1.612,-1.459c0.864,-0.615 2.976,-1.421 2.976,-1.421c-0.94,0.537 -2.534,2.035 -3.129,2.765c-0.595,0.729 -0.269,1.401 -0.231,1.824c0.039,0.422 0.269,0.307 0.346,0.057c0.077,-0.249 0.173,-0.729 0.538,-1.113c0.364,-0.384 1.459,-0.788 1.459,-0.788c-0,0 -0.672,0.711 -0.96,1.076c-0.288,0.364 -0.135,0.844 -0.135,0.844l0.788,-0.48c-0,0 -0.384,0.749 -0.308,0.903c0.077,0.153 0.212,-0.25 0.999,-0.519c0.787,-0.268 0.48,-0.192 1.113,-0.48c0.463,-0.21 0.342,-0.175 0.363,-0.178c0.007,-0.001 0.034,-0.007 0.117,-0.033c0.308,-0.096 0.826,-0.48 1.172,-0.672c0.345,-0.192 0.672,-0.249 1.056,-0.537c0.384,-0.288 0.691,-0.557 0.691,-0.557c-0,-0 -0.058,1.382 -0.019,1.881c0.038,0.5 0.825,-0.326 1.248,-0.576c0.422,-0.249 3.11,-0.211 3.11,-0.211c0,0 -1.306,0.941 -1.709,1.267c-0.403,0.327 -0.345,0.692 -0.038,0.5c0.307,-0.192 1.133,-0.749 1.824,-0.749c0.691,-0 1.305,0.038 2.035,0.134c0.73,0.096 0.864,0.115 0.864,0.115c0,0 -0.058,0.922 -0.134,1.325c-0.077,0.403 0.518,0.307 0.787,0.384c0.269,0.077 1.862,0.039 1.862,0.039c0,-0 -1.728,0.614 -1.555,0.614c0.173,-0 1.152,0.211 1.152,0.211c0,0 -0.269,0.115 -0.557,0.25c-0.288,0.134 -1.094,0.269 -0.653,0.595c0.442,0.326 0.922,0.077 1.632,-0.307c0.711,-0.384 0.73,-0.807 0.73,-0.807c0,0 0.019,0.135 0.346,0.845c0.326,0.711 -0.135,3.226 0.345,3.437c0.48,0.211 2.112,0.941 2.65,1.747c0.537,0.807 0.057,1.632 -0.211,2.496c-0.269,0.864 2.688,4.013 3.206,4.147c0.518,0.135 1.613,0.922 2.477,1.325c0.864,0.403 1.286,0.653 2.515,0.941c1.229,0.288 3.437,0.365 4.243,0.691c0.807,0.327 2.956,1.161 2.217,1.104c-0.598,-0.046 -1.66,-0.278 -2.044,-0.364c-0.051,-0.021 -0.1,-0.033 -0.144,-0.033c0,-0 0.053,0.012 0.144,0.033c0.278,0.113 0.623,0.478 0.623,0.478c0.341,-0.085 0.654,0.455 0.426,0.966c-0.227,0.511 -0.994,1.563 -1.704,2.159c-0.711,0.597 -1.751,1.214 -2.148,1.635c-0.396,0.421 -1.139,2.081 -0.644,2.428c0.396,0.277 1.948,0.871 2.555,1.098c0.083,0.028 0.165,0.058 0.245,0.091c-0,0 -0.093,-0.034 -0.245,-0.091c-2.313,-0.77 -6.102,0.321 -6.891,0.512c-0.817,0.199 -5.078,1.264 -5.871,1.536c-0.793,0.273 -1.387,0.595 -0.743,0.546c0.644,-0.05 0.47,-0.174 2.651,-0.496c2.18,-0.322 4.186,0.496 4.186,0.496c-2.403,0.099 -4.781,0.867 -5.772,1.313c-0.991,0.446 -4.311,2.75 -6.937,3.146c-2.626,0.396 -2.155,0.545 -0.371,0.644c1.783,0.099 6.812,-1.09 8.943,-1.709c2.131,-0.62 5.104,-2.899 4.881,-2.527c-0.223,0.371 -0.298,0.693 -0.867,1.263c-0.57,0.57 -3.196,2.403 -0.595,1.363c2.601,-1.041 4.36,-3.964 4.36,-3.964c0.248,0.718 0.075,1.709 0.075,1.709c0.545,-0.495 1.214,-2.824 1.214,-2.824c0.52,1.957 -1.536,5.599 -2.602,6.763c-1.065,1.165 -2.824,2.156 -3.914,2.676c-1.09,0.52 -1.363,0.867 -2.032,2.131c-0.669,1.263 -2.725,3.27 -3.716,3.914c-0.991,0.644 -2.998,1.288 -3.691,1.437c-0.694,0.149 -0.198,0.595 0.793,0.966c0.991,0.372 -0.545,0.446 -1.66,0.372c-1.115,-0.075 -2.354,0.421 -3.295,0.693c-0.942,0.273 -1.908,0.223 -2.849,0.174c-0.942,-0.05 -6.293,-0.842 -6.937,-1.165c-0.644,-0.322 -1.858,-1.734 -1.289,-0.024c0.57,1.709 3.717,3.121 4.955,3.468c1.239,0.347 2.552,0.619 -0.297,0.446c-2.849,-0.173 -4.781,-1.759 -5.178,-1.932c-0.396,-0.174 -1.016,-0.768 -0.446,0.074c0.57,0.842 4.559,2.428 4.559,2.428c-0.347,-0.025 -2.502,-0.669 -2.874,-0.867c-0.372,-0.198 -0.273,-0.025 -1.561,-0c-1.288,0.025 -3.567,-0.843 -3.567,-0.843c1.412,1.239 4.434,1.214 4.434,1.214c-3.443,0.298 -5.624,-1.387 -5.624,-1.387c0.62,1.561 -0.668,2.032 -0.668,2.032c0.52,-0.223 0.297,-0.967 0.297,-0.967c-0,0 -0.297,0 -0.917,-0.173c-0.619,-0.174 -1.486,-0.842 -1.486,-0.842c-1.412,-0 -1.462,-0.199 -2.23,-0.669c-0.768,-0.471 -1.065,-1.933 -1.214,-2.403c-0.149,-0.471 -0.198,-1.536 -0.223,-1.809c-0.025,-0.273 -0.248,-0.446 -0.347,-0.818c-0.099,-0.371 -0.223,-0.966 -0.248,-1.412c-0.024,-0.446 -0.346,-0.223 -0.396,0.149c-0.049,0.372 -0.124,0.991 -0.644,1.883c-0.52,0.892 -2.899,2.18 -3.592,2.552c-0.694,0.371 -1.115,0.024 -1.487,-0.223c-0.371,-0.248 -1.288,-0.075 -2.824,0.223c-1.536,0.297 -1.288,1.709 -1.288,1.709c-0.521,-1.189 0.623,-2.567 0.623,-2.567c-0,0 -2.68,-0.037 -3.179,-0.203c-0.499,-0.166 -1.608,-1.183 -2.033,-1.386c-0.425,-0.203 -0.776,-0.425 -0.776,-0.425c0.37,-0.074 1.331,0.425 1.903,0.554c0.573,0.13 1.571,-0.129 1.571,-0.129c0,-0 -1.497,-0.37 -2.051,-0.628c-0.555,-0.259 -2.735,-0.388 -3.715,-0.388c-0.979,-0 -1.534,-0.333 -3.751,-1.35c-2.218,-1.016 -3.253,-2.254 -4.084,-3.326c-0.832,-1.072 0.757,-0.019 1.903,0.795c1.146,0.813 0.481,-0.388 -0.166,-1.035c-0.647,-0.647 -3.123,-3.401 -4.14,-5.101c-1.016,-1.7 -0.702,-3.733 -0.702,-3.733c-0,-0 0.332,1.331 0.979,2.587c0.647,1.257 0.444,0.425 0.444,0.425c-1.072,-1.774 -1.035,-4.084 -0.943,-4.638c0.093,-0.555 0.407,0.074 0.407,0.074c1.22,3.474 3.53,4.472 3.53,4.472c-0.666,-0.887 -0.536,-1.608 -0.536,-1.608c2.384,2.957 2.642,2.014 2.642,2.014c-1.182,-1.219 -1.034,-3.899 -1.034,-3.899c0.794,2.828 1.423,2.587 2.956,4.029c1.534,1.441 4.731,1.404 5.822,0.739c0.441,-0.269 0.949,-0.448 1.397,-0.565Z" style="fill:#9ae1ed;"/><path d="M119.292,53.872c0,-0 0.355,-0.448 0.541,-0.757c0.185,-0.309 0.633,-1.22 1.142,-1.436c0.51,-0.216 2.147,-0.386 2.61,-0.386c0.463,-0 1.158,-0.108 1.544,0.309c0.387,0.417 0.634,0.463 1.56,0.216c0.927,-0.247 1.405,-0.417 1.961,-0.68c0.556,-0.262 1.884,-1.034 2.27,-1.559c0.386,-0.525 0.603,-1.405 0.603,-1.405c-0,-0 -1.406,0.03 -2.672,-0.109c-1.266,-0.139 -2.502,-0.046 -2.841,-0.741c-0.34,-0.695 -0.217,-1.637 -0.217,-1.791c0,-0.155 -0.247,-0.216 -0.555,-0.819c-0.309,-0.602 -0.603,-0.818 -0.634,-1.189c-0.03,-0.37 -0.03,-1.328 -0.03,-1.328c-0,0 -0.973,-0.339 -1.174,-0.54c-0.201,-0.201 -0.463,-0.216 -0.587,0.062c-0.123,0.278 -0.757,0.864 -1.359,0.741c-0.602,-0.124 -0.741,-0.386 -0.849,-0.71c-0.108,-0.325 -0.433,-0.989 -0.433,-0.989l-0.154,-1.559l9.08,-3.83l2.517,5.327c0,0 0.016,0.634 0.016,1.189c-0,0.556 -0.062,1.313 -0.17,1.437c-0.108,0.123 -0.958,0.556 -0.958,0.556l0.078,0.88c-0,-0 1.189,0.092 1.992,0.123c0.803,0.031 2.285,0.016 2.285,0.016l3.104,7.35c0,0 -1.421,0.247 -2.502,0.541c-1.081,0.293 -3.212,1.096 -4.601,1.853c-1.39,0.756 -3.614,2.409 -3.614,2.409l-0.139,1.76c0,0 -0.88,0.525 -1.529,0.834c-0.648,0.309 -1.976,1.035 -1.976,1.035l-1.483,1.158l-2.826,-7.968Z" style="fill:#805a69;"/><path d="M97.113,52.722c0.196,-0.275 0.507,-0.377 1.218,-0.565c0.71,-0.189 1.827,-0.595 2.291,-0.899c0.464,-0.305 1.392,-1.218 1.639,-1.538c0.246,-0.319 1.218,-1.609 1.218,-1.609c-0,-0 0.421,0.058 0.682,0.203c0.261,0.145 0.536,0.087 1.087,-0.015c0.551,-0.101 1.552,-0.174 1.929,-0.188c0.377,-0.015 0.74,0.101 1.32,-0.174c0.58,-0.276 1.769,-0.667 2.19,-0.667c0.42,-0 1,-0.044 1.276,0.087c0.275,0.13 0.884,0.768 0.957,0.986c0.072,0.217 0.217,0.681 0.217,0.681c0,0 0.856,0.073 1.175,0.29c0.319,0.218 0.522,0.305 0.87,0.479c0.348,0.174 0.522,0.261 0.899,0.116c0.377,-0.145 0.784,-0.609 1.132,-0.595c0.348,0.015 0.841,0.174 1.16,0.45c0.319,0.276 1,0.537 1.044,0.986c0.043,0.45 0.159,1.697 0.159,1.697c0,-0 0.16,0.072 0.349,0.449c0.188,0.378 0.13,0.856 0.116,1.233c-0.015,0.377 0.159,0.841 0.362,1.189c0.203,0.348 0.479,0.711 0.841,1.32c0.363,0.609 0.957,2.654 1.044,3.22c0.087,0.565 -0.043,0.942 0.131,1.276c0.174,0.333 0.812,0.275 0.812,0.275c0,0 0.189,0.392 0.29,0.885c0.102,0.493 0.508,1.929 0.421,2.509c-0.087,0.58 -0.116,1.145 -0.261,1.45c-0.145,0.305 -0.624,1.117 -0.958,1.146c-0.333,0.029 -0.797,-0.015 -0.797,-0.015c-0,0 -1.073,2.147 -1.494,2.814c-0.42,0.667 -2.088,2.813 -3.016,3.437c-0.929,0.623 -1.625,0.58 -1.625,0.58l-2.073,0.783c-0,-0 -0.029,0.435 -0.61,0.551c-0.58,0.116 -3.654,0.769 -4.858,0.609c-1.203,-0.16 -4.321,-0.609 -5.699,-1.117c-1.378,-0.507 -3.524,-1.276 -5.018,-3.698c-1.494,-2.422 -2.48,-3.698 -2.842,-6.337c-0.363,-2.64 -0.667,-4.293 -0.667,-4.945c-0,-0.653 0.304,-2.045 0.638,-2.161c0.333,-0.116 0.551,-0.16 0.551,-0.16c-0,0 0.348,-0.797 0.754,-1.508c0.406,-0.711 0.536,-0.74 0.594,-1.508c0.058,-0.769 0.087,-1.349 0.552,-2.002Zm-12.407,3.533c0.14,0.304 0.694,1.482 1.045,1.95c0.404,0.539 0.578,0.828 0.616,1.116c0.039,0.289 0.154,0.809 0.289,1.214c0.135,0.404 0.424,1.367 0.424,1.367l0.115,0.943c0,0 -2.06,-0.154 -2.291,0.231c-0.231,0.385 0.058,0.944 0.058,0.944c-0,-0 -0.193,-0.694 0.115,-0.867c0.308,-0.173 1.271,0.25 1.271,0.25c-0,0 -0.096,0.386 -0.135,0.636c-0.038,0.25 -0.077,1.29 0.058,2.176c0.135,0.885 0.443,1.367 0.789,1.906c0.347,0.539 0.482,0.481 0.482,0.886c-0,0.404 -0,0.616 -0.058,0.885c-0.058,0.27 -0.193,0.482 -0.193,0.482c0,-0 -0.442,0.443 -0.962,0.77c-0.52,0.327 -0.751,0.501 -1.175,0.828c-0.424,0.327 -0.616,0.443 -1.213,0.809c-0.597,0.365 -0.616,0.52 -1.386,0.597c-0.771,0.077 -1.598,0.25 -2.272,-0.077c-0.674,-0.328 -1.926,-1.926 -1.926,-1.926c0,0 -0.173,0.963 0.096,1.483c0.27,0.52 0.867,1.193 0.867,1.193c-0,0 -1.194,0.155 -1.849,0.405c-0.654,0.25 -0.924,0.693 -1.444,0.674c-0.52,-0.02 -1.367,-0.212 -2.06,-0.674c-0.693,-0.462 -0.847,-1.232 -1.098,-1.387c-0.25,-0.154 -1.02,-0.635 -1.29,-0.885c-0.269,-0.251 -0.25,0.231 -0.847,-0.231c-0.597,-0.462 -0.943,-0.597 -1.617,-1.502c-0.674,-0.905 -1.521,-1.579 -1.906,-2.484c-0.386,-0.905 -1.252,-2.445 -1.348,-2.85c-0.097,-0.404 -0.231,-0.809 -0.231,-0.809c-0,0 -0.366,-0.038 -0.732,-0.442c-0.366,-0.405 -0.79,-1.021 -0.732,-1.733c0.058,-0.713 0.52,-1.387 0.52,-1.387c0,0 0,0.154 0.096,-1.02c0.097,-1.175 0.27,-1.271 0.27,-1.271l0.038,-1.425l-0.25,-0.578c0,0 0.193,-1.039 0.25,-1.636c0.058,-0.597 0.155,-0.713 0.155,-0.713c-0,0 -0.578,-0.308 -0.463,-1.27c0.116,-0.963 0.713,-1.579 1.156,-1.887c0.443,-0.309 4.043,-2.041 4.043,-2.041c0,-0 0.501,-0.174 1.021,-0.077c0.52,0.096 0.751,0.269 0.751,0.269c-0,0 0.019,-0.847 0.231,-1.04c0.212,-0.192 0.731,-0.712 1.155,-0.866c0.424,-0.154 1.752,-0.289 2.118,-0.058c0.366,0.231 1.078,1.001 1.444,1.329c0.366,0.327 0.944,0.808 1.444,1.039c0.501,0.232 1.213,0.328 1.213,0.328c0,-0 0.328,0.558 0.559,1.02c0.231,0.462 0.943,1.329 1.482,1.887c0.54,0.559 1.907,1.406 2.523,1.714c0.616,0.308 0.886,0.52 0.886,0.52c-0,-0 -0.097,0.847 0.192,1.425c0.289,0.577 1.367,1.925 1.367,1.925c0,0 -1.224,-1.151 -1.661,-2.065c-0.021,-0.046 -0.033,-0.072 -0.033,-0.072c0.01,0.024 0.021,0.048 0.033,0.072Z" style="fill:#970541;"/><path d="M89.159,67.117c0.015,0.412 0.073,1.062 0.29,1.336c0,-0 -0.317,-0.208 -0.574,-0.843c-0.257,-0.635 -0.293,-1.112 -0.293,-1.112c-0,0 0.378,0.074 1.063,0.184c0.684,0.11 1.978,0.232 2.772,0.134c0.794,-0.098 1.185,-0.244 1.185,-0.244c0,-0 -0.183,0.879 -0.403,1.209c-0.22,0.33 -1.136,1.454 -1.429,1.454c-0.293,-0 -0.904,-1.1 -1.16,-1.552c-0.257,-0.452 -0.135,0.086 -0.135,0.086c0,-0 0.306,0.733 0.11,0.659c-0.195,-0.073 -0.639,0.122 -0.953,-0.378c-0.279,-0.445 -0.413,-0.739 -0.473,-0.933c-0.007,-0.213 -0.003,-0.362 -0.003,-0.362c-0,-0 -0.092,0.055 0.003,0.362Zm-2.153,-8.229c0,0 0.476,0.452 0.635,0.965c0.159,0.513 0.587,1.613 0.733,2.077c0.147,0.464 0.88,1.283 1.161,1.478c0.281,0.195 0.891,0.195 0.806,-0.269c-0.086,-0.464 -0.391,-1.148 -0.391,-1.148c-0,0 0.146,-0.134 0.366,0.159c0.22,0.293 0.648,0.794 0.941,0.94c0.293,0.147 0.623,0.318 0.928,0.294c0.306,-0.025 0.464,-0.733 0.513,-1.197c0.049,-0.465 0.33,-1.515 0.513,-1.955c0.184,-0.44 0.269,-0.696 0.269,-0.696c0,-0 -1.808,0.159 -3.237,0.085c-1.429,-0.073 -2.675,-0.317 -3.237,-0.733Z" style="fill:#332242;"/><path d="M107.516,54.41c2.745,-0.048 5.284,0.635 6.029,1.222c0.746,0.587 2.825,2.523 3.079,3.189c0.254,0.666 1.206,2.872 0.428,5.093c-0.777,2.222 -2.523,4.205 -3.269,4.777c-0.745,0.571 -0.603,0.793 -0.603,0.793l-0.904,0.476c0,-0 -0.032,-0.222 -0.206,-0.191c-0.175,0.032 -2,0.937 -3.856,0.794c-1.856,-0.143 -3.761,-0.492 -4.665,-1.079c-0.904,-0.587 -3.602,-3.539 -4.014,-4.586c-0.413,-1.047 -0.651,-3.094 -0.381,-4.236c0.269,-1.143 1.269,-2.983 2.158,-3.935c0.888,-0.953 0.872,-1.159 0.872,-1.159l0.445,-0.301c-0,-0 0.222,0.047 0.428,-0.016c0.206,-0.064 1.317,-0.841 4.459,-0.841Zm-34.664,1.109c-0,0 1.609,0.201 2.568,0.433c0.959,0.232 2.305,0.959 3.155,1.671c0.851,0.711 2.336,1.933 3.187,3.202c0.851,1.268 1.965,3.357 1.918,4.795c-0.046,1.439 0.139,2.522 -0.51,3.341c-0.65,0.82 -1.625,1.826 -3.357,1.578c-1.733,-0.247 -4.455,-1.655 -5.646,-2.908c-1.191,-1.253 -2.862,-3.743 -3.109,-4.61c-0.248,-0.866 -0.526,-1.84 -0.511,-2.738c0.016,-0.897 -0.046,-2.413 -0.015,-3.124c0.031,-0.712 0.51,-1.578 2.32,-1.64Z" style="fill:#324a9c;"/><path d="M108.056,31.777c0.165,-0.338 0.533,-0.657 0.693,-1.012c0.159,-0.356 0.319,-0.604 0.408,-0.942c0.089,-0.338 -0.071,-1.226 0.16,-1.759c0.231,-0.533 0.107,-1.012 0.942,-1.243c0.835,-0.231 1.101,-0.302 1.794,-0.835c0.693,-0.533 1.457,-0.835 1.67,-1.208c0.213,-0.374 0.622,-1.209 1.475,-1.422c0.852,-0.213 1.901,-0.035 1.901,-0.035l13.537,12.613c0,0 -0.746,0.782 -1.492,1.137c-0.746,0.356 -3.998,2.452 -8.563,2.665c-4.566,0.214 -7.267,-0.497 -8.261,-1.492c-0.995,-0.995 -1.937,-2.221 -2.523,-3.056c-0.586,-0.835 -2.15,-2.576 -1.741,-3.411Z" style="fill:#4a0003;"/><path d="M122.101,27.447c0,-0 -1.73,-0.134 -3.81,0.738c-2.079,0.872 -5.406,3.018 -6.037,4.011c-0.631,0.993 -1.06,1.785 -0.979,2.361c0.08,0.577 0.858,1.355 1.449,1.691c0.59,0.335 2.441,1.382 4.051,1.476c1.61,0.093 4.36,0.12 6.024,-0.497c1.664,-0.617 4.427,-1.73 5.098,-2.495c0.671,-0.765 -5.796,-7.285 -5.796,-7.285Z" style="fill:#233254;"/><path d="M106.313,98.944c-0.338,-1.307 -1.017,-2.301 -2.208,-2.693c-3.263,-1.072 -8.896,1.386 -13.276,7.108c-4.381,5.721 -5.453,7.648 -5.722,8.405c0,0 1.654,-4.827 4.336,-7.911c2.682,-3.085 9.476,-10.192 14.751,-8.762c1.574,0.427 2.614,1.702 3.166,3.443c1.84,-0.641 3.581,-0.794 5.014,-0.135c5.051,2.325 4.202,11.667 -1.922,19.132c-6.124,7.464 -11.667,12.202 -14.483,10.191c0,-0 -1.499,-0.958 -0.075,-6.533c-2.958,2.176 -5.557,3.059 -6.63,1.08c-2.011,-3.71 2.101,-11.175 5.633,-14.796c2.341,-2.401 7.041,-6.629 11.416,-8.529Zm-9.607,21.622c-0.389,1.734 -1.276,6.284 0.023,6.754c1.609,0.581 6.839,-1.386 12.784,-10.281c5.945,-8.895 6.526,-15.466 2.637,-17.612c-1.128,-0.622 -2.741,-0.507 -4.542,0.077c0.822,4.115 -0.63,10.106 -3.906,14.048c-2.113,2.543 -4.632,5.133 -6.996,7.014Zm-31.292,6.586c-0.127,-0.091 0.327,-0.764 1.513,-1.435c1.185,-0.671 2.589,-0.827 2.667,-0.624c0.078,0.203 -1.404,0.281 -2.48,0.967c-1.076,0.687 -1.482,1.248 -1.7,1.092Zm-1.201,-1.872c-0.183,-0.142 0.92,-1.029 1.544,-1.325c0.624,-0.297 2.246,-0.499 2.262,-0.297c0.015,0.203 -1.451,0.312 -1.997,0.609c-0.546,0.296 -1.669,1.123 -1.809,1.013Zm42.284,-25.368c-4.186,1.712 -9.013,5.513 -11.109,8.366c-3.218,4.38 -6.928,9.653 -5.677,12.558c1.252,2.906 4.381,2.012 9.03,-3.129c4.648,-5.14 6.258,-6.392 7.152,-10.594c0.491,-2.308 0.887,-5.035 0.604,-7.201Zm-25.691,14.062c0.251,0.15 0.19,-0.515 0.488,-0.379c0.298,0.135 0.19,2.737 0.082,3.74c-0.109,1.003 -0.407,2.683 -0.624,2.575c-0.217,-0.109 0.054,-0.298 -0.244,-0.325c-0.298,-0.028 -0.406,0.352 -0.244,0.704c0.163,0.353 0.651,0.813 0.895,0.027c0.244,-0.786 0.623,-2.873 0.65,-3.957c0.027,-1.084 0.163,-3.605 -0.569,-3.496c-0.732,0.108 -0.705,0.948 -0.434,1.111Zm-2.439,4.933c0.299,-0 -0.027,0.894 0.298,0.867c0.326,-0.027 0.651,-1.707 0.624,-3.388c-0.027,-1.68 0.054,-3.469 -0.38,-3.415c-0.433,0.054 -0.677,2.006 -1.057,2.06c-0.379,0.054 -0.244,-0.894 0,-1.599c0.244,-0.705 0.569,-1.193 1.084,-1.166c0.515,0.028 1.003,1.735 0.732,4.446c-0.271,2.71 -0.623,3.902 -1.003,3.93c-0.379,0.027 -0.759,-1.735 -0.298,-1.735Zm4.906,-4.418c0.074,0.278 0.244,-0.108 0.488,-0.054c0.244,0.054 0.488,1.789 0.406,2.52c-0.081,0.732 -0.623,2.575 -0.975,3.036c-0.353,0.461 -0,0.786 0.298,0.298c0.298,-0.488 1.03,-2.71 1.03,-3.334c-0,-0.623 -0.136,-3.008 -0.624,-3.035c-0.488,-0.027 -0.731,0.162 -0.623,0.569Zm-52.449,-3.431c0.237,0.493 0.529,1.134 1.001,1.277c0.665,0.203 2.112,0.058 3.5,-1.157c1.389,-1.215 4.369,-4.542 5.15,-6.914c0.781,-2.372 1.938,-5.178 1.706,-7.03c-0.231,-1.851 -0.752,-3.327 -1.417,-3.934l-0.043,-0.04c-0.442,0.017 -1.051,0.085 -1.635,0.3c-1.099,0.405 -1.302,-0.26 0.289,-0.636c0.239,-0.057 0.526,-0.114 0.841,-0.149c-0.472,-0.476 -0.798,-0.886 -0.291,-0.632c0.232,0.116 0.545,0.319 0.867,0.6c1.738,0.004 3.901,0.975 3.791,6.14c-0.145,6.77 -3.993,12.353 -6.249,14.436c-2.257,2.083 -2.835,3.153 -6.77,2.285c0,0 -1.475,-0.867 -1.504,-3.645c-0.007,-0.668 0.289,-0.607 0.521,0.319c0.231,0.925 0.607,2.372 2.083,2.748c1.475,0.376 3.355,1.012 6.133,-2.748c2.777,-3.761 5.612,-7.898 5.438,-13.279c-0.173,-5.381 -2.864,-5.728 -2.864,-5.728c0,-0 -0.021,-0.002 -0.062,-0.005c0.449,0.525 0.832,1.202 0.93,2.001c0.203,1.649 1.071,3.645 -1.157,8.245c-2.227,4.6 -4.339,7.695 -6.046,8.65c-1.707,0.955 -2.604,1.186 -3.414,0.752c-0.338,-0.181 -0.838,-0.937 -1.197,-1.624c-0.66,0.365 -1.327,0.646 -1.985,0.843c-2.604,0.781 -3.385,-2.922 -2.893,-6.046c0.492,-3.125 2.604,-6.625 3.674,-8.187c1.07,-1.563 1.707,-1.418 0.665,-0c0,-0 -0.491,1.128 -2.459,4.831c-1.967,3.703 -1.33,6.393 -0.202,8.071c0.822,1.223 1.737,1.017 3.012,0.109c-0.357,-0.768 -0.428,-1.258 0.315,-0.34c0.017,0.021 0.034,0.044 0.051,0.07c0.375,-0.288 0.78,-0.625 1.222,-0.996c2.169,-1.823 4.397,-5.67 5.815,-8.91c1.417,-3.24 1.012,-3.096 1.099,-5.815c0.087,-2.719 0.752,-0.232 0.521,2.199c-0.232,2.43 -1.649,5.149 -3.559,8.649c-1.329,2.438 -3.065,4.188 -4.877,5.29Z" style="fill:#6bbdf5;"/><path d="M40.968,66.66c-0,0 -0.186,-1.118 0.062,-1.615c0.249,-0.498 1.056,-1.709 0.777,-2.672c-0.28,-0.963 -1.243,-1.771 -1.74,-1.988c-0.497,-0.218 -0.808,-0.249 -0.808,-0.249c0,-0 -1.398,0.59 -2.392,1.118c-0.994,0.529 -2.392,0.591 -3.044,-0.435c-0.653,-1.025 -0.125,-1.988 -0.498,-2.671c-0.372,-0.684 -2.019,-3.822 -2.019,-3.822c0,0 -0.621,0.187 -0.901,0.529c-0.279,0.341 -0.621,0.932 -1.491,1.025c0,-0 -0.435,0.031 -0.466,-0.404c-0.031,-0.435 -0.093,-1.833 -0.342,-2.175c-0.248,-0.341 -0.652,-1.242 -1.211,-1.242c-0.56,-0 -1.833,-0.342 -2.392,0.186c-0.56,0.528 -0.529,1.243 -1.305,1.802c-0.777,0.559 -1.336,1.553 -1.958,1.802c-0.621,0.248 -1.211,-0.062 -1.584,-0.311c-0.373,-0.248 -0.839,-0.621 -0.839,-0.621c0,-0 -0.435,0.341 -0.59,0.714l-0.497,0.187l-1.833,-3.169l-0.683,-0.342l-1.243,0.621l-1.025,-0.994l0.217,-0.31l0.59,0.621l1.026,-0.217l-1.585,-1.088l0.59,-0.839c0,0 0.591,-0.279 0.901,0.125c0,-0 0,-0.622 -0.745,-0.87c-0,-0 0.155,-0.342 0.621,-0.187c0.466,0.156 0.621,1.305 0.621,1.305l0.466,0.963l2.517,-0.994c-0,0 1.802,1.398 2.237,1.802c0.435,0.404 1.18,0.528 1.18,0.528c0,0 -0.093,-0.963 0,-1.367c0.093,-0.404 1.212,0.156 2.61,-0.248c1.398,-0.404 2.175,-0.932 2.578,-0.901c0.404,0.031 0.87,1.149 1.305,1.211c0.435,0.062 1.616,-0.186 1.616,-0.186c-0,-0 0.807,0.59 1.522,0.746c0.714,0.155 1.274,0.186 1.274,0.186l0.062,1.025l1.025,-0.186l0.031,2.485l-0.839,-0.839l-0.466,0.031c0,0 0.559,0.994 0.901,1.46c0.342,0.466 0.808,0.932 0.901,1.616c0.093,0.683 -0.093,1.553 -0.062,1.957c0.031,0.404 0.062,1.305 1.367,1.274c1.305,-0.031 2.734,-1.46 3.945,-1.553c1.212,-0.094 2.61,0.714 2.828,1.553c0.217,0.839 0.248,2.361 -0.28,3.262c-0.528,0.901 -0.839,1.678 -0.932,2.361Zm1.087,-4.629c0,0 0.031,-0.746 -0.621,-1.149c-0.652,-0.404 -1.398,-0.839 -1.398,-0.839c-0,-0 0.59,-0.093 1.118,0.155c0.528,0.249 1.026,0.994 0.901,1.833Zm-14.255,-9.812c-0,-0 1.129,0.349 1.536,0.663c0.407,0.314 1.478,0.966 1.385,1.268c-0.093,0.303 -0.768,0.757 -0.989,1.025c-0.221,0.267 -0.512,0.36 -0.757,0.337c-0.244,-0.023 -0.116,-0.919 -0.279,-1.42c-0.163,-0.5 -0.547,-1.454 -0.896,-1.873Zm-6.668,2.048c-0,-0 -0.675,0.314 -1.024,0.291c-0.349,-0.023 -1.269,0.07 -0.792,0.302c0.478,0.233 0.78,0.594 1.013,0.512c0.233,-0.081 0.71,-0.709 0.803,-1.105Zm-4.597,-1.082c0,-0 0.594,0.861 0.803,1.291c0.21,0.431 0.349,0.78 0.524,0.745c0.174,-0.035 0.547,-0.372 0.523,-0.582c-0.023,-0.209 -0.419,-0.407 -0.744,-0.698c-0.326,-0.291 -0.862,-0.698 -1.106,-0.756Zm7.129,-0.66c-0,-0 -0.218,0.652 -0.808,1.367c-0.59,0.714 -1.118,1.149 -1.118,1.149c-0,0 0.093,-0.932 0.59,-1.584c0.497,-0.653 0.745,-0.746 1.336,-0.932Zm-2.323,0.985c0,0 -0.512,0.547 -1.152,0.64c-0.64,0.094 -1.14,0.257 -1.35,0.28c-0.209,0.023 -0.791,-0.745 -1.14,-1.059c-0.349,-0.314 -1.548,-1.106 -1.35,-1.315c0.198,-0.21 1.466,-0.803 1.769,-0.838c0.302,-0.035 1.21,0.966 1.501,1.233c0.291,0.268 0.64,0.827 1.722,1.059Zm7.215,-1.629c0,0 0.734,-0.186 1.141,-0.058c0.407,0.128 1.292,0.675 1.676,0.663c0.384,-0.011 0.768,-0.081 0.744,0.175c-0.023,0.256 0.198,0.756 -0.186,0.826c-0.384,0.07 -0.721,0.07 -1.001,-0.105c-0.279,-0.174 -1.862,-1.256 -2.374,-1.501Zm-13.58,-0.547c-0,0 -0.093,-0.419 -0.384,-0.675c-0.291,-0.256 -0.792,-0.139 -0.524,0.128c0.268,0.268 0.454,0.373 0.908,0.547Z" style="fill:#c5f8fb;"/></g></g></svg>