<?xml version="1.0" encoding="UTF-8" standalone="no"?><!DOCTYPE svg PUBLIC "-//W3C//DTD SVG 1.1//EN" "http://www.w3.org/Graphics/SVG/1.1/DTD/svg11.dtd"><svg width="100%" height="100%" viewBox="0 0 150 150" version="1.1" xmlns="http://www.w3.org/2000/svg" xmlns:xlink="http://www.w3.org/1999/xlink" xml:space="preserve" xmlns:serif="http://www.serif.com/" style="fill-rule:evenodd;clip-rule:evenodd;stroke-linejoin:round;stroke-miterlimit:2;"><path id="base" d="M150,75c0,-41.394 -33.606,-75 -75,-75c-41.394,0 -75,33.606 -75,75c0,41.394 33.606,75 75,75c41.394,0 75,-33.606 75,-75Z" style="fill:#daaf57;"/><path id="outline" d="M144,75c0,-38.082 -30.918,-69 -69,-69c-38.082,0 -69,30.918 -69,69c0,38.082 30.918,69 69,69c38.082,0 69,-30.918 69,-69Z" style="fill:#0b1324;"/><path id="core" d="M141,75c0,-36.426 -29.574,-66 -66,-66c-36.426,0 -66,29.574 -66,66c0,36.426 29.574,66 66,66c36.426,0 66,-29.574 66,-66Z" style="fill:#97c6ce;"/><clipPath id="_clip1"><path d="M141,75c0,-36.426 -29.574,-66 -66,-66c-36.426,0 -66,29.574 -66,66c0,36.426 29.574,66 66,66c36.426,0 66,-29.574 66,-66Z"/></clipPath><g clip-path="url(#_clip1)"><g id="jinx"><path d="M8.459,81.655c0,0 0.9,-0.09 1.238,0.09c0.337,0.18 0.36,1.013 0.652,1.103c0.293,0.09 0.878,-0.09 1.305,-0.023c0.428,0.068 0.743,0.923 1.17,1.035c0.428,0.113 1.26,-0.112 1.778,0.068c0.517,0.18 0.315,0.922 0.697,0.944c0.382,0.023 1.395,-0.517 1.89,-0.292c0.495,0.225 0.63,1.057 1.215,1.192c0.585,0.135 1.597,-0.18 1.98,-0.067c0.382,0.112 0.652,1.192 0.9,1.215c0.247,0.022 1.305,-0.338 1.687,-0.248c0.382,0.09 0.472,0.675 1.035,0.9c0.562,0.225 1.935,-0.18 2.272,0.023c0.338,0.202 0.27,0.697 0.608,0.832c0.337,0.135 1.98,0 2.272,0c0.293,0 0.428,0.855 0.72,0.878c0.293,0.022 1.013,-0.608 1.485,-0.495c0.472,0.112 1.35,1.035 1.575,1.035c0.225,-0 1.057,-0.72 1.53,-0.608c0.472,0.113 1.282,1.125 1.53,1.148c0.247,0.022 1.012,-0.473 1.462,-0.428c0.45,0.045 1.035,1.035 1.44,1.08c0.405,0.045 1.147,-0.45 1.485,-0.382c0.337,0.067 0.765,0.63 1.215,0.675c0.45,0.045 1.507,-0.585 2.025,-0.473c0.517,0.113 0.675,0.833 1.035,0.9c0.36,0.068 1.215,-0.765 1.732,-0.652c0.517,0.112 1.035,0.855 1.372,0.855c0.338,-0 1.058,-0.36 1.395,-0.405c0.338,-0.045 0.968,0.742 1.463,0.787c0.495,0.045 0.922,-0.832 1.372,-0.855c0.45,-0.022 1.418,0.54 1.98,0.585c0.563,0.045 1.642,-0.472 1.98,-0.495c0.337,-0.022 -1.051,3.626 -1.699,3.648c-0.647,0.022 -0.938,-0.715 -1.384,-0.737c-0.447,-0.022 -1.005,0.692 -1.742,0.715c-0.737,0.022 -1.183,-0.603 -1.652,-0.693c-0.469,-0.089 -0.938,0.38 -1.563,0.313c-0.625,-0.067 -0.804,-0.67 -1.206,-0.715c-0.402,-0.044 -0.803,0.626 -1.429,0.559c-0.625,-0.067 -1.272,-0.581 -1.697,-0.715c-0.424,-0.134 -1.049,0.335 -1.719,0.335c-0.67,0 -0.915,-0.603 -1.362,-0.647c-0.446,-0.045 -1.228,0.245 -1.652,0.223c-0.424,-0.022 -0.893,-0.782 -1.25,-0.893c-0.358,-0.112 -1.273,0.67 -1.719,0.536c-0.447,-0.134 -1.117,-1.005 -1.496,-1.027c-0.38,-0.023 -1.072,0.602 -1.429,0.558c-0.358,-0.045 -1.452,-1.027 -1.72,-1.094c-0.268,-0.067 -0.736,0.335 -1.071,0.357c-0.335,0.022 -0.938,-0.871 -1.318,-0.938c-0.379,-0.067 -2.031,-0.245 -2.322,-0.245c-0.29,-0 -0.29,-0.648 -0.536,-0.67c-0.245,-0.023 -2.031,-0.134 -2.322,-0.201c-0.29,-0.067 -0.268,-0.715 -0.714,-0.603c-0.447,0.112 -1.719,0.045 -2.166,-0.045c-0.446,-0.089 -0.692,-0.848 -0.982,-0.848c-0.291,-0 -1.34,0.111 -1.63,0.022c-0.29,-0.089 -1.072,-0.871 -1.34,-0.915c-0.268,-0.045 -0.893,0.201 -1.295,0.156c-0.402,-0.045 -1.295,-1.25 -1.54,-1.25c-0.246,-0 -1.519,0.089 -1.854,-0.112c-0.335,-0.201 -0.602,-0.58 -0.937,-0.714c-0.335,-0.134 -0.938,0.178 -1.429,0.111c-0.492,-0.067 -1.32,-4.393 -1.32,-4.393Zm55.46,13.259c0.426,0.319 0.638,-0.248 0.992,-0.248c0.355,0 2.161,0.355 2.586,0.319c0.425,-0.035 1.24,-0.956 1.807,-0.85c0.567,0.106 2.302,0.39 2.657,0.46c0.354,0.071 0.46,-0.991 0.921,-0.991c0.46,-0 -1.842,-2.02 -2.48,-1.949c-0.638,0.071 -1.452,0.567 -1.877,0.567c-0.426,0 -1.099,-0.319 -1.63,-0.212c-0.531,0.106 -1.275,0.885 -2.019,0.814c-0.744,-0.071 -2.055,-0.496 -2.055,-0.496l1.098,2.586Zm34.199,-47.246c0,0 1.395,1.299 1.738,1.356c0.344,0.057 1.204,-0.592 1.643,-0.458c0.439,0.133 1.222,0.917 1.7,1.146c0.477,0.229 0.668,-0.726 1.356,-0.516c0.687,0.21 1.451,1.413 1.872,1.452c0.42,0.038 5.711,1.509 5.711,1.509c-0,-0 1.47,0.152 1.833,0.191c0.363,0.038 0.229,0.668 0.649,0.744c0.421,0.077 1.834,-0.191 2.178,-0.076c0.344,0.115 0.917,1.222 1.318,1.356c0.401,0.134 1.757,-0.134 2.12,0.077c0.363,0.21 0.325,1.146 0.821,1.47c0.497,0.325 1.624,0.42 1.948,0.65c0.325,0.229 0,1.107 0.268,1.279c0.267,0.172 1.413,0.096 1.986,0.516c0.573,0.42 0.783,1.547 0.974,1.738c0.191,0.191 1.662,1.261 1.796,1.585c0.133,0.325 -0.039,1.223 -0.039,1.624c0,0.401 1.07,1.356 1.013,1.891c-0.058,0.534 -0.535,1.68 -0.573,1.986c-0.039,0.306 0.63,1.394 0.63,1.776c-0,0.382 -0.974,1.643 -1.089,2.159c-0.114,0.515 0.363,0.897 0.306,1.394c-0.057,0.497 -1.299,1.585 -1.547,2.005c-0.249,0.421 -0.287,1.853 -0.459,2.006c-0.172,0.153 -1.012,0.248 -1.203,0.496c-0.191,0.249 0.248,1.758 0.115,1.949c-0.134,0.191 -1.719,1.26 -1.796,1.413c-0.076,0.153 -0.133,1.375 -0.42,1.681c-0.286,0.305 -0.917,0.477 -1.108,0.687c-0.191,0.211 -0.84,1.433 -1.356,1.758c-0.515,0.324 -1.757,0.553 -1.757,0.553l-1.184,-2.788l1.91,-2.006c-0,0 1.203,-1.68 1.566,-1.871c0.363,-0.191 0.573,-0.23 0.821,-0.459c0.249,-0.229 -0.229,-1.432 -0.057,-1.642c0.172,-0.21 1.528,-0.898 1.604,-1.242c0.077,-0.344 0.115,-1.432 0.382,-1.776c0.268,-0.344 1.051,-0.267 1.185,-0.573c0.133,-0.306 -0.669,-1.471 -0.44,-1.872c0.229,-0.401 0.822,-0.917 0.917,-1.356c0.096,-0.439 -0.745,-1.108 -0.573,-1.681c0.172,-0.573 0.898,-1.26 0.84,-1.566c-0.057,-0.306 -0.783,-1.108 -0.935,-1.471c-0.153,-0.362 0.611,-0.993 0.496,-1.337c-0.114,-0.343 -1.337,-0.916 -1.471,-1.203c-0.133,-0.286 -0.038,-0.821 -0.152,-1.012c-0.115,-0.191 -1.395,0.229 -1.643,-0.115c-0.248,-0.344 -0.63,-1.547 -0.917,-1.795c-0.286,-0.248 -1.738,-0.535 -1.91,-0.745c-0.172,-0.21 -0.21,-0.993 -0.401,-1.165c-0.191,-0.172 -1.604,0.172 -1.891,-0.019c-0.286,-0.191 -0.42,-1.051 -0.783,-1.165c-0.363,-0.115 -1.279,0.114 -1.642,-0c-0.363,-0.115 -0.783,-0.841 -1.07,-0.917c-0.286,-0.076 -2.464,0.019 -2.769,-0.191c-0.306,-0.21 -2.789,-1.585 -3.133,-1.662c-0.344,-0.076 -1.394,0.115 -1.929,-0.114c-0.535,-0.23 -0.764,-0.554 -1.012,-0.803c-0.248,-0.248 -0.898,0.268 -1.49,0.191c-0.592,-0.076 -1.05,-0.783 -1.432,-0.897c-0.382,-0.115 -1.146,0.611 -1.624,0.496c-0.477,-0.114 -1.413,-1.184 -1.7,-1.26c-0.286,-0.077 -0.821,0.286 -1.241,0.172c-0.42,-0.115 -1.108,-4.126 1.05,-3.553Zm-55.552,16.372c-0.108,-0.16 -0.68,-0.821 -0.848,-0.794c-0.198,0.031 -1.282,0.824 -1.668,0.813c-0.386,-0.01 -1.179,-0.803 -1.387,-0.855c-0.209,-0.052 -0.897,0.907 -1.7,0.886c-0.803,-0.02 -1.356,-0.917 -1.606,-0.917c-0.25,-0 -1.189,0.542 -1.679,0.5c-0.49,-0.041 -0.928,-0.844 -1.178,-0.844c-0.251,-0 -1.127,0.427 -1.763,0.344c-0.636,-0.084 -1.147,-0.741 -1.439,-0.782c-0.292,-0.042 -0.782,0.385 -1.46,0.302c-0.678,-0.083 -1.523,-0.834 -1.762,-0.813c-0.24,0.02 -0.772,0.636 -1.241,0.563c-0.47,-0.073 -1.127,-1.241 -1.544,-1.231c-0.417,0.011 -1.262,0.209 -1.752,0.177c-0.49,-0.031 -0.792,-1.074 -1.449,-1.063c-0.657,0.01 -0.72,-0.021 -1.252,-0.032c-0.532,-0.01 -1.126,-0.375 -1.512,-0.448c-0.386,-0.073 -1.137,-0.031 -1.46,-0.063c-0.323,-0.031 -0.803,-0.938 -1.387,-1.001c-0.584,-0.062 -1.158,-0.114 -1.606,-0.104c-0.448,0.01 -0.886,-0.813 -1.304,-0.824c-0.417,-0.01 -1.147,-0.511 -1.147,-0.511c0,0 0.96,-2.753 1.335,-2.711c0.376,0.041 0.741,-0.105 0.98,0.271c0.24,0.375 0.292,0.834 0.564,0.928c0.271,0.094 1.282,-0.219 1.647,-0.031c0.365,0.187 0.689,0.897 0.96,1.032c0.271,0.136 1.7,-0.198 1.992,-0.052c0.292,0.146 0.26,0.615 0.604,0.709c0.345,0.094 2.107,-0.052 2.503,0.167c0.397,0.219 0.334,0.532 0.595,0.678c0.26,0.146 2.096,0.021 2.325,0.135c0.23,0.115 0.355,0.584 0.616,0.637c0.26,0.052 1.011,-0.553 1.428,-0.501c0.417,0.052 1.523,0.73 1.857,0.824c0.333,0.094 1.512,-0.136 1.783,-0.021c0.271,0.115 0.323,0.678 0.615,0.761c0.292,0.084 2.284,-0.25 2.493,-0.114c0.208,0.135 0.417,0.458 0.604,0.511c0.188,0.052 2.044,-0.449 2.368,-0.345c0.323,0.105 0.479,0.543 0.813,0.699c0.334,0.157 1.106,-0.803 1.45,-0.657c0.344,0.146 1.303,0.688 1.595,0.709c0.292,0.021 1.387,-0.813 1.721,-0.719c0.334,0.094 1.022,0.834 1.366,0.865c0.344,0.032 1.398,-1.053 1.679,-0.917c0.282,0.135 0.782,0.657 1.126,0.73c0.345,0.073 1.325,-1.033 1.69,-1.022c0.365,0.01 0.74,0.5 1.064,0.458c0.323,-0.041 1.042,-1.22 1.449,-1.272c0.407,-0.052 1.325,0.396 1.783,0.261c0.459,-0.136 1.064,-0.991 1.45,-1.064c0.386,-0.073 0.824,0.25 0.991,0.219c0.167,-0.031 1.178,-1.481 1.929,-1.522c0.751,-0.042 1.085,0.219 1.314,0.198c0.229,-0.021 0.355,-1.293 0.866,-1.387c0.511,-0.094 1.658,-0.167 1.898,-0.219c0.239,-0.052 0.375,-1.2 0.73,-1.252c0.354,-0.052 1.439,-0.073 1.679,-0.104c0.239,-0.031 -0.136,-1.116 0.166,-1.262c0.303,-0.146 2.003,-0.886 2.253,-1.157c0.25,-0.272 0.136,-1.189 0.282,-1.314c0.146,-0.126 1.772,-0.511 2.064,-0.803c0.292,-0.292 0.23,-1.304 0.564,-1.565c0.333,-0.26 0.823,-0.208 1.053,-0.386c0.229,-0.177 0.083,-1.428 0.48,-1.741c0.396,-0.313 1.272,-0.459 1.449,-0.636c0.177,-0.178 0.052,-0.908 0.219,-1.106c0.167,-0.198 3.004,0.063 3.004,0.063c-0,-0 -0.251,1.595 -0.449,1.825c-0.198,0.229 -1.105,0.563 -1.303,0.699c-0.199,0.135 0.073,2.012 -0.303,2.325c-0.375,0.313 -1.616,0.469 -1.825,0.584c-0.208,0.115 -0.146,1.669 -0.5,1.992c-0.355,0.323 -1.294,0.271 -1.533,0.428c-0.24,0.156 0.02,1.491 -0.219,1.699c-0.24,0.209 -1.93,0.72 -2.117,0.908c-0.188,0.187 -0.011,0.949 -0.303,1.251c-0.292,0.303 -2.096,0.636 -2.44,0.824c-0.344,0.188 -0.25,0.939 -0.772,1.22c-0.521,0.282 -2.023,0.125 -2.242,0.219c-0.219,0.094 -0.271,1.283 -0.563,1.408c-0.292,0.125 -2.253,-0.083 -2.513,0.021c-0.261,0.104 -0.23,1.189 -0.449,1.283c-0.219,0.093 -1.575,-0.292 -2.013,-0.126c-0.438,0.167 -0.823,1.148 -1.209,1.231c-0.386,0.083 -1.554,-0.229 -1.898,-0.125c-0.344,0.104 -0.876,1.189 -1.21,1.23c-0.334,0.042 -1.658,-0.281 -2.013,-0.219c-0.354,0.063 -1.074,0.887 -1.533,0.887c-0.459,-0 -1.209,-0.584 -1.501,-0.615c-0.292,-0.032 -1.043,0.865 -1.69,0.834c-0.396,-0.019 -0.589,-0.054 -0.654,-0.061Zm-0,-0c0.009,0.014 0.015,0.024 0.017,0.03c0.001,0.005 -0.001,0.005 -0.009,-0c-0.041,-0.029 -0.05,-0.035 -0.008,-0.03Z" style="fill:#3f87b7;"/><path d="M51.965,15.809c0,-0 1.155,-0 1.774,0.067c0.619,0.067 1.506,0.619 1.506,0.619c-0,-0 0.401,-0.854 0.669,-0.837c0.268,0.017 1.707,1.439 1.991,1.74c0.285,0.302 1.506,1.607 1.506,1.607c0,-0 0.485,-0.603 0.72,-0.586c0.234,0.017 2.074,2.276 2.376,2.811c0.301,0.536 2.192,3.715 2.192,3.715c-0,-0 1.188,-0.184 1.572,0.15c0.385,0.335 0.804,0.854 0.804,0.854c-0,-0 1.991,0.267 2.258,0.267c0.268,0 1.205,-0.066 1.49,-0.083c0.284,-0.017 0.552,-0.452 0.82,-0.469c0.267,-0.016 2.225,-0.05 2.476,-0.05c0.251,0 0.351,0.787 0.82,0.787c0.468,-0 0.887,-0.034 1.054,-0.051c0.167,-0.016 0.853,-0.602 1.171,-0.652c0.318,-0.05 1.707,-0.017 2.109,0.05c0.401,0.067 0.702,0.368 0.853,0.368c0.151,0 3.393,0.127 3.393,0.127c-0,0 0.41,-0.587 0.762,-0.909c0.352,-0.323 1.321,-1.086 1.321,-1.086l5.486,4.254c4.717,2.84 4.237,6.741 1.702,11.061l0.11,3.539l-5.347,-0.432c-0,-0 -3.884,0.587 -4.148,0.587c-0.264,0 -1.834,0.012 -2.29,0.108c-0.455,0.096 -11.415,-4.529 -11.415,-4.529c0,-0 -1.383,0.254 -1.79,0.406c-0.406,0.152 -1.763,1.302 -2.667,2.134c-0.904,0.833 -2.236,1.927 -2.593,1.975c-0.357,0.047 -0.785,0.214 -1.261,0.523c-0.475,0.309 -1.712,1.237 -1.95,1.166c-0.238,-0.072 0.452,-3.093 0.452,-3.402c-0,0 -0.19,-0.214 -0.809,-0.19c-0.618,0.024 -1.07,0.309 -1.379,0.333c-0.31,0.024 -0.999,-0.048 -1.38,-0.214c0,-0 0.5,-0.524 0.928,-0.69c0.428,-0.167 2.307,-1.166 2.521,-1.475c0.214,-0.309 0.048,-0.951 0.238,-1.165c0.19,-0.214 0.499,-0.714 0.832,-1.071c0.333,-0.356 0.595,-0.785 0.595,-0.999c0,-0.214 -1.332,-1.451 -1.784,-3.377c-0.452,-1.927 -0.547,-2.974 -0.951,-3.782c-0.405,-0.809 -0.976,-1.856 -1.071,-2.117c-0.095,-0.262 0,-0.833 0,-0.833c0,0 -1.189,-2.022 -1.403,-2.307c-0.214,-0.285 0.047,-0.523 -0.19,-0.88c-0.238,-0.357 -1.951,-3.068 -2.165,-3.354c-0.214,-0.285 0.024,-0.523 -0.214,-0.88c-0.238,-0.357 -1.152,-2.089 -1.694,-2.828Z" style="fill:#2f3156;"/><path d="M108.353,97.817c0,0 1.063,2.899 1.514,3.544c0.451,0.644 1.965,2.577 2.416,3.028c0.451,0.45 0.999,1.127 1.321,1.417c0.322,0.29 3.865,4.123 4.187,4.477c0.323,0.355 1.063,1.096 1.901,2.223c0.838,1.128 2.223,2.609 2.803,3.576c0.579,0.966 2.061,3.124 2.061,3.124l7.441,-7.602c0,0 -0.322,-1.031 -0.837,-1.933c-0.516,-0.902 -1.482,-2.673 -1.772,-3.575c-0.29,-0.902 -0.58,-2.996 -0.934,-3.64c-0.355,-0.644 -3.479,-4.961 -3.479,-4.961l-16.622,0.322Zm-23.998,1.772c-0,-0 2.094,1.095 2.802,1.353c0.709,0.257 2.577,0.934 5.09,1.224c2.513,0.29 4.606,0.709 6.185,0.322c1.578,-0.387 3.511,-1.063 4.413,-1.514c0.902,-0.451 -8.118,-9.76 -8.118,-9.76c-4.397,0.177 -7.951,2.7 -10.372,8.375Z" style="fill:#4a3343;"/><path d="M51.698,106.41c0,0 0.414,-3.148 0.666,-4.374c0.251,-1.227 1.463,-5.114 1.581,-5.764c0.118,-0.651 1.3,-5.395 1.463,-6.429c0.163,-1.035 0.621,-4.257 0.887,-4.626c0.266,-0.37 1.906,-2.04 2.409,-2.38c0.502,-0.34 2.468,-1.773 2.867,-1.803c0.399,-0.029 3.946,0.222 4.537,0.34c0.591,0.118 17.41,5.498 17.41,5.498l5.395,6.385l-7.552,6.222c-0,-0 -1.685,-0.946 -2.794,-1.715c-1.108,-0.768 -4.315,-2.571 -6.37,-3.783c-2.054,-1.212 -4.847,-2.69 -5.483,-2.749c-0.635,-0.059 -1.773,-0.251 -1.936,-0.03c-0.162,0.222 -0.665,0.222 -0.709,0.976c-0.045,0.754 0.266,2.202 -0.015,4.123c-0.281,1.922 -0.99,3.946 -1.404,4.73c-0.414,0.783 -2.247,4.064 -2.247,4.064c-3.616,3.088 -6.704,4.218 -8.705,1.315Z" style="fill:#724670;"/><path d="M80.86,32.723c-2.808,-8.502 -19.683,-5.325 -11.357,8.337c0,0 -0.117,0.249 -0.366,0.265c-0.249,0.016 -0.343,0.249 -0.374,0.584c-0.031,0.335 0.226,1.091 0.491,1.418c0.265,0.328 1.192,1.005 1.457,1.099c0.265,0.093 1.168,0.296 1.254,0.054c0.086,-0.241 0.257,-0.288 0.351,-0.296c0.093,-0.007 0.857,0.359 1.051,0.476c0.195,0.117 0.988,1.501 1.222,1.813c0.234,0.311 2.021,3.214 2.021,3.214c0,0 0.285,0.464 0.224,0.803c-0.062,0.34 -0.775,1.585 -0.898,1.801c-0.124,0.216 -1.033,1.126 -1.264,1.357c-0.232,0.231 -1.789,1.788 -2.082,1.989c-0.293,0.2 -1.218,0.724 -1.742,1.403c-0.524,0.678 -1.172,2.066 -1.31,3.145c-0.139,1.079 -0.417,5.412 -0.602,6.09c-0.185,0.678 -0.663,2.035 -1.002,2.791c-0.339,0.755 -1.202,2.898 -1.573,4.332c-0.37,1.434 -1.11,3.577 -1.264,4.194c-0.154,0.616 -0.57,2.035 -0.37,2.651c0.201,0.617 1.095,1.288 1.511,1.527c0.416,0.239 1.681,1.087 2.267,1.457c0.585,0.37 2.42,1.202 3.052,1.418c0.632,0.216 2.529,0.817 3.392,0.972c0.863,0.154 1.727,0.293 2.914,0.416c1.187,0.123 1.943,0.339 2.544,0.57c0.601,0.232 1.264,-1.834 1.264,-1.834c0,-0 -0.447,-1.804 -1.125,-2.02c-0.679,-0.216 -1.758,-0.432 -3.916,-1.927c-2.159,-1.496 -1.974,-1.573 -2.945,-2.251c-0.971,-0.679 -2.374,-1.696 -2.544,-1.835c-0.17,-0.139 0.031,-0.231 0.2,-0.586c0.17,-0.354 0.848,-2.174 1.218,-3.006c0.37,-0.833 1.65,-3.623 1.912,-4.425c0.262,-0.802 0.756,-2.159 1.049,-2.852c0.292,-0.694 0.894,-1.326 1.279,-1.65c0.386,-0.324 0.848,-0.524 1.203,-0.386c0.354,0.139 1.572,1.696 1.572,1.696c0,0 1.897,2.005 2.822,2.406c0.925,0.4 5.797,6.228 6.213,6.567c0.416,0.34 1.881,2.261 1.974,3.161c0.092,0.9 0.431,2.797 0.308,3.228c-0.123,0.432 0.432,5.427 0.432,5.427c10.066,4.057 17.382,1.696 22.632,-5.485c0,-0 -0.525,-1.376 -0.803,-2.026c-0.279,-0.649 -1.5,-2.829 -1.949,-3.308c-0.448,-0.479 -1.314,-1.036 -2.164,-1.639c-0.85,-0.603 -2.891,-2.257 -3.974,-3.85c-1.082,-1.592 -1.607,-2.133 -2.396,-5.334c-0.788,-3.2 -2.489,-6.184 -2.659,-6.833c-0.17,-0.65 -0.495,-2.397 -0.943,-3.479c-0.449,-1.082 -1.376,-2.366 -1.469,-3.17c-0.093,-0.804 -0.275,-1.576 -0.162,-2.097c0.113,-0.52 -0.113,-0.77 0.272,-0.792c0.385,-0.023 2.106,-0.113 3.261,-0.476c1.154,-0.362 4.778,-4.28 4.778,-4.28l-10.734,-3.374l-10.19,2.265l-3.034,0.317c-0,-0 -0.657,-0.657 -0.635,-0.951c0.023,-0.295 0.091,-0.747 0.521,-0.951c0.431,-0.204 0.793,-0.34 0.929,-0.657c0.136,-0.317 0.611,-1.427 0.589,-1.789c-0.023,-0.362 -0.023,-1.2 -0.159,-1.472c-0.136,-0.272 -0.385,-0.498 -0.657,-0.453c-0.271,0.046 -0.453,0.295 -0.521,-0.271c-0.067,-0.567 -0.996,-3.488 -0.996,-3.488Z" style="fill:#c4cdd2;"/><clipPath id="_clip2"><path d="M80.86,32.723c-2.808,-8.502 -19.683,-5.325 -11.357,8.337c0,0 -0.117,0.249 -0.366,0.265c-0.249,0.016 -0.343,0.249 -0.374,0.584c-0.031,0.335 0.226,1.091 0.491,1.418c0.265,0.328 1.192,1.005 1.457,1.099c0.265,0.093 1.168,0.296 1.254,0.054c0.086,-0.241 0.257,-0.288 0.351,-0.296c0.093,-0.007 0.857,0.359 1.051,0.476c0.195,0.117 0.988,1.501 1.222,1.813c0.234,0.311 2.021,3.214 2.021,3.214c0,0 0.285,0.464 0.224,0.803c-0.062,0.34 -0.775,1.585 -0.898,1.801c-0.124,0.216 -1.033,1.126 -1.264,1.357c-0.232,0.231 -1.789,1.788 -2.082,1.989c-0.293,0.2 -1.218,0.724 -1.742,1.403c-0.524,0.678 -1.172,2.066 -1.31,3.145c-0.139,1.079 -0.417,5.412 -0.602,6.09c-0.185,0.678 -0.663,2.035 -1.002,2.791c-0.339,0.755 -1.202,2.898 -1.573,4.332c-0.37,1.434 -1.11,3.577 -1.264,4.194c-0.154,0.616 -0.57,2.035 -0.37,2.651c0.201,0.617 1.095,1.288 1.511,1.527c0.416,0.239 1.681,1.087 2.267,1.457c0.585,0.37 2.42,1.202 3.052,1.418c0.632,0.216 2.529,0.817 3.392,0.972c0.863,0.154 1.727,0.293 2.914,0.416c1.187,0.123 1.943,0.339 2.544,0.57c0.601,0.232 1.264,-1.834 1.264,-1.834c0,-0 -0.447,-1.804 -1.125,-2.02c-0.679,-0.216 -1.758,-0.432 -3.916,-1.927c-2.159,-1.496 -1.974,-1.573 -2.945,-2.251c-0.971,-0.679 -2.374,-1.696 -2.544,-1.835c-0.17,-0.139 0.031,-0.231 0.2,-0.586c0.17,-0.354 0.848,-2.174 1.218,-3.006c0.37,-0.833 1.65,-3.623 1.912,-4.425c0.262,-0.802 0.756,-2.159 1.049,-2.852c0.292,-0.694 0.894,-1.326 1.279,-1.65c0.386,-0.324 0.848,-0.524 1.203,-0.386c0.354,0.139 1.572,1.696 1.572,1.696c0,0 1.897,2.005 2.822,2.406c0.925,0.4 5.797,6.228 6.213,6.567c0.416,0.34 1.881,2.261 1.974,3.161c0.092,0.9 0.431,2.797 0.308,3.228c-0.123,0.432 0.432,5.427 0.432,5.427c10.066,4.057 17.382,1.696 22.632,-5.485c0,-0 -0.525,-1.376 -0.803,-2.026c-0.279,-0.649 -1.5,-2.829 -1.949,-3.308c-0.448,-0.479 -1.314,-1.036 -2.164,-1.639c-0.85,-0.603 -2.891,-2.257 -3.974,-3.85c-1.082,-1.592 -1.607,-2.133 -2.396,-5.334c-0.788,-3.2 -2.489,-6.184 -2.659,-6.833c-0.17,-0.65 -0.495,-2.397 -0.943,-3.479c-0.449,-1.082 -1.376,-2.366 -1.469,-3.17c-0.093,-0.804 -0.275,-1.576 -0.162,-2.097c0.113,-0.52 -0.113,-0.77 0.272,-0.792c0.385,-0.023 2.106,-0.113 3.261,-0.476c1.154,-0.362 4.778,-4.28 4.778,-4.28l-10.734,-3.374l-10.19,2.265l-3.034,0.317c-0,-0 -0.657,-0.657 -0.635,-0.951c0.023,-0.295 0.091,-0.747 0.521,-0.951c0.431,-0.204 0.793,-0.34 0.929,-0.657c0.136,-0.317 0.611,-1.427 0.589,-1.789c-0.023,-0.362 -0.023,-1.2 -0.159,-1.472c-0.136,-0.272 -0.385,-0.498 -0.657,-0.453c-0.271,0.046 -0.453,0.295 -0.521,-0.271c-0.067,-0.567 -0.996,-3.488 -0.996,-3.488Z"/></clipPath><g clip-path="url(#_clip2)"><path d="M75.982,86.688c-0.057,-0.25 -0.442,-1.136 -0.442,-1.829c-0,-0.693 0.192,-1.559 1.001,-1.867c0.808,-0.308 0.962,-0.366 0.962,-0.366c0,0 -0.654,-0.5 -0.135,-1.289c0.52,-0.79 7.508,0.635 7.508,0.635l-4.062,6.314c-0,-0 -4.774,-1.348 -4.832,-1.598Zm13.799,-8.754c-0,-0 0.608,-0.835 1.199,-1.008c0.591,-0.174 1.948,-0.313 2.226,0.208c0.278,0.522 0.469,1.113 0.469,1.113c0,-0 0.713,0.017 1.183,0.608c0.469,0.592 0.66,2.122 0.591,2.522c-0.07,0.399 0.069,0.539 0.208,0.765c0.139,0.226 0.296,0.573 0.783,0.573c0.487,0 1.617,0.313 1.895,0.731c0.278,0.417 0.435,0.712 0.435,1.477c-0,0.765 -0.8,1.982 -0.8,1.982c-8.97,-0.306 -12.156,-3.101 -8.189,-8.971Zm-22.403,5.924c0.467,-0.211 0.828,-1.597 0.828,-1.597c-0,-0 1.135,0.308 1.886,-0.154c0.751,-0.462 0.943,-1.598 0.943,-1.598c0,-0 1.386,0.597 2.406,0.674c1.021,0.077 2.503,0.173 2.984,-0.597l-3.176,-3.118c-0,-0 -0.828,0.461 -0.886,0.904c0,0 -1.982,-0.635 -3.33,-0.539c-1.347,0.096 -2.059,1.117 -2.098,1.675c0,-0 -0.738,-0.585 -2.214,-0.443c-2.112,0.203 1.632,5.257 2.657,4.793Zm-0.746,-14.308l0.534,-2.285c0,0 1.29,0.462 1.502,0.636c0.211,0.173 0.288,0.558 0.288,0.558c0,-0 0.289,-0.039 1.232,0.135c0.944,0.173 1.502,1.443 1.502,1.443c0.904,-0.288 3.33,0.058 3.33,0.058l-3.08,6.333c-0,0 -0.885,-0.019 -1.116,-0.269c-0.231,-0.251 0.134,-0.751 0.134,-0.751c0,-0 -0.308,-0 -0.962,-0.077c-0.655,-0.077 -1.117,-0.616 -1.117,-0.616c0,-0 -0.481,0.905 -1.309,1.367c-0.827,0.462 -2.502,0.154 -2.502,0.154l0.807,-3.451l0.416,-0.137c0.765,-0.156 1.165,0.14 1.165,0.14c0,-0.4 0.991,-1.113 0.991,-1.113c-0.104,-0.105 -0.035,-0.487 -0.035,-0.487c0,-0 -0.226,-0 -0.834,-0.261c-0.277,-0.118 -0.637,-0.737 -0.946,-1.377Zm27.408,6.837c0,-0 -0.33,-0.87 -0.939,-0.922c-0.608,-0.052 -0.382,0.157 -1.025,0.122c-0.644,-0.035 -1.061,-1.2 -0.209,-1.635c0.852,-0.434 1.756,0.105 1.947,0.539c0.192,0.435 0.331,1.443 0.226,1.896Zm-4.885,-0.053c-0,0 0.852,-0.347 0.956,-0.712c0.104,-0.366 0.07,-0.679 0.07,-0.679c-0,0 0.295,0.07 0.504,-0.139c0.208,-0.208 0.452,-0.695 0.347,-1.025c-0.104,-0.331 -0.434,-0.47 -0.417,-0.835c0.018,-0.365 0.052,-1.165 0.052,-1.165c0,0 2.104,0.365 2.33,0.556c0.226,0.192 0.783,0.539 0.869,1.2c0,0 0.557,-1.2 0.157,-2.26c-0.4,-1.061 -4.834,-0.817 -4.834,-0.817c-3.225,1.733 -2.744,3.726 -0.034,5.876Zm-20.892,-10.743c0,-0 1.425,-0.847 2.041,-0.809c0.616,0.039 1.386,0.27 1.424,0.712c0.039,0.443 0.135,1.136 0.135,1.136c-0,0 0.751,-0.789 0.866,-1.617c0.116,-0.828 0.25,-1.752 -0.404,-2.252c-0.655,-0.501 -0.732,-0.231 -0.732,-0.231c0,-0 -0.173,-1.251 -0.019,-1.482c0.154,-0.231 1.02,-1.136 1.29,-1.482c0.269,-0.347 0.905,-1.694 0.269,-2.349c-0.635,-0.654 -2.329,-0.808 -2.329,-0.808c-2.538,2.094 -2.548,5.633 -2.541,9.182Zm12.05,-2.349c0,0 -0.616,0.058 -1.174,-0.231c-0.558,-0.289 -0.423,-0.423 -0.731,-0.5c-0.308,-0.077 -0.943,-0.097 -1.386,-0.308c-0.443,-0.212 -0.924,-0.963 -0.27,-1.309c0.655,-0.347 0.847,-0.347 0.847,-0.347c0,0 -0.269,-0.115 -0.365,-0.519c-0.097,-0.405 -0.174,-0.905 0.192,-1.213c0.366,-0.308 1.078,-0.52 1.078,-0.52l1.809,4.947Zm-7.622,-8.162c-0,0 0.673,0.116 1.309,-0.019c0.635,-0.135 1.886,-0.866 2.675,-1.289c0.79,-0.424 2.002,-1.348 2.041,-1.983c0.038,-0.635 -0.385,-1.29 -0.539,-1.54c-0.154,-0.25 -0.635,-0.616 -1.02,-0.693c-0.385,-0.077 -1.367,-0.019 -1.367,-0.019l-3.099,5.543Z" style="fill:#98a8bf;"/><path d="M72.163,85.667c-0,0 -0.542,-1.894 -0.542,-2.32c0,-0.425 0.297,-1.611 0.787,-1.005c0.489,0.606 0.76,2.062 1.211,3.003c0.451,0.941 -1.456,0.322 -1.456,0.322Zm2.513,-16.344c0,-0 -0.438,-2.101 -0.902,-2.978c-0.464,-0.876 -0.168,-0.954 0.026,-1.07c0.193,-0.116 0.58,-0.296 0.902,0.323c0.322,0.618 0.709,1.546 0.838,2.346c0.129,0.799 -0.864,1.379 -0.864,1.379Zm-6.677,-2.011c0,0 1.599,-0.425 2.05,-0.825c0.451,-0.4 0.85,-0.889 0.116,-0.889c-0.735,-0 -1.998,0.18 -1.998,0.18l-0.168,1.534Zm8.804,-12.22c0,0 -1.727,1.663 -1.972,2.05c-0.245,0.387 -0.322,1.199 -0.168,1.315c0.155,0.116 0.671,-0.181 1.148,-0.684c0.476,-0.502 1.469,-1.765 1.469,-1.765l-0.477,-0.916Z" style="fill:#7e5d78;"/></g><path d="M72.518,32.003c-0,-0 -1.591,-0.738 -2.789,-0.277c-1.199,0.461 -0.323,1.061 -1.015,1.821c-0.691,0.761 -0.806,1.96 -0.645,2.674c0.161,0.715 1.048,3.239 1.23,3.612c0.327,0.671 0.77,2.175 -0.585,0.699c-0.497,-0.542 -1.705,-2.813 -1.728,-3.735c-0.023,-0.922 -0.023,-2.097 -0.023,-2.097c-0,-0 -1.061,0.876 -1.476,1.244c-0.415,0.369 -1.59,1.752 -2.12,2.052c-0.53,0.3 -0.853,0.53 -0.853,0.53c-0,0 -0.646,1.061 -0.876,3.481c-0.231,2.42 -0.254,4.057 0.092,4.956c0.346,0.899 2.213,4.91 2.213,4.91c-0,-0 -2.536,-3.85 -2.697,-4.703c-0.161,-0.853 -0.323,-1.337 -0.323,-1.337c0,0 -0.668,-0.899 -0.714,-1.821c-0.046,-0.922 0.53,-3.48 0.853,-4.172c-0,0 1.59,-3.734 2.005,-4.564c0.415,-0.83 3.066,-4.034 3.066,-4.034c-0,0 -0.968,0.161 -1.798,0.185c-0.83,0.023 -1.821,-0 -1.821,-0c-0,-0 -2.213,2.558 -2.974,3.642c-0.76,1.083 -2.535,3.665 -3.135,4.702c-0.599,1.037 -1.613,2.72 -1.544,3.619c0.069,0.899 0.507,1.544 0.784,1.199c-0,-0 -0.162,0.507 -0.531,0.207c-0.368,-0.3 -0.599,-1.083 -0.599,-1.083c0,-0 -0.161,0.484 -0.161,0.806c-0,0.323 -0.438,1.107 0.23,1.568c0.669,0.461 1.568,0.991 3.135,1.014c0,-0 -2.95,0.3 -3.78,-0.991c-0.83,-1.291 -0.3,-2.997 0.046,-3.896c0.346,-0.899 3.158,-6.431 3.412,-7.077c0.253,-0.645 0.875,-2.282 1.152,-2.581c0.277,-0.3 0.761,-0.484 0.761,-0.484c-0,-0 0.899,-0.853 1.406,-1.13c0.507,-0.276 1.452,-0.876 1.729,-1.198c0.276,-0.323 2.051,-2.605 2.351,-2.582c0.3,0.023 2.051,0.622 2.397,0.784l-0.392,-1.015c0,0 0.784,0.992 1.245,1.36c0.461,0.369 0.876,0.554 1.13,0.3c0.253,-0.254 0.553,-0.945 1.244,-0.922c0.692,0.023 1.821,-0.53 2.582,-0.484c0.761,0.046 2.282,-0 3.112,0.254c0.83,0.253 2.305,1.198 2.743,1.498c0.438,0.299 1.222,1.452 1.613,2.282c0.392,0.83 1.073,2.441 1.173,2.97c0.396,2.085 0.909,3.585 -0.565,1.292c-0.281,-0.438 -1.135,-3.008 -1.475,-3.519c-0.341,-0.511 -1.362,-1.561 -1.93,-1.844c-0.568,-0.284 -2.526,-0.483 -2.98,-0.199c-0.454,0.284 -2.251,1.046 -2.175,2.084Z" style="fill:#56b3cb;"/><path d="M91.772,85.146c-0,-0 4.505,-0.087 5.886,-0.139c1.381,-0.051 4.281,-0.483 5.68,-0.69c1.398,-0.207 4.436,-1.053 5.489,-1.536c1.053,-0.484 2.503,-1.433 3.211,-1.865c0.708,-0.431 0.966,-1.467 1.64,-1.691c0.673,-0.225 0.984,0.397 0.984,0.397c-0,-0 3.849,5.126 4.384,5.644c0.535,0.518 1.312,1.019 1.278,1.33c-0.035,0.31 0.31,0.776 0.569,0.932c0.259,0.155 0.035,0.466 0.294,0.777c0.259,0.31 1.001,0.673 1.139,0.897c0.138,0.225 0.363,0.553 0.622,0.829c0.259,0.276 3.59,5.765 3.59,5.765l-0.311,2.849l-12.67,1.156c-0,0 -0.794,0.604 -1.278,0.984c-0.483,0.38 -0.863,0.363 -1.588,0.415c-0.725,0.051 -0.863,0.103 -1.484,0.31c-0.622,0.207 -1.64,0.604 -1.64,0.604c-0,0 -0.138,-1.605 -0.38,-1.657c-0.242,-0.052 -1.45,-0.518 -1.605,-0.5c-0.156,0.017 -0.415,0.552 -1.243,0.846c-0.829,0.293 -1.174,0.5 -1.381,0.897c-0.207,0.397 -0.743,1.053 -0.743,1.053c0,0 -0.103,-0.811 -0.207,-1.122c-0.103,-0.311 -0.328,-0.863 -0.552,-0.984c-0.224,-0.121 -0.535,0.035 -0.518,-0.242c0.017,-0.276 -0.345,-1.501 -0.345,-1.501l-0.984,-0.138c-0,-0 0.949,-0.708 0.967,-0.915c0.017,-0.208 -0.121,-0.553 -0.587,-0.639c-0.466,-0.086 -0.967,-0.224 -0.967,-0.224l-0.311,-0.95l-1.381,-4.989l-5.558,-5.903Z" style="fill:#230d1e;"/><path d="M78.747,60.664c-0.275,-0.169 -1.618,-2.589 -1.235,-3.192c0.382,-0.603 2.088,-1.515 2.559,-1.309c0.471,0.206 1.589,1.838 1.456,2.235c-0.132,0.398 -2.324,2.545 -2.78,2.266Zm-0.529,-2.972c0.111,-0.355 1.485,-0.897 1.75,-0.823c0.265,0.073 1.25,1.176 1.089,1.574c-0.162,0.397 -1.56,1.529 -1.971,1.265c-0.412,-0.265 -0.942,-1.78 -0.868,-2.016Zm11.843,-8.574c0.314,0.03 0.972,0.737 1.253,1.053c0.281,0.317 0.749,0.996 0.468,1.148c-0.281,0.152 -2.33,2.353 -2.716,2.072c-0.387,-0.281 -1.359,-1.943 -1.113,-2.365c0.246,-0.421 1.745,-1.944 2.108,-1.908Zm0.023,0.679c0.19,0.092 1.054,0.679 0.925,1.042c-0.129,0.363 -1.417,1.557 -1.768,1.499c-0.351,-0.059 -0.761,-0.621 -0.667,-1.078c0.093,-0.456 1.054,-1.686 1.51,-1.463Z" style="fill:#645558;"/><path d="M89.33,67.051c0.968,2.903 -6.636,5.237 -7.53,2.611c-0.119,-0.348 -0.534,-2.23 -0.686,-2.592c-0.153,-0.363 -1.277,-4.423 -1.525,-5.3c-0.248,-0.877 -0.896,-2.173 -0.362,-2.421c0.533,-0.248 1.811,-1.144 2.077,-1.163c0.267,-0.019 1.983,2.326 2.917,3.412c0.934,1.087 4.671,4.614 5.109,5.453Z" style="fill:#7f4889;"/><path d="M89.044,52.62c-0.044,-0.264 0.362,-0.63 0.744,-0.858c0.381,-0.229 0.819,-0.763 1.315,-0.667c0.496,0.095 3.069,2.592 3.374,2.935c0.305,0.343 3.508,3.718 4.27,5.7c0.763,1.983 -5.261,7.378 -6.024,5.071c-0.762,-2.307 -1.792,-5.338 -2.02,-6.424c-0.229,-1.087 -0.572,-2.269 -0.839,-3.165c-0.267,-0.896 -0.744,-2.135 -0.82,-2.592Z" style="fill:#262f38;"/><path d="M86.377,68.664c-0,-0 2.413,-0.767 3.419,-1.422c1.007,-0.656 4.554,-3.004 5.145,-3.548c0.592,-0.543 3.915,3.579 3.915,3.579c0,0 -2.221,1.982 -4.49,3.132c-2.269,1.151 -4.074,1.918 -5.96,1.966c-1.885,0.048 -2.029,-3.707 -2.029,-3.707Z" style="fill:#2d2d31;"/><path d="M80.526,67.295c-0,0 0.042,-0.256 0.448,-0.085c0.405,0.171 0.639,0.555 0.533,0.747c-0.107,0.192 0.042,0.341 0.042,0.341c0,-0 0.192,0.192 0.427,0.213c0.235,0.022 0.427,0.427 0.427,0.427c-0,-0 0.384,0.021 0.682,-0.171c0.299,-0.192 0.64,-0.256 0.832,-0.149c0.192,0.107 0.64,0.107 0.64,0.107c0,-0 0.491,-0.47 1.109,-0.662c0.619,-0.192 0.875,-0.213 0.917,0.128c0.043,0.342 0.811,1.451 1.088,1.899c0.278,0.448 1.941,2.986 2.069,3.199c0.128,0.214 0.064,1.131 -0.128,1.216c-0.192,0.085 -1.151,-0.405 -1.322,-0.32c-0.171,0.085 -0.384,0.576 -0.384,0.576l-1.28,-0.405l-0.085,0.341c-0,0 -0.512,0.171 -1.088,-0.064c-0.576,-0.235 -1.557,-0.896 -2.026,-1.237c-0.47,-0.341 -2.133,-2.154 -2.347,-2.474c-0.213,-0.32 -0.405,-0.598 -0.64,-0.832c-0.234,-0.235 -0.512,-0.427 -0.554,-0.832c-0.043,-0.405 0.064,-1.856 0.64,-1.963Zm8.271,0.515c0.135,-0.36 1.654,-1.344 2.022,-1.556c0.367,-0.212 1.894,-1.413 2.177,-1.343c0.283,0.071 1.23,1.782 1.484,2.234c0.255,0.452 1.216,2.206 1.103,2.46c-0.113,0.254 -1.541,1.131 -1.979,1.4c-0.438,0.268 -1.753,0.904 -2.05,0.862c-0.297,-0.042 -1.159,-1.385 -1.47,-1.866c-0.311,-0.481 -1.414,-1.852 -1.287,-2.191Zm0.481,0.169c-0.014,-0.24 1.682,-1.244 1.894,-1.371c0.212,-0.127 1.527,-1.159 1.739,-1.103c0.212,0.057 1.018,1.513 1.216,1.824c0.198,0.311 0.947,1.979 0.891,2.135c-0.057,0.155 -1.216,1.018 -1.57,1.215c-0.353,0.198 -1.512,0.736 -1.724,0.707c-0.212,-0.028 -0.99,-1.343 -1.216,-1.654c-0.226,-0.311 -1.216,-1.512 -1.23,-1.753Zm5.471,-4.496c0.114,-0.138 0.255,-0.763 0.481,-0.961c0.226,-0.198 0.834,-0.41 1.032,-0.325c0.198,0.085 0.353,0.071 0.339,-0.198c-0.014,-0.269 0.481,-0.848 0.65,-1.046c0.17,-0.198 0.962,-0.311 0.962,-0.311l0.184,-0.594c-0,0 0.735,-0.891 0.848,-0.961c0.113,-0.071 0.95,-0.568 0.95,-0.568c0,-0 0.165,-0.476 0.227,-0.703c0.062,-0.228 0.579,0.268 0.083,-0.414c-0.496,-0.682 -0.413,-0.62 -0.558,-0.764c-0.145,-0.145 -0.289,-0.269 -0.372,-0.62c-0.083,-0.352 -0.269,-0.414 -0.062,-0.497c0.207,-0.082 0.372,-0.186 0.641,-0.144c0.268,0.041 0.702,0.372 0.702,0.372c0,-0 0.745,-0.062 0.869,0.083c0.124,0.144 0.599,1.116 0.682,1.467c0.082,0.351 2.253,4.237 2.253,4.237c-0,0 0.248,1.468 0.041,1.571c-0.207,0.103 -0.661,0 -0.661,0c-0,0 -0.062,2.005 -0.393,2.129c-0.331,0.124 -1.302,-0.62 -1.302,-0.62l-0.393,-0.103c-0,-0 0.393,0.826 0.351,1.136c-0.041,0.311 0.104,0.621 -0.082,0.683c-0.186,0.062 -1.468,-0.062 -1.468,-0.062c0,-0 0.124,0.909 0.145,1.24c0.02,0.33 0.144,0.951 -0.042,1.013c-0.186,0.062 -1.756,-0.869 -1.756,-0.869c-0,0 0.206,0.765 0.206,0.972c0,0.207 -0.124,1.013 -0.62,0.723c-0.496,-0.289 -0.868,-0.475 -1.178,-0.868c-0.31,-0.393 -3.12,-4.559 -2.759,-4.998Zm-1.64,5.5c-0.01,-0.181 0.297,-0.339 0.509,-0.481c0.212,-0.141 0.608,-0.495 0.693,-0.367c0.085,0.127 -0.297,0.48 -0.453,0.579c-0.155,0.099 -0.735,0.523 -0.749,0.269Zm-0.495,-1.272c-0.119,-0.173 0.241,-0.425 0.467,-0.566c0.226,-0.141 0.608,-0.424 0.678,-0.283c0.071,0.142 -0.311,0.396 -0.452,0.495c-0.141,0.099 -0.565,0.537 -0.693,0.354Z" style="fill:#51514f;"/><path d="M88.684,86.835l1.283,-2.413c0,0 2.834,0.399 3.896,0.753c1.062,0.354 1.306,0.288 2.103,0.465c0.796,0.177 2.324,0.243 3.895,0.11c1.572,-0.132 2.369,-0.287 3.32,-0.354c0.935,-0.065 3.256,-0.151 4.199,-0.532c0.183,0.475 0.334,0.882 0.373,1.03c0.114,0.438 0.286,0.953 0.286,0.953c-0,-0 1.353,0.038 1.581,0.191c0.229,0.152 1.125,1.924 1.316,2.725c0.19,0.8 0.343,1.353 0.171,1.639c-0.171,0.286 -1.62,1.086 -2.42,1.067c-0,0 1.257,0.591 2.039,0.934c0.445,0.195 1.001,0.471 1.77,0.721l0.092,0.48c0,0 1.328,0.288 2.523,0.465c1.196,0.177 4.14,0.177 6.154,-0.067c2.014,-0.243 3.718,-0.398 3.718,-0.398c0,0 2.147,3.475 2.369,3.829c0.221,0.354 1.527,2.501 1.46,3.077c-0.066,0.575 -0.155,2.014 -0.774,3.386c-0.62,1.373 -1.151,2.28 -2.833,3.52c-1.854,1.366 -5.003,2.147 -5.999,2.147c-0.996,-0 -1.151,-0 -1.483,-0.2c-0.332,-0.199 -0.819,-0.376 -1.416,-0.819c-0.598,-0.442 -1.483,-1.505 -1.749,-1.792c-0.265,-0.288 -0.664,-0.731 -0.597,-0.952c0.066,-0.222 0.088,-0.731 0.088,-0.731c0,0 1.284,0.089 1.549,0.089c0.266,-0 2.015,-0.133 2.811,-0.354c0.797,-0.222 2.28,-1.063 2.856,-1.594c0.575,-0.531 1.947,-1.881 2.302,-2.302c0.354,-0.42 0.974,-1.04 0.974,-1.04c-0,-0 -1.661,0.133 -3.121,0.133c-1.461,-0 -3.453,-0.067 -5.069,-0.222c-1.616,-0.155 -7.016,-1.638 -10.314,-3.785c-3.298,-2.147 -3.276,-2.324 -3.276,-2.324c-0,0 -1.063,1.173 -2.037,1.196c-0.973,0.022 -3.143,0.398 -4.515,-0.155c-1.219,-0.492 -3.033,-1.281 -5.504,-3.408c0.377,0.553 0.64,1.397 0.273,2.601c-0.117,0.381 -1.351,2.79 -1.883,3.321c-0.531,0.532 -2.635,2.015 -2.967,2.148c-0.332,0.133 -1.55,0.354 -2.369,0.266c-0.819,-0.089 -2.901,-1.085 -3.742,-1.75c-0.229,-0.18 0.199,-0.243 0.73,-0.442c0.532,-0.2 1.329,-0.709 1.971,-1.24c0.642,-0.532 1.351,-1.351 1.528,-1.683c0.177,-0.333 0.952,-1.44 1.351,-2.281c0.398,-0.842 1.838,-1.993 1.838,-1.993c0.16,-0.108 -0.083,-0.767 2.311,0.189l-1.062,-4.604Zm21.165,-2.847l0.458,-0.286c-0,0 -0.343,-0.267 -0.343,-0.514c-0,-0.248 0.19,-0.858 0.628,-1.049c0.439,-0.19 0.953,-0.343 1.011,-0.114c0.057,0.229 0.152,0.362 0.285,0.229c0.134,-0.134 0.115,-0.134 0.153,-0.4c0.038,-0.267 0.553,-1.049 0.743,-1.087c0.191,-0.038 0.439,-0.038 0.629,-0.152c0.191,-0.115 0.305,-0.305 0.4,-0.534c0.096,-0.229 0.458,-0.514 0.248,-0.781c-0.209,-0.267 -0.381,-0.458 -0.591,-0.534c-0.209,-0.076 -0.305,-0.057 -0.343,-0.324c-0.038,-0.267 0.134,-0.553 0.705,-0.705c0.572,-0.153 1.296,-0.286 1.411,-0.057c0.114,0.228 0.095,0.324 0.095,0.324c0,-0 0.362,-0.191 0.648,-0.134c0.286,0.058 0.762,0.058 0.724,0.343c-0.038,0.286 -0.152,0.42 -0.152,0.42c-0,-0 1.467,2.82 1.677,3.202c0.21,0.381 1.296,2.744 1.296,2.973c-0,0.228 0.114,1.105 0.114,1.105c0,0 -0.114,0.667 -0.247,0.515c-0.134,-0.153 -0.382,-0.191 -0.363,0.076c0.02,0.267 -0.171,0.553 -0.438,0.572c-0.267,0.019 -0.362,-0.21 -0.61,-0.305c-0.248,-0.096 -0.667,-0.362 -0.591,0.19c0.077,0.553 0.019,1.963 -0.152,2.04c-0.172,0.076 -1.296,-1.239 -1.582,-1.163c-0.286,0.076 -0.171,2.077 -0.419,2.192c-0.248,0.114 -2.116,-1.487 -2.402,-1.449c-0.285,0.038 -1.162,0.362 -1.162,0.362c-0,0 -0.667,-1.505 -0.934,-2.401c-0.267,-0.896 -0.896,-2.554 -0.896,-2.554Z" style="fill:#120f15;"/><path d="M83.271,91.189c0,-0 0.092,1.681 0.256,2.083c0.165,0.402 0.238,0.95 0.439,1.535c0.201,0.585 0.457,1.517 0.713,1.883c0.256,0.365 1.005,0.877 0.913,-0.238c-0.091,-1.115 -0.493,-2.504 -0.511,-2.942c-0.019,-0.439 -0.037,-1.481 -0.037,-1.481c0,0 0.201,1.188 0.329,1.773c0.128,0.585 0.53,1.901 0.548,2.285c0.019,0.383 0.457,1.279 1.024,1.133c0.566,-0.146 0.658,-0.421 0.548,-1.079c-0.109,-0.657 -0.201,-1.48 -0.201,-2.046c0,-0.567 -0.164,-1.554 -0.219,-1.938c-0.055,-0.384 0.201,-0.548 0.201,-0.548c-0,0 0.603,0.238 0.694,0.786c0.092,0.548 0.402,0.64 0.457,1.188c0.055,0.548 0.512,2.504 0.567,2.961c0.055,0.456 0.219,1.809 0.475,1.937c0.256,0.128 0.676,0.384 0.859,-0.018c0.183,-0.403 0.238,-1.755 0.183,-2.303c-0.055,-0.549 -0.22,-2.595 -0.238,-3.052c-0.018,-0.457 -0.475,-1.846 -0.475,-1.846c-0,-0 0.694,0.237 0.95,0.329c0.256,0.091 0.987,0.182 1.426,0.329c0.438,0.146 1.425,0.53 1.791,0.603c0.365,0.073 1.59,0.036 1.827,-0.092c0.238,-0.127 0.695,-0.456 0.403,-0.712c-0.293,-0.256 -1.06,-0.512 -1.517,-0.658c-0.457,-0.146 -1.718,-0.823 -2.084,-0.987c-0.365,-0.165 -1.846,-0.804 -1.846,-0.804l-7.475,1.919Z" style="fill:#a49ca9;"/><path d="M79.785,83.756c-0.299,0.646 -0.522,1.118 -0.423,1.541c0.1,0.422 0.323,0.894 0.572,1.118c0.248,0.224 0.596,0.522 0.596,0.522c-0,-0 1.143,1.739 1.292,2.012c0.149,0.274 0.398,0.547 0.497,0.82c0.099,0.274 0.646,0.746 0.745,1.143c0.1,0.398 0.249,0.795 0.298,1.019c0.05,0.223 0.025,0.571 0.025,0.571l0.323,-0.248l0.199,0.298l0.124,-0.621l0.572,0.273l0.348,-0.099c-0,-0 0.497,-0.423 0.621,-0.224c0.124,0.199 0.994,0.398 0.994,0.398l0.124,0.298c-0,-0 0.547,0.298 0.472,0.025c-0.075,-0.274 -0.124,-0.249 0,-0.448c0.124,-0.198 0.025,-0.571 0.398,-0.422c0.372,0.149 0.397,0.199 0.397,0.199c0,-0 0.249,0.174 0.423,-0.149c0.173,-0.323 0.347,-0.597 0.347,-0.597l0.299,-0.372c-0,-0 0.223,-0.174 0.397,-0c0.174,0.174 0.472,0.621 0.721,0.72c0.248,0.1 0.273,-0.497 0.273,-0.497c-0,0 -0.298,-0.298 -0.224,-0.521c0.075,-0.224 0.274,-0.497 0.274,-0.497l0.695,0.049l-0.049,-0.422c-0,-0 -0.373,-0.149 -0.522,-0.447c-0.149,-0.298 0.099,-0.174 -0.522,-0.746c-0.621,-0.571 -0.621,-0.695 -1.366,-1.391c-0.746,-0.696 -0.796,-0.77 -1.292,-1.292c-0.497,-0.522 -0.647,-0.596 -0.82,-0.944c-0.174,-0.348 -0.448,-0.87 -0.771,-1.168c-0.323,-0.298 -0.894,-0.696 -1.167,-0.621c-0.274,0.074 -0.05,0.174 -0.522,0.199c-0.472,0.024 -2.311,-0.473 -2.584,-0.448c-0.274,0.025 -1.466,0.323 -1.764,0.969Zm-0.025,0.969c-0.019,0.187 0.111,0.604 0.24,0.914c0.129,0.31 0.257,0.515 0.232,0.279c-0.05,-0.472 -0.423,-1.69 -0.472,-1.193Zm0.671,-0.919c0.141,-0.339 1.292,-0 1.316,0.248c0.025,0.249 -0.496,0.597 -0.77,0.572c-0.273,-0.025 -0.671,-0.522 -0.546,-0.82Z" style="fill:#151017;"/><path d="M28.181,122.055c-0,-0 0.276,-0.574 0.722,-0.967c0.446,-0.393 0.669,-0.584 0.914,-0.765c0.244,-0.18 1.858,-1.391 2.443,-1.55c0.584,-0.16 2.029,-0.117 2.496,-0c0.467,0.116 1.073,0.764 1.253,0.732c0.181,-0.031 0.478,-0.339 0.712,-0.254c0.234,0.085 1.126,0.732 1.232,0.839c0.106,0.106 0.075,0.308 0.33,0.393c0.254,0.085 0.764,0.127 1.051,0.255c0.287,0.127 0.457,0.265 0.903,0.371c0.446,0.107 0.786,0.064 1.222,0.075c0.435,0.01 0.956,0.021 1.391,-0c0.436,-0.021 1.197,-0.075 1.643,-0.397c0.445,-0.322 0.644,-0.52 0.644,-0.52c-0,0 -0,-0.321 0.297,-0.668c0.297,-0.347 0.47,-0.57 0.569,-0.891c0.099,-0.322 0.248,-0.397 0.272,-0.892c0.025,-0.495 0.545,-1.461 0.619,-1.782c0.075,-0.322 0.174,-0.669 -0.049,-0.867c-0.223,-0.198 -0.297,-0.272 -0.297,-0.272c-0,-0 -0.446,0.841 -0.768,1.163c-0.322,0.322 -1.015,0.768 -1.312,1.139c-0.297,0.372 -1.362,1.412 -1.362,1.412l-0.421,0.767c0,0 -0.396,-0.297 -0.643,-0.792c-0.248,-0.495 -0.619,-0.817 -0.396,-1.189c0.222,-0.371 0.569,-0.841 0.94,-1.114c0.372,-0.272 1.362,-0.965 1.634,-1.287c0.273,-0.322 0.52,-0.694 0.595,-0.941c0.074,-0.248 0.123,-1.634 0.123,-1.634c0,-0 -0.123,-0.495 -0.445,-0.57c-0.322,-0.074 -0.495,0.025 -0.941,-0.272c-0.446,-0.297 -1.288,-0.916 -1.585,-1.164c-0.297,-0.247 -0.396,-0.396 -0.297,-0.743c0.099,-0.346 0.223,-0.817 0.545,-1.213c0.322,-0.396 0.842,-1.089 1.139,-1.386c0.297,-0.297 1.114,-0.57 1.485,-0.694c0.372,-0.123 1.511,-0.594 2.179,-0.718c0.669,-0.123 1.486,-0.297 2.031,-0.321c0.544,-0.025 2.005,-0.124 2.203,-0.025c0.198,0.099 0.471,0.223 0.693,0.594c0.223,0.371 0.619,0.941 0.619,0.941c0,-0 0.842,-0.594 1.015,-0.817c0.174,-0.223 1.09,-0.891 1.362,-1.238c0.273,-0.347 1.114,-1.461 1.461,-1.783c0.347,-0.322 0.594,-0.817 1.114,-0.792c0.52,0.025 0.966,-0.223 1.288,0.47c0.322,0.694 1.213,1.56 1.436,1.733c0.223,0.174 1.485,1.238 1.881,1.461c0.397,0.223 1.09,0.57 1.783,1.139c0.693,0.57 0.966,0.248 0.768,0.793c-0.198,0.544 -0.57,1.213 -0.743,1.609c-0.174,0.396 -0.223,1.064 -0.174,1.659c0.05,0.594 0.174,2.401 0.1,3.07c-0.075,0.668 -0.471,2.55 -0.867,3.12c-0.396,0.569 -0.644,1.708 -1.461,2.03c-0.817,0.322 -2.055,0.445 -2.723,0.47c-0.669,0.025 -2.303,-0.142 -2.526,0.056c-0.223,0.198 -0.619,0.792 -1.139,1.263c-0.52,0.47 -0.866,1.064 -0.866,1.485c-0,0.421 0.297,1.585 0.148,2.08c-0.148,0.495 -0.916,0.99 -1.139,1.064c-0.222,0.075 -0.148,0.248 -0.148,0.743c-0,0.495 -0.248,1.758 -0.248,1.758c0,0 0.124,0.322 -0.074,0.916c-0.198,0.594 -0.198,1.436 -0.371,1.882c-0.174,0.446 -0.917,2.377 -1.189,2.624c-0.272,0.248 -0.545,0.372 -0.545,0.372c0,-0 0.174,0.668 -0.148,1.089c-0.322,0.421 -0.693,1.238 -0.693,1.238c-8.826,-2.582 -17.032,-6.009 -21.685,-14.287Z" style="fill:#0a0b10;"/><path d="M87.691,50.868c-0.405,1.19 -0.965,2.872 -1.331,3.616c-0.534,1.085 -2.239,4.754 -2.601,5.374c-0.362,0.62 -2.05,3.859 -2.446,4.427c-0.396,0.569 -1.283,1.865 -1.283,1.865l-1.203,-1.356c-0,-0 0.223,-0.183 0.813,-1.098c0.59,-0.916 1.764,-3.217 1.993,-3.566c0.229,-0.349 1.116,-3.903 1.442,-4.274c0.326,-0.371 0.629,-1.618 0.876,-2.078c0.248,-0.461 1.45,-3.573 1.731,-4.45c0.281,-0.876 0.348,-1.584 0.314,-1.752c-0.033,-0.169 -1.09,-1.337 -1.314,-1.674c-0.225,-0.337 -1.124,-1.528 -1.214,-1.742c-0.09,-0.213 -0.144,-0 -0.11,0.373c0.034,0.374 -0.068,8.934 -0.181,9.953c-0.113,1.019 -0.373,0.974 -0.373,0.974l-1.62,0.487c0,0 -1.098,-0.668 -1.506,-1.098c-0.407,-0.431 -1.732,-1.721 -1.732,-1.721c-0,-0 0.623,1.29 0.917,1.823c0.295,0.532 1.121,1.653 1.098,1.925c-0.022,0.271 -1.415,1.053 -1.732,0.973c-0.317,-0.079 -1.212,-1.925 -1.404,-2.196c-0.193,-0.272 -1.087,-1.654 -1.325,-2.152c-0.238,-0.498 -0.611,-1.596 -0.521,-1.811c0.091,-0.216 0.202,-0.255 0.339,-0.427c0.138,-0.172 0.534,-0.965 0.672,-1.206c0.138,-0.241 0.31,-0.121 0.603,-0.052c0.293,0.069 0.276,0.379 0.465,0.689c0.19,0.31 0.844,1.413 1.085,1.775c0.242,0.361 1.447,1.412 2.085,1.894c0.637,0.483 0.809,0.448 0.809,0.448l1.309,-0.155c0,0 0.155,-0.344 0.173,-0.585c0.017,-0.242 0.327,-2.515 0.327,-2.722c-0,-0.207 -0.017,-2.808 -0,-3.256c0.017,-0.447 0.017,-1.912 0.103,-2.36c0.086,-0.447 -0.155,-1.274 -0.155,-1.274l-0.155,0.517c0,-0 -0.275,1.36 -0.275,1.67c-0,0.311 -0.448,1.068 -0.552,1.482c-0.103,0.413 -0.585,1.051 -0.809,1.275c-0.224,0.223 -0.327,0.602 -0.327,0.602c-0,0 -0.121,0.31 -0.414,0.552c-0.293,0.241 -0.654,0.275 -0.896,0.258c-0.241,-0.017 -0.155,-0.241 -0.155,-0.241c0,-0 -0.086,-0.155 -0.585,-0.224c-0.5,-0.069 -1.258,-0.448 -1.447,-0.569c-0.19,-0.12 -0.534,-0.327 -0.793,-0.465c-0.258,-0.137 -0.344,-0.172 -0.344,-0.172c-0,0 -0.276,-0.499 -0.052,-0.448c0.224,0.052 1.292,0.879 1.912,1.068c0.62,0.19 1.24,0.19 1.395,0.155c0.155,-0.034 0.104,-0.172 0.328,-0.275c0.224,-0.104 0.344,0.103 0.499,0.086c0.155,-0.017 0.086,-0.069 0.276,-0.224c0.189,-0.155 0.827,-1.12 0.982,-1.361c0.155,-0.241 0.482,-1.223 0.568,-1.602c0.086,-0.379 -0.172,-0.12 -0.517,0.207c-0.344,0.327 -1.395,1.033 -1.705,1.223c-0.31,0.189 -0.947,0.499 -1.705,0.689c-0.758,0.189 -0.758,0.017 -1.12,-0.086c-0.362,-0.104 -0.689,-0.31 -0.861,-0.345c-0.172,-0.034 -0.422,-0.043 -0.422,-0.043c-0.389,-0.322 -0.509,-0.602 -0.629,-1.005c-0,0 0.655,0.307 2.584,0.428c1.929,0.121 2.618,-0.672 3.135,-1.137c0.517,-0.465 0.844,-1.447 0.999,-1.912c0.155,-0.465 -0.121,-1.653 -0.189,-2.222c-0.069,-0.568 1.619,-0.379 1.619,-0.379c0.366,-0.38 6.637,2.793 5.96,4.065c-0.094,0.177 -0.083,0.674 -0.223,1.221c0.182,0.346 0.773,1.478 0.86,1.725c0.103,0.293 0.19,0.431 0.19,0.586c-0,0.155 -1.327,1.67 -1.465,1.843c-0.137,0.172 -0.499,0.017 -0.499,0.017l-0.271,-0.55Z" style="fill:#39404a;"/><path d="M80.944,54.393c0.138,-0.202 1.689,-0.29 1.802,-0.025c0.114,0.264 0.328,2.117 0.341,2.735c0.012,0.618 0.101,3.152 0.025,3.417c-0.076,0.264 -0.719,1.096 -0.882,1.084c-0.164,-0.013 -0.631,-0.883 -0.669,-1.299c-0.037,-0.416 -0.756,-5.711 -0.617,-5.912Z" style="fill:#4e5450;"/><path d="M103.48,16.376c0,0 -0.055,-0.298 -0.521,-0.093c-0.465,0.205 -1.041,0.428 -1.097,0.726c-0.056,0.297 0.39,0.483 0.632,0.428c0.242,-0.056 0.707,-0.633 0.931,-0.633c0.223,-0 0.241,0.279 0.483,0.279c0.242,0 0.67,-0.335 0.67,-0.614c0,-0.279 -0.149,-0.409 -0.446,-0.335c-0.298,0.075 -0.373,0.112 -0.652,0.242Z" style="fill:#827c7f;"/><path d="M82.988,19.314c0,0 0.108,1.571 0.495,2.54c0.388,0.968 1.851,3.358 2.605,4.563c0.753,1.205 2.905,4.821 3.357,5.058c0.452,0.237 2.519,0.581 3.509,0.495c0.99,-0.086 0.409,1.98 0.409,1.98c-0,0 -3.379,-0.215 -3.81,-0.215c-0.43,0 -0.646,0.108 -0.473,0.624c0.172,0.517 0.774,2.454 1.076,3.143c0.301,0.689 0.99,1.937 0.99,1.937l-2.045,0l-0.086,1.249c-0,-0 -5.23,0.129 -5.833,0.322c-0,0 0.043,0.474 -0,0.969c-0.043,0.495 -0.043,1.162 -0.043,1.162c-0,0 1.399,0.086 1.7,0.194c0.302,0.108 1.076,0.344 1.615,0.667c0.538,0.323 1.743,1.163 2.066,1.421l0.043,0.452c-0,-0 0.603,0.086 0.861,0.344c0.258,0.259 0.43,0.732 0.753,0.711c0.323,-0.022 4.456,-1.077 4.606,-1.249c0.151,-0.172 0.495,-1.291 0.495,-1.722c0,-0.43 -0.107,-0.947 -0.43,-1.291c-0.323,-0.345 -0.839,-0.883 -0.839,-0.883c-0,0 2.518,-0.344 2.927,-0.667c0.409,-0.323 0.732,-0.753 0.732,-0.753c-0,-0 4.283,1.571 5.079,1.679c0.797,0.107 3.918,0.538 3.918,0.538c-0,-0 -0.065,1.851 -0.086,2.346c-0.022,0.495 -0.086,4.197 0.15,5.618c0.237,1.42 1.679,4.326 1.938,4.498c0.258,0.172 1.506,0.366 1.851,0.366c0.344,0 1.915,-1.119 2.023,-1.55c0.107,-0.43 -0.345,-1.442 -0.71,-2.604c-0.366,-1.162 -0.775,-3.918 -0.775,-4.542c-0,-0.624 0.215,-2.109 0.602,-2.475c0.388,-0.366 0.625,-0.538 0.926,-0.538c0.301,-0 2.454,0.581 3.573,1.076c1.119,0.495 4.606,2.432 5.359,2.755c0.754,0.323 1.486,0.84 2.885,0.883c1.399,0.043 2.948,0.129 2.948,0.129l0.022,-1.141c-0,0 1.162,-0.689 1.657,-1.162c0.495,-0.474 1.292,-2.067 1.292,-2.067c-0,0 -0.926,0.259 -1.55,0.302c-0.624,0.043 -2.023,0.409 -0.969,-0.603c1.055,-1.012 2.26,-3.681 2.239,-4.133c-0.022,-0.452 -0.151,-0.452 -0.775,-0.279c-0.624,0.172 -1.894,0.129 -1.894,0.129c-0,-0 0.697,-2.394 1.055,-3.401c1.717,-4.832 -20.453,-24.566 -21.977,-20.84l-8.242,3.972c-0,0 -8.197,-0.114 -9.202,-0.068c-1.004,0.046 -3.585,0.183 -3.585,0.183c0,-0 -0.296,-0.366 -0.479,-0.343c-0.183,0.023 -1.394,0.1 -1.953,0.221Z" style="fill:#69628a;"/><path d="M105.159,18.015l-0.475,-0.885c-0,0 -4.376,0.308 -5.284,0.604c-0.908,0.296 -3.81,2.093 -4.323,2.823c-0.513,0.731 -1.658,3.179 -2.034,4.955c-0.375,1.777 -0.039,7.502 0.277,8.726c0.316,1.224 3.672,6.357 4.442,6.791c0.77,0.434 3.908,1.007 4.224,1.027c0.316,0.019 -0.039,-0.356 -0.592,-0.909c-0.553,-0.552 -2.428,-2.25 -3.119,-3.632c-0.691,-1.382 -1.619,-4.304 -1.619,-7.206c0,-2.902 1.106,-6.317 2.014,-7.876c0.908,-1.56 4.949,-4.221 6.489,-4.418Z" style="fill:#453b4f;"/><path d="M121.549,26.361l-0.523,2.531c-0,0 -0.99,-1.222 -1.193,-1.775c-0.204,-0.552 -1.048,-2.298 -1.048,-2.298c0,-0 -0.465,0.844 -0.524,1.484c-0.058,0.64 -0.698,3.229 -0.931,3.549c-0.232,0.32 -0.465,0.233 -0.465,0.233l-0,2.473c-0,1.135 0.582,3.754 0.582,3.754l1.193,0.203c-0,0 -0.233,0.32 -0.233,0.699c-0,0.378 0.524,1.658 0.524,1.658l0.785,1.019l3.608,-0.204c0,-0 0.087,0.815 -0.058,1.251c-0.146,0.436 -0.437,3.375 -0.437,3.375l3.172,-0.058c-0,-0 -0.116,2.648 0.116,3.026c0.233,0.378 0.844,0.698 0.844,0.698c0,0 -0.145,-1.018 0.029,-1.251c0.175,-0.233 2.852,-2.095 2.852,-2.095c-0,0 -2.503,-0.116 -2.735,-0.494c-0.233,-0.379 2.793,-4.248 2.589,-4.423c-0.204,-0.175 -3.288,0.582 -3.491,0.407c-0.204,-0.174 1.396,-3.317 1.367,-3.811c-0.029,-0.495 0.058,-2.182 -0.058,-2.415c-0.116,-0.233 -5.965,-7.536 -5.965,-7.536Z" style="fill:#4e1115;"/><path d="M92.076,33.152c-0.217,-0.057 -0.474,-1.086 -0.355,-1.342c0.118,-0.257 0.868,-0.731 1.046,-0.632c0.178,0.099 -0.197,0.375 -0.02,0.415c0.178,0.039 3.652,0.236 3.87,0.158c0.217,-0.079 0.473,-0.06 0.572,-0.218c0.099,-0.158 -0.118,-0.454 0.099,-0.454c0.217,0 0.612,0.139 0.493,0.908c-0.118,0.77 -0.394,1.224 -0.71,1.244c-0.316,0.02 -4.324,0.099 -4.995,-0.079Zm0.79,-7.225c-0.217,-0.02 -0.217,-1.145 -0.158,-1.895c0.059,-0.751 0.474,-1.106 0.908,-1.284c0.434,-0.177 0.908,-0.236 0.908,-0.236c0,-0 0.415,-0.612 0.671,-0.612c0.257,-0 0.454,0.375 0.454,0.375c0,-0 0.296,0.098 0.612,0.098c0.316,0 1.283,0.218 1.362,0.652c0.079,0.434 0.474,2.369 0.435,2.606c-0.04,0.237 -0.474,0.572 -0.573,-0.198c-0.098,-0.77 -0.059,-1.974 -0.493,-2.171c-0.435,-0.198 -1.817,-0.138 -1.817,-0.138c0,-0 -0.296,0.552 -0.098,0.947c0.197,0.395 0.177,0.79 -0.099,0.81c-0.276,0.019 -0.77,-0.158 -0.829,-0.573c-0.059,-0.415 -0.119,-0.908 -0.119,-0.908c0,-0 -0.533,0.02 -0.552,0.296c-0.02,0.276 -0.138,2.27 -0.612,2.231Zm11.371,-7.719l0.849,-0.04l0.888,-0.177l0,-1.816c0,-0 -1.086,-0.218 -1.303,-0.139c-0.217,0.079 -0.454,0.158 -0.77,0.198c-0.316,0.039 -0.691,-0.198 -0.868,-0.217c-0.178,-0.02 0.019,-0.158 -0.612,0.138c-0.632,0.296 -0.909,0.375 -1.066,0.296c-0.158,-0.079 -0.218,-0.355 -0.218,-0.355l-0.466,1.496c0,0 0.447,0.004 0.999,-0.016c0.553,-0.02 0.968,0.158 0.968,0.158c-0,0 0.849,0.513 1.599,0.474Z" style="fill:#4b3f49;"/></g></g></svg>