<?xml version="1.0" encoding="UTF-8" standalone="no"?><!DOCTYPE svg PUBLIC "-//W3C//DTD SVG 1.1//EN" "http://www.w3.org/Graphics/SVG/1.1/DTD/svg11.dtd"><svg width="100%" height="100%" viewBox="0 0 150 150" version="1.1" xmlns="http://www.w3.org/2000/svg" xmlns:xlink="http://www.w3.org/1999/xlink" xml:space="preserve" xmlns:serif="http://www.serif.com/" style="fill-rule:evenodd;clip-rule:evenodd;stroke-linejoin:round;stroke-miterlimit:2;"><path id="base" d="M150,75c0,-41.394 -33.606,-75 -75,-75c-41.394,0 -75,33.606 -75,75c0,41.394 33.606,75 75,75c41.394,0 75,-33.606 75,-75Z" style="fill:#daaf57;"/><path id="outline" d="M144,75c0,-38.082 -30.918,-69 -69,-69c-38.082,0 -69,30.918 -69,69c0,38.082 30.918,69 69,69c38.082,0 69,-30.918 69,-69Z" style="fill:#0b1324;"/><path id="core" d="M141,75c0,-36.426 -29.574,-66 -66,-66c-36.426,0 -66,29.574 -66,66c0,36.426 29.574,66 66,66c36.426,0 66,-29.574 66,-66Z" style="fill:#97c6ce;"/><clipPath id="_clip1"><path d="M141,75c0,-36.426 -29.574,-66 -66,-66c-36.426,0 -66,29.574 -66,66c0,36.426 29.574,66 66,66c36.426,0 66,-29.574 66,-66Z"/></clipPath><g clip-path="url(#_clip1)"><g id="riven"><path d="M90.217,93.385c2.463,1.634 2.86,3.219 0.179,4.732c0,0 -4.732,-4.373 -0.179,-4.732Z"/><path d="M96.022,77.271c-0,0 -3.503,2.162 -4.136,2.546c-0.633,0.384 -3.708,2.668 -4.635,3.708c-0.927,1.04 -3.097,3.029 -3.414,3.933c-0.316,0.905 -0.881,3.346 -0.474,4.228c0.407,0.882 1.695,2.578 2.78,3.12c1.086,0.543 2.894,0.882 3.776,0.95c0.882,0.067 3.323,0.226 3.323,0.226l10.151,-4.658c0,0 1.131,-4.092 1.673,-4.34c0.543,-0.249 1.492,-0.611 2.51,-1.583c1.017,-0.972 1.085,1.311 1.085,1.311c0,0 -0.452,1.809 -0.543,2.623c-0.09,0.814 -0.655,4.341 -0.791,5.109c-0.136,0.769 -0.407,2.985 -0.52,3.459c-0.113,0.475 -0.678,1.719 -0.791,2.442c-0.113,0.724 -0.452,3.64 -0.498,4.069c-0.045,0.43 -0.746,1.922 -0.881,2.397c-0.136,0.475 -0.158,4.137 -0.158,4.137l2.464,0.52c-0,0 2.261,-1.085 2.871,-1.763c0.61,-0.678 1.424,-2.578 1.334,-3.753c-0.091,-1.176 0.09,-1.605 0.407,-2.351c0.316,-0.746 2.125,-3.256 3.052,-4.319c0.927,-1.062 3.165,-3.459 3.165,-3.459c1.785,-4.509 -13.499,-23.073 -21.75,-18.552Zm-8.693,-8.18c0,-0 1.2,-0.957 2.189,-1.119c0.989,-0.162 3.566,-0.211 4.085,-0.519c0.519,-0.308 2.286,-1.799 2.286,-1.799l4.166,7.392c0,0 -2.172,0.665 -3.112,1.102c-0.941,0.438 -2.383,1.362 -2.967,1.573c-0.584,0.211 -3.81,1.216 -3.81,1.216l-2.837,-7.846Zm18.568,-15.752c-0,0 -1.555,-0.622 -1.751,-1.036c-0.196,-0.415 -0.506,-1.843 -0.737,-2.545c-0.23,-0.703 -0.553,-1.601 -0.599,-2.027c-0.046,-0.426 -0.126,-3.098 -0.126,-3.098c2.439,-2.925 5.94,-4.134 10.375,-3.835c1.256,7.685 -1.171,11.828 -7.162,12.541Z" style="fill:#836051;"/><path d="M104.46,108.512c-0.026,-0.803 0.082,-1.458 0.234,-1.969c0.279,-0.942 0.742,-1.598 0.742,-1.598c-0.366,0.923 -0.544,2.407 -0.59,3.524c-0,0 0.061,1.185 0.818,1.45c0.758,0.265 3.637,0.265 3.637,0.265l-2.171,1.62l0.011,0.009c0,-0 0.493,0.416 0.228,0.947c-0.265,0.53 -0.758,0.53 -1.288,1.477c-0.53,0.947 -0.72,1.364 -1.137,2.424c-0.416,1.061 -0.113,1.819 -0.833,2.765c-0.72,0.947 -1.06,2.197 -2.045,2.501c-0.985,0.303 -2.008,0.303 -2.387,0.075c-0.379,-0.227 -1.325,-0.416 -1.288,-1.363c0.038,-0.947 0.341,-2.5 0.796,-3.182c0.454,-0.682 1.856,-2.462 2.235,-3.258c0.379,-0.795 1.326,-3.371 1.742,-3.826c0.204,-0.222 0.536,-0.354 0.821,-0.431l0.475,-1.43Zm12.552,-12.352c-2.451,-4.49 4.26,-8.874 6.391,-5.038c0.608,0.991 1.336,1.915 1.911,2.925c0.948,1.663 1.675,3.487 2.463,5.231c0.573,1.27 1.353,2.652 1.38,4.075c0.012,0.628 -0.041,1.461 -0.473,1.952c-0.17,0.194 -0.375,0.366 -0.616,0.464c-0.176,0.071 -0.493,0.128 -0.486,0.376c0.02,0.645 0.692,1.197 1.131,1.571c0.515,0.441 1.058,1.084 1.173,1.778c0.11,0.657 -1.031,0.725 -1.445,0.911c-0.867,0.391 -1.508,1.096 -2.342,1.521c-0.613,0.312 -1.402,0.397 -2.079,0.297c-1.298,-0.191 -1.996,-1.666 -2.572,-2.707c-0.843,-1.523 -1.218,-3.34 -1.631,-5.068c-0.372,-1.559 -0.891,-3.247 -1.412,-4.77c-0.379,-1.109 -0.831,-2.488 -1.393,-3.518Zm-13.19,-9.176c-0,-0 1.899,-0.366 2.575,0.876c0.675,1.242 1.406,3.507 1.424,4.694c0.018,1.187 -0.931,9.522 -1.589,9.577c-0.657,0.055 -1.479,-0.073 -2.191,-0.931c-0.712,-0.859 -1.065,-2.325 -0.95,-3.397c0.105,-0.979 0.53,-10.652 0.731,-10.819Z" style="fill:#5a2b1c;"/><path d="M87.082,95.184l1.897,0.425c-0,-0 0.397,1.089 1.117,1.013c0.72,-0.076 1.667,-0.833 2.197,-1.78c0.53,-0.947 2.765,-4.697 3.22,-4.735c0.454,-0.038 1.553,1.023 1.553,1.023l0.833,2.689l2.273,-3.599c-0,0 0.757,0.606 1.629,0.341c0.871,-0.265 2.31,-0.757 2.803,-0.454c0.492,0.303 1.477,1.06 1.628,1.894c0.152,0.833 0,1.742 0.19,2.31c0.189,0.569 0.682,1.212 0.492,1.932c-0.189,0.72 -0.985,1.667 -1.742,1.856c-0.758,0.19 -2.273,0.038 -2.349,-0.606c-0.075,-0.644 -0.113,-1.477 -0.379,-1.932c-0.265,-0.454 -1.06,-1.477 -1.06,-1.477c-0,0 -0.985,0.758 -2.121,1.477c-1.137,0.72 -2.008,1.175 -2.008,1.175l1.099,3.939l-3.523,-2.121c-0,-0 -2.955,1.932 -3.75,2.007c-0.796,0.076 -4.037,-2.915 -3.999,-5.377Z" style="fill:#362d1c;"/><path d="M123.516,67.015l0.312,-1.505c0,0 0.54,0.028 0.668,-0.256c0.127,-0.284 -0,-1.235 -0.142,-1.377c-0.142,-0.142 -0.37,-0.327 -0.37,-0.327c0,0 0.71,-0.156 0.994,0.1c0.284,0.255 0.284,0.483 0.284,0.483c0,-0 0.753,-0.64 1.122,-0.853c0.37,-0.213 1.577,-0.681 1.861,-0.823c0.284,-0.142 0.113,-0.44 0.113,-0.44c0,-0 0.014,-0.128 0.313,-0.199c0.298,-0.071 0.596,-0.043 1.065,0.014c0.468,0.057 0.696,-0.043 1.093,-0.142c0.398,-0.099 1.534,-0.639 1.775,-0.795c0.242,-0.156 0.497,-0.455 1.037,-0.824c0.54,-0.369 0.88,-0.312 1.236,-0.838c0.355,-0.525 0.482,-0.539 0.639,-0.937c0.156,-0.398 0.568,-1.406 0.937,-1.718c0.369,-0.313 1.477,-0.767 1.818,-1.023c0.34,-0.255 2.186,-2.471 2.186,-2.471l-17.784,-26.322c-20.635,13.167 -11.849,36.202 0.843,40.253Z" style="fill:#61341b;"/><path d="M94.08,78.533c-0,0 -0.856,0 0.695,-0.909c1.551,-0.909 3.529,-1.55 4.813,-1.925c1.283,-0.374 23.261,-5.454 23.261,-5.454c-0,-0 1.657,1.23 2.353,2.085c0.695,0.856 1.818,1.979 1.764,2.941c-0.053,0.963 -0.428,1.498 -0.053,2.941c0.374,1.444 0.48,1.231 0.347,2.073c-0.05,0.326 -0.016,1.233 -0.237,1.704c-0.373,0.795 -1.132,1.146 -1.233,2.052c-0.161,1.444 -0.481,3.476 -0.428,4.813c0.053,1.337 0.481,1.818 -0.214,2.673c-0.695,0.856 -2.832,3.447 -4.385,3.583c-2.028,0.179 -5.133,-1.551 -6.096,-2.085c-0.962,-0.535 -3.422,-2.353 -4.705,-3.69c-1.284,-1.337 -3.583,-4.385 -4.492,-5.615c-0.909,-1.23 -1.604,-2.887 -2.888,-3.689c-1.283,-0.803 -3.101,-2.246 -4.706,-2.46c-1.604,-0.214 -1.55,-0.428 -3.796,0.962Z" style="fill:#595a4c;"/><path d="M110.229,72.576c-0,0 0.642,2.139 1.604,3.155c0.963,1.016 4.438,2.834 5.989,3.208c1.551,0.375 4.492,0.749 5.829,-0.32c1.337,-1.07 2.994,-2.567 2.727,-3.53c-0.267,-0.962 -1.551,-2.192 -2.406,-2.887c-0.856,-0.695 -1.605,-2.834 -1.605,-2.834l-12.138,3.208Z" style="fill:#724832;"/><path d="M107.395,73.966c-0,0 -0.374,1.872 0.695,3.69c1.069,1.818 4.652,5.027 7.059,5.989c2.406,0.963 4.973,1.444 5.561,1.979c0.588,0.534 2.085,2.032 2.834,1.925c0.749,-0.107 1.176,-0.482 1.176,-0.482l1.391,0.428c-0,0 0.588,-1.55 1.443,-2.192c0.856,-0.642 2.995,-1.711 3.904,-2.193c0.909,-0.481 4.171,-2.887 3.797,-3.689c-0.375,-0.802 -1.016,-0.909 -1.979,-0.588c-0.962,0.32 -3.85,2.138 -4.438,2.459c-0.588,0.321 -1.551,-1.23 -1.551,-1.23c0,0 -0.16,1.123 -0.802,1.337c-0.642,0.214 -2.353,0.321 -3.048,0.268c-0.695,-0.054 -3.69,-0.321 -5.668,-1.23c-1.979,-0.909 -4.492,-1.872 -5.775,-3.369c-1.284,-1.497 -2.567,-2.62 -2.674,-3.743c-0.107,-1.123 -1.925,0.641 -1.925,0.641Z" style="fill:#441c10;"/><path d="M106.06,22.227c0,0 2.508,-2.675 4.562,-4.036c2.054,-1.361 7.069,5.23 -4.562,4.036Z" style="fill:#390e05;"/><path d="M118.719,21.117l-12.083,-0.346c0,-0 0.26,-0.607 -0.26,-0.607c-0.52,0 -5.457,0.044 -6.106,0.607c-0.65,0.563 -0.78,1.342 -0.693,1.862c0.086,0.52 -0.823,1.256 -1.776,2.122c-0.953,0.866 -0.91,0.823 -0.996,1.559c-0.087,0.736 -0,1.992 -0,1.992c21.945,7.399 18.485,-2.2 21.914,-7.189Z" style="fill:#211306;"/><path d="M82.283,52.015c-2.028,1.475 -4.209,2.818 -5.653,4.588c-0.786,0.964 -1.119,2.213 -1.707,3.293c-0.696,1.281 -1.673,2.483 -2.114,3.887c-0.422,1.346 0.051,2.634 -0.856,3.844c-2.079,2.773 -5.799,3.875 -8.396,6.054c-1.994,1.674 -3.165,3.743 -4.772,5.713c-0.937,1.149 -2.061,2.043 -3.102,3.084c-2.07,2.07 -3.539,4.922 -4.671,7.593c-0.857,2.024 -1.454,4.441 -3.317,5.827c-2.186,1.625 -5.036,0.843 -7.438,0.443c-0.936,-0.156 -1.909,0.037 -2.772,-0.449c-0.951,-0.537 -1.427,-1.503 -2.252,-2.168c-0.769,-0.621 -1.844,-0.896 -2.79,-1.108c-2.131,-0.478 -4.715,-0.199 -6.934,0.334c-1.416,0.091 -2.488,0.42 -3.887,0.828c-1.866,0.543 -3.413,1.706 -5.192,2.437c-1.689,0.694 -3.632,0.902 -5.431,1.12c-1.269,0.154 -3.075,0.431 -4.246,-0.234c-0.998,-0.566 -1.3,-1.688 -1.557,-2.73c-0.576,-2.343 -0.919,-4.749 -1.185,-7.144c-0.323,-2.907 -0.774,-5.898 -0.395,-8.821c0.71,-5.487 3.77,-11.104 6.599,-15.791c0.992,-1.644 1.876,-3.432 3.119,-4.904c1.191,-1.41 3.037,-2.204 4.653,-3.012c0.418,-0.209 1.332,-0.789 1.809,-0.431c0.948,0.711 -1.161,3.13 1.281,3.072c2.725,-0.065 4.66,-3.225 7.078,-4.138c1.017,-0.384 1.819,0.191 2.815,0.269c1.356,0.107 2.831,-0.474 3.994,-1.12c2.843,-1.579 3.238,-4.24 5,-6.706c1.624,-2.274 3.744,-3.992 5.677,-5.971c1.172,-1.2 2.092,-2.674 3.353,-3.784c2.104,-1.853 4.778,-0.753 7.252,-1.384c3.37,-0.859 6.229,-3.362 9.605,-4.425c2.015,-0.634 3.947,0.41 5.952,-0.179c3.056,-0.899 5.716,-4.112 8.971,-4.186c2.081,-0.048 3.628,1.549 5.377,2.443c1.485,0.759 3.069,1.075 4.677,1.461c0.883,0.212 1.925,0.359 2.509,1.138c0.405,0.54 0.396,1.196 0.207,1.862c1.154,-0.367 2.323,-0.681 3.512,-0.876c2.366,-0.386 5.759,-0.415 5.822,2.731c0.067,3.369 -3.737,5.858 -5.928,7.888c-3.397,3.149 -6.696,6.625 -11.029,8.464c-1.184,0.503 -2.404,0.872 -3.638,1.188Z" style="fill:#aab173;"/><path d="M77.922,30.239c-0,0 -4.071,-0.693 -4.028,-1.342c0.043,-0.65 5.067,-2.859 5.717,-3.075c0.65,-0.217 2.469,-1.083 3.118,-1.083c0.65,0 19.1,2.036 20.139,2.339c1.04,0.303 3.855,2.425 3.855,2.425c1.361,3.21 0.919,5.481 -0.607,7.189c0,0 -6.409,-1.342 -7.232,-1.472c-0.823,-0.13 -20.962,-4.981 -20.962,-4.981Z" style="fill:#374f2d;"/><path d="M11.928,97.308c0,-0 1.875,-2.133 4.895,-3.364c3.02,-1.231 6.555,-3.034 12.051,-2.805c5.496,0.229 8.544,1.646 9.303,2.161c0.759,0.515 1.675,1.703 1.803,2.634c0.129,0.93 0.702,1.731 2.047,1.445c1.345,-0.286 4.523,-1.145 5.152,-2.218c0.63,-1.074 2.004,-3.879 2.505,-4.795c0.501,-0.916 1.546,-2.462 2.691,-4.05c1.145,-1.589 3.95,-5.854 4.293,-6.384c0.344,-0.529 0.544,-0.772 0.33,-1.087c-0.215,-0.315 -0.501,-0.73 -0.73,-1.045c-0.229,-0.315 -0.258,-0.93 -0.401,-1.059c-0.143,-0.129 -0.458,-0.816 -0.458,-0.816c-0,0 1.102,0.73 1.259,0.945c0.158,0.214 0.659,1.002 0.845,1.059c0.186,0.057 0.873,-0.057 1.159,-0.186c0.286,-0.129 1.403,-0.816 1.603,-1.102c0.2,-0.287 0.787,-0.974 1.074,-1.374c0.286,-0.401 1.574,-1.746 1.874,-2.176c0.301,-0.429 1.145,-1.145 1.145,-1.145c0,0 3.278,-4.021 3.621,-4.308c0.344,-0.286 1.503,-1.674 1.961,-2.204c0.458,-0.529 3.02,-3.463 3.492,-3.993c0.473,-0.529 0.931,-1.045 1.031,-1.302c0.1,-0.258 0.043,-1.059 0.2,-1.389c0.158,-0.329 0.329,-1.216 0.229,-1.417c-0.1,-0.2 -0.322,-0.289 -0.322,-0.289c0,-0 -1.092,-0.667 -0.955,-1.001c0.136,-0.334 0.894,-1.335 1.365,-2.032c0.47,-0.698 2.244,-2.472 2.381,-2.836c0.136,-0.364 0.394,-1.047 0.485,-1.274c0.091,-0.228 0.303,-1.153 0.303,-1.153c0,0 0.774,-1.274 1.441,-1.971c0.667,-0.698 1.38,-0.986 1.592,-1.305c0.213,-0.318 0.531,-1.728 0.531,-2.062c0,-0.334 0.091,-1.456 -0.03,-1.638c-0.122,-0.182 -0.243,-0.682 -0.243,-0.682c0,-0 0.925,-0.213 1.259,-0.152c0.334,0.061 1.441,0.622 1.471,1.062c0.03,0.439 -0.41,1.016 -0.713,1.471c-0.303,0.455 -1.046,1.319 -1.243,2.183c-0.198,0.865 -0.774,3.382 -0.774,4.368c0,0 1.395,-1.077 1.911,-1.501c0.516,-0.425 2.897,-2.26 3.336,-2.654c0.44,-0.395 3.003,-2.184 3.534,-2.563c0.531,-0.379 1.744,-1.638 2.199,-1.881c0.455,-0.242 1.911,-1.486 2.245,-1.88c0.333,-0.395 0.758,-0.804 0.758,-0.804c-0,-0 0.879,-0.046 1.607,-0.652c0.728,-0.607 1.942,-1.608 2.488,-2.002c0.546,-0.394 1.985,-1.967 1.985,-1.967l-0.828,-1.542l-3.4,-1.229l-1,-1.2l-4.542,-0.543l-0.686,0.229l-2.314,-0.086l-0.429,-0.314l-3.657,-0.657l-0.714,0.4l-5.343,1.657c-17.756,8.196 -33.104,18.445 -44.25,32.272c1.479,-6.047 1.274,-8.611 -0.918,-7.069c-10.398,3.831 -19.317,10.276 -26.531,19.737c-1.97,8.002 -0.592,15.247 5.027,21.535Zm64.223,-42.587c-0,0 0.475,-0.192 0.67,-0.34c0.601,-0.456 1.222,-0.89 1.84,-1.322c1.293,-0.903 2.64,-1.756 4.066,-2.434c0.598,-0.284 1.219,-0.51 1.829,-0.764c0.462,-0.192 0.934,-0.441 1.432,-0.522c0.126,-0.021 0.43,-0.067 0.517,0.059c0.108,0.155 -0.283,0.453 -0.369,0.534c-0.519,0.487 -1.081,0.922 -1.593,1.418c-0.647,0.627 -1.351,1.133 -2.053,1.691c-0.542,0.43 -1.039,0.928 -1.698,1.178c-1.029,0.391 -2.045,0.378 -3.124,0.446c-0.442,0.028 -1.079,0.001 -1.517,0.056Z" style="fill:#16210d;"/><path d="M29.497,86.3c-1.07,-0.099 -2.887,-0.074 -2.986,-0.323c-0.1,-0.249 -1.369,-0.498 -0.1,-1.07c1.269,-0.573 3.758,-1.12 4.256,-1.145c0.497,-0.025 1.517,0.174 2.015,-0.124c0.498,-0.299 1.045,-0.523 1.195,-0.722c0.149,-0.199 0.248,-0.249 0.149,-0.722c-0.1,-0.472 -1.045,-0.497 0.498,-1.045c1.542,-0.547 3.483,-1.045 2.961,-1.692c-0.523,-0.647 -0.324,-0.522 -0.896,-1.045c-0.572,-0.523 -1.344,-0.075 -0.697,-0.722c0.647,-0.647 0.498,-0.622 1.319,-1.393c0.821,-0.772 1.294,-1.394 1.991,-1.493c0.696,-0.1 0.323,-0.946 0.074,-1.045c-0.249,-0.1 -5.399,1.493 -6.893,1.642c-1.493,0.149 -2.09,0.572 -4.13,0.747c-2.041,0.174 -2.016,0.024 -3.758,0.497c-1.742,0.473 -1.941,0.672 -3.11,0.647c-1.17,-0.025 -1.543,-0.448 -2.563,-0.497c-1.02,-0.05 -1.692,-0.473 -2.041,-0.448c-0.348,0.024 -0.149,-0.274 -1.617,-0.971c-1.468,-0.697 -2.041,-0.771 -2.712,-1.617c-0.672,-0.846 -1.095,-0.622 -1.046,-1.966c0.05,-1.344 0.324,-3.285 0.324,-3.285c-0,0 -0.224,-1.866 0.697,-1.443c0.92,0.423 1.592,2.862 1.667,3.683c0.075,0.821 -0.174,1.617 0.821,2.065c0.995,0.448 -0.224,0.423 1.841,0.398c2.066,-0.025 1.717,-0.099 2.962,-0.423c1.244,-0.323 1.07,0.622 1.891,-0.547c0.821,-1.17 0.647,-1.269 1.543,-2.314c0.895,-1.046 2.811,-3.434 3.409,-4.106c0.597,-0.672 2.289,1.02 2.189,1.343c-0.099,0.324 2.215,1.22 2.19,1.543c-0.025,0.324 -0.373,1.12 -0.846,1.593c-0.473,0.473 -1.941,1.468 -1.966,1.841c-0.025,0.374 1.518,1.02 3.459,0.498c1.941,-0.523 1.866,-0.821 3.136,-0.722c1.269,0.1 6.171,0.349 6.444,0.697c0.274,0.348 0.598,0.846 0.697,1.468c0.1,0.622 0.025,0.821 0.199,0.996c0.174,0.174 0.349,1.219 -0.099,1.368c-0.448,0.149 -1.842,0.274 -1.369,0.423c0.473,0.149 2.513,0.149 2.737,0.05c0.224,-0.1 0.871,0.722 1.17,1.07c0.299,0.348 -0.871,1.742 -1.742,2.239c-0.871,0.498 -1.518,1.17 -3.185,1.568c-1.667,0.398 -1.593,0.523 -2.563,0.796c-0.971,0.274 -1.767,0.423 -1.717,0.672c0.05,0.249 0.498,-0.025 1.518,-0.199c1.02,-0.174 2.961,0.075 2.961,0.075c-0,-0 0.821,0.547 -0.348,1.07c-1.17,0.522 -1.369,1.866 -3.36,2.016c-1.99,0.149 -1.169,0.049 -3.036,0.174c-1.866,0.124 -2.463,-0 -3.533,-0.1Zm6.621,-16.904c-0.465,-0.179 -1.556,0.662 -0.447,-0.501c1.109,-1.163 0.805,-1.234 2.326,-1.485c1.521,-0.25 1.646,0.054 2.827,-0.554c1.181,-0.609 2.666,-1.95 3.274,-2.666c0.608,-0.716 1.36,-0.841 0.894,-1.36c-0.465,-0.519 -0.626,-0.268 -0.608,-0.59c0.018,-0.322 0.913,-0.358 1.807,-1.02c0.895,-0.662 0.931,-0.734 1.682,-1.253c0.752,-0.519 0.895,-0.912 1.7,-0.966c0.805,-0.053 1.27,-0.537 1.574,0.125c0.304,0.662 -0.59,0.823 0.304,0.68c0.895,-0.143 3.454,-0.805 4.312,-1.091c0.859,-0.286 0.537,-0.251 1.307,-0.376c0.769,-0.125 1.359,-1.02 1.198,-0.215c-0.161,0.806 -0.465,1.808 -0.787,2.004c-0.322,0.197 -0.429,0.841 -2.72,1.199c-2.29,0.358 -2.594,0.358 -3.596,0.716c-1.002,0.358 -1.288,0.429 -1.109,0.59c0.179,0.161 1.199,0.197 0.984,0.483c-0.215,0.287 -0.555,0.376 -1.431,0.823c-0.877,0.448 -1.163,0.448 -2.308,1.002c-1.146,0.555 -1.772,0.734 -2.702,1.378c-0.931,0.644 -1.467,0.895 -1.682,1.252c-0.215,0.358 -1.95,1.074 -2.29,1.163c-0.34,0.09 -4.044,0.841 -4.509,0.662Zm12.864,-2.433c-0.161,-0.394 -0.34,-1.02 0.322,-1.521c0.662,-0.501 1.199,-0.787 2.022,-1.002c0.823,-0.214 0.448,-0.25 1.557,-0.483c1.109,-0.232 1.378,0.143 1.199,0.591c-0.179,0.447 0.268,0.662 0.179,1.055c-0.09,0.394 -0.573,1.271 -1.503,1.271c-0.931,-0 -1.056,-0.287 -1.521,-0c-0.465,0.286 -0.34,0.805 -1.127,0.751c-0.788,-0.054 -0.967,-0.268 -1.128,-0.662Zm4.992,-3.865c0.412,-0.393 0.859,-1.198 1.593,-1.449c0.733,-0.25 1.252,-0.268 1.646,-0.411c0.393,-0.143 0.25,-0.322 0.751,-0.555c0.501,-0.233 1.217,-0.089 1.431,-0.018c0.215,0.072 1.128,0.125 1.289,0.519c0.161,0.394 0.626,0.555 0.358,0.948c-0.269,0.394 0.322,0.591 -0.752,0.609c-1.073,0.017 -2.397,0.304 -3.095,0.411c-0.698,0.107 -1.145,-0.054 -1.682,-0.054c-0.537,0 -1.95,0.394 -1.539,0Zm-1.431,-6.459c-0.859,-0.751 -1.61,-0.787 -0.913,-1.359c0.698,-0.573 -0.053,-1.36 1.271,-0.805c1.324,0.554 0.841,1.037 1.914,0.769c1.074,-0.268 1.092,-0.519 2.058,-0.412c0.966,0.108 1.127,0.215 2.254,0.287c1.127,0.071 0.841,-0.197 1.95,-0.215c1.11,-0.018 2.237,0.107 2.756,0.125c0.519,0.018 0.859,-0.179 1.592,-0.071c0.734,0.107 1.163,0.393 1.897,0.411c0.733,0.018 2.683,-0.25 3.99,-0.071c1.306,0.178 1.878,-0.054 2.039,0.286c0.161,0.34 0.501,1.521 -0.447,1.646c-0.948,0.125 -0.662,-0.125 -1.807,0.143c-1.145,0.268 -0.805,0.447 -1.825,0.555c-1.02,0.107 -2.344,-0.143 -2.863,-0.269c-0.519,-0.125 -0.286,-0.519 -2.093,-0.501c-1.807,0.018 -1.217,0.126 -2.684,-0.018c-1.467,-0.143 -1.163,-0.948 -1.753,-1.019c-0.591,-0.072 -2.523,-0.233 -3.561,-0.072c-1.038,0.161 -2.147,0.501 -2.755,0.68c-0.609,0.179 -0.161,0.662 -1.02,-0.09Zm7.983,-4.713c-0.496,0.053 -1.175,0.157 -1.071,-0.339c0.105,-0.496 0.235,-1.071 1.149,-1.462c0.914,-0.392 1.202,-0.653 2.116,-0.941c0.914,-0.287 1.018,-0.13 1.671,-0.574c0.653,-0.444 1.228,-1.202 1.724,-1.489c0.496,-0.287 1.071,-0.104 0.862,0.418c-0.209,0.522 -0.575,0.94 -0.888,1.358c-0.314,0.418 -0.627,0.914 0.548,0.496c1.175,-0.418 2.429,-1.279 2.899,-1.567c0.47,-0.287 1.175,-0.156 0.731,-0.914c-0.444,-0.757 -0.261,-1.07 0.261,-1.436c0.523,-0.366 0.967,-0.34 0.836,-0.862c-0.131,-0.522 -0.836,-0.888 -0.366,-1.384c0.47,-0.496 0.81,-0.522 1.802,-1.384c0.993,-0.862 1.855,-1.332 2.116,-1.358c0.261,-0.026 -0.967,-0.993 -0.758,-1.384c0.209,-0.392 0.758,-0.94 1.28,-1.384c0.522,-0.444 0.47,-0.784 1.776,-1.045c1.306,-0.261 2.429,-0 1.854,-0.366c-0.574,-0.365 -1.462,-0.679 -1.123,-0.888c0.34,-0.209 0.94,-0.992 1.28,-1.149c0.339,-0.156 1.932,0.288 2.141,-0.313c0.209,-0.601 0.784,-1.515 1.019,-1.75c0.235,-0.235 5.223,-0.078 5.536,-0.183c0.314,-0.104 0.862,-0.809 1.254,-0.391c0.392,0.417 1.253,2.193 1.097,2.794c-0.157,0.601 -0.235,0.966 -1.149,1.489c-0.914,0.522 -2.299,1.41 -3.134,1.358c-0.836,-0.053 -2.116,-0.157 -1.071,-0.732c1.045,-0.574 1.724,-0.914 2.324,-1.253c0.601,-0.34 1.437,-0.966 0.993,-1.123c-0.444,-0.157 -0.496,0.209 -1.463,0.522c-0.966,0.314 -1.097,0.444 -1.697,0.261c-0.601,-0.182 -1.254,-0.6 -0.079,-0.992c1.176,-0.392 2.064,-0.679 1.463,-0.81c-0.601,-0.13 -1.489,-0.365 -1.88,-0.104c-0.392,0.261 -1.045,1.227 -0.862,1.697c0.183,0.47 0.835,0.34 0.078,0.784c-0.757,0.444 -2.089,0.888 -2.324,0.992c-0.235,0.105 2.063,0.94 1.41,1.384c-0.653,0.444 -1.567,0.941 -2.82,1.019c-1.254,0.078 -3.16,-0.313 -3.134,0.313c0.026,0.627 0.391,1.019 0.679,1.306c0.287,0.287 0.574,0.627 0.156,0.888c-0.418,0.261 -2.585,1.097 -3.316,1.619c-0.732,0.522 -1.123,1.019 -0.941,1.672c0.183,0.652 0.131,0.992 0.366,1.462c0.235,0.47 0.757,0.966 0.052,1.306c-0.705,0.339 -2.141,1.097 -2.376,1.593c-0.235,0.496 -0.079,0.992 -0.079,0.992c0,0 0.915,-1.018 1.176,-1.149c0.261,-0.13 1.932,-0.392 1.932,-0.392c0,0 -0.209,0.915 -0.627,1.176c-0.417,0.261 -0.548,0.261 -0.992,0.391c-0.444,0.131 -1.018,0.575 -0.966,0.941c0.052,0.365 -2.507,0.365 -3.918,0.287c-1.41,-0.079 -0.809,0.574 -1.958,0.026c-1.149,-0.548 -0.81,-0.862 -1.358,-0.679c-0.549,0.183 -1.593,0.783 -2.403,0.888c-0.809,0.104 -1.332,0.313 -1.828,0.365Z" style="fill:#25491f;"/><path d="M8.907,81.611c0,-0 0.678,-1.212 0.909,-1.096c0.231,0.115 0.115,0.851 0.331,0.865c0.217,0.014 1.298,-1.788 1.688,-2.423c0.389,-0.634 2.408,-3.403 2.768,-3.576c0.361,-0.173 0.519,0.13 0.692,0.13c0.173,0 0.52,-0.216 0.52,-0.216l-2.748,-4.097c0,-0 0.451,-0.45 0.839,-0.798c0.389,-0.348 3.889,-3.847 4.216,-3.847c0.327,-0 1.003,-0.43 1.371,-0.696c0.368,-0.266 1.003,-0.409 1.228,-0.532c0.225,-0.123 0.471,-0.328 0.471,-0.328c-0,0 -0.655,0.819 -0.676,1.064c-0.02,0.246 -0.204,0.819 0.103,0.573c0.307,-0.245 1.248,-1.064 1.534,-1.268c0.287,-0.205 0.328,-0.287 0.614,-0.512c0.287,-0.225 1.003,-0.368 1.003,-0.368c-0,-0 0.859,-1.085 1.085,-1.31c0.225,-0.225 0.225,-0.225 0.47,-0.286c0.246,-0.062 3.499,-2.64 4.032,-3.111c0.532,-0.471 1.33,-1.33 1.903,-1.76c0.573,-0.43 1.8,-1.105 2.128,-1.228c0.327,-0.122 0.9,-0.491 1.125,-0.716c0.226,-0.225 1.208,-0.941 1.453,-1.125c0.246,-0.185 1.024,-0.696 1.371,-0.942c0.348,-0.245 0.983,-0.695 1.29,-0.9c0.307,-0.205 0.675,-0.43 1.084,-0.757c0.409,-0.328 1.31,-1.105 1.453,-1.289c0.143,-0.185 1.33,-1.515 1.33,-1.515c0,0 -3.826,1.596 -4.277,1.821c-0.45,0.226 -3.888,1.679 -4.788,2.067c-0.901,0.389 -5.935,2.374 -6.733,2.702c-0.798,0.327 -4.236,1.944 -4.768,2.271c-0.532,0.327 -6.855,4.379 -7.53,4.85c-0.676,0.471 -1.658,1.105 -1.658,1.105l-0.655,2.783c0,0 -1.146,0.962 -1.453,1.207c-0.307,0.246 -2.128,1.719 -2.128,1.719l0.403,11.539Zm22.557,-16c0,0 0.676,-1.105 1.208,-1.882c0.532,-0.778 1.391,-1.617 2.087,-2.17c0.696,-0.552 2.681,-2.373 3.376,-2.967c0.696,-0.593 2.333,-2.394 3.009,-3.131c0.675,-0.736 3.458,-4.788 3.949,-5.689c0.491,-0.9 3.323,-3.517 8.159,-6.259c4.835,-2.743 10.114,-5.993 12.064,-7.182c1.95,-1.189 7.594,-4.185 8.751,-4.915c1.157,-0.729 4.978,-3.043 5.501,-3.107c0.523,-0.063 4.328,0.618 4.264,1.031c-0.063,0.412 -0.206,0.967 -0.539,1.03c-0.332,0.064 -1.284,0.999 -1.918,1.237c-0.634,0.237 -2.425,0.618 -2.885,0.697c-0.46,0.08 -1.268,0.27 -1.855,0.523c-0.586,0.254 -1.11,0.444 -1.569,0.856c-0.46,0.413 -0.428,0.175 -0.745,0.508c-0.318,0.333 0.031,0.412 -0.46,0.824c-0.492,0.412 -0.238,0.254 -0.729,0.571c-0.492,0.317 -2.109,1.078 -2.474,1.284c-0.364,0.206 -0.459,0.111 -0.776,0.396c-0.317,0.286 -0.413,0.523 -0.682,0.682c-0.27,0.159 -0.999,0.46 -1.3,0.618c-0.301,0.159 -1.031,0.46 -1.237,0.555c-0.206,0.095 -1.633,1.046 -2.346,1.554c-0.713,0.507 -1.997,0.983 -2.378,1.173c-0.38,0.19 -0.872,0.523 -1.316,0.729c-0.444,0.206 -2.251,1.427 -2.394,1.49c-0.142,0.064 -0.982,0.413 -1.569,0.65c-0.587,0.238 -1.49,1.015 -2.029,1.506c-0.539,0.492 -0.745,0.92 -1.253,1.3c-0.507,0.381 -1.934,1.871 -2.536,2.569c-0.603,0.697 -1.253,1.363 -1.57,1.601c-0.317,0.238 -1.474,1.316 -1.712,1.617c-0.238,0.301 -1.696,1.902 -2.251,2.6c-0.555,0.697 -0.698,1.046 -1.078,1.331c-0.38,0.286 -0.729,0.524 -1.268,0.857c-0.539,0.332 -3.409,2.33 -4.423,2.901c-1.015,0.57 -2.553,1.664 -2.886,1.886c-0.333,0.222 -1.537,1.11 -1.934,1.348c-0.396,0.238 -1.769,1.092 -2.256,1.378Z" style="fill:#bdd8b2;"/><path d="M26.378,85.693c-0,-0 0.835,0.185 1.392,0.238c0.557,0.053 3.17,-0.066 4.191,-0.106c1.022,-0.04 2.109,0.146 2.666,0.239c0.557,0.093 0.743,0.119 1.472,-0.106c0.73,-0.226 3.793,-2.454 3.793,-2.454c0,0 -1.074,0 -1.326,-0.026c-0.252,-0.027 -0.504,-0.199 -1.061,-0.08c-0.557,0.12 -1.631,0.73 -1.883,0.822c-0.252,0.093 -2.056,0.08 -2.666,0.093c-0.61,0.014 -1.87,-0.212 -2.308,-0.265c-0.437,-0.053 -1.737,0.172 -2.215,0.212c-0.477,0.04 -1.763,1.088 -2.055,1.433Zm1.087,-3.661c0,0 0.518,-0.119 1.167,-0.292c0.65,-0.172 1.128,-0.265 1.526,-0.384c0.398,-0.12 0.716,-0.106 0.955,0.093c0.238,0.199 0.809,0.517 0.676,0.676c-0.133,0.159 -0.743,0.544 -1.247,0.637c-0.504,0.092 -0.796,0.305 -1.578,0.172c-0.783,-0.133 -1.499,-0.902 -1.499,-0.902Zm6.207,-0.106c0,0 1.313,0.212 1.897,0.332c0.583,0.119 0.968,0.358 1.246,0.199c0.279,-0.16 1.061,-0.823 1.751,-0.995c0.69,-0.173 1.711,0.079 2.162,-0.212c0.451,-0.292 3.74,-1.857 3.899,-2.228c0.159,-0.372 -0.119,-0.624 -0.424,-0.796c-0.305,-0.173 -0.663,-0.968 -1.061,-1.207c-0.398,-0.239 -1.247,0.358 -1.711,0.384c-0.464,0.027 -2.242,0.093 -2.069,-0.198c0.172,-0.292 1.339,-1.154 1.79,-1.274c0.451,-0.119 1.353,-0.318 1.353,-0.318c0,0 -1.459,-0.279 -1.817,-0.345c-0.358,-0.066 -1.751,-0.132 -2.361,0.159c-0.61,0.292 -1.578,1.393 -1.883,1.685c-0.305,0.291 -1.087,0.61 -1.087,0.61c-0,-0 0.689,0.597 0.901,0.716c0.213,0.119 0.876,0.491 1.473,0.61c0.596,0.119 3.09,0.159 3.09,0.159c-0,0 -0.239,0.332 -0.597,0.398c-0.358,0.066 -2.361,0.358 -2.666,0.478c-0.305,0.119 -2.347,0.649 -2.692,0.915c-0.345,0.265 -0.875,0.835 -1.194,0.928Zm-9.297,-2.679c0,-0 0.73,-0.279 1.114,-0.438c0.385,-0.159 0.942,-0.583 1.525,-0.769c0.584,-0.186 0.65,-0.172 1.353,-0.252c0.703,-0.079 1.698,-0.385 2.295,-0.53c0.596,-0.146 1.525,-0.372 2.042,-0.518c0.517,-0.146 1.406,-0.424 1.406,-0.424c-0,-0 -0.677,0.769 -1.141,0.995c-0.464,0.225 -2.228,1.087 -2.546,1.273c-0.318,0.186 -1.247,0.464 -1.247,0.464c0,0 0.982,0.279 1.194,0.318c0.212,0.04 0.239,0.425 0.093,0.518c-0.146,0.092 -1.048,0.451 -1.472,0.504c-0.425,0.053 -1.672,-0 -2.242,-0.133c-0.57,-0.133 -1.989,-0.968 -2.374,-1.008Zm28.184,-5.731c0,0 0.164,-0.218 -0.094,-0.234c-0.257,-0.015 -0.81,-0.093 -1.184,-0.366c-0.374,-0.273 -1.458,-0.694 -1.988,-0.818c-0.53,-0.125 -2.353,-0.484 -2.54,-0.546c-0.187,-0.062 -0.842,-0.062 -0.975,-0.14c-0.132,-0.078 -0.132,-0.359 -0.459,-0.382c-0.328,-0.024 -1.201,0.249 -1.512,0.327c-0.312,0.078 -1.247,0.624 -1.949,0.686c-0.701,0.062 -3.562,0.265 -3.982,0.359c-0.421,0.093 -2.931,0.374 -3.57,0.592c-0.639,0.218 -1.754,0.39 -2.572,0.452c-0.818,0.062 -3.92,0.327 -4.24,0.335c-0.319,0.008 -0.584,-0.086 -0.584,-0.086l-0.99,-0.834c-0,0 1.583,-1.371 2.022,-1.737c0.439,-0.366 2.122,-1.743 2.756,-2.085c0.634,-0.341 1.805,-1.061 1.939,-1.366c0.134,-0.304 0.073,-0.597 0.329,-0.743c0.256,-0.147 1.61,-1.378 2.244,-1.695c0.634,-0.317 0.658,-0.33 0.658,-0.33c0,0 3.939,-2.56 4.561,-2.95c0.622,-0.391 3.731,-2.537 4.048,-2.598c0.317,-0.061 1.549,-0.195 1.878,-0.427c0.329,-0.231 3.39,-1.67 3.524,-1.719c0.134,-0.049 0.305,0.342 0.475,0.305c0.171,-0.037 1.5,0 1.781,-0.085c0.28,-0.086 0.39,-0.403 0.622,-0.488c0.231,-0.085 0.865,-0.207 0.865,-0.207c0,-0 -0.536,-0.159 -0.878,-0.256c-0.341,-0.098 -1.268,-0.891 -1.256,-1.122c0.013,-0.232 0.476,-0.549 0.769,-0.732c0.292,-0.183 1.792,-1.231 2.353,-1.597c0.561,-0.366 2.439,-1.683 3.134,-2.024c0.695,-0.342 3.024,-1.903 3.463,-2.147c0.439,-0.243 2.134,-1.475 2.134,-1.475c-0,-0 -0.805,0.098 -1.122,0.244c-0.317,0.146 -1.561,0.927 -1.89,1.109c-0.329,0.183 -1.512,0.842 -1.634,0.952c-0.122,0.109 -1.683,1.134 -2.073,1.378c-0.39,0.243 -1.829,1.134 -2.073,1.292c-0.244,0.159 -2.158,1.305 -2.585,1.585c-0.427,0.281 -1.146,0.756 -1.305,0.866c-0.158,0.11 -1.487,1.012 -1.756,1.232c-0.268,0.219 -1.073,0.768 -1.658,1.06c-0.585,0.293 -2.146,1.195 -2.366,1.281c-0.219,0.085 -0.914,0.573 -1.219,0.792c-0.305,0.22 -2.744,1.915 -3.182,2.183c-0.439,0.268 -2.086,1.256 -2.537,1.512c-0.451,0.256 -2.134,1.085 -2.451,1.207c-0.317,0.122 -2.378,0.951 -2.682,1.098c-0.305,0.146 -1.39,0.5 -1.39,0.5c-0,-0 -0.073,-0.314 0.114,-0.601c0.186,-0.286 0.3,-0.572 0.3,-0.572c0,-0 -0.286,-0.043 -0.386,0.071c-0.101,0.115 -0.043,0.215 -0.187,0.501c-0.143,0.287 -0.1,0.401 -0.401,0.387c-0.3,-0.014 -0.486,-0.029 -0.601,-0.172c-0.115,-0.143 -0.043,-0.329 -0.215,-0.258c-0.172,0.072 -0.114,0.244 -0.429,0.287c-0.316,0.043 -0.444,-0.029 -0.702,0.071c-0.258,0.101 -0.473,0.158 -0.473,0.158l-0.358,-0.415c0,-0 -0.114,0.215 -0.329,0.358c-0.215,0.143 -0.573,0.343 -0.788,0.558c-0.215,0.215 -0.601,0.616 -0.845,0.917c-0.243,0.301 -0.587,0.53 -0.873,0.888c-0.287,0.358 -0.502,0.759 -0.502,0.759c0,-0 0.53,-0.287 0.874,-0.501c0.344,-0.215 1.031,-0.702 1.203,-0.802c0.172,-0.101 1.103,-0.602 1.274,-0.559c0.172,0.043 0.072,0.415 -0.157,0.816c-0.229,0.401 -1.833,2.521 -2.077,2.779c-0.243,0.257 -0.658,0.644 -0.873,0.773c-0.215,0.129 -0.602,0.115 -0.602,0.115c0,-0 -0.057,-0.258 -0.129,-0.602c-0.071,-0.344 -0.1,-0.673 -0.1,-0.673c0,-0 -0.401,0.917 -0.587,1.146c-0.186,0.229 -0.573,0.587 -0.816,0.916c-0.244,0.33 -0.33,0.587 -0.631,0.888c-0.3,0.301 -0.343,0.559 -0.744,0.802c-0.401,0.244 -0.86,0.444 -1.318,0.573c-0.458,0.129 -0.802,0.301 -0.959,0.315c-0.158,0.014 -2.879,-0.301 -3.051,-0.387c-0.172,-0.086 -1.389,-0.802 -1.532,-0.945c-0.143,-0.143 -0.458,-0.458 -0.573,-0.816c-0.115,-0.358 -0.372,-0.988 -0.501,-1.461c-0.129,-0.472 -0.215,-0.687 -0.215,-1.274c-0,-0.588 0.157,-1.003 0.043,-1.519c-0.115,-0.515 -0.773,-2.491 -0.802,-2.821c-0.029,-0.329 -0.086,-1.017 -0.086,-1.017c-0,0 -0.43,0.702 -0.587,0.917c-0.158,0.215 -0.444,0.215 -0.33,0.43c0.115,0.214 0.344,0.572 0.444,0.744c0.101,0.172 0.129,0.315 0.129,0.315c0,0 -1.26,0.459 -1.503,0.702c-0.244,0.244 -0.588,0.616 -0.845,0.73c-0.258,0.115 -0.588,0.301 -0.588,0.301l-0.063,1.18c0,0 0.581,-0.279 0.779,-0.546c0.197,-0.267 0.523,-0.697 0.941,-0.987c0.418,-0.291 0.732,-0.616 0.953,-0.767c0.22,-0.151 0.627,-0.279 0.627,-0.279c-0,-0 -0.081,0.639 -0.139,0.999c-0.059,0.36 -0.163,1.383 -0.128,1.766c0.035,0.383 0.232,2.266 0.395,2.661c0.162,0.395 0.697,1.115 1.034,1.324c0.337,0.209 1.719,0.941 2.533,1.162c0.813,0.221 0.767,0.198 0.639,0.012c-0.128,-0.186 -0.14,-0.43 -0.14,-0.43c0,-0 1.162,0.081 1.662,0.151c0.499,0.07 0.72,-0.256 0.79,0.209c0.07,0.465 0.104,1.022 -0.163,1.046c-0.267,0.023 -0.569,-0.035 -0.499,0.116c0.069,0.151 0.244,0.174 0.441,0.174l0.79,0c0,0 -0.116,-0.453 -0.104,-0.592c0.011,-0.14 0.127,-0.593 0.267,-0.686c0.139,-0.093 0.267,-0.36 0.697,-0.476c0.43,-0.116 1.278,-0.523 1.522,-0.709c0.244,-0.186 0.372,-0.407 0.5,-0.488c0.127,-0.081 0.371,-0.209 0.58,-0.314c0.21,-0.104 0.454,-0.29 0.732,-0.255c0.279,0.035 0.546,0.116 0.477,0.22c-0.07,0.105 -0.302,0.186 -0.314,0.384c-0.012,0.197 0.174,0.395 0.291,0.627c0.116,0.233 0.29,0.233 0.092,0.43c-0.197,0.198 -0.255,0.012 -0.29,0.302c-0.035,0.291 0,0.709 -0.07,0.872c-0.069,0.162 -0.279,0.36 -0.674,0.418c-0.395,0.058 -0.453,-0.221 -0.662,0.116c-0.209,0.337 -0.255,0.674 -0.255,0.674c-0,-0 0.557,0.128 0.906,-0.047c0.348,-0.174 0.685,-0.29 1.022,-0.325c0.337,-0.035 0.349,-0.197 0.186,-0.337c-0.163,-0.139 -0.232,-0.302 -0.163,-0.441c0.07,-0.14 0.117,-0.291 0.244,-0.558c0.128,-0.267 -0.034,-0.465 0.314,-0.593c0.349,-0.127 0.593,-0.081 0.697,-0.302c0.105,-0.22 0.175,-0.522 0.43,-0.534c0.256,-0.012 0.372,0.372 0.674,0.383c0.302,0.012 3.369,-0.348 3.369,-0.22c0,0.127 -0.093,0.581 -0.453,0.813c-0.36,0.232 -0.778,0.558 -1.231,0.697c-0.453,0.139 -1.023,0.36 -1.522,0.383c-0.5,0.024 -0.407,-0.766 -0.546,-0.778c-0.14,-0.012 -0.5,0.395 -0.465,0.662c0.035,0.267 0.546,0.384 0.941,0.384c0.395,-0 2.382,-0.372 2.777,-0.523c0.395,-0.151 1.069,-0.384 1.673,-0.453c0.604,-0.07 1.197,-0.105 1.592,-0.105c0.395,0 4.554,-1.138 5.1,-1.231c0.546,-0.093 1.139,-0.093 1.685,-0.163c0.546,-0.07 3.416,-0.709 3.52,-0.755c0.105,-0.047 0.221,-0.082 1.058,-0.116c0.836,-0.035 2.265,0.116 2.753,0.278c0.488,0.163 2.37,0.79 2.545,1.127c0.174,0.337 0.325,0.512 0.488,0.453c0.162,-0.058 0.464,-0.232 0.557,-0.464c0.093,-0.233 0.116,-0.442 0.291,-0.465c0.174,-0.023 0.337,0.523 0.674,0.465c0.337,-0.058 0.802,-0.337 1.098,-0.529Zm-39.708,-1.367c-0.019,-0.186 -0.118,-0.417 0.022,-0.492c0.139,-0.075 0.203,-0.342 0.278,-0.471c0.075,-0.128 0.192,-0.246 0.246,0c0.053,0.247 0.267,0.739 0.331,1.017c0.065,0.278 0.129,0.92 0.396,1.209c0.268,0.289 1.573,0.588 1.445,0.663c-0.129,0.075 -0.45,0.332 -0.771,0.214c-0.321,-0.117 -1.401,-0.813 -1.594,-1.07c-0.192,-0.256 -0.289,-0.438 -0.353,-1.07Zm10.143,0.304c-0.185,0.078 0.108,-0.442 0.363,-0.589c0.256,-0.147 0.167,-0.177 0.874,-0.255c0.707,-0.079 1.1,-0.265 1.287,-0.462c0.186,-0.196 0.363,-0.432 0.648,-0.471c0.285,-0.039 1.267,-0.049 1.296,0.137c0.03,0.187 -0.373,0.55 -0.432,0.482c-0.059,-0.069 -0.147,-0.275 -0.235,-0.266c-0.089,0.01 -0.364,0 -0.462,0.315c-0.098,0.314 0.177,0.363 -0.157,0.667c-0.334,0.305 -0.363,0.344 -0.511,0.521c-0.147,0.177 -0.304,0.236 -0.452,0.52c-0.147,0.285 -0.127,0.649 -0.275,0.609c-0.147,-0.039 -0.255,-0.118 -0.343,-0.432c-0.089,-0.314 -0.098,-0.589 -0.256,-0.697c-0.157,-0.108 -0.667,-0.363 -1.345,-0.079Zm-10.325,-4.819c0.109,-0.054 0.193,1.274 0.193,1.701c-0,0.428 -0.032,1.648 -0.236,1.734c-0.203,0.085 -0.16,-1.145 -0.192,-1.498c-0.032,-0.353 0.021,-1.83 0.235,-1.937Zm22.318,1.315c0,0 -0.446,-0.241 -0.12,-0.289c0.325,-0.049 1.218,-0.35 1.774,-0.495c0.555,-0.145 1.4,-0.386 2.232,-0.543c0.833,-0.157 1.364,-0.543 2.257,-1.038c0.893,-0.495 2.51,-1.907 3.126,-2.414c0.615,-0.507 1.448,-1.448 1.194,-1.617c-0.253,-0.169 -1.46,-0.193 -1.46,-0.193c0,-0 0,-0.254 0.29,-0.386c0.289,-0.133 1.448,-0.568 1.762,-0.724c0.314,-0.157 0.748,-0.471 1.038,-0.676c0.289,-0.205 1.098,-0.495 1.617,-0.712c0.519,-0.218 1.895,0.096 1.895,0.096c-0,0 -0.544,0.362 -0.447,0.555c0.097,0.194 0.591,0.073 1.533,-0.132c0.941,-0.205 3.668,-0.809 4.272,-0.99c0.603,-0.181 1.219,-0.483 1.569,-0.736c0.35,-0.254 1.098,-0.459 0.845,-0.133c-0.254,0.326 -1.159,1.086 -1.811,1.436c-0.651,0.35 -2.643,0.978 -3.729,1.207c-1.086,0.229 -2.981,0.616 -3.415,0.797c-0.435,0.181 -0.954,0.893 -0.748,1.037c0.205,0.145 2.377,0.254 2.377,0.254c0,-0 -1.436,0.519 -2.076,0.833c-0.639,0.313 -1.641,0.253 -2.341,0.579c-0.7,0.326 -1.496,0.748 -2.365,1.303c-0.869,0.555 -1.412,0.893 -1.557,1.086c-0.145,0.194 -0.507,0.568 -0.954,0.773c-0.446,0.205 -2.317,0.519 -3.186,0.639c-0.868,0.121 -2.401,0.64 -3.572,0.483Zm-4.858,-3.179c0.111,0.173 -0.306,0.331 -0.468,0.561c-0.161,0.23 -0.119,1.08 -0.314,1.072c-0.196,-0.009 -0.613,-0.842 -0.477,-1.097c0.136,-0.256 0.987,-0.962 1.259,-0.536Zm-0.247,1.548c-0.059,-0.238 -0.093,-0.357 0.145,-0.638c0.238,-0.281 0.357,-0.502 0.698,-0.562c0.34,-0.059 1.182,-0.161 1.403,-0.187c0.221,-0.025 0.502,0.094 0.502,0.094c-0,-0 -0.893,0.587 -1.055,0.68c-0.161,0.094 -0.74,0.341 -0.893,0.409c-0.153,0.068 -0.221,0.195 -0.8,0.204Zm20.963,-0.445c-0.039,0.237 -0.338,0.495 -0.833,0.302c-0.495,-0.193 -1.098,-0.374 -0.82,-0.784c0.277,-0.411 0.905,-1.147 1.556,-1.34c0.652,-0.193 2.861,-0.277 3.005,0.133c0.145,0.41 0.109,0.808 -0.434,0.977c-0.543,0.169 -1.822,0.037 -2.184,0.133c-0.362,0.097 -0.266,0.435 -0.29,0.579Zm3.433,-3.887c-0.181,-0.096 -0.075,-0.192 0.267,-0.374c0.342,-0.181 1.345,-0.533 1.954,-0.672c0.608,-0.139 1.462,-0.438 1.825,-0.555c0.363,-0.118 1.025,-0.203 1.505,0.096c0.481,0.299 1.303,0.811 1.409,0.833c0.107,0.021 -1.355,0.395 -1.633,0.405c-0.277,0.011 -2.263,-0.096 -2.669,-0.085c-0.405,0.01 -1.345,-0.022 -1.697,0.053c-0.352,0.075 -0.961,0.299 -0.961,0.299Zm21.465,-8.124c0.288,0.107 0.629,0.282 0.629,0.282c-0,-0 -0.143,0.285 -0.276,0.447c-0.133,0.162 -0.4,0.2 -0.438,0.562c-0.038,0.361 -0.095,0.485 -0.095,0.875c0,0.39 0.086,0.866 -0.019,1.104c-0.104,0.237 -0.171,0.304 -0.371,0.523c-0.2,0.219 -0.418,0.533 -0.418,0.533c-0,-0 0.076,-0.448 0.123,-0.733c0.048,-0.285 0.171,-1.066 0.019,-1.237c-0.152,-0.171 -0.247,-0.247 -0.847,-0.295c-0.599,-0.047 -0.57,-0.085 -1.484,-0.057c-0.913,0.029 -1.665,-0.066 -2.198,0.057c-0.533,0.124 -1.075,0.314 -1.589,0.457c-0.513,0.143 -0.485,0.295 -1.046,0.19c-0.562,-0.104 -1.113,-0.399 -1.789,-0.533c-0.676,-0.133 -0.97,-0.237 -1.218,-0.323c-0.247,-0.086 -0.923,-0.219 -1.17,-0.219c-0.248,0 -0.638,0.181 -1.066,0.19c-0.428,0.01 -2.075,-0.418 -2.226,-0.552c-0,0 1.636,0.143 2.045,0.134c0.41,-0.01 2.389,0.161 3.121,0.133c0.733,-0.029 4.653,0.105 5.281,0.105c0.628,-0 2.036,0.133 2.255,0.133c0.194,-0 0.298,0.045 0.451,-0.15c0.045,0.006 0.086,0.008 0.121,0.007c0.256,-0.009 0.723,-0.257 0.951,-0.342c0.228,-0.086 0.609,-0.115 0.438,-0.381c-0.058,-0.09 -0.118,-0.161 -0.175,-0.223l0,-0c-0.101,-0.177 -0.12,-0.281 -0.13,-0.424c-0.009,-0.143 0.114,-0.257 0.486,-0.238c0.197,0.01 0.445,-0.007 0.635,-0.025Zm-29.535,3.515c0.054,-0.179 0.045,-0.25 0.536,-0.59c0.491,-0.339 1.107,-0.732 1.767,-0.964c0.661,-0.232 0.259,-0.401 1.125,-0.392c0.866,0.009 1.616,-0 1.857,-0.072c0.241,-0.071 0.741,-0.009 0.821,0.107c0.08,0.116 0.062,0.34 -0.312,0.518c-0.375,0.179 -0.697,0.366 -0.84,0.42c-0.142,0.053 -0.999,-0.215 -1.196,-0.259c-0.196,-0.045 -1.071,0.276 -1.464,0.482c-0.392,0.205 -1.642,0.75 -2.294,0.75Zm11.687,-2.396c-0,0 0.732,-0.38 0.923,-0.418c0.19,-0.038 0.618,0.266 0.618,0.266c0,0 -0.523,0.219 -0.809,0.2c-0.285,-0.019 -0.732,-0.048 -0.732,-0.048Zm-7.429,-0.229c-0.143,0.027 -0.428,0.063 -0.419,-0.027c0.009,-0.089 0.178,-0.383 0.437,-0.419c0.259,-0.036 0.661,-0.116 0.661,-0.116c-0,-0 0.258,0.232 0.142,0.286c-0.116,0.053 -0.678,0.249 -0.821,0.276Zm14.981,-4.828c-0,-0 0.251,0.673 0.29,0.831c0.04,0.158 0.106,0.449 0.238,0.475c0.132,0.026 1.794,-0.686 2.282,-0.739c0.488,-0.053 0.95,-0.105 1.174,0.422c0.224,0.528 0.422,0.937 0.633,0.99c0.211,0.052 1.887,-1.214 1.926,-1.385c0.04,-0.172 -0.171,-0.99 -0.356,-1.175c-0.185,-0.184 -0.699,-0.461 -1.148,-0.343c-0.448,0.119 -1.002,0.581 -1.306,0.66c-0.303,0.079 -0.725,0.106 -0.725,0.106c-0,-0 0.316,-0.594 0.606,-0.766c0.291,-0.171 1.241,-0.712 1.412,-0.883c0.172,-0.172 0.317,-0.7 0.488,-0.858c0.172,-0.158 0.897,-0.607 1.557,-0.752c0.659,-0.145 1.213,-0.33 1.213,-0.33c0,0 -1.662,0.211 -2.071,0.277c-0.409,0.066 -1.451,0.198 -1.873,0.449c-0.422,0.251 -0.29,0.488 -0.91,0.805c-0.62,0.316 -1.992,1.095 -2.256,1.24c-0.264,0.145 -0.871,0.58 -1.174,0.976Zm-6.055,0.659c-0,0 0.857,-0.949 1.253,-1.081c0.396,-0.132 1.478,-0.356 2.032,-0.607c0.554,-0.251 2.612,-1.504 2.862,-1.372c0.251,0.132 -0.013,0.739 -0.237,0.923c-0.224,0.185 -1.53,1.24 -2.019,1.412c-0.488,0.171 -2.15,0.567 -2.44,0.58c-0.29,0.014 -0.924,0.053 -1.451,0.145Zm15.817,-3.126c-0,0 -0.739,0.778 -1.187,0.963c-0.449,0.185 -1.385,0.251 -1.531,-0.106c-0.145,-0.356 0.488,-0.369 0.488,-0.369c0,0 0.594,0.132 0.977,-0.053c0.382,-0.184 1.002,-0.422 1.253,-0.435Zm-4.987,-2.19c0,0 0.198,-0.171 0.818,-0.422c0.62,-0.251 0.66,-0.33 1.122,-0.633c0.461,-0.304 0.382,-0.304 0.62,0.013c0.237,0.317 0.263,0.29 -0.264,0.66c-0.528,0.369 -0.647,0.448 -1.108,0.461c-0.462,0.013 -0.739,0.145 -1.188,-0.079Zm-4.042,-0.66c0.575,-0.308 1.545,-0.825 1.798,-0.942c0.365,-0.17 1.723,-0.666 2.428,-0.927c0.705,-0.261 1.371,-0.548 2.05,-0.822c0.679,-0.274 1.214,-0.536 1.566,-0.627c0.353,-0.091 1.123,-0.483 1.606,-0.613c0.483,-0.131 1.266,-0.183 1.266,-0.183c0,-0 -0.914,0.522 -1.357,0.692c-0.444,0.169 -1.397,0.626 -1.619,0.809c-0.222,0.183 -0.405,0.522 -0.405,0.522c0,0 -0.587,-0.013 -0.953,0.039c-0.365,0.053 -1.71,0.457 -2.128,0.653c-0.418,0.196 -0.914,0.509 -1.371,0.575c-0.39,0.055 -1.922,0.387 -2.881,0.824c-0.257,0.137 -0.434,0.233 -0.434,0.233c0.122,-0.08 0.269,-0.158 0.434,-0.233Zm8.234,-6.973c-0,-0 1.58,-0.379 2.089,-0.366c0.509,0.013 2.872,-0.065 3.329,-0.091c0.457,-0.026 0.94,0.183 1.605,-0.065c0.666,-0.248 1.293,-0.601 1.293,-0.601c-0,0 -1.11,-0.418 -1.436,-0.6c-0.327,-0.183 -0.731,-0.066 -1.188,-0.079c-0.457,-0.013 -0.927,0.052 -1.593,0.183c-0.666,0.131 -1.684,0.352 -2.298,0.653c-0.613,0.3 -1.801,0.966 -1.801,0.966Zm10.339,-2.024c0,0 0.536,0.274 0.666,0.392c0.131,0.117 0.313,0.261 0.313,0.261c0,-0 0.666,-0.157 1.084,-0.313c0.418,-0.157 0.457,-0.17 0.457,-0.17c-0,-0 0.757,-0.574 1.123,-0.822c0.365,-0.249 0.652,-0.653 0.652,-0.653c0,-0 -0.718,0.156 -1.397,0.222c-0.678,0.065 -1.436,0.235 -1.762,0.404c-0.326,0.17 -0.065,0.523 -1.136,0.679Zm-6.397,-0.887c0,-0 0.288,-0.653 0.549,-0.836c0.261,-0.183 1.083,-0.326 1.501,-0.3c0.418,0.026 0.705,0.326 0.705,0.326l0.131,0.235c-0,0 1.605,0.209 1.853,0.274c0.248,0.066 1.267,0.314 1.267,0.314c-0,-0 -2.402,0.156 -3.577,0.13c-1.175,-0.026 -2.429,-0.143 -2.429,-0.143Zm6.058,-1.149c-0,-0 0.457,0.274 0.705,0.326c0.248,0.052 1.775,-0.522 1.775,-0.522c0,-0 -1.135,-0.222 -1.449,-0.222c-0.313,-0 -1.031,0.418 -1.031,0.418Z" style="fill:#54f0b2;"/><path d="M66.657,75.911c-0,0 -0.527,-0.105 -1.129,-0.436c-0.602,-0.331 -0.828,-0.587 -0.828,-0.587c0,-0 -0.662,0.15 -1.595,0.301c-0.933,0.15 -3.206,0.301 -3.613,0.241c-0.406,-0.061 -1.068,-0.317 -0.978,-0.633c0.09,-0.316 0.828,-0.301 1.52,-0.466c0.693,-0.166 2.574,-0.708 3.086,-0.933c0.511,-0.226 1.46,-0.542 1.46,-0.542c-0,-0 -0.482,-0.617 -0.918,-0.708c-0.437,-0.09 -0.527,-0.06 -0.753,-0.165c-0.226,-0.105 -0.527,-0.196 -0.813,-0.196c-0.286,0 -1.565,0.151 -2.212,0.181c-0.647,0.03 -1.897,-0.301 -2.107,-0.482c-0.211,-0.18 -0.407,-0.797 0.301,-0.843c0.707,-0.045 2.242,0.046 2.709,-0.075c0.466,-0.12 1.625,-0.572 2.062,-0.466c0.436,0.105 1.52,0.571 2.197,0.571c0,0 -0.12,-0.722 -0.391,-1.113c-0.271,-0.392 -1.009,-1.009 -1.129,-1.114c-0.12,-0.105 -1.52,-0.075 -1.941,-0.075c-0.422,-0 -1.671,-0.226 -1.867,-0.392c-0.195,-0.165 -0.301,-0.767 0.346,-0.978c0.648,-0.211 1.897,-0.226 2.288,-0.256c0.391,-0.03 2.017,-0.135 2.273,0.06c0.256,0.196 1.55,1.641 1.55,1.641c0,-0 -0.135,-1.189 -0.181,-1.294c-0.045,-0.106 -1.143,-0.557 -1.309,-0.663c-0.166,-0.105 -1.731,-0.09 -1.942,-0.195c-0.21,-0.106 -0.406,-0.407 -0.24,-0.663c0.165,-0.255 0.873,-0.24 1.143,-0.331c0.271,-0.09 0.873,-0.331 1.174,-0.316c0.301,0.015 1.144,0.301 1.37,0.407c0.226,0.105 0.963,0.15 1.129,0.436c0.165,0.286 0.436,2.198 0.527,2.544c0.09,0.346 0.192,1.266 1.64,2.513c1.569,1.351 -2.179,5.723 -2.829,5.027Z" style="fill:#927049;"/><path d="M112.356,28.752c0,-0 1.337,-2.674 2.093,-3.571c0.757,-0.897 1.777,-1.97 2.516,-2.375c0.738,-0.404 6.983,5.313 5.998,6.051c-0.985,0.739 -1.425,0.968 -2.023,1.724c-0.598,0.756 -2.48,3.166 -2.48,3.166c-0,0 -5.946,-4.204 -6.104,-4.995Z" style="fill:#302a18;"/><path d="M92.44,65.777l-1.241,-0.807c-0,0 -0.087,-1.452 0.037,-1.75c0.124,-0.297 1.365,-1.948 1.625,-2.37c0.261,-0.422 0.522,-0.682 0.869,-0.695c0.347,-0.012 0.422,0.038 0.422,0.038l0.26,-3.748l3.152,3.437c0,0 2.668,-1.327 3.189,-1.675c0.521,-0.347 2.618,-1.451 2.631,-1.712c0.012,-0.261 0.099,-0.943 0.509,-1.489c0.409,-0.546 1.997,-1.886 2.308,-2.072c0.31,-0.186 1.625,-1.03 2.022,-0.993l0.124,-2.444c0,-0 1.787,-0.832 2.445,-0.857c0.657,-0.024 2.457,0.447 2.928,0.683c0.472,0.236 1.626,1.03 1.626,1.03c-0,-0 -0.062,0.124 -0.075,0.36c-0.012,0.235 0.124,3.102 0.124,3.102c0,-0 0.745,0.248 0.931,0.484c0.186,0.235 0.422,0.558 0.422,0.558c-0,0 0.819,-0.223 1.204,-0.347c0.384,-0.125 1.079,-0.397 1.501,-0.311c0.422,0.087 1.489,0.943 1.787,1.551c0.298,0.608 1.278,2.321 1.526,3.09c0.248,0.77 0.67,2.631 0.67,2.631c0,-0 -0.893,0.037 -1.104,0.074c-0.211,0.037 -0.708,0.397 -1.043,0.447l0.019,2.569c0,0 2.325,1.233 2.44,1.601c0.114,0.368 -0.234,2.091 -0.49,3.336c-0.257,1.245 -0.861,2.654 -0.861,2.654l-1.446,0.696c0,-0 -0.585,-0.531 -0.75,-0.732c-0.165,-0.202 -0.586,-0.421 -0.586,-0.421c-0,-0 -0.549,0.439 -1.3,0.695c-0.75,0.257 -1.574,0.513 -2.288,0.842c-0.714,0.33 -2.013,1.172 -2.746,0.769c-0.732,-0.403 -1.263,-0.86 -1.263,-0.86c0,-0 -3.112,1.245 -3.679,1.501c-0.568,0.256 -1.483,0.567 -1.776,0.824c-0.293,0.256 -0.238,-0.037 -0.293,0.366c-0.054,0.402 0.806,2.654 0.806,2.654l-1.812,-0.879c-0,0 -0.678,0.806 -0.989,1.062c-0.311,0.256 -0.604,0.604 -1.007,0.641c-0.402,0.036 -2.654,0.256 -3.221,-0.128c-0.568,-0.385 -1.099,-1.648 -0.861,-1.886c0.238,-0.238 0.476,-0.018 0.659,-0.439c0.183,-0.421 0.33,-2.691 -0.018,-3.625c-0.348,-0.933 -1.263,-3.057 -2.471,-4.905c-1.208,-1.849 -2.618,-3.186 -2.911,-3.259c-0.293,-0.073 -1.156,0.465 -2.005,0.709Z" style="fill:#363a2d;"/><path d="M107.828,42.763c-0.222,0.126 -0.452,0.247 -0.68,0.352c-1.175,0.541 -3.825,2.034 -4.627,2.482c-0.802,0.447 -0.839,0.671 -1.026,1.026c-0.186,0.354 -0.765,0.839 -0.765,0.839c0.094,-0.261 -0.112,-0.373 -0.112,-0.373c-0.149,0.41 -1.082,1.735 -0.765,1.082c0.318,-0.653 0.243,-1.791 0.243,-1.791c-0.709,0.914 -1.138,3.029 -1.138,3.029c-1.903,-1.841 -1.045,-4.72 -1.045,-4.72c-0.895,0.28 -1.94,0.149 -1.94,0.149c-0,-0 1.66,-2.164 2.929,-3.414c1.269,-1.25 1.586,-2.183 1.828,-2.724c0.243,-0.541 1.157,-2.463 1.922,-3.507c0.765,-1.045 3.731,-2.519 3.731,-2.519c0,0 -0.746,-0.858 -0.97,-1.418c-0.224,-0.56 -0.131,-2.108 -0.112,-2.798c0.019,-0.691 0.485,-2.575 0.485,-2.575c0,0 0.093,0.69 0.317,1.157c0.224,0.466 0.187,0.448 1.269,1.492c1.082,1.045 2.537,1.344 2.537,1.344c-1.306,-1.269 -1.268,-4.161 -1.082,-4.944c0.187,-0.784 1.157,-2.276 1.381,-2.668c0.224,-0.392 1.455,-1.698 1.455,-1.698c-0.802,1.574 -0.616,2.643 -0.317,4.359c0.298,1.717 1.623,2.668 2.313,3.414c0.69,0.747 2.034,1.866 2.537,2.351c0.504,0.485 1.418,1.623 1.418,1.623c0.205,-0.336 1.567,-2.798 1.773,-3.078c0.205,-0.28 0.261,-0.952 0.261,-0.952c0.205,0.504 0.503,2.221 0.671,4.068c0.168,1.846 -0.559,4.029 -0.559,4.029c2.257,0.038 3.265,-1.38 3.563,-2.462c0.299,-1.082 -0.131,-2.65 -0.131,-2.65c0,0 0.952,1.53 1.325,2.612c0.373,1.082 0.168,3.265 -0.224,4.627c-0.392,1.362 -1.865,1.922 -2.537,2.071c-0.672,0.149 -1.549,-0.149 -1.549,-0.149c0,-0 0.038,1.119 -0.056,1.884c-0.093,0.765 -0.261,1.082 -0.41,1.548c-0.149,0.467 -0.709,1.53 -1.007,2.109c-0.299,0.578 -0.616,0.746 -0.84,1.026c-0.224,0.28 -0.839,2.332 -1.101,2.873c-0.261,0.541 -0.839,1.063 -1.175,1.492c-0.336,0.429 -0.951,1.456 -0.951,1.456l-2.855,-3.881c0,0 -0.019,-0.373 0.149,-0.858c0.168,-0.485 0.597,-1.511 0.616,-2.108c0.019,-0.597 -0.261,-1.81 -0.261,-2.202c-0,-0.392 0.242,-1.474 0.149,-1.809c-0.093,-0.336 -0.951,-0.056 -1.306,0.167c-0.354,0.224 -1.996,1.68 -2.724,2.146c-0.727,0.466 -2.089,1.157 -3.041,1.474c-0.951,0.317 -2.369,0.783 -2.966,1.045c-0.597,0.261 -1.157,0.802 -1.157,0.802c0.299,-0.728 0.989,-1.008 1.362,-1.213c0.373,-0.205 2.183,-0.914 2.911,-1.213c0.727,-0.298 2.276,-1.231 2.91,-1.623c0.634,-0.391 2.127,-1.53 2.463,-1.735c0.335,-0.205 0.541,-0.354 0.13,-0.354c-0.41,-0 -2.332,0.989 -3.358,1.716c-0.932,0.661 -2.45,1.261 -2.719,1.365c-0.016,0.006 -0.03,0.012 -0.042,0.016l0.042,-0.016c0.381,-0.16 1.726,-1.026 2.858,-1.773Z" style="fill:#a6af9a;"/><path d="M90.815,76.902c-0,0 -2.299,0.693 -3.822,0.914c-1.522,0.22 -5.89,0.808 -6.972,0.829c-1.081,0.021 -5.995,0.557 -6.888,0.504c-0.892,-0.052 -2.11,-0.147 -2.971,-0.483c-0.861,-0.336 -3.79,-2.478 -3.79,-2.478c-0,0 0.882,-1.039 1.239,-1.575c0.357,-0.535 1.081,-2.142 1.291,-2.719c0.21,-0.577 0.315,-1.354 0.315,-1.354c0,-0 1.869,1.448 2.299,1.826c0.431,0.378 1.439,1.334 1.995,1.334c0.557,-0 3.171,-0.756 3.843,-1.008c0.672,-0.252 5.387,-2.163 5.807,-2.373c0.42,-0.21 3.748,-1.795 4.284,-1.89c0.535,-0.094 1.89,-0.073 2.215,0.158c0.325,0.231 0.861,1.722 1.071,2.866c0.21,1.144 0.378,3.656 0.084,5.449Z" style="fill:#89947c;"/></g></g></svg>