<?xml version="1.0" encoding="UTF-8" standalone="no"?><!DOCTYPE svg PUBLIC "-//W3C//DTD SVG 1.1//EN" "http://www.w3.org/Graphics/SVG/1.1/DTD/svg11.dtd"><svg width="100%" height="100%" viewBox="0 0 150 150" version="1.1" xmlns="http://www.w3.org/2000/svg" xmlns:xlink="http://www.w3.org/1999/xlink" xml:space="preserve" xmlns:serif="http://www.serif.com/" style="fill-rule:evenodd;clip-rule:evenodd;stroke-linejoin:round;stroke-miterlimit:2;"><path id="base" d="M150,75c0,-41.394 -33.606,-75 -75,-75c-41.394,0 -75,33.606 -75,75c0,41.394 33.606,75 75,75c41.394,0 75,-33.606 75,-75Z" style="fill:#daaf57;"/><path id="outline" d="M144,75c0,-38.082 -30.918,-69 -69,-69c-38.082,0 -69,30.918 -69,69c0,38.082 30.918,69 69,69c38.082,0 69,-30.918 69,-69Z" style="fill:#0b1324;"/><path id="core" d="M141,75c0,-36.426 -29.574,-66 -66,-66c-36.426,0 -66,29.574 -66,66c0,36.426 29.574,66 66,66c36.426,0 66,-29.574 66,-66Z" style="fill:#97c6ce;"/><clipPath id="_clip1"><path d="M141,75c0,-36.426 -29.574,-66 -66,-66c-36.426,0 -66,29.574 -66,66c0,36.426 29.574,66 66,66c36.426,0 66,-29.574 66,-66Z"/></clipPath><g clip-path="url(#_clip1)"><g id="singed"><path d="M57.455,19.619c0,-0 -4.022,-1.855 -4.832,-2.116c-0.809,-0.261 -3.029,-0.862 -3.395,-0.992c-0.366,-0.131 -2.664,-2.455 -2.664,-2.455c7.306,-5.005 9.331,-0.154 10.891,5.563Z" style="fill:#1a5634;"/><g id="left-leg" serif:id="left leg"><path d="M8.704,79.707c-0,0 1.515,-2.537 2.234,-2.878c0.72,-0.341 3.56,-0.947 4.356,-0.947c0.795,0 3.597,4.28 4.014,5.037c0.417,0.758 1.136,3.22 1.174,3.788c0.038,0.568 -0.076,0.757 0.265,0.984c0.341,0.228 1.932,1.25 1.932,1.25c-0,0 -2.765,0.568 -3.219,0.758c-0.455,0.189 -1.099,1.136 -1.629,1.514c-0.53,0.379 -1.023,0.531 -1.288,1.212c-0.265,0.682 -0.681,1.212 -0.909,1.97c-0.227,0.757 -0.757,1.212 -0.833,1.704c-0.076,0.492 -0.038,1.136 -0.189,1.515c-0.152,0.379 -0.076,0.833 -0.871,1.401c-0.796,0.568 -0.684,0.94 -1.212,1.174c-1.816,0.805 -5.431,-17.873 -3.825,-18.482Z" style="fill:#0e2924;"/><path d="M13.135,86.676c-0.737,-0.624 -1.78,-1.174 -2.197,-2.045c-0.416,-0.871 -1.022,-3.295 -0.947,-3.977c0.076,-0.681 0.909,-2.499 1.932,-2.992c1.022,-0.492 1.742,-0.909 2.386,-1.174c0.644,-0.265 0.795,0 1.477,-0.833c0.682,-0.833 1.25,-2.348 1.174,-3.257c-0.076,-0.909 0.114,-1.515 0.303,-2.727c0.189,-1.212 1.363,-7.271 1.591,-8.559c0.227,-1.288 0.53,-2.424 1.439,-3.863c0.909,-1.439 2.689,-4.469 3.105,-4.999c0.417,-0.53 1.099,-1.667 1.099,-1.667l8.975,15.263c0,0 -6.097,7.461 -6.4,7.84c-0.303,0.378 -1.553,2.689 -1.553,2.689c0,-0 0.038,0.795 -0.151,1.249c-0.19,0.455 -1.212,1.591 -1.477,2.008c-0.266,0.416 -0.493,1.098 -1.023,1.666c-0.53,0.568 -0.341,0.379 -0.871,0.871c-0.53,0.492 -1.818,1.439 -2.007,1.742c-0.19,0.303 -0.72,1.364 -1.212,2.008c-0.493,0.643 -0.909,1.211 -1.326,1.401c-0.416,0.189 -2.84,0.606 -4.317,-0.644Z" style="fill:#0a1519;"/></g><g id="sheild"><path d="M65.441,85.123c20.708,-16.991 41.768,-33.488 65.81,-45.81c11.096,15.811 9.423,35.242 5.644,55.271c-21.596,7.847 -44.325,13.427 -67.47,18.174c-0.327,-9.462 -1.886,-18.616 -3.984,-27.635Z" style="fill:#332d21;"/><path d="M139.263,82.39l-2.737,-0.48c0.23,-0.858 0.389,-1.645 0.418,-2.141c0.086,-1.49 0.401,-7.765 0.386,-8.352c-0.014,-0.588 -0.086,-7.45 -0.086,-7.98c0,-0.53 -1.318,-6.247 -1.418,-6.634c-0.1,-0.387 -1.433,-5.243 -1.519,-5.458c-0.085,-0.215 -4.079,-5.457 -4.692,-5.431c-0.613,0.027 -3.546,0.014 -4.042,0.235c-0.495,0.222 -0.586,-0.482 -0.847,-0.769c-0.261,-0.287 -1.147,-0.535 -1.877,-0.156c-0.73,0.378 -0.47,1.421 -0.444,1.603c0.026,0.183 -2.241,3.645 -2.578,3.949c-0.191,0.172 -9.968,6.474 -18.527,11.977l-2.588,-6.061c5.791,-4.402 11.658,-8.815 12.01,-8.89c0.705,-0.152 4.078,-2.87 4.531,-3.172c0.454,-0.302 0.806,-0.554 1.662,-0.504c0.856,0.051 2.114,-0.201 2.568,-0.352c0.453,-0.151 2.769,-2.266 3.474,-2.618c0.704,-0.353 2.013,-1.309 2.013,-1.309l5.589,-1.058c16.236,14.193 19.988,26.394 15.19,44.737c-1.485,5.681 -3.789,11.946 -6.794,19.04c-22.676,2.396 -39.774,9.349 -66.647,11.593l0.1,2.467c0,-0 -0.554,0.05 -1.107,0.151c-0.554,0.1 -0.302,0.403 -1.108,0.453c-0.806,0.05 -3.021,-0.554 -3.424,-0.755c-0.402,-0.202 -0.503,-0.202 -0.503,-0.202l-1.229,-0.737c-0,0 0.393,-2.025 0.45,-2.559c0.056,-0.535 -1.069,-5.119 -0.844,-5.344c0.225,-0.225 1.828,-0.506 1.828,-0.506c-0,-0 0.534,-1.772 0.394,-2.616c-0.141,-0.844 -0.085,-5.597 -0.113,-6.75c-0.028,-1.153 -2.7,-5.85 -2.7,-5.85l-3.022,-9.521c-0,-0 18.88,-11.177 21.297,-13.241c2.416,-2.065 4.833,-3.625 4.833,-3.625c-0,-0 5.737,-4.411 11.552,-8.832l2.588,6.061c-6.575,4.228 -12.431,7.984 -12.667,8.126c-0.541,0.325 -2.774,2.102 -3.207,2.427c-0.433,0.325 -15.288,16.075 -15.311,16.513c-0.023,0.439 -0.224,2.415 -0.245,2.72c-0.021,0.306 -1.495,1.516 -1.59,1.874c-0.095,0.358 1.232,2.159 1.348,2.506c0.115,0.347 -0.19,4.974 0.01,5.117c0.794,0.568 3.539,2.961 3.84,3.279c0.301,0.318 -0.318,4.684 0.184,4.818c0.502,0.134 4.049,0.168 5.237,0.034c1.187,-0.134 35.649,-13.564 38.325,-13.578c2.676,-0.014 7.846,-0.645 8.393,-0.911c0.546,-0.266 1.989,-1.947 2.76,-2.718c0.771,-0.771 5.618,-6.067 6.417,-6.823c0.533,-0.505 1.273,-2.508 1.732,-4.227l2.737,0.48Z" style="fill:#5d6627;"/><path d="M64.737,107.347c-0.193,0.214 0.84,4.16 0.821,4.784c-0.02,0.625 -0.703,3.164 -0.645,3.281c0.059,0.117 4.16,1.738 4.609,1.777c0.449,0.039 2.48,-0.429 2.636,-0.586c0.156,-0.156 0.02,-2.421 0.02,-2.421c-0,-0 -1.465,0.137 -1.582,-0c-0.117,-0.137 1.015,-2.226 0.976,-2.422c-0.039,-0.195 0.039,-4.335 -0.176,-4.491c-0.214,-0.156 -1.796,-0.02 -2.011,-0c-0.215,0.019 -4.472,-0.117 -4.648,0.078Zm77.194,-29.085c0,-0 -4.091,1.483 -4.592,1.59c-0.5,0.107 -1.411,-0 -1.572,0.25c-0.161,0.25 -0.393,5.038 -0.518,5.485c-0.125,0.447 -1.036,1.626 -1.197,2.001c-0.161,0.375 -0.733,2.001 -0.822,2.269c-0.089,0.268 -0.322,1.43 -0.375,1.644c-0.054,0.214 -2.359,4.628 -2.502,5.092c-0.143,0.465 -2.157,3.858 -2.542,4.394c-0.385,0.537 -2.882,3.586 -3.033,3.921c-0.151,0.335 -0.352,1.642 0.117,1.726c0.47,0.084 3.318,0.704 3.653,0.486c0.335,-0.218 1.676,-1.123 2.732,-1.407c1.055,-0.285 2.837,-0.444 3.653,-0.319c1.533,0.236 9.215,-26.66 6.998,-27.132Zm-78.051,13.11c0.102,0.119 0.356,0.983 0.627,1.085c0.272,0.102 0.797,0.136 1.034,-0.051c0.238,-0.186 0.085,-0.864 0.289,-1.068c0.203,-0.203 3.729,-3.17 3.729,-3.17l-3.068,-4.576l-5.001,0.779c0,0 2.288,6.882 2.39,7.001Zm44.354,-33.872c-0,0 0.661,1.108 0.822,1.269c0.161,0.16 1.536,1.876 2.072,1.894c0.536,0.017 8.255,-5.378 8.398,-5.968c0.143,-0.59 -0.357,-10.291 -0.554,-10.524c-0.197,-0.232 -3.27,-0.482 -3.591,-0.321c-0.322,0.161 -7.969,6.092 -8.416,6.36c-0.446,0.268 1.269,7.29 1.269,7.29Zm9.934,-23.781c0,0 3.859,-3.77 6.325,-4.091c2.466,-0.322 12.793,18.224 12.793,18.224c-0,-0 -2.345,2.937 -3.163,3.681c-0.196,0.178 -1.518,-1.055 -1.518,-1.055c-0,0 -3.627,-3.859 -4.163,-4.627c-0.536,-0.768 -3.038,-5.878 -3.359,-6.146c-0.322,-0.268 -2.002,-1.644 -2.341,-1.93c-0.34,-0.286 -1.358,-1.483 -1.608,-1.68c-0.25,-0.196 -2.073,-1.786 -2.966,-2.376Z" style="fill:#242827;"/><path d="M129.249,94.531l0.313,-10.361c0,0 1.096,-0.501 1.534,-0.72c0.438,-0.219 0.783,-0.156 0.908,-0.501c0.125,-0.344 0.25,-2.441 -0.125,-2.566c-0.376,-0.126 -1.816,0.469 -1.816,0.469c0,0 -0.407,-0.188 -0.532,-1.064c-0.125,-0.877 0.031,-1.659 -0.689,-2.035c-0.72,-0.375 -1.94,-2.316 -2.441,-3.13c-0.501,-0.814 -0.407,-2.128 -0.407,-2.128c-0,-0 0.282,-12.083 0.689,-12.74c0.406,-0.658 1.095,-1.847 1.095,-2.818c0,-0.97 -0.156,-2.159 -0.156,-2.159l2.285,-1.44l-0.376,-2.505l-2.316,1.065l-0.752,-0.219c0,-0 0.032,-1.284 -0.093,-2.035c-0.126,-0.751 -0.376,-2.379 -0.72,-3.005c-0.345,-0.626 -0.47,-1.346 -1.096,-1.502c-0.626,-0.157 -1.628,-0 -1.847,0.406c-0.219,0.407 -0.344,0.501 -0.219,1.096c0.125,0.595 0.783,2.285 0.845,3.255c0.063,0.971 0.282,1.659 0.345,2.16c0.062,0.501 0.031,0.532 -0.22,1.158c-0.25,0.626 -0.313,1.691 -0.25,2.066c0.063,0.376 0.876,0.877 0.876,0.877c0,-0 -0.031,0.97 0,1.753c0.032,0.782 -2.879,14.868 -2.629,16.183c0.251,1.315 0.657,2.003 1.158,2.598c0.501,0.595 2.254,1.534 2.598,2.003c0.345,0.47 0.564,1.221 0.532,1.785c-0.031,0.563 -0.125,0.907 -0.25,1.596c-0.125,0.689 0.031,1.252 -0.438,1.722c-0.47,0.469 -1.357,0.628 -1.565,1.252c-0.219,0.657 -0.123,1.527 0.031,1.596c0.808,0.364 2.16,-0.469 2.16,-0.469c-0,-0 0.062,2.942 0.062,3.818c0,0.877 -0.125,3.913 -0.219,4.383c-0.094,0.469 -0.313,3.067 -0.313,3.067l4.038,-2.911Z" style="fill:#2d3832;"/></g><path d="M57.675,81.552c-0,0 -1.295,10.037 -1.157,10.754c0.139,0.717 0.208,2.312 2.082,2.451c1.873,0.139 2.335,-1.388 2.312,-2.012c0,0 1.282,0.225 1.642,0.139c0.971,-0.231 1.768,-0.75 1.758,-1.342c-0.025,-1.458 -0.694,-8.371 -0.694,-8.371l-5.943,-1.619Zm-15.217,-1.202c2.085,0.142 2.336,2.173 2.127,3.283c-0.208,1.111 -1.318,2.429 -2.936,2.082c-1.619,-0.347 -2.336,-1.503 -2.012,-3.168c0.323,-1.665 1.803,-2.267 2.821,-2.197Zm5.434,-8.187c0,0 -3.145,1.341 -2.705,5.273c0.439,3.931 3.191,6.128 5.434,6.174c2.243,0.047 4.995,-0.162 6.753,-3.607c1.758,-3.446 -9.482,-7.84 -9.482,-7.84Zm13.032,-19.763c-0,-0 0.393,1.42 0.917,1.813c0.525,0.393 2.534,1.988 4.741,2.316c2.206,0.327 7.035,-1.224 7.035,-1.224c-3.816,-2.351 -8.003,-3.466 -12.693,-2.905Zm45.505,-9.868c-0,-0 2.658,-0.409 5.776,-1.176c3.118,-0.767 7.922,-3.067 10.632,-4.856c2.709,-1.789 10.325,-9.303 10.325,-9.303c-16.872,-10.941 -35.702,-19.397 -58.706,-22.554c-0,-0 11.298,8.848 15.54,22.547c4.243,13.699 16.433,15.342 16.433,15.342Z" style="fill:#12a82a;"/><path d="M109.46,41.636c-0,0 0.352,-0.493 0.968,-0.704c0.616,-0.211 1.532,-0.44 1.99,-0.546c0.457,-0.106 0.862,-0.299 1.003,-0.792c0.141,-0.493 0.845,-2.676 0.916,-3.381c0.07,-0.704 0.669,-4.137 0.669,-4.965c-0,-0.827 0.352,-4.436 0.176,-5.105c-0.176,-0.669 -0.37,-0.81 -0.546,-0.881c-0.176,-0.07 -1.127,-0.528 -1.356,-0.722c-0.229,-0.193 -0.95,-0.334 -1.162,-0.14c-0.211,0.193 -1.267,0.563 -1.69,0.369c-0.422,-0.193 -1.408,-1.056 -1.285,-1.707c0.123,-0.652 0.651,-1.286 1.091,-1.55c0.441,-0.264 -0.264,-0.704 -0.422,-1.532c-0.159,-0.827 -0.159,-1.426 -0.159,-1.426l11.233,7.624c0,-0 -0.775,0.352 -1.514,0.352c-0.739,-0 -1.144,0.123 -1.303,0.81c-0.158,0.686 -0.105,4.032 -0.194,5.458c-0.088,1.426 -0.264,3.046 -0.545,4.613c-0.282,1.567 -1.039,3.292 -1.268,3.521c-0.229,0.229 -0.475,0.581 -1.056,0.616c-0.581,0.035 -1.567,0.141 -2.113,0.317c-0.546,0.176 -3.451,1.074 -3.451,1.074l0.018,-1.303Zm-19.284,-23.59c-0,-0 1.147,-0.913 1.618,-1.354c0.471,-0.441 1.854,-2.178 2.089,-2.516c0.236,-0.338 0.353,-0.618 0.942,-0.942c0.588,-0.323 0.986,-0.367 1.442,-0.411c0.456,-0.045 1.706,-0.265 1.706,-0.265l7.474,2.501c0,-0 -0.971,0.574 -1.971,0.412c-1.001,-0.162 -3.119,-0.339 -4.399,-0.383c-1.28,-0.044 -2.501,-0.014 -3.031,0.177c-0.53,0.191 -3.031,2.118 -3.516,2.516c-0.486,0.397 -1.31,1.118 -1.31,1.118l-1.044,-0.853Z" style="fill:#2e2d29;"/><path d="M56.39,24.827c0,0 -3.4,1.637 -4.176,2.372c-0.777,0.734 -3.4,3.253 -4.051,3.903c-0.65,0.651 -3.715,2.897 -4.155,3.316c-0.441,0.42 -0.546,0.315 -0.924,0.546c-0.377,0.231 -0.755,0.923 -1.427,1.343c-0.671,0.42 -1.343,0.819 -1.637,1.029c-0.294,0.209 -0.545,0.461 -0.986,0.629c-0.441,0.168 -1.154,0.168 -1.553,0.42c-0.399,0.252 -1.91,1.595 -2.078,1.679c-0.168,0.084 -2.246,1.91 -2.246,1.91c-8.529,13.9 -0.77,20.396 24.877,18.762c-0,0 1.551,-7.176 2.259,-7.387c0.708,-0.211 2.787,-0.467 3.36,-0.287c0.572,0.181 2.349,0.844 3.148,1.025c0.798,0.181 2.003,0.542 2.576,0.617c0.572,0.076 3.796,-0.934 3.796,-0.934c-0.805,-11.451 -6.01,-21.245 -16.783,-28.943Z" style="fill:#86989a;"/><path d="M56.311,18.591c0,0 1.621,1.769 -1.168,-0.095c-0,0 1.768,1.39 1.052,1.99c-0.715,0.6 -1.073,1.032 -1.389,0.968c-0.316,-0.063 -0.295,-0.063 -0.558,-0.147c-0.263,-0.084 -0.642,-0.168 -0.642,-0.168c-0,-0 0.41,0.442 0.442,0.716c0.031,0.273 0.368,0.536 -0.063,0.515c-0.432,-0.021 -0.621,-0.094 -0.863,-0.063c-0.243,0.032 -0.053,0.063 -0.6,0.021c-0.548,-0.042 -1.222,0.369 -1.79,0.474c-0.569,0.105 -1.337,0.474 -1.337,0.474c0,-0 1.642,0.115 2.116,0.189c0.474,0.074 1.242,0.169 1.747,0.411c0.506,0.242 2.106,1.158 2.401,1.347c0.294,0.19 0.905,0.621 1.157,1.053c0.253,0.431 0.653,1.252 0.348,1.579c-0.305,0.326 -1.263,0.779 -1.779,0.831c-0.516,0.053 -1.6,0.422 -1.6,0.422c-0,-0 0.21,0.052 0.389,0.21c0.179,0.158 0.8,0.792 0.611,1.032c-0.19,0.239 -0.579,0.523 -0.863,0.534c-0.285,0.01 -1.453,-0.516 -1.316,-0.779c0.137,-0.263 0.263,-0.884 1.031,-1.021c0,-0 -0.158,-0.042 -0.747,-0.284c-0.59,-0.242 -0.663,-0.253 -1.042,-0.611c-0.379,-0.358 -0.642,-0.642 -0.811,-0.684c-0.168,-0.042 -0.031,0.2 -0.326,0.337c-0.295,0.137 -0.716,0.105 -1.684,-0c-0.969,-0.106 -1.443,-0.158 -2.095,-0.295c-0.653,-0.137 -1.59,-0.2 -2.558,-1.663c-0,-0 0.505,1.484 1.6,2.547c1.095,1.063 1.316,0.916 1.579,1.074c0.263,0.158 1.2,1.284 1.21,1.516c0.011,0.231 0.916,0.663 0.958,0.937c0.042,0.273 0.285,0.631 0.453,0.652c0.168,0.021 1.032,0.032 1.726,0.169c0.695,0.137 1.906,0.926 1.516,1.705c-0.389,0.779 -0.494,0.863 -0.494,0.863c-0,0 0.884,0.274 1.115,0.474c0.232,0.2 0.779,0.684 0.779,0.684c0,0 0.285,-0.2 0.2,-0.421c-0.084,-0.221 -0.168,-0.379 -0.358,-0.495c-0.189,-0.115 -0.463,-1.042 -0.442,-1.284c0.021,-0.242 0.211,-0.61 0.558,-0.579c0.348,0.032 1.558,0.632 1.779,0.937c0.221,0.305 1.748,1.716 2.106,1.99c0.358,0.273 0.8,0.989 1.116,1.231c0.315,0.242 0.831,0.39 0.863,0.674c0.031,0.284 0.179,0.926 0.179,0.926c-0,0 0.179,1.295 -0.021,1.558c-0.2,0.264 -0.464,0.737 -0.8,0.822c-0.337,0.084 -0.874,0.189 -1.179,0.031c-0.306,-0.158 -0.979,-0.021 -1.074,-0.2c-0.095,-0.179 -0.316,-1.516 -0.316,-1.516c0,0 0.042,1.484 -0.053,1.653c-0.094,0.168 0,0.453 -0.526,0.442c-0.526,-0.01 -1.758,-0.358 -1.758,-0.358c0,0 0.105,0.569 0.579,0.726c0.474,0.158 0.99,0.169 1.695,0.495c0.705,0.327 1.242,0.558 1.432,0.706c0.189,0.147 1.073,0.779 1.421,0.989c0.347,0.211 0.347,0.358 1.073,0.779c0.727,0.421 0.822,0.453 1.211,0.842c0.39,0.39 0.326,0.453 0.505,0.632c0.179,0.179 0.495,0.547 0.864,0.726c0.368,0.179 0.463,0.042 0.526,0.242c0.063,0.2 0.24,1.378 0.224,1.8c-0.016,0.422 -0,1.655 -0.146,1.979c-0.146,0.325 -0.406,0.779 -0.568,1.087c-0.162,0.309 -0.276,0.633 -0.454,0.811c-0.179,0.179 -0.974,1.006 -0.974,1.006c0,0 0.746,-0.519 1.233,-0.697c0.487,-0.179 0.828,-0.438 0.941,-0.309c0.114,0.13 0.195,0.39 0.098,0.633c-0.098,0.244 0.746,-0.113 0.746,-0.113c-0,-0 0.324,-0.698 0.405,-1.428c0.082,-0.73 0.082,-0.925 0.082,-1.249c-0,-0.325 -0.098,-0.584 0.21,-0.584c0.309,-0 0.568,0.065 1.12,0.405c0.551,0.341 0.535,0.033 0.779,0.876c0.243,0.844 0.097,0.357 0.421,1.152c0.325,0.795 0.52,0.73 0.422,1.152c-0.097,0.422 -1.655,2.299 -1.573,3.05c-0,0 0.162,-0.206 0.356,-0.32c0.195,-0.113 0.26,-0.227 0.471,-0.194c0.211,0.032 0.519,0.162 0.73,0.162c0.211,-0 0.341,-0.033 0.503,-0.049c0.162,-0.016 0.178,-0.081 0.341,-0.081c0.162,-0 0.162,-0.065 0.324,-0.016c0.162,0.048 0.357,0.422 0.357,0.422c0,-0 -0.47,2.53 -0.535,3.131c-0.065,0.6 0.048,1.411 0.048,1.411c0,0 0.374,-0.746 0.925,-1.314c0.552,-0.568 2.061,-1.379 2.304,-1.606c0.243,-0.227 0.438,-0.471 0.633,-0.389c0.194,0.081 0.292,1.622 0.486,1.784c0.195,0.162 0.487,0.227 0.698,0.519c0.211,0.292 1.527,2.288 2.223,2.548c0.696,0.259 0.501,-0.033 0.501,-0.033c-0,0 -0.552,-0.211 -0.827,-0.649c-0.276,-0.438 -0.293,-0.827 -0.033,-1.428c0.26,-0.6 1.022,-2.255 1.055,-2.466c0.032,-0.211 0.113,-0.405 0.632,-0.275c0.52,0.129 1.785,0.405 2.564,0.519c0.778,0.113 4.11,-0.474 4.11,-0.474l2.335,10.255c5.971,4.065 12.114,4.175 18.429,0.33c1.494,-4.349 1.892,-8.561 0.634,-12.565l-18.463,-39.107c0,-0 -1.629,-2.144 -1.59,-2.728c0.039,-0.584 -0.039,-1.382 -0.409,-1.46c-0.37,-0.078 -1.226,-0.662 -1.654,-1.148c-0.429,-0.487 -1.616,-1.48 -2.317,-1.791c-0.7,-0.312 -2.218,-1.265 -2.218,-1.265c-19.404,-8.53 -29.279,-7.452 -23.664,9.244Z" style="fill:#7e204c;"/><path d="M86.762,58.678c0,-0 -0.891,0.254 -1.358,0.311c-0.467,0.056 -1.556,0.127 -1.556,0.127c0,0 0.764,3.098 0.792,4.47c0.029,1.372 -0.325,3.663 -0.141,3.889c0.184,0.226 3.833,3.536 4.639,4.003c0.806,0.467 3.211,1.895 3.621,2.037c0.41,0.141 2.999,0.24 3.451,0.24c0.453,0 3.055,0.34 3.409,0.283c0.354,-0.057 5.431,-2.687 6.11,-3.154c0.679,-0.467 1.594,-1.767 1.705,-2.185c0.11,-0.417 0.294,-2.542 0.221,-2.837c-0.074,-0.295 -0.135,-0.319 -0.135,-0.319c-0,-0 0.958,-1.118 0.933,-1.867c-0.025,-0.749 -0.909,-1.854 -1.425,-1.879c-0.515,-0.025 -2.124,1.363 -2.751,2.002c-0.626,0.638 -1.916,2.898 -1.83,3.426c0.086,0.528 1.069,1.437 1.069,1.437c-0,0 0.675,-0.135 0.933,-0.208c0.258,-0.074 0.811,-0.283 0.811,-0.283c-0,0 -1.609,0.884 -2.125,1.13c-0.516,0.246 -1.903,0.896 -2.149,0.97c-0.246,0.074 -2.358,0.184 -3.463,0.16c-1.106,-0.025 -2.567,0.098 -3.071,-0.111c-0.503,-0.209 -2.775,-1.437 -3.193,-1.707c-0.418,-0.27 -3.279,-1.719 -3.304,-1.903c-0.024,-0.185 0.343,-2.643 0.238,-3.745c-0.105,-1.102 -0.803,-3.473 -1.431,-4.287Zm7.446,-0.074c-1.972,0.104 -3.257,1.935 -3.387,3.746c-0.13,1.811 0.895,3.602 3.543,3.628c5.411,0.053 4.063,-7.597 -0.156,-7.374Zm10.224,-3.239c0,-0 2.744,-2.176 3.382,-2.01c0.639,0.165 1.502,0.958 1.585,1.301c0.082,0.342 0.082,2.435 -1.218,3.819c-1.301,1.383 -2.519,2.53 -3.346,2.341c-0.828,-0.189 -1.242,-1.395 -1.242,-1.395l0.839,-4.056Z" style="fill:#5b451e;"/><path d="M76.021,24.833c0,0 -2.557,1.625 -3.154,2.127c-0.597,0.502 -2.174,1.482 -2.772,1.697c-0.597,0.215 -1.887,-0.383 -1.887,-0.383l-4.134,1.315l-0.144,1.194c0,0 -1.983,-0.047 -2.437,-0.047c-0.454,-0 -1.243,0.239 -1.243,0.239c0,-0 -0.812,0.573 -0.693,0.764c0.12,0.191 0.55,0.263 0.717,0.621c0.168,0.359 0.526,0.67 0.789,0.885c0.263,0.215 0.597,0.525 0.502,0.74c-0.096,0.215 -0.12,0.55 -0.12,0.55c0,-0 0.884,0.048 1.338,0.048c0.454,-0 1.601,0.095 1.601,0.095l2.653,0.98c-0,-0 0.334,1.601 0.573,2.437c0.239,0.837 1.362,4.062 1.816,5.066c0.454,1.004 2.485,3.847 2.485,3.847l0.741,-4.397c-0.065,0.099 -1.663,-3.467 -1.864,-4.492c-0.186,-0.95 -0.573,-2.819 -0.525,-3.369c0.047,-0.55 -0.096,-2.796 0.477,-2.915c0.574,-0.12 4.564,-1.697 5.329,-2.772c0.765,-1.075 -0.048,-4.23 -0.048,-4.23Z" style="fill:#412d36;"/><path d="M69.001,27.329c0.817,0.35 0.84,2.622 0.966,2.974c0.125,0.351 0.928,3.174 0.427,3.952c-0.502,0.778 -1.556,1.267 -2.171,1.48c-0.615,0.214 -2.698,0.69 -3.124,0.377c-0.427,-0.314 -1.179,-2.71 -1.28,-3.4c-0.1,-0.69 -0.389,-2.924 -0.037,-3.426c0.351,-0.501 1.706,-1.254 2.396,-1.493c0.69,-0.238 2.12,-0.765 2.823,-0.464Zm-4.266,2.911c0.17,-0.245 0.928,-0.703 1.506,-0.841c0.577,-0.138 1.606,-0.753 1.831,-0.451c0.226,0.301 0.251,1.668 0.339,2.107c0.088,0.44 0.841,1.958 0.653,2.259c-0.189,0.301 -1.406,0.602 -1.719,0.74c-0.314,0.138 -1.017,0.514 -1.18,0.402c-0.163,-0.113 -1.116,-0.979 -1.342,-1.945c-0.226,-0.966 -0.289,-1.983 -0.088,-2.271Z" style="fill:#79654d;"/><path d="M86.006,54.833c-10.112,-14.667 -0.684,-40.712 12.379,-33.745c11.211,9.111 10.239,21.223 5.97,35.724c-8.15,2.283 -15.338,3.175 -18.349,-1.979Z" style="fill:#141218;"/><path d="M83.57,35.981c0,0 3.248,-0.183 3.361,-0.203c0.22,-0.04 1.494,11.551 1.494,11.551c0,0 -0.493,-0.237 -1.115,-0.298c-1.329,-0.131 -4.984,-0.633 -4.208,-0.615c-0.097,-0.354 0.41,-9.799 0.468,-10.435Z" style="fill:#c3a69b;"/><path d="M87.527,60.067c-0.434,-0.789 -1.67,-1.757 -1.984,-1.946c-0.36,-0.216 -1.772,-0.907 -2.204,-1.051c-0.432,-0.144 -0.691,-0 -1.743,0.086c-1.051,0.087 -1.296,-0.086 -2.564,-0.403c-1.267,-0.317 -1.44,-0.778 -2.16,-1.412c-0.721,-0.633 -0.98,-1.065 -1.556,-1.786c-0.576,-0.72 -1.023,-1.656 -1.512,-2.679c-0.49,-1.023 -1.945,-2.088 -2.262,-2.679c-0.317,-0.591 -0.374,-1.872 -0.317,-2.91c0.058,-1.037 0.346,-1.872 0.663,-3.168c0.317,-1.297 0.72,-3.213 0.749,-3.875c0.029,-0.663 0.043,-2.19 0.029,-3.443c-0.015,-1.253 -0.072,-0.965 0.187,-1.771c0.259,-0.807 1.325,-2.348 1.728,-3.011c0.404,-0.662 0.404,-1.555 0.577,-2.362c0.172,-0.807 -0.375,-4.768 -0.663,-5.459c-0.288,-0.692 -0.418,-0.706 -0.173,-0.965c0.245,-0.259 1.282,0.446 1.253,-0.13c-0.029,-0.576 0.043,-2.895 0.058,-3.457c0.014,-0.562 2.564,-5.589 2.564,-5.589c-0,0 2.117,0.217 3.327,0.289c1.21,0.072 2.506,0.849 3.241,1.109c0.735,0.259 1.961,0.069 1.815,0.259c-0.585,0.763 0.143,1.351 0.458,1.698c0.316,0.348 3.03,2.052 3.851,2.399c0.821,0.347 1.073,0.253 2.62,0.347c1.546,0.095 2.777,0.758 3.819,1.389c1.042,0.632 3.377,2.904 4.103,3.946c0.726,1.041 5.335,9.532 5.335,9.532c-0,0 2.083,4.072 2.367,5.145c0.284,1.073 0.726,2.967 0.82,3.661c0.095,0.695 0.064,4.325 -0.094,5.145c-0.158,0.821 -1.126,2.589 -1.515,3.338c-0.389,0.749 -2.189,2.564 -2.376,2.996c-0.188,0.433 -0.087,2.723 -0.087,3.429c0,0.705 -1.109,1.901 -1.584,2.391c-0.476,0.489 -2.017,2.031 -3.817,2.42c-1.801,0.388 -5.013,-0.202 -6.036,-0.476c-1.022,-0.273 -2.088,-1.21 -2.952,-1.743c-0.865,-0.533 -3.241,-0.072 -3.76,0.087c-0.298,0.091 -0.277,0.401 -0.205,0.649c0.063,0.115 0.109,0.226 0.133,0.33c0,0 -0.08,-0.148 -0.133,-0.33Zm2.173,-3.614c0,-0 -0.754,-0.553 -1.658,-1.684c-0.905,-1.13 -0.804,-0.779 -1.457,-1.784c-0.654,-1.005 -0.805,-0.955 -0.93,-1.834c-0.126,-0.879 -0.126,-1.307 -0.302,-2.186c-0.176,-0.879 -0.578,-2.663 -0.678,-3.417c-0.101,-0.754 -0.101,-0.201 -0.151,-1.156c-0.05,-0.955 -0.201,-1.784 -0.176,-2.915c0.025,-1.13 -0.125,-0.829 0.151,-2.412c0.276,-1.583 0.402,-1.683 0.528,-2.764c0.125,-1.08 0.1,-1.281 0.276,-1.96c0.176,-0.678 0.503,-0.929 0.678,-1.934c0.176,-1.005 0.88,-3.418 1.433,-4.297c0.552,-0.879 0.954,-1.558 1.507,-2.412c0.553,-0.854 0.855,-2.362 1.709,-3.091c0.854,-0.728 0.151,-1.13 1.884,-1.181c1.734,-0.05 2.111,-0.351 3.794,0.201c1.684,0.553 1.985,-0.175 3.342,1.131c1.357,1.307 8.116,13.468 7.789,15.553c-0.326,2.086 -1.18,8.317 -2.035,10.026c-0.854,1.708 -1.457,2.99 -1.859,3.819c-0.402,0.829 -0.804,1.307 -1.106,1.307c-0.301,-0 -0.05,-1.106 -0.954,-0.402c-0.905,0.703 -0.578,0.753 -1.558,1.532c-0.98,0.779 -0.779,0.352 -1.759,0.98c-0.98,0.628 -1.533,1.835 -2.965,1.935c-1.432,0.101 -3.87,0.327 -4.649,0c-0.778,-0.327 -0.854,-1.055 -0.854,-1.055Z" style="fill:#5f5d64;"/><path d="M84.968,35.859c0,-0 1.85,-0.061 1.963,-0.081c0.22,-0.04 0.558,-0.498 0.558,-0.498c0,-0 -0.139,-1.693 -0.159,-1.992c-0.02,-0.299 -0.1,-0.956 -0.16,-1.255c-0.059,-0.299 0,-0.996 0.22,-1.434c0.219,-0.438 0.697,-1.653 0.836,-2.151c0.139,-0.498 -0.04,-1.374 0.219,-1.613c0.259,-0.239 1.215,-0.359 1.354,-0.14c0.14,0.219 0.12,0.698 0.259,1.235c0.14,0.538 0.2,0.976 0.439,1.355c0.239,0.378 0.478,0.737 0.657,0.717c0.179,-0.02 0.577,-1.474 0.916,-1.813c0.339,-0.338 1.952,-2.669 2.589,-3.107c0.638,-0.438 1.972,-1.494 4.203,-1.414c2.23,0.08 4.72,0.279 6.274,1.554c0.666,0.546 2.011,3.087 2.41,4.102c0.398,1.016 0.876,2.151 0.975,2.749c0.1,0.598 0.1,4.501 0.1,4.501c0,0 0.558,-0.856 0.916,-0.816c0.359,0.039 0.837,0.418 0.837,0.657c-0,0.239 -0.677,0.856 -0.877,1.235c-0.199,0.378 -0.876,1.434 -1.035,1.733c-0.16,0.298 -0.877,0.637 -1.036,0.816c-0.159,0.179 -0.737,1.016 -0.836,1.235c-0.1,0.219 -0.498,1.693 -0.717,1.972c-0.22,0.279 -0.578,0.737 -1.275,1.055c-0.697,0.319 -1.693,0.359 -1.972,0.578c-0.279,0.219 -1.832,1.554 -1.832,1.554l-12.369,0.736c0,0 -0.498,-0.199 -1.115,-0.298c-0.322,-0.052 -0.974,-0.158 -1.569,-0.248c-0.097,-0.354 -0.227,-0.721 -0.397,-1.098c-0.405,-0.896 -0.549,-2.688 -0.578,-3.353c-0.029,-0.664 0.087,-2.138 0.058,-2.861c-0.029,-0.722 -0,-1.04 0.058,-1.589c0.057,-0.549 0.028,-1.387 0.086,-2.023Z" style="fill:#c3a69b;"/><path d="M88.87,35.481c-0,-0 0.774,1.615 0.988,2.002c0.214,0.388 1.615,2.537 1.989,3.018c0.374,0.481 1.336,1.709 1.923,2.19c0.588,0.48 1.803,1.722 2.27,2.083c0.467,0.36 0.627,1.295 0.814,1.428c0.187,0.134 1.763,-0.013 2.497,0c0.735,0.014 1.794,-0.197 2.19,-0.387c0.376,-0.18 0.969,-0.682 0.969,-0.682c0,-0 -0.515,0.882 -0.996,1.35c-0.48,0.467 -0.948,0.868 -1.055,1.068c-0.106,0.2 -0.173,0.814 -0.413,1.028c-0.241,0.214 -0.695,1.028 -1.109,1.015c-0.414,-0.014 -0.534,0.374 -0.828,0.574c-0.293,0.2 -2.002,1.896 -2.163,2.15c-0.16,0.253 -0.467,0.854 -0.747,1.361c-0.281,0.508 -1.162,1.523 -2.123,1.322c-0.962,-0.2 -2.11,-1.535 -2.444,-2.123c-0.333,-0.587 -1.001,-1.335 -1.081,-1.455c-0.08,-0.12 -0.014,-0.267 -0.187,-0.841c-0.174,-0.574 -0.721,-2.123 -0.868,-2.577c-0.147,-0.454 -0.387,-1.803 -0.628,-2.337c-0.24,-0.534 -0.333,-1.081 -0.373,-1.655c-0.04,-0.575 0.467,-2.324 0.721,-2.751c0.253,-0.427 0.333,-1.015 0.52,-1.709c0.187,-0.694 0.307,-1.228 0.267,-1.829c-0.04,-0.601 -0.08,-1.509 -0.133,-2.243Z" style="fill:#789698;"/><path d="M51.666,12.483c0,-0 1.104,2.739 1.635,3.567c0.531,0.828 5.245,5.457 6.476,6.115c1.232,0.658 5.457,2.718 5.797,2.803c0.34,0.085 2.506,-0.637 2.675,-0.807c0.17,-0.17 2.485,-3.398 2.761,-3.886c0.276,-0.488 1.38,-1.699 1.72,-1.783c0.339,-0.085 2.696,-0.446 2.972,-0.744c0.276,-0.297 2.102,-3.418 2.421,-3.822c0.318,-0.403 3.88,-4.034 5.202,-4.862l-6.768,-1.189c0,-0 -2.781,2.484 -3.503,3.461c-0.722,0.977 -2.187,3.121 -2.485,3.27c-0.297,0.148 -2.824,1.019 -3.737,1.656c-0.913,0.637 -2.696,1.953 -2.93,1.975c-0.233,0.021 -1.847,-0.956 -2.654,-1.338c-0.807,-0.382 -2.612,-1.316 -3.652,-2.782c-1.041,-1.465 -1.635,-2.866 -1.635,-2.866l-4.295,1.232Zm6.97,-2.081c0,-0 0.659,1.953 0.956,2.25c0.297,0.298 2.314,1.465 3.716,1.253c1.401,-0.212 3.885,-1.04 4.671,-2.059c0.786,-1.02 1.444,-2.357 1.508,-3.292c0.063,-0.934 -10.851,1.848 -10.851,1.848Z" style="fill:#af9b54;"/><path d="M48.042,73.899c0,0 -1.162,1.342 -1.329,1.814c-0.166,0.473 -0.306,1.342 -0.306,1.342l-0.383,0.14c-0,0 -0.32,-0.345 -0.511,-0.345c-0.192,0 -0.575,0.256 -0.562,0.588c0.012,0.332 0.23,0.537 0.447,0.524c0.217,-0.013 0.396,-0.179 0.396,-0.179l0.332,-0c-0,-0 -0.064,1.891 0.051,2.555c0.115,0.664 0.511,1.29 0.511,1.29c-0,0 -0.102,0.166 -0.217,0.256c-0.115,0.089 0.025,0.357 0.153,0.459c0.128,0.103 0.294,0.09 0.383,-0.025c0.09,-0.115 0.307,-0.23 0.307,-0.23l0.6,0.677l-0.332,0.256l0.038,0.204l-0.268,0.013c0,-0 -0.051,0.204 -0.243,0.268c-0.191,0.064 -0.178,0.025 -0.408,0.038c-0.23,0.013 -0.384,-0.013 -0.575,0.026c-0.192,0.038 -0.32,-0.051 -0.409,0.179c-0.089,0.23 -0.179,0.345 -0.345,0.472c-0.166,0.128 -0.421,0.026 -0.421,0.026l-0.269,-0.294l-0.37,0.038c-0,0 -1.188,-0.46 -1.584,-0.626c-0.396,-0.166 -1.29,-0.894 -1.712,-1.277c-0.422,-0.383 -0.703,-1.022 -0.703,-1.022c0,0 -0.37,0.447 -0.396,0.652c-0.025,0.204 -0.434,0.843 -0.383,1.085c0.051,0.243 0.805,0.869 1.239,1.227c0.435,0.357 1.495,0.83 1.878,0.881c0.383,0.051 1.086,-0.077 1.354,-0.14c0.269,-0.064 0.217,-0.218 0.588,0.115c0.37,0.332 0.664,0.702 0.843,0.868c0.179,0.166 0.332,0.524 0.779,0.435c0.447,-0.09 1.214,-0.256 1.265,-0.422c0.051,-0.166 0.192,-0.996 0.115,-1.226c-0.077,-0.23 -0.166,-0.32 -0.09,-0.473c0.077,-0.153 -0.076,-0.128 0.23,-0.281c0.307,-0.153 0.435,-0.447 0.435,-0.447c-0,-0 -0.09,-0.192 0.485,0.077c0.575,0.268 1.06,0.166 1.06,0.166c0,-0 -0.076,-0.077 -0.562,-0.384c-0.485,-0.306 -0.996,-0.792 -1.098,-0.996c-0.102,-0.204 -0.345,-0.971 -0.409,-1.367c-0.064,-0.396 -0.153,-0.984 -0.166,-1.495c-0.013,-0.511 -0.013,-1.443 -0,-1.775c0.013,-0.332 0.243,-0.664 0.383,-0.894c0.141,-0.23 0.537,-0.818 0.703,-0.984c0.166,-0.166 0.792,-0.971 0.792,-0.971l-1.316,-0.818Zm-1.788,10.463c0.216,-0.033 0.153,0.191 0.332,0.268c0.179,0.077 0.447,0.038 0.396,0.371c-0.051,0.332 -0.026,0.562 -0.396,0.549c-0.371,-0.013 -0.895,0.166 -0.92,-0.115c-0.026,-0.281 0.115,-0.396 0.23,-0.588c0.115,-0.191 0.192,-0.46 0.358,-0.485Zm-0.767,-7.116c0.044,-0.006 0.105,0.042 0.131,0.093c0.025,0.051 0.016,0.105 -0.08,0.112c-0.191,0.013 -0.23,-0.179 -0.051,-0.205Z" style="fill:#1f6237;"/><path d="M56.204,57.278c-0,0 -0.164,-0.591 -0.264,-0.868c-0.101,-0.276 -0.177,-0.138 -0.177,-0.452c0,-0.315 -0.037,-0.415 0.126,-0.705c0.164,-0.289 0.164,-0.264 0.327,-0.603c0.164,-0.34 -0.088,-0.314 0.541,-0.604c0.629,-0.289 0.616,-0.226 0.943,-0.44c0.327,-0.214 0.402,-0.377 0.88,-0.591c0.478,-0.214 0.503,-0.566 0.792,-0.276c0.29,0.289 0.353,0.465 0.629,0.729c0.277,0.264 0.403,0.214 0.616,0.528c0.214,0.314 0.252,0.289 0.415,0.704c0.164,0.415 0.302,0.428 0.239,0.78c-0.063,0.352 -0.05,0.415 -0.239,0.629c-0.188,0.213 -0.226,-0.026 -0.264,0.49c-0.038,0.516 0.076,0.88 0.076,0.88c-0,0 -0.202,-0.214 0.352,-0.603c0.553,-0.39 0.628,-0.403 0.955,-0.667c0.327,-0.264 0.327,-0.377 0.554,-0.541c0.226,-0.163 1.509,-0.276 1.685,0.088c0.176,0.365 0.226,0.755 0.427,0.893c0.201,0.139 0.654,0.139 0.755,0.604c0.1,0.465 0.176,0.817 0.188,1.106c0.013,0.29 -0.075,0.805 -0.075,0.805c-1.396,2.923 -3.935,3.37 -6.941,2.804c-3.323,-0.774 -3.036,-2.699 -2.54,-4.69Z" style="fill:#13521d;"/><path d="M88.649,70.36c0,0 0.208,1.919 0.363,2.542c0.156,0.622 1.115,2.411 1.141,2.8c0.026,0.389 0.052,4.098 0.052,4.098l6.95,0.596c0,0 -0.052,-3.475 -0.233,-4.59c-0.182,-1.115 -0.311,-2.904 -0.311,-2.904l-7.962,-2.542Z" style="fill:#262a2b;"/><path d="M105.687,79.151c0,0 3.086,-1.037 3.527,-1.452c0.441,-0.415 2.049,-1.997 2.671,-2.308c0.622,-0.311 1.452,-0.441 1.452,-0.441l2.282,7.002c0,0 -0.726,0 -1.244,0.363c-0.519,0.363 -1.505,0.752 -1.868,0.96c-0.363,0.207 -1.945,0.648 -1.945,0.648l-4.875,-4.772Z" style="fill:#4d695d;"/><path d="M115.049,68.83c-0,0 -0.337,-1.4 -0.519,-2.049c-0.181,-0.648 -0.311,-2.074 -0.285,-2.671c0.026,-0.596 -0.13,-1.296 -0.052,-1.659c0.078,-0.364 0.597,-1.297 0.934,-1.816c0.337,-0.518 0.622,-1.478 0.933,-1.763c0.311,-0.285 1.608,-0.726 2.049,-0.752c0.441,-0.026 1.789,1.167 1.789,1.167c0,-0 0.726,-0.571 0.934,-0.83c0.207,-0.259 1.271,-0.96 1.504,-1.193c0.233,-0.233 0.674,-0.882 1.167,-0.882c0.493,0 0.908,-0.207 1.141,0.208c0.233,0.415 1.219,1.296 1.634,1.763c0.415,0.467 0.622,1.219 0.907,1.79c0.286,0.57 0.286,0.907 0.83,1.452c0.545,0.544 1.193,0.726 1.193,1.452c0,0.726 0.208,1.66 0.208,1.66l-14.367,4.123Z" style="fill:#7c6762;"/><path d="M112.663,78.114c-0.328,-1.475 -0.778,-4.305 -0.285,-4.953c0.492,-0.648 1.893,-2.179 2.178,-2.153c0.285,0.026 0.623,0.752 0.856,0.727c0.233,-0.026 -0.752,-1.505 -0.882,-2.153c-0.129,-0.648 -0.311,-1.815 0.208,-2.204c0.518,-0.389 2.178,-1.089 3.241,-1.193c1.064,-0.104 1.167,-0.259 1.167,-0.259c0,-0 -0.078,-1.479 0.052,-1.79c0.13,-0.311 -0.052,-0.752 0.493,-0.804c0.544,-0.052 1.115,-0.078 1.374,-0.311c0.26,-0.233 1.089,-1.011 1.115,-1.426c0.026,-0.415 -0.077,-0.597 0.078,-0.804c0.156,-0.208 0.856,-1.089 1.375,-1.037c0.518,0.051 0.881,0.622 1.607,1.192c0.727,0.571 3.268,2.516 3.605,2.646c0.337,0.129 0.726,0.129 0.804,0.466c0.078,0.338 0.285,1.971 0.233,2.36c-0.051,0.389 0.364,0.778 0.415,1.167c0.052,0.389 -0.363,1.453 -0.363,1.867c0,0.415 0.908,2.101 0.804,2.49c-0.103,0.389 -0.907,1.763 -1.063,2.075c-0.156,0.311 -0.648,1.426 -0.908,1.711c-0.259,0.285 -0.752,0.545 -0.985,0.545c-0.233,-0 -1.452,-0.96 -1.66,-1.219c-0.207,-0.259 -0.207,-0.908 -0.83,-1.297c-0.622,-0.389 -1.504,-1.141 -2.152,-0.648c-0.648,0.493 -1.53,1.348 -1.141,1.945c0.389,0.596 1.374,2.204 1.867,2.619c0.493,0.415 1.219,1.063 1.219,1.063c-0,0 -0.726,0.389 -0.96,0.701c-0.233,0.311 -0.778,1.4 -0.778,1.711c0,0.311 0,1.478 -0.207,1.66c-0.208,0.181 -2.36,0.959 -2.879,1.219c-0.518,0.259 -1.478,0.441 -1.789,0.7c-0.311,0.259 -0.726,0.493 -0.726,0.493c-0,-0 -2.36,-1.842 -3.19,-3.035c-0.83,-1.192 -1.53,-2.437 -1.893,-4.071Z" style="fill:#211a19;"/><g id="right-leg" serif:id="right leg"><path d="M44.304,69.179c-0,-0 0.947,1.212 1.325,1.666c0.379,0.455 0.606,0.796 1.288,1.932c0.682,1.136 1.515,2.272 2.083,2.878c0.568,0.606 1.326,1.363 2.5,2.272c1.174,0.909 2.689,2.5 3.749,3.295c1.061,0.796 3.447,1.97 4.848,2.462c1.401,0.492 2.727,1.023 3.825,1.401c1.098,0.379 0.568,0.19 1.818,0.493c1.25,0.303 4.81,4.507 5.946,5.188c1.136,0.682 1.666,1.326 2.424,2.538c0.757,1.212 2.764,5.378 2.764,5.378l16.361,-17.195c0,0 -1.401,-1.855 -2.651,-3.257c-1.25,-1.401 -1.78,-1.893 -2.689,-2.651c-0.909,-0.757 -5.908,-3.901 -6.741,-4.582c-0.833,-0.682 -1.515,-1.856 -2.613,-2.386c-1.099,-0.53 -4.621,-2.083 -5.53,-2.5c-0.909,-0.416 -5.87,-1.477 -6.4,-1.704c-0.53,-0.227 -1.136,-0.682 -1.78,-1.288c-0.644,-0.606 -3.068,-1.78 -3.939,-1.931c-0.871,-0.152 -10.756,-0.152 -10.756,-0.152l-5.832,8.143Z" style="fill:#292739;"/><path d="M66.819,88.071c-0,0 -1.448,-2.145 -1.073,-4.719c0.376,-2.575 1.019,-5.203 3.755,-7.563c2.735,-2.36 3.486,-3.593 6.918,-4.452c3.433,-0.858 6.222,0 6.758,0.108c0.537,0.107 1.609,-0.429 1.878,0.321c0.268,0.751 0.911,1.663 1.501,2.199c0.59,0.537 1.824,1.449 1.824,1.449c-0,-0 0.268,0.214 -0.215,1.126c-0.482,0.912 -2.038,2.521 -2.413,3.164c-0.376,0.644 -0.966,1.556 -0.966,1.556l-7.294,14.857c0,-0 -2.199,-0.859 -2.735,-1.127c-0.537,-0.268 -0.966,-0.804 -0.966,-0.804c0,-0 -0.375,-1.556 -0.375,-2.682c-0,-1.126 0.375,-3.486 0.751,-4.666c0.375,-1.18 0.804,-3.647 1.18,-4.881c0.375,-1.234 2.413,-3.433 2.413,-3.433c0,0 -3.057,1.556 -3.754,2.789c-0.697,1.234 -1.019,1.931 -1.341,3.111c-0.322,1.18 -1.073,3.218 -0.912,4.291c0.161,1.073 1.18,3.111 1.18,3.111c0,-0 -0.858,0.375 -1.716,-0.268c-0.858,-0.644 -3.433,-1.985 -4.398,-3.487Z" style="fill:#40363e;"/><path d="M75.883,98.53c0,0 -1.18,-0.804 -1.234,-1.448c-0.053,-0.644 -0.589,-1.985 0.108,-3.54c0.697,-1.555 1.77,-3.218 2.252,-4.237c0.483,-1.019 2.146,-3.272 3.433,-4.344c1.287,-1.073 1.716,-1.502 2.95,-2.307c1.234,-0.804 1.126,-1.341 3.915,-2.091c2.789,-0.751 4.452,-1.288 6.329,-1.663c1.877,-0.376 3.165,-0.966 4.344,-0.054c1.18,0.912 1.77,1.127 1.77,1.127c0,-0 2.789,-1.073 3.433,-1.288c0.644,-0.214 1.448,-0.858 2.092,-0.804c0.643,0.053 1.019,0.429 1.984,1.019c0.966,0.59 1.877,0.912 2.575,1.77c0.697,0.858 1.555,2.628 2.574,3.593c1.019,0.966 2.038,1.877 3.111,2.789c1.073,0.912 3.862,4.506 3.862,5.31c-0,0.805 -1.341,3.004 -1.341,3.004c-0,-0 0.71,0.553 0.862,1.292c0.152,0.738 0.043,1.194 0.108,1.802c0.065,0.608 0.13,1.347 0.369,1.781c0.239,0.434 0.739,0.912 0.978,1.194c0.238,0.283 2.193,4.322 2.736,5.364c0.543,1.042 0.586,0.869 0.933,1.737c0.348,0.869 0.63,2.15 0.739,2.91c0.108,0.76 0.434,2.91 0.456,3.366c0.022,0.456 0,3.271 0.282,3.735c5.775,9.514 -34.877,29.681 -39.609,22.91c-0.185,-0.264 -1.564,0.196 -1.281,-1.086c0.282,-1.281 0.13,-3.365 0.108,-4.191c-0.022,-0.825 -1.107,-3.583 -1.107,-3.583c-0,0 -2.774,-8.794 -3.082,-10.565c-0.308,-1.771 -3.166,-10.068 -3.279,-11.006c-0.112,-0.939 -0.525,-1.727 -0.9,-2.44c-0.376,-0.713 -0.601,-1.201 -1.051,-1.877c-0.451,-0.675 -0.826,-0.9 -1.089,-1.651c-0.263,-0.751 -0.788,-1.501 -0.413,-2.289c0.376,-0.789 1.426,-3.223 2.083,-4.239Z" style="fill:#27131f;"/><path d="M76.277,114.666c0.024,0.639 1.464,3.416 1.502,4.054c0.037,0.638 0.112,9.008 0.338,9.758c0.225,0.751 1.201,2.665 1.801,3.303c0.601,0.638 3.491,0.826 3.491,0.826c-0,0 -0.263,-1.239 -0,-2.027c0.262,-0.788 0.413,-1.501 0.413,-1.501c-0,-0 0.075,-1.501 0.412,-2.139c0.338,-0.638 1.727,-1.352 2.628,-1.652c0.9,-0.3 3.34,-1.501 4.879,-1.764c1.539,-0.263 6.08,-1.201 7.769,-1.576c1.689,-0.376 5.818,-0.526 7.056,-0.601c1.239,-0.075 3.453,0.788 5.968,0.601c2.515,-0.188 2.665,-0 4.429,-0.413c1.764,-0.413 2.327,-0.638 4.053,-0.713c1.727,-0.075 3.866,-0 3.866,-0c0,-0 0.826,-3.829 0.601,-4.879c-0.225,-1.051 -0.413,-3.341 -0.713,-4.542c-0.301,-1.201 -0.976,-4.541 -0.976,-4.541c-0,-0 -2.552,-5.405 -2.853,-5.63c-0.3,-0.225 -2.101,-1.614 -2.664,-2.215c-0.563,-0.6 -1.352,-1.726 -2.44,-2.364c-1.089,-0.638 -0.563,-0.826 -2.102,-1.051c-1.539,-0.225 -5.667,-0.376 -7.131,-0c-1.464,0.375 -6.869,1.764 -8.407,2.439c-1.539,0.676 -5.856,2.778 -6.681,3.116c-0.826,0.337 -6.719,3.941 -8.22,4.954c-1.501,1.013 -5.667,4.466 -6.043,5.142c-0.375,0.676 -1.013,2.402 -0.976,3.415Z" style="fill:#47383b;"/><path d="M87.199,116.168c0.685,-0.457 1.539,-1.539 1.915,-2.815c0.375,-1.276 -0,-4.392 -1.389,-4.804c-1.389,-0.413 -12.911,-0.864 -13.024,-0.376c-0.113,0.488 7.844,7.657 8.37,8.032c0.525,0.376 2.777,0.864 4.128,-0.037Zm37.137,-6.575c0,-0 1.072,5.824 1.072,6.274c-0,0.451 1.801,-0.262 2.665,-0.412c0.863,-0.151 2.89,-3.791 2.214,-4.054c-0.676,-0.263 -4.9,-1.846 -5.951,-1.808Zm-17.995,-0.331c-1.162,-2.995 0.188,-4.729 1.201,-5.893c1.014,-1.163 2.477,-2.364 5.105,-2.364c2.627,-0 15.05,1.463 15.088,1.914c0.037,0.45 -11.448,9.721 -13.099,10.471c-1.652,0.751 -5.818,2.252 -8.295,-4.128Z" style="fill:#5f6364;"/></g><g id="waist"><path d="M31.031,37.411c-0.121,-0.331 -0.51,-2.493 -0.585,-2.679c-0.074,-0.186 -0.408,-0.26 -0.427,-0.52c-0.018,-0.26 0.26,-0.353 0.409,-0.483c0.148,-0.13 0.037,-0.576 0.037,-0.576c-0.353,-1.987 -2.712,-2.729 -2.712,-2.729c0.78,-0.075 2.155,0.872 2.693,1.448c0.539,0.576 2.006,3.009 2.247,3.677c0.242,0.669 0.799,2.303 0.985,2.526c0.185,0.223 0.687,0.241 1.169,0.334c0.483,0.093 1.397,0.949 1.133,1.04c-0.642,0.221 -1.156,0.785 -1.562,1.42c-0.406,0.635 -0.406,1.729 -0.512,2.558c-0.106,0.829 -0.035,3.263 0.212,4.251c0.247,0.988 2.293,4.587 3.211,5.716c0.917,1.129 3.863,3.617 3.863,3.617c0,-0 10.179,2.099 12.579,2.346c2.399,0.247 10.743,0.353 11.255,0.035c0.512,-0.317 0.565,-0.017 1.129,-0.105c0.565,-0.089 2.011,-0.018 2.364,-0.142c0.353,-0.123 1.217,-0.458 1.217,-0.458c0,-0 -0.282,0.353 -0.529,0.458c-0.247,0.106 -0.37,0.706 -0.705,0.865c-0.336,0.159 -0.971,0.106 -1.571,0.212c-0.599,0.105 -0.829,0.582 -1.587,0.97c-0.759,0.388 -0.618,0.317 -1.006,0.758c-0.388,0.442 0.106,0.159 0.406,0.389c0.3,0.229 0.476,0.511 0.688,0.811c0.212,0.3 0.088,0.512 0.212,0.759c0.123,0.247 -0.036,0.317 -0.036,0.317c0,0 -1.376,-0.282 -2.258,-0.388c-0.882,-0.106 -1.394,-0.229 -2.558,-0.441c-1.164,-0.212 -2.082,-0.582 -2.787,-0.829c-0.706,-0.247 -1.077,-0.556 -1.541,-0.648c-0.464,-0.093 -0.984,-0.223 -1.449,-0.316c-0.464,-0.093 -1.021,0.316 -1.021,0.316c-0,-0 -0.743,-0.038 -1.17,-0.019c-0.427,0.019 -0.947,0.613 -1.226,0.929c-0.278,0.315 -0.167,0.891 -0.167,1.318c0,0.427 -0.446,0.316 -0.705,0.65c-0.26,0.334 -0.65,1.17 -0.65,1.17c-0,-0 -0.168,-0.743 -0.446,-0.929c-0.279,-0.185 -1.319,0.873 -1.746,1.356c-0.427,0.483 -2.135,2.21 -2.525,2.841c-0.39,0.632 -1.783,1.839 -2.062,2.433c-0.278,0.594 -0.798,1.059 -1.003,0.873c-0.204,-0.186 -0.092,-0.91 -0.241,-1.021c-0.149,-0.112 -0.539,0.408 -0.984,0.947c-0.446,0.538 -0.539,0.538 -0.539,0.538c0,0 -0.427,-0.668 -0.576,-0.575c-0.148,0.092 -0.464,0.482 -0.835,0.817c-0.372,0.334 -0.316,-0.149 -0.427,-0.836c-0.112,-0.687 0.297,-0.761 0.631,-1.17c0.334,-0.408 0.316,-0.613 0.334,-1.003c0.019,-0.39 -0.111,-0.928 -0.111,-0.928c-0,-0 -0.167,0.074 -0.576,0.408c-0.408,0.335 -1.114,1.04 -1.968,1.505c-0.855,0.464 -2.247,1.782 -2.99,2.507c-0.743,0.724 -2.006,2.228 -2.637,3.194c-0.632,0.965 -1.337,1.3 -2.006,2.135c-0.668,0.836 -1.616,1.913 -2.117,2.322c-0.501,0.408 -2.154,1.541 -2.377,1.745c-0.223,0.205 -0.409,0.52 -0.613,0.39c-0.204,-0.13 -0.13,-0.668 0.074,-0.891c0.205,-0.223 0.892,-0.91 1.115,-1.114c0.223,-0.205 1.077,-0.297 1.3,-0.409c0.222,-0.111 0.297,-0.223 0.352,-0.483c0.056,-0.26 0.446,-0.761 0.725,-1.225c0.278,-0.465 0.538,-0.706 0.835,-1.3c0.298,-0.595 0.539,-1.542 0.372,-1.727c-0.167,-0.186 -1.969,0.445 -1.969,0.445c0.186,-0.223 0.52,-1.132 0.465,-1.708c-0.056,-0.576 -0.038,-0.854 -0.093,-1.523c-0.056,-0.669 -0.353,-1.857 -0.353,-2.414c-0,-0.557 -0.39,-0.427 -0.39,-0.427c-0,-0 0.13,-0.335 0.334,-0.613c0.204,-0.279 0.056,-1.022 0,-2.062c-0.056,-1.039 -0.39,-2.748 -0.39,-3.268c0,-0.52 -0.483,-0.706 -0.724,-1.04c-0.241,-0.334 -0.557,-0.074 -0.557,-0.074c-0,-0 -0.242,-0.91 -0.279,-1.542c-0.037,-0.631 -0.371,-0.742 -0.761,-1.077c-0.39,-0.334 -0.984,-0.278 -0.984,-0.278c-0,-0 -0.242,-0.65 0.204,-1.244c0.446,-0.595 0.891,-2.749 1.207,-3.25c0.316,-0.502 0.279,-1.913 0.427,-2.637c0.149,-0.725 -0.26,-1.17 -0.613,-1.783c-0.353,-0.613 -0.408,-0.409 -0.798,-0.91c-0.39,-0.502 -0.669,-0.279 -1.467,-0.316c-0.799,-0.037 -1.579,-0.353 -2.433,-0.353c-0.854,0 -1.189,0.279 -1.783,0.483c-0.594,0.204 -1.374,1.003 -1.838,1.3c-0.465,0.297 -0.725,0.594 -0.725,0.594c0,0 0.297,-0.613 0.372,-0.873c0.074,-0.259 0.185,-0.835 0.185,-0.835c0,-0 0.335,0.186 0.762,0.111c0.427,-0.074 1.188,-1.207 1.504,-1.56c0.316,-0.353 0.501,-0.984 0.501,-0.984c0,0 0.78,0 1.115,-0.149c0.334,-0.148 1.17,-0.742 1.17,-0.742l-0.037,-0.613c-0,-0 0.222,-0.353 0.482,-0.632c0.26,-0.278 0.112,-1.058 0.13,-1.318c0.019,-0.26 -1.615,-0.984 -2.451,-1.467c-0.836,-0.483 -2.117,-2.47 -2.117,-2.47l4.067,0.018c0.409,1.412 1.82,1.765 2.748,1.802c0.929,0.037 1.635,-0.242 2.118,-0.502c0.482,-0.26 0.52,-0.557 0.52,-0.557c0.222,-0.018 0.464,0.316 0.835,0.297c0.372,-0.018 0.632,-0.13 0.632,-0.13c0.021,-0.395 2.75,-1.145 3.262,-1.798c0.512,-0.653 -0,-2.082 -0.282,-2.858Z" style="fill:#2d3c35;"/><path d="M39.388,37.864c0.086,-0.086 -0.521,-1.027 -1.083,-1.553c-0.563,-0.527 -2.099,-1.665 -2.498,-1.921c-0.398,-0.256 -1.081,-0.591 -1.415,-0.562c-0.335,0.028 -3.6,1.686 -4.063,2.191c-0.462,0.505 -1.407,1.873 -1.617,2.888c-0.209,1.016 -0.903,4.515 -0.951,5.353c-0.048,0.838 0.903,4.756 1.306,5.836c0.403,1.08 2.144,3.789 2.837,4.369c0.694,0.581 2.499,1.097 2.806,1.322c0.306,0.226 2.821,1.967 4.852,2.386c2.032,0.42 6.885,1.629 7.916,1.645c1.032,0.016 3.983,-0.097 4.482,-0.097c0.5,0 4.353,0.79 4.692,0.79c0.339,0 2.064,-1.128 2.531,-1.128c0.468,-0 1.322,1.257 1.79,1.273c0.467,0.016 0.193,-0.645 0.145,-0.999c-0.049,-0.355 0.145,-1.613 -0.016,-1.806c-0.162,-0.193 -1.387,0.145 -1.645,0.113c-0.258,-0.032 -2.918,-1.08 -3.24,-1.048c-0.323,0.032 -0.178,1.483 -0.178,1.483c0,0 -1.805,-0.564 -2.434,-0.645c-0.629,-0.08 -3.628,0.178 -4.514,0.097c-0.887,-0.081 -3.612,-0.774 -5.417,-0.983c-1.806,-0.21 -5.724,-2.016 -7.11,-2.838c-1.387,-0.822 -4.353,-3.837 -4.66,-4.611c-0.306,-0.774 -1.467,-3.402 -1.58,-4.853c-0.112,-1.451 0.565,-5.417 0.935,-6.336c0.371,-0.919 1.161,-2.531 1.855,-2.515c0.693,0.016 2.192,0.919 2.595,1.403c0.403,0.484 1.568,1.484 1.568,1.484c-0,0 0.711,-0.32 0.953,-0.417c0.242,-0.097 1.073,-0.236 1.158,-0.321Z" style="fill:#1c1f24;"/></g></g></g></svg>