<?xml version="1.0" encoding="UTF-8" standalone="no"?><!DOCTYPE svg PUBLIC "-//W3C//DTD SVG 1.1//EN" "http://www.w3.org/Graphics/SVG/1.1/DTD/svg11.dtd"><svg width="100%" height="100%" viewBox="0 0 150 150" version="1.1" xmlns="http://www.w3.org/2000/svg" xmlns:xlink="http://www.w3.org/1999/xlink" xml:space="preserve" xmlns:serif="http://www.serif.com/" style="fill-rule:evenodd;clip-rule:evenodd;stroke-linejoin:round;stroke-miterlimit:2;"><path id="base" d="M150,75c0,-41.394 -33.606,-75 -75,-75c-41.394,0 -75,33.606 -75,75c0,41.394 33.606,75 75,75c41.394,0 75,-33.606 75,-75Z" style="fill:#daaf57;"/><path id="outline" d="M144,75c0,-38.082 -30.918,-69 -69,-69c-38.082,0 -69,30.918 -69,69c0,38.082 30.918,69 69,69c38.082,0 69,-30.918 69,-69Z" style="fill:#0b1324;"/><path id="core" d="M141,75c0,-36.426 -29.574,-66 -66,-66c-36.426,0 -66,29.574 -66,66c0,36.426 29.574,66 66,66c36.426,0 66,-29.574 66,-66Z" style="fill:#97c6ce;"/><clipPath id="_clip1"><path d="M141,75c0,-36.426 -29.574,-66 -66,-66c-36.426,0 -66,29.574 -66,66c0,36.426 29.574,66 66,66c36.426,0 66,-29.574 66,-66Z"/></clipPath><g clip-path="url(#_clip1)"><g id="teemo"><path d="M105.339,30.197l-10.142,-6.125c-0,-0 0.772,-1.864 1.091,-3.062c0.32,-1.198 0.692,-2.503 0.932,-3.115c0.24,-0.612 0.905,-1.837 0.905,-1.837l1.757,-0.319c0,-0 0.533,0.053 0.772,-0.533c0.24,-0.586 0.533,-1.225 0.533,-1.225l11.368,6.443c0,0 -1.225,0.932 -1.251,1.198c-0.027,0.267 0.186,0.719 0.319,1.065c0.133,0.346 0.453,-0.239 0.16,0.373c-0.293,0.612 -0.346,1.091 -0.346,1.091l0.506,0c-0,0 0.373,0.213 0.186,0.453c-0.186,0.24 -0.399,0.16 -0.692,0.692c-0.293,0.533 -1.251,0.879 -1.651,1.491c-0.399,0.613 -1.704,1.864 -2.582,2.689c-0.355,0.334 -0.627,0.576 -0.826,0.746c0.314,0.216 0.7,0.415 0.959,0.319c0.506,-0.186 0.985,0 1.411,-0.452c0.426,-0.453 0.905,-0.719 1.278,-0.693c0.373,0.027 0.719,0.027 0.719,0.027c-0,-0 0.506,-0.799 0.692,-1.198c0.186,-0.399 0.559,-0.666 0.532,-0.24c-0.026,0.426 -0.159,0.905 0.054,1.065c0.213,0.16 0.692,0.187 0.931,0.533c0.24,0.346 0.213,0.346 0.693,0.745c0.479,0.399 0.426,0.453 1.011,1.038c0.586,0.586 1.651,1.305 1.971,1.837c0.319,0.533 0.505,1.811 0.665,2.503c0.16,0.692 0.213,0.852 0.293,1.225c0.08,0.372 0.399,0.612 0.053,0.479c-0.346,-0.133 -1.011,-0.213 -1.011,-0.213c-0,-0 -0.373,0.027 -0.48,0.586c-0.106,0.559 -0.346,0.665 -0.266,1.038c0.08,0.373 0.346,0.772 0.346,0.772c0,0 0.053,0.16 -0.213,0.266c-0.266,0.107 -1.038,0.16 -1.81,0.4c-0.772,0.239 -2.316,0.931 -3.834,1.677c-1.518,0.745 -2.716,1.73 -3.621,2.236c-0.905,0.506 -1.704,0.613 -1.704,0.613l-6.469,-9.239l6.761,-5.349Zm-63.442,-6.179l0.958,0.772c0,0 0.612,-0.372 1.438,-0.505c0.825,-0.134 1.464,0.053 1.464,0.053l0.586,0.692c-0,0 0.905,-0.426 1.544,-0.426c0.639,0 1.624,0.053 1.837,0.373c0.213,0.319 0.639,1.331 1.038,1.89c0.4,0.559 3.408,4.393 3.408,4.393l-4.712,10.649c-0,0 -0.772,-0.346 -2.024,-0.639c-1.251,-0.293 -3.514,-0.479 -3.7,-0.665c-0.187,-0.187 -0.16,-1.678 -0.772,-2.13c-0.613,-0.453 -1.358,-2.103 -1.704,-2.423c-0.346,-0.319 -2.343,-1.065 -2.343,-1.065c-0,0 0.027,-1.224 -0.213,-1.837c-0.24,-0.612 -0.266,-1.517 -0.08,-1.97c0.186,-0.453 0.24,-0.639 0.453,-1.171c0.213,-0.533 0.399,-1.225 0.639,-1.571c0.239,-0.346 0.958,-1.278 1.251,-1.544c0.293,-0.267 0.905,-1.465 0.932,-2.876Z" style="fill:#f6a45a;"/><path d="M62.235,29.925c-0,0 -0.59,-0.944 -1.18,-1.74c-0.59,-0.797 -1.446,-2.419 -1.77,-2.773c-0.325,-0.354 -1.77,-1.888 -2.626,-1.8c-0.855,0.089 0.118,-0.442 0.472,-0.442c0.354,-0 1.564,0.56 1.564,0.56c-0,0 0.413,-0.118 0.413,-0.855c-0,-0.738 -0.266,-1.475 -0.089,-2.183c0.177,-0.708 0.531,-1.593 1.003,-2.183c0.472,-0.59 2.39,-2.301 2.655,-2.625c0.266,-0.325 0.944,-0.915 0.944,-0.915l-0.354,0.915c0,-0 -0.059,-0.089 1.269,-0.62c1.327,-0.531 1.622,-0.619 2.271,-0.944c0.649,-0.324 1.623,-0.855 1.623,-0.855c-0,-0 0.088,0.501 -0.236,0.796c-0.325,0.295 0.383,0.059 0.944,-0.354c0.56,-0.413 1.592,-0.826 1.592,-0.826l2.379,-1.691c-0,-0 -0.638,3.373 -1.258,3.933c-0.619,0.561 -0.472,0.738 0.03,0.62c0.501,-0.118 2.035,-0.384 2.684,-0.561c0.649,-0.177 1.416,-0.265 1.711,-0.678c0.295,-0.413 0.972,-2.328 0.972,-2.328c-0,-0 0.564,1.11 0.149,2.416c-0.334,1.054 -1.681,1.092 -0.826,0.974c0.856,-0.118 2.065,-0.472 2.449,-1.003c0.383,-0.531 1.139,-1.701 1.139,-1.701c0,0 -0.077,1.17 -0.402,1.848c-0.308,0.644 -3.982,2.212 -4.277,2.389c-0.295,0.177 0.885,0.207 1.327,0.118c0.443,-0.088 1.977,-0.413 2.301,-0.708c0.325,-0.294 1.269,-1.12 1.446,-1.504c0.177,-0.383 0.59,-1.799 0.59,-1.799c-0,-0 0.041,0.708 -0.147,1.72c-0.151,0.817 -1.21,2.203 -1.889,2.675c-0.678,0.472 0,0.472 -0.265,0.767c-0.266,0.295 -0.502,0.56 -0.62,0.914c-0.118,0.354 -0.678,1.033 -0.678,1.033l-0.797,0.442l-6.431,10.207" style="fill:#4a5b8c;"/><path d="M49.691,42.892c-0.259,0.103 -1.577,0.31 -2.353,0.465c-0.775,0.155 -1.034,0.181 -1.81,0.517c-0.775,0.336 -0.258,-0.155 -1.215,0.517c-0.956,0.672 -0.775,0.62 -1.525,1.293c-0.75,0.672 -0.75,0.594 -1.241,1.137c-0.491,0.543 -0.362,0.672 -1.008,1.138c-0.646,0.465 -0.129,0.077 -1.034,0.646c-0.905,0.569 -1.551,0.956 -2.094,1.06c-0.543,0.103 -1.034,-0.078 -1.034,-0.078c-0,0 -0,0.621 0.594,0.983c0.595,0.362 0.595,0.336 1.138,0.749c0.543,0.414 0.879,0.647 1.758,1.293c0.879,0.646 1.809,1.215 3.102,1.655c1.293,0.439 1.655,0.491 2.482,0.594c0.827,0.104 0.853,-0.103 1.654,0.233c0.802,0.336 0.543,0.129 1.086,0.491c0.543,0.362 3.956,-2.508 3.956,-2.508l-2.456,-10.185Zm37.822,-17.554c0.284,0.051 3.154,-0.647 3.542,-0.491c0.387,0.155 0.517,0.387 1.137,0.31c0.621,-0.078 1.06,-0.181 1.706,-0.776c0.647,-0.594 0.698,-1.422 0.698,-1.422c0,0 0.181,0.388 0.75,0.362c0.569,-0.026 0.776,0.052 1.5,-0.388c0.723,-0.439 2.171,-1.37 2.171,-1.37l0.259,0.491c-0,0 0.749,-0.155 1.241,-0.387c0.491,-0.233 0.646,-0.078 1.163,-0.724c0.517,-0.647 0.801,-1.215 1.163,-0.75c0.362,0.465 0.414,1.112 1.215,1.112c0.802,-0 0.698,-0.026 1.526,-0.414c0.827,-0.388 1.861,-0.775 2.326,-1.163c0.466,-0.388 0.931,-0.853 0.931,-0.853c0,-0 -0.646,1.809 -0.905,2.533c-0.258,0.724 -0.388,0.595 -0.362,1.241c0.026,0.646 0.052,0.801 0.026,1.034c-0.026,0.233 0.621,0.336 0.621,0.336c-0,0 0.077,0.336 -0.388,0.879c-0.466,0.543 -0.724,0.983 -0.362,0.957c0.362,-0.026 0.853,-0.181 0.853,-0.181c0,-0 -0.336,0.569 -0.517,0.75c-0.181,0.18 0.181,-0.026 -0.078,0.439c-0.258,0.465 -0.336,0.284 -0.801,0.931c-0.465,0.646 -0.336,1.163 -0.284,1.732c0.051,0.569 0.672,0.543 0.672,0.543c-0,-0 -0.672,0.646 -0.879,0.905c-0.207,0.258 -0.543,0.749 -0.569,1.163c-0.026,0.414 0.388,0.491 0.388,0.491l-0.569,0.931c0,-0 -0.052,0.698 -0.207,1.163c-0.155,0.466 -0.491,0.983 -0.491,0.983c0,-0 -0.827,1.189 -1.137,1.577c-0.311,0.387 -0.724,0.956 -1.138,1.499c-0.414,0.543 -8.066,-4.033 -8.066,-4.033c0,0 -7.42,-9.462 -7.135,-9.41Z" style="fill:#cd7a54;"/><path d="M54.58,66.518c0.096,0.546 0.211,1.001 0.352,1.279c-0,-0 -1.619,-0.782 -2.579,-1.55c-0.96,-0.768 -3.031,-2.167 -3.47,-3.484c-0.439,-1.317 -1.111,-5.28 -1.097,-7.146c0.014,-1.865 1.31,-4.511 1.372,-5.048c0.062,-0.536 0.866,-5.509 0.866,-5.509c0,-0 2.085,-7.759 2.889,-8.853c0.805,-1.094 3.199,-6.5 9.596,-7.429c6.397,-0.928 19.81,-6.789 23.772,-5.386c3.962,1.403 5.489,2.208 6.397,2.765c0.908,0.558 5.51,6.315 6.686,7.532c1.176,1.218 2.105,2.869 2.559,3.694c0.454,0.826 0.681,1.403 1.217,1.692c0.537,0.289 2.477,2.559 2.848,4.519c0.371,1.961 0.31,4.313 0.31,4.313c-0,0 -0.284,0.384 -0.789,-0.121c-0.476,-0.476 -0.926,-1.243 -0.975,-1.328c0.001,-0.002 -0.004,-0.008 -0.004,-0.008l0.004,0.008c-0.003,0.01 -0.09,-0.019 -0.865,-0.512c-0.98,-0.623 -2.078,-1.128 -2.582,-1.573c-0.505,-0.446 -0.713,-0.742 -1.9,-1.603c-1.187,-0.861 -2.731,-2.107 -3.918,-2.612c-1.187,-0.505 -2.701,-1.336 -4.897,-1.989c-2.197,-0.653 -5.135,-1.276 -7.569,-1.454c-2.434,-0.178 -4.215,0.178 -6.085,0.564c-1.87,0.386 -8.341,2.998 -9.765,3.68c-1.425,0.683 -4.809,3.028 -5.669,3.621c-0.861,0.594 -3.918,5.076 -4.779,6.412c-0.861,1.335 -1.306,3.621 -1.662,5.313c-0.158,0.749 -0.363,1.615 -0.528,2.417c-0.344,0.346 -0.778,0.705 -0.778,0.705c-0,-0 0.27,0.26 0.617,0.086l0.008,-0.004c-0.108,0.616 -0.169,1.145 -0.134,1.48c-0.114,0.591 -0.156,1.077 -0.156,1.459c0,0.389 0.174,0.888 0.195,0.747c0.007,-0.044 0.06,-0.167 0.131,-0.316c0.022,0.31 0.047,0.641 0.075,0.98c-0.227,0.366 -0.464,0.871 -0.444,1.003c0.022,0.141 0.173,0.498 0.347,0.282c0.051,-0.064 0.113,-0.171 0.186,-0.297c0.04,0.398 0.085,0.791 0.138,1.158c-0.084,0.152 -0.082,0.21 -0.021,0.352c0.017,0.04 0.053,0.096 0.101,0.161Z" style="fill:#4e370e;"/><path d="M60.15,34.737c0.247,-0.189 0.261,-0.465 0.799,-0.392c0.538,0.072 0.276,0.276 0.756,0.014c0.479,-0.261 0.653,-0.276 0.799,-0.45c0.145,-0.175 0.043,-0.233 0.784,-0.683c0.741,-0.451 0.596,-0.523 1.264,-0.654c0.669,-0.131 1.105,-0.16 1.41,-0.291c0.305,-0.13 0.407,-0.159 0.842,-0.348c0.436,-0.189 0.553,-0.334 0.945,-0.363c0.392,-0.03 0.683,-0.044 0.683,-0.044l-0.945,-3.429c0,-0 -0.959,-0.044 -1.235,0.029c-0.276,0.073 -0.683,0.145 -1.22,0.349c-0.538,0.203 -0.16,0.072 -0.901,0.348c-0.741,0.276 -0.683,0.175 -1.133,0.407c-0.451,0.233 -0.465,0.247 -0.916,0.494c-0.45,0.247 -0.581,0.218 -0.915,0.538c-0.334,0.319 -0.436,0.436 -0.741,0.625c-0.305,0.189 0.029,0.043 -0.48,0.261c-0.508,0.218 -0.523,0.16 -0.915,0.392c-0.392,0.233 -0.973,0.436 -0.973,0.436l1.583,3.226c0,-0 0.262,-0.276 0.509,-0.465Zm24.729,-6.495c0.131,0 2.035,-0.247 2.892,-0.189c0.857,0.058 0.755,-0.087 1.584,0.058c0.828,0.146 0.828,0.015 1.583,0.247c0.756,0.233 1.657,0.625 2.441,0.916c0.785,0.29 1.846,0.784 2.703,1.351c0.857,0.567 1.017,0.828 1.584,1.25c0.566,0.421 0.755,0.566 1.206,0.93c0.45,0.363 0.886,0.639 0.886,0.639c-0,-0 0.29,-0.189 0.16,-0.422c-0.131,-0.232 -0.596,-0.61 -0.712,-1.031c-0.117,-0.421 0.247,-0.988 -0.073,-1.25c-0.32,-0.261 -0.872,-1.06 -1.322,-1.351c-0.451,-0.291 -1.235,-1.075 -1.874,-1.438c-0.64,-0.364 -2.107,-1.352 -2.601,-1.555c-0.494,-0.203 -2.921,-0.886 -3.647,-0.988c-0.727,-0.102 -3.052,-0.756 -3.72,-0.901c-0.668,-0.145 -1.293,0.087 -1.293,0.087c-0,0 0.073,3.647 0.203,3.647Z" style="fill:#ce733a;"/><path d="M49.069,44.236c-0.09,-0.261 -0.431,-2.47 -0.417,-3.331c0.015,-0.862 -0.086,-2.7 0.115,-3.202c0.201,-0.503 2.255,-3.087 2.944,-3.877c0.689,-0.79 3.144,-4.207 3.503,-4.093c0.359,0.115 3.547,1.164 3.605,1.451c0.057,0.287 -0.245,0.775 -0.101,1.134c0.144,0.359 0.775,2.068 1.02,2.226c0.244,0.158 0.373,0.66 0.373,0.66c-0,0 0.258,1.551 0.057,1.795c-0.201,0.244 -0.66,0.632 -1.062,0.977c-0.402,0.344 -2.269,2.398 -2.714,2.857c-0.445,0.46 -2.255,2.355 -2.642,2.886c-0.388,0.532 -1.465,2.125 -1.695,2.183c-0.229,0.057 -0.962,-0.058 -1.436,-0.23c-0.473,-0.172 -1.407,-1.019 -1.55,-1.436Zm17.963,-16.814c0.025,-0.546 1.493,-3.777 1.766,-4.136c0.273,-0.359 1.436,-0.502 1.723,-0.545c0.287,-0.044 3.576,-1.235 4.566,-1.451c0.991,-0.215 6.232,-1.306 7.051,-0.89c0.818,0.416 3.245,3.647 3.389,3.92c0.143,0.273 0.402,0.732 0.315,1.537c-0.086,0.804 -1.622,4.781 -2.082,5.269c-0.459,0.489 -0.66,0.546 -1.062,0.646c-0.402,0.101 -4.566,0.144 -5.227,0.259c-0.66,0.115 -2.886,0.187 -3.762,0.201c-0.876,0.014 -2.542,0.459 -3.044,0.589c-0.503,0.129 -0.776,0.186 -0.919,0.143c-0.144,-0.043 -1.135,-0.66 -1.436,-1.292c-0.302,-0.632 -1.321,-3.303 -1.278,-4.25Z" style="fill:#e93824;"/><path d="M54.338,33.327c0.148,-0.121 0.589,0.426 0.689,0.965c0.1,0.539 0.288,2.995 0.188,3.434c-0.1,0.439 -0.038,0.376 -0.251,0.627c-0.213,0.25 -2.556,3.747 -2.832,3.885c-0.276,0.138 -0.351,0.2 -0.714,-0c-0.364,-0.201 -0.953,-0.414 -1.091,-0.965c-0.138,-0.552 -0.313,-2.269 -0.1,-2.807c0.213,-0.539 3.133,-4.337 4.111,-5.139Zm17.62,-8.509c0.221,-0.122 1.692,-0.577 2.331,-0.765c0.639,-0.188 4.224,-0.827 4.925,-0.965c0.702,-0.138 1.442,-0.175 1.717,0c0.276,0.176 1.041,0.965 0.953,1.379c-0.088,0.413 -1.04,2.669 -1.303,2.807c-0.264,0.138 -4.249,1.328 -4.8,1.491c-0.552,0.163 -3.259,1.016 -3.936,0.878c-0.676,-0.138 -1.09,-1.203 -1.153,-1.83c-0.062,-0.627 0.627,-2.644 1.266,-2.995Z" style="fill:#f6c1b1;"/><path d="M20.845,121.057c42.017,-12.025 83.448,-21.927 119.29,-11.596c1.617,34.574 -104.967,57.952 -119.29,11.596Z" style="fill:#ae8052;"/><path d="M60.514,71.15c-0,0 -1.995,3.823 -2.203,4.987c-0.208,1.164 -0.789,2.701 -0.083,3.865c0.706,1.163 1.787,3.033 2.95,3.948c1.164,0.914 5.278,3.781 6.026,4.155c0.748,0.374 1.829,0.956 1.829,0.956c-0,-0 1.249,-20.062 -8.519,-17.911Z" style="fill:#5a3f21;"/><path d="M103.434,70.999c0,0 0.775,-0.608 1.339,-0.818c0.564,-0.21 1.338,-0.144 1.626,-0.277c0.287,-0.132 0.708,-0.641 1.227,-1.172c0.52,-0.531 1.328,-1.151 1.881,-1.328c0.553,-0.177 1.029,-0.154 1.482,-0.564c0.454,-0.409 2.135,-1.692 2.135,-1.692c5.868,-0.012 8.307,3.324 6.914,10.403c0,-0 -1.531,0.808 -2.105,0.957c-0.575,0.149 -3.17,0.404 -3.702,0.468c-0.531,0.064 -1.765,0.128 -2.807,0.149c-1.043,0.021 -1.83,-0.064 -2.191,0.021c-0.362,0.085 -0.957,0.255 -0.957,0.255c-6.538,1.166 -9.309,-0.192 -4.842,-6.402Z" style="fill:#744924;"/><path d="M113.849,67.064c4.738,-0.556 5.183,3.036 4.913,7.317c-1.724,0.992 -8.406,-0.942 -4.913,-7.317Z" style="fill:#b7937b;"/><path d="M111.876,47.455c-0.06,-0.546 0.743,-0.76 1.071,-1.036c0.328,-0.277 1.347,-0.588 1.692,-0.346c0.346,0.242 0.311,0.57 0.519,1.261c0.207,0.691 0.708,1.762 0.794,2.297c0.087,0.536 0.38,0.829 0.484,1.33c0.103,0.501 0.086,0.778 0.259,1.451c0.173,0.674 0.311,1.106 0.311,1.106c-0,-0 3.558,12.039 3.852,12.851c0.293,0.812 0.535,1.209 0.622,1.762c0.086,0.552 0.241,1.572 0.328,1.917c0.086,0.345 0.259,1.278 0.362,1.762c0.104,0.484 1.4,3.489 1.538,4.301c0.138,0.812 0.363,1.468 0.622,2.159c0.259,0.691 0.207,0.95 0.397,1.226c0.19,0.277 0.432,0.035 0.57,0.57c0.138,0.536 0.414,1.486 0.345,1.676c-0.069,0.19 0.052,0.794 0.156,1.278c0.103,0.484 1.503,4.422 1.675,5.113c0.173,0.691 1.33,4.405 1.728,5.355c0.397,0.95 0.362,1.243 0.57,1.606c0.207,0.363 0.397,0.518 0.742,1.157c0.346,0.639 0.812,0.881 1.123,1.624c0.311,0.743 0.207,2.798 0.173,3.593c-0.035,0.794 0.086,3.178 -0.639,4.214c-0.726,1.037 -0.968,1.261 -1.538,1.607c-0.57,0.345 -1.364,0.95 -1.917,0.829c-0.553,-0.121 -1.123,-0.242 -1.244,-0.363c-0.12,-0.121 -0.259,-1.434 -0.345,-1.969c-0.086,-0.536 0.017,-1.054 -0.259,-0.777c-0.276,0.276 -0.397,1.019 -0.587,1.261c-0.19,0.241 -0.363,0.846 -0.467,-0.104c-0.103,-0.95 -1.347,-2.764 -1.502,-3.524c-0.156,-0.76 -0.553,-2.193 -0.761,-2.919c-0.207,-0.725 -0.051,-3.835 0.018,-4.456c0.069,-0.622 0.518,-1.33 0.466,-1.762c-0.052,-0.432 -0.708,-4.318 -0.915,-5.027c-0.208,-0.708 -0.38,-1.744 -0.709,-3.057c-0.328,-1.313 -0.328,-1.399 -0.518,-2.125c-0.19,-0.725 -0.121,-0.76 -0.328,-1.019c-0.207,-0.259 -0.518,-0.38 -0.587,-0.725c-0.069,-0.346 0.207,-1.037 0.19,-1.399c-0.017,-0.363 -0.449,-2.263 -0.605,-2.902c-0.155,-0.639 -1.399,-5.234 -1.485,-5.804c-0.087,-0.57 -0.346,-1.589 -0.518,-2.073c-0.173,-0.483 -0.83,-2.953 -0.83,-2.953c0,-0 -2.953,-12.471 -3.022,-12.851c-0.069,-0.38 -0.121,-0.847 -0.225,-1.158c-0.103,-0.311 -0.138,-0.397 -0.293,-0.812c-0.156,-0.414 -0.242,-0.742 -0.329,-1.105c-0.086,-0.363 -0.898,-2.246 -0.984,-3.04Z" style="fill:#f7b763;"/><path d="M106.452,112.741l-1.065,0.504c-0,0 -0.107,0.347 0.027,0.694c0.133,0.346 0.56,1.333 -0,0.88c-0.56,-0.454 -0.64,-0.454 -0.934,-0.8c-0.293,-0.347 0.027,-0.694 -0.693,-0.827c-0.72,-0.133 -1.36,-0.133 -2.133,-0.267c-0.773,-0.133 -1.6,-0.16 -2.107,-0.213c-0.506,-0.053 -0.4,-0.24 -0.96,-0.293c-0.56,-0.054 -1.226,-0 -1.813,-0.054c-0.586,-0.053 -0.96,-0.373 -1.28,-0.64c-0.32,-0.266 -0.053,-0.72 -1.306,-0.586c-1.254,0.133 -2.16,0.613 -2.48,0.613c-0.32,0 -1.2,-0.24 -1.653,-0.107c-0.454,0.134 -1.094,0.56 -2.134,0.827c-1.039,0.267 -1.173,0.16 -1.199,0.453c-0.027,0.294 -0.08,1.334 0.346,1.467c0.427,0.133 1.28,0.587 1.28,0.587l-0.747,0.186l-0.266,1.173c-0,0 -0.294,-0.186 -0.56,-0.72c-0.267,-0.533 -0.08,-0.693 -0.747,-1.013c-0.666,-0.32 -1.013,-0.506 -1.013,-0.506c-0,-0 -0.24,-0.374 -0.613,-0.667c-0.374,-0.293 -0.827,-0.853 -1.654,-1.147c-0.826,-0.293 -1.173,-0.56 -1.759,-0.72c-0.587,-0.16 -1.92,0.08 -2.96,0.48c-1.04,0.4 -1.36,0.534 -1.653,0.854c-0.294,0.32 -0.854,0.613 -1.334,1.093c-0.48,0.48 -1.226,0.88 -1.653,1.386c-0.427,0.507 -0.827,0.614 -1.84,1.04c-1.013,0.427 -0.72,0.454 -2.613,0.854c-1.893,0.4 -3.946,0.773 -4.773,1.066c-0.827,0.294 -1.2,0.774 -2.213,0.854c-1.013,0.08 -1.04,-0.187 -2.187,0.373c-1.146,0.56 -1.52,0.826 -1.946,1.333c-0.427,0.507 -0.24,0.72 -1.413,0.773c-1.174,0.054 -1.387,-0.106 -1.68,0.08c-0.294,0.187 0.693,1.627 0.506,1.867c-0.186,0.24 0.587,-0.16 0.854,0.693c0.266,0.854 0.586,1.12 -0.16,1.707c-0.747,0.586 -0.88,0.346 -1.814,0.693c-0.933,0.347 -1.413,0.667 -2.826,1.333c-1.413,0.667 -1.333,0.507 -3.573,1.307c-2.24,0.8 -1.893,0.907 -3.04,1.226c-1.147,0.32 -0.72,0.32 -1.733,0.4c-1.014,0.08 -1.707,0.08 -2.373,0.32c-0.667,0.24 -1.61,0.438 -2.614,1.014c-3.571,2.049 -30.831,-25.569 -23.788,-29.861c-0,0 0.902,0.311 1.156,-0.028c0.254,-0.338 0.141,-0.592 0.593,-0.931c0.451,-0.338 0.931,-0.592 1.41,-0.62c0.48,-0.029 0.734,-0.142 1.157,-0.48c0.423,-0.339 0.367,-0.564 0.903,-0.818c0.536,-0.254 1.185,-0.734 1.89,-0.762c0.705,-0.028 0.734,0.141 1.636,0.198c0.903,0.056 2.116,-0.452 2.455,-0.508c0.339,-0.057 0.48,-0.113 1.1,0.338c0.621,0.452 0.593,0.536 1.157,0.536c0.564,0 0.903,-0.451 1.749,-0.423c0.847,0.028 2.173,0.113 2.991,0.423c0.818,0.311 0.818,0.565 1.636,0.593c0.818,0.028 3.414,-0.141 3.414,-0.141c-0,-0 0.818,-0.508 1.128,-0.847c0.311,-0.338 0.339,-0.677 0.931,-0.705c0.593,-0.028 1.778,-0.056 2.37,-0.085c0.593,-0.028 2.737,-0.282 3.414,-0.649c0.677,-0.366 0.592,-0.507 0.846,-0.818c0.254,-0.31 0.536,-0.479 1.241,-0.62c0.706,-0.141 1.016,-0.057 1.298,-0.339c0.282,-0.282 0.818,-0.846 1.185,-0.959c0.367,-0.113 0.988,-0 1.806,0.197c0.818,0.198 0.987,0.536 1.664,0.226c0.677,-0.31 0.96,-0.649 1.58,-0.846c0.621,-0.198 0.367,0.028 1.693,-0.48c1.326,-0.508 1.834,-0.987 2.398,-0.987c0.564,-0 1.27,0.028 2.003,0.169c0.734,0.141 1.072,0.649 1.749,0.508c0.677,-0.141 1.016,-0.226 1.467,-0.311c0.452,-0.084 0.282,-0.338 0.988,-0.254c0.705,0.085 1.269,0.536 1.834,0.593c0.564,0.056 0.395,0.028 0.931,0.028l0.902,0c0,0 9.818,3.329 10.072,3.47c0.254,0.141 1.637,0.988 2.173,1.101c0.536,0.112 1.241,0.225 1.918,0.536c0.677,0.31 0.846,0.366 1.552,0.648c0.705,0.283 1.636,0.113 2.2,0.395c0.565,0.283 0.875,0.565 1.693,0.847c0.818,0.282 1.552,0.169 2.455,-0.113c0.902,-0.282 2.228,-0.592 2.708,-0.508c0.48,0.085 1.1,0.057 2.003,0.48c0.903,0.423 1.636,0.705 2.201,0.733c0.564,0.029 2.454,-0.338 3.413,-0.423c0.96,-0.085 1.298,-0.113 2.201,-0.028c0.903,0.085 0.423,0.056 2.059,0.169c1.637,0.113 2.568,0.367 2.991,0.169c0.423,-0.197 1.636,-0.31 2.37,-0.366c0.733,-0.057 0.677,0.084 1.213,-0.254c0.536,-0.339 0.028,-0.452 0.818,-0.677c0.79,-0.226 1.411,-0 2.426,0.084c1.016,0.085 1.693,0 2.709,0.057c1.015,0.056 1.1,-0.254 2.426,0.028c1.326,0.282 4.204,1.382 4.965,1.693c0.762,0.31 4.888,2.117 5.208,2.437c0.32,0.32 0.56,0.693 1.307,1.067c0.746,0.373 1.066,0.639 2.133,0.773c1.066,0.133 3.199,0.746 3.199,0.746l-3.333,4.56c0,0 -2.933,0.48 -3.813,0.24c-0.88,-0.24 -1.76,-0.72 -3.999,-0.933c-2.24,-0.214 -2.054,-0 -3.92,-0.613c-1.867,-0.614 -1.547,-0.88 -3.28,-1.2c-1.733,-0.32 -2.746,-0.534 -4.426,-0.614c-1.68,-0.08 -2.587,-0.16 -4.053,-0.186c-1.467,-0.027 -1.414,-0.214 -2.507,-0.134c-1.093,0.08 -1.6,0.64 -2.133,0.667c-0.533,0.027 -1.2,1.6 -1.84,1.866c-0.64,0.267 -1.067,0.32 -1.387,0.534c-0.32,0.213 -0.559,0.053 -0.346,0.24c0.213,0.186 0.186,0.746 0.533,0.426c0.347,-0.32 0.773,-0.586 0.773,-0.586l-0.48,0.666c0,0 -0.453,0.16 -0.08,0.374c0.374,0.213 1.68,0.426 2.054,0.56c0.373,0.133 -0.294,0.373 0.773,0.266c0.29,-0.029 0.505,-0.066 0.665,-0.104l0.455,-0.216c-0,0 -0.028,0.113 -0.455,0.216Z" style="fill:#6b4326;"/><path d="M99.817,65.57l-5.141,-12.767l8.06,-1.71c0,0 1.026,1.026 1.563,1.514c0.537,0.489 0.537,0.538 1.172,0.782c0.635,0.244 0.538,-0.195 1.319,0.488c0.782,0.684 0.831,-0.195 1.221,1.173c0.391,1.367 -0.048,3.028 0.342,4.152c0.391,1.123 0.635,1.025 0.44,2.393c-0.195,1.368 -0.049,1.514 -0.684,2.052c-0.635,0.537 -2.296,1.172 -2.296,1.172l-0.625,0.069c-0.051,0.061 -0.204,0.186 -0.547,0.419c-1.075,0.733 -1.563,0.733 -1.563,0.733l-0.345,0.221c0.068,0.077 0.122,0.137 0.154,0.172c0.188,0.203 0.058,0.13 0.159,0.419c0.101,0.289 0.029,0.376 0.029,0.376c0,0 0.288,0.651 0.383,0.999c0.095,0.348 0.159,0.612 0.211,0.76c0.053,0.148 0.127,0.327 0.222,0.601c0.095,0.275 0.127,0.391 0.338,0.792c0.211,0.401 -0.021,0.401 -0.138,0.718c-0.116,0.316 0.117,0.327 0.349,0.485c0.232,0.159 0.264,0.296 0.158,0.465c-0.105,0.168 -0.232,0.2 -0.148,0.358c0.085,0.159 0.209,0.883 0.209,0.883l-21.074,19.786c-0,0 -0.639,-0.655 -0.927,-0.91c-0.287,-0.256 -0.511,-0.479 -0.734,-0.879c-0.224,-0.399 -0.336,-0.287 -0.783,-0.623c-0.447,-0.335 -0.431,-0.415 -0.751,-0.75c-0.319,-0.336 -0.271,-0.431 -0.431,-0.879c-0.16,-0.447 -0.272,-0.687 -0.399,-1.086c-0.128,-0.399 -0.464,-0.862 -0.703,-0.926c-0.24,-0.064 -0.639,-0.032 -0.639,-0.032c-0,-0 -0.096,0.144 -0.096,0.623c0,0.479 -0.08,3.226 -0.08,3.226l-9.392,0.176c0,-0 -1.038,-3.658 -1.006,-3.961c0.032,-0.304 0.128,-0.975 0.208,-1.613c0.08,-0.639 0.223,-0.432 0.463,-0.895c0.24,-0.463 0.24,-0.99 -0.016,-1.597c-0.255,-0.607 -1.086,-1.901 -1.086,-1.901c2.575,-8.138 25.674,-13.916 32.604,-15.478Z" style="fill:#d7956e;"/><path d="M105.525,64.785c-0,0 0.018,-0.664 0.338,-0.846c0.704,-0.4 0.864,-8.704 -0.169,-8.823c-0.26,-0.03 -0.29,-0.484 -0.29,-0.484c-0,0 0.338,-0.459 0.556,-0.676c0.217,-0.218 0.532,-0.46 0.87,-0.436c0.339,0.025 0.339,-0.193 0.653,-0.096c0.314,0.096 1.208,0.894 1.426,0.967c0.218,0.072 0.604,0.145 0.604,0.145c0,-0 0.266,-0.29 0.556,-0.29c0.29,-0 0.29,-0.025 0.629,0.024c0.338,0.048 0.362,0.048 0.677,-0.049c0.314,-0.096 0.459,-0.145 0.459,-0.145c0,0 0.169,-0.145 0.483,-0.193c0.315,-0.048 0.339,-0.072 0.774,-0.097c0.435,-0.024 0.435,-0.024 0.677,-0.072c0.242,-0.048 0.024,0.024 0.604,-0.169c0.58,-0.194 -0.217,-0.29 1.161,-0.315c1.377,-0.024 1.571,-0.12 2.32,0.339c0.75,0.459 1.426,0.991 2.2,1.861c0.774,0.87 2.707,3.239 2.949,3.65c0.242,0.411 0.266,0.46 0.435,1.451c0.169,0.991 0.145,2.852 0.121,3.408c-0.024,0.556 -0.411,2.273 -0.411,2.273c0,-0 -0.387,0.459 -0.556,0.676c-0.169,0.218 0.145,0.605 -0.29,0.822c-0.435,0.218 -0.943,0.532 -0.943,0.532l-0.411,-1.837c0,-0 -1.039,-0.653 -1.909,-0.459c-0.871,0.193 -1.572,0.749 -1.741,1.039c-0.169,0.29 0.024,1.04 0.024,1.305c0,0.266 0.073,0.701 0.073,0.701c-0,0 -0.097,-0.265 -0.435,-0.41c-0.339,-0.146 -0.484,-0.266 -0.919,-0.194c-0.435,0.073 -0.387,0.459 -0.846,-0.024c-0.459,-0.484 -0.483,-0.338 -0.798,-0.919c-0.314,-0.58 -0.942,-1.232 -1.16,-1.426c-0.217,-0.193 -0.217,-0.556 -0.846,-0.556c-0.629,0 -0.29,-0.169 -0.87,0.024c-0.58,0.194 -0.629,0.46 -1.33,0.17c-0.701,-0.291 -1.281,-0.387 -1.958,-0.363c-0.677,0.024 -1.813,-0.097 -2.151,-0.073c-0.339,0.025 -0.169,0.025 -0.556,-0.435Z" style="fill:#603d17;"/><path d="M92.994,96.749c-0,0 -0.949,0.647 -1.926,0.427c-0.976,-0.22 -1.375,-0.262 -2.063,-0.385c-0.688,-0.124 -1.458,-1.17 -2.297,-1.39c-0.839,-0.22 -2.105,-1.018 -2.311,-1.224c-0.207,-0.206 -1.335,-1.417 -1.335,-1.417c0,0 0.207,-0.344 0.303,-0.784c0.096,-0.44 0.399,-0.77 0.234,-1.444c-0.165,-0.674 0.11,-1.169 0.261,-1.445c0.152,-0.275 0.537,-0.866 0.633,-1.196c0.096,-0.33 0.11,-0.592 0.468,-0.592c0.357,0 0.935,0.303 0.811,0.055c-0.124,-0.247 -0.33,-0.935 -0.33,-1.1c0,-0.165 0.358,-1.335 0.537,-1.568c0.178,-0.234 0.233,0.027 0.316,-0.358c0.082,-0.385 -0.124,-0.757 0.124,-1.004c0.247,-0.248 0.316,-0.193 0.564,-0.564c0.247,-0.372 0.192,-0.399 0.454,-0.715c0.261,-0.317 0.357,-0.551 0.55,-0.702c0.192,-0.151 -0.069,-0.124 0.523,-0.22c0.591,-0.096 0.687,-0.096 0.894,-0.344c0.206,-0.248 0.11,-0.399 0.399,-0.564c0.289,-0.165 0.247,-0.041 0.66,-0.344c0.413,-0.302 0.206,-0.289 0.564,-0.454c0.358,-0.165 0.509,0.853 0.646,0.729c0.138,-0.124 0.152,-0.454 0.207,-0.825c0.055,-0.371 0.22,-0.977 0.454,-0.922c0.234,0.055 0.302,0.069 0.44,0.207c0.137,0.137 0.355,-0.898 0.609,-1.047c0.254,-0.149 1.106,-0.852 1.569,-0.941c0.463,-0.09 0.762,-0.224 1.33,-0.329c0.567,-0.105 0.747,-0.209 1.18,-0.254c0.433,-0.045 0.508,-0.134 0.896,-0.105c0.389,0.03 0.568,-0.119 0.897,-0.119c0.328,-0 2.495,0.209 2.495,0.209c-0,0 1.515,0.339 1.829,0.496c0.314,0.157 -0.078,0.236 0.628,0.393c0.706,0.156 0.353,0.156 1.255,0.078c0.903,-0.078 0.785,-0.196 1.57,-0.078c0.784,0.117 0.784,-0.197 1.608,0.235c0.824,0.432 0.51,0.314 1.256,0.588c0.745,0.275 1.138,0.134 1.727,0.448c0.588,0.314 2.466,1.634 2.466,1.634l-21.095,16.935Z" style="fill:#8b4027;"/><path d="M92.135,69.503c0,0 3.282,2.604 4.95,2.916c1.669,0.311 3.19,0.825 3.887,1.008c0.697,0.183 1.925,0.348 1.925,0.348l1.118,2.695c0,0 -0.806,0.074 -1.815,-0.11c-1.008,-0.183 -3.08,-0.898 -3.813,-0.916c-0.733,-0.019 -1.943,-0.367 -3.208,-0.825c-1.265,-0.459 -3.747,-1.742 -3.997,-2.31c-0.251,-0.569 0.953,-2.806 0.953,-2.806Z" style="fill:#40190a;"/><path d="M119.695,99.578c0,-0 -0.261,0.276 -0.952,0.322c-0.691,0.047 -2.058,0.077 -2.58,-0.307c-0.522,-0.384 -2.181,-1.551 -2.38,-1.812c-0.2,-0.261 -1.029,-1.075 -1.398,-1.766c-0.369,-0.691 -1.06,-2.058 -1.382,-2.442c-0.323,-0.384 -1.137,-0.967 -1.137,-0.967l-9.644,-5.821c-0,0 1.612,0.077 2.442,-0.322c0.829,-0.4 3.209,-2.366 3.916,-2.965c0.706,-0.598 2.918,-2.457 3.425,-2.964c0.506,-0.506 1.843,-1.95 1.858,-2.088c0.015,-0.138 -0.737,-0.461 -0.737,-0.461c-0,0 0.184,-0.384 0.537,-0.507c0.353,-0.123 1.29,-0.614 1.812,-0.384c0.523,0.231 1.029,0.645 1.137,1.398c0.107,0.752 0.415,1.49 0.676,2.119c0.261,0.63 0.491,1.091 0.506,1.644c0.016,0.552 0.093,1.382 0.169,2.441c0.077,1.06 -0.122,1.168 0.139,1.613c0.261,0.445 0.629,0.906 0.675,1.29c0.046,0.384 -0.138,2.135 -0.061,2.672c0.077,0.538 0.292,1.536 0.584,1.981c0.291,0.446 0.614,0.63 0.875,1.014c0.261,0.384 1.49,2.089 1.659,3.01c0.168,0.922 0.583,2.334 -0.139,3.302Z" style="fill:#3a3626;"/><path d="M93.788,97.516c-0.1,-0.146 -0.453,-0.631 -0.655,-0.941c-0.203,-0.309 -1.727,-2.631 -1.905,-3.143c-0.179,-0.512 -0.881,-2.667 -0.929,-3.179c-0.047,-0.512 0.048,-2.238 0.155,-2.845c0.107,-0.608 0.643,-2.346 1.155,-2.822c0.512,-0.477 3.131,-2.441 3.869,-2.774c0.739,-0.334 2.572,-0.905 2.846,-0.774c0.274,0.131 0.738,1.083 1.202,1.845c0.465,0.762 2.06,3.679 2.382,4.251c0.321,0.571 0.416,0.702 0.797,0.619c0.381,-0.084 0.849,-0.415 1.203,-0.645c0.353,-0.231 1.766,-1.475 2.058,-1.767c0.291,-0.291 1.29,-1.336 1.965,-1.52c0.676,-0.184 1.091,-0.399 1.72,-0.092c0.63,0.307 1.582,0.937 1.828,1.505c0.246,0.568 0.461,2.104 0.338,2.626c-0.123,0.522 -1.075,3.793 -1.306,4.162c-0.23,0.369 -0.629,0.983 -0.906,1.659c-0.276,0.675 -0.629,1.858 -0.844,2.58c-0.215,0.722 -0.953,3.01 -1.413,3.363c-0.461,0.353 -1.275,1.044 -2.027,1.09c-0.753,0.047 -1.598,-0.66 -1.982,-0.982c-0.384,-0.323 -1.489,-1.413 -2.257,-1.674c-0.768,-0.262 -1.198,-0.83 -2.319,-0.937c-1.121,-0.108 -3.41,0.153 -3.87,0.338c-0.461,0.184 -0.982,0.237 -1.105,0.057Z" style="fill:#4f461e;"/><path d="M65.759,72.865c0,0 -2.918,3.029 -2.647,5.245c0.271,2.216 2.142,4.765 2.142,4.765c0,-0 -0.258,-0.394 -0.234,-0.886c0.025,-0.493 0.468,-0.234 0.468,-0.234c0,-0 0.899,0.578 1.601,0.948c0.702,0.369 0.862,-0.025 0.862,-0.025c-0,-0 -0.481,-0.554 -0.505,-0.923c-0.025,-0.37 1.009,-0.16 1.022,0.234c0.012,0.394 0.258,-0.222 0.172,-0.468c0,-0 2.672,1.649 3.053,2.007c0,-0 -0.32,-0.567 -0.394,-1.109c-0.073,-0.541 0.197,-0.504 0.481,-0.246c0.283,0.259 0.541,0.517 0.541,0.517c0,0 -0.308,-0.307 -0.172,-0.578c0.135,-0.271 2.906,1.871 3.533,2.13c0,-0 -1.723,-1.588 -1.822,-1.97c-0.098,-0.382 -0.024,-0.357 0.394,-0.16c0.419,0.197 2.487,1.354 2.844,1.453c0.357,0.098 0.357,-0.382 0.271,-0.727c-0.086,-0.344 -0.16,-0.554 0.012,-0.603c0.173,-0.049 0.456,-0.394 0.37,-0.579c-0.086,-0.184 1.268,0.444 2.019,0.604c0.751,0.16 0.677,-0.148 0.677,-0.148c0,-0 -1.157,-0.665 -1.206,-1.244c-0.05,-0.578 1.514,-0.172 2.142,0.05c0.628,0.221 2.425,0.714 2.425,0.714c0,-0 -0.923,-0.862 -1.182,-0.998l-0.258,-0.135c-0,0 0.8,0.099 1.12,0.234c0.32,0.135 -1.022,-0.739 -1.428,-0.788c-0.406,-0.049 -0.726,-0.48 -0.726,-0.48c-0,-0 0.849,0.148 1.305,0.061c0.455,-0.086 1.231,-0.037 1.342,0.111c-0,0 0.258,-0.295 -0.136,-0.652c-0.394,-0.357 -1.169,-0.604 -1.059,-0.739c0.111,-0.135 1.404,-0.062 1.638,0.062c-0,-0 -0.234,-0.173 -0.012,-0.308c0.221,-0.136 1.908,-0.099 2.437,-0.173c0.53,-0.073 1.231,-0.541 1.588,-0.763c0.358,-0.222 1.256,-0.8 1.256,-0.8c0,-0 -0.628,-0.246 -0.886,-0.443c-0.259,-0.197 0.763,-0.394 1.009,-0.197l0.2,-0.75c-0,-0 0.295,-0.037 0.848,0.074c0.553,0.11 -0.037,-0.664 -0.037,-0.664l1.623,0.369l-0.553,-1.107l-0.959,-0.848c-0,0 2.139,-0.184 2.655,-0.11c0.516,0.073 -0.16,-0.014 -0.16,-0.014l-1.352,-0.945c-0,-0 1.217,0.479 1.696,0.479c0.48,0 1.107,0.184 1.107,0.184l-0.996,-1.364c-0,0 0.221,0.148 0.996,0.332c0.774,0.184 2.102,0.369 2.102,0.369l1.106,-0.074c0,-0 -1.401,-1.106 -1.696,-1.475c-0.295,-0.369 0.405,-0.221 0.922,-0.074c0.516,0.148 1.143,0.184 1.622,0.369c0.48,0.184 0.959,0.369 0.775,0.074c-0.185,-0.295 -0.406,-1.734 -0.627,-2.139c-0.222,-0.406 -0.59,-1.254 -0.59,-1.254c-0,-0 0.442,-0 0.958,0.922c0.517,0.922 1.291,2.249 1.291,2.249c0,0 -0.553,-1.512 -0.664,-1.88c-0.11,-0.369 -0.295,-0.885 -0.295,-0.885l1.586,0.921c0,0 0.074,-0.221 -0.037,-0.553c-0.11,-0.332 -0.184,-1.032 -0.184,-1.032l0.996,-0.627c-0,-0 0.147,0.295 0.331,0.737c0.185,0.443 0.738,-0.774 0.738,-0.774l0.479,1.254l0.406,-2.397l0.258,0.848l0.295,-0l0.185,-2.84c-0,0 0.442,0.111 0.516,0.627c0.074,0.517 0.479,-0.147 0.479,-0.147l0.406,-1.217l0.885,0.516l-0.037,-2.766c0,0 0.185,0.369 0.443,0.627c0.258,0.258 0.184,-0.7 -0.074,-1.217c-0.258,-0.516 -0.369,-1.143 -0.369,-1.143l0.406,-0.111c-0,0 -0.627,-0.811 -0.922,-1.18c-0.295,-0.368 -0.258,-0.737 -1.033,-1.069c-0.774,-0.332 -1.475,-0.48 -2.36,-0.701c-0.885,-0.221 -1.733,-0.369 -1.733,-0.369c-22.863,8.062 -26.841,12.583 -35.689,18.016Z" style="fill:#a71c31;"/><path d="M102.74,72.899c0.119,-0.156 3.589,-0.568 3.764,-0.408c0.174,0.16 1.951,4.113 1.79,4.295c-0.16,0.182 -3.545,0.67 -3.727,0.561c-0.182,-0.11 -2.147,-4.026 -1.827,-4.448Zm3.274,0.326c0.209,0.072 1.393,2.805 1.192,3.007c-0.202,0.202 -1.834,0.458 -2.091,0.293c-0.256,-0.165 -1.191,-2.786 -1.063,-3.025c0.128,-0.238 1.43,-0.458 1.962,-0.275Z" style="fill:#8b653c;"/><path d="M78.225,87.819c-0.447,-0.08 0.284,0.755 -0.071,1.133c-0.354,0.378 -2.077,0.779 -2.714,0.944c-0.637,0.166 -2.36,0.024 -2.833,0c-0.472,-0.023 -0.66,-0.023 -1.251,-0.236c-0.59,-0.212 -0.967,-0.519 -1.628,-0.849c-0.661,-0.331 -1.322,-0.945 -1.322,-1.275c-0,-0.331 -0.212,-1.346 -0.212,-1.346c-0,0 -0.85,0.779 -0.945,1.275c-0.094,0.496 -0.023,1.841 0.284,2.408c0.306,0.566 0.543,2.431 0.684,2.974c0.142,0.543 0.401,1.204 0.425,1.581c0.024,0.378 0.142,0.803 0.142,0.803c-0,-0 -1.346,0.047 -2.101,0.496c-0.755,0.448 -2.195,1.156 -2.667,1.628c-0.472,0.472 -1.299,1.11 -1.558,1.747c-0.26,0.637 -0.661,1.841 -0.024,2.832c0.637,0.992 1.7,3.258 2.856,3.848c1.157,0.59 3.234,2.006 4.155,2.195c0.92,0.189 2.384,0.519 2.761,0.118c0.378,-0.401 0.826,-0.803 0.968,-1.534c0.142,-0.732 0.189,-0.85 0.401,-1.912c0.213,-1.062 0.331,-1.841 0.756,-2.313c0.424,-0.472 0.59,-1.275 1.298,-1.11c0.708,0.165 1.558,0.779 1.912,1.228c0.354,0.448 0.755,0.897 1.534,0.802c0.779,-0.094 2.195,-0.448 2.384,-0.614c0.189,-0.165 0.519,-0.401 0.519,-0.613c0,-0.213 -0.684,-1.228 -0.779,-1.534c-0.094,-0.307 -0.495,-1.582 -0.495,-1.582c-0,0 -1.11,-1.841 -1.157,-2.172c-0.047,-0.33 -0.094,-0.778 -0.165,-1.133c-0.071,-0.354 0.236,-0.66 0.259,-1.156c0.024,-0.496 0.048,-0.873 -0.047,-1.157c-0.094,-0.283 -0.189,0 -0.283,-0.873c-0.094,-0.873 -0.142,-2.549 -0.094,-3.069c0.047,-0.519 0.07,-0.92 0.07,-0.92c0,-0 -0.401,-0.496 -1.062,-0.614Z" style="fill:#322107;"/><path d="M52.24,57.107c6.372,-20.734 20.99,-27.224 44.826,-17.792c17.91,12.838 -25.388,37.761 -44.826,17.792Z" style="fill:#d96c30;"/><path d="M66.624,48.146c0,0 0.159,1.051 0.223,1.592c0.064,0.541 0.159,1.91 0.223,2.324c0.064,0.414 -0.159,3.056 -0.255,3.407c-0.095,0.35 -1.178,1.751 -1.528,2.069c-0.35,0.318 -2.865,2.356 -3.47,2.356c-0.605,-0 -1.051,-0.064 -1.401,-0.064c-0.35,0 -1.274,-1.21 -1.656,-2.069c-0.382,-0.86 -1.178,-2.101 -1.241,-2.643c-0.064,-0.541 -0.223,-1.719 -0.255,-2.292c-0.032,-0.573 -1.786,1.492 -3.247,1.274c-1.751,-0.262 -2.127,9.238 -0.31,12.281c0.19,0.319 1.411,1.279 1.252,1.725c-0.159,0.446 -0.051,1.371 -0.051,1.371l-1.146,1.624c0,-0 0.669,-0.096 0.923,-0.223c0.255,-0.128 0.828,-0.764 0.828,-0.764c0,-0 -0.477,1.623 -0.764,1.942c-0.287,0.318 -1.624,1.655 -2.229,1.91c0,-0 2.356,0.064 3.025,-0.127c0.668,-0.191 0.955,-0.128 1.91,-0.605c0.955,-0.478 1.719,-1.337 2.038,-1.401c0.318,-0.064 0.286,0.318 -0.064,0.764c-0.35,0.446 0.7,0.987 0.7,0.987l0.51,-1.21c-0,0 0.605,-0.573 0.573,-0.223c-0.032,0.35 -0.127,0.892 -0.127,0.892c-0,-0 0.191,0.827 0.668,0.286c0.478,-0.541 0.796,-0.859 0.796,-0.859l0.127,0.827c0,0 0.924,-0.127 1.178,-0.35c0.255,-0.223 0.542,0.191 0.669,0.764c0.127,0.573 -0.318,0.892 0.35,0.764c0.669,-0.127 0.955,-0.541 0.955,-0.541c0,0 0.669,-0.7 0.701,-0.191c0.032,0.509 0.223,0.796 0.764,0.287c0.541,-0.51 0.286,-0.796 0.764,-0.542c0.477,0.255 1.178,0.573 1.496,0.987c0.319,0.414 1.21,0.414 1.56,-0.095c0.35,-0.51 1.21,-0.637 2.197,-0.955c0.987,-0.319 0.637,-0.542 1.91,-0.701c1.274,-0.159 1.083,-0.095 1.942,-0.509c0.86,-0.414 0.382,-0.287 1.783,-0.828c1.401,-0.541 1.974,-0.7 2.738,-1.082c0.764,-0.382 1.56,-0.86 1.974,-1.21c0.414,-0.35 0.796,-0.796 1.592,-1.305c0.796,-0.51 1.241,-0.765 1.56,-0.892c0.318,-0.127 0.286,0.637 0.286,0.637c0,-0 0.032,-0.35 0.414,-0.732c0.382,-0.382 0.414,-0.351 0.955,-0.765c0.542,-0.413 0,-0.573 0.892,-1.018c0.891,-0.446 0.605,-0.351 1.082,-0.542c0.478,-0.191 0.478,0.096 0.541,-0.35c0.064,-0.445 -0.7,-0.414 0.287,-0.764c0.987,-0.35 1.624,-0.382 1.624,-0.382c-0,0 -0.701,-0.477 -0.35,-0.605c0.35,-0.127 0.795,-0.318 0.795,-0.318c0,-0 -0.222,-0.637 0.319,-0.923c0.541,-0.287 0.764,-0.446 1.05,-0.446c0.287,-0 -0.063,-0.637 0.382,-0.892c0.446,-0.254 0.828,-0.254 1.051,-0.445c0.223,-0.191 -0.064,-0.255 0.637,-0.637c0.7,-0.382 0.955,-0.255 0.764,-0.796c-0.191,-0.541 -0.573,-0.414 -0.255,-0.669c0.319,-0.254 1.242,-0.413 1.91,-0.795c0.669,-0.382 1.751,-1.369 2.516,-1.688c0.764,-0.318 1.082,-0.318 1.623,-0.7c0.541,-0.382 0.796,-0.669 1.337,-1.146c0.542,-0.478 0.542,-0.764 1.369,-1.115c0.828,-0.35 1.242,-0.668 1.847,-0.286c0.605,0.382 1.369,0.7 1.369,0.7c-0,0 -0.509,-1.623 -1.146,-1.878c-0.637,-0.255 -0.955,-0.064 -0.955,-0.064c-0,0 0.159,-0.509 0.732,-0.796c0.573,-0.286 0.732,-0.286 0.987,-0.636c0.255,-0.351 0.191,-0.383 0.605,-0.765c0.414,-0.382 0.7,-1.05 0.35,-0.955c-0.35,0.096 -1.687,1.051 -2.197,0.987c-0.509,-0.063 -0.7,-0.095 -1.401,-0.286c-0.7,-0.191 -1.464,-1.051 -1.623,-1.528c-0.159,-0.478 -1.857,-1.242 -2.939,-1.656c-1.083,-0.414 -2.261,-0.414 -2.261,-0.414c0,0 -0.191,0.127 -1.241,-0.35c-1.051,-0.478 -2.133,-0.923 -2.674,-1.051c-0.542,-0.127 -1.21,-0.636 -1.56,-0.032c-0.351,0.605 -0.383,0.319 -0.605,1.592c-0.223,1.274 -1.433,3.407 -2.42,4.139c-0.987,0.732 -1.146,1.337 -2.324,1.56c-1.178,0.223 -3.088,1.369 -3.63,1.401c-0.541,0.032 -1.177,0.127 -2.324,0.064c-1.146,-0.064 -1.655,-0.128 -2.324,-0.255c-0.668,-0.127 -0.923,-0.223 -1.655,-0.732c-0.732,-0.51 -2.452,-1.592 -2.866,-2.165c-0.413,-0.573 -0.413,-0.828 -1.114,-1.815c-0.7,-0.987 -0.477,-1.178 -1.114,-1.496c-0.637,-0.319 -1.847,-0.637 -1.847,-0.637c0,-0 -0.509,-0.287 -1.241,0.159c-0.733,0.446 -0.764,0.541 -1.847,0.987c-1.082,0.446 -1.082,0.35 -1.369,0.732c-0.286,0.382 -0.904,0.86 -0.627,1.815Z" style="fill:#fbd7af;"/></g></g></svg>