<?xml version="1.0" encoding="UTF-8" standalone="no"?><!DOCTYPE svg PUBLIC "-//W3C//DTD SVG 1.1//EN" "http://www.w3.org/Graphics/SVG/1.1/DTD/svg11.dtd"><svg width="100%" height="100%" viewBox="0 0 150 150" version="1.1" xmlns="http://www.w3.org/2000/svg" xmlns:xlink="http://www.w3.org/1999/xlink" xml:space="preserve" xmlns:serif="http://www.serif.com/" style="fill-rule:evenodd;clip-rule:evenodd;stroke-linejoin:round;stroke-miterlimit:2;"><path id="base" d="M150,75c0,-41.394 -33.606,-75 -75,-75c-41.394,0 -75,33.606 -75,75c0,41.394 33.606,75 75,75c41.394,0 75,-33.606 75,-75Z" style="fill:#daaf57;"/><path id="outline" d="M144,75c0,-38.082 -30.918,-69 -69,-69c-38.082,0 -69,30.918 -69,69c0,38.082 30.918,69 69,69c38.082,0 69,-30.918 69,-69Z" style="fill:#0b1324;"/><path id="core" d="M141,75c0,-36.426 -29.574,-66 -66,-66c-36.426,0 -66,29.574 -66,66c0,36.426 29.574,66 66,66c36.426,0 66,-29.574 66,-66Z" style="fill:#97c6ce;"/><clipPath id="_clip1"><path d="M141,75c0,-36.426 -29.574,-66 -66,-66c-36.426,0 -66,29.574 -66,66c0,36.426 29.574,66 66,66c36.426,0 66,-29.574 66,-66Z"/></clipPath><g clip-path="url(#_clip1)"><g id="vi"><path d="M80.459,62.163c-0.618,0.45 -1.476,1.237 -1.881,1.107c-0.522,-0.169 -0.303,-1.063 -0.303,-1.063c3.591,-4.968 11.474,0.586 8.795,4.975c-1.069,1.753 -3.086,2.648 -5.666,1.164c-2.581,-1.484 -2.159,-3.221 -2.092,-3.812c0.041,-0.351 0.656,-1.5 1.147,-2.371Z" style="fill:#282633;"/><path d="M78.705,57.67c0,0 -0.877,1.737 -0.978,2.075c-0.101,0.337 -0.624,1.366 -0.422,1.787c0.203,0.422 0.759,0.287 0.776,0.658c0.017,0.371 0.068,0.776 0.203,0.911c-0,-0 0.91,-0.827 1.332,-1.147c0.422,-0.32 1.619,-1.197 3.188,-0.776c1.568,0.422 2.26,1.265 2.597,2.446c0.337,1.18 0.472,2.53 0.624,2.799c0.152,0.27 0.573,0.945 0.911,1.046c0.337,0.101 3.676,-1.349 3.676,-1.349l0.911,-5.33c-0,0 -0.894,-1.18 -1.653,-1.922c-0.759,-0.742 -3.457,-2.311 -4.908,-2.463c-1.45,-0.151 -5.118,0.27 -6.257,1.265Z" style="fill:#3b4636;"/><path d="M92.409,81.517c-0,0 -2.543,-1.195 -3.325,-2.108c-0.782,-0.912 -0.804,-1.521 -0.804,-1.521c-0,0 -0.847,-0.826 -1.065,-1.608c-0.217,-0.782 -0.347,-2.825 -0.13,-3.672c0.217,-0.848 0.282,-2.347 0.478,-2.564c0.195,-0.218 0.934,-0.565 0.934,-0.565l9.214,2.238c-0,-0 -2.695,9.865 -5.302,9.8Z" style="fill:#252f30;"/><path d="M61.19,69.571c-0,-0 -1.451,0.527 -2.077,2.11c-0.627,1.582 -0.94,5.027 0.115,7.83c0,-0 0.889,-0.002 1.269,-0.231c1.017,-0.614 2.069,-10.535 0.693,-9.709Z" style="fill:#72757e;"/><path d="M68.968,57.47c-0,0 -4.164,-0.395 -5.693,0.29c-1.528,0.686 -2.582,2.557 -4.532,2.794c-0,-0 -2.03,-2.082 -2.899,-2.583c-0.87,-0.501 -2.477,-0.342 -3.084,-0.263c-0.606,0.079 -1.396,-0.132 -1.923,0.263c-0.527,0.395 -0.791,0.817 -0.791,0.817c-0,0 1.054,-0.026 1.555,-0.184c0.501,-0.158 1.95,-0.607 2.503,-0.396c0.554,0.211 1.713,0.554 2.794,2.24c-0,0 -1.766,-1.001 -2.82,-1.291c-1.054,-0.29 -2.609,-0.026 -3.347,-0.026c-0.738,-0 -2.345,0.29 -2.424,1.001c-0,0 0.237,-0.659 1.396,-0.606c1.16,0.053 -0.421,0.738 -0.553,0.712c-0.132,-0.027 -1.818,0.342 -2.003,1.185c0,0 0.422,-0.474 1.45,-0.632c1.027,-0.158 1.37,-0.448 2.319,-0.87c0.948,-0.421 2.371,-0.237 3.136,0.29c0.764,0.527 2.292,1.397 3.162,1.555c0.87,0.158 1.002,-0.026 1.397,0.185c0.395,0.21 1.423,0.685 2.635,0.606c1.212,-0.079 2.319,-0.923 2.319,-0.923l0.475,0.633c-0,-0 -0.606,-0.053 -1.16,0.211c-0.553,0.263 -0.975,0.79 -1.291,0.79c-0.316,0 -0.975,-0.632 -1.845,-0.474c-0.87,0.158 -2.609,0.448 -3.32,1.845c-0.712,1.396 -2.188,0.553 -2.715,0.131c-0.527,-0.421 -1.634,-1.317 -2.609,0.158c-0.975,1.476 0.685,-0.448 1.291,-0.263c0.607,0.184 0.317,0.896 0.659,1.159c0.343,0.264 1.924,1.582 3.584,0.053c1.661,-1.528 3.11,-2.108 3.611,-1.66c-0,-0 -1.898,2.583 -3.4,3.479c-1.502,0.896 -2.556,0.184 -3.32,0.079c-0.765,-0.106 -2.372,0.632 -1.397,0.579c0.975,-0.052 1.792,0.29 2.662,0.633c0.869,0.343 2.925,-0.29 3.926,-1.555c1.002,-1.265 2.267,-2.609 2.688,-2.609c0.422,0 1.371,0.633 2.003,0.185c0.633,-0.448 2.346,-0.791 2.346,-0.791l-1.318,-1.054c-0,-0 -0.553,0.553 -1.081,0.738c-0.527,0.184 -0.896,0.052 -0.896,0.052c0,0 0.396,-0.316 0.844,-0.448c0.448,-0.131 0.685,0.264 1.344,-0.869c0.659,-1.133 -1.819,-1.45 -1.819,-1.45c0,0 -1.739,0.158 -2.345,0.079c-0,0 1.476,-0.764 1.924,-1.107c0.448,-0.342 1.502,-1.106 2.345,-1.054c0.844,0.053 2.715,0.079 2.715,0.079c-0,0 0.448,0.369 0.579,0.738c0.132,0.369 0.949,1.054 0.949,1.054l-0.026,-3.505Z" style="fill:#d94d7e;"/><path d="M60.543,78.987c-0,0 -0.291,2.687 -0.4,3.104c-0.109,0.418 -0.127,1.253 -0.308,1.416c-0.182,0.164 -0.291,0.091 -0.363,0.345c-0.073,0.254 -0.182,0.672 -0.291,0.835c-0.109,0.164 -0.399,0.454 -0.399,0.454l2.723,7.933c-0,0 0.581,-0.563 0.671,-0.799c0.091,-0.236 0.599,-0.98 0.835,-1.543c0.236,-0.563 0.999,-2.142 1.09,-2.668c0.09,-0.527 0.308,-1.58 0.363,-1.779c0.054,-0.2 0.835,-2.306 0.835,-2.306c-0.353,-3.132 -2.128,-4.571 -4.756,-4.992Z" style="fill:#4d1c29;"/><clipPath id="_clip2"><path d="M60.543,78.987c-0,0 -0.291,2.687 -0.4,3.104c-0.109,0.418 -0.127,1.253 -0.308,1.416c-0.182,0.164 -0.291,0.091 -0.363,0.345c-0.073,0.254 -0.182,0.672 -0.291,0.835c-0.109,0.164 -0.399,0.454 -0.399,0.454l2.723,7.933c-0,0 0.581,-0.563 0.671,-0.799c0.091,-0.236 0.599,-0.98 0.835,-1.543c0.236,-0.563 0.999,-2.142 1.09,-2.668c0.09,-0.527 0.308,-1.58 0.363,-1.779c0.054,-0.2 0.835,-2.306 0.835,-2.306c-0.353,-3.132 -2.128,-4.571 -4.756,-4.992Z"/></clipPath><g clip-path="url(#_clip2)"><path d="M61.351,78.604c-0,0 -0.25,2.921 -0.547,4.217c-0.296,1.296 -0.855,3 -2.233,3.701c-1.7,0.865 0.955,-8.253 2.78,-7.918Z" style="fill:#b03957;"/></g><path d="M77.645,81.707c0.273,0.484 0.589,0.716 0.8,0.969c0.211,0.252 0.569,0.695 0.843,0.99c0.274,0.295 0.842,0.505 1.095,0.548c0.253,0.042 0.822,0.126 1.032,-0.022c0.211,-0.147 0.738,-0.316 0.78,-0.779c0.042,-0.463 -0.169,-1.032 -0.337,-1.264c-0.169,-0.232 -0.274,-0.337 -0.274,-0.337l0.337,-9.396l-1.496,-0.484l-0.337,8.089l-0.063,1.601l-1.159,-1.2c0,-0 -1.495,0.8 -1.221,1.285Z" style="fill:#b7a18a;"/><path d="M56.666,75.22c-0,0 -0.534,-0.99 -0.419,-1.295c0.114,-0.304 1.104,-0.838 1.713,-0.876c0.61,-0.038 2.038,0.21 2.286,0.286c0.247,0.076 0.418,0.286 0.418,0.286c0,-0 -0.437,-1.41 -0.38,-2.362c0.057,-0.952 -0.096,-2.209 0.761,-2.856c0.857,-0.647 2.476,-1.58 3.675,-1.638c1.2,-0.057 2.514,-0.266 2.514,-0.266c0,-0 -1.447,-0.857 -2.342,-1.847c-0.895,-0.99 -2.399,-3.561 -2.704,-4.532c-0.305,-0.971 -0.571,-2.457 -0.571,-2.457c-0,0 0.419,0.8 1.447,1.276c1.028,0.476 2.742,1.2 4.817,1.028c2.076,-0.171 9.293,-3.732 9.807,-4.132c0.514,-0.4 0.8,-0.533 1.048,-1.18c0.247,-0.648 0.723,-1.809 0.723,-1.809c0,-0 0.267,1.028 0.248,1.294c-0,0 0.628,-0.266 1.123,-0.399c0.495,-0.134 0.495,0.419 0.533,0.685c0.038,0.267 -0.133,0.819 -0.666,1.009c-0.533,0.191 -1.466,1.257 -1.676,1.695c-0.209,0.438 -0.99,2.019 -1.295,2.761c-0.304,0.743 13.362,5.671 13.362,5.671l-2.93,8.605l-1.046,-0.826c0,-0 -0.48,-0.607 -0.733,-0.759c-0.252,-0.151 -0.682,0.203 -1.061,0.026c-0.379,-0.177 -0.682,-0.96 -1.061,-0.986c-0.379,-0.025 -0.733,0.177 -1.061,0.127c-0.329,-0.051 -1.416,-1.163 -1.416,-1.163l-0.555,0.632c-0,0 0.202,4.725 0.505,5.054c0.303,0.328 0.43,0.732 0.328,1.213c-0.101,0.48 -0.202,0.909 -0.606,1.263c-0.404,0.354 -1.011,0.707 -1.541,1.238c-0.531,0.531 -1.719,0.809 -2.022,1.036c-0.303,0.228 -0.202,1.365 -0.202,1.365l-0.935,-0.228l-12.482,-0.556c-0,0 -1.693,-0.455 -2.502,-1.112c-0.809,-0.656 -2.148,-1.996 -2.729,-3.032c-0.581,-1.036 -1.036,-1.718 -1.036,-2.375c-0,0 0.303,0.48 0.707,0.733c0.405,0.253 1.567,-0.202 1.744,-0.379c0.177,-0.177 0.253,-0.506 -0.43,-0.834c-0.682,-0.329 -1.01,-0.556 -1.945,-0.303c-0.935,0.252 -1.31,0.6 -1.413,0.919Z" style="fill:#280f15;"/><clipPath id="_clip3"><path d="M56.666,75.22c-0,0 -0.534,-0.99 -0.419,-1.295c0.114,-0.304 1.104,-0.838 1.713,-0.876c0.61,-0.038 2.038,0.21 2.286,0.286c0.247,0.076 0.418,0.286 0.418,0.286c0,-0 -0.437,-1.41 -0.38,-2.362c0.057,-0.952 -0.096,-2.209 0.761,-2.856c0.857,-0.647 2.476,-1.58 3.675,-1.638c1.2,-0.057 2.514,-0.266 2.514,-0.266c0,-0 -1.447,-0.857 -2.342,-1.847c-0.895,-0.99 -2.399,-3.561 -2.704,-4.532c-0.305,-0.971 -0.571,-2.457 -0.571,-2.457c-0,0 0.419,0.8 1.447,1.276c1.028,0.476 2.742,1.2 4.817,1.028c2.076,-0.171 9.293,-3.732 9.807,-4.132c0.514,-0.4 0.8,-0.533 1.048,-1.18c0.247,-0.648 0.723,-1.809 0.723,-1.809c0,-0 0.267,1.028 0.248,1.294c-0,0 0.628,-0.266 1.123,-0.399c0.495,-0.134 0.495,0.419 0.533,0.685c0.038,0.267 -0.133,0.819 -0.666,1.009c-0.533,0.191 -1.466,1.257 -1.676,1.695c-0.209,0.438 -0.99,2.019 -1.295,2.761c-0.304,0.743 13.362,5.671 13.362,5.671l-2.93,8.605l-1.046,-0.826c0,-0 -0.48,-0.607 -0.733,-0.759c-0.252,-0.151 -0.682,0.203 -1.061,0.026c-0.379,-0.177 -0.682,-0.96 -1.061,-0.986c-0.379,-0.025 -0.733,0.177 -1.061,0.127c-0.329,-0.051 -1.416,-1.163 -1.416,-1.163l-0.555,0.632c-0,0 0.202,4.725 0.505,5.054c0.303,0.328 0.43,0.732 0.328,1.213c-0.101,0.48 -0.202,0.909 -0.606,1.263c-0.404,0.354 -1.011,0.707 -1.541,1.238c-0.531,0.531 -1.719,0.809 -2.022,1.036c-0.303,0.228 -0.202,1.365 -0.202,1.365l-0.935,-0.228l-12.482,-0.556c-0,0 -1.693,-0.455 -2.502,-1.112c-0.809,-0.656 -2.148,-1.996 -2.729,-3.032c-0.581,-1.036 -1.036,-1.718 -1.036,-2.375c-0,0 0.303,0.48 0.707,0.733c0.405,0.253 1.567,-0.202 1.744,-0.379c0.177,-0.177 0.253,-0.506 -0.43,-0.834c-0.682,-0.329 -1.01,-0.556 -1.945,-0.303c-0.935,0.252 -1.31,0.6 -1.413,0.919Z"/></clipPath><g clip-path="url(#_clip3)"><path d="M64.866,81.823c-0,0 -2.545,-1.176 -3.23,-1.86c-0.685,-0.685 -2.098,-2.069 -2.649,-3.349c-0,0 1.295,0.164 1.905,-0.089c0.61,-0.253 0.819,-1.206 0.685,-1.786c-0.134,-0.581 -0.983,-1.652 -0.983,-2.069c0,-0.417 -0.044,-2.62 0.149,-2.977c0.194,-0.357 0.491,-0.982 0.491,-0.982c0,-0 -1.071,0.372 -1.28,0.699c-0.208,0.328 0.357,3.677 0.715,4.212c0.357,0.536 0.833,1.117 0.55,1.414c-0.282,0.298 -0.982,0.655 -1.443,0.745c-0.462,0.089 -1.727,-0.938 -1.727,-0.938l-1.295,0.461l-0.178,-2.232l-1.34,1.369c0,0 5.403,9.153 9.63,7.382Zm13.071,-23.641c0,-0 -2.088,4.865 -2.164,5.019c-0.077,0.153 0.095,0.536 -0.192,0.498c-0.287,-0.039 -0.651,-0.249 -0.939,-0.249c-0.287,-0 -0.536,1.053 -0.517,2.107c0.019,1.053 0.173,-1.284 0.498,-1.475c0.326,-0.192 0.881,0.153 1.264,0.077c0.384,-0.077 -0.038,-0.288 0.096,-0.613c0.134,-0.326 1.992,-4.943 1.954,-5.364Zm1.571,-5.996c-0,0 0.211,2.835 0.019,3.027c-0.191,0.191 -1.437,1.321 -1.973,1.398c-0.536,0.077 -1.379,-0.23 -1.379,-0.23l3.333,-4.195Z" style="fill:#d14d75;"/></g><path d="M75.921,56.769c-0.001,0.203 -0.012,0.377 -0.033,0.513c-0.222,1.384 -0.849,2.86 -0.849,2.86c-0,0 0.498,2.418 0.719,2.934c0.222,0.517 -5.536,0.148 -5.536,0.148l-0.055,-1.772c0,0 -1.292,-1.015 -1.882,-1.993c-0.591,-0.978 -1.347,-2.343 -1.347,-2.343c-1.588,-8.494 8.272,-7.729 9.505,-3.886c0.088,0.274 0.115,0.704 0.139,0.751c0.338,0.676 -0,2.526 -0.316,2.842c-0.121,0.121 -0.242,0.063 -0.345,-0.054Z" style="fill:#ad786f;"/><g id="torso"><path d="M62.61,75.598c5.106,-4.769 10.27,-5.284 15.518,0.397c-0.312,0.416 -0.507,1.009 -0.701,1.488c-0.638,1.581 -0.961,3.388 -0.395,5.053c0.231,0.677 0.719,1.376 1.144,1.949c0.331,0.446 0.677,0.955 1.135,1.278c0.518,0.367 1.17,0.4 1.744,0.633c1.45,0.586 2.926,1.209 4.02,2.376c-5.248,12.44 -13.123,17.955 -22.114,8.43c-1.018,-1.237 -0.098,-3.383 0.35,-4.937c0.202,-0.701 0.643,-1.279 0.881,-1.958c0.153,-0.433 0.16,-0.883 0.289,-1.318c0.125,-0.424 0.319,-0.821 0.418,-1.254c0.205,-0.896 0.222,-1.916 0.007,-2.814c-0.373,-1.562 -1.002,-3.06 -1.57,-4.556c-0.309,-0.813 -0.902,-1.806 -1.013,-2.692c-0.079,-0.634 0.18,-2.075 0.287,-2.075Z" style="fill:#56686a;"/><path d="M64.384,89.443l0.344,-4.634c1.802,-5.929 7.112,-6.004 12.34,-2.94c0.524,0.538 0.863,1.113 1.033,1.721c0.17,0.609 0.266,1.15 0.79,1.688c-5.507,-0.714 -10.343,-0.283 -14.507,4.165Z" style="fill:#30373b;"/><path d="M66.052,81.366c0.21,-0.209 3.84,-2.224 4.396,-1.827c0.556,0.397 1.748,4.634 1.457,4.925c-0.15,0.15 -1.529,0.472 -2.79,1.006c-1.189,0.504 -2.262,1.229 -2.48,1.139c-0.45,-0.185 -0.874,-4.952 -0.583,-5.243Zm0.848,0.477c-0,-0 0.741,-0.662 1.139,-0.848c0.397,-0.185 1.906,-0.635 2.091,-0.45c0.186,0.186 0.345,1.059 0.345,1.059l-0.848,0.186l0.053,0.238l0.848,0.053l0.45,1.589c-0,-0 -1.748,0.45 -2.225,0.662c-0.476,0.212 -1.747,1.139 -1.747,1.139c-0,-0 -0.292,-1.351 -0.292,-1.828c0,-0.476 0.186,-1.8 0.186,-1.8Z" style="fill:#94b8b1;"/><path d="M62.244,77.517l-0.277,-2.998c-0.602,-0.72 -1.111,-1.241 -1.215,-2.26c-0.182,-1.038 -0.069,-2.075 0.346,-3.113l6.971,-2.9l2.049,-2.741c0.434,-1 5.72,-1.118 5.622,-0.58c0.047,0.242 0.072,0.565 -0.033,0.788c-0.133,0.12 -0.998,-0.422 -1.205,-0.136c-0.196,0.6 -0.398,1.176 -0.443,1.795c-0.95,3.12 -0.076,5.315 1.028,7.807c1.427,0.063 2.894,0.643 3.873,1.554l-1.414,2.349c-1.117,-1.067 -2.195,-3.438 -5.728,-4.165c-2.493,-0.513 -3.806,1.19 -4.804,3.812c-1.786,0.606 -1.756,-0.991 -2.838,-1.201c-1.127,0.022 -1.504,1.424 -1.932,1.989Z" style="fill:#303540;"/><path d="M77.416,77.607c-1.092,-2.419 -3.187,-3.883 -6.529,-4.159c-1.578,-0.161 -2.389,0.789 -3.038,2.328c-0.696,1.652 -1.864,1.999 -2.747,0.736c-0.257,-0.367 -0.928,-0.924 -1.252,-0.678c-0.69,0.523 -1.184,1.286 -1.499,2.131l-0.168,-0.779c0.301,-0.5 1.113,-1.713 1.733,-1.829c1.045,-0.195 1.566,1.431 2.32,1.405c1.974,-0.066 0.378,-4.373 4.872,-4.298c2.434,0.04 5.206,1.686 6.544,4.406l-0.236,0.737Zm-11.445,-4.218c-0.021,-0.215 -0.87,-2.26 -1.237,-2.608c-0.367,-0.348 -1.422,-2.2 -3.74,-1.273c0,0 0.043,-0.414 0.504,-0.918c0.821,-0.899 3.887,-1.9 5.426,-1.321l0.882,0.518l1.043,-1.295c1.052,-1.928 2.905,-2.77 5.428,-2.704l-0.27,1.468c-2.896,-0.563 -4.324,0.613 -5.177,2.473c-0.133,0.715 -0.081,1.48 0.309,2.337l-0.599,-0.386c-0.393,0.49 -2.543,3.98 -2.569,3.709Z" style="fill:#697455;"/><path d="M68.634,66.788c0,-0 -0.225,0.975 -0.353,1.189c-0.129,0.214 -0.536,0.803 -0.654,0.824c-0.118,0.022 -0.032,-0.471 -0.235,-0.524c-0.204,-0.054 -0.482,0.021 -0.6,-0.15c-0.118,-0.172 0.118,-0.536 0.278,-0.739c0.161,-0.204 1.146,-0.846 1.564,-0.6Z" style="fill:#4790ec;"/></g><path d="M61.443,105.543c-0,0 -7.126,15.75 -6.475,23.102c0.651,7.353 2.031,14.096 2.031,14.096c-0,-0 4.75,-0.843 5.133,-3.487c0.384,-2.643 0.307,-3.831 0.69,-4.904c0.383,-1.073 1.456,-4.751 2.835,-6.475c1.379,-1.724 3.831,-5.593 5.211,-7.93c1.379,-2.337 2.72,-4.866 3.218,-6.245c0.498,-1.379 -0.728,-5.709 -0.728,-5.709l-11.915,-2.448Z" style="fill:#1d1c18;"/><path d="M51.834,137.574l-0.128,-1.516c0,0 -1.159,-1.006 -1.171,-1.681c-0.013,-0.675 0.127,-1.974 0.942,-2.255c0.815,-0.28 0.459,0.128 0.599,-0.585c0.14,-0.714 1.21,-3.299 2.611,-3.338c1.401,-0.038 3.184,0.204 4.292,2.217c1.108,2.012 1.541,2.499 1.732,3.505c0.191,1.006 -0.101,3.974 -0.382,4.865c-0.28,0.892 -0.598,1.325 -0.598,1.325l-7.897,-2.537Z" style="fill:#864b45;"/><path d="M84.686,87.86c-0.55,-0.218 -1.684,-0.204 -2.458,0.217c-0.774,0.421 -3.503,3.842 -4.182,4.969c-0.679,1.127 -2.199,3.666 -2.539,4.562c-0.339,0.896 -0.828,3.042 -1.235,3.15c-0.408,0.109 -4.114,-1.819 -5.187,-2.05c-1.073,-0.231 -5.247,8.881 -5.247,8.881l9.706,6.7c0,-0 0.747,-1.159 1.081,-1.729c0.334,-0.57 1.1,-2.515 1.1,-2.515c0,-0 1.002,-0.236 1.867,-1.081c0.864,-0.845 2.456,-3.104 2.456,-3.104c-0,-0 0.864,1.316 2.004,1.945c1.139,0.629 2.2,0.904 2.2,0.904c0,-0 -0.962,-0.59 -1.021,-1.552c-0.059,-0.963 0.57,-3.124 1.611,-3.596c1.041,-0.471 4.106,-2.534 4.106,-2.534l-0.609,-9.864c0,0 -1.923,-2.619 -3.653,-3.303Z" style="fill:#1f1c27;"/><path d="M54.908,126.152c-0.33,0 0.322,-6.777 0.684,-9.15c0.362,-2.373 1.548,-5.45 1.589,-5.993c0.04,-0.543 0.543,-3.057 0.925,-3.017c0.382,0.04 0.301,-0.181 0.301,-0.181c0,-0 1.549,-5.209 1.75,-5.832c0.201,-0.624 3.077,-1.308 3.077,-1.308l2.434,3.178c-0,-0 -0.423,1.006 -0.825,1.85c-0.402,0.845 -2.192,6.335 -2.735,7.844c-0.543,1.508 -1.79,6.757 -2.192,8.225c-0.402,1.468 -1.187,5.048 -1.589,5.108c-0.402,0.061 -1.347,-0.623 -1.89,-0.683c-0.543,-0.061 -0.986,-0.041 -1.529,-0.041Z" style="fill:#333438;"/><path d="M62.973,93.31c0,0 -0.083,0.552 0.034,0.936c0.117,0.385 0.418,0.702 0.468,1.003c0.05,0.301 -0.017,0.452 0.251,0.619c0.267,0.167 0.886,0.301 1.354,0.485c0.468,0.183 1.638,0.451 1.872,0.668c0.234,0.218 0.552,0.351 0.97,0.619c0.417,0.267 1.003,0.769 1.337,1.153c0.334,0.385 0.702,1.572 0.769,2.157c0.067,0.585 0.384,2.908 0.083,2.908c-0.301,0 -0.418,-3.443 -0.618,-3.778c-0.201,-0.334 -0.201,-0.551 -0.201,-0.551l0.268,7.305c-0,-0 -0.234,1.204 -0.318,0.084c-0.083,-1.121 -0.251,-5.667 -0.251,-5.667c0,-0 -0.418,0.351 -0.852,0.334c-0.435,-0.017 -0.318,-0.435 -0.619,-0.05c-0.301,0.384 -0.367,0.769 -0.484,1.003c-0.118,0.234 -0.251,0.367 -0.435,0.485c-0.184,0.117 -0.05,0.434 -0.251,0.651c-0.2,0.218 -0.301,0.218 -0.351,0.485c-0.05,0.268 0.034,0.435 0.034,0.435c-0,-0 -0.452,-0.017 -0.736,-0.184c-0.284,-0.167 -0.986,-1.053 -1.254,-1.387c-0.267,-0.335 -0.401,-0.686 -0.886,-0.937c-0.485,-0.25 -1.086,-0.284 -1.471,-0.167c-0.384,0.117 -0.869,0.401 -1.153,0.284c-0.284,-0.117 -0.786,-0.484 -1.204,-0.819c-0.418,-0.334 -1.718,-1.318 -1.718,-1.318c-1.749,-5.908 -0.316,-8.01 3.69,-7.033c0,-0 1.121,0.361 1.672,0.277" style="fill:#894665;"/><path d="M76.633,72.248c-0.057,-0.029 -0.098,-0.286 -0.113,-0.338c-0.097,-0.325 -0.196,-0.656 -0.243,-0.993c-0.011,-0.08 -0.065,-0.281 0.028,-0.334c0.096,-0.055 0.319,0.141 0.407,0.179c0.281,0.118 0.633,0.111 0.933,0.117c0.092,0.001 0.46,0.057 0.51,-0.038c0.078,-0.148 -0.132,-0.332 0.071,-0.461c0.231,-0.147 0.453,0.165 0.683,0.165c0.279,-0 0.461,-0.31 0.765,-0.228c0.197,0.052 0.38,0.22 0.412,0.427c0.025,0.165 -0.077,0.345 0.113,0.437c0.125,0.06 0.33,0.175 0.47,0.127c0.128,-0.044 0.195,-0.169 0.301,-0.245c0.154,-0.11 0.405,-0.096 0.554,0.017c0.233,0.176 0.57,0.557 0.657,0.834c0.062,0.199 0.042,0.431 0.068,0.638c0.024,0.195 0.128,0.529 -0.099,0.646c-0.113,0.058 -0.254,0.044 -0.374,0.082c-0.462,0.147 -0.855,0.299 -1.245,-0.114c-0.191,-0.203 -0.186,-0.604 -0.498,-0.684c-0.326,-0.083 -0.705,-0.009 -1.04,-0.029c-0.524,-0.032 -1.052,-0.122 -1.573,-0.19c-0.236,-0.031 -0.52,-0.017 -0.747,-0.074l-0.04,0.059Z" style="fill:#b7a18a;"/><path d="M75.073,48.206l-0.716,3.057c0.645,0.599 1.355,2.443 1.61,4.473c1.052,-1.332 0.918,-6.559 -0.894,-7.53Z" style="fill:#3d2a3a;"/><path d="M75.318,48.679c0,-0 -0.067,2.414 -1.421,4.016c-1.354,1.601 -2.865,2.684 -3.136,3.045c0,0 0.113,-0.677 0.316,-0.947c-0,-0 -1.805,0.654 -2.188,0.744c-0.384,0.09 -1.151,0.722 -1.399,1.241c-0.248,0.519 -0.429,0.925 -0.587,1.421c-0.158,0.497 0.294,3.091 0.294,3.091c-0,0 -0.474,-0.429 -0.61,-1.218c0,-0 -0.496,2.301 -0.36,2.978c-0,-0 -0.339,-0.474 -0.407,-1.015c0,-0 -0.135,1.308 0.113,2.03c0.248,0.722 -1.083,-2.324 -0.88,-5.234c0,0 -0.338,1.624 -0.27,2.414c-0,-0 -0.384,-1.715 -0.113,-3.204c-0,0 -0.699,0.564 -0.722,3.249c-0,0 -0.88,-1.985 -0.564,-4.557c-0,-0 -1.331,1.038 -2.594,1.263c-0,0 1.646,-0.654 2.617,-1.85c-0,0 -2.234,1.986 -6.092,1.557c0,-0 3.429,-0.316 4.377,-2.053c-0,0 -1.105,0.384 -1.805,0.361c0,-0 1.489,-0.519 1.963,-0.948c-0,0 -0.948,-0.045 -1.534,-0.067c-0.587,-0.023 1.556,0.022 2.594,-0.993c0,0 -3.384,0.948 -4.354,-0.947c0,-0 1.827,1.443 3.723,0.022c-0,0 -0.948,0.474 -1.715,-0.474c-0,0 0.699,-0.09 0.993,-0.473c0.293,-0.384 0.97,-1.196 1.534,-1.264c-0,0 -1.376,-0.27 -2.234,-0.857c0,0 1.918,0.181 3.091,-0.045c-0,-0 -1.805,-0.203 -1.579,-0.722c-0,-0 0.834,0.474 1.692,0.158c0.857,-0.316 1.534,-0.812 0.564,-0.97c-0,-0 -0.181,-0.045 0.902,-0.474c1.125,-0.445 1.94,-0.699 1.94,-0.699c0,-0 -1.286,0.113 -1.466,-0.925c-0,-0 0.338,0.609 1.872,0.27c0,0 -0.361,-0.406 -0.518,-0.609c-0,0 1.195,0.068 2.323,-0.067c0,-0 -0.338,-0.294 -1.805,-0.248c0,-0 0.61,-0.542 3.317,-0.158c-0,-0 -0.181,-0.294 -0.655,-0.294c0,0 1.061,-0.18 1.76,0.452c0,-0 0.474,0.067 0.722,0.09c0.248,0.022 0.158,-0.654 0.158,-0.654l0.384,0.609c-0,-0 0.676,0.248 1.105,0.631c0.429,0.384 0.857,1.219 1.015,0.542c0,-0 0.226,0.474 0.045,0.677c0,-0 1.016,0.812 1.106,1.353c-0,0 -0.248,-0.18 -0.677,-0.428c-0,-0 -0.113,0.676 1.06,1.331c0,-0 -0.248,0.315 -0.654,-0.046l0.384,1.128l-0.361,-0.225c-0,-0 0.496,1.985 0.564,2.211l-0.041,-0.15l-0.05,0.917c0,-0 -0.428,0.361 -0.293,0.519c0.135,0.158 0.271,0.203 0.248,0.631c-0.022,0.429 -0.113,0.767 -0.338,0.136c-0.226,-0.632 -0.339,-0.925 -0.293,-1.128c0.045,-0.203 0.225,-1.016 0.225,-1.016c0,0 -0.338,-1.556 -0.451,-2.052c-0.113,-0.497 -0.158,-1.174 -0.835,-2.076" style="fill:#df5f84;"/><path d="M93.055,114.124c0,-0 2.888,2.815 3.616,3.373c0.728,0.558 2.256,1.965 3.106,2.62c0.849,0.655 1.334,0.898 2.45,1.602c1.116,0.703 6.746,5.944 7.837,6.939c1.092,0.995 2.669,2.281 2.669,2.281l10.701,-8.662c-0,-0 -7.467,-4.126 -8.565,-4.78c-2.038,-1.214 -6.042,-4.877 -7.037,-5.872c-0.995,-0.995 -2.936,-2.839 -2.936,-2.839l-11.841,5.338Z" style="fill:#4b3b3b;"/><path d="M79.075,91.375c0.46,-1.037 1.773,-0.992 2.164,-0.836c-0,-0 0.636,-0.725 0.792,-0.747c0.156,-0.023 0.435,0.401 0.457,0.535c0.022,0.134 -0.424,0.647 -0.424,0.647c0,-0 0.725,1.227 -0.067,2.086c-0.792,0.858 -1.862,1.104 -2.242,0.836c0,0 -0.557,0.535 -0.847,0.491c-0.29,-0.045 -0.458,-0.279 -0.391,-0.491c0.067,-0.212 0.714,-0.513 0.591,-0.691c-0.122,-0.179 -0.423,-0.949 -0.033,-1.83Z" style="fill:#403940;"/><path d="M83.918,108.487c0,0 -1.092,-0.695 -1.142,-1.365c-0.05,-0.671 -0.074,-2.359 0.447,-2.806c0.521,-0.447 1.192,-1.093 1.192,-1.093l0.894,-0.993l12.117,10.503l-1.034,4.409c0,-0 -3.237,-2.422 -3.808,-2.819c-0.571,-0.398 -2.558,-1.664 -3.153,-1.987c-0.596,-0.323 -1.192,-0.496 -1.788,-1.068c-0.596,-0.571 -2.93,-2.185 -3.725,-2.781Z" style="fill:#3d3230;"/><path d="M80.362,100.904c0,-0 -0.14,-4.104 0.961,-6.026c1.101,-1.922 4.184,-5.746 6.627,-5.626c2.442,0.12 2.582,0.661 3.083,1.201c0.5,0.541 4.264,4.365 4.264,4.365c0,-0 2.122,1.161 2.603,1.862c0.48,0.7 1.061,1.141 1.221,1.461c0.16,0.32 0.18,0.921 0.28,1.141c0.1,0.22 3.824,5.185 4.445,5.986c0.62,0.801 2.462,2.643 2.462,2.643c0,-0 0.381,0.18 0.741,0.52c0.36,0.341 2.837,2.97 2.837,2.97l-1.112,1.35c-0,-0 -1.084,-1.837 -3.787,-1.797c-2.703,0.04 -4.765,2.743 -4.965,3.023c-0.2,0.28 -0.801,1.782 -1.281,1.742c-0.481,-0.04 -3.284,-2.743 -3.284,-2.743c0,-0 -4.124,-4.124 -4.825,-4.705c-0.7,-0.58 -4.104,-2.843 -4.204,-3.143c-0.1,-0.3 0.08,-1.081 -0.26,-1.201c-0.34,-0.12 -5.325,-2.563 -5.806,-3.023Z" style="fill:#4c4c4c;"/><g id="goggle"><path d="M65.296,53.08c-0.94,-0.327 -1.163,-1.365 -1.026,-2.936c0.456,-1.343 1.42,-2.369 2.579,-2.967c0.647,-0.308 1.316,-0.247 2.004,0.109l0.762,-0.435c0.181,-0.415 0.631,-0.684 1.351,-0.808c1.796,-0.258 3.103,0.268 4.071,1.336c0.439,0.576 0.498,1.578 0.481,2.361c-0.513,0.271 -1.206,0.315 -2.051,0.171c-2.03,-0.273 -3.36,-0.845 -3.65,-1.864l-0.995,0.419c-0.205,1.692 -1.742,3.172 -3.526,4.614Z" style="fill:#9b9b5b;"/><path d="M67.477,47.669c0,0 0.329,1.068 -0.996,2.229c-1.325,1.16 -1.865,0.996 -1.865,0.996c0,0 0.61,-1.301 1.243,-1.888c0.633,-0.586 1.536,-1.477 1.618,-1.337Zm3.598,-0.632c0.072,-0.316 1.122,0.293 1.787,0.466c0.635,0.166 1.677,0.062 1.662,0.233c-0.016,0.171 -1.15,0.342 -1.74,0.218c-0.59,-0.125 -1.787,-0.575 -1.709,-0.917Z" style="fill:#757aa4;"/></g><path d="M28.456,66.692l-0.13,-0.667l4.671,-5.833l0.753,0.517l2.927,-1.163l5.338,5.123c0,-0 0.71,-0.624 1.313,-0.603c0.603,0.022 4.994,2.82 4.994,2.82l0.409,5.682c-0,0 -0.754,1.119 -1.163,1.119c-0.409,0 -2.238,-0.538 -2.238,-0.538l2.949,5.725l0.645,0.861l-0.645,2.454c-0,0 0.365,-0.194 0.645,-0.172c0.28,0.021 0.538,0.215 0.538,0.215c0,0 0.646,-1.076 2.497,-0.99c1.851,0.086 6.285,3.164 7.167,4.219c0.883,1.054 1.458,2.214 1.921,3.255c0.462,1.041 0.925,3.355 0.81,4.511c-0,0 -0.376,-0.158 -0.767,-0.087c-0.392,0.071 -0.89,0.2 -1.104,1.246l-2.107,-0.166c0,-0 -0.265,0.456 0.618,0.706c0,-0 -0.073,0.75 0.103,0.927c0.177,0.177 1.016,0.486 0.928,0.78c-0.089,0.294 -1.148,0.618 -1.148,0.618l0.088,0.515c-0,0 0.132,0.015 0.177,0.265c0.044,0.25 0.294,0.456 -0.015,0.633c-0.309,0.177 -1.273,1.077 -1.273,1.077l0.515,0.233l0.088,0.306c-0,-0 -1.595,1.114 -2.338,1.099c-0,-0 0.031,1.176 -0.542,2.26c-16.99,-1.487 -33.356,-27.141 -26.624,-36.947Z" style="fill:#464a55;"/><path d="M55.2,108.008c0.157,0.047 0.365,-0.763 0.365,-0.763l-0.243,-0.21l0.122,-0.432l0.309,-0.055l0.631,-1.946l-1.427,-0.841l0.697,-2.212c-0,0 -3.465,-1.218 -4.497,-1.717c-1.031,-0.5 -3.861,-1.981 -4.11,-1.931c-0.25,0.05 -0.55,0.3 -0.55,0.3l-1.547,-0.383l-4.71,-3.212l-0.433,-0.4c-0,0 0.732,-0.832 0.666,-1.081c-0.067,-0.25 -0.816,-0.932 -1.149,-1.215c-0.333,-0.283 -0.39,-0.817 -0.39,-0.817l0.59,-0.711c0,0 0.513,0.211 0.738,0.107c0.226,-0.104 2.544,-3.536 2.544,-3.536c-0,-0 -0.732,-1.03 -0.923,-1.099c-0.19,-0.069 -0.85,-1.353 -0.902,-1.665c-0.052,-0.313 0.07,-0.766 0.07,-0.766l-1.057,-0.642c-0,0 -13.961,-8.436 -14.258,-5.578c-0.298,2.857 0.059,2.44 0.059,2.44c0,0 0,0.576 0.179,0.893c0.178,0.318 0.417,1.032 0.417,1.032c-0,0 -0.437,0.199 -0.338,0.556c0.099,0.357 2.401,5.239 3.036,6.132c0.635,0.893 3.771,5.199 4.009,5.397c0.238,0.199 0.496,0.06 0.496,0.06c-0,-0 -0.04,0.119 0.139,0.377c0.178,0.258 2.996,3.135 3.215,3.254c0.218,0.119 0.654,-0.258 0.654,-0.258c0,0 0.219,0.476 0.516,0.774c0.298,0.298 0.397,0.689 5.14,3.651c4.743,2.962 9.518,5.765 11.942,6.497Z" style="fill:#485043;"/><path d="M26.752,79.009l0.435,0.548l-0.014,0.492l1.84,2.023l-1.208,1.236l-1.419,-1.855l-0.548,-1.123c0,-0 0.267,-0.717 0.914,-1.321Zm77.748,-30.697c0,0 0.802,0.359 1.013,0.654c0.211,0.295 3.902,8.965 3.902,8.965l2.869,-11.897l-0.696,-1.329l-1.856,-0.506c-0,-0 -4.093,2.004 -4.367,2.32c-0.274,0.317 -0.78,1.54 -0.865,1.793Z" style="fill:#409ad9;"/><path d="M87.25,76.249c-0.265,-1.211 -0.292,-3.045 -0.13,-3.66c0.162,-0.616 0.421,-2.397 0.421,-2.397l0.616,-0.551l9.491,-1.393c0,-0 -1.069,-5.378 -1.263,-5.766c-0.194,-0.389 -1.134,-2.009 -1.134,-2.009l-1.619,-2.397l-3.143,-2.657l-0.81,0.908l-1.717,-0.551l-1.911,-1.393l-3.887,-3.888l3.66,-5.701l-0.388,-2.851l2.526,-4.114l-1.522,-0.097l-0.454,-3.985l5.475,-3.045l0.518,-0.324l4.277,1.069l-1.102,-1.263l1.555,-3.013l5.378,-1.814l5.863,1.749l1.555,2.689l4.082,6.414l2.98,1.102l0.227,-3.499l1.814,-1.944c-0,0 2.138,0.324 2.365,0.648c0.227,0.324 0.68,8.423 0.388,8.747c-0.291,0.324 -0.615,1.166 -0.615,1.166l-1.782,3.142l-2.462,8.553l-2.527,1.004l1.458,4.989c0,-0 1.231,0.129 1.328,0.453c0.098,0.324 0.098,1.652 0.098,1.652l0.518,6.447l-8.844,14.254l-16.294,0.226c-0,0 -0.324,-1.943 -0.907,-2.235c-0.584,-0.291 -2.657,-1.231 -3.046,-3.013c0,0 -0.809,-0.615 -1.036,-1.652Zm6.227,-38.981l-0.945,0.423l-1.592,-0l6.143,3.855l-3.333,-3.482l-0.273,-0.796Zm4.751,-5.273c-0,-0 0.273,0.572 0.248,1.02l0.498,0.049l5.372,5.199l0.647,-0.348l-2.313,-3.557l-0.124,-2.065l-2.438,-0.323l-0.622,-0.498l-1.268,0.523Z" style="fill:#677671;"/><path d="M51.303,94.457c0,0 0.635,1.838 -0.219,2.823c-0.853,0.984 -1.947,1.488 -1.947,1.488l-2.035,-0.963l-1.05,-0.263c0,0 -0.591,-0.787 -0.547,-1.225l-3.369,-2.013l-0.766,-0.985l-1.554,-1.159l-1.028,-1.182l0.7,-0.656c0,-0 0.569,0.131 0.744,0.044c0.175,-0.088 0.503,-0.722 0.503,-0.722l1.816,1.05l1.641,0.109l2.932,1.751l1.685,-0l2.494,1.903Zm2.67,-0.372l-2.538,-1.444l-0.569,-0.941l-2.976,-1.947c0,0 -1.094,-0.131 -0.853,-1.094l-4.661,-2.735c0,0 0.241,-0.328 0.876,-0.459c0.634,-0.132 1.553,-0.263 1.969,-0.329c0.415,-0.065 0.481,-0.481 0.481,-0.481l2.516,1.51l1.291,0.065l3.238,1.838c0,0 0.897,-0.24 1.423,-0.131c0.525,0.109 2.187,1.466 2.187,1.466c0,-0 0.832,1.422 0.263,2.954c-0.569,1.531 -1.181,1.641 -2.647,1.728Zm-17.95,-15.788c0.556,-0.209 1.097,0.327 1.097,0.327l1.618,2.657c-0,0 1.078,0.597 1.097,1.522c0.02,0.924 -0.924,1.964 -2.195,1.213c-1.271,-0.751 -0.751,-1.521 -0.751,-1.521c0,-0 -1.136,-0.886 -0.963,-1.676c0,0 -0.096,-1.617 -0.558,-1.848c0,-0 0.193,-0.501 0.655,-0.674Zm5.958,-7.383c-0,-0 0.221,-0.839 1.218,-0.76c0.996,0.08 1.392,0.95 1.392,0.95c-0,-0 1.455,2.309 1.423,2.673c-0.031,0.364 -0.047,0.569 -0.047,0.569c-0,0 0.886,0.016 1.186,0.174c0.301,0.158 1.993,2.658 2.12,3.085c0.126,0.427 0.332,2.068 -0.823,2.626c-1.154,0.558 -2.119,0.479 -1.93,-0.897c0.19,-1.377 0.333,-1.377 0.333,-1.377c-0,0 -0.965,-1.945 -1.187,-2.277c-0.221,-0.333 -0.759,-1.345 -0.759,-1.345l-1.613,0.538l-0.016,-1.44c-0,0 -0.918,-2.128 -1.297,-2.519Zm-9.675,3.031c0.454,-0.302 1.368,-0.212 1.541,0.116c0.173,0.327 0.558,1.039 0.789,1.367c0.231,0.327 0.963,1.059 1.04,1.367c0.077,0.308 -0.327,1.29 -0.943,1.329c-0.617,0.038 -1.464,-0.039 -1.83,-1.021c-0.365,-0.982 -1.059,-1.983 -1.039,-2.368c0.019,-0.385 0.096,-0.559 0.442,-0.79Zm-4.89,-7.047c0.497,-0.466 0.905,-0.616 1.116,-0.347c0.212,0.27 0.559,1.232 0.559,1.232c-0,0 0.789,0.617 0.712,1.156c-0.077,0.539 -0.231,0.828 -0.231,0.828c0,-0 0.501,0.019 0.693,0.269c0.193,0.251 0.212,0.79 0.212,0.79c0,-0 0.501,0.289 0.809,0.597c0.308,0.308 0.963,1.771 0.27,2.118c-0.694,0.346 -1.502,0.346 -1.81,-0.482c-0.309,-0.828 -0.463,-1.501 -0.463,-1.501c0,-0 -0.712,-0.886 -0.462,-1.233c0,0 -0.712,-0.231 -0.982,-0.635c-0.269,-0.405 -0.346,-1.31 -0.346,-1.31c-0,0 -0.982,-0.635 -0.077,-1.482Zm60.872,3.587l0.045,-3.008l1.041,-1.312l0.067,-4.071l0.95,-1.154l0.249,0.068l-0.022,-2.126l-0.498,-0.385l-0.045,-2.216l1.04,-1.402l2.239,2.849l0.701,0.181l-0.09,1.312l-0.317,0.204l0.023,1.651l0.43,0.791l-0.317,5.044l0.633,1.131l0.046,1.334l1.628,-2.103l0.294,-4.094l0.407,-0.226l0.792,1.425c-0,-0 0.271,0.158 0.475,0.136c0.203,-0.023 2.759,-0.973 2.759,-0.973l-1.515,5.994l-2.285,0.113l-1.221,3.37c-0,-0 -1.176,0.022 -1.357,-1.222c-0,0 -1.289,0.769 -2.827,0.747c-1.538,-0.023 -3.257,-0.814 -3.325,-2.058Zm-50.725,1.212c-0.359,0.072 -1.829,0.048 -1.16,-0.669c0.67,-0.718 1.925,-1.817 1.925,-1.817c0,-0 1.399,0.908 -0.765,2.486Zm0.462,-7.688c0,0 -0.038,-0.577 0.597,-1.039c0.636,-0.462 1.348,0.269 1.348,0.269l2.484,2.234c-0,-0 1.021,1.213 -0.366,2.118c-1.386,0.905 -2.368,-0.27 -2.388,-0.867c-0.019,-0.596 -0.057,-1.039 -0.057,-1.039c-0,-0 -1.387,-1.367 -1.618,-1.676Zm5.257,1.945c-0.43,-0.089 -0.558,-1.097 -0.212,-1.829c0.347,-0.732 1.098,-1.098 1.425,-0.944c0.327,0.155 3.774,2.427 3.774,2.427c0,-0 0.52,0.751 0.347,1.348c-0.174,0.596 -0.289,0.635 -0.289,0.635l-3.485,-2.195c-0,-0 -0.347,0.809 -1.56,0.558Zm-9.762,-5.488c-0,0 -0.135,-1.193 0.751,-1.636c0.885,-0.443 1.829,0.423 1.829,0.423l1.174,1.579c0,0 0.328,1.367 -0.693,1.887c-1.02,0.52 -1.56,0.424 -2.099,-0.52c-0.539,-0.943 0.154,-0.115 -0.962,-1.733Zm53.909,-5.135c-0.617,-0.031 -1.425,-1.086 -0.837,-1.515c0.588,-0.43 0.701,-0.882 0.701,-0.882l1.741,0.678l-0.565,0.814c-0,0 -0.136,0.95 -1.04,0.905Zm3.664,-1.04c-0.656,-0.046 -1.606,-1.222 -1.425,-1.787c0.181,-0.566 1.379,-2.873 1.673,-2.918c0,0 0.588,-2.239 0.905,-2.239c0.317,0 0.339,0.317 0.294,0.656c-0.045,0.339 -0.611,1.448 -0.43,1.855c0.181,0.407 0,1.628 0.113,2.103c0.113,0.475 0.566,1.448 0.227,1.696c-0.34,0.249 -0.792,0.701 -1.357,0.634Zm-5.383,-9.228l-2.33,4.727c0,-0 -0.498,0.882 -1.176,0.837c-0.679,-0.046 -1.221,-0.769 -1.289,-1.222c-0.068,-0.452 0.904,-2.578 1.379,-2.669c0,0 0.837,-2.397 1.425,-2.442c0.588,-0.045 1.606,-0.294 1.991,0.769Zm28.113,-8.572c-0,-0 -0.181,-0.747 -0.724,-0.679c-0.543,0.068 -3.325,1.244 -3.325,1.244l-4.387,1.357c-0,0 -0.362,-0.543 -0.656,-0.407c-0.294,0.136 -2.918,2.081 -3.121,2.194c-0.204,0.113 0.271,0.769 0.271,0.769l-3.189,1.583c-0,0 -0.158,-0.52 -0.52,-0.362c-0.362,0.159 -2.76,2.353 -2.895,2.85c-0.136,0.498 0.045,1.244 0.678,1.629c0.634,0.384 1.945,0.723 1.945,0.723c0,0 18.298,-7.942 15.923,-10.901Zm-26.824,4.772c-0,0 0.588,1.063 0.022,1.448c-0.565,0.384 -2.058,-0.634 -2.216,-1.131c-0.158,-0.498 0.136,-1.29 1.108,-2.013c0.973,-0.724 2.646,-2.352 2.646,-2.352c0,-0 0.702,-0.295 1.063,0.045c0.362,0.339 0.588,1.085 0.588,1.085l-3.211,2.918Zm6.468,-4.456c-0.363,-0.029 -1.04,-0.655 -1.131,-1.379c-0.09,-0.724 -0.045,-1.244 0.295,-1.538c0.339,-0.294 3.686,-2.443 3.686,-2.443c0,0 1.086,-0.475 1.47,0.068c0.385,0.543 0.204,1.968 0.204,1.968l-2.262,1.583c0,-0 -1.425,1.809 -2.262,1.741Zm-4.862,-3.958l-0.634,1.29c0,-0 0.159,1.244 -0.882,1.266c-1.04,0.023 -1.492,-1.402 -1.221,-1.9c0.271,-0.497 3.845,-4.048 4.365,-4.048c0.52,-0 1.515,0.701 1.335,1.266l-2.963,2.126Zm16.081,-0.95c-0.731,-0.139 -1.719,-1.153 -1.222,-2.239c0.498,-1.085 2.601,-1.606 2.601,-1.606c0,0 1.638,-1.032 2.058,-1.176c0.86,-0.294 2.104,0.747 1.493,2.059c-0.611,1.311 -1.945,1.786 -1.945,1.786c0,0 -1.922,1.38 -2.985,1.176Zm-5.519,-4.613c-0,-0 -0.724,0.655 -0.86,1.153c-0.135,0.498 -0.61,0.746 -1.085,0.656c-0.475,-0.091 -1.131,-1.267 -0.769,-1.923c0.362,-0.655 2.103,-1.47 2.103,-1.47l0.973,-0.294c-0,0 1.221,-0.95 1.832,-0.882c0.61,0.068 1.379,1.131 0.972,1.289c-0.407,0.159 -2.736,1.267 -3.166,1.471Z" style="fill:#87673e;"/><path d="M95.659,73.681l-0.532,-0.016c0,-0 -0.274,1.176 -0.516,1.579c-0.241,0.403 -0.725,1.418 -0.725,1.418l0.999,0.806c0,0 4.771,0.242 9.973,-0.419l2.365,3.723l-0.822,0.29l-0.741,-2.046c-0,-0 -0.258,-0.71 -0.839,-0.71c-0.58,0 -0.967,0.871 -0.967,0.871l-0.257,2.079c-0,-0 -1.387,0.258 -1.902,0.419c-0.516,0.161 -1.548,0.193 -1.548,0.193l-0.08,-2.304c-0,-0 -0.516,-0.984 -1.354,-0.903c-0.838,0.081 -1.58,1.257 -1.58,1.257l-0.483,1.773l-2.998,-0.371l-0.645,-0.596c0,0 -0.338,0.258 -0.66,0.258c-0.323,-0 -0.742,0.032 -0.742,0.032l-0.258,1.628c0,-0 -0.29,0.161 -0.37,0.387c-0.081,0.225 -0.049,0.886 -0.049,0.886c0,0 0.452,1.515 0.661,1.548c0.21,0.032 3.062,-0.065 3.336,0.29c0.274,0.354 0.855,1.789 1.08,1.773c0.226,-0.017 2.176,-0.291 2.176,-0.291c0,0 0.79,-1.756 1.032,-1.901c0.241,-0.145 3.465,-0.774 3.594,-0.452c0.129,0.323 0.435,2.45 0.435,2.45l2.643,-0.371l0.242,-2.272c-0,-0 0.371,-0.419 1.16,-0.516c0.79,-0.097 1.274,-0.016 1.403,-0.145c0.129,-0.129 1.45,-1.805 1.45,-1.805l0.29,1.402c0,0 0.113,0.5 0.419,0.516c0.307,0.016 0.484,-0.516 0.484,-0.516l0.209,-0.822l0.597,-0.322l0.596,-0.774l0.016,-2.885l0.999,-1.402l0.226,1.015c0,0 0.048,0.5 0.387,0.468c0.338,-0.032 0.338,-0.484 0.338,-0.484l0.097,-0.741l0.113,-0.468l0.693,-0.29l0.484,-0.999l-0.017,-2.466l1.403,-2.917l0.016,-2.079l-1.693,2.691c0,0 -0.354,-0.37 -0.773,-0.322c-0.419,0.048 -0.822,0.774 -0.822,0.774l-0.226,3.094l-1.176,1.628c-0,-0 -0.145,-0.467 -0.645,-0.693c-0.5,-0.226 -1.016,-0.113 -1.016,-0.113c0,0 1.644,-3.401 2.176,-4.239c0.532,-0.838 3.965,-5.27 3.965,-5.27c0,-0 -0.097,-3.272 -0.306,-3.272c-0.21,0 -3.707,3.997 -3.707,3.997c-0,0 -0.467,-1.015 -0.886,-1.66c-0.42,-0.645 -1.064,-0.983 -1.064,-0.983c-0,-0 1.241,-2.676 1.354,-3.191c0.112,-0.516 1.225,-3.546 1.386,-4.062c0.161,-0.516 0.209,-1.031 0.209,-1.031l-0.048,-1.709l-2.111,-0.193l-2.354,7.591l-0.145,1.837l-1.471,-4.569c0,0 -0.495,-1.862 -0.822,-2.067c-0.326,-0.206 -1.124,-0.133 -1.124,-0.133c0,-0 -1.402,1.221 -1.728,1.511c-0.327,0.29 -2.358,1.838 -2.358,1.838c0,-0 2.116,2.973 2.466,3.445c0.351,0.471 1.62,2.393 1.62,2.393c0,0 -1.15,2.89 -1.139,4.097c0.01,1.208 0.194,2.695 0.194,2.695c-0,-0 -1.983,0.593 -3.018,0.776c-1.035,0.183 -4.527,0.69 -5.249,0.69l-0.808,-0l-0.512,-0.328Zm8.427,-25.402c-0,-0 0.871,0.254 1.107,0.49c0.236,0.236 2.451,5.9 2.451,5.9c0,-0 0.2,0.345 -0.073,0.49c-0.272,0.145 -1.488,0.853 -1.76,1.035c-0.273,0.181 -3.25,2.432 -3.559,2.414c-0.308,-0.018 -1.289,-1.361 -1.543,-1.325c-0.254,0.036 -3.721,3.014 -3.993,3.032c-0.273,0.018 -1.199,-0.291 -1.199,-0.291c0,0 -1.289,-2.069 -1.216,-2.342c0.073,-0.272 0.944,-1.052 0.944,-1.052c0,-0 0.036,-0.364 0.182,-0.527c0.145,-0.163 3.558,-3.467 4.012,-3.976c0.453,-0.508 3.848,-3.431 4.647,-3.848Zm9.095,-4.339c0.182,-0.218 0.635,-0.218 0.635,-0.218l3.74,0.345c0,0 0.454,0.018 0.708,0.272c0.254,0.255 0.708,0.745 0.708,0.745c0,-0 0.218,0.29 0.182,0.581c-0.037,0.29 -0.654,2.686 -0.654,2.686c0,0 -0.109,0.363 -0.399,0.4c-0.291,0.036 -1.344,-0.037 -1.344,-0.037c0,0 -0.345,0.109 -0.363,0.436c-0.018,0.327 -1.18,3.468 -1.18,3.468c0,-0 -0.018,0.29 -0.435,0.308c-0.418,0.018 -2.469,-0.054 -2.469,-0.054l-1.09,-0.309c0,0 1.779,-8.405 1.961,-8.623Z" style="fill:#a6a66a;"/></g></g></svg>