<?xml version="1.0" encoding="UTF-8" standalone="no"?><!DOCTYPE svg PUBLIC "-//W3C//DTD SVG 1.1//EN" "http://www.w3.org/Graphics/SVG/1.1/DTD/svg11.dtd"><svg width="100%" height="100%" viewBox="0 0 150 150" version="1.1" xmlns="http://www.w3.org/2000/svg" xmlns:xlink="http://www.w3.org/1999/xlink" xml:space="preserve" xmlns:serif="http://www.serif.com/" style="fill-rule:evenodd;clip-rule:evenodd;stroke-linejoin:round;stroke-miterlimit:2;"><path id="base" d="M150,75c0,-41.394 -33.606,-75 -75,-75c-41.394,0 -75,33.606 -75,75c0,41.394 33.606,75 75,75c41.394,0 75,-33.606 75,-75Z" style="fill:#3a3332;"/><path id="outline" d="M144,75c0,-38.082 -30.918,-69 -69,-69c-38.082,0 -69,30.918 -69,69c0,38.082 30.918,69 69,69c38.082,0 69,-30.918 69,-69Z" style="fill:#c36a5e;"/><path id="core" d="M141,75c0,-36.426 -29.574,-66 -66,-66c-36.426,0 -66,29.574 -66,66c0,36.426 29.574,66 66,66c36.426,0 66,-29.574 66,-66Z" style="fill:#cbb89f;"/><clipPath id="_clip1"><path d="M141,75c0,-36.426 -29.574,-66 -66,-66c-36.426,0 -66,29.574 -66,66c0,36.426 29.574,66 66,66c36.426,0 66,-29.574 66,-66Z"/></clipPath><g clip-path="url(#_clip1)"><g id="kejourou--hairy-prostitute"><path d="M49.897,62.5c-0.754,-1.509 -2.724,-4.642 -4.502,-4.998c-1.46,-0.292 -2.852,0.548 -4.234,0.229c-0.939,-0.217 -0.791,-1.773 -1.87,-2.06c-1.826,-0.487 -3.653,-0.349 -5.475,-1.049c-0.618,-0.238 -2.11,-0.675 -1.213,-1.536c0.095,-0.092 0.205,-0.168 0.325,-0.223c1.703,-0.769 4.331,-0.333 5.619,-1.901c0.456,-0.555 0.534,-1.326 1.016,-1.866c0.378,-0.423 0.928,-0.565 1.463,-0.682c0.318,-0.07 1.434,-0.349 1.432,0.237c-0.001,0.325 -0.23,0.504 -0.49,0.623c-0.035,-0.066 -0.256,0.068 -0.292,0.09c-0.22,0.135 -0.434,0.469 -0.421,0.734c0.041,0.818 1.743,0.844 2.152,0.435c0.117,-0.118 0.218,-0.224 0.329,-0.28c0.799,-0.4 3.952,-0.945 4.748,0.049c0.213,0.266 0.582,0.357 0.796,0.62c0.448,0.55 0.541,1.294 0.823,1.931c0.144,0.328 0.332,0.634 0.471,0.965c0.038,0.092 0.097,0.198 0.156,0.278c0.021,0.029 0.136,0.121 0.107,0.102c0.152,0.47 0.31,0.915 0.72,1.091c0.257,0.11 2.249,-2.272 2.67,-2.585c1.742,-1.293 5.25,-3.336 6.525,-3.214c-0.329,6.767 9.742,21.215 -10.855,13.01Zm41.815,-11.14c1.736,0.868 3.924,1.179 5.417,2.537c2.891,2.627 2.499,8.054 2.003,11.522c-12.267,3.475 -12.252,-3.285 -7.42,-14.059Z" style="fill:#c69b81;"/><path d="M64.228,143.151c-17.723,-36.75 -18.54,-1.458 -48.967,-25.036c0,-0 4.297,-5.919 7.396,-5.712c2.96,0.197 6.761,2.192 9.462,0.229c1.212,-0.883 1.926,-4.884 1.926,-4.884c0,0 9.346,-28.181 9.788,-31.279c0.7,-4.911 0.68,-10.027 2.726,-14.637c0.824,-1.857 2.315,-2.649 3.968,-3.7c0.539,-0.344 1.548,-1.32 2.136,-1.45c0.506,-0.113 0.456,1.026 0.573,1.297c0.269,0.627 0.99,1.143 1.469,1.621c0.671,0.672 1.275,1.429 1.684,2.291c0.274,0.578 0.318,1.315 0.935,1.649c3.768,2.036 26.987,-2.798 34.397,-2.645c1.684,0.035 3.147,4.01 6.08,2.345c0.467,-0.265 1.722,-1.719 2.329,-1.398c0.438,0.231 0.472,1.395 0.668,1.853c0.557,1.302 1.158,2.841 1.016,4.286c-0.059,0.592 -0.444,1.302 -0.361,1.885c0.071,0.495 0.536,1.45 0.536,1.45c7.343,14.654 7.631,41.427 6.573,42.909c-0.801,1.121 -4.726,1.077 -4.388,2.88c0.637,3.401 11.561,13.335 12.896,16.844c-15.292,10.235 -33.028,12.926 -52.842,9.202Z" style="fill:#a94e58;"/><path d="M78.415,112.259c3.982,-0.761 7.171,0.996 10.411,4.046c1.112,1.047 1.756,2.402 2.771,3.518c2.401,2.641 4.543,5.487 6.906,8.146c2.225,2.502 5.612,4.408 6.772,7.668c0.312,0.877 -8.302,3.91 -26.86,-23.378Z" style="fill:#373236;"/><path d="M79.715,143.722c0.158,-1.372 -0.157,-2.699 -0.248,-4.063c-0.213,-3.171 -0.423,-5.818 -1.757,-8.753c-0.554,-1.22 -0.63,-2.917 -0.877,-4.235c-0.484,-2.579 -1.45,-4.963 -1.45,-7.63c-0,-1.97 -0.272,-4.438 0.731,-6.221c1.685,-2.997 6.195,-2.018 8.273,-0.055c1.124,1.062 2.51,2.18 3.033,3.644c0.578,1.618 0.099,4.043 1.183,5.436c1.244,1.6 3.28,2.571 4.788,3.911c1.66,1.475 3.129,3.186 4.911,4.522c2.637,1.979 5.678,2.542 5.771,6.427" style="fill:#c69b81;"/><path d="M40.704,123.235c2.378,-0.929 4.599,-2.206 6.481,-4.011c1.398,-1.34 2.684,-2.857 3.389,-4.685c2.362,-6.124 -0.109,-13.099 2.18,-19.299c0.395,-1.073 0.956,-2.059 1.467,-3.077c0.052,-0.104 0.453,-0.998 0.612,-0.907c0.186,0.107 0.077,0.546 0.074,0.712c-0.014,0.731 0.153,1.458 0.343,2.159c0.12,0.438 0.301,0.861 0.419,1.299c0.073,-0.215 0.164,-0.425 0.186,-0.486c0.349,-0.967 0.791,-1.897 1.083,-2.883c0.722,-2.44 1.029,-5.067 1.361,-7.584c0.598,-4.53 0.331,-9.067 -0.411,-13.567c-0.382,-2.318 -1.165,-4.541 -1.312,-6.901c-0.084,-1.345 0.182,-2.677 0.098,-4.024c-0.035,-0.555 -0.053,-2.116 -0.344,-2.551c-0.08,-0.121 -0.258,0.283 -0.404,0.221c-0.278,-0.119 -0.038,-0.938 0.012,-1.153c0.202,-0.875 0.726,-1.492 1.165,-2.245c0.767,-1.315 1.35,-2.766 2.073,-4.109c0.342,-0.636 1.165,-1.633 1.165,-2.38c0,-0.106 -0.657,0.61 -0.736,0.712c-0.586,0.762 -1.188,1.538 -1.84,2.244c-0.047,0.052 -0.66,0.655 -0.699,0.577c-0.039,-0.078 0.336,-0.385 0.393,-0.442c0.397,-0.396 0.863,-0.856 1.128,-1.349c0.923,-1.713 1.877,-3.264 2.245,-5.225c0.395,-2.106 0.416,-4.277 0.81,-6.379c0.271,-1.447 0.729,-2.846 1.104,-4.268c0.231,-0.88 0.295,-1.861 0.662,-2.699c0.717,-1.638 2.026,-2.795 2.882,-4.318c0.657,-1.166 1.059,-2.504 1.595,-3.729c0.288,-0.657 0.712,-1.583 1.411,-1.901c1.794,-0.815 4.139,-2.012 6.17,-1.877c0.742,0.05 1.57,0.205 2.257,0.491c0.467,0.195 1.199,0.773 1.701,0.785c1.181,-0.394 2.735,-0.878 3.991,-0.806c1.14,0.065 2.468,0.399 3.508,0.861c0.73,0.325 1.364,1.104 1.845,1.719c1.935,2.475 2.196,5.279 2.69,8.245c0.045,0.27 0.102,0.541 0.162,0.815c0.162,0.742 0.341,1.496 0.341,2.24c0.163,1.875 0.083,3.774 0.307,5.647c0.328,2.744 1.301,5.422 2.283,7.99c0.826,2.16 2.238,5.501 3.364,7.525c0.076,0.137 0.354,0.601 0.569,1.051c-0.951,-1.087 -2.572,-2.808 -4.003,-3.05c-0.391,-0.066 -1.846,-1.135 -1.623,-0.395c0.241,0.797 0.749,1.48 1.062,2.246c0.496,1.217 0.825,2.5 1.04,3.795c0.133,0.8 0.375,1.665 0.327,2.479c-0.019,0.32 -0.429,0.858 -0.276,1.147c0.37,0.7 1.454,0.99 1.977,1.589c0.871,0.996 1.593,2.12 2.144,3.323c0.373,0.813 0.616,1.683 1.021,2.481c0.289,0.566 0.811,1.099 1.122,1.691c0.084,-0.614 0.179,-1.218 0.179,-1.849c-0,-0.272 0.062,-0.538 0.028,-0.811c-0.005,-0.034 -0.062,-0.243 -0.042,-0.263c0.03,-0.03 0.041,0.073 0.06,0.111c0.038,0.076 0.09,0.153 0.138,0.225c0.157,0.236 0.278,0.497 0.429,0.738c0.454,0.726 0.978,1.353 1.47,2.059c0.095,0.138 0.37,0.724 0.571,0.724c0.135,0.327 0.263,0.657 0.397,0.983c0.668,1.628 1.258,3.293 2.015,4.883c0.586,1.23 1.266,2.412 1.852,3.641c0.774,1.624 1.46,3.292 2.21,4.928c0.304,0.661 0.739,1.236 1.023,1.915c0.576,1.376 1.016,2.803 1.468,4.223c0.302,0.951 0.744,1.851 1.039,2.803c0.256,0.827 0.364,1.703 0.566,2.545c0.326,1.358 0.562,2.894 0.484,4.295c-0.032,0.581 0.005,1.116 0.069,1.695c0.007,0.066 0.041,0.589 0.115,0.539c0.01,0.11 0.02,0.22 0.028,0.331c0.011,0.173 -0.023,0.35 0.092,0.498c0.248,0.318 0.866,0.319 1.225,0.396c1.365,0.292 2.671,-0.233 3.765,-1.023c0.403,-0.291 0.832,-0.542 1.235,-0.829c0.133,-0.095 0.263,-0.19 0.373,-0.314c0.019,-0.021 0.121,-0.205 0.148,-0.166c0.046,0.07 -0.017,0.209 -0.033,0.281c-0.07,0.33 -0.264,0.693 -0.502,0.931c-0.077,0.077 -0.158,0.143 -0.247,0.205c0.276,-0.083 0.686,-0.071 0.892,-0.071c0.052,-0 0.381,-0.036 0.355,0.069c-0.048,0.191 -0.532,0.356 -0.696,0.415c-0.694,0.247 -1.38,0.517 -2.073,0.769c-0.905,0.329 -1.771,0.749 -2.668,1.097c-0.072,0.028 -0.869,0.28 -0.797,0.424c0.067,0.135 0.446,0.054 0.557,0.032c0.557,-0.111 1.113,-0.234 1.673,-0.327c1.284,-0.214 2.508,-0.588 3.751,-0.968c0.38,-0.116 0.759,-0.213 1.147,-0.299c0.089,-0.02 0.327,-0.11 0.41,-0.074c0.096,0.041 -0.04,0.305 0.097,0.35c0.168,0.056 0.593,-0.033 0.778,-0.06c0.069,-0.01 0.217,-0.082 0.277,-0.032c0.059,0.05 -0.076,0.145 -0.106,0.166c-0.199,0.139 -0.386,0.274 -0.599,0.396c-0.728,0.416 -1.48,0.783 -2.221,1.175c-0.072,0.038 -0.723,0.351 -0.723,0.447c-0,0.019 0.596,-0.13 0.635,-0.138c0.399,-0.085 0.806,-0.145 1.208,-0.212c0.367,-0.061 0.791,-0.045 1.142,-0.171c0.778,-0.277 1.368,-0.995 1.977,-1.52c0.19,-0.164 1.053,-0.671 0.945,-0.954c-0.201,-0.521 -1.088,-0.815 -1.525,-1.083c-0.092,-0.056 -0.507,-0.254 -0.507,-0.373c-0,-0.079 0.174,-0.028 0.207,-0.014c0.219,0.092 0.406,0.215 0.645,0.258c0.344,0.063 0.72,0.23 1.014,0.419c0.087,0.057 0.298,0.34 0.359,0.355c0.037,0.009 0.108,-0.175 0.12,-0.202c0.082,-0.187 0.297,-0.49 0.267,-0.701c-0.035,-0.249 -0.326,-0.334 -0.525,-0.396c-0.496,-0.155 -0.988,-0.299 -1.507,-0.346c-0.07,-0.006 -0.742,0.045 -0.742,-0.014c0,-0.13 0.531,-0.164 0.613,-0.175c0.544,-0.068 1.059,-0.119 1.608,-0.119c0.134,-0 0.483,0.154 0.59,0.083c0.095,-0.064 0.093,-0.257 0.106,-0.36c0.047,-0.372 0.034,-0.746 0.051,-1.124c0.004,-0.084 -0.059,-0.503 0.064,-0.516c0.118,-0.013 0.244,0.076 0.325,0.218c0.479,0.85 0.277,1.917 0.851,2.751c0.233,0.339 0.619,0.362 0.835,-0.009c0.196,-0.337 0.347,-1.079 0.321,-1.467c-0.042,-0.625 -0.549,-1.349 -0.848,-1.88c-0.146,-0.26 -0.282,-0.535 -0.382,-0.816c-0.019,-0.053 -0.091,-0.228 -0.051,-0.281c0.024,-0.032 0.127,0.115 0.138,0.129c0.122,0.155 0.239,0.316 0.337,0.488c0.347,0.618 0.51,1.329 0.893,1.931c0.056,0.087 0.028,0.213 0.088,0.29c0.065,0.085 0.231,0.04 0.323,0.051c0.242,0.03 0.485,0.096 0.7,0.217c1.184,0.666 2.498,1.275 2.792,2.746c0.202,1.009 -0.337,1.963 -0.691,2.871c-0.331,0.849 -0.64,1.733 -1.078,2.534c-0.673,1.229 -1.58,2.334 -2.364,3.493c-0.443,0.655 -0.786,1.367 -1.249,2.009c-0.108,0.15 -0.321,0.521 -0.516,0.566c-0.479,0.111 -1.084,-0.008 -1.566,-0.05c-0.899,-0.079 -1.807,-0.122 -2.696,-0.286c-0.485,-0.09 -0.949,-0.151 -1.442,-0.171c-0.152,-0.006 -0.356,-0.082 -0.502,-0.046c-0.092,0.023 0.009,0.171 0.032,0.217c0.123,0.246 0.182,0.527 0.193,0.802c0.015,0.356 0.024,0.896 -0.106,1.235c-0.205,0.534 -1.046,1.022 -1.608,0.917c-0.388,-0.073 -0.392,-0.715 -0.442,-1.014c-0.1,-0.599 -0.56,-1.15 -1.009,-1.535c-0.128,-0.109 -0.397,-0.345 -0.576,-0.331c-0.218,0.016 -0.399,0.424 -0.479,0.585c-0.322,0.643 -0.845,1.136 -1.162,1.769c-0.098,0.198 -0.215,0.399 -0.341,0.581c-0.024,0.035 -0.106,0.169 -0.165,0.129c-0.093,-0.062 -0.091,-0.499 -0.079,-0.599c0.072,-0.577 0.067,-1.106 0.364,-1.627c0.105,-0.183 0.322,-0.575 0.06,-0.742c-0.16,-0.101 -0.41,-0.009 -0.58,0.023c-0.375,0.072 -0.724,0.116 -1.106,0.116c-0.439,-0 -0.872,-0.092 -1.309,-0.111c-0.939,-0.041 -1.863,-0.079 -2.769,-0.369c-0.485,-0.155 -0.843,-0.475 -1.235,-0.783c-0.053,-0.042 -0.369,-0.251 -0.369,-0.309c0,-0.064 0.118,0.052 0.175,0.079c0.104,0.048 0.21,0.091 0.318,0.129c0.355,0.123 0.715,0.221 1.074,0.332c1.156,0.355 2.437,0.261 3.599,-0.01c0.276,-0.064 0.552,-0.13 0.834,-0.166c0.04,-0.005 0.235,-0.004 0.235,-0.069c-0,-0.077 -0.26,-0.151 -0.318,-0.184c-0.357,-0.204 -0.775,-0.298 -1.157,-0.447c-1.311,-0.51 -2.612,-0.963 -3.995,-1.239c-0.379,-0.076 -0.773,-0.152 -1.143,-0.268c-0.11,-0.034 -0.329,-0.083 -0.387,-0.198l-0.223,-0.806c0,-0.548 -0.162,-1.083 -0.262,-1.617c-0.189,-1.008 -0.287,-2.073 -0.355,-3.096c-0.041,-0.609 0.299,-1.419 0.12,-1.991c-0.082,-0.262 -0.276,-0.469 -0.396,-0.71c-0.361,-0.721 -0.805,-1.368 -1.235,-2.05c-0.387,-0.612 -0.654,-1.285 -0.977,-1.931c-0.498,-0.996 -1.146,-1.973 -1.369,-3.087c-0.062,-0.312 0.115,-0.657 0.097,-0.972c-0.053,-0.956 0,-1.916 0,-2.875c0,-0.553 0.155,-1.356 -0.032,-1.88c-0.244,-0.683 -0.9,-1.278 -1.267,-1.908c-0.136,-0.232 -0.478,-1.042 -0.102,-1.23c0.051,-0.4 0.118,-0.799 0.171,-1.197c0.05,-0.379 0.129,-0.787 0.014,-1.162c-0.264,-0.86 -0.914,-1.572 -1.257,-2.402c-0.083,-0.2 -0.33,-0.426 -0.314,-0.654c0.015,-0.207 0.302,-0.329 0.459,-0.406c0.469,-0.231 0.812,-0.545 1.146,-0.949c0.984,-1.194 1.243,-2.447 0.998,-3.944c-0.089,-0.547 -0.189,-1.134 -0.509,-1.6c-0.138,-0.2 -0.424,-0.334 -0.521,-0.549c-0.085,-0.186 0.056,-0.362 0.097,-0.539c0.072,-0.314 -0.029,-0.644 -0.199,-0.908c-0.368,-0.573 -0.878,-1.104 -1.327,-1.617c-0.092,-0.105 -0.224,-0.187 -0.329,-0.285c-0.125,0.515 -0.321,1.03 -0.365,1.533c-0.024,0.271 0.131,1.125 -0.135,1.3c-0.138,0.09 -0.084,-0.321 -0.107,-0.484c-0.029,-0.206 -0.046,-0.414 -0.077,-0.62c-0.105,-0.698 -0.392,-1.352 -0.503,-2.049c-0.364,-2.291 -1.126,-4.518 -2.49,-6.415c-0.205,-0.285 -1.327,-1.765 -1.754,-1.46c-0.1,0.072 0.235,0.553 0.263,0.6c0.287,0.471 0.592,0.901 0.806,1.411c0.554,1.328 0.956,2.81 1.134,4.237c0.287,2.304 -0.013,4.622 0.01,6.932c0.026,2.489 0.378,4.971 0.533,7.454c0.224,3.58 0.098,7.212 0.098,10.794c0,2.234 -0.057,4.449 -0.196,6.673c-0.03,0.476 -0.346,1.032 -0.294,1.496c0.15,1.357 0.516,2.82 0.981,4.122c1.032,2.889 3.047,4.813 5.188,6.955c0.491,0.49 0.878,1.046 1.313,1.582c0.03,0.037 0.403,0.48 0.466,0.417c0.686,1.055 1.218,2.22 2.093,3.139c2.001,2.105 4.641,3.498 6.577,5.684c0.839,0.949 1.728,2.261 1.64,3.591c-0.126,1.889 -2.437,1.768 -3.537,0.943c-0.329,-0.247 -1.796,-1.341 -1.447,-1.865c-0.773,-0.592 -1.605,-1.12 -2.352,-1.731c-1.697,-1.386 -3.26,-2.939 -5.057,-4.201c-2.167,-1.522 -4.558,-2.718 -6.611,-4.403c-1.183,-0.972 -2.131,-2.184 -3.24,-3.232c-2.734,-2.585 -5.695,-4.95 -8.852,-6.999c-0.64,-0.415 -1.11,-0.98 -1.629,-1.536c-0.155,-0.166 -0.453,-0.599 -0.701,-0.637c-0.254,-0.038 -0.562,0.246 -0.743,0.385c-0.633,0.485 -1.191,0.958 -1.92,1.305c-3.104,1.476 -6.351,1.456 -7.944,5.045c-1.288,2.899 -2.01,6.168 -1.807,9.339c0.13,2.032 0.649,3.964 0.997,5.958c0.213,1.226 0.244,2.477 0.483,3.698c0.42,2.153 0.848,4.26 1.2,6.428c0.22,1.354 0.432,2.924 -0.303,4.165c-0.951,1.609 -3.502,1.674 -5.169,1.687c-1.8,0.014 -3.546,-0.356 -5.328,-0.537c-3.367,-0.341 -7.898,-0.082 -10.289,-2.963c-1.234,-1.486 -1.102,-3.137 -1.438,-4.915c-0.362,-1.912 -1.072,-3.736 -1.816,-5.526c-0.253,-0.608 -0.836,-2.996 -1.781,-2.77c-0.449,0.108 -0.697,0.659 -0.898,1.023c-0.597,1.076 -0.857,2.234 -1.385,3.332c-0.79,1.645 -2.521,2.068 -4.179,2.333c-2.986,0.479 -5.954,0.188 -8.944,-0.101c-1.254,-0.122 -2.553,-0.055 -3.792,-0.286c-1.647,-0.308 -3.398,-1.608 -2.851,-3.471c0.529,-1.803 2.691,-3.778 4.452,-4.376c1.433,-0.487 3.221,-0.46 4.721,-0.741c1.933,-0.363 3.865,-0.841 5.712,-1.516c-0.024,-0.301 -0.048,-0.602 -0.084,-0.903c-0.227,-1.888 0.159,-3.719 0.146,-5.605c-0.019,-2.694 -0.073,-5.383 -0.153,-8.081c-0.018,-0.61 0.08,-1.216 0.059,-1.825c-0.034,-0.985 -0.31,-1.944 -0.315,-2.932c-0.008,-1.372 0.366,-2.712 0.361,-4.085c-0.007,-1.866 -0.241,-3.731 -0.202,-5.597c0.015,-0.695 -0.03,-1.512 0.069,-2.2c0.011,-0.076 0.165,-0.7 0.019,-0.687c-0.101,0.009 -0.137,0.199 -0.17,0.271c-0.145,0.318 -0.292,0.629 -0.412,0.958c-0.492,1.352 -1.094,2.636 -1.449,4.035c-0.257,1.014 -0.702,1.961 -1.009,2.958c-0.27,0.877 -0.379,1.792 -0.597,2.682c-0.347,1.419 -0.756,2.777 -0.873,4.243c-0.12,1.494 -0.105,3.049 0.14,4.531c0.128,0.775 0.403,1.517 0.544,2.29c0.295,1.624 0.641,3.327 0.517,4.984c-0.029,0.395 -0.082,0.786 -0.126,1.179c-0.008,0.069 0.014,0.301 -0.069,0.334c-0.112,0.044 -0.18,-0.436 -0.195,-0.513c-0.105,-0.546 -0.269,-1.079 -0.364,-1.628c-0.324,-1.866 -1.029,-3.683 -1.089,-5.592c-0.016,-0.501 -0.008,-1.019 0.026,-1.52c0.006,-0.096 0.071,-0.407 -0.036,-0.473c-0.05,-0.031 -0.16,0.373 -0.17,0.416c-0.102,0.451 -0.084,0.917 -0.108,1.376c-0.072,1.376 -0.241,2.745 -0.321,4.12c-0.032,0.556 -0.127,1.107 -0.126,1.664c0,0.065 0.034,0.499 -0.082,0.479c-0.171,-0.028 -0.169,-0.438 -0.182,-0.561c-0.071,-0.621 -0.088,-1.244 -0.089,-1.869c-0.002,-1.723 -0.247,-3.436 -0.23,-5.16c0.008,-0.851 0.373,-1.874 0.237,-2.703c-0.01,-0.06 -0.059,0.108 -0.082,0.164c-0.055,0.133 -0.111,0.265 -0.162,0.399c-0.154,0.407 -0.302,0.761 -0.657,1.028c-0.629,0.472 -1.267,0.783 -1.995,1.065c-0.217,0.084 -0.604,0.251 -0.622,0.528c-0.019,0.314 0.361,0.462 0.546,0.649c0.282,0.284 0.563,0.746 0.545,1.16c-0.032,0.721 -0.461,1.403 -0.748,2.047c-0.612,1.371 -1.335,2.689 -2.145,3.953c-0.409,0.637 -0.744,1.331 -1.417,1.733c-2.119,1.265 -4.734,-0.425 -5.734,-2.35c-0.335,-0.646 -0.722,-1.519 -0.488,-2.259c0.306,-0.966 2.104,-1.284 2.974,-1.253c0.53,0.019 1.042,0.175 1.569,0.201c0.54,0.027 1.012,-0.116 1.538,-0.182c0.197,-0.025 0.825,0.126 0.959,0.038c0.173,-0.116 -0.607,-0.621 -0.675,-0.669c-0.542,-0.382 -1.816,-0.759 -1.412,-1.683c0.514,-1.174 1.958,-1.953 3.177,-2.168c0.727,-0.128 1.402,-0.098 2.099,-0.397c0.59,-0.253 1.134,-0.551 1.632,-0.958c0.167,-0.136 0.316,-0.505 0.479,-0.586c0.051,-0.265 0.099,-0.532 0.192,-0.773c0.414,-1.078 0.904,-2.124 1.229,-3.24c0.512,-1.756 0.868,-3.559 1.393,-5.307c0.932,-3.106 2.411,-6.083 3.164,-9.247c0.331,-1.388 0.569,-2.822 1.002,-4.185c0.384,-1.205 0.847,-2.408 1.173,-3.631c0.656,-2.46 1.182,-5.066 2.206,-7.406c0.276,-0.63 0.659,-1.2 1.067,-1.756c0.549,-0.823 1.039,-1.755 1.482,-2.641c0.089,-0.179 0.177,-0.392 0.231,-0.595c0.017,-0.181 0.036,-0.344 0.052,-0.344c0.002,0 -0.022,0.211 -0.025,0.227c-0.008,0.039 -0.017,0.078 -0.027,0.117c-0.02,0.211 -0.037,0.449 -0.042,0.488c-0.011,0.086 -0.022,0.172 -0.034,0.258c-0.317,2.328 -0.93,4.395 -1.677,6.614c-0.276,0.82 -0.364,1.86 -0.888,2.565c-0.333,0.447 -0.356,1.056 -0.509,1.59c-0.388,1.349 -0.974,2.675 -1.109,4.083c-0.065,0.667 0.129,1.305 0.157,1.966c0.02,0.463 -0.081,0.942 -0.15,1.399c-0.316,2.079 -0.965,4.103 -1.235,6.189c-0.281,2.166 -0.223,4.486 -0.221,6.67c0.002,1.204 0.156,2.406 0.144,3.608c-0.028,2.982 -0.502,6.2 0.327,9.119c0.421,1.483 0.245,2.778 0.173,4.292c-0.027,0.565 0.133,1.119 0.101,1.683c-0.035,0.611 -0.232,1.214 -0.354,1.811c-0.083,0.409 -0.194,0.803 -0.323,1.193Zm67.057,-33.853c-0.176,0.058 -0.114,0.528 -0.129,0.668c-0.075,0.714 0.012,1.619 0.152,2.322c0.369,1.846 0.943,3.643 1.47,5.451c0.387,1.325 0.952,2.585 1.375,3.896c0.096,0.295 0.19,0.59 0.31,0.876c0.014,0.034 0.116,0.318 0.179,0.3c0.057,-0.017 -0.036,-0.406 -0.044,-0.449c-0.093,-0.496 -0.103,-0.993 -0.135,-1.495c-0.133,-2.124 -0.49,-4.23 -1.149,-6.255c-0.47,-1.444 -1.215,-2.787 -1.591,-4.264l-0.438,-1.05Zm-38.502,-18.564c-0,2.95 -0.01,5.921 0.095,8.881c0.064,1.771 0.245,3.48 0.126,5.259c-0.129,1.936 -0.082,3.905 -0.479,5.81c-0.091,0.437 -0.107,0.883 -0.162,1.326c-0.016,0.128 -0.05,0.356 0.12,0.395c0.384,0.089 0.628,-0.812 0.755,-1.067c0.62,-1.24 0.864,-2.567 1.134,-3.916c0.198,-0.99 0.038,-1.977 0.168,-2.968c0.303,-2.33 0.519,-4.828 0.029,-7.154c-0.18,-0.855 -0.552,-1.645 -0.839,-2.464c-0.207,-0.591 -0.365,-1.209 -0.48,-1.823c-0.076,-0.406 -0.089,-0.967 -0.324,-1.32l-0.143,-0.959Zm25.748,20.966c-0.04,-0.342 -0.074,-0.86 -0.096,-0.935c-0.397,-1.392 -0.208,-2.995 -0.208,-4.428c-0,-1.916 -0.471,-3.706 -0.589,-5.593c-0.102,-1.634 -0.237,-3.293 -0.54,-4.907c-0.241,-1.285 -0.7,-2.524 -0.969,-3.802c-0.462,-2.198 -0.749,-4.356 -1.876,-6.33c-0.328,-0.573 -1.576,-2.511 -2.343,-2.441c-0.605,0.055 0.256,2.183 0.527,2.319l0.172,-0.589c1.104,2.208 1.085,4.651 1.558,7.016c0.725,3.627 1.585,7.244 2.269,10.892c0.374,1.997 0.658,4.15 1.214,6.097c0.198,0.692 0.472,1.361 0.687,2.048c0.014,0.044 0.121,0.39 0.194,0.653c0.02,0.175 0.042,0.304 0.064,0.304c0.015,-0 -0.017,-0.135 -0.064,-0.304Zm2.282,-10.703c0,0.73 0.369,1.447 0.406,2.184c0.08,1.597 -0.139,3.178 0.18,4.769c0.106,0.533 0.13,1.081 0.179,1.622c0.008,0.089 0.003,0.473 0.12,0.502c0.068,0.017 0.069,-0.436 0.074,-0.507c0.034,-0.542 -0.138,-1.078 -0.055,-1.631c0.332,-2.215 0.246,-4.714 -0.65,-6.806l-0.254,-0.133Zm-48.015,-19.143c0,-0.425 0.688,-0.915 0.82,-1.337c0.094,-0.3 -0.093,-0.492 -0.24,-0.731c-0.327,-0.531 -0.607,-1.06 -0.989,-1.557c-0.386,-0.501 -1.105,-0.924 -1.683,-1.141c-0.198,-0.074 -0.411,-0.097 -0.605,-0.182c-0.112,-0.049 -0.309,-0.196 -0.309,-0.196c-0,0 0.138,0.136 0.214,0.196c0.15,0.116 0.298,0.236 0.46,0.34c0.422,0.271 0.894,0.572 1.248,0.927c0.068,0.068 0.342,0.226 0.328,0.327c-0.02,0.14 -0.361,0.04 -0.435,0.019c-0.437,-0.125 -0.966,-0.365 -1.424,-0.201c-0.487,0.174 -0.832,0.573 -1.292,0.787c-0.96,0.448 -1.911,0.594 -2.692,1.374c-0.249,0.25 -0.482,0.533 -0.687,0.82c-0.036,0.051 -0.199,0.215 -0.176,0.284c0.003,0.011 0.707,-0.439 0.762,-0.473c0.784,-0.477 1.5,-0.958 2.32,-1.368c0.049,-0.024 0.737,-0.259 0.737,-0.17c0,0.048 -0.234,0.154 -0.271,0.176c-0.274,0.168 -0.551,0.425 -0.744,0.681c-0.718,0.958 -1.549,2.037 -2.067,3.12c-0.292,0.61 -0.384,1.263 -0.454,1.929c-0.007,0.065 -0.114,0.605 -0.025,0.605c0.123,-0 0.364,-0.547 0.422,-0.637c0.403,-0.616 0.712,-1.283 1.16,-1.872c0.087,-0.114 0.367,-0.573 0.536,-0.573c0.106,-0 -0.053,0.568 -0.063,0.617c-0.114,0.553 -0.337,1.116 -0.265,1.69c0.008,0.066 0.081,0.498 0.164,0.498c0.102,-0 0.28,-0.71 0.309,-0.788c0.229,-0.618 0.625,-1.188 1.015,-1.715c0.077,-0.105 0.261,-0.442 0.39,-0.485c0.022,-0.007 -0.048,0.43 -0.056,0.473c-0.071,0.353 -0.089,0.7 -0.089,1.059c0,0.031 -0.016,0.346 0.019,0.346c0.058,0 0.149,-0.307 0.171,-0.353c0.176,-0.373 0.347,-0.751 0.542,-1.115c0.522,-0.98 1.893,-2.864 2.949,-1.374Z" style="fill:#282725;"/><path d="M38.011,51.529c-0.019,0.064 -0.039,0.127 -0.058,0.191c-0.082,0.26 -0.239,0.479 -0.252,0.76c-0.005,0.088 -0.003,0.176 0.005,0.264l-20.555,0.176l-0.308,0.352l-4.441,-0l0.263,-1.452l25.346,-0.291Zm11.527,-0.132l9.04,-0.104c1.197,0.669 3.983,0.596 6.948,0.439l-0,1.012l-12.402,-0.132l-6.803,0.058c0.052,-0.141 0.099,-0.296 0.174,-0.349c0.13,-0.093 0.481,-0.056 0.657,-0.133c0.633,-0.277 1.332,-0.169 1.932,-0.43c0.174,-0.075 0.324,-0.201 0.454,-0.361Zm-6.584,0.075c-0.089,0.331 -0.175,0.662 -0.328,0.968c-0.046,0.092 -0.1,0.179 -0.158,0.263l-2.465,0.021c-0.137,-0.198 -0.239,-0.387 -0.261,-0.56c-0.029,-0.223 0.053,-0.445 0.157,-0.657l3.055,-0.035Z" style="fill:#44372f;"/></g></g></svg>