<?xml version="1.0" encoding="UTF-8" standalone="no"?><!DOCTYPE svg PUBLIC "-//W3C//DTD SVG 1.1//EN" "http://www.w3.org/Graphics/SVG/1.1/DTD/svg11.dtd"><svg width="100%" height="100%" viewBox="0 0 150 150" version="1.1" xmlns="http://www.w3.org/2000/svg" xmlns:xlink="http://www.w3.org/1999/xlink" xml:space="preserve" xmlns:serif="http://www.serif.com/" style="fill-rule:evenodd;clip-rule:evenodd;stroke-linejoin:round;stroke-miterlimit:2;"><path id="base" d="M150,75c0,-41.394 -33.606,-75 -75,-75c-41.394,0 -75,33.606 -75,75c0,41.394 33.606,75 75,75c41.394,0 75,-33.606 75,-75Z" style="fill:#3a3332;"/><path id="outline" d="M144,75c0,-38.082 -30.918,-69 -69,-69c-38.082,0 -69,30.918 -69,69c0,38.082 30.918,69 69,69c38.082,0 69,-30.918 69,-69Z" style="fill:#c36a5e;"/><path id="core" d="M141,75c0,-36.426 -29.574,-66 -66,-66c-36.426,0 -66,29.574 -66,66c0,36.426 29.574,66 66,66c36.426,0 66,-29.574 66,-66Z" style="fill:#cbb89f;"/><clipPath id="_clip1"><path d="M141,75c0,-36.426 -29.574,-66 -66,-66c-36.426,0 -66,29.574 -66,66c0,36.426 29.574,66 66,66c36.426,0 66,-29.574 66,-66Z"/></clipPath><g clip-path="url(#_clip1)"><g id="kyoukotsu--crazy-bones"><g><path d="M102.96,47.63l-0.148,67.355l-10.756,-2.484l0.463,-60.318c0.12,-1.008 0.218,-2.078 0.298,-3.202l10.143,-1.351Z" style="fill:#4c4542;"/><path d="M22.614,116.465l34.739,-7.62l0,-2.212l4.998,-1.393l5.162,1.311l6.964,-1.967l6.555,1.393l0.164,3.032l27.775,6.641l10.629,-2.914l6.964,1.393l0.164,3.114c-22.621,31.085 -72.891,45.238 -104.114,-0.778Z" style="fill:#655b4f;"/><path d="M78.508,142.232l-0.246,-6.555l-1.884,-0.819l36.296,-11.307l6.718,1.393c-5.718,7.892 -24.609,16.29 -40.884,17.288Zm-20.893,-2.048l4.342,-1.147l3.606,2.13l-7.948,-0.983Zm-21.958,-10.16l10.897,3.851l-4.834,2.54l-6.063,-6.391Zm-9.914,-10.979l44.08,-10.078l34.248,8.603l-10.406,2.294l-60.712,2.458l-5.815,-1.107l-1.395,-2.17Z" style="fill:#4c4542;"/><path d="M31.397,121.995l28.103,8.439l37.361,-11.143l-27.693,-6.391l-37.771,9.095Z" style="fill:#3e413f;"/><path d="M68.268,114.394l-0.226,-86.626l1.132,-0.679l-0.057,86.744l-0.849,0.561Zm-4.246,-3.392l-0.056,-83.709l0.849,0l0.113,83.745l-0.906,-0.036Z" style="fill:#4d453f;"/><path d="M61.794,129.326l-0.984,-6.227c-0.446,0.365 -1.19,-0.85 -0.491,-1.475l-0.328,-3.769c0.51,-1.021 1.513,-1.656 3.032,-1.884l-1.311,-4.588l3.605,-1.475l1.393,0.246l0.383,2.892l4.256,-1.419l1.26,14.667l-10.815,3.032Z" style="fill:#49433e;"/><path d="M92.448,61.419l0.071,-9.236c1.059,-8.871 0.433,-22.612 0.273,-35.724l-23.266,0.396l-0.17,11.265l-4.245,0.226l-2.887,-0.283l-0.057,-11.378l-7.311,0.146l-5.596,-0.486l-0.056,-4.585c15.957,-10.346 33.802,-10.448 53.835,0.34l-0.112,50.461l-10.479,-1.142Z" style="fill:#4c4542;"/></g><g><path d="M75.197,125.45l-4.469,1.327c0.982,-3.931 -0.185,-16.1 -2.743,-33.6c-0.628,-6.56 -0.434,-13.23 0.708,-20.026c1.006,-4.473 1.657,-9.452 0.177,-17.476c-0.516,-0.528 -1.032,-0.563 -1.548,0.089c-1.473,1.194 -3.011,2.389 -4.602,3.583c-3.368,1.641 -5.907,0.218 -7.742,-3.805c-0.281,-3.424 0.501,-6.746 2.699,-9.934c0.809,-1.036 1.697,-2.388 2.743,-4.368c1.017,-3.156 2.684,-5.899 4.999,-8.229c6.405,-3.449 9.54,-3.971 11.459,-3.407c6.279,1.844 14.974,1.982 14.512,8.583c-0.038,2.934 0.406,4.632 1.194,5.442c0.247,2.785 1.015,4.909 3.032,5.452c1.245,0.299 5.041,-3.902 7.035,-3.318c2.963,0.242 3.71,3.405 4.07,7.078c0.465,8.048 0.446,15.819 0.084,23.395c-0.63,4.523 -1.021,5.165 -1.062,0.132c0.087,-2.221 0.091,-4.386 -0.177,-6.371c-0.442,-2.106 -0.885,-0.577 -1.327,3.097c-0.344,11.717 -1.131,16.575 -1.947,17.554c0.461,-5.041 0.616,-10.266 0.487,-15.662c-0.251,-4.076 -0.501,-4.463 -0.752,-0.398l-0.133,7.521c-0.806,-0.431 -0.819,-3.88 -0.796,-7.388l0.354,-11.768c0.374,-5.55 0.557,-9.865 -1.903,-9.733c-2.974,-0.486 -5.403,4.039 -6.725,4.026c-2.515,-0.518 -3.959,-3.774 -4.291,-7.566c-0.382,-4.71 -1.949,-6.926 -5.044,-6.327c0.806,7.281 1.17,13.119 1.15,17.45c-0.956,12.501 -2.632,15.783 -4.203,20.416c-2.391,8.148 -4.698,16.44 -4.947,28.279c0.598,8.154 0.526,13.579 -0.292,15.952Z" style="fill:#424a56;"/><path d="M77.508,40.219l-1.808,-3.314l-0.662,0.723l-0.482,-1.325l0.482,-1.205l-1.025,-1.507c-17.539,-22.568 23.149,-21.419 7.23,-0.301c0,0 -0.904,1.687 -0.964,2.47c-0.06,0.784 0,1.145 0,1.145l-0.964,-0.06l-0.361,1.385l-0.603,0.241l-0.843,1.748Z" style="fill:#989b8c;"/><path d="M73.429,34.024c-0.419,0.101 -0.694,0.169 -0.712,0.174c-0.443,0.118 -1.025,0.084 -1.478,0.027c-0.754,-0.094 -1.497,-0.208 -2.223,-0.435c-0.612,-0.191 -1.163,-0.55 -1.756,-0.778c-0.425,-0.164 -1.115,-0.187 -1.385,-0.612c-0.522,-0.819 -0.438,-1.789 0.069,-2.585c0.107,-0.168 0.216,-0.334 0.403,-0.421c0.056,-0.027 0.195,-0.052 0.195,-0.135c-0,-0.114 -0.126,-0.253 -0.153,-0.37c-0.051,-0.22 -0.083,-0.456 -0.097,-0.681c-0.009,-0.143 -0.019,-0.317 0.055,-0.445c0.043,-0.073 0.172,-0.18 0.162,-0.269c-0.014,-0.127 -0.23,-0.376 -0.282,-0.523c-0.144,-0.402 -0.167,-0.826 -0.195,-1.246c-0.035,-0.525 0.346,-0.855 0.385,-1.358c0.03,-0.393 -0.144,-0.81 -0.014,-1.2c0.082,-0.245 0.31,-0.391 0.468,-0.583c0.436,-0.534 0.953,-0.893 1.491,-1.311c0.233,-0.181 0.319,-0.603 0.515,-0.834c0.092,-0.11 0.303,-0.141 0.37,-0.241c0.053,-0.08 -0.024,-0.281 -0.009,-0.385c0.035,-0.248 0.142,-0.503 0.259,-0.722c0.095,-0.178 0.195,-0.37 0.371,-0.482c0.056,-0.036 0.221,-0.017 0.25,-0.065c0.05,-0.083 0.014,-0.234 0.06,-0.334c0.16,-0.346 0.335,-0.702 0.524,-1.033c0.05,-0.088 0.132,-0.224 0.231,-0.264c0.027,-0.01 0.15,0.007 0.158,-0.009c0.088,-0.177 0.066,-0.382 0.213,-0.57c0.23,-0.292 0.586,-0.659 0.945,-0.787c0.085,-0.031 0.282,0.007 0.324,-0.014c0.061,-0.03 0.23,-0.395 0.301,-0.473c0.133,-0.145 0.271,-0.286 0.41,-0.424c0.048,-0.204 0.122,-0.398 0.281,-0.556c0.436,-0.436 1.48,-0.504 2.057,-0.371c0.2,0.046 0.393,0.287 0.593,0.287c0.098,0 0.167,-0.252 0.241,-0.315c0.224,-0.189 0.611,-0.314 0.884,-0.412c0.447,-0.16 0.857,-0.106 1.267,-0l0.025,-0.005c0.366,-0.069 0.651,-0.2 1.038,-0.176c0.779,0.048 1.692,0.843 1.996,1.538c0.251,0.572 0.223,1.291 0.626,1.783c0.416,0.509 1.358,0.094 1.714,0.755c0.339,0.631 0.089,1.583 0.593,2.15c0.509,0.573 1.177,0.337 1.853,0.422c0.189,0.023 0.59,-0.051 0.713,0.125c0.167,0.238 -0.352,0.688 -0.533,0.778c-0.189,0.094 -0.415,0.164 -0.625,0.19c-0.089,0.011 -0.224,-0.054 -0.301,0.014c-0.077,0.068 0.001,0.264 0.032,0.338c0.12,0.279 0.392,0.587 0.649,0.746c0.573,0.352 1.53,-0.294 2.043,-0.565c1.312,-0.695 2.826,-1.121 4.322,-1.121c0.809,-0 1.575,0.355 2.317,0.643c0.213,0.084 0.456,0.135 0.685,0.135c0.033,-0 0.389,0 0.371,0.037c-0.044,0.088 -0.304,0.131 -0.389,0.162c-0.316,0.113 -0.578,0.225 -0.918,0.273c-0.126,0.018 -0.365,-0.043 -0.472,0.028c-0.023,0.015 0.427,0.279 0.204,0.422c-0.33,0.21 -1.019,0.248 -1.376,0.111c-0.216,-0.083 -0.378,-0.258 -0.607,-0.329c-0.464,-0.145 -1.205,-0.048 -1.649,0.125c-0.51,0.198 -0.929,0.709 -1.348,1.052c-0.58,0.474 -1.351,0.886 -2.03,1.2c-0.371,0.171 -0.756,0.245 -1.162,0.194c-0.091,-0.011 -0.464,-0.157 -0.533,-0.088c-0.007,0.007 0.18,0.119 0.199,0.13c0.131,0.076 0.263,0.156 0.389,0.241c0.596,0.397 1.262,0.622 1.983,0.667c0.291,0.018 0.601,-0.059 0.871,-0.162c0.051,-0.02 0.319,-0.223 0.32,-0.223c0.072,0.121 -0.085,0.307 -0.186,0.352c-0.35,0.16 -0.774,0.346 -1.153,0.422c-0.13,0.026 -0.276,0.056 -0.408,0.056c-0.018,-0 -0.213,-0.01 -0.213,0.009c0,0.023 0.145,0.086 0.167,0.102c0.149,0.112 0.289,0.236 0.435,0.352c0.541,0.425 0.977,0.427 1.622,0.565c0.371,0.08 0.834,0.178 1.213,0.106c0.184,-0.034 0.414,-0.182 0.38,-0.403c-0.011,-0.073 -0.239,-0.318 -0.139,-0.352c0.249,-0.082 0.758,0.313 0.774,0.566c0.055,0.887 -1.421,0.87 -1.978,0.87c-0.184,0 -0.354,-0.019 -0.533,-0.06c-0.092,-0.021 -0.278,-0.06 -0.278,-0.06c0,0 0.194,0.054 0.292,0.079c0.173,0.043 0.343,0.122 0.514,0.176c0.515,0.161 1.068,0.15 1.58,0.296c0.356,0.102 0.571,0.607 0.945,0.607c0.297,0 0.66,-0.164 0.945,-0.245c0.085,-0.025 0.226,-0.155 0.315,-0.088c0.191,0.143 -0.268,0.382 -0.176,0.421c0.083,0.036 0.313,-0.059 0.398,-0.088c0.356,-0.118 1.456,-0.286 1.173,0.394c-0.098,0.233 -0.36,0.292 -0.58,0.334c-0.484,0.09 -0.938,0.265 -1.426,0.342c-1.545,0.244 -3.161,0.083 -4.689,-0.203c-0.605,-0.114 -1.087,-0.539 -1.704,-0.617c-0.692,-0.086 -1.322,0.046 -1.951,0.315c-0.061,0.027 -0.544,0.23 -0.528,0.278c0.025,0.076 0.474,0.084 0.551,0.084c0.518,-0 1.142,0.099 1.594,0.37c0.386,0.232 0.756,0.496 1.056,0.83c0.224,0.249 0.309,0.652 0.621,0.82c0.701,0.377 1.493,-0.079 2.228,0.078c0.424,0.091 0.528,0.648 0.904,0.742c0.052,0.013 0.214,-0.111 0.268,-0.135c0.271,-0.116 0.53,-0.197 0.816,-0.269c0.937,-0.234 1.931,-0.264 2.89,-0.324c0.542,-0.034 1.163,-0.137 1.529,0.338c0.099,0.129 -0.444,0.074 -0.542,0.088c-0.407,0.062 -0.773,0.233 -1.195,0.186c-0.594,-0.066 -1.133,0.121 -1.705,0.245c-0.434,0.095 -0.884,0.139 -1.302,0.301c-0.256,0.1 -0.753,0.325 -0.875,0.593c-0.054,0.118 0.139,0.113 0.204,0.135c0.239,0.079 0.449,0.224 0.713,0.204c0.511,-0.04 1.029,-0.214 1.501,-0.408c0.15,-0.062 0.306,-0.217 0.463,-0.241c0.134,-0.021 0.361,0.094 0.496,0.125c0.089,0.021 0.417,0.009 0.473,0.065c0.026,0.026 -0.071,0.022 -0.107,0.032c-0.078,0.023 -0.164,0.069 -0.227,0.121c-0.27,0.221 -0.563,0.415 -0.843,0.625c-0.04,0.03 -0.283,0.126 -0.273,0.172c0.019,0.097 0.534,0.282 0.625,0.315c0.465,0.166 0.978,0.248 1.473,0.217c0.291,-0.018 0.593,-0.111 0.885,-0.069c0.219,0.031 0.437,0.059 0.657,0.086c-0.194,0.005 -0.459,0.046 -0.384,0.196c0.021,0.042 0.213,0.036 0.255,0.042c0.267,0.038 0.513,0.067 0.774,0.148c0.406,0.127 0.782,0.348 1.186,0.482c0.547,0.183 1.328,0.335 1.748,0.749c0.08,0.079 0.494,0.622 0.278,0.66c-0.186,0.032 -0.371,-0.103 -0.533,-0.17c-0.38,-0.157 -0.785,-0.264 -1.171,-0.406c-1.163,-0.427 -2.222,-0.764 -3.476,-0.772c-0.401,-0.002 -0.801,0.006 -1.199,0.051c-0.096,0.01 -0.338,-0.001 -0.399,0.092c-0.023,0.036 0.334,0.147 0.371,0.158c0.25,0.073 0.498,0.153 0.732,0.269c0.667,0.33 1.541,0.972 1.59,1.787c0.025,0.42 -0.768,-0.096 -1.002,-0.176c-0.063,-0.021 -0.322,-0.151 -0.366,-0.069c-0.04,0.076 0.093,0.226 0.121,0.292c0.065,0.156 0.176,0.608 0.009,0.737c-0.034,0.026 -0.284,-0.234 -0.349,-0.256c-0.042,-0.014 -0.128,-0.067 -0.133,-0.022c-0.015,0.149 0.31,0.479 0.397,0.593c0.29,0.378 0.61,0.776 0.639,1.272c0.006,0.104 0.074,0.402 -0.003,0.483c-0.01,0.012 -0.378,-0.431 -0.417,-0.467c-0.089,-0.085 -0.177,-0.173 -0.265,-0.261c-0.043,-0.061 -0.086,-0.122 -0.13,-0.182c-0.303,-0.418 -0.62,-0.734 -1.121,-0.913c-0.485,-0.173 -1.142,-0.363 -1.659,-0.329c-0.184,0.012 -0.44,0.093 -0.683,0.118c-0.058,-0.008 -0.115,-0.016 -0.172,-0.024l-0.275,-0.04c-0.031,-0.018 -0.061,-0.041 -0.088,-0.068c-0.11,-0.11 -0.059,-0.379 -0.088,-0.523c-0.063,-0.316 -0.168,-0.633 -0.297,-0.927c-0.51,-1.167 -1.163,-2.502 -2.284,-3.215c-0.69,-0.439 -1.822,-0.382 -2.598,-0.236c-0.705,0.132 -1.47,0.272 -2.187,0.319c-0.234,0.016 -0.472,-0.023 -0.704,0.024c-0.656,0.131 -1.497,0.281 -2.164,0.139c-0.405,-0.087 -0.661,-0.397 -0.935,-0.672c-0.396,-0.396 -0.859,-0.777 -1.066,-1.316c-0.234,-0.608 -0.133,-1.224 0.352,-1.709c0.228,-0.228 0.583,-0.357 0.843,-0.552c0.771,-0.578 1.385,-1.309 2.136,-1.899c0.439,-0.345 1.037,-0.641 1.316,-1.158c0.189,-0.351 -0.148,-0.786 -0.241,-1.112c-0.226,-0.79 -0.344,-1.668 -0.389,-2.488c-0.017,-0.292 0.109,-0.849 -0.088,-1.102c-0.06,-0.077 -0.204,-0.009 -0.283,-0.014c-0.209,-0.014 -0.437,-0.078 -0.635,-0.144c-0.475,-0.158 -0.89,-0.571 -1.2,-0.949c-0.211,-0.259 -0.428,-0.534 -0.5,-0.871c-0.058,-0.273 -0.031,-0.75 -0.208,-0.978c-0.244,-0.313 -0.952,-0.373 -1.311,-0.44c-1.238,-0.232 -2.782,-0.051 -3.878,0.588c-0.389,0.227 -0.722,0.653 -1.121,0.834c-0.211,0.096 -0.315,-0.214 -0.523,-0.227c-0.465,-0.029 -1.303,0.381 -1.52,0.816c-0.113,0.225 0.217,0.7 0.334,0.889c0.041,0.067 0.172,0.255 0.125,0.338c-0.061,0.107 -0.332,-0.207 -0.385,-0.245c-0.156,-0.114 -0.36,-0.204 -0.556,-0.204c-0.055,-0 -0.221,-0.013 -0.204,0.083c0.025,0.134 0.151,0.276 0.218,0.394c0.206,0.361 0.51,0.823 0.82,1.098c0.209,0.186 0.517,0.312 0.649,0.574c0.129,0.259 -0.574,0.049 -0.63,0.112c-0.213,0.236 0.081,0.614 0.203,0.829c0.31,0.541 0.69,1.033 1.02,1.552c0.057,0.09 0.353,0.391 0.287,0.5c-0.035,0.058 -0.159,-0.017 -0.199,-0.032c-0.21,-0.081 -0.394,-0.211 -0.593,-0.311c-0.459,-0.229 -0.929,-0.23 -1.279,-0.658c-0.169,-0.206 -0.311,-0.412 -0.5,-0.602c-0.021,-0.02 -0.128,-0.168 -0.158,-0.153c-0.089,0.045 -0.238,0.528 -0.245,0.635c-0.015,0.227 -0.037,0.62 0.014,0.839c0.231,1.003 1.42,1.677 2.061,2.39c0.809,0.898 0.999,1.992 0.927,3.146c-0.043,0.688 -0.215,1.348 -0.478,1.977Zm23.867,0.687c0.084,-0.003 0.154,0.002 0.177,0.007c0.051,0.01 0.185,0.014 0.148,0.05c-0.014,0.014 -0.208,-0.042 -0.236,-0.046l-0.089,-0.011Z" style="fill:#4e5354;"/></g></g></g></svg>