<?xml version="1.0" encoding="UTF-8" standalone="no"?><!DOCTYPE svg PUBLIC "-//W3C//DTD SVG 1.1//EN" "http://www.w3.org/Graphics/SVG/1.1/DTD/svg11.dtd"><svg width="100%" height="100%" viewBox="0 0 150 150" version="1.1" xmlns="http://www.w3.org/2000/svg" xmlns:xlink="http://www.w3.org/1999/xlink" xml:space="preserve" xmlns:serif="http://www.serif.com/" style="fill-rule:evenodd;clip-rule:evenodd;stroke-linejoin:round;stroke-miterlimit:2;"><path id="base" d="M150,75c0,-41.394 -33.606,-75 -75,-75c-41.394,0 -75,33.606 -75,75c0,41.394 33.606,75 75,75c41.394,0 75,-33.606 75,-75Z" style="fill:#3a3332;"/><path id="outline" d="M144,75c0,-38.082 -30.918,-69 -69,-69c-38.082,0 -69,30.918 -69,69c0,38.082 30.918,69 69,69c38.082,0 69,-30.918 69,-69Z" style="fill:#c36a5e;"/><path id="core" d="M141,75c0,-36.426 -29.574,-66 -66,-66c-36.426,0 -66,29.574 -66,66c0,36.426 29.574,66 66,66c36.426,0 66,-29.574 66,-66Z" style="fill:#cbb89f;"/><clipPath id="_clip1"><path d="M141,75c0,-36.426 -29.574,-66 -66,-66c-36.426,0 -66,29.574 -66,66c0,36.426 29.574,66 66,66c36.426,0 66,-29.574 66,-66Z"/></clipPath><g clip-path="url(#_clip1)"><g id="tesso--iron-rat" serif:id="tesso--iron rat"><g><path d="M39.008,14.44l-0.222,68.771c9.248,1.206 19.261,1.196 30.058,0.078l0.223,-76.289l-30.059,7.44Z" style="fill:#816653;"/><path d="M38.801,79.832l0,1.492c10.033,1.439 20.045,1.498 29.897,0.407l0.135,-1.221c3.77,-0.067 4.998,0.971 4.61,2.712l-0.068,3.186c-13.743,2.459 -26.932,2.151 -39.59,-0.813l-0.068,-4.474c0.785,-0.43 2.672,-0.859 5.084,-1.289Z" style="fill:#756f71;"/><path d="M81.076,126.346c-0.106,-0.213 -0.811,0.225 -0.943,0.309c-0.802,0.511 -1.995,1.145 -2.938,1.322c-0.982,0.184 -2.04,0.615 -3.028,0.681c-2.373,0.158 -4.809,-0.325 -7.158,0.144c-1.173,0.235 -2.153,1.011 -3.09,1.714c-0.126,0.095 -0.828,0.67 -0.957,0.509c-0.091,-0.114 0.62,-0.736 0.702,-0.825c0.75,-0.819 1.895,-1.375 2.96,-1.707c2.903,-0.908 5.909,-0.465 8.864,-1.019c1.528,-0.286 2.935,-1.196 4.404,-1.686c0.545,-0.181 1.266,-0.495 1.652,-0.929c0.488,-0.549 0.647,-1.383 0.971,-2.03c0.359,-0.718 1.162,-1.528 1.865,-1.907c0.993,-0.534 2.179,-1.221 3.331,-1.293c0.759,-0.048 1.759,0.02 2.505,0.192c0.855,0.198 1.509,0.426 2.395,0.131c1.026,-0.342 1.929,-1.006 2.918,-1.438c0.435,-0.191 0.871,-0.38 1.321,-0.53c0.171,-0.057 0.465,0.004 0.606,-0.09c0.063,-0.042 -0.026,-0.206 -0.021,-0.268c0.017,-0.22 0.112,-0.449 0.241,-0.626c0.292,-0.402 1.049,-0.741 1.493,-0.943c0.7,-0.318 1.047,0.195 1.7,0.151c0.417,-0.028 0.776,-0.297 1.212,-0.268c0.6,0.04 1.094,0.358 1.651,0.543c1.009,0.337 1.877,0.724 2.774,1.294c0.236,0.151 0.544,0.149 0.791,0.282c0.894,0.482 -0.519,1.382 -0.922,1.508c-0.801,0.25 -1.666,0.035 -2.478,0.289c-0.79,0.247 -1.222,0.744 -1.844,1.252c-0.578,0.473 -1.234,0.909 -1.032,1.783c0.086,0.375 0.702,0.478 1.018,0.523c1.029,0.147 1.799,0.525 2.808,0.11c0.543,-0.224 1.08,-0.461 1.638,-0.647c0.102,-0.034 0.491,-0.196 0.537,-0.014c0.022,0.089 -0.089,0.195 -0.138,0.255c-0.147,0.18 -0.453,0.82 -0.612,0.908c-0.124,0.069 -0.34,-0.037 -0.482,-0.027c-0.491,0.035 -1.095,0.022 -1.562,0.11c-0.211,0.039 -0.553,0.133 -0.709,0.289c-0.13,0.13 -0.15,0.331 -0.33,0.413c-0.335,0.152 -0.966,0.13 -1.329,0.062c-0.48,-0.09 -0.998,-0.124 -1.486,-0.124c-0.162,-0 -0.415,-0.048 -0.489,0.144c-0.132,0.343 -0.122,0.787 -0.144,1.15c-0.064,1.015 -0.263,2.15 0.254,3.11c0.31,0.576 0.812,0.551 1.308,0.84c0.146,0.085 0.239,0.283 0.11,0.427c-0.159,0.176 -0.662,-0 -0.874,-0c-0.651,-0 -0.972,-0.426 -1.376,-0.881c-0.521,-0.586 -1.06,-1.127 -1.349,-1.879c-0.213,-0.551 -0.262,-1.176 -0.262,-1.762c0,-0.08 -0.055,-0.502 -0.193,-0.475c-0.114,0.023 -0.523,0.873 -0.619,1.005c-0.534,0.735 -1.195,1.507 -2.044,1.893c-0.796,0.361 -1.71,0.767 -2.56,0.963c-0.537,0.124 -1.307,0.024 -1.796,0.234c-0.118,0.05 -0.213,0.303 -0.31,0.399c-0.255,0.256 -0.735,0.345 -0.943,0.613c-0.149,0.192 0.026,0.483 -0.172,0.681c-0.262,0.262 -1.416,0.247 -1.755,0.179c-0.16,-0.032 -0.476,-0.092 -0.544,-0.261c-0.077,-0.194 0.127,-0.762 -0.075,-0.874c-0.193,-0.107 -0.539,0.027 -0.771,-0.062c-0.944,-0.363 -2.143,-0.78 -2.932,-1.425c-0.694,-0.567 -0.572,-1.522 -1.287,-2.058l-0.475,-0.364Zm-58.634,-9.199c-0.042,-0.126 0.099,-0.299 0.179,-0.379c0.246,-0.246 0.668,-0.916 1.039,-0.95c0.207,-0.018 0.367,0.324 0.592,0.372c0.806,0.173 1.622,0.461 2.457,0.461c0.269,0 0.73,0.044 0.853,-0.275c0.314,-0.817 -0.751,-0.991 -1.239,-0.991c-0.163,-0 -0.55,-0.023 -0.55,-0.262c-0,-0.186 0.138,-0.355 0.172,-0.536c0.161,-0.86 0.587,-1.97 0.399,-2.85c-0.09,-0.419 -0.507,-0.754 -0.888,-0.881c-0.133,-0.044 -0.397,-0.032 -0.495,-0.13c-0.075,-0.075 -0.019,-0.233 -0.007,-0.324c0.042,-0.342 -0.15,-0.498 -0.172,-0.791c-0.039,-0.502 -0.023,-1.207 0.22,-1.659c0.281,-0.522 1.03,-0.994 0.936,-1.652c-0.028,-0.193 -0.173,-0.752 -0.406,-0.77c-0.332,-0.026 -0.954,0.814 -1.081,0.055c-0.082,-0.495 0.383,-0.765 0.599,-1.136c0.155,-0.266 0.226,-0.593 0.31,-0.888c0.375,-1.315 0.313,-2.66 0.481,-4.005c0.05,-0.395 -0.092,-0.89 0.076,-1.259c0.532,-1.171 1.724,-1.915 0.84,-3.304c-0.673,-1.057 -1.315,0.788 -1.521,1.26c-0.046,0.105 -0.055,0.582 -0.152,0.591c-0.961,0.096 -1.733,0.059 -2.649,0.482c-0.365,0.169 -0.769,0.857 -1.129,0.909c-0.064,0.009 -0.336,-0.304 -0.44,-0.351c-0.753,-0.343 -1.624,-0.832 -2.209,0.013c-0.306,0.441 -0.568,1.162 -0.29,1.68c0.062,0.114 0.558,0.315 0.558,0.357c-0,0.046 -0.29,0.171 -0.337,0.214c-0.311,0.284 -0.577,0.605 -0.861,0.915c-0.896,0.978 -1.389,2.157 -2.112,3.242c-0.221,0.33 -0.54,0.955 -1.019,0.805c-1.121,-0.35 -0.884,-2.269 -0.95,-3.152c-0.053,-0.72 -0.34,-1.576 -0.206,-2.292c0.427,-2.278 1.53,-4.554 1.232,-6.937c-0.119,-0.947 -0.293,-2.179 -0.998,-2.884c-0.086,-0.086 -0.872,-0.623 -0.964,-0.509c-0.076,0.096 0.113,0.284 0.165,0.351c0.227,0.291 0.584,0.577 0.709,0.929c0.391,1.093 0.686,2.114 0.455,3.269c-0.12,0.597 -0.335,1.182 -0.517,1.762c-0.246,0.79 -0.318,1.593 -0.667,2.36c-0.465,1.022 -1.141,1.866 -1.473,2.974c-0.24,0.799 -0.296,1.642 -0.468,2.456c-0.879,4.154 -1.072,8.793 0.041,12.918c0.438,1.62 1.167,3.111 1.914,4.604l9.573,-3.812Zm14.024,-58.356c0,-0.43 0.151,-0.853 0.121,-1.299c-0.103,-1.55 -0.397,-3.493 -1.141,-4.873c-0.689,-1.28 -1.98,-2.1 -2.75,-3.309c-0.416,-0.654 -0.54,-1.519 -0.635,-2.275c-0.047,-0.381 0.079,-0.763 0.053,-1.148c-0.058,-0.873 -0.092,-1.985 0.28,-2.803c0.109,-0.24 0.278,-0.872 0.529,-0.997c0.041,-0.021 -0.023,0.323 -0.03,0.355c-0.053,0.208 -0.099,0.424 -0.144,0.634c-0.137,0.642 -0.168,1.31 -0.212,1.965c-0.122,1.83 0.622,3.776 1.761,5.168c0.509,0.622 1.152,1.124 1.647,1.76c0.601,0.772 1.051,2.015 1.269,2.962c0.351,1.521 0.141,3.127 0.491,4.646c0.103,0.446 1.033,0.199 1.111,0.703c0.016,0.103 0.03,0.208 0.03,0.313c-0,1.3 -0.191,2.764 -0.005,4.042c0.033,0.228 0.206,1.221 0.535,1.222c0.1,0.237 0.155,0.49 0.173,0.762c0.023,0.343 -0,0.931 -0.144,1.247c-0.102,0.224 -0.38,0.757 -0.332,0.997c0.05,0.25 0.539,0.788 0.725,0.974c0.076,0.076 0.329,0.215 0.28,0.348c-0.151,0.403 -0.854,0.51 -1.224,0.559c-0.174,0.023 -0.332,-0.15 -0.431,0.068c-0.185,0.408 -0.415,0.784 -0.446,1.247c-0.026,0.389 0.052,0.795 -0.03,1.178c-0.199,0.928 -0.523,2.044 -1.035,2.849c-0.26,0.408 -0.729,0.434 -1.05,0.755c-0.94,0.94 -1.913,1.956 -2.992,2.766c-0.551,0.413 -1.256,0.641 -1.783,1.072c-0.575,0.471 -1.043,0.886 -1.481,1.489c-0.217,0.299 -0.248,1.091 -0.665,1.216c-0.243,0.073 -0.539,-0.03 -0.786,-0.03c-0.167,0 -0.342,0.106 -0.506,0.038c-0.03,-0.013 -0.183,-0.102 -0.159,-0.151c0.033,-0.065 0.299,-0.051 0.371,-0.083c0.217,-0.099 0.39,-0.348 0.581,-0.492c0.508,-0.38 0.71,-0.919 0.748,-1.541c0.082,-1.309 -1.642,-2.815 -2.788,-3.173c-0.863,-0.27 -1.428,0.493 -2.236,0.544c-0.289,0.018 -0.573,-0.146 -0.861,-0.166c-1.043,-0.075 -2.304,-0.012 -3.34,0.136c-0.473,0.067 -0.842,1.467 -1.533,0.929c-0.63,-0.49 0.013,-1.272 0.518,-1.44c0.461,-0.154 0.518,-0.199 0.941,-0.29c0.319,-0.068 0.803,-0.038 1.124,-0.052c0.532,-0.024 1.322,-0.119 1.7,-0.145c0.977,-0.065 2.01,-0.636 2.078,-1.662c0.032,-0.474 -0.428,-0.747 -0.725,-1.02c-0.891,-0.816 -1.846,-1.178 -2.947,-1.602c-0.449,-0.172 -1.164,-0.2 -1.254,-0.785c-0.079,-0.511 0.86,-0.816 1.209,-0.99c1.441,-0.721 3.113,-0.534 4.548,-1.186c0.7,-0.318 0.569,-1.218 1.564,-1.156c0.895,0.056 0.378,1.171 0.582,1.7c0.072,0.186 0.303,0.228 0.468,0.287c0.65,0.232 0.977,0.099 1.549,-0.265c0.999,-0.635 1.735,-1.844 2.312,-2.833c0.191,-0.327 0.421,-0.711 0.469,-1.095c0.139,-1.118 -0.166,-2.26 -0.091,-3.385c0.066,-0.995 0.511,-1.9 0.997,-2.75c0.252,-0.441 0.558,-0.961 0.983,-1.255c0.401,-0.277 1,-0.323 1.458,-0.476l0.551,-0.204m7.631,-42.911c0.624,1.215 1.11,2.134 1.206,3.53c0.049,0.715 -0.478,1.054 -0.271,1.782c0.274,0.965 1.363,2.273 0.777,3.305c-0.401,0.708 -0.814,-0.083 -0.939,-0.492c-0.161,-0.521 -0.286,-1.073 -0.367,-1.612c-0.029,-0.194 0.037,-0.489 -0.103,-0.65c-0.248,-0.285 -0.774,0.292 -0.91,0.456c-0.678,0.818 -0.792,2.065 -1.331,2.984c-0.711,1.214 -1.701,2.239 -2.395,3.462c-1.283,2.26 -0.395,5.117 -0.388,7.557c0.001,0.58 -0.023,1.2 -0.218,1.752c-0.079,0.225 -0.229,0.541 -0.513,0.532c-0.33,-0.011 -0.602,-0.374 -0.777,-0.611c-0.368,-0.496 -0.695,-1.01 -1.212,-1.368c-0.303,-0.21 -0.491,0.038 -0.812,0.016c-0.686,-0.046 -1.828,-0.555 -1.99,-1.259c-0.16,-0.692 0.48,-1.504 0.528,-2.217c0.071,-1.063 -0.132,-2.171 -0.065,-3.248c0.036,-0.572 0.228,-1.12 0.26,-1.69c0.08,-1.45 -0.04,-2.911 -0.13,-4.353c-0.02,-0.314 0.04,-0.632 0.086,-0.951c-0.012,0.023 -0.112,-0.473 -0.122,-0.552c-0.051,-0.406 -0,-0.838 0.04,-1.243c0.121,-1.202 0.067,-2.377 0.658,-3.476c0.484,-0.897 1.444,-0.981 2.242,-1.437c1.516,-0.867 2.984,-1.967 4.783,-2.095c0.37,-0.027 0.855,0.141 1.226,0.203l0.737,1.675m12.569,-5.02c0.155,0.231 -0.112,0.654 -0.186,0.877c-0.197,0.589 -0.747,1.497 -0.747,2.103c-0,0.323 0.943,0.531 1.088,0.155c0.352,-0.916 0.088,-2.14 0.333,-3.119l-0.488,-0.016Z" style="fill:#6b5d5a;"/></g><path d="M58.303,50.103c-0.013,-0.026 -0.005,0.261 0.007,0.309c0.054,0.206 0.113,0.412 0.18,0.613c0.198,0.594 0.562,1.24 1.009,1.687c0.088,0.088 0.332,0.371 0.48,0.342c0.079,-0.016 0.04,-0.15 0.028,-0.202c-0.045,-0.21 -0.051,-0.429 -0.09,-0.641c-0.09,-0.499 -0.2,-0.994 -0.27,-1.496c-0.016,-0.113 -0.121,-0.477 0.046,-0.511c0.142,-0.029 0.297,0.101 0.388,0.194c0.248,0.253 0.473,0.528 0.736,0.765c0.066,0.06 0.383,0.348 0.46,0.177c0.068,-0.151 -0.129,-0.413 -0.175,-0.557c-0.116,-0.365 -0.226,-0.734 -0.372,-1.088c-0.081,-0.197 -0.213,-0.373 -0.227,-0.591l-2.2,0.999Zm11.993,1.672c-0.025,-0.074 -0.153,-0.087 -0.217,-0.087c-0.25,0 -0.483,0.018 -0.735,-0.007c-0.694,-0.069 -1.434,0.132 -2.115,-0.025c-0.284,-0.066 -0.585,-0.061 -0.782,-0.314c-0.171,-0.22 0.401,-0.119 0.537,-0.137c0.571,-0.074 1.171,-0.035 1.733,-0.147c0.036,-0.008 -0.121,-0.052 -0.158,-0.073c-0.076,-0.04 -0.419,-0.346 -0.299,-0.432c0.073,-0.052 0.224,-0.012 0.31,-0.018c0.215,-0.015 0.4,-0.042 0.616,-0.029c0.459,0.029 0.974,-0.101 1.405,-0.245l-0.295,1.514Z" style="fill:#dfdcb1;"/><path d="M92.971,106.43c-0.797,-0.261 -1.501,-0.84 -2.062,-1.441c-0.389,-0.417 -0.699,-1.004 -1.34,-1.036c-0.215,-0.011 -0.299,0.099 -0.446,0.237c-0.25,0.236 -0.487,0.503 -0.67,0.796c-0.123,0.197 -0.333,0.576 -0.259,0.823c0.017,0.058 0.167,-0.21 0.184,-0.234c0.116,-0.166 0.293,-0.298 0.466,-0.4c0.507,-0.297 1.407,-0.534 1.797,0.051c0.055,0.082 -0.207,0.07 -0.26,0.089c-0.186,0.068 -0.343,0.195 -0.457,0.357c-0.332,0.472 -0.35,0.992 -0.332,1.543c0.003,0.113 -0.058,0.439 0.03,0.528c0.022,0.022 0.116,-0.263 0.126,-0.291c0.067,-0.187 0.145,-0.372 0.24,-0.546c0.228,-0.419 0.654,-0.688 1.119,-0.759c0.076,-0.012 0.356,-0.083 0.419,-0.031c0.036,0.03 -0.103,0.138 -0.12,0.156c-0.164,0.175 -0.322,0.362 -0.447,0.567c-0.282,0.461 -0.328,0.919 -0.268,1.439c0.012,0.104 -0.007,0.303 0.059,0.391c0.045,0.061 0.12,-0.253 0.128,-0.279c0.065,-0.201 0.152,-0.401 0.268,-0.578c0.325,-0.495 0.994,-1.012 1.641,-0.898c0.21,0.037 0.031,0.291 -0.017,0.399c-0.209,0.476 -0.264,0.966 -0.223,1.479c0.011,0.141 0.03,0.283 0.061,0.421c0.006,0.026 0.013,0.129 0.056,0.129c0.041,-0 0.051,-0.095 0.059,-0.12c0.042,-0.15 0.088,-0.295 0.161,-0.433c0.223,-0.417 0.425,-0.773 0.818,-1.035l-0.731,-1.324Zm-18.997,-8.682c0.642,0.164 1.086,0.803 0.768,1.452c-0.113,0.231 -0.401,0.402 -0.599,0.559c-0.458,0.362 -0.88,0.778 -1.183,1.283c-0.069,0.116 -0.122,0.226 -0.162,0.355c-0.007,0.021 -0.048,0.217 -0.067,0.217c-0.011,0 -0.005,-0.113 -0.005,-0.123c-0,-0.157 -0.002,-0.319 0.03,-0.474c0.124,-0.6 0.472,-1.097 0.782,-1.613c0.098,-0.164 0.248,-0.291 0.371,-0.435c0.04,-0.048 0.029,-0.113 -0.039,-0.123c-0.205,-0.029 -0.498,0.094 -0.687,0.159c-0.522,0.18 -1.086,0.396 -1.476,0.804c-0.156,0.163 -0.326,0.351 -0.416,0.561c-0.011,0.027 -0.135,0.358 -0.162,0.332c-0.087,-0.088 0.046,-0.478 0.067,-0.567c0.132,-0.544 0.457,-1.227 0.857,-1.626c0.094,-0.095 0.204,-0.181 0.327,-0.235c0.063,-0.028 0.175,-0.037 0.22,-0.095c0.032,-0.041 -0.007,-0.098 -0.034,-0.131c-0.304,-0.372 -1.154,-0.709 -1.54,-0.324c-0.235,0.236 -0.368,0.677 -0.51,0.977c-0.015,0.031 -0.135,0.321 -0.176,0.293c-0.077,-0.051 -0.048,-0.339 -0.048,-0.413c0,-0.474 0.164,-0.953 0.567,-1.233c0.21,-0.147 0.473,-0.256 0.717,-0.332c0.057,-0.018 0.343,-0.024 0.329,-0.045c-0.163,-0.245 -0.373,-0.327 -0.597,-0.491c-0.115,-0.085 -0.256,-0.216 -0.405,-0.226c-0.27,-0.019 -0.596,0.246 -0.756,0.438c-0.137,0.165 -0.219,0.366 -0.304,0.561c-0.034,0.079 -0.084,0.217 -0.184,0.234c-0.11,0.019 -0.123,-0.327 -0.126,-0.39c-0.034,-0.868 0.716,-1.68 1.582,-1.616c0.172,0.013 0.362,0.028 0.506,0.134c0.218,0.16 0.422,0.492 0.519,0.739c0.079,0.204 0.126,0.419 0.295,0.57l1.539,0.824Zm-3.675,-5.019c-0.003,-0.003 -0.005,-0.005 -0.007,-0.008c-0.064,-0.068 -0.136,-0.127 -0.201,-0.193c-0.193,-0.192 -0.329,-0.4 -0.448,-0.645c-0.351,-0.722 -0.616,-1.523 -0.569,-2.336c0.008,-0.122 0.001,-0.647 0.148,-0.72l0.148,0.212c0,0.96 0.366,1.96 0.641,2.871c0.072,0.238 0.141,0.473 0.239,0.701c0.006,0.014 0.026,0.069 0.049,0.118c0.031,0.03 0.096,0.083 0.061,0.083c-0.017,0 -0.04,-0.039 -0.061,-0.083Zm0.986,-4.327c0,0.719 0.09,1.396 0.508,1.995c0.14,0.198 0.314,0.331 0.501,0.478c0.059,0.046 0.104,0.1 0.148,0.159c0.02,0.027 0.054,0.112 0.064,0.079c0.036,-0.106 -0.218,-0.528 -0.257,-0.637c-0.228,-0.625 -0.586,-1.264 -0.653,-1.934l-0.311,-0.14Zm-3.231,-1.968c-0.32,0.682 -0.663,1.361 -0.936,2.063c-0.085,0.218 -0.167,0.439 -0.232,0.663c-0.008,0.029 -0.095,0.404 -0.136,0.376c-0.127,-0.085 -0.026,-0.523 0.004,-0.63c0.178,-0.63 0.511,-1.201 0.796,-1.786c0.108,-0.221 0.213,-0.463 0.364,-0.66c0.04,-0.051 0.124,-0.063 0.14,-0.026Zm-3.049,0.269c0.101,0.301 0.03,0.706 0.012,1.016c-0.021,0.355 0.033,0.733 0.049,1.089c0.007,0.154 0.011,0.35 0.072,0.493c0.005,0.012 0.05,0.148 0.072,0.132c0.024,-0.015 -0.014,-0.192 -0.015,-0.219c-0.009,-0.244 0.024,-0.495 0.049,-0.736c0.023,-0.217 0.056,-0.433 0.087,-0.649c0.052,-0.35 0.129,-0.72 0.129,-1.077l-0.455,-0.049Zm-0.212,-1.062c-0.115,0.23 -0.449,0.419 -0.603,0.641c-0.404,0.584 -0.696,1.224 -0.819,1.923c-0.036,0.202 -0.048,0.408 -0.084,0.61c-0.003,0.021 -0.054,0.184 -0.034,0.194c0.024,0.012 0.132,-0.313 0.144,-0.342c0.107,-0.249 0.204,-0.501 0.311,-0.75c0.309,-0.714 0.699,-1.427 1.165,-2.048l-0.08,-0.228Zm3.263,0.8c0.002,0.012 -0.003,0.029 -0.017,0.05l0.017,-0.05c-0.001,-0.003 -0.001,-0.005 -0.002,-0.007c0.005,-0.012 0.01,-0.023 0.016,-0.034l-0.014,0.041Z" style="fill:#ebddc3;"/><path d="M70.411,46.758c-0.357,0.179 -0.573,0.631 -0.84,0.912c-0.701,0.739 -1.392,1.374 -2.349,1.766c-0.316,0.129 -0.653,0.205 -0.995,0.205c-0.035,0 -0.278,0.021 -0.292,-0.021c-0.003,-0.012 0.241,-0.157 0.263,-0.173c0.295,-0.217 0.581,-0.46 0.847,-0.71c0.993,-0.934 2.194,-1.932 2.753,-3.211" style="fill:#a2534f;"/><path d="M114.444,101.672c0.143,0.127 0.418,0.315 0.575,0.435c0.27,0.208 1.092,0.907 0.899,1.332c-0.189,0.415 -1.347,0.568 -1.747,0.543c-0.484,-0.031 -0.844,-0.378 -1.29,-0.526c-0.458,-0.153 -0.953,-0.056 -1.425,-0.085c-0.797,-0.05 -1.597,-0.167 -2.375,0.076c-2.09,0.653 -3.319,2.628 -5.361,3.308c-2.04,0.68 -4.209,0.115 -6.311,0.246c-0.407,0.026 -0.561,0.554 -1.018,0.611c-0.418,0.052 -0.732,-0.333 -1.153,-0.305c-0.562,0.037 -0.265,0.502 -0.535,0.772c-0.192,0.192 -0.693,0.294 -0.958,0.347c-0.57,0.114 -0.918,-0.467 -1.357,-0.746c-0.391,-0.248 -0.893,-0.169 -1.273,-0.373c-0.247,-0.133 -0.363,-0.444 -0.534,-0.653c-0.386,-0.472 -0.803,-0.546 -0.967,-1.256c-0.226,-0.977 0.473,-1.395 1.34,-1.001c0.336,0.153 0.671,0.728 0.984,0.781c0.391,0.065 0.841,-0.483 1.264,-0.543c0.834,-0.119 1.798,0.611 2.536,-0.128c0.332,-0.331 0.316,-0.901 0.308,-1.436c7.334,-0.161 12.888,-0.641 18.398,-1.399Zm-22.362,-4.748c-0.049,0.1 -1.04,0 -1.187,0c-1.087,0 -2.456,0.121 -3.529,0.323c-0.772,0.144 -1.595,0.155 -2.316,0.483c-1.085,0.494 -1.892,1.578 -3.113,1.807c-0.842,0.158 -1.952,-0.005 -2.756,-0.314c-0.196,-0.075 -0.524,-0.45 -0.704,-0.45c-0.113,0 -0.213,0.405 -0.314,0.484c-0.279,0.217 -0.76,0.337 -1.111,0.314c-0.375,-0.025 -0.673,-0.589 -1.01,-0.552c-0.281,0.032 -0.389,0.529 -0.509,0.73c-0.161,0.269 -0.867,0.652 -1.187,0.628c-0.235,-0.019 -0.312,-0.268 -0.492,-0.382c-0.369,-0.235 -0.695,-0.39 -1.044,-0.662c-0.272,-0.212 -0.592,-0.005 -0.839,-0.178c-0.241,-0.168 -0.277,-0.544 -0.399,-0.789c-0.245,-0.49 -0.432,-0.579 -0.484,-1.145c-0.038,-0.419 -0.693,-0.731 -0.203,-1.221c0.449,-0.449 1.724,0.371 2.205,0.475c0.636,0.136 0.625,-0.525 1.162,-0.484c0.554,0.043 0.779,0.465 1.264,0.568c0.422,0.091 0.841,-0.068 1.264,-0.042c0.39,0.024 0.758,0.162 1.154,0.136c1.365,-0.091 2.529,-1.218 3.562,-1.994c0.546,-0.409 1.143,-0.737 1.722,-1.094c10.058,-4.109 11.836,-2.123 8.864,3.359Zm-10.516,-0.988l0.183,0.851c3.686,-0.246 7.157,-1.379 9.533,-2.281l-0.868,-0.844l-8.848,2.274Zm46.451,-25.126c5.828,0.738 10.481,0.302 13.232,-2.036l0.476,3.732c-3.868,1.802 -6.922,2.791 -11.672,2.647l-2.036,-4.343Z" style="fill:#dfaa99;"/><path d="M81.749,94.763c-0.104,0.439 -0.204,1.855 0.16,2.217c0.469,0.466 1.771,-0.219 2.292,-0.357c1.99,-0.526 3.858,-1.025 5.803,-1.707c0.7,-0.245 1.631,-0.764 2.388,-0.459c0.131,0.053 0.149,0.457 0.166,0.565c0.079,0.515 0.138,1.046 0.146,1.568c0.025,1.619 0.054,3.245 0.316,4.846c0.109,0.663 0.651,1.305 1.184,1.778c0.915,0.814 2.614,-0.028 3.658,-0.11c3.286,-0.261 6.594,0.072 9.89,-0.268c1.395,-0.145 2.748,-0.478 4.133,-0.668c0.989,-0.136 2.066,-0.127 2.991,-0.546c0.872,-0.395 0.692,-1.016 0.587,-1.925c-1.289,-11.144 -20.138,-9.135 -33.714,-4.934" style="fill:#bcbec4;"/><path d="M94.524,66.451l10.688,-4.217c7.076,0.898 12.207,6.866 16.414,12.202c2.629,3.335 5.445,6.916 7.279,10.768c0.703,1.476 1.553,3.108 1.322,4.801c-0.182,1.339 -0.892,2.196 -1.633,3.267c-1.804,2.606 -4.173,4.736 -7.524,4.945c-0.701,0.044 -1.494,0.066 -2.156,-0.189c-0.409,-0.157 -1.139,-0.578 -1.589,-0.455c-0.28,0.076 -0.275,0.652 -0.378,0.878c-0.152,0.334 -0.647,0.096 -0.833,0.389c-0.234,0.367 0.073,0.981 -0.478,1.178c-1.372,0.49 -2.877,1.13 -4.345,1.222c-1.311,0.082 -2.673,-0.172 -4.001,-0.089c-2.854,0.179 -5.681,0.533 -8.534,0.711c-1.583,0.099 -3.158,0.5 -4.735,0.378c-0.296,-0.023 -0.638,0.195 -0.922,0.1c-0.321,-0.107 -0.516,-1.121 -0.667,-1.422c-0.79,-1.582 -1.19,-3.252 -1.878,-4.857c-0.141,-0.328 -0.319,-1.586 -0.655,-1.678c-0.528,-0.143 -1.535,0.292 -2.079,0.4c-1.592,0.319 -3.288,0.634 -4.845,1.078c-0.5,0.143 -1.42,0.652 -1.933,0.578c-0.156,-0.022 -0.216,-0.79 -0.234,-0.933c-0.114,-0.913 -0.627,-1.855 -1.033,-2.667c-0.299,-0.598 -0.74,-1.109 -1.067,-1.689c-0.486,-0.865 -0.742,-1.84 -1.211,-2.712c-0.6,-1.113 -1.446,-2.16 -1.801,-3.401c-0.675,-2.362 1.107,-4.002 2.556,-5.603c0.161,-0.177 0.321,-0.354 0.481,-0.532c1.742,-0.898 4.35,-2.389 6.149,-3.147c2.443,-1.028 3.601,-1.661 5.55,-3.501c0.711,-0.672 1.813,-1.676 2.322,-2.502c0.666,-1.082 1.274,-2.17 1.77,-3.301Z" style="fill:#5a4e67;"/><path d="M106.986,67.647c0,0.473 -0.597,0.932 -0.808,1.324c-0.383,0.711 -0.544,1.576 -0.594,2.376c-0.03,0.487 0.219,1.015 0.273,1.499c0.154,1.39 0.226,2.802 0.399,4.186c0.101,0.811 0.392,1.587 0.341,2.415c-0.051,0.81 -0.886,1.18 -1.208,1.869c-0.162,0.348 -0.326,0.827 -0.389,1.207c-0.029,0.174 0.192,0.289 0.146,0.458c-0.141,0.519 -0.664,0.952 -0.876,1.46c-0.211,0.506 0.131,1.146 -0,1.713c-0.442,1.915 -0.667,3.803 -0.789,5.754c-0.023,0.368 -0.018,0.899 -0.194,1.227c-0.216,0.401 -0.887,0.624 -1.217,0.954c-0.656,0.656 -1.719,3.008 -3.009,2.005c-2.003,-1.558 -2.515,-4.201 -3.689,-6.289c-0.84,-1.493 -1.641,-3.031 -2.502,-4.507c-0.371,-0.636 -0.875,-1.209 -1.188,-1.879c-0.273,-0.584 -0.512,-1.225 -0.837,-1.782c-0.497,-0.851 -1.306,-1.529 -1.723,-2.424c-0.383,-0.82 -0.945,-2.002 -1.11,-2.882c-0.21,-1.118 -0.184,-2.758 -1.315,-3.436c-0.529,-0.318 -0.641,0.516 -0.662,0.866c-0.077,1.325 -0.17,2.57 -0.087,3.894c0.066,1.063 -0.939,2.444 -1.421,3.34c-0.384,0.711 -0.151,1.411 -0.322,2.151c-0.101,0.44 -0.411,0.841 -0.681,1.188c-0.738,0.948 -1.107,2.065 -2.483,2.171c-0.435,0.033 -0.541,-0.729 -0.74,-1.013c-0.266,-0.38 -0.932,-0.597 -1.353,-0.759c-1.028,-0.395 -2.001,-0.492 -2.872,-1.275c-0.337,-0.304 -0.316,-0.849 -0.652,-1.11c-0.853,-0.663 -1.754,-1.298 -2.346,-2.229c-1.075,-1.689 -1.431,-3.74 -2.502,-5.423c-0.62,-0.973 -1.672,-1.489 -2.424,-2.317c-0.665,-0.731 -1.092,-1.715 -1.319,-2.731c-0.476,0 -0.447,-1.454 -0.467,-1.752c-0.061,-0.906 0.017,-1.822 0.078,-2.726c0.07,-1.062 -0.228,-1.824 0.428,-2.726c0.797,-1.095 1.29,-2.112 2.473,-2.872c0.517,-0.332 1.245,-0.661 1.84,-0.798c0.198,-0.046 0.486,0 0.662,-0.117c0.333,-0.222 0.228,-0.835 0.691,-1.12c1.279,-0.787 2.543,-1.229 3.514,-2.443c0.985,-1.231 1.905,-2.51 2.872,-3.768c1.372,-1.783 2.831,-3.143 3.534,-5.393c0.343,-1.098 0.029,-2.151 0.029,-3.271c0,-0.742 0.264,-1.385 0.312,-2.103c0.06,-0.904 0.036,-1.829 0.204,-2.726c0.338,-1.802 1.779,-3.592 2.756,-5.111c1.391,-2.165 1.627,-4.659 1.515,-7.17c-0.056,-1.236 -0.632,-3.279 0.227,-4.318c0.425,-0.515 1.091,-0.746 1.643,-1.088c1.042,-0.646 1.915,-1.424 3.159,-1.67c0.8,-0.158 1.611,-0.014 2.417,-0.041c0.663,-0.023 1.307,-0.312 1.973,-0.222c1.085,0.147 2.017,0.797 3.055,1.094c1.072,0.307 2.266,0.27 3.303,0.688c0.404,0.163 0.49,0.804 0.876,0.905c0.324,0.085 0.672,-0.108 0.993,-0.136c0.751,-0.066 1.555,0.016 2.249,0.321c0.464,0.205 0.972,0.443 1.334,0.808c0.247,0.251 0.421,0.69 0.749,0.847c0.34,0.163 0.742,0.117 1.092,0.278c2.34,1.069 4.637,2.274 6.726,3.783c0.533,0.385 1.12,0.765 1.54,1.278c1.631,1.99 3.504,3.866 4.787,6.113c1.028,1.802 1.914,3.836 2.401,5.858c0.275,1.144 0.284,2.33 0.527,3.479c0.187,0.884 0.607,1.698 0.792,2.582c0.146,0.696 0.077,1.42 0.141,2.125c0.093,1.042 0.298,2.095 0.138,3.14c-0.076,0.497 -0.296,1.068 -0.761,1.32c-0.35,0.19 -1.127,0.273 -1.231,0.751c-0.052,0.238 0.281,0.245 0.321,0.467c0.045,0.244 -0.173,0.506 -0.165,0.759c0.019,0.589 0.358,1.125 0.37,1.714c0.007,0.38 -0.421,0.693 -0.37,1.051c0.054,0.389 0.869,0.067 0.78,0.811c-0.303,2.512 -2.791,4.509 -1.902,7.268c0.545,1.693 2.554,2.111 3.636,3.355c1.206,1.386 1.558,3.276 2.426,4.855c0.561,1.019 2.208,2.169 2.182,3.397c-0.013,0.607 -0.641,1.06 -1.016,1.469c-0.047,0.053 -0.355,0.337 -0.282,0.436c0.141,0.189 1.036,-0.177 1.305,-0.039c0.561,0.286 1.019,1.2 1.564,1.611c0.766,0.579 1.739,0.699 2.522,1.232c0.521,0.355 -0.239,0.837 0.048,1.309c0.114,0.189 0.264,0.542 0.461,0.657c0.268,0.156 0.615,0.022 0.876,0.204c0.255,0.178 0.298,0.528 0.537,0.728c0.499,0.417 1.282,0.371 1.887,0.499c0.154,0.033 0.617,0.01 0.662,0.214c0.074,0.332 -0.494,0.826 -0.688,1.026c-0.904,0.931 -1.188,1.906 -1.736,3.053c-0.363,0.761 -0.578,1.696 -0.521,2.542c0.013,0.188 0.173,0.903 -0.014,1.031c-0.132,0.09 -0.302,-0.231 -0.419,-0.272c-0.388,-0.139 -0.907,-0.032 -1.316,-0.088c-1.493,-0.204 -3.284,-0.755 -4.69,0.071c-0.361,0.212 -0.478,0.568 -0.698,0.899c-0.388,0.581 -0.947,1.033 -1.152,1.727c-0.123,0.412 -0.159,0.85 -0.215,1.275c-0.009,0.073 -0.009,0.406 -0.126,0.399c-0.116,-0.006 -0.249,-0.388 -0.331,-0.467c-0.397,-0.381 -0.892,-0.655 -1.289,-1.042c-0.557,-0.544 -0.797,-1.245 -1.19,-1.898c-1.024,-1.703 -1.87,-3.261 -2.635,-5.111c-0.92,-2.223 -2.198,-4.344 -3.382,-6.436c-0.43,-0.76 -0.916,-2.101 -1.58,-2.667c-0.08,-0.068 -0.41,0.273 -0.507,0.316c-0.446,0.199 -1.084,0.581 -1.541,0.253c-2.244,-1.606 -3.211,-4.795 -4.948,-6.904c-1.241,-1.507 -3.322,-2.789 -4.103,-4.598l-1.179,-0.906Z" style="fill:#aa5439;"/><path d="M99.779,94.66c-0.251,-0.125 -0.438,-0.455 -0.649,-0.639c-1.244,-1.089 -1.817,-2.869 -2.492,-4.354c-0.466,-1.026 -1.238,-1.951 -1.776,-2.95c-0.674,-1.253 -0.868,-2.699 -1.642,-3.914c-1.31,-2.06 -2.581,-3.997 -3.589,-6.215c-0.24,-0.526 -0.234,-1.141 -0.363,-1.699c-0.264,-1.143 -1.477,-3.486 0.095,-4.201c0.721,-0.328 1.262,0.175 1.795,0.601c1.26,1.008 2.261,2.488 2.979,3.924c0.367,0.734 0.527,1.539 0.84,2.291c1.066,2.558 2.223,5.225 2.769,7.953c0.573,2.866 0.952,5.943 2.043,8.669l-0.01,0.534Zm-18.33,-9.012c-0.03,0.03 -0.145,-0.516 -0.153,-0.573c-0.051,-0.358 -0.121,-0.757 -0.296,-1.079c-0.611,-1.121 -1.213,-2.175 -2.091,-3.141c-0.393,-0.432 -0.962,-0.778 -1.26,-1.288c-0.273,-0.47 -0.341,-1.04 -0.63,-1.49c-0.336,-0.523 -0.889,-0.875 -1.203,-1.413c-0.579,-0.994 -0.939,-2.073 -1.374,-3.131c-0.386,-0.935 -1.099,-2.339 -0.984,-3.38c0.012,-0.109 0.463,-0.2 0.573,-0.286c0.323,-0.251 0.584,-0.669 0.802,-1.012c0.435,-0.684 1.081,-2.619 1.938,-2.816c0.997,-0.231 1.629,1.794 1.852,2.463c0.641,1.924 0.229,4.274 0.229,6.263c0,0.867 -0.036,2.041 0.382,2.825c0.322,0.604 0.972,0.917 1.413,1.413c0.678,0.763 1.157,1.756 1.298,2.75c0.092,0.638 0.013,1.311 -0.066,1.947c-0.013,0.105 -0.152,1.067 -0.239,0.936l-0.191,1.012Zm4.936,-25.144c-0.162,0.077 -0.35,0.318 -0.395,0.39c-0.27,0.422 0.081,1.531 -0.606,1.161c-0.954,-0.514 -1.575,-1.68 -2.084,-2.593c-1.502,-2.692 -2.158,-5.818 -1.713,-8.879c0.391,-2.69 -1.266,-5.372 -0.3,-8.061c0.032,-0.089 0.3,0.047 0.373,0.051c0.474,0.032 0.803,0.015 1.197,0.322c0.275,0.213 -0.033,0.989 -0.073,1.27c-0.189,1.321 -0.22,2.583 -0.219,3.928c0.004,4.227 0.232,9.382 3.677,12.334c0.024,0.021 0.05,0.04 0.076,0.058l0.067,0.019Zm0,0c0.085,-0.04 0.163,-0.035 0.211,0.061l-0.211,-0.061Z" style="fill:#bc8855;"/><path d="M67.686,141.521l25.047,-12.073c3.465,-0.209 4.784,1.593 4.055,5.316l3.604,-0.09c0.216,0.533 -0.061,0.9 -0.631,1.171c-0.402,0.582 -0.533,0.893 -0.541,1.081c-10.246,5.244 -20.807,6.079 -31.534,4.595Zm47.621,-13.485c-0.163,-0.082 -0.105,-0.408 -0.353,-0.484c-0.372,-0.114 -0.655,0.337 -1.071,0.072c-0.366,-0.232 -0.772,-0.574 -1.033,-0.921c-0.289,-0.387 -0.517,-0.941 -1.111,-0.713c-0.617,0.238 -1.267,0.899 -1.575,1.471c-0.089,0.165 -0.317,0.895 -0.536,0.895c-0.107,-0 -0.106,-0.224 -0.124,-0.288c-0.063,-0.223 0.191,-0.973 0.059,-1.065c-0.495,-0.346 -1.502,0.074 -2.072,-0.078c-0.428,-0.115 -0.032,-0.54 -0.379,-0.673c-0.236,-0.091 -1.137,-0.059 -1.137,-0.425c0,-0.317 0.579,-0.756 0.785,-0.948c0.724,-0.676 1.528,-0.912 2.006,-1.869c0.091,-0.182 0.294,-0.456 0.294,-0.666c-0,-0.102 -0.298,-0.684 -0.373,-0.758c-0.082,-0.083 -0.294,-0.096 -0.268,-0.255c0.086,-0.511 0.281,-1.073 0.393,-1.595c0.029,-0.139 0.148,-0.42 0.052,-0.549c-0.326,-0.434 -0.839,-0.352 -1.281,-0.509c-0.079,-0.028 -0.404,-0.123 -0.301,-0.262c0.258,-0.343 0.708,-0.724 1.105,-0.882c0.149,-0.06 0.311,0.049 0.464,0.039c0.294,-0.018 0.67,-0.219 0.902,-0.398c0.293,-0.229 0.644,-0.294 0.941,-0.51c0.109,-0.08 0.21,-0.281 0.359,-0.281c0.119,-0 0.26,0.229 0.386,0.274c0.349,0.125 0.744,0.09 1.058,0.307c0.073,0.051 0.359,0.396 0.451,0.34c0.067,-0.04 -0.039,-0.275 -0.059,-0.327c-0.097,-0.26 -0.248,-0.606 -0.248,-0.888c0,-0.432 0.749,-0.376 0.837,-0.771c0.083,-0.377 -0.687,-0.894 -0.17,-1.281c0.194,-0.146 0.964,0.072 1.15,0.196c0.964,0.643 1.903,1.278 2.954,1.803c0.172,0.087 0.35,0.232 0.457,0.393c0.024,0.035 0.083,0.235 0.131,0.235c0.031,-0 0.052,-0.4 0.059,-0.438c0.044,-0.264 0.119,-0.517 0.222,-0.765c0.349,-0.837 1.026,-2.572 2.104,-2.738c0.199,-0.03 0.523,0.34 0.706,0.431c0.468,0.235 1.072,0.491 1.49,0.804c0.269,0.202 0.542,0.51 0.856,0.641c0.249,0.104 0.648,0.013 0.941,0.104c0.17,0.054 0.514,0.424 0.686,0.321c0.301,-0.181 -0.02,-0.694 0.484,-0.772c0.455,-0.07 0.82,0.264 1.215,0.406c0.288,0.102 0.658,0.118 0.961,0.098c0.607,-0.041 0.678,-0.7 0.784,-1.229c0.028,-0.14 -0.022,-0.368 0.065,-0.484c0.11,-0.145 0.637,0.15 0.817,0.111c0.408,-0.087 0.924,-0.667 1.079,-1.039c0.198,-0.475 0.163,-1.067 0.32,-1.568c0.305,-0.976 0.936,-1.839 1.17,-2.849c0.134,-0.583 0.247,-1.13 0.437,-1.699c0.062,-0.184 0.099,-0.418 0.275,-0.53c0.673,-0.428 1.569,-0.015 2.111,0.419c0.804,0.643 0.966,1.487 1.333,2.404c0.319,0.8 0.734,1.424 0.425,2.307l-21.233,17.436Zm-62.514,-3.122c0.051,-0.382 0.317,-0.734 0.409,-1.104c0.121,-0.482 0.075,-1.404 -0.085,-1.882c-0.245,-0.737 -1.281,-0.261 -1.418,-1.216c-0.018,-0.125 -0.028,-0.267 0,-0.392c0.161,-0.695 1.402,-0.01 1.797,-0.189c0.813,-0.37 -0.052,-1.836 0.751,-2.042c0.332,-0.085 0.575,0.194 0.889,0.14c0.231,-0.04 0.478,-0.337 0.725,-0.235c0.387,0.159 0.608,0.578 0.98,0.764c0.174,0.087 0.36,0.039 0.543,0.079c0.132,0.028 0.294,0.158 0.431,0.078c0.39,-0.229 0.18,-1.069 0.17,-1.425c-0.004,-0.131 -0.059,-0.459 0.098,-0.529c0.119,-0.053 0.238,0.06 0.31,0.138c0.281,0.302 0.734,0.548 0.956,0.885c0.094,0.142 0.201,0.52 0.445,0.427c0.419,-0.16 0.175,-0.993 0.295,-1.319c0.118,-0.318 0.456,-0.466 0.608,-0.758c0.097,-0.187 0.054,-0.623 0.345,-0.604c0.308,0.02 0.58,0.252 0.871,0.34c0.787,0.239 1.694,0.407 2.339,0.956c0.246,0.21 0.197,0.642 0.503,0.791c0.211,0.103 0.462,0.046 0.68,0.131c0.454,0.177 0.885,0.458 1.307,0.699c0.307,0.175 0.513,0.528 0.869,0.614c0.476,0.116 0.969,-0.148 1.442,-0.007c0.408,0.121 0.581,0.549 0.865,0.825c0.058,0.057 0.235,0.3 0.32,0.287c0.023,-0.004 -0.06,-0.504 -0.072,-0.556c-0.122,-0.538 -0.57,-1.051 -0.505,-1.626c0.018,-0.158 0.351,-0.241 0.335,-0.321c-0.057,-0.298 -0.681,-0.286 -0.823,-0.582c-0.152,-0.315 -0.058,-0.696 -0.106,-1.031c-0.056,-0.389 -0.245,-0.801 -0.443,-1.138c-0.231,-0.393 -0.889,-0.524 -1.028,-0.967c-0.121,-0.382 0.369,-0.448 0.583,-0.595c0.133,-0.091 0.119,-0.279 0.255,-0.353c0.642,-0.349 1.242,0.692 1.559,1.036c0.444,0.48 0.781,1.185 1.264,1.601c0.567,0.489 1.57,-0.494 2.045,-0.75c0.597,-0.321 0.914,0.205 1.491,0.1c0.845,-0.155 1.169,-0.874 2.129,-0.789c0.339,0.031 0.773,0.026 1.087,0.163c0.34,0.149 0.59,0.446 0.959,0.536c0.554,0.135 1.14,-0.122 1.679,0.117c0.41,0.181 0.647,0.625 1.067,0.783c0.364,0.137 0.668,-0.369 1.019,-0.131c0.55,0.374 0.268,1.751 1.117,1.954c0.885,0.212 1.496,-0.877 2.34,-0.928c0.707,-0.042 1.03,0.602 1.564,0.928c0.437,0.266 0.996,0.144 1.475,0.279c0.186,0.052 0.426,0.196 0.252,0.416c-0.133,0.167 -0.401,0.194 -0.594,0.235c-0.517,0.107 -1.124,0.382 -1.652,0.174c-0.343,-0.135 -0.676,-0.61 -1.078,-0.548c-0.44,0.067 -0.472,0.613 -0.81,0.81c-0.171,0.1 -0.354,-0.088 -0.516,-0.124c-0.28,-0.063 -0.678,0.029 -0.9,0.211c-0.421,0.344 -0.186,1.012 -0.951,0.864c-0.851,-0.164 -1.118,-0.62 -1.382,-1.385c-0.06,-0.173 -0.189,-0.817 -0.47,-0.738c-0.266,0.075 -0.187,0.791 -0.204,1.008c-0.056,0.721 -0.191,1.955 -1.018,2.218c-0.663,0.21 -0.976,-0.453 -1.571,-0.505c-0.346,-0.03 -0.669,0.194 -1,-0c-0.319,-0.187 -0.326,-0.791 -0.788,-0.743c-0.35,0.036 -0.661,0.309 -0.944,0.495c-0.802,0.528 -1.608,1.388 -2.602,1.52c-1.224,0.162 -2.273,-0.629 -3.41,-0.9c-0.248,-0.059 -0.491,0.119 -0.729,0.164c-0.392,0.073 -0.809,0.06 -1.188,-0.068c-0.376,-0.128 -0.741,-0.346 -1.069,-0.566c-0.15,-0.1 -0.256,-0.3 -0.451,-0.314c-0.842,-0.061 -1.293,0.893 -2.023,0.903c-0.505,0.008 -0.681,-0.564 -0.706,-0.977c-0.005,-0.08 -0.094,-0.639 -0.094,-0.638c-0.177,0.109 -0.07,0.68 -0.064,0.857c0.023,0.739 0.232,1.435 0.173,2.18c-0.018,0.228 0.003,0.594 -0.229,0.73c-0.802,0.471 -1.923,-0.32 -2.671,-0.532c-0.227,-0.065 -0.553,0.155 -0.751,0.006c-0.199,-0.149 0.047,-0.84 -0.007,-1.072c-0.009,-0.039 -0.049,-0.302 -0.111,-0.287c-0.129,0.03 -0.206,0.36 -0.257,0.459c-0.213,0.423 -0.581,0.819 -0.871,1.193c-0.134,0.173 -0.309,0.492 -0.53,0.559c-0.129,0.039 -0.436,-0.204 -0.499,-0.041c-0.07,0.182 0.14,0.443 0.157,0.627c0.048,0.501 -0.211,1.2 -0.691,1.421c-0.583,0.27 -0.367,-0.745 -0.544,-0.99c-0.247,-0.343 -0.634,-0.024 -0.934,-0.209c-0.252,-0.155 -0.095,-0.517 -0.452,-0.585c-0.848,-0.16 -1.568,0.489 -2.257,0.99c-0.006,0.041 -0.009,0.083 -0.009,0.125l-0.53,0.222c0.178,-0.094 0.357,-0.215 0.539,-0.347Zm-7.433,0.438c-0.15,-0.075 -0.227,-0.555 -0.274,-0.705c-0.085,-0.273 -0.282,-0.506 -0.327,-0.791c-0.066,-0.418 0.067,-1.162 -0.163,-1.523c-0.074,-0.116 -0.216,-0.087 -0.314,-0.163c-0.215,-0.168 -0.198,-0.681 -0.621,-0.621c-0.219,0.031 -0.319,0.313 -0.549,0.274c-0.236,-0.039 -0.347,-0.564 -0.418,-0.548c-0.191,0.042 -0.426,0.409 -0.588,0.535c-0.333,0.259 -0.718,0.2 -1.111,0.151c-0.085,-0.011 -0.542,0.004 -0.542,-0.144c-0,-0.063 0.341,-0.176 0.398,-0.209c0.368,-0.21 0.722,-0.524 1.007,-0.837c0.412,-0.453 0.801,-0.939 1.235,-1.372c0.042,-0.043 0.354,-0.426 0.405,-0.405c0.091,0.036 0.161,0.351 0.242,0.438c0.21,0.227 0.78,0.696 1.098,0.732c0.207,0.023 0.013,-0.495 0.176,-0.549c0.123,-0.042 0.249,0.065 0.372,0.065c0.266,-0 0.96,-0.269 1.164,-0.065c0.171,0.17 0.027,0.492 0.248,0.673c0.577,0.472 1.133,0.42 1.83,0.464c0.169,0.01 0.293,0.108 0.281,0.287c-0.017,0.249 -0.116,0.874 -0.32,1.033c-0.172,0.133 -0.49,0.087 -0.693,0.176c-0.219,0.096 -0.463,0.245 -0.712,0.209c-0.244,-0.034 -0.885,-0.605 -1.059,-0.483c-0.186,0.13 -0.233,0.536 -0.301,0.738c-0.103,0.31 -0.288,0.578 -0.392,0.889c-0.112,0.338 -0.104,0.697 -0.215,1.032l0.143,0.719Zm-13.854,-5.541c0,0.749 -1.241,1.257 -1.934,1.098c-0.309,-0.072 -0.249,-0.469 -0.51,-0.556c-0.16,-0.053 -0.183,0.173 -0.301,0.19c-0.104,0.015 -0.666,-0.419 -0.745,-0.497c-0.497,-0.497 0.665,-0.646 0.955,-0.556c0.243,0.076 0.379,0.292 0.607,0.379c0.442,0.17 1.161,0.13 1.608,0.066l0.32,-0.124Zm0.68,-6.797c-0.116,0.058 0.121,-0.271 0.248,-0.3c0.248,-0.058 0.519,-0.035 0.771,-0.085c0.105,-0.021 0.245,-0.169 0.347,-0.144c0.105,0.026 0.198,0.313 0.294,0.392c0.224,0.184 0.562,0.423 0.817,0.562c0.401,0.219 0.707,0.059 1.111,0.059c0.518,-0 1.139,0.449 1.588,0.673c0.459,0.23 1.077,0.16 1.574,0.274c0.262,0.061 0.436,0.345 0.719,0.366c0.335,0.026 1.152,-0.079 1.445,-0.241c0.116,-0.065 0.06,-0.251 0.222,-0.288c0.794,-0.183 1.947,0.232 2.718,0.425c0.609,0.152 1.159,0.491 1.765,0.634c0.121,0.028 1.015,0.144 1,0.255c-0.027,0.185 -0.323,0.34 -0.373,0.555c-0.11,0.477 0.065,0.94 -0.261,1.359c-0.131,0.169 -0.613,-0.12 -0.785,-0.163c-0.418,-0.105 -0.961,-0.036 -1.346,-0.229c-0.342,-0.171 -0.672,-0.705 -1.065,-0.738c-0.161,-0.014 -0.276,0.163 -0.385,0.255c-0.124,0.103 -0.305,0.198 -0.38,0.346c-0.074,0.148 0.116,0.257 0.105,0.405c-0.031,0.428 -0.604,0.606 -0.954,0.497c-0.596,-0.186 -0.947,-0.694 -1.412,-1.065c-0.394,-0.316 -0.844,-0.485 -1.267,-0.745c-0.308,-0.19 -0.525,-0.472 -0.811,-0.68c-0.298,-0.217 -0.697,-0.276 -1.039,-0.399c-0.732,-0.261 -1.444,-0.616 -2.169,-0.895c-0.521,-0.2 -1.034,-0.379 -1.562,-0.555c-0.206,-0.069 -0.309,-0.23 -0.543,-0.164l-0.372,-0.366Zm73.422,2.807c-0.174,-0.349 0.23,-0.506 0.497,-0.523c0.292,-0.018 0.461,0.176 0.595,0.399l-1.092,0.124Zm-22.031,-0.872c0.364,-0 0.985,-0.261 1.314,-0.053c0.323,0.206 -0.125,0.593 -0.334,0.641c-0.389,0.09 -0.689,-0.282 -0.908,-0.556l-0.072,-0.032Zm15.161,-0.941c-1.213,-0 -2.405,0.313 -3.633,0.313c-0.228,0 -0.555,-0.021 -0.758,-0.13c-0.168,-0.091 -0.281,-0.31 -0.497,-0.249c-0.306,0.088 -0.599,0.385 -0.889,0.53c-0.387,0.193 -0.807,0.254 -1.196,0.431c-0.159,0.072 -0.441,0.43 -0.607,0.379c-0.371,-0.114 -0.678,-1.106 -0.608,-1.457c0.043,-0.216 0.223,-0.395 0.176,-0.628c-0.065,-0.327 -0.536,-0.573 -0.536,-0.869c0,-0.156 0.25,-0.49 0.419,-0.49c0.126,-0 0.213,0.146 0.326,0.189c0.232,0.09 0.923,0.244 1.164,0.164c0.38,-0.127 0.751,-0.412 1.124,-0.575c0.1,-0.044 0.355,-0.214 0.464,-0.183c0.069,0.02 -0.046,0.297 -0.046,0.353c-0,0.22 0.093,0.359 0.268,0.49c0.16,0.12 0.334,0.231 0.519,0.334c-0.063,0.106 0.319,0.483 0.402,0.531c0.479,0.275 1.328,0.296 1.859,0.219c0.001,-0 0.002,0 0.004,0.001l2.045,0.647Zm-37.171,0.47c0.105,-0.211 0.885,-0.443 1.105,-0.568c0.281,-0.161 0.726,-0.361 0.954,-0.589c0.066,-0.066 0.147,-0.372 0.241,-0.372c0.039,-0 0.125,0.536 0.183,0.608c0.176,0.214 0.784,0.444 0.464,0.856c-0.091,0.117 -0.557,-0.162 -0.718,-0.151c-0.56,0.04 -1.456,0.816 -2.059,0.334l-0.17,-0.118Zm-9.776,-0.261c-0,0.262 -0.503,0.373 -0.706,0.398c-0.321,0.04 -0.531,-0.295 -0.836,-0.333c-0.331,-0.041 -0.988,0.39 -1.236,-0.105c-0.129,-0.258 0.268,-0.528 0.373,-0.725c0.03,-0.055 0.203,-0.549 0.268,-0.523c0.088,0.036 0.102,0.174 0.202,0.216c0.17,0.07 0.372,-0.024 0.549,-0.013c0.33,0.021 0.481,0.401 0.785,0.477l0.601,0.608Zm35.655,-0.68c-0.433,0 -0.626,-0.877 0.026,-0.836c0.271,0.017 0.818,0.331 0.987,0.542c0.159,0.199 -0.142,0.334 -0.301,0.307l-0.712,-0.013Zm-30.009,0c0,-0.612 -0.408,-1.362 -0.647,-1.908c-0.38,-0.87 -0.805,-1.748 -1.457,-2.451c-1.153,-1.241 -2.9,-2.046 -4.437,-2.705c-0.882,-0.378 -1.687,-0.928 -2.523,-1.405c-0.102,-0.059 -0.789,-0.39 -0.745,-0.523c0.032,-0.096 0.299,-0.052 0.372,-0.052c0.262,-0 0.786,0.03 1.013,-0.046c0.145,-0.048 0.094,-0.294 0.17,-0.392c0.019,-0.025 0.631,-0.33 0.693,-0.347c0.267,-0.072 0.449,0.305 0.738,0.223c0.344,-0.099 0.624,-0.538 1.026,-0.236c0.923,0.692 1.69,1.527 2.503,2.34c0.104,0.104 0.758,0.678 0.883,0.595c0.157,-0.105 0.163,-0.506 0.294,-0.674c0.4,-0.514 0.959,-0.873 1.372,-1.378c0.156,-0.191 0.377,-0.686 0.667,-0.647c0.272,0.036 0.371,0.334 0.562,0.49c0.469,0.384 1.049,0.598 1.483,1.032c0.101,0.101 0.539,0.597 0.68,0.569c0.045,-0.009 0.1,-0.623 0.124,-0.706c0.139,-0.488 0.503,-1.926 1.124,-1.967c0.356,-0.024 0.662,0.336 0.876,0.569c0.492,0.537 0.795,1.268 1.601,1.392c0.416,0.064 0.643,-0.408 1.039,-0.438c0.319,-0.025 0.773,0.148 1.045,0.307c0.143,0.083 0.248,0.265 0.419,0.294c0.331,0.055 0.794,-0.194 1.117,-0.268c0.437,-0.101 1.102,0.041 1.516,0.189c0.82,0.293 1.521,0.999 2.274,1.438c0.213,0.124 0.504,0.51 0.765,0.51c0.383,-0 1.025,-0.535 1.242,-0.824c0.147,-0.195 0.158,-0.573 0.483,-0.548c0.342,0.026 1.018,0.266 1.261,0.509c0.072,0.072 0.173,0.497 0.236,0.497c0.081,-0 0.164,-0.283 0.196,-0.346c0.132,-0.265 0.341,-0.742 0.581,-0.922c0.119,-0.089 0.347,0.053 0.477,0.072c0.403,0.058 0.962,0.296 1.366,0.203c0.469,-0.109 0.618,-0.849 1.059,-1.033c0.286,-0.119 0.538,0.084 0.797,0.17c0.506,0.169 1.387,0.487 1.895,0.163c0.247,-0.156 0.323,-0.513 0.536,-0.705c0.613,-0.552 1.331,-1.107 2.072,-1.477c0.254,-0.127 0.713,-0.444 1.013,-0.307c0.127,0.058 0.157,0.736 0.157,0.888c-0,0.835 -0.346,1.419 -0.765,2.137c-0.124,0.212 -0.529,0.583 -0.438,0.856c0.153,0.459 0.728,0.133 0.967,0.373c0.232,0.232 -0.001,0.722 0.19,0.967c0.134,0.172 0.472,0.082 0.568,0.274c0.089,0.178 -0.27,0.298 -0.045,0.543c0.369,0.402 1.339,0.562 1.392,1.242c0.029,0.38 -0.578,-0.134 -0.745,-0.144c-0.465,-0.029 -1.153,0.047 -1.588,0.202c-0.733,0.262 -1.289,0.853 -1.876,1.333c-0.288,0.236 -0.569,0.615 -1,0.419c-0.19,-0.087 -0.165,-0.512 -0.32,-0.667c-0.218,-0.218 -1.175,-0.366 -1.49,-0.346c-0.222,0.014 -0.749,0.102 -0.908,0.261c-0.187,0.187 -0.302,0.561 -0.621,0.536c-0.599,-0.046 -0.676,-0.842 -1.346,-0.797c-0.238,0.016 -0.641,0.065 -0.817,0.242c-0.317,0.317 -0.404,0.898 -1.013,0.784c-0.475,-0.089 -0.873,-0.596 -1.346,-0.765c-0.493,-0.176 -1.035,-0.046 -1.523,-0.268c-0.333,-0.151 -0.531,-0.465 -0.843,-0.647c-0.509,-0.297 -1.095,-0.516 -1.621,-0.797c-0.533,-0.284 -1.051,-0.895 -1.647,-1.033c-0.565,-0.13 -1.331,-0.081 -1.803,0.262c-0.353,0.256 -0.854,0.872 -1.281,0.967c-0.138,0.031 -0.415,-0.275 -0.549,-0.333c-0.324,-0.142 -0.687,-0.167 -1.006,-0.327c-0.288,-0.144 -0.498,-0.338 -0.824,-0.399c-0.227,-0.042 -0.637,-0.044 -0.849,0.053c-0.304,0.138 -0.469,0.639 -0.811,0.823c-0.722,0.389 -1.855,0.416 -2.365,1.072c-0.137,0.175 0.041,0.337 0.078,0.51c0.048,0.223 -0.105,0.503 -0.261,0.66c-0.119,0.118 -0.335,0.131 -0.477,0.222c-0.439,0.279 -0.935,1.64 -0.935,1.64Zm50.472,-0.957c0.12,-0.241 0.536,-0.738 0.823,-0.758c0.343,-0.025 0.635,0.183 0.98,0.183c0.337,-0 0.858,-0.124 1.079,0.222c0.234,0.368 -0.772,0.904 -1.059,0.856c-0.242,-0.04 -0.452,-0.285 -0.667,-0.392l-1.156,-0.111Zm5.489,-0.366c-0.171,-0.086 0.48,-0.604 0.536,-0.641c0.474,-0.304 1.21,-0.247 1.653,0.098c0.514,0.399 0.12,0.937 -0.438,0.798c-0.124,-0.031 -0.38,-0.028 -0.411,-0.183l-1.34,-0.072Zm-51.099,0.121c-0.116,-0.233 -0.631,0.1 -0.719,-0.34c-0.153,-0.767 1.113,-0.248 1.32,0.098l-0.601,0.242Zm-31.999,-3.608c0.983,-0.003 1.921,-0.205 2.853,-0.516c0.196,-0.065 0.542,-0.067 0.699,-0.196c0.687,-0.562 0.975,-1.705 1.941,-1.928c0.619,-0.143 0.714,0.573 1.078,0.856c0.201,0.156 0.824,-0.009 1.033,-0.104c0.752,-0.342 0.217,-1.651 0.562,-2.144c0.099,-0.141 0.265,0.034 0.359,0.085c0.359,0.193 0.784,0.294 1.177,0.392c0.257,0.065 0.624,0.194 0.888,0.144c0.234,-0.044 0.527,-0.387 0.778,-0.261c0.638,0.318 -0.491,0.908 -0.261,1.013c0.436,0.198 1.283,0.105 1.738,-0c0.366,-0.085 0.643,-0.275 1.013,-0.04c0.181,0.115 -0.061,0.342 0.065,0.484c0.177,0.199 0.578,0.295 0.798,0.47c0.346,0.278 0.612,1.005 1.045,1.092c0.597,0.119 1.14,-0.445 1.725,-0.484c0.822,-0.055 1.481,0.795 2.013,1.268c0.378,0.335 1.117,0.349 1.588,0.484c0.076,0.021 0.753,0.24 0.712,0.281c-0.149,0.149 -0.611,0.219 -0.816,0.248c-0.733,0.105 -1.608,0.16 -2.346,0.111c-0.168,-0.011 -0.201,-0.196 -0.321,-0.209c-0.3,-0.033 -0.515,0.47 -0.83,0.47c-1.003,0 -1.911,-0.46 -2.875,-0.653c-0.481,-0.096 -0.974,-0.105 -1.444,-0.222c-0.099,-0.025 0.12,0.166 0.157,0.261c0.065,0.169 0.311,0.734 0.196,0.882c-0.264,0.339 -1.047,0.117 -1.405,0.255c-0.262,0.101 -0.108,0.383 -0.268,0.543c-0.217,0.217 -0.828,0.384 -1.124,0.49c-0.667,0.238 -1.198,-0.075 -1.837,-0.222c-0.4,-0.093 -0.815,-0.059 -1.215,-0.144c-0.24,-0.052 -0.67,0.033 -0.876,-0.098c-0.389,-0.248 0.137,-0.91 -0.353,-1.098c-0.78,-0.3 -1.589,-0.033 -2.359,-0.033c-0.569,0 -1.379,-0.184 -1.869,-0.47c-0.335,-0.196 -0.548,-0.532 -0.895,-0.706c-0.232,-0.116 -1.108,-0.093 -1.324,-0.301Zm86.915,1.343c-0,0.184 -0.165,0.543 0.019,0.686c0.168,0.131 0.302,-0.139 0.412,-0.209c0.303,-0.192 0.588,-0.081 0.836,-0.411l-1.267,-0.066Zm-86.948,-1.385c0.008,0.015 0.019,0.029 0.033,0.042c-0.008,0 -0.015,0 -0.022,0l-0.011,-0.042c-0.01,-0.019 -0.016,-0.04 -0.016,-0.062l0.016,0.062Zm9.081,-5.552c0,-0.629 0.94,-0.482 1.301,-0.509c0.607,-0.047 1.022,-0.444 1.705,-0.308c0.284,0.057 1.36,0.385 1.203,0.817c-0.077,0.212 -0.824,0.209 -1.007,0.209c-0.553,0 -0.783,-0.294 -1.333,-0.111l-1.869,-0.098Zm27.761,-1.15c-0.223,-0.445 -0.884,-0.182 -1.255,-0.235c-0.118,-0.017 -0.334,-0.002 -0.392,-0.131c-0.197,-0.434 0.191,-1.016 0.353,-1.372c0.116,-0.256 -0.144,-0.484 -0.144,-0.732c0,-0.267 0.922,-0.39 1.105,-0.307c0.213,0.097 0.472,0.184 0.49,0.451c0.016,0.24 -0.199,0.484 -0.026,0.706c0.358,0.46 0.953,0.419 1.385,0.718c0.217,0.151 0.251,0.468 0.392,0.68l-1.908,0.222Zm-12.5,-1.209c0.056,-0.023 0.112,-0.043 0.168,-0.059c0.054,-0.015 0.345,-0.005 0.307,0.013l-0.475,0.046c-0.144,0.059 -0.283,0.14 -0.4,0.235c-0.161,0.132 -0.177,0.376 -0.366,0.478c-0.47,0.252 -1.288,0.144 -0.941,-0.549l1.707,-0.164Zm5.024,0.53c-0.124,-0.186 0.223,-0.618 0.372,-0.713c0.451,-0.287 1.307,-0.028 1.412,0.497l-1.784,0.216Zm-9.254,-0.471c-0.13,-0.195 0.469,-0.449 0.314,-0.667c-0.068,-0.095 -0.292,-0.012 -0.392,-0.032c-0.339,-0.068 -0.683,-0.374 -0.634,-0.739c0.049,-0.367 0.578,-0.009 0.804,-0.235c0.271,-0.272 0.103,-0.84 0.215,-1.176c0.057,-0.17 0.309,-0.211 0.34,-0.366c0.054,-0.269 -0.385,-0.661 -0.359,-1c0.027,-0.349 0.446,-0.412 0.549,-0.68c0.14,-0.365 0.082,-0.773 0.274,-1.13c0.108,-0.201 0.378,-0.166 0.549,-0.275c0.452,-0.287 0.612,-0.719 1.144,-0.96c0.994,-0.452 1.231,0.932 2.143,0.849c0.153,-0.014 0.286,-0.33 0.438,-0.412c0.797,-0.429 1.589,-0.253 2.313,0.249c0.278,0.192 0.125,0.507 0.144,0.797c0.02,0.291 0.133,0.58 0.288,0.823c0.245,0.386 0.556,0.731 0.81,1.111c0.129,0.195 0.379,0.589 0.379,0.589c0,-0 -0.289,-0.152 -0.444,-0.196c-0.345,-0.099 -0.643,-0.36 -1.007,-0.406c-0.101,-0.012 -0.341,-0.047 -0.385,0.085c-0.042,0.126 0.213,0.305 0.281,0.399c0.235,0.323 0.373,0.676 0.627,0.993c0.069,0.086 0.245,0.256 0.19,0.379c-0.046,0.103 -0.41,0.013 -0.504,0.013c-0.445,0 -0.908,0.216 -1.333,0.334c-0.339,0.094 -1.25,0.783 -1.562,0.575c-0.08,-0.054 -0.506,-0.326 -0.516,-0.392c-0.023,-0.163 0.457,-0.34 0.562,-0.445c0.288,-0.287 0.095,-1.358 -0.209,-1.601c-0.022,-0.018 -0.245,0.408 -0.327,0.445c-0.164,0.074 -0.383,0.036 -0.529,0.15c-0.153,0.119 -0.158,0.36 -0.274,0.51c-0.171,0.218 -0.467,0.409 -0.602,0.64c-0.091,0.156 -0.013,0.359 -0.13,0.51c-0.221,0.283 -0.739,0.364 -1.066,0.49c-0.642,0.247 -1.212,0.606 -1.842,0.876l-0.249,-0.105Zm-14.391,-0.151c-0.19,-0.095 -0.319,-0.329 -0.522,-0.438c-0.3,-0.161 -0.569,-0.035 -0.811,-0.346c-0.234,-0.301 -0.008,-0.951 -0.32,-1.085c-0.671,-0.288 -1.075,0.132 -1.719,0.091c-0.34,-0.021 -0.583,-0.409 -0.431,-0.738c0.259,-0.561 1.366,-1.023 1.921,-1.065c0.349,-0.027 0.557,0.115 0.915,-0.053c0.231,-0.107 1.14,-0.594 1.327,-0.183c0.18,0.397 -0.806,0.637 -1.007,0.765c-0.19,0.121 0.102,0.258 -0.013,0.34c-0.152,0.109 -0.477,-0.051 -0.568,0.15c-0.089,0.196 0.153,0.349 0.261,0.471c0.236,0.265 0.616,0.654 0.667,1.006l0.3,1.085Zm4.287,-2.457c0.334,0.667 1.36,0.886 2.033,0.96c0.956,0.107 1.997,0.202 2.96,0.138c0.676,-0.045 1.32,-0.385 1.974,-0.536c0.611,-0.141 1.188,-0.232 1.758,-0.516c0.137,-0.069 0.427,-0.214 0.464,-0.38c0.024,-0.11 -0.269,-0.104 -0.327,-0.104c-0.386,-0 -0.764,-0.033 -1.15,-0.033c-0.869,0 -1.865,-0.092 -2.719,0.079c-0.624,0.125 -1.584,0.613 -2.209,0.405l-2.784,-0.013Zm21.292,-0.111c-0.132,0.266 -0.877,-0.193 -0.791,-0.509c0.122,-0.445 1.236,-0.479 1.236,0.091l-0.445,0.418Zm-22.076,-2.033c-0.085,-0.171 -0.314,-0.108 -0.314,-0.392c0,-0.547 0.46,-0.368 0.785,-0.418c0.163,-0.025 0.296,-0.151 0.47,-0.137c0.352,0.027 0.68,0.588 0.68,0.921l-1.621,0.026Zm26.834,-2.776c-0.833,-0 -1.332,0.095 -2.078,0.496c-0.479,0.258 -0.935,0.832 -1.543,0.745c-0.359,-0.051 -0.699,-0.207 -1.058,-0.274c-0.06,-0.011 -0.352,0.002 -0.366,-0.072c-0.016,-0.076 0.213,-0.175 0.268,-0.203c0.295,-0.147 0.613,-0.246 0.914,-0.385c0.379,-0.175 0.747,-0.487 1.157,-0.582c0.482,-0.111 0.949,0.013 1.425,0.013c0.603,0 0.734,-0.455 1.241,0.053l0.04,0.209Zm-15.228,-0.151c-0.114,-0.23 -0.858,-0.213 -1.071,-0.255c-0.506,-0.101 -1.011,-0.062 -1.517,-0.157c-0.23,-0.043 -0.335,-0.253 -0.575,-0.268c-0.33,-0.021 -0.563,0.293 -0.875,0.248c-0.255,-0.036 -0.571,-0.188 -0.804,-0.294c-0.148,-0.067 -0.17,-0.275 -0.366,-0.222c-0.318,0.087 -0.688,0.213 -0.987,0.353c-0.092,0.043 -0.351,0.172 -0.216,0.307c0.203,0.203 0.734,0.052 1.007,0.177c0.259,0.117 0.194,0.529 0.516,0.529c0.395,-0 0.563,-0.431 0.915,-0.431l3.973,0.013Zm-31.786,-2.824c0.469,0.235 1.043,0.338 1.483,0.621c0.108,0.07 0.358,0.549 0.399,0.549c0.416,0 0.39,-0.57 0.758,-0.594c0.308,-0.021 1.047,0.224 1.157,-0.027c0.14,-0.32 -0.146,-0.674 -0.477,-0.718c-0.29,-0.039 -0.591,0.087 -0.876,0.026c-0.244,-0.053 -0.336,-0.291 -0.549,-0.373c-0.385,-0.148 -0.897,0.01 -1.274,0.118l-0.621,0.398Zm11.083,0.21c-0.277,0.138 -0.395,0.519 -0.718,0.666c-0.249,0.113 -1.294,0.308 -0.987,-0.261c0.267,-0.497 0.587,-0.308 0.993,-0.353c0.153,-0.017 0.158,-0.235 0.359,-0.235l0.353,0.183Zm-2.823,-0.889c-0.168,-0.113 -0.46,0.034 -0.601,-0.124c-0.164,-0.185 0.115,-0.446 0.275,-0.504c0.33,-0.117 0.893,-0.005 1.084,0.314l-0.758,0.314Zm-14.377,-3.921c0.176,-0.176 0.753,-0.593 1.02,-0.575c0.196,0.013 0.314,0.2 0.509,0.183c0.206,-0.019 0.567,-0.294 0.745,-0.026c0.269,0.402 -0.836,0.483 -0.993,0.503c-0.293,0.036 -0.57,-0.049 -0.862,-0.007l-0.419,-0.078Zm-5.061,-14.604l4.685,0.27l-2.613,6.036l7.298,-0.09l-4.235,2.613l4.595,-0.09l-1.441,0.811l1.441,0.18l0.811,0.991l-9.911,2.613l-0.63,-13.334Zm70.773,-20.113c0.246,-0.123 -0.04,-1.14 -0.114,-1.331c-0.404,-1.051 -1.253,-1.916 -1.585,-2.979c-0.073,-0.231 -0.454,-0.945 -0.105,-1.103c0.192,-0.088 0.609,-0.16 0.806,-0.07c0.115,0.052 0.236,0.284 0.385,0.21c0.355,-0.178 0.32,-0.857 0.92,-0.718c0.438,0.101 0.419,0.686 0.867,0.718c0.205,0.014 0.681,0.028 0.858,-0.07c0.126,-0.07 0.142,-0.647 0.324,-0.412c0.255,0.327 0.167,1.093 0.167,1.48c-0,1.311 -0.059,2.587 -0.14,3.89c-0.056,0.886 0.07,1.768 0.07,2.654c-0,0.525 -0.145,1.063 -0.105,1.585c0.067,0.878 0.23,1.74 0.175,2.628c-0.03,0.472 -0.264,0.877 -0.324,1.331c-0.045,0.337 0.229,0.641 0.131,0.982c-0.108,0.379 -0.394,0.881 -0.394,1.27c0,0.439 0.348,0.845 0.385,1.261c0.022,0.242 -0.382,0.348 -0.359,0.692c0.069,1.034 0.206,1.679 -0.087,2.707c-0.052,0.181 -0.01,0.474 -0.114,0.63c-0.081,0.122 -0.446,-0.506 -0.491,-0.578c-0.33,-0.536 -0.598,-1.102 -0.919,-1.638c-0.099,-0.164 -0.219,-0.482 -0.447,-0.482c-0.728,0 -2.821,1.622 -3.67,1.236c-0.619,-0.282 0.893,-1.913 0.893,-2.436c0,-2.88 1.604,-5.282 2.365,-7.944l0.508,-3.513Z" style="fill:#b0a496;"/><path d="M87.078,66.618c0.654,0.092 1.14,0.47 1.767,0.626c0.391,0.098 1.162,0.14 1.478,0.386c0.292,0.227 0.177,1.467 0.217,1.823c0.096,0.863 0.772,1.393 0.932,2.192c0.039,0.198 0.039,0.447 0.041,0.704c-1.793,1.546 -3.827,2.684 -6.067,3.95c-1.733,0.979 -4.607,1.759 -6.346,2.715c-0.77,0.424 -1.62,0.771 -2.307,1.332c-0.311,0.254 -0.655,0.63 -0.856,0.976c-0.135,0.23 -0.146,0.528 -0.365,0.704c-0.3,0.24 -0.627,0.437 -1.01,0.509c-0.086,0.016 -0.55,-0.06 -0.576,-0.034c-0.36,-0.041 -0.711,-0.037 -0.989,0.07c-0.254,0.098 -0.499,0.572 -0.662,0.789c-0.558,0.745 -1.161,1.61 -1.221,2.579c-0.056,0.892 0.229,1.702 0.695,2.434c0.104,0.162 0.195,0.508 -0.067,0.568c-0.313,0.073 -0.562,-0.18 -0.798,-0.33c-1.114,-0.709 -0.603,-1.947 -0.526,-3.029c0.014,-0.194 -0.11,-1.391 -0.458,-1.043c-0.27,0.271 -0.168,0.681 -0.246,1.018c-0.238,1.031 -0.349,2.006 -0.008,3.028c0.094,0.282 0.669,1.245 0.246,1.408c-0.377,0.145 -0.655,-0.223 -0.874,-0.466c-0.632,-0.702 -0.713,-1.518 -0.585,-2.409c0.019,-0.135 0.236,-0.883 0.152,-0.967c-0.019,-0.02 -0.215,0.456 -0.237,0.5c-0.124,0.249 -0.501,0.723 -0.772,0.831c-0.285,0.114 -0.263,-0.788 -0.254,-0.933c0.031,-0.509 0.344,-1.12 0.763,-1.425c0.272,-0.197 0.637,-0.307 0.797,-0.627c0.085,-0.169 0.312,-0.98 0.128,-1.112c-0.261,-0.186 -1.023,0.205 -1.247,0.331c-1.021,0.574 -1.576,1.674 -1.985,2.766c-0.122,0.325 -0.127,1.081 -0.56,1.153c-0.582,0.097 -0.149,-0.738 -0.475,-0.933c-0.213,-0.128 -0.523,0.161 -0.696,-0.11c-0.269,-0.424 0.423,-1.357 0.654,-1.68c0.711,-0.995 1.537,-1.758 2.392,-2.612c0.494,-0.495 0.826,-1.038 1.492,-1.341c0.494,-0.224 0.999,-0.334 1.485,-0.593c1.009,-0.539 1.953,-1.327 3.037,-1.714c1.209,-0.432 2.392,-0.259 3.545,-0.992c1.531,-0.975 2.714,-2.29 4.038,-3.512c1.432,-1.322 2.814,-2.769 4.046,-4.275c0.612,-0.748 1.018,-1.663 1.62,-2.426c0.215,-0.272 0.438,-0.549 0.662,-0.829Zm-16.355,-1.313c0.488,-0.263 1.016,-0.532 1.409,-0.924c1.63,-1.63 2.877,-3.625 4.029,-5.599c0.489,-0.838 1.131,-2.009 1.213,-2.994c0.027,-0.321 -0.336,-0.459 -0.356,-0.78c-0.021,-0.331 0.342,-0.646 0.212,-0.959c-0.152,-0.363 -0.601,-0.388 -0.679,-0.806c-0.122,-0.652 0.566,-0.959 0.738,-1.476c0.109,-0.326 -0.076,-0.69 0.076,-1.026c0.467,-1.027 2.315,-0.823 3.147,-0.713c0.229,0.031 0.327,0.424 0.543,0.365c0.262,-0.071 0.25,-0.453 0.34,-0.661c0.136,-0.319 0.465,-0.628 0.729,-0.849c0.115,-0.095 0.474,-0.406 0.585,-0.161c0.161,0.353 -0.035,1.212 -0.059,1.603c-0.082,1.312 0.086,2.836 -0.789,3.962c-0.302,0.388 -0.814,-0.274 -1.103,0.051c-0.154,0.173 -0.183,0.363 -0.161,0.561c-0.16,0.009 -0.3,0.519 -0.41,0.638c-0.491,0.531 -0.908,0.805 -1.545,1.124c-0.018,0.009 -0.037,0.016 -0.055,0.026c-0.557,0.3 -0.305,0.987 -0.518,1.442c-0.349,0.749 -1.254,1.273 -1.492,2.036c-0.206,0.658 1.469,-0.236 1.28,0.645c-0.152,0.71 -0.396,1.699 -0.738,2.341c-0.068,0.128 -0.727,1.194 -0.585,1.289c0.07,0.046 0.6,-0.533 0.687,-0.611c0.096,-0.085 0.606,-0.329 0.484,0.009c-0.273,0.75 -0.648,1.446 -0.855,2.222c-0.365,1.375 -0.388,3.14 -1.851,3.848c-0.63,0.305 -1.298,0.382 -1.974,0.403c-0.248,-0.881 -1.11,-1.505 -1.639,-2.336c-0.563,-0.885 -0.75,-1.774 -0.663,-2.67Zm10.65,-24.718c-0.107,0.111 -0.455,0.348 -0.455,0.447c-0.687,0.24 -1.161,0.435 -1.161,0.516c-0.379,0.152 -0.742,0.341 -1.077,0.565c-1.624,1.082 -3.378,2.397 -4.623,3.919c-0.818,1 -1.465,2.081 -2.154,3.163c-0.448,0.704 -0.722,1.494 -0.984,2.282c-0.089,0.266 -0.258,0.843 -0.552,0.95c-0.645,0.235 -0.304,-1.393 -0.28,-1.645c0.124,-1.298 0.346,-3.087 -0.364,-4.241c-0.355,-0.577 -0.702,-1.135 -1.468,-0.917c-2.983,0.853 -5.488,3.149 -8.194,4.606c-0.717,0.387 -1.539,0.903 -2.392,0.781c-0.232,-0.033 -0.562,-0.041 -0.704,-0.263c-0.524,-0.823 0.069,-1.758 -0.093,-2.57c-0.051,-0.256 -1.118,0.03 -1.213,-0.586c-0.166,-1.078 0.663,-2.555 1.221,-3.418c1.323,-2.045 3.079,-3.867 4.326,-5.946c0.915,-1.524 1.632,-3.218 2.231,-4.895c0.428,-1.197 0.83,-2.64 1.62,-3.656c0.9,-1.156 2.134,-2.326 2.741,-3.668c0.389,-0.86 -0.196,-1.695 0.028,-2.558c0.309,-1.197 1.714,-2.081 2.593,-2.834c0.589,-0.505 1.243,-1.484 2.024,-1.673c0.375,-0.09 0.108,0.765 0.075,0.902c-0.139,0.574 -0.817,2.353 0.053,2.657c0.463,0.161 1.086,-0.046 1.534,-0.166c1.028,-0.273 2.014,-0.698 3.049,-0.944c2.227,-0.531 4.314,-0.372 6.551,-0.046c0.9,0.131 1.821,0.079 2.706,0.312c1.368,0.361 2.614,1.154 3.573,2.204c-0,1.646 -1.298,3.048 -2.038,4.444c-0.258,0.488 -0.497,0.986 -0.721,1.492c-0,0.313 -0.189,0.646 -0.307,0.929c-0.319,0.766 -0.719,1.489 -1.147,2.198c-1.198,1.984 -2.325,3.986 -3.386,6.048c-0.284,0.552 -0.616,1.096 -0.993,1.589c-0.005,0.007 -0.011,0.014 -0.019,0.022Z" style="fill:#dfaa99;"/><path d="M71.044,46.32c-0.289,0 -0.267,-0.29 -0.267,-0.507c-0,-0.34 -0.087,-0.956 -0.468,-1.103c-0.469,-0.18 -0.812,0.217 -1.242,0.181c-0.145,-0.012 0.019,-0.181 -0.101,-0.248c-1.335,-0.748 -3.32,0.685 -4.563,1.25c-1.546,0.703 -2.199,1.428 -3.507,2.445c-0.25,0.194 -1.307,0.889 -1.476,0.254c-0.08,-0.3 0.283,-0.704 0.441,-0.929c0.58,-0.829 1.367,-1.575 2.211,-2.138c0.664,-0.443 1.345,-0.818 2.011,-1.256c1.306,-0.858 2.536,-1.522 3.928,-2.251c0.447,-0.234 0.898,-0.594 1.403,-0.688c0.398,-0.075 0.687,0.118 1.029,0.093c0.378,-0.027 0.692,-0.41 1.055,-0.507c0.188,-0.05 0.227,0.17 0.388,0.207c0.33,0.076 0.678,-0.09 1.009,0.06c0.298,0.135 0.482,1.02 0.534,1.316c0.058,0.328 0.225,0.627 0.274,0.955c0.127,0.846 -0.27,1.659 -0.788,2.318c-0.291,0.37 -1.202,1.364 -1.711,0.729l-0.16,-0.181Zm8.551,-4.703c0,-0.328 0.045,-0.717 -0.02,-1.042c-0.087,-0.435 -0.351,-0.812 -0.427,-1.269c-0.06,-0.36 -0.012,-0.721 -0.034,-1.083c-0.051,-0.876 -0.327,-1.838 -0.587,-2.672c-0.105,-0.333 -0.413,-0.497 -0.555,-0.802c-0.154,-0.33 -0.065,-0.718 -0.087,-1.069c-0.029,-0.467 -0.275,-1.075 -0.1,-1.53c0.121,-0.314 0.456,-0.483 0.66,-0.74c0.452,-0.571 0.919,-2.058 1.716,-2.233c0.072,-0.016 -0.178,0.776 -0.098,0.865c0.154,0.168 0.713,-0.362 0.828,-0.457c0.506,-0.412 1.109,-1.027 1.51,-1.543c0.136,-0.174 0.011,-0.595 0.361,-0.568c0.262,0.02 0.436,0.44 0.528,0.641c0.352,0.775 0.349,1.553 -0.114,2.272c-0.369,0.575 -1.167,0.594 -1.79,0.594c-0.244,0 -0.735,-0.013 -0.922,0.174c-0.266,0.266 -0.061,0.771 -0.08,1.082c-0.032,0.503 -0.951,1.637 -0.054,1.958c0.493,0.176 1.311,-0.08 1.744,-0.328c1.223,-0.698 3.28,-1.673 3.734,-3.126c0.155,-0.494 0.278,-1.341 0.241,-1.857c-0.037,-0.517 -0.107,-1.021 0.107,-1.51c0.26,-0.594 0.449,-1.202 0.641,-1.817c0.106,-0.338 0.334,-0.615 0.421,-0.962c0.027,-0.108 0.303,-0.869 0.241,-0.896c-0.096,-0.041 -0.302,0.061 -0.408,0.067c-0.517,0.032 -0.99,0.139 -1.496,0.234c-0.463,0.087 -1.033,-0.085 -1.463,0.08c-1.891,0.727 -2.694,3.074 -3.915,4.47c-0.577,0.659 -1.058,1.367 -1.644,2.017c-0.179,0.199 -0.651,0.509 -0.922,0.287c-0.196,-0.16 -0.026,-1.201 -0.087,-1.503c-0.143,-0.719 -0.555,-1.409 -0.601,-2.138c-0.055,-0.881 0.498,-1.946 0.982,-2.645c0.518,-0.748 1.127,-1.268 1.884,-1.75c0.127,-0.081 0.613,-0.368 0.341,-0.542c-0.587,-0.373 -1.764,-0.22 -2.432,-0.22c-2.891,-0 -5.148,0.98 -7.395,2.746c-0.98,0.77 -2.019,1.533 -2.947,2.358c-0.086,0.076 -0.858,0.711 -0.928,0.595c-0.07,-0.116 0.236,-0.675 0.28,-0.809c0.442,-1.324 1.355,-1.896 2.419,-2.732c1.015,-0.798 1.948,-1.775 3.093,-2.392c0.62,-0.334 1.355,-0.444 1.991,-0.761c2.22,-1.11 4.519,-2.481 7.121,-2.319c0.783,0.049 1.535,0.251 2.299,0.394c0.481,0.091 0.977,0.109 1.429,0.314c1.415,0.643 2.648,1.572 3.741,2.666c0.165,0.165 0.22,0.466 0.375,0.655c0.639,0.782 1.082,1.25 1.256,2.291c0.053,0.322 0.168,0.596 0.066,0.922c-0.264,0.845 -0.999,1.42 -1.416,2.178c-0.645,1.174 -0.824,2.503 -1.757,3.521c-0.808,0.882 -2.155,1.235 -2.732,2.318c-0.258,0.483 -0.647,1.062 -0.749,1.603c-0.077,0.411 0.055,0.861 0.027,1.283c-0.034,0.513 -0.173,1.036 -0.281,1.537c-0.284,1.326 -0.266,4.023 -2.151,4.148c-0.303,0.021 -0.795,-0.123 -1.089,-0.207l-0.755,-0.748Zm-13.521,-7.429c0.166,-0.332 0.75,-0.634 1.042,-0.848c0.867,-0.636 2.143,-2.181 3.414,-1.604c0.527,0.24 1.264,0.591 1.563,1.103c0.12,0.206 -0.045,0.468 0.073,0.654c0.179,0.281 1.212,0.306 0.662,0.855c-0.201,0.202 -0.607,0.082 -0.829,-0.013c-0.632,-0.271 -0.744,-0.894 -1.463,-1.029c-0.674,-0.126 -1.375,-0.125 -2.031,0.08c-0.486,0.152 -0.905,0.48 -1.389,0.642c-0.29,0.096 -0.588,0.091 -0.875,0.214l-0.167,-0.054Z" style="fill:#231f1a;"/></g></g></svg>