<?xml version="1.0" encoding="UTF-8" standalone="no"?><!DOCTYPE svg PUBLIC "-//W3C//DTD SVG 1.1//EN" "http://www.w3.org/Graphics/SVG/1.1/DTD/svg11.dtd"><svg width="100%" height="100%" viewBox="0 0 150 150" version="1.1" xmlns="http://www.w3.org/2000/svg" xmlns:xlink="http://www.w3.org/1999/xlink" xml:space="preserve" xmlns:serif="http://www.serif.com/" style="fill-rule:evenodd;clip-rule:evenodd;stroke-linejoin:round;stroke-miterlimit:2;"><path id="base" d="M150,75c0,-41.394 -33.606,-75 -75,-75c-41.394,0 -75,33.606 -75,75c0,41.394 33.606,75 75,75c41.394,0 75,-33.606 75,-75Z" style="fill:#72380a;"/><path id="outline" d="M144,75c0,-38.082 -30.918,-69 -69,-69c-38.082,0 -69,30.918 -69,69c0,38.082 30.918,69 69,69c38.082,0 69,-30.918 69,-69Z" style="fill:#140100;"/><path id="core" d="M141,75c0,-36.426 -29.574,-66 -66,-66c-36.426,0 -66,29.574 -66,66c0,36.426 29.574,66 66,66c36.426,0 66,-29.574 66,-66Z" style="fill:#faecc3;"/><clipPath id="_clip1"><path d="M141,75c0,-36.426 -29.574,-66 -66,-66c-36.426,0 -66,29.574 -66,66c0,36.426 29.574,66 66,66c36.426,0 66,-29.574 66,-66Z"/></clipPath><g clip-path="url(#_clip1)"><g id="a-dream"><path d="M55.574,113.583l43.239,1.602l6.509,14.206l-50.11,-7.387l0.362,-8.421Z" style="fill:#636162;"/><path d="M96.857,84.827c-0.116,-0.553 -0.162,-1.314 0.161,-1.545c0.323,-0.23 1.222,-0.622 1.522,-0.991c0.299,-0.369 0.484,-1.153 0.438,-1.683c-0.047,-0.53 0.184,-2.421 0.207,-3.066c0.023,-0.646 -0.138,-2.236 0.254,-2.651c0.392,-0.415 -0.277,-0.554 0.991,-0.6c1.268,-0.046 3.527,-0.115 5.302,-0.23c1.776,-0.115 1.43,-0.438 3.297,-0.392c1.868,0.046 3.112,0.853 3.112,0.853c0,-0 0.669,-0.807 0.6,-1.084c-0.069,-0.276 -0.899,-1.729 -1.084,-2.513c-0.184,-0.783 -0.553,-1.291 0.046,-1.567c0.6,-0.277 1.291,-0.162 2.006,-0.577c0.715,-0.415 5.003,-1.083 5.671,-1.106c0.669,-0.023 1.199,0.161 1.499,-0.023c0.3,-0.185 0.277,-3.481 0.323,-4.772c0.046,-1.291 -0.023,-2.168 -0.023,-2.168c-0,0 0.063,-4.438 0.931,-6.059c0.869,-1.621 1.39,-1.216 1.969,-2.606c0.579,-1.389 1.564,-3.3 1.564,-3.3c-0,-0 0.637,1.216 2.084,1.737c1.448,0.521 2.49,0.637 3.359,1.39c0.868,0.752 1.505,1.274 2.026,2.432c0.522,1.158 1.622,3.3 1.622,3.3c-0,0 0.81,-1.505 2.2,-2.258c1.39,-0.753 2.432,-1.216 2.432,-1.216c20.974,61.362 -5.3,72.026 -33.411,80.72c-0,-0 -8.983,-49.472 -9.098,-50.025Z" style="fill:#31302e;"/><g id="martin"><path d="M56.724,110.592c-0,0 0.678,-0.291 1.183,-0.213c0.504,0.078 0.601,0.174 1.958,0.233c1.357,0.058 1.959,0.019 2.754,0.058c0.795,0.039 1.318,-0 1.667,-0c0.349,-0 0.369,-0.117 1.047,0.039c0.679,0.155 2.676,0.698 2.676,0.698l0.446,3.412c0,0 -0.504,0.408 -0.601,0.718c-0.097,0.31 0.155,0.465 -0.252,0.679c-0.407,0.213 -1.648,0.368 -1.648,0.368c-0,0 -9.948,-4.46 -9.909,-4.654c0.039,-0.194 0.679,-1.338 0.679,-1.338Zm14.057,-24.025c-0.145,-0.512 -0.077,-0.416 -0.251,-1.083c-0.174,-0.667 -0.058,-0.59 -0.271,-0.996c-0.213,-0.406 -0.503,-0.9 -0.687,-0.909c-0.184,-0.01 -0.416,0.106 -0.483,-0.194c-0.068,-0.299 -0.174,-0.367 -0.155,-0.889c0.019,-0.523 0.184,-0.407 -0.087,-0.726c-0.271,-0.319 -0.677,-0.677 -0.696,-1.054c-0.02,-0.377 -0.01,-0.3 0.087,-0.754c0.096,-0.455 0.261,-0.9 0.125,-1.074c-0.135,-0.174 -0.744,-0.493 -0.889,-0.696c-0.146,-0.203 -0.349,-0.552 -0.349,-0.706c0,-0.155 0.542,-1.103 0.697,-1.354c0.154,-0.252 0.261,-0.232 0.348,-0.648c0.087,-0.416 0.106,-0.648 0.106,-1.025c0,-0.378 -0.096,-0.861 -0.106,-1.122c-0.01,-0.261 -0.126,-1.316 -0.058,-1.702c0.068,-0.387 0.203,-0.6 0.251,-0.91c0.049,-0.309 0.213,-1.605 0.377,-1.982c0.165,-0.377 0.3,-0.658 0.503,-0.977c0.203,-0.319 1.567,-1.77 1.964,-2.147c0.396,-0.377 0.609,-0.58 1.025,-0.89c0.416,-0.309 5.986,-1.509 5.986,-1.509l10.988,11.195c0,0 0.621,2.65 0.539,3.064c-0.083,0.414 0.228,0.993 0.351,1.249c0.123,0.256 0.358,0.974 0.286,1.209c-0.071,0.236 -0.215,0.298 -0.215,0.451c0,0.154 0.031,0.789 0.031,0.789c-5.589,5.56 -11.557,9.454 -19.141,6.243c-0,0 -0.131,-0.34 -0.276,-0.853Zm-42.072,-9.091c-0.21,-0.254 -1.203,-1.126 -1.655,-1.567c-0.452,-0.441 -1.897,-1.986 -2.306,-2.229c-0.408,-0.242 -1.147,-0.551 -1.864,-0.783c-0.717,-0.232 -3.155,-1.611 -3.586,-2.118c-0.43,-0.508 -1.048,-1.026 -1.621,-1.478c-0.574,-0.453 -1.203,-1.214 -1.964,-1.435c-0.761,-0.22 -3.299,-1.544 -3.641,-1.842c-0.342,-0.298 -1.015,-0.783 -0.794,-1.28c0.221,-0.496 0.772,-0.32 0.772,-0.32c0,0 -1.776,-0.739 -2.074,-1.07c-0.298,-0.331 -0.706,-1.732 0.817,-1.246c1.522,0.485 3.85,1.202 4.313,1.368c0.464,0.165 1.192,0.518 1.479,0.518c0.286,0 0.695,-0.254 0.209,-0.518c-0.485,-0.265 -2.493,-1.677 -2.78,-1.799c-0.287,-0.121 -2.317,-1.335 -2.593,-1.544c-0.275,-0.21 -0.794,-0.772 -0.529,-1.136c0.265,-0.365 0.739,-0.497 1.622,-0.045c0.882,0.453 2.824,1.236 3.298,1.457c0.475,0.22 1.765,1.224 1.832,1.026c0.066,-0.199 -0.1,-0.364 -0.508,-0.861c-0.408,-0.496 -1.412,-1.776 -1.688,-2.206c-0.276,-0.431 -1.158,-1.545 -0.485,-1.865c0.673,-0.32 1.655,0.486 2.085,0.927c0.43,0.441 1.28,1.5 1.511,1.71c0.232,0.21 1.192,0.96 1.335,1.191c0.144,0.232 0.375,0.519 0.519,0.552c0.143,0.033 0.783,-0.331 0.937,-0.199c0.155,0.133 0.1,1.104 0.188,1.28c0.088,0.177 0.585,0.243 0.849,0.508c0.265,0.264 0.718,0.618 0.817,0.926c0.099,0.309 0.209,0.541 0.331,0.618c0.121,0.077 0.64,0.022 0.915,0.32c0.276,0.298 1.06,1.39 1.214,1.743c0.154,0.353 0.805,1.578 1.136,2.041c0.331,0.464 1.015,0.993 1.346,1.225c0.331,0.231 1.721,1.147 1.997,1.357c0.276,0.209 1.556,0.838 1.82,1.059c0.265,0.22 0.729,0.971 0.729,0.971c-0,-0 -3.773,4.997 -3.983,4.744Z" style="fill:#a5604b;"/><path d="M71.606,65.335c0,0 0.238,-0.418 0.419,-0.598c0.18,-0.18 0.877,-0.977 1.168,-1.169c0.291,-0.191 2.68,-1.023 3.11,-1.11c0.43,-0.087 3.627,-0.267 4.203,-0.227c0.575,0.041 3.389,0.797 3.825,1.023c0.435,0.227 1.947,1.326 2.546,1.884c0.598,0.558 1.517,2.36 1.691,2.831c0.175,0.471 0.674,2.226 0.791,2.464c0.116,0.239 0.308,0.791 0.354,1.012c0.047,0.221 -0.064,1.319 -0.133,1.558c-0.07,0.238 0.145,1.168 0.244,1.511c0.099,0.343 0.116,0.953 0.128,1.256c0.011,0.302 -0.024,0.936 -0.059,1.156c-0.034,0.221 -0.191,0.715 -0.255,0.756c-0.064,0.041 -0.042,-1.097 -0.365,-1.641c-0.322,-0.544 -0.463,-1.168 -1.067,-1.631c-0.604,-0.463 -1.007,-0.624 -1.289,-0.967c-0.282,-0.342 -0.463,-1.168 -0.846,-1.53c-0.382,-0.363 -0.785,-0.685 -1.027,-0.786c-0.242,-0.101 -0.342,0.181 -0.705,0.322c-0.362,0.141 -0.523,0.403 -0.966,0.464c-0.444,0.06 -0.403,0.02 -0.766,0.342c-0.362,0.322 -0.362,0.805 -0.906,0.362c-0.544,-0.443 -1.289,-1.349 -1.652,-1.873c-0.362,-0.523 -0.12,-1.349 -0.664,-1.993c-0.544,-0.645 -1.168,-1.007 -1.188,-1.551c-0.021,-0.544 0.402,-1.672 0.221,-2.135c-0.181,-0.463 -0.584,-0.886 -0.967,-0.987c-0.382,-0.1 -0.946,-0.161 -1.53,-0.06c-0.584,0.1 -1.43,0.08 -1.712,0.08c-0.282,0 -1.531,0.504 -1.792,0.665c-0.262,0.161 -0.554,0.299 -0.811,0.572Z" style="fill:#0e0f11;"/><path d="M80.877,105.476c-0.129,-0.058 1.637,-2.523 1.771,-2.571c0.135,-0.047 0.483,0.388 0.586,0.364c0.103,-0.024 0.19,-0.348 0.292,-0.356c0.103,-0.008 0.325,0.317 0.404,0.293c0.079,-0.024 0.284,-0.483 0.411,-0.506c0.127,-0.024 1.685,1.146 1.685,1.225c-0,0.08 -5.007,1.614 -5.149,1.551Z" style="fill:#c3c2c9;"/><path d="M64.907,110.728c-0,-0 0.349,-0.116 0.717,0.019c0.369,0.136 0.369,0.02 0.679,0.214c0.31,0.194 0.407,0.058 0.64,0.368c0.232,0.31 0.484,1.008 0.64,1.396c0.155,0.388 0.407,1.61 0.407,1.842c-0,0.233 0.136,0.485 -0,0.795c-0.136,0.311 -0.155,0.485 -0.291,0.66c-0.136,0.174 -0.446,0.368 -0.446,0.368l-0.194,0.078c0,-0 0.349,0.756 0.427,0.969c0.077,0.214 0.232,0.912 0.232,0.912c0,-0 0.136,0.077 0.64,0.116c0.504,0.039 0.834,0.097 1.086,0.155c0.252,0.058 0.64,0.097 0.989,0.213c0.349,0.117 0.562,0.194 1.183,0.33c0.62,0.136 1.105,0.213 1.454,0.33c0.349,0.116 0.815,0.368 0.718,0.194c-0.097,-0.175 0.562,-2.657 0.097,-3.336c-0.466,-0.678 -3.859,-6.166 -3.859,-6.166c-0,0 -2.889,-0.349 -3.587,-0.291c-0.699,0.058 -1.377,0.33 -1.532,0.834Zm25.004,-30.425c0.124,-0.051 0.123,0.425 0.041,0.53c-0.081,0.104 -13.267,27.363 -13.843,28.505c0,-0 1.468,-21.049 1.563,-21.257c0.095,-0.209 0.399,0.132 0.627,0.132c0.228,0 0.361,0.532 1.367,-0.626c1.007,-1.159 1.615,-1.235 2.071,-1.615c0.456,-0.38 2.089,-1.671 2.355,-1.975c0.266,-0.304 1.691,-1.216 2.317,-1.691c0.627,-0.475 2.731,-1.685 3.502,-2.003Zm-57.624,-8.54c-0,0 1.715,1.277 2.249,1.544c0.533,0.267 1.105,0.953 1.639,1.22c0.534,0.266 1.067,0.552 1.296,0.705c0.229,0.152 -2.897,8.653 -2.897,8.653c-0,-0 -0.82,-0.458 -0.896,-0.706c-0.076,-0.247 -0.057,-0.705 -0.19,-1.105c-0.134,-0.4 -1.411,-1.143 -2.268,-1.582c-0.858,-0.438 -2.535,-1.677 -2.688,-2.058c-0.152,-0.381 -0.19,-0.972 0.134,-1.43c0.324,-0.457 1.829,-2.382 2.077,-2.839c0.248,-0.458 1.163,-1.964 1.544,-2.402Z" style="fill:#ebf4f6;"/><path d="M41.682,90.65l-0.962,-1.608c0,-0 -1.478,-1.072 -1.885,-1.257c-0.406,-0.185 -1.571,-0.85 -2.236,-1.368c-0.666,-0.517 -2.052,-1.497 -2.403,-1.7c-0.351,-0.203 -1.09,-0.61 -1.183,-0.795c-0.092,-0.185 0.37,-1.423 0.407,-1.645c-0,0 0.185,0.481 0.277,0.647c0,0 0.166,0.351 0.351,-0.185c0.185,-0.536 0.462,-0.61 0.721,-0.942c0.259,-0.333 0.573,-1.165 0.721,-1.423c0.148,-0.259 0.665,-1.534 0.776,-1.904c0.111,-0.37 0.629,-1.571 0.703,-2.033c0.073,-0.462 0.48,-1.146 0.351,-1.312c-0.13,-0.167 -0.289,-0.256 -0.289,-0.256c0,0 1.887,0.867 2.167,1.012c0.28,0.144 1.805,0.92 2.113,1.113c0.308,0.192 1.079,0.578 1.83,0.943c0.751,0.366 0.924,0.463 1.463,0.694c0.54,0.231 1.041,0.366 1.638,0.751c0.597,0.385 1.001,0.482 1.579,0.713c0.578,0.231 1.252,0.366 1.541,0.597c0.289,0.231 0.924,0.732 1.232,1.117c0.309,0.385 0.443,0.982 0.79,1.078c0.347,0.097 0.52,0.097 1.137,0.154c0.616,0.058 1.001,0.02 1.406,0.212c0.404,0.193 0.924,0.443 1.329,0.79c0.404,0.347 0.847,0.655 0.847,0.655l1.156,-0.25c-0,-0 2.426,0.288 2.985,0.597c0.559,0.308 0.828,0.443 1.387,0.385c0.558,-0.058 0.77,-0.174 1.406,-0.077c0.635,0.096 1.232,0.019 1.945,0.366c0.713,0.346 1.348,0.423 1.695,0.732c0.347,0.308 0.539,0.481 0.982,0.52c0.443,0.038 0.463,0.096 0.983,-0.097c0.52,-0.192 0.385,-0.269 0.943,-0.269c0.559,-0 1.464,-0.231 1.464,-0.231c0,-0 -0.058,-0.116 0.52,0.211c0.578,0.328 1.156,0.54 1.599,0.694c0.443,0.154 0.924,0.462 1.656,0.481c0.732,0.02 1.233,0.058 1.483,-0.038c0.251,-0.097 0.925,-0.174 1.117,0.019c0.193,0.193 0.231,0.809 0.231,0.809c0,-0 0.039,0.212 0.251,0.096c0.212,-0.115 0.462,-0.404 0.462,-0.404l0.539,-0.231c0,-0 0.289,-0.097 0.347,0.173c0.058,0.27 0.116,0.482 0.385,0.616c0.27,0.135 0.597,0.617 0.597,0.617l-0.25,0.674c-0,-0 -0.655,0.578 -0.848,0.732c-0.192,0.154 -0.443,0.308 -0.443,0.558c0,0.251 -0.019,1.098 -0.057,1.503c-0.039,0.404 -0.039,0.751 -0.212,1.252c-0.173,0.5 -0.231,0.943 -0.251,1.309c-0.019,0.366 -0.038,1.772 -0.038,2.157c-0,0.386 -0.096,1.907 -0,2.35c0.096,0.443 0.116,0.751 0.116,0.751c-0,0 0.52,-1.252 0.693,-1.541c0.173,-0.288 0.693,-1.56 0.924,-2.06c0.232,-0.501 2.081,-4.103 2.35,-4.7c0.27,-0.597 1.31,-2.908 1.58,-3.409c0.269,-0.501 1.849,-2.793 2.118,-3.236c0.27,-0.443 2.003,-2.465 2.35,-2.889c0.347,-0.424 1.786,-1.752 1.779,-2.34c-0,0 0.351,0.017 0.409,0.209c0.059,0.192 0.46,0.827 0.577,1.053c0.117,0.225 0.743,1.094 0.852,1.144c0.108,0.05 0.083,0.109 0.367,0.025c0.284,-0.083 0.485,-0.167 0.769,-0.1c0.284,0.067 1.946,1.044 2.238,1.119c0.293,0.075 0.668,0.151 1.053,0.309c0.384,0.159 2.522,1.186 2.714,1.37c0.193,0.184 0.51,0.434 0.986,0.727c0.476,0.292 2.832,1.871 3.007,2.122c0.176,0.25 1.228,1.294 1.337,1.511c0.108,0.218 1.654,3.355 1.912,4.861c0.258,1.507 0.694,5.471 0.773,6.998c0.079,1.526 0.079,5.332 0.04,6.898c-0.04,1.566 0.099,2.319 -0.02,2.874c-0.119,0.555 -0.258,1.11 -0.198,1.486c0.059,0.377 0.119,1.408 0.178,1.844c0.06,0.436 -0.119,3.191 0.04,3.746c0.158,0.555 0.099,3.509 0.218,4.123c0.119,0.615 0.832,3.608 0.991,4.143c0.159,0.535 0.396,3.092 0.515,3.766c0.119,0.674 0.377,1.923 0.377,1.923l-1.683,-0.618l-26.355,-11.34c0,0 -2.827,-0.314 -4.397,-0.408c-1.571,-0.094 -1.437,-0.164 -2.003,-0.278c-1.571,-0.319 -1.794,-0.983 -1.429,-1.03c0.302,-0.039 0.381,-0.664 0.49,-0.932c0.109,-0.268 0.075,-0.871 -0.126,-1.257c-0.201,-0.386 -0.821,-1.392 -1.148,-1.995c-0.327,-0.604 -1.559,-2.699 -1.811,-3.194c-0.251,-0.494 -0.656,-1.341 -1.743,-1.634l1.574,0.008c0,0 -0.203,-2.606 -0.259,-3.327c-0.055,-0.721 -0.48,-3.918 -0.499,-4.62c-0.01,-0.412 0.068,-1.115 0.119,-1.727c-0.037,0.011 -0.069,0.013 -0.096,0.005c-0.607,-0.19 -1.744,-0.19 -2.54,-0.304c-0.796,-0.113 -2.274,-0.53 -3.221,-0.72c-0.948,-0.189 -3.449,-0.947 -3.449,-0.947l-13.606,-3.715l-5.318,-3.996Z" style="fill:#0c0f14;"/><path d="M83.641,92.469c0.378,-0 1.533,0.781 1.256,2.248c-0.262,1.386 -0.978,2.402 -1.854,2.818c-0.876,0.416 -2.293,0.307 -2.592,-0.876c-0.299,-1.182 0.27,-2.862 1.504,-3.65c1.234,-0.788 1.679,-0.54 1.686,-0.54Z" style="fill:#dad9d7;"/></g><path d="M46.073,115.25l7.648,18.612l-22.866,-2.389l-18.573,-29.243c-0,0 1.471,-1.72 2.069,-2.144c0.598,-0.424 1.122,-0.598 1.82,-1.022c0.698,-0.424 1.845,-0.798 2.518,-0.997c0.673,-0.2 1.87,-0.698 2.219,-0.997c0.349,-0.3 3.415,-1.646 4.637,-2.07c1.221,-0.423 1.097,-0.249 2.293,-0.448c1.197,-0.2 3.765,-1.172 4.463,-1.272c0.698,-0.1 1.62,-0.149 2.318,-0.149c0.698,-0 0.898,-0.025 1.696,-0.15c0.797,-0.125 0.872,-0.05 1.944,0.025c1.072,0.075 10.571,0.1 10.571,0.1c-0,-0 2.468,0.299 3.864,0.299c1.396,-0 1.296,-0.1 2.368,-0.175c1.072,-0.074 1.471,0.05 2.543,0.025c1.072,-0.025 0.723,-0.025 1.795,0c1.072,0.025 1.571,0.374 1.571,0.374c-0,0 0.523,-0.1 1.246,-0.124c0.723,-0.025 1.446,0.473 1.446,0.473c0,0 0.723,-0.274 2.269,-0.349c1.546,-0.075 2.169,-0.075 2.742,-0.224c0.574,-0.15 1.172,0.224 1.421,0.474c0.25,0.249 0.574,1.371 0.648,1.869c0.075,0.499 -0.598,2.468 -0.598,2.468c0,0 -0.673,0.15 -1.271,0.225c-0.599,0.075 -1.347,-0.125 -2.593,-0.25c-1.247,-0.124 -2.044,-0.074 -2.568,-0.099c-0.523,-0.025 -1.197,-0.05 -1.197,-0.05c0,-0 -0.498,0.798 -0.747,1.022c-0.25,0.224 -0.923,0.623 -1.521,1.072c-0.599,0.449 -0.823,0.598 -1.022,1.122c-0.2,0.523 -0.499,0.324 -0.748,0.449c-0.25,0.124 -0.374,0.698 -0.349,1.296c0.025,0.598 0.05,1.645 0.025,2.618c-0.025,0.972 -0.474,2.966 -0.649,3.864c-0.174,0.897 -0.8,3.49 -0.8,3.49l-3.188,-1.446c-0,0 0.523,-1.097 1.022,-1.87c0.498,-0.772 0.922,-1.421 1.122,-2.094c0.199,-0.673 0.398,-1.421 0.648,-2.568c0.249,-1.146 0.274,-1.57 0.324,-1.944c0.05,-0.374 -0.175,-0.972 -0.175,-0.972c0,-0 -1.097,1.171 -1.495,1.745c-0.399,0.573 -0.773,0.698 -1.097,1.147c-0.324,0.448 -0.499,0.847 -0.998,1.371c-0.498,0.523 -0.872,0.548 -0.872,0.548l-2.219,-6.382c0.399,-0.299 2.219,0.15 2.219,0.15l1.695,-1.372c-0.174,-0.324 -0.125,-0.922 -0.125,-0.922c0,-0 -2.193,-0.125 -3.49,-0.249c-1.296,-0.125 -10.072,-0.1 -10.072,-0.1l-0.922,0.274c-0,0 0.748,1.396 0.872,2.119c0.125,0.723 0.275,0.673 -0.324,0.873c-0.598,0.199 -3.166,0.972 -3.964,1.296c-0.797,0.324 -0.847,0.549 -0.847,0.549c-0,-0 -0.125,-0.2 -0.349,-0.1c-0.225,0.1 -3.715,1.895 -4.288,2.169c-0.574,0.274 -0.798,0.798 -0.948,1.221c-0.149,0.424 -0.174,1.496 -0.249,2.12c-0.075,0.623 -0.548,0.698 -0.922,0.897c-0.374,0.199 -1.197,0.324 -1.197,0.324l-0.374,0.773l2.643,0.548l-0.075,1.77l-1.222,0.374c0,0 -0.224,0.225 -0.124,0.599c0.099,0.374 1.446,3.016 1.446,3.016l14.604,-2.867c0.168,-0.29 0.372,-0.591 0.559,-0.703c0.377,-0.226 0.905,-0.44 0.905,-0.44c0,-0 -0.025,-0.88 0.365,-1.258c0.39,-0.377 0.83,-1.484 0.83,-1.484l0.742,4.276l-1.092,0.887Zm-25.096,-10.77c0,-0 -0.589,1.397 -0.639,2.255c-0.049,0.858 -0.059,3.711 -0.059,3.711c-0,0 1.386,-0.01 1.376,-0.229c-0.01,-0.22 -0.039,-1.417 0.04,-1.597c0.08,-0.179 -0.658,-0.498 -0.688,-1.047c-0.03,-0.549 -0.01,-2.754 -0.01,-2.754l-0.02,-0.339Zm1.629,5.535l-0.247,0.067c0,-0 -0.237,-0.086 -0.237,-0.323c0,-0.237 -0.076,-0.873 0.095,-0.835c0.171,0.038 0.361,0.227 0.361,0.227l0.114,0.086l-0.086,0.778Zm-3.405,-5.695c0,0 -0.309,1.287 -0.359,1.636c-0.05,0.35 -0.299,1.158 -0.349,1.397c-0.05,0.24 -0.15,0.359 -0.28,0.16c-0.129,-0.2 -0.219,-0.279 -0.269,-0.639c-0.05,-0.359 -0.21,-0.399 -0.15,-0.588c0.06,-0.19 1.128,-1.736 1.417,-2.046l-0.01,0.08Zm16.52,-6.018c0,-0 -0.136,0.135 -0.563,0.605c-0.428,0.469 -0.491,0.417 -0.929,0.855c-0.438,0.439 -0.282,0.428 -0.887,0.783c-0.605,0.355 -0.532,0.334 -1.69,0.793c-1.159,0.459 -2.38,1.482 -2.599,1.461c-0.219,-0.021 -0.021,-1.513 0.084,-1.68c0.104,-0.167 2.128,-0.95 2.702,-1.315c0.574,-0.365 2.745,-1.44 3.882,-1.502Zm-4.789,-0.084c-0,0 -4.623,0.198 -5.134,0.417c-0.512,0.22 -1.367,0.94 -1.169,1.023c0.198,0.084 1.242,-0.052 1.764,0.042c0.521,0.094 1.126,0.323 1.356,0.271c0.23,-0.052 1.93,-1.409 3.183,-1.753Z" style="fill:#636162;"/><path d="M38.082,130.095c0,-0.417 -0.444,-1.056 -0.444,-1.778c-0,-0.723 0.305,-2.585 0.889,-3.224c0.584,-0.64 2.89,-2.418 4.03,-2.918c1.139,-0.501 3.863,-1.696 3.863,-1.696c0,0 -0.445,-1.278 -0.528,-1.862c-0.083,-0.583 -0.028,-2.974 -0.167,-3.474c-0.139,-0.5 -0.194,-1.64 0.223,-1.945c-0,-0 -0.806,-6.198 -0.723,-6.448c0.083,-0.25 0.333,-0.556 0.333,-0.556c0,0 -0.083,-0.583 -0.25,-1.056c-0.166,-0.472 -0.945,-3.168 -1.528,-3.696c-0.584,-0.528 -2.279,-1.974 -2.696,-2.307c-0.417,-0.334 -1.334,-1.139 -1.723,-1.695c-0.389,-0.556 -1.695,-2.974 -1.834,-3.669c-0.139,-0.695 0.694,-1.362 1.139,-1.806c0.445,-0.445 0.806,-0.584 0.945,-0.973c0.139,-0.389 -0.083,-1.445 1.056,-1.64c1.14,-0.194 1.946,-0.5 2.863,-0.25c0.917,0.25 2.973,-0.055 3.807,0.612c0.834,0.667 1.695,1.083 1.501,2.001c-0.195,0.917 -0.056,3.112 -0.139,3.946c-0.083,0.834 -0.389,1.39 0.167,2.39c0.556,1.001 0.389,1.14 0.833,2.001c0.445,0.862 1.362,4.058 1.696,4.753c0.333,0.694 0.305,0.778 0.611,1.361c0.306,0.584 0.778,1.251 1.195,2.335c0.417,1.084 0.25,2.696 1.167,2.807c0.918,0.111 2.252,0.083 3.058,0.167c0.806,0.083 2.473,0.305 3.085,0.472c0.611,0.167 1.75,0.111 2.918,0.695c1.167,0.584 1.723,0.472 2.195,1.084c0.473,0.611 1.251,2.501 1.723,3.307c0.473,0.806 0.056,1.334 0.862,1.501c0.806,0.167 5.197,1.084 5.864,1.389c0.667,0.306 1.993,0.891 2.243,1.058c0.25,0.167 0.021,0.542 0.688,0.375c0.667,-0.166 0.729,-0.146 1.646,-0.417c0.917,-0.27 0.813,-0.333 2.71,-0.562c1.897,-0.23 2.459,-0.188 3.043,-0.209c0.584,-0.021 3.127,0.167 4.356,0.146c1.23,-0.021 1.439,-0.208 2.668,0c1.23,0.209 2.418,0.25 3.439,0.334c1.022,0.083 1.314,-0.021 2.543,0.146c1.23,0.166 3.606,1.875 4.398,2.355c0.792,0.479 0.792,0.125 1.543,1.271c0.75,1.147 0.792,0.938 1.521,1.835c0.73,0.896 0.48,0.604 1.042,1.313c0.563,0.708 0.938,0.75 1.167,1.646c0.23,0.896 0.167,2.001 0.313,2.293c0.146,0.292 0.792,1.396 0.792,1.396c-25.212,14.831 -48.17,11.62 -69.84,-1.886c0,0 -0.263,-0.505 -0.263,-0.922Z" style="fill:#7d7d76;"/></g></g></svg>