<?xml version="1.0" encoding="UTF-8" standalone="no"?><!DOCTYPE svg PUBLIC "-//W3C//DTD SVG 1.1//EN" "http://www.w3.org/Graphics/SVG/1.1/DTD/svg11.dtd"><svg width="100%" height="100%" viewBox="0 0 150 150" version="1.1" xmlns="http://www.w3.org/2000/svg" xmlns:xlink="http://www.w3.org/1999/xlink" xml:space="preserve" xmlns:serif="http://www.serif.com/" style="fill-rule:evenodd;clip-rule:evenodd;stroke-linejoin:round;stroke-miterlimit:2;"><path id="base" d="M150,75c0,-41.394 -33.606,-75 -75,-75c-41.394,0 -75,33.606 -75,75c0,41.394 33.606,75 75,75c41.394,0 75,-33.606 75,-75Z" style="fill:#72380a;"/><path id="outline" d="M144,75c0,-38.082 -30.918,-69 -69,-69c-38.082,0 -69,30.918 -69,69c0,38.082 30.918,69 69,69c38.082,0 69,-30.918 69,-69Z" style="fill:#140100;"/><path id="core" d="M141,75c0,-36.426 -29.574,-66 -66,-66c-36.426,0 -66,29.574 -66,66c0,36.426 29.574,66 66,66c36.426,0 66,-29.574 66,-66Z" style="fill:#faecc3;"/><clipPath id="_clip1"><path d="M141,75c0,-36.426 -29.574,-66 -66,-66c-36.426,0 -66,29.574 -66,66c0,36.426 29.574,66 66,66c36.426,0 66,-29.574 66,-66Z"/></clipPath><g clip-path="url(#_clip1)"><g id="bataille-lizaine"><path d="M8.536,71.354c2.863,0.127 4.049,0.062 7.038,0.436c2.99,0.374 5.17,0.062 7.91,0.872c2.741,0.81 2.928,1.184 4.547,1.744c1.619,0.561 2.118,1.121 3.114,1.869c0.997,0.747 2.865,-0.561 3.114,0.747c0.249,1.308 -1.993,2.616 -2.491,4.235c-0.498,1.62 -1.869,3.675 -1.246,5.107c0.623,1.433 0.312,1.433 2.865,3.239c2.554,1.806 4.049,2.492 6.353,3.364c2.305,0.871 1.744,1.743 5.917,0.685c4.173,-1.059 4.858,-1.744 8.471,-1.869c3.612,-0.124 4.796,-0.81 9.093,-0.996c4.298,-0.187 19.557,-0.623 23.294,-1.246c3.737,-0.623 5.606,-0.623 8.346,-0.747c2.741,-0.125 7.163,-0.187 7.163,-0.187c-0,-0 11.522,0.311 12.394,-1.682c0.872,-1.993 -0.747,-1.246 2.491,-3.986c3.239,-2.741 11.274,-0.623 14.824,-1.619c3.55,-0.997 2.927,-1.744 6.851,-1.308c3.924,0.436 10.526,6.352 10.526,6.352c-22.467,75.914 -67.029,77.86 -119.522,53.253c-10.841,-0.692 -33.516,-68.813 -21.052,-68.263Z" style="fill:#feeadc;"/><path d="M82.45,140.739c0,0 -0.161,-0.529 -0.218,-0.863c-0.058,-0.334 -0.357,-0.506 -0,-0.828c0.356,-0.323 0.276,-0.323 0.897,-0.633c0.622,-0.311 1.335,-0.426 1.853,-0.967c0.518,-0.541 0.782,-0.874 0.932,-1.761c0.15,-0.886 0.219,-1.093 0.403,-1.668c0.184,-0.575 0.069,-2.083 -0.023,-2.958c-0.092,-0.874 -0.426,-0.621 -0.092,-1.219c0.333,-0.599 0.656,-1.669 1.3,-1.347c0.644,0.323 1.105,0.645 1.876,0.702c0.771,0.058 2.761,-0.241 2.451,-1.208c-0.311,-0.967 -0.794,-1.853 -0.978,-2.463c-0.184,-0.609 -0.23,-1.829 -0.23,-1.829l10.851,-8.481l-0.058,-0.679l-11.254,8.067c0,-0 -0.218,-0.093 -0.38,-0.564c-0.161,-0.472 -0.494,-0.415 -0.414,-1.082c0.081,-0.667 0.265,-0.817 0.23,-1.093c-0.034,-0.276 -0.54,-0.495 -0.54,-0.495c-0,-0 -1.531,-0.506 -1.934,-0.656c-0.403,-0.15 -0.529,-0.38 -0.356,-0.759c0.172,-0.38 0.184,-0.668 0.54,-0.91c0.357,-0.241 6.145,-3.866 6.145,-3.866l-0.149,-0.61l-8.608,4.971l-0.506,0.092c-0,0 -0.61,-0.379 -0.771,-0.897c-0.161,-0.518 -0.173,-1.024 -0.288,-1.324c-0.115,-0.299 -0.564,-0.702 -0.564,-0.702c0,0 -1.415,0.679 -1.76,0.679c-0.346,0 -0.239,0.358 -0.317,0.812c-0.079,0.455 -0.392,0.517 -0.392,0.517c-0,0 -0.611,0.063 -1.175,0.126c-0.565,0.062 -0.674,0.094 -0.862,0.094c-0.188,-0 -0.282,-0.047 -0.282,-0.047c-0,-0 0.673,-0.173 0.924,-0.345c0.251,-0.172 0.345,-0.423 0.517,-0.768c0.173,-0.345 -0.031,-0.345 -0.282,-0.392c-0.25,-0.047 -0.533,-0.36 -0.282,-0.595c0.251,-0.235 0.392,-0.188 0.392,-0.188l8.776,-2.993l-0.878,-0.408l-8.776,2.774l-0.799,-0.314l0.079,0.377l-1.191,0.188c-0,-0 -0.768,-0.486 -0.862,-0.706c-0.094,-0.219 -0.079,-0.924 -0.094,-1.112c-0.016,-0.188 -0.126,-0.345 -0.126,-0.345c0,0 -0.329,0.266 -0.94,0.235c-0.611,-0.031 -1.003,-0.047 -1.175,0.141c-0.173,0.188 -0.392,0.376 -0.564,0.564c-0.173,0.188 -0.236,0.408 -1.097,0.329c-0.862,-0.078 -1.458,-0.125 -1.615,-0.36c-0.156,-0.235 -0.705,-0.266 -0.282,-0.58c0.423,-0.313 11.205,-11.142 11.205,-11.142l-0.548,0.063l-11.252,10.766c-0,-0 -0.47,0.501 -0.752,0.47c-0.282,-0.032 -0.392,-0.251 -0.549,-0.705c-0.157,-0.455 -0.125,-0.596 -0.345,-0.847c-0.219,-0.25 -0.078,-0.407 -0.485,-0.454c-0.408,-0.047 -0.612,-0.219 -1.082,-0.063c-0.47,0.157 -0.971,0.439 -1.112,0.502c-0.141,0.062 -0.361,-0.094 -0.361,-0.094l-0.047,-0.329l13.806,-9.309l-0.47,-0.078l-13.571,8.415c0,0 -0.287,-0.752 -0.644,-1.092c-0.357,-0.339 -0.425,-0.662 -0.748,-0.815c-0.322,-0.153 -0.441,-0.459 -0.985,-0.374c-0.544,0.085 -0.816,0.442 -1.444,0.544c-0.629,0.102 -0.765,0.136 -1.682,0.221c-0.918,0.085 -1.071,0.068 -1.071,0.068l0.051,-0.697l6.27,-4.485l-0.51,-0.136l-6.626,4.485c-0,0 -0.561,0.323 -0.9,0.442c-0.34,0.119 -1.02,0.102 -0.646,-0.221c0.374,-0.323 0.595,-0.119 0.527,-0.255c-0.068,-0.136 -0.306,-1.665 -0.357,-2.056c-0.051,-0.39 -0.646,-1.036 -0.952,-0.968c-0.305,0.068 -1.104,0.119 -1.274,0.493c-0.17,0.373 -1.189,1.869 -1.138,2.089c0.051,0.221 -0.408,0.272 -0.799,0.102c-0.391,-0.17 -2.208,-0.204 -1.954,-0.594c0.255,-0.391 0.68,-0.782 0.969,-0.969c0.289,-0.187 0.611,0.102 0.849,-0.255c0.238,-0.356 0.663,-0.849 0.663,-0.849l7,-4.01l-1.071,-0.102l-8.002,4.622c0,-0 -0.221,-0.204 -0.153,-0.578c0.068,-0.374 0.085,-0.408 0.221,-0.883c0.136,-0.476 0.612,-0.714 0.221,-0.799c-0.391,-0.085 -0.782,-0.255 -1.07,-0.306c-0.289,-0.051 -0.969,0.102 -1.411,0.425c-0.441,0.323 -0.781,0.764 -0.968,0.917c-0.187,0.153 0.204,0.646 -0.493,0.714c-0.696,0.068 -1.529,0.017 -2.072,0.017c-0.544,-0 -0.816,-0.068 -1.343,-0.034c-0.526,0.034 -1.665,0.646 -0.781,-0.34c0.883,-0.985 2.242,-1.733 2.633,-1.954c0.391,-0.221 1.19,-0.594 1.19,-0.594l9.242,-2.651l-1.155,-0.102l-8.053,1.988c-0,0 -0.833,-0.204 -0.867,-0.629c-0.034,-0.424 -0.323,-0.917 -0.153,-1.138c0.17,-0.221 0.238,-0.272 0.527,-0.442c0.289,-0.169 1.997,-0.865 1.997,-0.865c0,-0 -0.193,-0.193 -0.633,-0.193c-0.441,0 -1.184,0.413 -1.817,0.303c-0.634,-0.11 -0.441,-0.275 -1.35,-0.055c-0.908,0.22 -0.963,0.798 -1.321,0.275c-0.358,-0.523 0.303,-0.936 -0.221,-1.101c-0.523,-0.165 -0.688,-0.193 -0.688,-0.193c0,0 -0.633,-0.385 -0.358,-0.55c0.276,-0.166 4.764,-4.846 4.764,-4.846l-5.37,4.983l0.056,-0.716c-0,0 0.578,0.028 0.192,-0.192c-0.385,-0.221 -0.826,-0.331 -0.826,-0.331c0,0 0.578,-0.798 -0.385,-0.385c-0.964,0.413 -0.634,0.082 -1.102,0.495c-0.468,0.413 -0.468,0.689 -0.908,0.716c-0.441,0.028 -0.634,0 -0.634,0c0,0 -0.22,0.055 -0.578,-0.468c-0.358,-0.523 -0.385,-0.661 -0.853,-0.881c-0.468,-0.22 -0.468,0.083 -0.799,-0.385c-0.33,-0.469 -0.385,-0.634 -0.385,-0.634l-0.303,-0.771l2.836,-0.826l-0.441,-0.137l-2.836,0.936c0,-0 0.042,-0.09 0.021,-0.461c-0.021,-0.372 -0.193,-0.482 -0.186,-0.916c0.007,-0.434 0.289,-0.564 0.048,-0.688c-0.241,-0.124 -1.177,-0.145 -1.604,0.02c-0.426,0.166 -0.061,-0.006 -0.061,-0.006l2.836,-0.895l-0.062,-0.276l-3.38,1.005c-0,0 -0.2,-0.158 -0.09,-0.316c0.11,-0.159 0.145,-0.338 0.145,-0.338l2.939,-1.039l-3.084,0.771c0,-0 -0.289,-0.213 -0.282,-0.372c0.007,-0.158 0.028,-0.144 0.007,-0.213c-0.021,-0.069 -0.358,-0.158 -0.461,-0.179c-0.103,-0.021 -0.51,-0.014 -0.51,-0.014l2.664,-0.764l-2.822,0.544c0,-0 -0.089,-0.021 -0.227,-0.207c-0.138,-0.186 -0.207,-0.309 -0.269,-0.371c-0.062,-0.062 -0.275,-0.331 -0.275,-0.331l2.361,-0.764l-2.505,0.331c-0,-0 0.452,0.159 -0.121,0.268c-0.574,0.11 -0.574,0.314 -0.82,-0.041c-0.246,-0.355 -0.437,-0.327 -0.355,-0.559c0.082,-0.233 0.232,-0.656 0.232,-0.656l2.117,-0.491c-0,-0 -2.294,0.327 -2.54,0.232c-0.246,-0.096 -0.205,-0.137 -0.396,-0.314c-0.191,-0.178 -0.573,-0.205 -0.56,-0.355c0.014,-0.151 2.595,-0.724 2.595,-0.724c-0,-0 -1.953,-0.055 -2.267,-0.137c-0.314,-0.082 -0.423,-0.013 -0.546,-0.232c-0.123,-0.218 -0.437,-0.232 -0.137,-0.328c0.301,-0.095 3.236,-0.355 3.236,-0.355l-2.935,-0.109c-0,0 -0.123,-0.068 -0.069,-0.191c0.055,-0.123 -0.177,-0.137 0.096,-0.232c0.273,-0.096 0.341,-0.137 0.519,-0.123c0.177,0.014 1.038,-0.109 1.038,-0.109l-0.233,-0.383c0,0 -0.314,-0.109 -0.177,-0.314c0.136,-0.205 -0.096,-0.082 0.218,-0.259c0.314,-0.178 0.492,-0.301 0.492,-0.301c-0,0 -0,0.069 0.218,-0.068c0.219,-0.136 0.383,-0.246 0.533,-0.41c0.15,-0.163 0.655,-0.559 0.806,-0.655c0.15,-0.096 0.682,-0.355 0.682,-0.355c0,-0 0.465,-0.123 0,-0.369c-0.464,-0.246 -0.546,-0.341 -0.873,-0.328c-0.328,0.014 -0.902,0.615 -1.27,0.711c-0.369,0.095 -0.096,-0.041 -0.642,0.177c-0.546,0.219 -0.41,0.164 -1.038,0.41c-0.628,0.246 -0.792,0.287 -1.243,0.464c-0.45,0.178 -0.409,0.205 -1.119,0.451c-0.711,0.245 -0.588,0.314 -1.298,0.505c-0.71,0.191 -1.543,0.573 -1.98,0.819c-0.437,0.246 -0.956,0.055 -1.201,0.069c-0.246,0.013 -0.383,0.314 -0.383,0.314c0,-0 0.888,0.273 0.847,0.409c-0.041,0.137 -0.096,0.369 -0.615,0.219c-0.519,-0.15 -0.846,-0.342 -0.969,-0.191c-0.123,0.15 -0.615,0.423 -0.246,0.546c0.369,0.123 1.407,0.082 1.229,0.259c-0.177,0.178 -1.174,0.123 -1.475,0.164c-0.3,0.041 -0.86,0.273 -0.764,0.369c0.095,0.095 1.147,0.3 1.461,0.287c0.314,-0.014 0.874,-0.055 0.696,0.095c-0.177,0.15 -1.365,0.41 -1.912,0.342c-0.546,-0.069 -1.065,0.204 -1.065,0.204c0,0 -0.027,0.424 0.232,0.506c0.26,0.082 1.106,0.382 1.106,0.382c0,-0 0.123,0.341 -0.122,0.437c-0.246,0.096 -1.052,0.041 -1.352,-0c-0.301,-0.041 -1.079,-0 -1.175,0.205c-0.095,0.205 -0.764,0.573 -0.191,0.587c0.574,0.014 1.229,-0.096 1.393,0.014c0.164,0.109 0.956,0.355 0.751,0.437c-0.205,0.082 -1.092,0.191 -1.447,0.245c-0.355,0.055 -0.902,0.792 -0.779,0.847c0.123,0.055 1.216,-0.205 1.448,-0.191c0.232,0.013 0.546,-0.041 0.628,0.095c0.082,0.137 0.232,0.615 -0.028,0.547c-0.259,-0.069 -0.573,-0.314 -0.6,0.136c-0.028,0.451 -0.738,0.874 -0,1.093c0.737,0.218 0.887,-0.11 1.078,0.054c0.192,0.164 0.902,0.069 0.301,0.56c-0.601,0.492 -0.792,0.574 -1.106,0.683c-0.314,0.109 -1.079,0.396 -0.492,0.573c0.587,0.178 0.819,0.041 1.011,0.178c0.191,0.136 0.655,0.41 0.273,0.642c-0.383,0.232 -0.546,0.027 -0.683,0.409c-0.137,0.383 -0.205,0.533 0.546,0.656c0.751,0.123 1.229,-0 1.694,0.054c0.464,0.055 1.078,-0.505 1.119,0.123c0.041,0.629 -0.191,0.451 -0.819,0.56c-0.628,0.11 -0.97,-0.341 -0.806,0.273c0.164,0.615 0.41,0.929 0.109,1.27c-0.3,0.342 -0.6,0.669 -0.477,0.888c0.122,0.218 0.368,0.833 0.505,1.024c0.136,0.191 0.778,-0.164 0.997,-0.341c0.218,-0.178 0.232,-0.56 0.655,-0.424c0.423,0.137 1.12,0.123 1.12,0.123c-0,0 0.942,0.724 0.806,0.847c-0.137,0.123 -0.342,0.177 -0.574,0.492c-0.232,0.314 -0.464,0.396 -0.478,0.819c-0.014,0.423 0.027,0.765 0.041,1.106c0.014,0.341 0.191,0.451 0.492,0.027c0.3,-0.423 0.764,-0.983 0.764,-0.983c0,0 0.935,-0.018 0.584,0.479c-0.352,0.496 -0.412,0.399 -0.364,0.751c0.049,0.351 -0.085,0.254 0.121,0.509c0.206,0.254 0.327,0.206 0.8,0.521c0.473,0.315 1.745,0.8 2.036,0.933c0.291,0.133 0.618,0.133 0.763,0.412c0.146,0.279 -0.206,0.158 0.364,0.57c0.57,0.412 0.654,-0.085 0.642,0.072c-0.012,0.158 -0.036,0.594 0.097,0.824c0.134,0.231 0.158,0.231 0.703,0.509c0.545,0.279 1.006,0.231 0.97,0.461c-0.037,0.23 -0.146,1.163 0.024,1.454c0.169,0.291 0.4,0.436 0.545,0.243c0.146,-0.194 0.618,-1.018 0.642,-0.715c0.025,0.302 -0.048,0.763 -0.23,0.981c-0.182,0.218 -0.303,0.158 -0.218,0.703c0.085,0.545 0.085,0.848 0.448,0.885c0.364,0.036 0.376,-0.182 0.558,0.048c0.182,0.23 0.582,0.764 0.509,1.139c-0.073,0.376 -0.291,0.291 -0.049,0.727c0.243,0.437 0.243,0.97 0.667,1.067c0.424,0.097 0.557,0.23 0.666,0.024c0.109,-0.206 0.158,-0.606 0.485,-0.63c0.327,-0.024 1.769,0.06 2.121,0.157c0.351,0.097 0.594,0.291 0.739,0.679c0.146,0.388 0.533,0.303 0.655,0.57c0.121,0.266 1.078,0.424 0.824,0.618c-0.255,0.194 -1.261,0.763 -1.091,1.018c0.17,0.254 0.824,0.303 1.175,0.375c0.352,0.073 3.115,-0.169 3.563,-0.072c0.449,0.096 0.497,0.351 0.485,0.86c-0.012,0.509 -0.024,1.309 0.073,1.612c0.097,0.303 0.945,0.654 0.945,0.654c-0,0 0.618,-0.715 1.066,-0.654c0.449,0.06 0.727,-0.424 0.679,0.133c-0.048,0.557 0.763,1.066 0.909,1.285c0.145,0.218 0.666,0.351 0.836,-0.049c0.17,-0.4 -0.703,-0.703 0.145,-0.594c0.849,0.109 1.964,-0.012 2.412,0.085c0.448,0.097 2.496,0.4 2.593,0.715c0.097,0.315 -0.121,0.533 -0.278,0.691c-0.158,0.157 -1.139,0.472 -0.897,1.163c0.242,0.691 0.157,0.958 0.557,0.824c0.4,-0.133 1.055,-0.521 1.527,-0.775c0.473,-0.255 3.284,-0.485 3.406,-0.424c0.121,0.06 0.496,-0.049 0.715,0.315c0.218,0.363 1.236,0.775 0.933,1.042c-0.303,0.266 -0.618,0.339 -0.788,0.715c-0.17,0.376 -0.255,0.751 0.109,1.151c0.364,0.4 0.182,0.497 0.533,0.945c0.352,0.449 1.503,0.764 1.539,0.618c0.037,-0.145 0.134,-0.545 0.218,-0.896c0.085,-0.352 2.279,-0.461 2.836,-0.437c0.558,0.025 1.054,-0.024 1.636,-0.194c0.582,-0.169 2.509,-0.775 2.969,-0.86c0.461,-0.085 1.054,0.206 1.721,0.267c0.667,0.06 2.08,0.447 2.39,-0.195c0.31,-0.642 0.553,-1.107 0.31,-1.55c-0.244,-0.443 -0.576,-0.531 -0.399,-1.041c0.177,-0.509 0.111,-0.93 0.664,-1.284c0.554,-0.354 0.465,-0.642 1.196,-0.842c0.731,-0.199 0.421,-0.553 1.373,-0.287c0.952,0.265 1.993,0.664 2.259,0.62c0.266,-0.045 0.487,-0.045 0.088,0.62c-0.398,0.664 -0.376,1.085 -0.376,1.505c-0,0.421 1.019,0.023 -0.089,0.466c-1.107,0.442 -1.594,0.62 -2.524,1.062c-0.93,0.443 -0.952,0.377 -1.417,0.908c-0.465,0.532 -0.488,0.488 -0.975,0.997c-0.487,0.509 0.155,0.443 -0.974,0.775c-1.129,0.332 -1.284,0.376 -2.502,0.819c-1.218,0.443 -0.598,0.421 -0.953,0.864c-0.354,0.443 -0.708,0.531 -1.461,0.797c-0.753,0.266 -1.528,0.354 -2.502,0.664c-0.975,0.31 -1.506,0.665 -2.038,1.307c-0.531,0.642 -0.398,1.019 -0.155,0.974c0.244,-0.044 1.174,-0.066 1.683,-0.288c0.51,-0.221 1.506,-0.531 1.949,-0.553c0.443,-0.022 1.329,-0.022 2.126,0.022c0.797,0.044 1.661,0.133 2.104,0.044c0.442,-0.088 0.907,-0.31 1.129,-0.288c0.221,0.023 2.015,0.288 2.369,0.31c0.355,0.023 1.351,-0.132 1.418,0.31c0.066,0.443 0.088,0.399 0.022,0.931c-0.067,0.531 -0.31,0.885 0.221,1.04c0.532,0.155 0.687,-0.044 0.886,0.222c0.199,0.265 0.465,0.398 0.221,0.553c-0.243,0.155 -1.151,1.75 -1.771,2.259c-0.62,0.509 -0.421,0.576 -1.019,0.886c-0.598,0.31 -0.863,0.288 -1.838,0.952c-0.974,0.664 -0.531,0.487 -1.351,0.93c-0.819,0.443 -1.306,0.62 -1.373,0.975c-0.066,0.354 0.133,1.107 0.133,1.107c0,-0 0.864,0.177 1.174,-0.2c0.31,-0.376 0.62,-0.664 0.62,-0.664c0,0 0.332,0 0.864,-0.177c0.531,-0.177 0.952,-0.443 1.284,-0.576c0.332,-0.133 0.288,-0.155 0.731,-0.266c0.443,-0.11 0.553,-0.11 1.173,-0.42c0.621,-0.31 0.776,-0.51 1.063,-0.532c0.288,-0.022 1.263,0.177 1.683,0.222c0.421,0.044 0.51,-0.022 1.108,-0.022c0.598,-0 0.465,-0.178 1.262,0.044c0.797,0.221 0.686,0.111 1.151,0.31c0.465,0.199 0.886,0.266 0.753,0.531c-0.133,0.266 -0.42,0.443 -0.332,0.82c0.089,0.376 0.222,0.465 0.288,0.686c0.066,0.222 0.465,0.487 0.465,0.487l2.785,-0.363Zm7.025,-0.899c0,0 0.022,-0.576 0.487,-0.819c0.465,-0.244 0.554,-0.155 0.93,-0.177c0.377,-0.023 0.797,0.31 0.797,-0.133c0,-0.443 -0.044,-0.598 0.178,-0.864c0.221,-0.266 1.55,-1.218 1.66,-1.506c0.111,-0.288 -0.31,-0.133 0.111,-0.686c0.421,-0.554 0.244,-1.13 0.62,-0.709c0.377,0.421 0.532,0.93 0.775,0.82c0.244,-0.111 0.487,-0.2 0.31,-0.621c-0.177,-0.42 -0.575,-0.31 -0.221,-0.996c0.354,-0.687 0.332,-0.842 0.642,-1.329c0.31,-0.487 0.421,-0.908 0.842,-1.24c0.42,-0.332 0.642,-0.354 1.018,-0.686c0.377,-0.332 0.222,-0.731 0.598,-0.93c0.377,-0.2 0.598,-0.355 1.041,-0.355c0.443,0 0.996,0.333 0.996,0.333c0,-0 0.155,0.243 0.399,0.199c0.244,-0.044 0.487,-0.31 0.642,-0.62c0.155,-0.31 0.532,-0.908 0.709,-1.24c0.177,-0.332 0.354,-0.731 0.62,-0.775c0.266,-0.045 1.329,-0.244 1.594,-0.178c0.266,0.067 0.642,0.155 0.687,0.443c0.044,0.288 0.221,0.953 0.421,1.263c0.199,0.31 0.775,0.575 0.708,0.908c-0.066,0.332 -0.354,0.42 -0.044,0.509c0.31,0.088 0.221,0.266 0.686,-0.133c0.465,-0.399 0.798,-0.731 0.798,-0.731l12.511,-6.112l-0.354,1.085l-11.072,5.514c-0,0 -0.421,0.82 -0.576,1.595c-0.155,0.775 -0.188,0.863 -0.177,1.129c0.104,2.603 -18.086,9.041 -18.336,7.042Z" style="fill:#323345;"/><path d="M97.303,104.987c-0,-0 -0,-0.235 0.078,-0.58c0.078,-0.345 0,-0.423 0.235,-0.58c0.235,-0.157 0.345,-0.047 0.517,-0.282c0.173,-0.235 0.486,-1.081 0.502,-1.395c0.015,-0.313 0.25,-0.924 0.25,-0.924c0,-0 0.204,-0.392 0.126,-0.58c-0.079,-0.188 -0.298,0.016 -0.173,-0.486c0.126,-0.501 0.251,-0.705 0.439,-0.971c0.188,-0.266 0.392,-0.658 0.329,-0.815c-0.063,-0.157 0.439,-0.329 -0.392,-0.768c-0.83,-0.439 -0.705,-0.783 -0.846,-0.721c-0.141,0.063 -0.533,0.267 -0.674,0.471c-0.141,0.203 -0.094,0.235 -0.094,0.517c0,0.282 -0.078,1.128 -0.203,1.065c-0.126,-0.063 -0.173,-0.407 -0.22,-0.721c-0.047,-0.313 -0.219,-0.015 -0.172,-0.548c0.047,-0.533 0.36,-1.16 0.376,-1.442c0.016,-0.282 0.031,-0.579 0.031,-0.579c0,-0 -0.987,0.172 -1.488,0.297c-0.502,0.126 -0.611,0.11 -1.379,0.204c-0.768,0.094 -0.674,-0.047 -0.611,-0.345c0.062,-0.297 0.156,-0.454 0.156,-0.454c0,-0 0.235,0.266 0.329,0.407c0.094,0.141 0.518,0.11 0.549,-0.062c0.031,-0.173 0.47,-0.721 0.078,-0.596c-0.391,0.125 -0.752,-0.078 -1.316,0.047c-0.564,0.125 -0.925,0.219 -1.081,0.188c-0.157,-0.031 -0.235,-0.345 -0.204,-0.517c0.031,-0.172 0.157,-0.392 0.157,-0.392l0.329,0.408c-0,-0 0.486,-0.361 0.674,-0.455c0.188,-0.094 0.658,-0.235 1.128,-0.235c0.47,0 0.752,-0.015 1.097,-0.015c0.344,-0 1.316,0.109 0.956,-0.016c-0.361,-0.125 -2.241,-1.959 -2.241,-1.959l2.726,2.178c0,0 0.47,0.752 0.486,0.596c0.016,-0.157 -0.078,-0.58 -0.172,-0.94c-0.094,-0.361 -0.361,-0.549 -0.611,-0.862c-0.251,-0.314 -0.502,-0.549 -0.423,-0.737c0.078,-0.188 0.391,-0.219 0.642,0.251c0.251,0.47 0.595,0.846 0.595,0.846c0,0 0.173,0.031 0.189,-0.439c0.015,-0.47 -0.126,-0.955 0.297,-0.642c0.423,0.313 0.69,0.611 0.784,0.752c0.094,0.141 0.391,0.031 0.438,0.204c0.047,0.172 0.298,0.658 0.189,1.081c-0.11,0.423 -0.267,0.219 -0.283,0.548c-0.015,0.329 -0.094,0.549 0.11,1.191c0.204,0.643 0.298,1.097 0.439,1.52c0.141,0.423 -0.11,0.784 0.235,0.799c0.345,0.016 0.705,-0.203 0.439,-0.219c-0.267,-0.016 -0.627,-0.078 -0.345,-0.313c0.282,-0.235 0.125,0.094 0.345,-0.282c0.219,-0.376 0.015,-0.282 0.015,-0.972c0,-0.689 0.157,-1.238 0.157,-1.238c0,0 1.081,-0.376 0.862,-0.658c-0.219,-0.282 -0.862,-0.141 -0.987,-0.235c-0.126,-0.094 -0.455,-0.157 -0.11,-0.486c0.345,-0.329 0.846,-0.407 0.94,-0.752c0.094,-0.345 -0.125,-0.392 0.173,-0.705c0.297,-0.313 0.924,-0.533 0.94,-0.11c0.015,0.423 -0.032,0.721 0.219,0.893c0.251,0.173 0.502,-0.109 0.705,0.424c0.204,0.532 0.658,0.877 0.752,1.175c0.094,0.297 -0.282,0.25 -0.109,0.815c0.172,0.564 0.517,1.426 0.344,1.708c-0.172,0.282 -0.752,0.125 -0.689,0.517c0.063,0.391 0.313,0.658 0.58,0.862c0.266,0.203 0.407,0.767 0.172,0.783c-0.235,0.016 -0.454,0.078 -0.486,-0.078c-0.031,-0.157 0.69,-0.079 0.235,-0.345c-0.454,-0.266 -0.517,-0.47 -0.783,-0.643c-0.266,-0.172 -0.549,-0.924 -0.549,-0.924c0,-0 -0.109,0.768 0,1.159c0.11,0.392 0.721,0.784 0.283,0.862c-0.439,0.079 -1.066,-0.109 -1.066,-0.109c0,-0 -0.204,-0.173 -0.141,0.329c0.063,0.501 0.188,0.674 -0.125,0.877c-0.314,0.204 -1.176,0.314 -1.176,0.314c0,-0 -0.125,0.329 0.047,0.689c0.173,0.36 0.627,0.752 0.533,1.113c-0.094,0.36 -0.329,0.861 -0.407,1.175c-0.079,0.313 0.031,0.877 -0.016,1.018c-0.047,0.141 -0.705,-0.109 -0.705,-0.109c-0,-0 0.376,-0.799 0.313,-0.987c-0.062,-0.189 -0.031,-1.097 -0.203,-1.223c-0.173,-0.125 -0.235,-0.674 -0.517,-0.109c-0.283,0.564 -0.063,1.175 -0.8,1.269c-0.736,0.094 -0.908,0.078 -1.002,0.266c-0.095,0.188 -0.314,0.674 -0.721,0.737Zm26.744,-0.338c0.073,0.004 0.22,-0.035 0.255,-0.383c0.047,-0.47 -0.69,-1.05 -0.925,-1.379c-0.235,-0.329 -0.376,-1.113 -0.36,-1.504c0.015,-0.392 0.109,-0.408 0.595,-1.16c0.486,-0.752 0.016,-0.517 -0.031,-0.94c-0.047,-0.423 -0.361,-0.439 -0.658,-0.455c-0.298,-0.015 -1.034,-0.078 -1.505,-0.235c-0.47,-0.156 -0.457,-0.825 -0.219,-0.814c0.36,0.015 1.661,0.235 1.99,-0.094c0.329,-0.329 0.329,-0.909 0.94,-0.831c0.611,0.078 0.267,0.768 0.705,0.893c0.439,0.126 1.035,-0.172 1.317,-0.282c0.282,-0.109 1.206,0.141 1.708,0.094c0.501,-0.047 -0.376,-0.266 -0.251,-0.439c0.125,-0.172 0.11,-0.799 0.282,-0.987c0.172,-0.188 0.893,-0.219 1.316,-0.266c0.423,-0.047 0.016,0.846 0.016,0.846c-0,0 0.439,-0.141 0.94,-0.031c0.502,0.109 -0.454,1.316 -0.611,1.849c-0.157,0.533 0,1.05 0.031,1.504c0.032,0.454 0.251,1.191 0.314,1.724c0.062,0.532 -0.188,1.943 -0.173,2.131c0.016,0.188 -0.626,0.454 -0.799,0.282c-0.172,-0.172 0.188,-0.909 0.063,-1.551c-0.125,-0.643 -0.627,-0.627 -0.564,-0.032c0.062,0.596 0.031,0.831 0.094,1.254c0.063,0.423 -0.423,0.736 -0.611,0.815c-0.188,0.078 -0.862,-0 -0.987,-0.063c-0.126,-0.063 -0.251,-0.172 -0.471,-0.517c-0.219,-0.345 -0.235,-0.392 -0.564,-1.003c-0.329,-0.611 -0.658,-0.282 -0.862,-0.548c-0.203,-0.267 -0.376,-0.941 -0.564,-1.019c-0.188,-0.078 -0.282,0.313 -0.266,0.752c0.016,0.439 0.141,0.862 0.298,1.379c0.156,0.517 0.141,1.113 0.141,1.113l-0.584,-0.103c-0.026,-0.001 -0.043,-0.007 -0.043,-0.007l0.043,0.007Zm-17.17,-0.54c0.122,-0.128 0.298,-0.235 0.611,-0.47c0.313,-0.235 0.298,-0.313 0.658,-0.517c0.361,-0.204 1.316,-0.47 1.066,-0.721c-0.251,-0.251 -0.846,-0.219 -1.426,0.11c-0.58,0.329 -0.408,0.658 -0.705,0.548c-0.298,-0.109 -0.721,-0.423 -0.423,-0.47c0.297,-0.047 0.376,0.173 0.532,-0.094c0.157,-0.266 0.11,-0.407 0.486,-0.627c0.376,-0.219 0.533,-0.297 0.878,-0.36c0.344,-0.063 0.532,-0.11 1.065,-0.219c0.533,-0.11 1.097,-0.079 1.316,-0.267c0.22,-0.188 0.361,-0.391 0.564,-0.548c0.204,-0.157 0.345,-0.658 0.815,-0.643c0.47,0.016 1.16,0.314 1.16,0.58c-0,0.267 -0.235,0.486 0.063,0.549c0.297,0.062 1.081,0.689 1.222,0.846c0.141,0.156 0.752,0.047 0.439,0.297c-0.314,0.251 -0.612,0.204 -1.113,0.11c-0.501,-0.094 -0.627,-0.063 -1.128,0.016c-0.502,0.078 -0.423,-0 -1.144,0.251c-0.721,0.25 -0.517,0.172 -1.457,0.548c-0.941,0.376 -1.082,0.329 -1.661,0.658c-0.58,0.329 -0.627,0.329 -0.956,0.47c-0.329,0.141 -1.175,0.282 -0.862,-0.047Zm20.516,0.058c-0.284,-0.069 -0.408,-0.329 -0.488,-0.601c-0.079,-0.272 -0.362,-0.079 -0.102,-0.657c0.261,-0.578 0.794,-0.272 0.227,-0.77c-0.567,-0.499 -0.759,-0.102 -0.782,-0.862c-0.023,-0.759 0.147,-0.861 -0.306,-1.212c-0.453,-0.351 -0.623,-0.249 -0.521,-0.635c0.102,-0.385 0.385,-0.68 0.6,-0.782c0.216,-0.102 0.941,-0.623 0.964,-0.317c0.022,0.306 -0.25,0.51 -0.295,0.737c-0.045,0.226 0.249,-0.012 0.465,0.26c0.215,0.272 0.317,0.136 0.249,0.646c-0.068,0.51 -0.045,0.997 -0.068,1.428c-0.023,0.431 0.17,0.816 0.227,1.111c0.056,0.294 0.249,1.756 -0.17,1.654Zm3.987,-1.333c-0.119,-0.881 -0.25,-1.249 -0.079,-1.723c0.171,-0.473 0.46,0 0.302,-0.854c-0.157,-0.855 -0.447,-0.75 -0.21,-1.249c0.237,-0.5 0.302,-0.632 0.776,-1.026c0.473,-0.395 0.539,-0.855 0.986,-0.552c0.447,0.302 0.815,-0.132 0.96,-0.237c0.144,-0.105 0.631,-0.447 0.762,-0.026c0.132,0.42 0.185,0.342 0,0.644c-0.184,0.302 -0.184,0.21 -0.368,0.736c-0.184,0.526 0.027,0.592 -0.328,0.96c-0.355,0.368 -0.342,0.513 -0.842,1.065c-0.5,0.553 -0.539,0.355 -0.605,0.802c-0.066,0.447 0.197,0.526 -0.302,0.987c-0.5,0.46 -0.671,1.249 -0.921,1.249c-0.25,-0 -0.013,0.105 -0.131,-0.776Zm-33.294,-2.015c-0.045,-0.17 -0.58,-0.612 -1.316,-0.455c-0.737,0.157 -0.737,-0.031 -0.721,-0.251c0.016,-0.219 -0.329,-1.096 -0.47,-1.128c-0.141,-0.031 -0.799,0.063 -1.128,0.298c-0.329,0.235 -1.144,0.705 -1.473,0.909c-0.329,0.203 -1.426,0.783 -1.677,0.956c-0.251,0.172 -0.486,0.564 0.094,0.47c0.58,-0.094 1.458,-0.596 1.661,-0.627c0.204,-0.031 0.58,-0.047 0.251,0.36c-0.329,0.408 -0.69,0.752 -0.282,0.705c0.407,-0.047 0.924,-0.047 1.269,-0.36c0.345,-0.313 0.439,-0.705 0.721,-0.501c0.282,0.203 -0.016,0.454 0.517,0.454c0.533,0 1.254,-0.063 1.567,-0.266c0.313,-0.204 1.05,-0.329 0.987,-0.564Zm11.674,-0.11c-0.031,-0.267 -0.125,-0.643 0.063,-0.94c0.188,-0.298 0.235,-0.204 0.423,-0.941c0.188,-0.736 0.047,-0.72 0.172,-1.472c0.126,-0.753 0.376,-0.737 0.204,-0.972c-0.172,-0.235 -0.266,-0.094 -0.282,-0.345c-0.016,-0.25 0.533,-0.705 0.313,-1.238c-0.219,-0.532 -0.344,-0.955 -0.517,-1.081c-0.172,-0.125 -0.486,0.298 -0.721,0.031c-0.235,-0.266 -0.532,-0.658 -0.532,-0.658l-0.58,0.439c-0,0 -0.376,0.549 -0.533,-0.094c-0.157,-0.642 -0.172,-0.83 -0.454,-0.783c-0.282,0.047 -0.862,-0.376 -0.721,0.109c0.141,0.486 0.392,0.564 0.063,0.596c-0.33,0.031 -0.533,0.141 -0.941,0.313c-0.407,0.173 -0.642,0.455 -0.642,0.455c-0,-0 -0.047,0.564 -0.721,-0.251c-0.674,-0.815 -1.348,-1.865 -1.348,-1.865c0,0 1.834,3.009 1.928,3.259c0.094,0.251 0.611,0.753 0.627,1.003c0.015,0.251 -0.063,0.361 -0.11,0.768c-0.047,0.408 -0.235,0.423 -0.094,0.752c0.141,0.329 0.313,0.22 0.141,0.564c-0.172,0.345 -0.172,0.267 -0.251,0.423c-0.078,0.157 0.016,0.549 0.329,0.157c0.314,-0.392 0.361,-0.345 0.455,-0.799c0.094,-0.454 -0.032,-0.501 0.25,-0.736c0.283,-0.236 0.189,-0.753 0.361,-0.298c0.172,0.454 0.454,0.674 0.454,0.674c0,-0 0.267,-0.282 0.267,0.141c-0,0.423 -0.032,0.407 -0.094,0.689c-0.063,0.282 -0.204,0.909 -0.267,1.16c-0.062,0.25 -0.454,0.548 -0.282,0.673c0.173,0.126 0.752,0.11 0.799,-0.094c0.047,-0.203 0.032,-0.454 0.298,-0.83c0.266,-0.376 0.376,-0.313 0.439,-0.674c0.063,-0.36 0.439,-0.454 0.658,-0.219c0.219,0.235 0.517,0.235 0.376,0.705c-0.141,0.47 0.125,1.034 -0.282,0.94c-0.407,-0.094 -0.125,0.408 0.11,0.455c0.235,0.047 0.673,0.25 0.642,-0.016Zm-8.291,-4.362c-0.008,0.101 -0.127,0.371 0.169,0.75c0.295,0.38 0.362,0.245 0.446,0.515c0.085,0.269 -0.168,0.615 0.051,0.843c0.219,0.227 0.582,0.067 0.354,0.396c-0.227,0.329 -0.615,0.7 -0.717,0.809c-0.101,0.11 -0.042,-0.278 0,-0.514c0.043,-0.236 0.237,-0.421 0.11,-0.632c-0.126,-0.211 -0.135,-0.439 -0.354,-0.413c-0.219,0.025 -0.725,0.295 -0.565,-0.043c0.16,-0.337 0.312,-1.652 0.464,-1.787c0.152,-0.135 0.05,-0.025 0.042,0.076Zm-13.411,2.826c-0.277,-0.042 -0.345,-0.156 -0.141,-0.611c0.203,-0.454 0.266,-0.674 0.47,-0.956c0.203,-0.282 0.36,-0.36 0.376,-0.705c0.015,-0.345 -0.094,-0.815 0.141,-0.924c0.235,-0.11 0.736,-0.094 0.83,0.015c0.094,0.11 -0.015,0.486 0.251,0.376c0.266,-0.109 0.877,-0.235 1.05,-0.438c0.172,-0.204 0.736,-0.831 0.736,-0.831c0,0 0.314,0.564 0.22,0.752c-0.094,0.188 -0.799,0.831 -1.05,0.956c-0.251,0.125 -0.799,0.486 -0.298,0.455c0.502,-0.032 0.752,-0 1.113,-0c0.36,-0 0.799,0.141 1.222,0.454c0.423,0.313 0.721,0.486 0.721,0.486c-0,-0 -0.329,0.282 -0.721,0.485c-0.392,0.204 -0.862,0.283 -1.05,0.094c-0.188,-0.188 -0.157,-0.407 -0.392,-0.391c-0.235,0.015 -0.078,-0.047 -0.517,0.25c-0.439,0.298 -0.674,0.721 -0.94,0.533c-0.266,-0.188 -0.909,-0.909 -0.909,-0.909c0,0 -0.047,-0.47 -0.204,-0.219c-0.156,0.251 -0.203,0.94 -0.485,0.987c-0.282,0.047 -0.22,0.173 -0.423,0.141Zm30.649,-7.338c0.292,-0.068 0.577,-0.104 0.878,0.13c0.423,0.329 0.721,0.721 1.003,1.066c0.282,0.344 0.188,0.736 0.251,1.081c0.062,0.345 0.673,0.815 0.877,1.316c0.204,0.502 0.549,0.705 0.69,1.191c0.141,0.486 0.047,0.987 -0.157,0.956c-0.204,-0.031 0.266,-0.157 -0.219,-0.58c-0.486,-0.423 -0.659,-0.548 -0.972,-0.736c-0.313,-0.188 -0.862,-0.752 -1.019,-0.251c-0.156,0.501 -0.047,0.376 -0.188,0.815c-0.141,0.439 -0.172,0.235 -0.109,0.752c0.062,0.517 0.094,1.144 -0.298,1.097c-0.392,-0.047 -0.533,-0.032 -0.501,-0.439c0.031,-0.407 0.109,-0.501 -0.032,-0.877c-0.141,-0.377 -0.313,-0.251 -0.141,-0.831c0.173,-0.58 0.956,-0.862 0.611,-1.018c-0.344,-0.157 -0.407,-0.298 -0.689,0.329c-0.282,0.626 -0.439,0.658 -0.345,1.128c0.094,0.47 0.549,1.05 0.298,1.159c-0.251,0.11 -0.345,0.47 -0.502,0.016c-0.156,-0.454 -0.36,-0.611 -0.564,-1.05c-0.203,-0.439 0.408,-1.128 -0.313,-0.627c-0.721,0.502 -0,0.611 -0.078,0.925c-0.079,0.313 -0,0.564 -0.235,0.658c-0.235,0.094 -0.737,0.141 -0.596,-0.219c0.141,-0.361 -0.486,-0.141 -0.486,-0.141c0,-0 -0.015,-0.235 -0.078,-0.706c-0.063,-0.47 -0.125,-0.454 -0.188,-0.877c-0.063,-0.423 0.172,-0.674 0.016,-0.925c-0.157,-0.25 -0.126,-0.094 -0.439,-0.767c-0.314,-0.674 -0.643,-0.847 -0.705,-1.129c-0.063,-0.282 0.047,-0.595 0.25,-0.658c0.204,-0.062 0.251,-0.454 0.188,-0.799c-0.062,-0.345 -0.219,-0.627 0.173,-0.486c0.392,0.141 0.736,0.705 0.909,0.611c0.172,-0.094 -0.016,-0.438 0.532,-0.391c0.549,0.047 0.518,-0.032 1.05,0.188c0.481,0.198 0.375,0.243 0.66,0.192c0.019,0.106 0.043,0.21 -0.026,0.48c-0.109,0.43 -0.092,0.337 -0.151,0.548c-0.059,0.211 0.75,0.278 0.801,0.126c0.05,-0.151 -0.026,-0.269 -0.127,-0.548c-0.096,-0.265 -0.055,-0.538 -0.029,-0.709Zm-5.641,5.787c-0.188,-0.251 -0.172,-0.455 -0.391,-0.752c-0.22,-0.298 -0.47,0.031 -0.329,-0.611c0.141,-0.643 0.266,-0.721 0.423,-1.066c0.156,-0.345 -0.11,-1.285 -0.11,-1.285c0,0 -0.235,0.376 -0.705,0.439c-0.47,0.063 -0.737,-0.172 -0.846,-0.392c-0.11,-0.219 -1.003,-1.551 -1.003,-1.551c-0,-0 1.128,1.144 1.269,1.3c0.141,0.157 0.643,0.236 0.784,-0.078c0.141,-0.313 0.219,-0.439 0.203,-0.736c-0.015,-0.298 -0.329,-0.643 -0.031,-0.799c0.298,-0.157 0.517,0.094 0.736,0.313c0.22,0.219 0.643,0.345 0.847,0.752c0.203,0.407 0.517,0.925 0.517,1.301c-0,0.376 0.297,0.297 0.36,1.002c0.063,0.706 0.188,1.066 0.235,1.411c0.047,0.345 0.063,0.783 -0.219,0.83c-0.282,0.047 -0.58,0.157 -0.47,-0.125c0.109,-0.282 0.062,-0.313 -0.141,-0.705c-0.204,-0.392 -0.157,-0.361 -0.345,-0.768c-0.188,-0.407 -0.376,-0.407 -0.486,0.063c-0.11,0.47 -0.141,0.564 -0.094,0.877c0.047,0.314 -0.016,0.831 -0.204,0.58Zm-4.801,-2.329c0.133,-0.052 0.219,0.363 0.185,0.675c-0.034,0.311 -0.177,0.919 -0.329,0.834c-0.152,-0.084 0.068,-0.556 0.068,-0.868c-0,-0.312 -0.118,-0.565 0.076,-0.641Zm14.658,1.342c-0,-0 0.329,-0.298 0.266,-0.643c-0.063,-0.344 -0.157,-0.407 -0.329,-0.924c-0.172,-0.517 -0.298,-0.502 -0.172,-0.972c0.125,-0.47 0.376,-0.909 0.266,-1.034c-0.11,-0.125 -0.768,-0.016 -0.909,-0.533c-0.141,-0.517 -0.298,-1.3 -0.298,-1.3c0,-0 0.424,-0.047 0.58,-0.392c0.157,-0.345 0.314,-0.768 0.486,-0.455c0.172,0.314 0.36,0.721 0.737,0.956c0.376,0.235 0.689,-0.344 0.908,-0.517c0.22,-0.172 0.47,-0.423 0.784,-0.391c0.313,0.031 0.627,0.219 0.846,0.423c0.219,0.203 0.564,0.235 0.376,0.83c-0.188,0.596 -0.454,1.128 -0.439,1.583c0.016,0.454 0.11,0.391 0.173,0.924c0.062,0.533 0.094,0.737 0.094,0.925c-0,0.188 0.219,0.658 -0.157,0.392c-0.376,-0.267 -0.407,-0.439 -0.799,-0.408c-0.392,0.031 -0.549,0.219 -0.909,-0.031c-0.36,-0.251 -0.454,-0.345 -0.454,-0.345c-0,0 -0.22,0.47 -0.251,0.705c-0.031,0.235 0.078,0.752 -0.094,0.893c-0.173,0.141 -0.705,0.314 -0.705,0.314Zm1.784,-3.38c-0.249,-0.431 -0.431,-0.397 -0.306,-0.692c0.125,-0.294 0.227,-0.929 0.272,-0.419c0.045,0.51 0.283,1.541 0.034,1.111Z" style="fill:#64130e;"/></g></g></svg>