<?xml version="1.0" encoding="UTF-8" standalone="no"?><!DOCTYPE svg PUBLIC "-//W3C//DTD SVG 1.1//EN" "http://www.w3.org/Graphics/SVG/1.1/DTD/svg11.dtd"><svg width="100%" height="100%" viewBox="0 0 150 150" version="1.1" xmlns="http://www.w3.org/2000/svg" xmlns:xlink="http://www.w3.org/1999/xlink" xml:space="preserve" xmlns:serif="http://www.serif.com/" style="fill-rule:evenodd;clip-rule:evenodd;stroke-linejoin:round;stroke-miterlimit:2;"><path id="base" d="M150,75c0,-41.394 -33.606,-75 -75,-75c-41.394,0 -75,33.606 -75,75c0,41.394 33.606,75 75,75c41.394,0 75,-33.606 75,-75Z" style="fill:#72380a;"/><path id="outline" d="M144,75c0,-38.082 -30.918,-69 -69,-69c-38.082,0 -69,30.918 -69,69c0,38.082 30.918,69 69,69c38.082,0 69,-30.918 69,-69Z" style="fill:#140100;"/><path id="core" d="M141,75c0,-36.426 -29.574,-66 -66,-66c-36.426,0 -66,29.574 -66,66c0,36.426 29.574,66 66,66c36.426,0 66,-29.574 66,-66Z" style="fill:#faecc3;"/><clipPath id="_clip1"><path d="M141,75c0,-36.426 -29.574,-66 -66,-66c-36.426,0 -66,29.574 -66,66c0,36.426 29.574,66 66,66c36.426,0 66,-29.574 66,-66Z"/></clipPath><g clip-path="url(#_clip1)"><g id="berlin-wall"><g id="soliders"><path d="M46.267,120.318c-4.601,-2.13 -8.037,-0.318 -10.566,4.563c-1.285,6.619 2.558,8.253 7.59,8.731c5.682,-2.123 8.681,-5.566 2.976,-13.294Zm12.402,-25.454c0,-0 0.271,-0.33 0.252,-0.611c-0.019,-0.281 0.281,-0.755 0.01,-1.007c-0.272,-0.252 -0.543,-1.211 -0.543,-1.211c-0.068,-7.05 6.305,-5.189 7.566,-0.91c-0,-0 -0.029,0.755 -0.117,1.007c-0.087,0.252 -0.252,0.494 -0.387,0.736c-0.136,0.242 -0.058,0.252 -0.087,0.581c-0.029,0.33 0.135,0.301 0.009,0.62c-0.126,0.32 0.01,0.523 -0.193,0.736c-0.204,0.214 -0.388,0.291 -0.436,0.504c-0.049,0.213 -0.194,0.465 -0.194,0.62c0,0.155 0.087,0.339 0.087,0.339c0.351,8.205 -9.525,5.133 -5.967,-1.404Zm-25.7,-10.296l2.702,-0.22l4.283,2.878c0,-0 0.364,0.554 0.523,0.95c0.158,0.396 -0.033,0.445 -0.04,1.006c-0.007,0.561 0.059,0.376 0.092,0.58c0.033,0.205 0.02,0.706 0.066,0.852c0.047,0.145 0.172,0.402 0.146,0.508c-0.027,0.105 -0.172,0.343 -0.172,0.343c-0,-0 -0.02,0.27 -0.059,0.488c-0.04,0.218 -0.225,0.567 -0.278,0.825c-0.052,0.257 -0.019,0.422 0,0.587c0.02,0.165 0.08,0.693 -0.052,0.911c-0.132,0.217 -0.31,0.303 -0.548,0.369c-0.238,0.066 -0.897,0.185 -0.897,0.185l-0.113,0.349l-5.971,-0.673l0.318,-9.938Zm13.259,5.118c0,-0 0.363,-0.726 0.351,-0.838c-0.013,-0.113 -0.576,-2.753 -0.576,-2.753l1.66,-4.259c2.085,-1.144 4.345,-0.885 5.809,2.133c-0,-0 0.163,1.025 0.275,1.226c0.113,0.2 0.163,0.475 0.025,0.638c-0.137,0.162 -0.212,0.175 -0.25,0.425c-0.038,0.25 -0.063,0.575 -0.025,0.863c0.038,0.288 0.125,0.738 0.013,0.838c-0.113,0.101 -0.138,0.126 -0.263,0.426c-0.125,0.3 -0.163,0.325 -0.138,0.6c0.025,0.276 -0.075,0.413 -0.037,0.763c0.037,0.351 0.012,0.726 -0.063,0.826c-0.075,0.1 -1.163,0.25 -1.289,0.451c-0.125,0.2 -0.112,0.563 -0.112,0.563c-1.587,4.945 -6.81,0.944 -5.38,-1.902Z" style="fill:#94766e;"/><path d="M33.119,93.936c-0,-0 0.678,-0.046 0.829,0.03c0.15,0.075 0.542,0.301 0.753,0.196c0.211,-0.106 0.874,-0.558 0.738,-0.935c0,0 0.769,0.663 0.92,0.754c0.15,0.09 0.437,0.347 0.783,0.482c0.347,0.136 0.633,0.211 0.799,0.241c0.166,0.03 0.437,0.091 0.437,0.091l0.573,0.452l0.452,0.422c-0,-0 0.663,-0.859 0.738,-0.995c0.076,-0.135 0.287,-0.316 0.437,-0.588c0.151,-0.271 0.543,-0.648 0.905,-0.919c0.361,-0.271 0.452,-0.437 0.738,-0.648c0.286,-0.211 0.271,-0.211 0.738,-0.452c0.468,-0.241 0.618,-0.301 0.95,-0.452c0.331,-0.151 0.286,-0 0.603,-0.271c0.316,-0.272 0.286,-0.498 0.557,-0.844c0.272,-0.347 0.362,-0.694 0.618,-0.904c0.256,-0.211 0.844,-0.257 0.844,-0.257l0,0.392c0,0 -0.347,0.075 -0.377,0.211c-0.03,0.136 0.422,0.513 0.422,0.513c0,-0 0.633,0.361 0.904,0.542c0.272,0.181 0.362,0.196 0.633,0.392c0.272,0.196 0.498,0.271 0.89,0.618c0.391,0.346 0.452,0.392 0.904,0.527c0.452,0.136 0.422,0.181 0.738,0.091c0.317,-0.091 0.362,0.03 0.498,-0.272c0.135,-0.301 0.271,-1.16 0.271,-1.16l0.346,-0.015l0.437,0.226c0,-0 0.724,0.136 0.935,0.196c0.211,0.06 -0.061,-0.045 0.452,0.105c0.512,0.151 0.964,0.196 1.341,0.407c0.377,0.211 0.482,0.226 0.663,0.362c0.181,0.136 0.302,0.407 0.302,0.407l-0.091,0.196l-0.437,-0.091c0,0 0.437,0.256 0.618,0.467c0.181,0.211 0.558,0.739 0.708,1.04c0.151,0.302 0.211,0.648 0.347,0.814c0.136,0.166 0.331,0.377 0.377,0.558c0.045,0.181 0.798,-0.588 0.874,-0.799c0.075,-0.211 0.437,-0.618 0.437,-0.618l0.181,0.075l-0.106,0.437c0,0 -0.301,0.317 -0.316,0.528c-0.015,0.211 0.316,1.175 0.602,1.537c0.287,0.362 0.498,0.437 0.633,0.784c0.136,0.346 0.015,0.06 0.377,0.693c0.362,0.633 0.452,1.13 0.558,1.447c0.105,0.316 0.09,0.361 0.196,0.633c0.105,0.271 0.497,0.602 0.497,0.602c-0,0 0.181,-0.331 0.618,-0.633c0.437,-0.301 0.904,-0.798 1.1,-1.235c0.196,-0.437 0.301,-0.603 0.422,-0.889c0.12,-0.287 0.331,-0.648 0.316,-0.98c-0.015,-0.332 -0.045,-0.542 -0.045,-0.542c0,-0 0.437,-0.061 0.528,-0.347c0.09,-0.286 0.241,-0.648 0.241,-0.648c-0,-0 0.437,0.06 0.542,0.211c0.106,0.151 0.136,0.256 0.513,0.452c0.376,0.196 0.346,-0.211 0.587,-0.09c0.242,0.12 1.296,0.286 1.598,0.452c0.301,0.165 0.377,0.135 0.678,0.256c0.301,0.12 0.814,0.346 0.814,0.346c-0,0 0.196,0.347 0.196,0.483c-0,0.135 0.03,0.331 0.03,0.331c-0,0 0.512,0.437 0.648,0.663c0.135,0.226 0.181,0.241 0.271,0.573c0.091,0.332 0.075,0.407 0.136,0.603c0.06,0.196 0.045,0.542 0.045,0.542l-0.816,5.959l-22.097,19.709c0,-0 -0.932,-2.059 -1.024,-2.313c-0.093,-0.254 -0.093,-0.438 -0.324,-0.693c-0.231,-0.254 -0.669,-0.808 -0.854,-1.085c-0.185,-0.277 -0.347,-0.624 -0.485,-0.901c-0.139,-0.277 -0.324,-0.67 -0.324,-0.67c0,0 -0.577,-0.046 -1.039,0.208c-0.462,0.254 -0.277,0.208 -0.577,0.324c-0.301,0.115 -0.508,0.323 -0.508,0.323l-0.301,0.185c0,-0 0.185,0.531 0.185,0.785c0,0.254 0.023,0.277 0,0.531c-0.023,0.254 -0.046,0.647 -0.046,0.647l-0.462,0.069c-0,0 -0.416,-0.577 -0.577,-0.739c-0.162,-0.162 -0.416,-0.508 -0.416,-0.508c-0,0 -0.393,0.116 -0.601,0.185c-0.207,0.069 0.023,0.046 -0.646,0.115c-0.67,0.07 -0.786,0.116 -0.786,0.116l-0.346,0.161c-0,0 0.046,0.208 0.139,0.393c0.092,0.185 0.115,0.347 0.254,0.601c0.138,0.254 0.392,0.415 0.277,0.623c-0.116,0.208 -0.116,0.554 -0.116,0.554l-0.415,0.07c-0,-0 -0.07,-0.07 -0.116,0.369c-0.046,0.439 -0.092,0.347 -0.069,0.878c0.023,0.531 0.115,0.901 0.115,1.247c0,0.347 -0.023,1.594 -0.023,1.594l-0.254,2.748l-6.467,-4.134l1.255,-34.147Z" style="fill:#6c5f4f;"/><path d="M46.717,88.93c0,0 -0.483,-0.653 -0.677,-1.269c-0.193,-0.617 -0.339,-0.617 -0.472,-1.125c-0.133,-0.508 -0.169,-0.665 -0.133,-0.992c0.037,-0.326 -0.145,-0.568 0.049,-1.258c0.193,-0.689 0.109,-1.197 0.254,-1.729c0.145,-0.532 0.387,-0.992 0.399,-1.354c0.012,-0.363 -0.012,-0.799 0.242,-1.21c0.254,-0.411 0.532,-0.508 0.774,-0.484c0.242,0.025 0.774,-0.133 1.221,-0.217c0.448,-0.085 0.339,-0.303 1.004,-0.061c0.665,0.242 0.919,0.291 1.415,0.52c0.496,0.23 0.786,0.109 1.185,0.593c0.399,0.484 0.919,0.665 1.016,0.992c0.097,0.326 0.048,0.399 0.375,0.447c0.326,0.048 0.399,-0.23 0.472,0.061c0.072,0.29 -0.121,0.495 0.06,0.786c0.181,0.29 0.278,0.217 0.351,0.435c0.072,0.218 0.193,0.508 -0.049,0.738c-0.242,0.23 -0.604,0.52 -0.713,0.58c-0.109,0.061 -0.399,0.194 -0.677,-0.157c-0.279,-0.351 -0.436,-0.714 -0.593,-0.762c-0.157,-0.048 0.121,-0.81 -0.472,-0.81c-0.592,-0 -0.774,0.133 -0.907,0.242c-0.133,0.109 -0.157,0.145 -0.641,0.181c-0.483,0.036 -0.508,-0.145 -0.749,0.133c-0.242,0.278 -0.146,-0.121 -0.291,0.472c-0.145,0.592 -0.096,0.375 -0.254,1.052c-0.157,0.677 -0.157,1.246 -0.483,1.246c-0.327,-0 -0.774,-0.242 -0.992,-0.4c-0.218,-0.157 -0.641,-0.278 -0.835,0.109c-0.193,0.387 -0.459,0.448 -0.35,0.774c0.109,0.327 0.29,0.738 0.363,0.919c0.072,0.182 0.169,1.101 0.108,1.548Z" style="fill:#8d7a74;"/><path d="M33.33,85.936c0,-0 -0.119,0.154 0.178,0.464c0.298,0.309 0.25,0.285 0.631,0.44c0.381,0.155 0.369,0.404 0.511,0.155c0.143,-0.25 0.131,-0.191 0.191,-0.524c0.059,-0.333 -0.048,-0.535 0.214,-0.726c0.262,-0.19 0.071,-0.38 0.416,-0.249c0.345,0.13 0.69,0.297 0.857,0.475c0.166,0.179 0.238,0.322 0.25,0.571c0.012,0.25 0.166,0.381 0.202,0.702c0.036,0.322 0.107,0.619 -0.036,0.904c-0.143,0.286 -0.059,0.262 -0.262,0.512c-0.202,0.25 -0.38,0.262 -0.321,0.476c0.06,0.214 -0.166,0.511 0.155,0.262c0.321,-0.25 0.619,-0.5 0.702,-0.655c0.083,-0.154 0.19,-0.583 0.333,-0.678c0.143,-0.095 0.143,-0.321 0.464,-0.095c0.321,0.226 0.226,0.226 0.511,0.381c0.286,0.154 0.476,0.261 0.738,0.238c0.262,-0.024 0.285,0.107 0.523,-0.226c0.238,-0.334 0.179,-0.322 0.583,-0.179c0.405,0.143 0.476,0.524 0.714,0.393c0.238,-0.131 0.583,-0.809 0.214,-1.083c-0.369,-0.273 -0.666,-0.571 -0.987,-1.011c-0.321,-0.44 -0.393,-0.773 -0.809,-1.202c-0.417,-0.428 -0.797,-0.785 -1.059,-0.844c-0.262,-0.06 -0.345,-0.048 -1.059,-0.405c-0.713,-0.356 -1.867,-1.225 -2.343,-1.344c-0.476,-0.119 -0.654,-0.154 -0.904,-0.404c-0.25,-0.25 -0.131,-0.44 -0.666,-0.643c-0.536,-0.202 -0.619,0.298 -0.619,0.298l0.678,3.997Z" style="fill:#7e6b5d;"/><path d="M58.775,93.066c-0,0 -0.157,0.146 -0.254,-0.096c-0.097,-0.242 -0.133,-0.375 -0.194,-0.605c-0.06,-0.23 -0.024,-0.665 -0.024,-0.943c0,-0.278 0,-0.254 -0.048,-0.798c-0.049,-0.545 -0.145,-0.714 -0.073,-1.089c0.073,-0.375 0.254,-0.351 0.303,-0.774c0.048,-0.423 -0.073,-0.363 0.084,-0.798c0.157,-0.435 0.29,-0.581 0.46,-0.931c0.169,-0.351 0.653,-0.424 1.016,-0.544c0.362,-0.121 0.338,-0.254 0.701,-0.339c0.363,-0.085 0.605,-0.036 0.895,-0.048c0.29,-0.013 0.46,-0.073 0.798,-0.073c0.339,-0 0.629,0.206 1.016,0.411c0.387,0.206 1.137,0.423 1.33,0.544c0.194,0.121 0.399,0.133 0.641,0.569c0.242,0.435 0.581,0.943 0.786,1.209c0.206,0.266 0.641,0.81 0.545,1.197c-0.097,0.387 -0.702,1.294 -0.593,1.464c0.109,0.169 -0.024,0.483 0.435,0.423c0.46,-0.06 0.363,0.036 0.363,0.036c0,0 -0.169,0.266 -0.447,0.23c-0.278,-0.036 -0.46,-0.133 -0.569,-0.193c-0.109,-0.061 -0.387,-0.339 -0.387,-0.339c0,-0 0.303,0.206 -0.314,0.423c-0.617,0.218 -0.943,0.363 -1.185,0.206c-0.242,-0.157 -0.557,-0.351 -0.665,-0.472c-0.109,-0.121 0.024,-0.326 0.169,-0.326c0.145,-0 0.472,-0.085 0.496,-0.254c0.024,-0.17 0.036,-0.496 -0.073,-0.581c-0.109,-0.084 -0.459,-0.217 -0.641,-0.387c-0.181,-0.169 -0.617,-0.52 -0.786,-0.58c-0.169,-0.061 -0.157,0.278 -0.23,0.483c-0.072,0.206 -0.06,0.641 -0.169,0.823c-0.109,0.181 0.048,0.375 -0.387,0.508c-0.435,0.133 -0.822,0.387 -1.113,0.363c-0.29,-0.025 -0.495,-0.073 -0.653,-0.218c-0.157,-0.145 -0.362,-0.822 -0.762,-0.81c-0.399,0.012 -0.653,0.096 -0.737,0.399c-0.085,0.302 0.157,1.306 0.242,1.427c0.084,0.121 0.254,0.677 0.024,0.483Z" style="fill:#463432;"/></g><path d="M135.114,45.491l-58.092,-3.985l-0.091,0.29l-2.009,0.018l-0.036,2.226l0.543,0.037l0.977,1.448c0,-0 0.218,0.887 -0.072,1.212c-0.29,0.326 -0.38,0.453 -0.38,0.797c-0,0.344 0.072,0.398 -0.091,1.14c-0.163,0.742 -0.235,0.688 -0.199,1.086c0.036,0.398 -0.09,0 0.036,0.471c0.127,0.47 0.362,0.543 0.181,0.85c-0.181,0.308 0.073,0.109 -0.162,0.869c-0.236,0.76 -0.453,0.67 -0.381,1.068c0.073,0.398 0.308,0.797 0.381,1.557c0.072,0.76 -0,1.285 -0.127,1.484c-0.127,0.199 -0.706,0.706 -0.634,1.086c0.073,0.38 0.145,1.159 0.109,1.665c-0.036,0.507 -0.109,0.38 -0.018,1.068c0.09,0.688 -0.145,1.557 -0.073,1.883c0.073,0.326 0.073,0.76 0.018,1.43c-0.054,0.669 0.2,2.19 0.091,2.932c-0.109,0.742 -0.163,1.719 -0.272,2.353c-0.108,0.634 -0.253,1.991 -0.253,2.679c0,0.688 0.127,1.991 0.091,3.186c-0.037,1.194 -0.073,2.588 -0.037,3.294c0.037,0.706 0.073,2.353 0.127,3.149c0.054,0.797 -0.036,1.267 -0.018,1.828c0.018,0.562 -0,1.394 0.054,1.992c0.055,0.597 0.199,1.936 0.199,2.606c0,0.67 -0.036,2.082 0,2.806c0.037,0.724 0.055,1.249 0.073,1.792c0.018,0.543 0.072,1.647 -0.073,2.642c-0.144,0.996 -0.054,1.322 -0.054,1.322l-0.708,48.174c58.763,-1.596 84.736,-65.007 60.9,-98.455Zm-116.576,-7.021l13.098,0.826l0,2.407l-0.307,-0.047l-0.259,0.543c-0,-0 -0.307,0.047 -0.142,0.401c0.165,0.354 0.614,0.779 0.684,1.227c0.071,0.448 0.213,0.378 0.354,0.802c0.142,0.425 0.284,0.472 0.048,1.346c-0.236,0.873 -0.543,2.124 -0.52,2.383c0.024,0.26 0.52,0.661 0.52,0.661c-0,0 -0.236,0.59 -0.118,0.921c0.118,0.33 0.495,0.377 0.401,0.826c-0.095,0.448 -0.425,0.896 -0.142,1.038c0.283,0.142 0.331,0.236 0.331,0.236c-0,-0 0.07,2.879 0.094,3.21c0.024,0.33 0,0.637 0.071,1.085c0.071,0.449 0.141,0.047 0.283,0.968c0.142,0.92 -0.212,1.416 -0.024,1.888c0.189,0.472 0.425,0.637 0.213,1.109c-0.213,0.472 -0.661,1.534 -0.637,1.959c0.023,0.425 0.236,1.487 0.33,1.675c0.094,0.189 0.448,0.756 0.142,1.11c-0.307,0.354 -0.26,1.085 -0.166,1.652c0.095,0.566 0.118,1.51 0.284,2.1c0.165,0.59 0.094,0.189 0.165,0.85c0.071,0.66 -0.047,0.873 -0.071,1.368c-0.024,0.496 -0.024,1.652 -0.071,2.077c-0.047,0.425 -0.165,1.463 -0.377,1.723c-0.213,0.26 -0.024,0.425 -0.048,0.92c-0.023,0.496 0.118,0.897 0.166,1.369c0.047,0.472 -0,1.227 0.165,1.487c0.165,0.26 -0.047,0.566 -0.047,0.566c-0,0 -0.213,0 -0.189,0.52c0.023,0.519 -0.189,1.014 -0.095,1.321c0.095,0.307 0.236,0.496 0.236,0.496c0,-0 0.189,0.165 0.26,0.59c0.071,0.425 0.33,0.944 0.354,1.369c0.024,0.424 0.047,0.66 -0.024,1.557c-0.07,0.897 0.095,2.289 0.095,2.903c-0,0.614 -0,1.322 -0.118,2.006c-0.118,0.685 -0.142,0.59 -0.189,1.204c-0.047,0.613 -0.071,0.283 -0.142,1.133c-0.07,0.849 -0.07,1.014 -0.07,1.628c-0,0.614 0.118,0.165 0.07,0.968c-0.047,0.802 -0.141,1.085 -0.165,1.722c-0.023,0.638 0.024,0.449 0.024,0.921c-0,0.472 -0.024,0.118 0.141,0.755c0.166,0.637 -0.047,0.637 0,1.274c0.048,0.638 0.048,0.732 0.142,1.086c0.094,0.354 0,0.307 0.236,0.637c0.236,0.331 0.142,-0.307 0.33,0.472c0.189,0.779 0.354,0.661 0.284,1.345c-0.071,0.685 -0.095,0.756 -0.118,1.582c-0.024,0.826 -0.048,2.006 -0.095,2.478c-0.047,0.472 0.095,0.165 -0.094,0.731c-0.189,0.567 -0.236,0.449 -0.236,1.204c-0,0.755 0.118,1.298 0.118,1.888c-0,0.59 -0.213,0.708 -0.189,1.156c0.024,0.449 0.071,0.283 0.236,0.803c0.165,0.519 0.094,1.793 0.142,2.029c0.047,0.236 -0.26,1.227 -0.425,1.841c-0.165,0.614 -0.213,1.298 -0.283,1.558c-0.071,0.259 -0.142,0.33 -0.048,0.873c0.095,0.543 0.071,0.519 0.189,0.991c0.118,0.472 0.165,0.991 0.213,1.463c0.047,0.472 0.283,0.425 0.188,0.991c-0.094,0.567 0.048,0.85 -0.023,1.44c-0.071,0.59 -0.189,0.732 -0.236,1.086c-0.047,0.354 -0.024,0.424 -0.142,0.849c-0.118,0.425 -0.448,0.307 -0.472,0.968c-0.023,0.661 0.142,0.731 0,1.085c-0.141,0.354 -0.377,0.59 -0.377,0.59c-18.052,-9.678 -41.566,-51.244 -13.948,-90.199Z" style="fill:#a4a4a2;"/><path d="M47.012,126.29c-0,-0 3.303,-2.71 3.675,-3.266c0.371,-0.557 2.932,-3.081 3.377,-3.861c0.446,-0.779 3.489,-4.12 4.12,-4.602c0.631,-0.483 1.819,-2.005 2.376,-2.227c0.557,-0.223 0.854,-0.149 1.559,-0.483c0.705,-0.334 1.447,-0.742 1.707,-1.225c0.26,-0.482 0.037,-0.408 0.743,-1.15c0.705,-0.743 1.484,-1.671 1.559,-2.153c0.074,-0.483 0.074,-1.002 0.334,-1.448c0.259,-0.445 1.15,-2.264 1.67,-2.821c0.519,-0.556 3.081,-2.858 3.526,-3.526c0.445,-0.668 1.448,-1.485 2.19,-2.338c0.742,-0.854 3.081,-2.784 3.6,-3.341c0.52,-0.557 0,-0.594 1.151,-0.928c1.151,-0.334 0.668,-0.594 1.93,-0.519c1.262,0.074 1.893,-0.038 2.413,0.111c0.519,0.148 0.185,0.297 1.447,0.26c1.262,-0.037 2.116,0.074 2.895,-0.037c0.78,-0.112 0.52,-0.186 1.559,-0.334c1.04,-0.149 1.448,-0.075 1.448,-0.075l32.589,0.668c0,0 2.079,0.52 2.895,0.52c0.817,0 1.299,-0.185 1.708,-0.148c0.408,0.037 1.225,0.148 1.484,0.556c0.26,0.409 1.077,1.188 1.225,1.745c0.149,0.557 0.594,1.744 0.631,2.153c0.037,0.408 0.112,0.445 -0.148,0.816c-0.26,0.371 -0.705,1.559 -1.077,1.893c-0.371,0.334 -0.482,0.483 -1.039,0.817c-0.557,0.334 0.112,0.037 -1.076,0.668c-1.188,0.631 0.371,0.705 -1.225,1.41c-1.596,0.706 -2.079,0.557 -2.487,0.966c-0.408,0.408 -0.52,0.519 -0.52,0.519c0,0 0.446,0.371 -0.259,0.854c-0.706,0.482 -0.854,0.557 -1.3,1.151c-0.445,0.593 -0.705,1.002 -1.224,1.336c-0.52,0.334 -0.149,-0.223 -0.706,0.482c-0.556,0.706 -0.816,0.817 -1.225,1.151c-0.408,0.334 -1.299,1.782 -1.93,1.967c-0.631,0.186 -0.89,0.186 -1.225,0.446c-0.334,0.259 -0.89,0.742 -1.224,1.113c-0.334,0.371 -0.891,1.411 -1.374,1.819c-0.482,0.408 -0.631,0.445 -1.262,0.779c-0.631,0.334 -2.227,1.374 -2.635,1.633c-0.408,0.26 -0.52,0.483 -0.742,1.077c-0.223,0.594 -0.297,0.965 -1.077,1.744c-0.779,0.78 -0.965,0.891 -1.596,1.411c-0.631,0.52 0.037,0.26 -0.854,0.668c-0.89,0.408 -0.816,0.186 -1.113,0.928c-0.297,0.742 -0.483,0.854 -0.891,1.485c-0.408,0.631 -0.445,1.002 -1.336,1.559c-0.891,0.556 -1.374,0.779 -1.374,0.779l-4.825,3.972c0,-0 -0.519,0.148 -0.891,0.482c-0.371,0.334 -1.039,0.854 -1.299,1.225c-0.26,0.371 0.186,0.854 -0.334,1.151c-0.519,0.297 -0.742,0.705 -1.076,0.89c-0.334,0.186 -0.965,0.446 -0.965,0.446l0.816,4.825c-20.745,4.98 -36.178,1.572 -49.398,-5.33l5.08,-8.663Z" style="fill:#898077;"/><g id="people"><path d="M74.289,135.996l2.777,-3.491l0.775,-2.613l3.348,0.306c0,-0 0.327,0.959 0.429,1.837c0.102,0.878 0.204,1.123 -0.061,2.001c-0.265,0.878 -0.817,2.327 -1.348,3.021c-0.53,0.694 -1.429,1.409 -1.898,1.634c-0.47,0.224 -4.022,-2.695 -4.022,-2.695Zm20.446,-1.494c-0,-0 -0.632,1.385 -0.693,1.773c-0.061,0.388 0.612,3.302 0.612,3.302l10.013,-4.398l-3.43,-1.409l-6.502,0.732Zm-41.331,-0.732c0,0 0.572,-1.061 0.96,-1.633c0.388,-0.571 0.694,-0.918 0.98,-1.347c0.286,-0.429 0.449,-0.592 0.633,-1.062c0.183,-0.469 0.51,-1.143 0.183,-1.47c-0.326,-0.326 -0.633,-0.959 -0.98,-1.51c-0.347,-0.552 -0.612,-2.389 -0.551,-2.716c0.061,-0.326 0.184,-0.98 0.511,-1.408c0.326,-0.429 1.245,-0.837 1.245,-0.837c-0,-0 0.367,0.183 0.245,0.469c-0.123,0.286 -0.184,0.204 -0.184,0.613c0,0.408 0.123,0.776 0.266,1.163c0.142,0.388 0.265,0.715 0.53,1.103c0.266,0.388 0.735,0.796 0.735,0.796c0,0 0.245,-0.204 0.245,-0.449c0,-0.245 0,-0.674 0.143,-0.858c0.143,-0.183 0.449,-0.673 0.694,-0.551c0.245,0.123 0.572,0.368 0.388,0.878c-0.184,0.51 -0.286,0.653 -0.265,1.286c0.02,0.633 0.143,0.98 0.041,1.491c-0.102,0.51 -0.245,0.755 -0.511,1.061c-0.265,0.306 -0.571,1.103 -0.857,1.96c-0.286,0.857 -0.531,1.388 -0.674,1.776c-0.143,0.388 -0.469,1.797 -0.674,2.266c-0.204,0.47 -0.183,1.082 -0.592,1.348c-0.408,0.265 -1,0.694 -1,0.694l-1.511,-3.063Zm-10.901,-0.898l3.327,-6.369l3.124,0.592c-0,-0 -0.082,1.123 0.163,1.531c0.245,0.408 0.49,0.755 0.51,1.021c0.021,0.265 -0.183,0.408 -0.02,0.714c0.163,0.306 0.715,1.041 0.857,1.205c0.143,0.163 0.531,0.49 0.327,0.694c-0.204,0.204 -0.265,0.224 -0.51,0.51c-0.245,0.286 -0.204,0.47 -0.225,0.674c-0.02,0.204 -0.02,0.204 -0.184,0.408c-0.163,0.204 0.021,0.245 -0.04,0.511c-0.062,0.265 -0.123,0.265 -0.245,0.571c-0.123,0.306 0.04,0.429 0.02,0.776c-0.02,0.347 -0.02,0.592 -0.02,0.592l-7.084,-3.43Zm72.989,-11.022c0.411,-0.973 0.365,-2.121 2.021,-2.615l7.452,-2.604l1.583,2.524l-11.056,2.695Zm4.986,-6.762c-0.04,-0.22 -0.22,-0.3 -0.26,-0.861c-0.04,-0.561 -0.06,-0.701 -0.08,-1.082c-0.02,-0.381 1.722,-2.123 1.722,-2.123l2.384,2.484l-3.185,1.963c0,-0 -0.541,-0.161 -0.581,-0.381Z" style="fill:#926a68;"/><path d="M69.355,133.481c0,0 -0.103,-1.062 0.034,-1.782c0.137,-0.719 1.165,-1.678 1.165,-1.678l10.005,-0.189c-0,0 0.085,0.446 -0.018,0.754c-0.102,0.308 -0.068,0.771 -0.342,0.959c-0.274,0.189 -0.822,0.377 -1.011,0.377c-0.188,0 -0.171,-0.12 -0.171,-0.462c-0,-0.343 -0.24,-0.549 -0.24,-0.549c-0,0 -0.788,-0.051 -0.822,0.532c-0.035,0.582 -0.035,1.233 -0.035,1.233c0,-0 0.223,0.223 -0.205,0.531c-0.428,0.308 -0.685,0.737 -0.754,0.976c-0.068,0.24 0.154,0.137 -0.137,0.514c-0.291,0.377 -0.976,1.251 -1.353,1.388c-0.377,0.137 -1.371,0.291 -1.371,0.291l-4.745,-2.895Zm-31.222,-2.941c0.055,-0.919 0.331,-2.353 0.386,-2.61c0.055,-0.257 0.147,-0.349 0.367,-1.286c0.221,-0.938 0.074,-1.029 0.735,-1.544c0.662,-0.515 0.846,-0.937 1.434,-1.084c0.588,-0.147 1.323,-0.239 1.323,-0.239c-0,-0 0.643,-0.166 0.79,-0.294c0.147,-0.129 0.717,-0.166 0.919,-0.074c0.202,0.092 0.882,0.184 1.139,0.405c0.258,0.22 0.368,0.643 0.772,0.753c0.404,0.11 0.423,-0.184 1.084,0.184c0.662,0.367 1.213,0.386 1.544,0.845c0.331,0.46 0.404,1.103 0.386,1.305c-0.018,0.202 -0.349,1.562 -0.496,1.819c-0.147,0.258 -0.46,0.515 -0.46,0.515c0,-0 0.258,-0.515 0.203,-1.066c-0.056,-0.551 -0.129,-0.735 -0.129,-0.735c-0,-0 -0.864,0.386 -0.901,0.808c-0.036,0.423 -0.036,1.103 -0.147,1.379c-0.11,0.275 -0.202,0.22 -0.477,0.698c-0.276,0.478 -0.221,0.404 -0.239,0.772c-0.019,0.367 0.275,0.809 -0.092,0.753c-0.368,-0.055 -0.846,-0.055 -1.25,-0.018c-0.404,0.037 -0.753,0.055 -1.102,-0.018c-0.35,-0.074 -0.423,-0.313 -0.625,-0.074c-0.202,0.239 0.055,0.496 0.036,0.698c-0.018,0.203 -0.588,0.956 -0.588,0.956l-4.612,-2.848Zm81.051,-12.107c0,-0 0.061,0.922 -0.097,1.275c-0.158,0.352 -0.252,0.682 -0.319,0.823c-0.075,0.157 0.187,0.717 0.381,0.753c0.194,0.037 1.211,0.281 1.466,0.111c0.255,-0.17 0.316,-1.288 0.887,-1.373c0.57,-0.085 0.827,-0.97 0.96,-1.189c0.134,-0.218 0.257,-1.275 0.257,-1.275l1.229,0.183c-0,0 -0.205,1.521 -0.144,1.703c0.061,0.182 1.014,-0.866 1.305,-1.096c0.291,-0.231 -0.267,-2.186 -0.267,-2.186l-5.658,2.271Zm1.36,-6.678c-0,0 -0.425,0.425 -0.449,0.789c-0.025,0.364 0.067,0.887 0.067,0.887c0,-0 0.321,-0.486 0.516,-0.304c0.194,0.182 0.546,0.364 0.728,0.534c0.182,0.17 0.879,-0.425 0.927,-0.655c0.049,-0.231 -0.339,-1.481 -0.339,-1.481l-1.45,0.23Z" style="fill:#28100e;"/><path d="M67.162,137.009c-0,-0 1.887,-3.277 1.936,-3.526c0.05,-0.248 0.182,-0.48 0.464,-0.115c0.281,0.364 1.456,0.777 1.704,0.976c0.249,0.199 2.533,1.208 2.913,1.407c0.381,0.198 1.788,1.44 2.185,1.671c0.397,0.232 1.456,0.596 1.705,0.993c0.248,0.398 0.447,1.142 0.447,1.473c-0,0.331 -0.315,1.506 -0.315,1.506l-11.039,-4.385Zm26.612,-2.058c-0.19,-0.061 -0.313,-0.313 0,-0.581c0.313,-0.268 0.805,-0.559 0.805,-0.559l-0.067,-0.67c-0,-0 -0.179,-0.357 0.089,-0.469c0.268,-0.112 0.737,0.044 0.715,-0.179c-0.022,-0.223 -0.022,-0.514 -0.358,-1.05c-0.335,-0.536 -0.603,-0.804 -0.647,-1.318c-0.045,-0.514 -0.023,-1.363 0.58,-1.832c0.604,-0.47 1.967,-1.229 2.592,-1.296c0.626,-0.067 1.832,0.067 2.234,0.491c0.403,0.425 0.984,0.939 1.542,1.386c0.559,0.446 1.43,0.871 2.078,1.273c0.648,0.402 1.921,1.341 2.413,1.787c0.492,0.447 1.072,1.095 1.072,1.095l-2.636,2.369c0,-0 -0.894,-0.581 -1.609,-0.581c-0.715,-0 -0.782,0.111 -1.876,0.245c-1.095,0.135 -2.078,0.38 -3.173,0.269c-1.095,-0.112 -2.704,-0.045 -3.754,-0.38Zm-23.732,-5.804c-0,0 -1.341,-0.563 -1.639,-1.076c-0.298,-0.513 -0.364,-0.86 -0.049,-1.191c0.314,-0.331 1.208,-0.563 1.473,-0.745c0.264,-0.182 1.522,-0.712 2.284,-1.142c0.761,-0.43 2.863,-1.043 3.624,-1.506c0.761,-0.463 2.251,-1.142 2.996,-1.341c0.744,-0.198 2.35,-0.231 2.731,0.116c0.38,0.348 1.489,1.01 1.655,1.49c0.165,0.48 0.43,1.804 0.049,2.267c-0.38,0.464 -1.307,1.738 -1.307,1.738l-0.033,0.844c-0,0 0.811,0.05 0.91,0.248c0.099,0.199 0.05,1.258 0.05,1.258l-0.034,0.315l-0.777,-0.431l-0.977,0.232c0,-0 -0.331,0.05 -0.91,0.281c-0.579,0.232 -1.192,0.497 -1.688,0.58c-0.497,0.082 -1.904,0.281 -2.334,0.297c-0.43,0.017 -2.962,0.116 -3.442,0.083c-0.48,-0.033 -2.135,-0.265 -2.284,-0.43c-0.149,-0.166 -0.298,-1.887 -0.298,-1.887Z" style="fill:#3f4239;"/><path d="M124.518,119.043c0,-0 -1.207,0.156 -1.698,0.312c-0.492,0.157 -1.117,0.09 -1.564,0.581c-0.447,0.492 -0.559,0.827 -0.559,0.827l-0.089,0.737c1.686,2.101 2.88,0.45 3.91,-2.457Zm-8.861,1.264c0.067,-0.201 0.593,-0.753 0.168,-0.887c-0.424,-0.134 -0.535,-0.132 -0.87,-0.355c-0.335,-0.223 -0.804,-0.447 -0.357,-0.871c0.447,-0.425 1.765,-1.028 2.055,-1.252c0.291,-0.223 0.693,-0.648 1.095,-0.871c0.402,-0.223 0.827,-0.424 1.408,-0.737c0.581,-0.313 0.826,-0.469 1.296,-0.626c0.469,-0.156 0.916,-0.268 1.273,-0.38c0.358,-0.111 0.358,0 0.827,-0.357c0.469,-0.358 0.67,-0.648 0.67,-0.648c0,-0 -0.558,-0.067 -0.76,-0.291c-0.201,-0.223 -0.156,-0.536 -0.402,-0.759c-0.245,-0.224 -0.558,-0.358 -1.072,-0.425c-0.514,-0.067 -0.603,0.157 -0.76,-0.134c-0.156,-0.29 -0.134,-1.028 -0.134,-1.028l-0.916,0l-0.223,-0.469c-0,0 0.335,-0.067 0.692,-0.447c0.358,-0.379 1.028,-0.692 1.319,-0.849c0.29,-0.156 0.312,-0.134 0.67,-0.335c0.357,-0.201 0.447,-0.246 1.095,-0.469c0.648,-0.223 0.826,-0.29 1.161,-0.38c0.336,-0.089 0.559,-0.156 1.095,-0.29c0.536,-0.134 0.916,-0.313 1.408,-0.157c0.491,0.157 1.273,0.224 1.519,0.604c0.246,0.379 0.737,0.558 0.603,1.027c-0.134,0.47 0.112,0.671 -0.268,0.894c-0.38,0.224 -0.871,0.536 -0.871,0.536l-0.089,0.514l-0.112,0.559l-0.268,0.313l0.022,0.402c0,-0 0.514,-0.045 0.693,0.357c0.178,0.402 0.268,0.268 0.067,0.715c-0.201,0.447 -0.335,0.559 -0.38,0.849c-0.045,0.291 -0.09,0.224 -0.022,0.559c0.067,0.335 -0.023,0.782 -0.023,0.782l-0.156,0.849l-2.1,2.234c-0,0 -0.492,-0.179 -0.805,-0.29c-0.313,-0.112 -0.424,-0.358 -1.296,-0.358c-0.871,0 -1.363,0.045 -2.1,0.335c-0.737,0.291 -0.67,0.335 -0.983,0.604c-0.313,0.268 -0.76,0.603 -0.76,0.603c0,-0 -0.201,-0 -0.514,0.044c-0.312,0.045 -0.916,-0.022 -1.251,0.135c-0.335,0.156 -1.711,0.951 -1.644,0.75Z" style="fill:#3f4239;"/><path d="M93.741,138.639c-0,-0 -1.98,-2.93 -2.878,-3.698c-0.898,-0.768 -3.177,-2.096 -3.62,-2.331c-0.442,-0.234 -2.851,-0.547 -3.359,-0.52c-0.508,0.026 -0.716,0.664 -0.859,1.002c-0.143,0.339 -0.378,0.469 -0.781,0.521c-0.404,0.052 -0.625,0.247 -0.912,0.833c-0.286,0.586 -0.312,1.485 -0.95,2.005c-0.638,0.521 -1.654,1.185 -1.81,1.654c-0.156,0.469 -0.326,3.359 -0.339,3.502c-0.013,0.144 0.352,0.313 0.352,0.313l15.156,-3.281Zm-30.026,2.005c0,-0 1.25,-2.461 1.81,-3.125c0.56,-0.664 2.787,-1.146 3.607,-1.315c0.82,-0.169 1.12,-0.573 1.875,-0.599c0.755,-0.026 3.008,0.612 3.568,1.029c0.559,0.416 1.874,2.76 2.07,3.424c0.195,0.664 0.221,1.588 0.221,1.588l-13.151,-1.002Zm58.922,-18.864c0,0 -1.49,-0.832 -2.045,-0.901c-0.555,-0.069 -2.53,-0.173 -3.709,0.173c-1.178,0.347 -3.951,1.872 -4.922,2.912c-0.97,1.04 -1.525,3.847 -1.317,5.407c0.208,1.56 0.832,3.015 0.832,3.015l11.161,-10.606Zm-4.172,-2.353l0.171,0.443c0,-0 -0.062,0.278 -0.31,0.433c-0.248,0.155 -0.464,0.434 -0.464,0.434l-0.651,0.155c0,-0 0.186,-0.434 -0.31,-0.434c-0.495,0 -0.495,0.341 -0.495,0.341c-0,-0 0.182,0.412 -0.127,0.474c-0.31,0.062 -0.751,0.343 -0.751,0.343l0.103,-1.282c0,0 0.558,-0.34 0.837,-0.464c0.279,-0.124 1.156,-0.435 1.156,-0.435l0.841,-0.008Z" style="fill:#7f6b65;"/></g><path d="M50.501,136.494l0.459,-0.496l-0.092,-0.423l0.551,-0.312c0,-0 0.423,-0.478 0.515,-0.625c0.092,-0.147 0.018,-0.055 0.294,-0.386c0.276,-0.331 0.404,-0.662 0.606,-0.68c0.203,-0.019 0.405,-0.202 0.754,0.037c0.349,0.239 0.588,0.477 0.772,0.716c0.184,0.239 0.625,0.607 0.827,0.938c0.202,0.33 0.441,0.459 0.514,0.845c0.074,0.386 0.276,0.331 0.184,0.753c-0.092,0.423 -0.9,1.397 -0.9,1.397l-4.484,-1.764Z" style="fill:#8b8488;"/></g></g></svg>