<?xml version="1.0" encoding="UTF-8" standalone="no"?><!DOCTYPE svg PUBLIC "-//W3C//DTD SVG 1.1//EN" "http://www.w3.org/Graphics/SVG/1.1/DTD/svg11.dtd"><svg width="100%" height="100%" viewBox="0 0 150 150" version="1.1" xmlns="http://www.w3.org/2000/svg" xmlns:xlink="http://www.w3.org/1999/xlink" xml:space="preserve" xmlns:serif="http://www.serif.com/" style="fill-rule:evenodd;clip-rule:evenodd;stroke-linejoin:round;stroke-miterlimit:2;"><path id="base" d="M150,75c0,-41.394 -33.606,-75 -75,-75c-41.394,0 -75,33.606 -75,75c0,41.394 33.606,75 75,75c41.394,0 75,-33.606 75,-75Z" style="fill:#72380a;"/><path id="outline" d="M144,75c0,-38.082 -30.918,-69 -69,-69c-38.082,0 -69,30.918 -69,69c0,38.082 30.918,69 69,69c38.082,0 69,-30.918 69,-69Z" style="fill:#140100;"/><path id="core" d="M141,75c0,-36.426 -29.574,-66 -66,-66c-36.426,0 -66,29.574 -66,66c0,36.426 29.574,66 66,66c36.426,0 66,-29.574 66,-66Z" style="fill:#faecc3;"/><clipPath id="_clip1"><path d="M141,75c0,-36.426 -29.574,-66 -66,-66c-36.426,0 -66,29.574 -66,66c0,36.426 29.574,66 66,66c36.426,0 66,-29.574 66,-66Z"/></clipPath><g clip-path="url(#_clip1)"><g id="burning-alexandiran-library"><path d="M15.425,66.764c0.527,-0 8.276,0.421 8.276,0.421l-1.054,1.265l0.105,9.225l5.535,0.053l1.212,-7.011l-0.052,-2.003l3.479,-1.476l7.221,0.633l0,0.527l-1.528,1.37l2.846,19.767l0.633,0.58l1.107,-10.911l0.949,-1.318l1.317,0.053l7.538,-2.32l-0.316,-6.009l1.581,-0.053l-0.316,-5.798c0,0 3.953,-0.422 4.428,-0.105c0.474,0.316 8.961,4.217 8.961,4.217l-0.053,2.161l0.527,6.483l7.749,2.583l4.375,0.738l0.317,-2.53l-1.055,-1.054l0.106,-0.738c6.468,-0.422 12.919,-1.492 19.451,0.474l0.105,0.475l0.264,-1.054l2.266,-0.422l3.268,-6.062l3.163,-2.741l2.267,0.105l0.052,-8.17l-0.896,-1.213l2.531,-3.795l17.922,0.791l2.794,2.477l6.378,-1.265l-1.877,66.285l-21.719,-3.409l-8.181,-1.364l-72.266,0c-21.565,5.417 -26.418,-13.921 -20.452,-49.281c-0,0 0.515,-0.581 1.042,-0.581Z" style="fill:#a39960;"/><clipPath id="_clip2"><path d="M15.425,66.764c0.527,-0 8.276,0.421 8.276,0.421l-1.054,1.265l0.105,9.225l5.535,0.053l1.212,-7.011l-0.052,-2.003l3.479,-1.476l7.221,0.633l0,0.527l-1.528,1.37l2.846,19.767l0.633,0.58l1.107,-10.911l0.949,-1.318l1.317,0.053l7.538,-2.32l-0.316,-6.009l1.581,-0.053l-0.316,-5.798c0,0 3.953,-0.422 4.428,-0.105c0.474,0.316 8.961,4.217 8.961,4.217l-0.053,2.161l0.527,6.483l7.749,2.583l4.375,0.738l0.317,-2.53l-1.055,-1.054l0.106,-0.738c6.468,-0.422 12.919,-1.492 19.451,0.474l0.105,0.475l0.264,-1.054l2.266,-0.422l3.268,-6.062l3.163,-2.741l2.267,0.105l0.052,-8.17l-0.896,-1.213l2.531,-3.795l17.922,0.791l2.794,2.477l6.378,-1.265l-1.877,66.285l-21.719,-3.409l-8.181,-1.364l-72.266,0c-21.565,5.417 -26.418,-13.921 -20.452,-49.281c-0,0 0.515,-0.581 1.042,-0.581Z"/></clipPath><g clip-path="url(#_clip2)"><path d="M40.908,102.932c0,-0.61 1.897,-20.189 1.897,-20.189l1.152,-4.471l15.989,-4.201l14.972,5.42l3.387,5.623l1.694,-7.317l-0.542,-1.829l19.444,-0.203l-1.355,1.829l1.423,10.162l13.414,0.475l-0.542,-4.404l11.043,0.407l-1.355,3.726l4.133,19.647l-0.475,9.214l-86.379,0.813c0,-0 2.1,-14.092 2.1,-14.702Z" style="fill:#b28b52;"/><path d="M49.851,121.156c0.068,-0.677 5.691,-32.519 5.691,-32.519l-1.219,-3.116l33.67,0.068l-1.355,3.455l0.271,0.677l14.228,0.542l-0.475,1.22l1.559,7.926l3.929,19.376c0,0 -56.367,3.049 -56.299,2.371Z" style="fill:#ca9f5f;"/></g><path d="M130.523,121.074l-17.649,-5.124l-77.453,0.623l-5.026,10.169c25.462,19.375 60.01,24.829 100.128,-5.668Z" style="fill:#b5bfcc;"/><path d="M128.615,80.781c-0.236,0.117 0.651,0.718 0.181,1.847c-0.47,1.128 -0.564,1.222 0.094,3.197c0.659,1.975 -0.188,0.753 1.223,2.822c1.41,2.069 1.599,2.351 2.445,4.232c0.846,1.881 1.222,3.949 1.505,5.83c0.282,1.881 -1.599,2.634 -1.505,4.985c0.094,2.351 -0.282,4.138 0.188,5.36c0.47,1.223 -3.574,4.326 -4.702,4.891c-1.129,0.564 -0.941,1.41 -3.762,-0.659c-2.821,-2.069 -1.411,-1.787 -4.044,-3.103c-2.633,-1.317 -0.564,0.094 -4.232,-3.762c-3.668,-3.856 -3.95,-3.009 -3.95,-4.232c0,-1.223 -0.188,-1.129 0.659,-3.292c0.846,-2.163 -1.317,-2.539 0.376,-4.137c1.693,-1.599 1.316,0.564 4.138,-2.634c2.821,-3.197 2.539,-3.667 3.291,-4.326c0.753,-0.658 3.48,1.599 2.069,-1.599c-1.41,-3.197 0.188,-2.539 -1.975,-4.232c-2.163,-1.692 -4.138,-0.094 -3.291,-3.103c0.846,-3.009 2.069,-3.48 1.128,-4.796c-0.94,-1.317 -2.821,-0.564 -1.787,-2.445c1.035,-1.881 0.941,-2.446 3.104,-4.42c2.163,-1.975 3.385,-1.035 2.915,-3.574c-0.47,-2.539 -0.846,-0.752 -0.846,-3.574c-0,-2.821 1.787,-1.505 0.188,-3.856c-1.599,-2.351 -1.787,-0.376 -1.693,-2.727c0.094,-2.351 0.47,-4.326 1.599,-5.643c1.128,-1.316 -1.693,-1.41 1.317,-2.727c3.009,-1.316 3.291,-2.539 4.514,-1.787c1.222,0.753 1.41,-1.41 1.316,1.129c-0.094,2.539 0.565,-0.847 0.753,3.479c0.188,4.327 1.222,3.668 -0.659,5.549c-1.881,1.881 -1.881,0.752 -2.069,2.163c-0.188,1.411 -0.282,0.658 0.094,2.445c0.377,1.787 0.941,1.317 0.094,2.822c-0.846,1.504 -2.445,1.975 -2.445,1.975c0,-0 -0.752,0.752 -0.188,2.445c0.564,1.692 0.564,0.376 0.847,2.633c0.282,2.257 0.846,1.693 -0.753,3.762c-1.599,2.069 -2.633,0.376 -1.693,2.821c0.941,2.445 0.283,0.752 1.787,4.232c1.505,3.48 -0.188,4.42 1.787,3.574c1.245,-0.534 1.755,-1.665 1.982,-1.565Zm-69.445,31.559c-0.288,0.036 -0.845,0.121 -1.847,0.288c-3.386,0.564 -3.104,0.47 -4.891,0.752c-1.787,0.282 0.941,0.094 -3.009,-0.282c-3.95,-0.376 -3.104,-1.034 -4.326,-0.47c-1.223,0.564 1.034,1.317 -1.975,0.752c-3.01,-0.564 -2.539,-0.282 -3.668,-0.94c-1.128,-0.658 -0.47,-1.035 -1.975,-1.129c-1.505,-0.094 -3.856,0.188 -3.95,-0.846c-0.094,-1.035 0.753,0.752 0.753,-1.975c-0,-2.727 4.044,0.564 -0.094,-3.762c-4.138,-4.326 -3.668,-3.479 -4.232,-4.42c-0.565,-0.94 -1.411,-2.163 -1.787,-3.291c-0.376,-1.129 -2.539,-3.668 -0.753,-4.326c1.787,-0.659 0.283,-2.258 2.822,0.752c2.539,3.009 3.573,8.088 3.573,3.291c0,-4.796 0,-4.326 0.189,-5.83c0.188,-1.505 1.222,-0.753 0.188,-2.257c-1.035,-1.505 -1.881,-2.446 -1.881,-2.446l-1.599,-1.504c-0,-0 0.564,-2.633 -3.574,-1.787c-4.138,0.846 -4.89,1.881 -5.36,-0.941c-0.47,-2.821 -1.035,-2.821 -0.564,-5.078c0.47,-2.257 0.376,-2.069 1.128,-4.044c0.752,-1.975 1.317,-2.257 1.411,-3.762c0.094,-1.504 0.47,-1.786 -0.376,-2.445c-0.847,-0.658 -0.283,-8.182 0.846,-7.523c1.128,0.658 2.821,1.034 2.539,2.069c-0.282,1.034 -2.257,-1.599 -0.658,2.351c1.599,3.95 1.787,7.9 1.787,7.9c-0,-0 -0.377,-0.847 0.564,1.786c0.94,2.634 0.94,2.54 1.599,3.386c0.658,0.846 -0.377,0.376 2.069,0.752c2.445,0.377 3.009,-0.846 3.95,1.223c0.94,2.069 1.316,1.317 0.846,2.915c-0.47,1.599 -2.163,0.659 -0.376,2.163c1.787,1.505 1.975,0.471 2.257,2.163c0.282,1.693 0.846,1.129 1.599,2.54c0.752,1.41 -0.377,1.692 1.786,1.692c2.163,0 3.574,-0.658 3.574,-0.658c0,-0 0.752,-1.599 1.787,-1.129c1.034,0.471 0.376,0.095 1.505,0.471c1.128,0.376 1.504,-0 2.445,1.316c0.94,1.317 0.188,1.599 1.034,2.351c0.847,0.753 2.539,0.188 3.104,0.941c0.564,0.752 0.94,0.47 1.222,1.881c0.282,1.41 0.565,0.94 -0.282,2.257c-0.846,1.316 -1.881,0.094 -0.94,1.41c0.94,1.317 0.658,1.035 1.598,1.317c0.941,0.282 0.753,-2.163 1.881,0c1.129,2.163 1.035,4.796 2.728,6.113c1.692,1.317 2.069,2.821 1.222,3.292c-0.846,0.47 0.847,0.188 -1.034,1.128c-1.474,0.737 -2.486,1.359 -2.855,1.593Zm-0,-0c0.684,-0.087 -0.155,0.1 -0.155,0.1c0,-0 0.053,-0.035 0.155,-0.1Zm73.952,-28.584c-0.819,-0.298 -1.7,-4.283 -1.316,-4.326c1.692,-0.188 -0.753,-2.163 2.915,-0.094c3.668,2.069 4.044,0.941 4.42,2.539c0.376,1.599 0.564,1.505 0.564,3.48c0,1.975 0.847,0 -0.094,4.138c-0.94,4.138 -1.128,7.241 -3.009,4.796c-1.881,-2.445 -1.035,-6.489 -1.881,-8.276c-0.846,-1.786 -0.564,-1.88 -1.599,-2.257Zm-86.692,-5.695c-2.163,-0.752 -2.744,-3.991 -2.18,-5.778c0.565,-1.787 1.035,-0.846 1.693,-3.104c0.658,-2.257 1.223,-1.128 0.188,-3.197c-1.034,-2.069 -1.222,-2.163 -1.316,-3.48c-0.094,-1.316 -0.565,-0.47 -0.188,-2.351c0.376,-1.881 0.564,-1.693 0.846,-3.479c0.282,-1.787 2.163,-1.599 -0.47,-3.01c-2.634,-1.41 -2.822,-1.034 -3.856,-2.351c-1.035,-1.317 -2.633,-0.658 -1.599,-2.257c1.035,-1.599 1.693,-2.821 4.138,-2.069c2.445,0.752 -0.658,0.094 3.856,1.693c4.514,1.599 5.549,1.599 8.934,2.163c3.386,0.564 2.727,-1.223 4.138,0.47c1.411,1.693 0.376,1.787 2.257,2.539c1.881,0.753 3.574,-0.188 5.173,0.282c1.598,0.471 -1.317,-1.034 2.351,0.565c3.667,1.598 3.479,0.846 5.736,2.445c2.257,1.599 1.129,0.282 2.822,1.693c1.692,1.41 3.667,-0.565 6.113,-0.283c2.445,0.283 1.504,0 4.043,0c2.54,0 2.634,-0.846 5.267,0.095c2.633,0.94 2.257,0.188 4.232,2.068c1.975,1.881 1.034,-1.222 2.821,2.258c1.787,3.479 1.599,2.633 1.975,4.043c0.376,1.411 0.753,1.975 0.753,2.822c-0,0.846 1.316,0.188 1.786,1.881c0.471,1.692 1.223,1.975 1.317,2.915c0.094,0.94 2.257,3.198 -1.881,2.727c-4.138,-0.47 -4.42,1.129 -5.172,0.471c-0.753,-0.659 0.188,-0.565 -2.916,-2.258c-3.103,-1.692 -1.598,-4.137 -3.95,-2.163c-2.351,1.975 1.035,1.787 -2.915,2.728c-3.95,0.94 -4.044,0.094 -5.925,-0c-1.881,-0.094 -1.222,-2.916 -3.103,0.188c-1.881,3.103 -0.282,3.856 -1.411,4.984c-1.128,1.129 0.188,1.881 -4.608,0.847c-4.796,-1.035 -7.9,-4.985 -8.652,-5.643c-0.752,-0.658 1.599,-2.633 -3.009,-1.975c-4.609,0.658 -0,-0.376 -6.301,1.411c-6.301,1.787 -8.824,2.862 -10.987,2.11Z" style="fill:#6c2018;"/><path d="M58.446,117.556c-0.66,-1.087 -0.583,-1.514 0.038,-2.096c0.621,-0.582 0.466,-0.311 1.048,-1.475c0.583,-1.165 1.204,-1.087 0.854,-1.941c-0.349,-0.854 0.816,-0.504 1.708,0.505c0.893,1.009 1.708,0.582 1.204,1.669c-0.505,1.087 -1.165,1.863 -1.475,2.251c-0.311,0.388 -0.233,0.388 -0.854,0.738c-0.621,0.349 -1.864,1.436 -2.523,0.349Zm-7.803,-0.272c-0.582,-1.475 -0.698,-2.445 -1.319,-2.988c-0.621,-0.544 -1.126,-0.117 -1.243,-0.66c-0.116,-0.544 1.01,-1.281 1.437,-2.135c0.427,-0.854 0.427,-1.048 0.737,-1.631c0.311,-0.582 0.35,0.311 0.272,1.359c-0.078,1.048 0.039,1.708 0.233,2.213c0.194,0.504 0.466,0.815 0.893,1.164c0.427,0.349 0.97,0.543 1.436,0.699c0.466,0.155 1.126,0.97 0.272,1.591c-0.854,0.621 -2.135,1.863 -2.718,0.388Zm-8.966,-0.854c-0.194,-0.892 -0.194,-0.776 -0.388,-1.94c-0.195,-1.165 -0.893,0.737 -0.311,-2.096c0.582,-2.834 0.272,-2.213 0.66,-0.854c0.388,1.358 1.32,2.096 1.397,2.678c0.078,0.582 0.388,0.233 0.777,1.048c0.388,0.815 1.087,1.281 0.155,1.242c-0.932,-0.039 -2.096,0.815 -2.29,-0.078Zm-6.793,-2.251c-1.459,-0.729 -1.398,-0.621 -1.825,-1.591c-0.427,-0.971 -2.057,-1.708 -0.621,-1.98c1.437,-0.272 1.98,1.475 2.523,-0.078c0.544,-1.552 -0.116,-1.048 0.738,-2.445c0.854,-1.398 1.281,-1.863 1.281,-1.863c-0,-0 -0.427,1.708 -0.621,2.367c-0.194,0.66 -0.544,1.087 -0.544,1.786c0,0.699 0.233,1.32 0.35,1.941c0.116,0.621 -0.738,2.135 -1.281,1.863Zm16.467,-28.328c0,-0 -0.18,0.18 -0.216,-0.543c-0.037,-0.723 -0.326,-0.506 -0.073,-1.663c0.253,-1.156 0.651,-0.759 0,-1.735c-0.65,-0.976 -1.084,-0.614 -0.831,-1.663c0.253,-1.048 0.253,-1.374 0.723,-2.169c0.47,-0.795 0.723,-1.482 1.12,-1.952c0.398,-0.47 0.868,-1.699 0.868,-1.699c0,-0 0.868,0.542 0.542,1.157c-0.325,0.614 -0.289,0.361 -0.687,0.904c-0.397,0.542 -0.831,0.686 -0.361,1.699c0.47,1.012 1.012,1.409 1.048,2.06c0.036,0.651 0.145,1.735 -0.325,2.386c-0.47,0.651 -0.651,-0.072 -0.759,0.723c-0.109,0.795 -0.362,2.025 -0.362,2.025l-0.687,0.47Zm50.58,-12.455c0.021,0.633 0.134,2.073 0.718,2.658c0.759,0.759 1.266,1.446 1.121,2.133c-0.145,0.686 -0.217,1.301 -0.217,1.301c-0,0 0.723,-2.024 0.325,-3.254c-0.397,-1.229 -0.18,-0.65 -0.578,-1.807c-0.398,-1.157 -1.338,-1.121 -0.47,-1.338c0.868,-0.217 1.554,0.579 1.41,0.037c-0.145,-0.543 0.217,-0.723 -0.615,-1.049c-0.831,-0.325 -1.988,-0.759 -0.542,-0.542c1.446,0.217 1.482,0.325 1.988,0.253c0.506,-0.072 0.543,-0.506 1.193,-0.145c0.651,0.362 -0.18,-0.433 1.013,0.651c1.192,1.085 1.988,0.759 1.518,2.169c-0.47,1.41 -0.94,1.121 -0.651,2.35c0.289,1.229 1.012,0.759 0.506,1.844c-0.506,1.084 -0.795,0.939 -1.012,1.771c-0.217,0.831 -0.253,1.916 -0.542,2.603c-0.289,0.687 -0.506,2.097 -1.012,2.06c-0.507,-0.036 -0.868,-0.47 -0.868,-0.47l-0.072,-0.867l-1.085,1.084c0,0 -0.181,-1.807 -0.036,-2.494c0.145,-0.687 -0.47,0.072 -0.47,0.072c-0,0 -0.94,0.434 -1.193,1.012c-0.253,0.579 -1.193,0.832 -1.193,0.832c-0.217,-0.289 -1.048,0.145 -0.398,-0.868c0.651,-1.012 1.157,-0.976 1.121,-1.952c-0.036,-0.976 -0.361,-0.542 -0.217,-1.952c0.145,-1.41 0.217,-1.374 0.253,-2.82c0.028,-1.112 0.013,-2.63 0.005,-3.272c-0.007,-0.19 -0.005,-0.307 -0.005,-0.307c0,0 0.002,0.114 0.005,0.307Zm-37.059,11.009c-0.362,-0.615 -0.615,-1.049 -0.145,-1.808c0.47,-0.759 -0.108,-0.831 0.796,-1.048c0.903,-0.217 1.192,0.325 1.554,-0.615c0.361,-0.94 -0.036,-0.651 0.687,-1.807c0.723,-1.157 0.831,-2.025 0.831,-2.025c0,0 0.543,-0.145 0.651,0.651c0.108,0.795 0.072,0.831 0.325,1.518c0.253,0.687 0.47,0.723 -0.072,1.41c-0.542,0.687 -0.614,0.868 -0.904,1.265c-0.289,0.398 -0.072,0.036 -0.578,0.796c-0.506,0.759 -1.012,1.156 -1.518,1.229c-0.507,0.072 -1.266,1.048 -1.627,0.434Zm-19.341,-0.145c-0.687,-0.036 -0.759,-0.217 -1.193,-0.47c-0.434,-0.253 -0.47,-0.542 -1.12,-0.542c-0.651,-0 -1.121,-0.253 -1.266,-0.723c-0.144,-0.47 -0.253,-0.181 -0.217,-1.085c0.037,-0.904 -0.144,-0.795 0.217,-1.627c0.362,-0.831 0.904,-0.795 0.723,-1.699c-0.18,-0.903 -0.614,-0.65 -0.289,-1.59c0.325,-0.94 0.181,-1.121 1.012,-1.989c0.832,-0.867 1.085,-0.867 1.519,-1.699c0.433,-0.831 0.433,-1.012 0.686,-1.699c0.254,-0.687 0.615,-1.229 0.832,-1.807c0.217,-0.579 0.578,-1.302 0.578,-1.302l0.181,-0.614c0,-0 0.615,1.771 0.542,2.639c-0.072,0.867 0.326,0.687 0.073,1.916c-0.253,1.229 -0.036,-0 -0.47,1.663c-0.434,1.663 -0.976,2.856 -0.976,2.856c-0,-0 1.301,0.614 0.903,0.831c-0.397,0.217 -3.289,0.759 -3.325,1.121c-0.037,0.361 1.59,2.53 1.807,2.928c0.217,0.398 0.47,0.542 0.398,1.048c-0.073,0.506 0.072,1.88 -0.615,1.844Zm24.185,-0.253c-0.145,-0.434 -0.398,-0.868 -0,-0.976c0.398,-0.109 0.289,0.434 0.723,-0.398c0.434,-0.831 0.578,-0.795 0.687,-1.735c0.108,-0.94 0.181,-1.048 0.434,-1.844c0.253,-0.795 0.108,-0.904 0.506,-1.554c0.397,-0.651 0.289,-0.543 0.506,0.072c0.217,0.615 0.47,-0.181 0.181,0.94c-0.29,1.121 -0.832,0.036 -0.434,1.41c0.397,1.374 0.867,1.374 0.651,2.133c-0.217,0.759 -0.507,0.94 -0.977,1.446c-0.469,0.506 -1.879,0.578 -1.879,0.578c-0,0 -0.253,0.362 -0.398,-0.072Zm-8.379,-11.079c0.075,0.194 0.67,1.768 0.534,2.547c-0.144,0.832 -0.47,1.121 -0.18,1.699c0.289,0.579 0.289,0.398 0.976,1.013c0.686,0.614 0.976,1.337 0.723,2.024c-0.253,0.687 -0.47,0.904 -0.579,1.41c-0.108,0.506 -1.229,2.856 -2.639,2.458l0.007,-0.007c0.293,-0.283 0.933,-0.36 0.933,-1.077c0,-0.723 0.072,-0.723 0,-1.808c-0.072,-1.084 -0.144,-1.157 -0.072,-1.916c0.072,-0.759 0.144,-0.434 -0,-1.735c-0.145,-1.302 -0.253,-1.699 -0.072,-2.748c0.18,-1.048 0.361,-1.879 0.361,-1.879l0.008,0.019Zm-1.176,10.058c-0.466,-0.364 -0.928,-1.084 -0.82,-2.16c0.108,-1.085 -0,-1.049 0.253,-1.591c0.253,-0.542 0.795,-0.506 0.795,-0.506c0,-0 -0.325,1.446 -0.108,1.735c0.217,0.289 0.289,0.47 0.289,1.157c-0,0.644 -0.35,1.288 -0.393,1.366l-0.005,0.008l0,1.084c-0.289,0.289 0,-1.084 0,-1.084l-0.011,-0.009Zm15.086,-0.028c-0.526,0.022 -0.145,-0.325 0.036,-1.409c0.181,-1.085 0.904,-1.989 0.723,-2.422c-0.181,-0.434 -0.578,-0.687 -0.036,-1.121c0.542,-0.434 0.759,0.398 0.832,-0.795c0.072,-1.193 0.397,-1.193 0.216,-2.495c-0.18,-1.301 -0.506,-3.217 -0.18,-3.506c0.325,-0.29 2.566,-1.338 2.566,-1.338c0,-0 -0.325,0.904 -0.578,1.988c-0.253,1.085 -0.289,0.904 -0.325,2.458c-0.037,1.555 0.253,1.374 -0.073,2.676c-0.325,1.301 -0.325,2.133 -0.506,2.964c-0.181,0.831 -0.036,2.892 -2.675,3Zm-18.22,-0.18c0,-0 0,0.144 -0.361,-0.94c-0.362,-1.085 -0.579,-1.049 -0.398,-1.844c0.181,-0.795 0.253,-0.867 0.361,-1.518c0.109,-0.651 0.037,-0.47 0.145,-1.265c0.109,-0.796 1.265,1.12 1.265,1.12c0,0 -0.433,0.326 -0.217,1.121c0.217,0.795 0,0.831 0.253,1.446c0.254,0.614 0.398,0.398 0.326,0.976c-0.072,0.578 -1.374,0.904 -1.374,0.904Zm25.269,-7.447c-0.723,-0.723 -0.614,-0.868 -0.867,-1.482c-0.253,-0.615 -0.615,-0.579 -0.687,-1.23c-0.072,-0.65 0.181,0.253 0.145,-1.301c-0.037,-1.554 0.072,-1.265 -0.037,-2.133c-0.108,-0.868 0.145,-1.374 0.145,-1.374c-0,0 1.121,1.41 1.121,2.133c-0,0.723 -0.253,1.555 -0.362,2.025c-0.108,0.47 1.41,0.759 1.772,1.301c0.361,0.542 0.614,1.627 0.939,1.012c0.326,-0.614 0,-1.554 0.579,-2.169c0.578,-0.614 0.542,-0.47 0.976,-1.482c0.434,-1.012 0.651,-1.699 0.651,-1.699c-0,0 0.542,1.229 0.217,1.988c-0.326,0.759 -0.47,0.253 -0.615,1.157c-0.145,0.904 -0.506,2.856 -0.072,3.109c0.433,0.253 0.18,0.506 0.18,0.506c0,0 -1.807,-0.904 -2.602,-0.759c-0.796,0.145 -0.76,1.121 -1.483,0.398Zm10.728,-9.321c0.023,-0.073 0.124,-0.22 0.479,-0.512c0.615,-0.506 0.615,-1.591 1.229,-0.796c0.615,0.796 0.109,1.699 0.47,2.278c0.362,0.578 0.217,0.181 0.579,0.976c0.361,0.795 0.433,0.94 0.795,1.338c0.361,0.397 0.253,-0.037 0.506,0.65c0.253,0.687 0.289,1.555 0.615,1.916c0.325,0.362 1.012,1.302 1.012,1.302c-0,-0 0.651,0.47 1.12,0.108c0.47,-0.361 1.374,-0.687 1.374,-0.687c0,0 -0.217,0.326 -0.542,1.121c-0.325,0.795 0.217,0.687 -0.759,1.229c-0.976,0.542 -1.627,0.759 -1.627,0.759l-10.845,-0.144c-0,-0 0.434,-0.868 0.651,-1.699c0.216,-0.832 0.144,-0.687 0.542,-1.302c0.397,-0.614 0.506,-0.398 0.434,-0.795c-0.073,-0.398 0.686,-0.723 0.542,-2.097c-0.145,-1.374 -0.217,-1.265 -0.109,-2.205c0.109,-0.94 0.398,-1.229 -0.144,-1.699c-0.542,-0.47 -0.036,-1.157 0.361,-0.759c0.398,0.397 1.591,1.301 1.627,1.879c0.036,0.579 -0.145,1.591 0.253,0.398c0.398,-1.193 0.289,-1.084 0.506,-1.518c0.217,-0.434 -0.072,-1.265 0.398,-0.832c0.384,0.355 0.502,0.903 0.533,1.091c-0.017,0.053 0.009,0.066 0.009,0.066c0,0 -0.002,-0.024 -0.009,-0.066Zm-29.103,8.606c-0.015,-0.04 -0.035,-0.09 -0.061,-0.153c-0.29,-0.687 -0.253,-0.759 -0.29,-1.518c-0.036,-0.759 -0.289,-1.085 0.037,-2.169c0.325,-1.085 0.542,-0.796 0.723,-1.844c0.18,-1.048 -0,-1.988 -0.145,-2.856c-0.145,-0.867 -0.289,-2.711 -0.289,-2.711c-0,-0 0.867,1.663 1.084,2.603c0.217,0.94 0.181,1.265 0.109,1.88c-0.073,0.614 -0.217,-0.145 0.036,1.012c0.253,1.157 -0.362,1.88 -0.181,2.711c0.181,0.832 0.759,1.844 0.651,2.241c-0.109,0.398 -1.049,1.302 -1.482,0.904c-0.131,-0.119 -0.179,-0.128 -0.192,-0.1l0,-0c0.1,0.262 -0.025,0.056 0,0l0,-0Zm-11.196,-5.069c-1.375,-0.207 -0.976,-0.796 -0.904,-2.676c0.073,-1.879 0.037,-1.554 0.109,-2.422c0.072,-0.867 0.072,-0.831 0.253,-1.771c0.181,-0.94 0.145,-1.265 0.398,-1.88c0.253,-0.614 1.518,-1.663 1.518,-1.663c-0,0 -0.325,0.615 -0.759,1.121c-0.434,0.506 -0.47,0.144 -0.47,0.795c-0,0.651 0.072,0.036 -0,0.94c-0.073,0.904 -0,0.904 -0.073,1.627c-0.072,0.723 -0.361,0.108 -0.108,1.301c0.253,1.193 0.072,0.94 0.47,1.736c0.398,0.795 0.434,0.976 0.47,1.735c0.036,0.759 -0.181,1.265 -0.904,1.157Zm3.724,-1.049c-0.073,-0.361 -0.579,-0.723 -0.723,-1.229c-0.145,-0.506 -0.398,0.072 -0.109,-1.084c0.289,-1.157 0.326,-0.76 0.362,-2.133c0.036,-1.374 0.976,-1.266 0.253,-2.531c-0.723,-1.265 -0.723,-1.337 -0.723,-1.337c-0,-0 1.446,1.409 1.446,2.277c-0,0.868 -0.109,0.94 -0.253,1.699c-0.145,0.759 -0.434,0.434 -0.109,1.229c0.326,0.796 0.398,0.506 0.506,1.157c0.109,0.651 -0.578,2.314 -0.65,1.952Zm4.519,-0.904c-0.638,-0.136 -0.977,0.073 -0.723,-0.831c0.253,-0.904 1.012,-0.651 0.903,-1.952c-0.108,-1.302 0,-1.916 0.036,-2.784c0.037,-0.867 0.109,-1.518 0.109,-1.518c-0,-0 0.867,1.229 1.301,2.061c0.434,0.831 0.579,0.614 0.615,2.169c0.036,1.554 0.361,1.518 0.072,2.024c-0.289,0.506 -1.807,0.94 -2.313,0.831Z" style="fill:#ede59d;"/><path d="M11.49,53.883l-0,6.866l1.053,0.781l0,0.312l1.015,0.507c-0,0 -0.156,0.624 -0.117,0.975c0.039,0.352 0.429,0.937 0.429,0.937l0.936,0.351l0.195,0.819l0.585,1.015l0.078,1.56l1.99,0.586l-0.014,0.693c0,-0 -1.884,0.87 -1.919,1.746c-0.035,0.876 -0.052,1.533 -0.052,1.533l3.588,26.189l6.146,0.323l0.241,0.573l-0.744,0.197l-0.145,0.579l-0.314,0.846l0.193,2.753l2.295,11.909l8.526,0.217c0,0 0.677,-0.024 0.725,0.676c0.048,0.701 -0.58,1.474 -0.58,1.474l0.362,0.217l1.305,10.99c-16.891,-9.97 -39.51,-40.719 -25.777,-75.624Z" style="fill:#937e5f;"/><path d="M76.399,129.765c-0.038,-0.145 -0.079,-0.3 -0.122,-0.466c-0.909,-3.452 -0.969,-3.331 -1.212,-4.845c-0.242,-1.514 -0.363,-1.575 -0.06,-2.786c0.303,-1.212 0.181,-2.726 0.181,-2.726c0,0 1.333,1.696 1.393,3.15c0.061,1.453 -0.181,1.393 0.727,2.604c0.909,1.211 0.727,0.424 1.514,2.362c0.788,1.938 1.212,3.15 1.999,4.543c0.787,1.393 0.909,2.301 1.514,3.876c0.606,1.575 0.485,0.727 1.454,1.998c0.969,1.272 -0.666,3.513 -0.666,3.513c-0,0 -6.481,2.241 -6.178,0.243c0.303,-1.999 2.362,-3.816 1.696,-4.967c-0.667,-1.151 -0.788,-0.969 -1.333,-3.028c-0.511,-1.932 -0.17,-0.666 -0.876,-3.352c-0.009,0.007 -0.02,0.014 -0.032,0.021c-0.606,0.363 -1.514,1.393 -3.392,1.514c-1.878,0.121 -1.09,0.121 -2.725,0.06c-1.636,-0.06 -6.905,0.182 -9.873,-2.967l2.181,0.363c-0,0 3.149,0.787 4.724,1.03c1.575,0.242 2.059,0.181 3.573,0.303c1.514,0.121 2.423,0.121 3.15,-0.061c0.551,-0.138 1.971,-0.415 2.363,-0.382Zm7.933,-6.644l0.303,-0.666c-0,0 6.541,2.12 7.934,2.544c1.393,0.424 2.059,-1.938 2.12,-2.544c0.06,-0.606 0.666,-3.573 0.666,-3.573l1.151,0.242l1.332,1.332l-0.606,3.695c0,-0 0.424,1.635 1.817,1.817c1.393,0.182 3.089,0.545 3.089,0.545l1.333,-4.179l-0.727,-1.09l1.756,-1.333l4.785,-0.121l0.242,1.212l5.815,-0.243l-0.545,1.333l0.545,4.36l2.483,0.546l-3.573,5.693l-8.419,0.303c-0,-0 -5.996,0.908 -7.147,0.06c-1.151,-0.848 -13.325,-8.54 -14.354,-9.933Zm-44.88,7.511c0,-0 -0.484,-1.091 -0.121,-2.12c0.364,-1.03 0.545,-1.333 0.545,-1.333c0,0 1.091,0.424 1.878,0.243c0.787,-0.182 0.848,-0.606 1.938,-1.03c1.09,-0.424 1.756,-0.666 2.604,-0.909c0.848,-0.242 1.636,-0.666 1.636,-0.666l1.211,-0.363c-0,-0 -1.332,2.241 -1.272,2.907c0.061,0.666 -1.756,1.09 -2.18,1.454c-0.424,0.363 -3.876,2.786 -6.239,1.817Z" style="fill:#87765d;"/></g></g></svg>