<?xml version="1.0" encoding="UTF-8" standalone="no"?><!DOCTYPE svg PUBLIC "-//W3C//DTD SVG 1.1//EN" "http://www.w3.org/Graphics/SVG/1.1/DTD/svg11.dtd"><svg width="100%" height="100%" viewBox="0 0 150 150" version="1.1" xmlns="http://www.w3.org/2000/svg" xmlns:xlink="http://www.w3.org/1999/xlink" xml:space="preserve" xmlns:serif="http://www.serif.com/" style="fill-rule:evenodd;clip-rule:evenodd;stroke-linejoin:round;stroke-miterlimit:2;"><path id="base" d="M150,75c0,-41.394 -33.606,-75 -75,-75c-41.394,0 -75,33.606 -75,75c0,41.394 33.606,75 75,75c41.394,0 75,-33.606 75,-75Z" style="fill:#72380a;"/><path id="outline" d="M144,75c0,-38.082 -30.918,-69 -69,-69c-38.082,0 -69,30.918 -69,69c0,38.082 30.918,69 69,69c38.082,0 69,-30.918 69,-69Z" style="fill:#140100;"/><path id="core" d="M141,75c0,-36.426 -29.574,-66 -66,-66c-36.426,0 -66,29.574 -66,66c0,36.426 29.574,66 66,66c36.426,0 66,-29.574 66,-66Z" style="fill:#faecc3;"/><clipPath id="_clip1"><path d="M141,75c0,-36.426 -29.574,-66 -66,-66c-36.426,0 -66,29.574 -66,66c0,36.426 29.574,66 66,66c36.426,0 66,-29.574 66,-66Z"/></clipPath><g clip-path="url(#_clip1)"><g id="emigration"><path d="M111.188,129.839c-0.04,-0.844 -0.08,-1.327 -0.362,-2.413c-0.281,-1.085 -0.482,-2.211 -0.281,-2.935c0.201,-0.724 0.402,-2.533 0.161,-2.252c-0.242,0.282 -0.804,0.805 -0.845,1.408c-0.04,0.603 -0.321,1.286 -0.603,0.925c-0.281,-0.362 -0.161,-1.287 -0.643,-1.488c-0.483,-0.201 -0.845,0.04 -0.684,-0.362c0.161,-0.402 0.443,-1.005 0.483,-1.568c0.04,-0.563 0.402,-1.769 0.683,-2.373c0.282,-0.603 0.644,-1.648 0.925,-1.97c0.282,-0.321 2.252,-0.965 1.93,-1.648c-0.321,-0.684 -0.523,-0.764 -1.166,-0.965c-0.643,-0.201 -1.488,-1.046 -1.488,-1.046c0,0 -0.683,-1.367 0.242,-1.447c0.924,-0.081 1.608,-0.041 1.608,-0.041c0,0 0.201,-0.643 0.724,-0.361c0.523,0.281 1.126,0.804 1.126,0.804c-0,-0 -0.121,0.241 0.482,0.362c0.603,0.12 0.442,0.402 0.04,0.643c-0.402,0.241 -0.563,0.362 -0.241,0.764c0.322,0.402 0.885,0.804 0.885,0.804c-0,0 -0.322,0.402 -0,0.643c0.321,0.242 0.764,-0.12 1.286,0.684c0.523,0.804 1.207,1.126 1.368,2.051c0.16,0.925 0.281,2.01 0.442,2.975c0.161,0.965 0.322,2.815 0.241,3.418c-0.08,0.603 -0.764,1.689 -1.086,1.246c-0.321,-0.442 -0.281,-0.723 -0.482,-1.568c-0.201,-0.844 -0.322,-3.015 -0.563,-3.699c-0.241,-0.684 -0.523,-0.281 -0.362,0.04c0.161,0.322 0.241,1.408 0.322,2.051c0.08,0.643 0.12,1.93 0.08,2.654c-0.04,0.723 -0.281,0.723 -0.08,1.809c0.201,1.086 -0.764,2.895 -0.764,2.895c-0,0 -3.338,0.804 -3.378,-0.04Zm-9.369,-6.996c-0.436,0.29 -0.643,-0.523 -0.683,-1.448c-0.04,-0.925 0.241,-2.372 -0.04,-2.895c-0.282,-0.523 -0.242,-0.844 -0.885,-1.327c-0.643,-0.482 -0.433,-0.906 -0.875,-0.987c-0.442,-0.08 -0.284,0.977 -0.29,1.78c-0.006,0.773 -0.041,0.775 -0.122,1.298c-0.08,0.523 -0.12,2.413 -0.643,2.051c-0.523,-0.362 -0.643,-1.327 -0.804,-1.971c-0.161,-0.643 -0.04,-1.809 0.04,-2.372c0.081,-0.563 0.885,-2.211 0.483,-2.493c-0.402,-0.281 -1.528,-1.447 -1.528,-1.447l-0.443,0.764c0,-0 -0.683,-0.805 -0.844,-1.247c-0.161,-0.442 0.322,-0.724 0.322,-1.126c-0,-0.402 0.884,-3.458 0.643,-3.739c-0.241,-0.282 -0.241,-0.121 -0.523,-0.684c-0.281,-0.563 -0.362,-1.528 -0.241,-2.533c0.121,-1.005 0.523,-1.809 0.643,-2.332c0.121,-0.523 0.885,-0.684 0.201,-1.528c-0.683,-0.845 -0.603,-0.684 -0.844,-0.161c-0.241,0.523 -0.885,2.895 -0.885,2.212c0,-0.684 0.161,-2.936 0.443,-3.298c0.281,-0.361 1.206,-1.246 1.568,-1.327c0.362,-0.08 1.086,-0.08 1.528,0.885c0.442,0.965 -0.081,1.166 0.04,1.81c0.121,0.643 0.523,0.16 1.528,1.206c1.005,1.045 0.965,1.126 0.965,1.126c0,-0 -1.126,-0.081 -1.086,0.563c0.041,0.643 0.925,1.045 0.925,1.045c0,0 1.046,0.08 1.247,1.045c0.201,0.965 0.402,1.368 0.522,2.051c0.121,0.684 0,1.689 0.563,1.729c0.563,0.04 1.448,0.201 1.448,0.201c-0,0 0.322,0.644 -0.201,0.804c-0.523,0.161 -2.011,1.247 -2.011,1.247c0,-0 -0.321,0.161 -0.201,0.884c0.121,0.724 -0.281,1.85 -0.04,2.574c0.241,0.724 0.08,2.855 0.201,3.377c0.121,0.523 0.362,3.941 -0.121,4.263Zm-18.255,-26.941c0.475,-0.098 1.207,0.644 1.408,1.166c0.201,0.523 0.563,1.287 0.643,1.729c0.081,0.443 0.402,1.448 0.523,1.971c0.121,0.522 0.281,1.327 0.643,1.447c0.362,0.121 -0.804,-0.08 -1.166,0.04c-0.362,0.121 -0.12,-0.241 -0.201,0.885c-0.08,1.126 -0.08,2.573 -0.08,3.177c-0,0.603 -0.282,1.608 -0.242,2.292c0.041,0.683 0.121,1.527 -0.04,2.291c-0.161,0.764 -0.08,1.207 -0.643,1.368c-0.563,0.16 -1.126,0.321 -1.287,-0.121c-0.161,-0.442 0.362,-1.407 -0.12,-1.568c-0.483,-0.161 -0.322,1.246 -1.006,1.206c-0.683,-0.04 -0.522,-0.362 -0.281,-1.488c0.241,-1.126 -0.04,-2.292 -0.04,-3.015c-0,-0.724 0.201,-2.574 0.161,-3.177c-0.041,-0.603 -0.282,-1.447 -0.322,-2.131c-0.04,-0.684 -0.241,-2.614 0.281,-2.855c0.523,-0.241 0.644,-0.12 0.965,-0.402c0.322,-0.281 -0.362,-2.573 0.804,-2.815Zm10.535,15.24c0,-0 -1.005,0.844 -1.528,0.643c-0.522,-0.201 -0.201,-1.166 -0.201,-1.166l-0.563,-0.281c0,-0 0.041,1.085 -0.603,1.206c-0.643,0.12 -0.442,-1.488 -0.442,-1.488c-0,0 -0.282,-0.724 -1.166,-0.643c-0.885,0.08 -1.528,0.08 -1.488,-0.362c0.04,-0.442 0.402,-1.126 0.563,-2.051c0.161,-0.925 0.764,-1.849 0.201,-3.096c-0.563,-1.246 -0.241,-3.659 0.161,-4.825c0.402,-1.166 0.844,-1.367 1.045,-1.809c0.201,-0.443 0.322,-1.77 0.764,-2.011c0.443,-0.241 1.126,-0.965 1.207,-0.402c0.08,0.563 -0.402,1.327 0.04,1.93c0.442,0.603 0.643,0.201 1.005,0.804c0.362,0.603 0.925,1.689 0.885,2.413c-0.041,0.724 -0.041,1.327 -0.443,1.809c-0.402,0.483 -0.16,0.322 -0.12,1.247c0.04,0.924 -0.04,3.297 -0.081,4.101c-0.04,0.804 -0.12,2.332 -0.12,3.016c-0,0.683 0.362,0.603 0.884,0.965Zm-7.639,-18.094c-0.403,-0.201 -0.443,-0.242 -0.443,-1.006c0,-0.764 0.242,-1.286 -0.241,-1.769c-0.483,-0.482 -1.287,-0.683 -1.086,-1.367c0.201,-0.684 0.402,-1.729 0.483,-2.372c0.08,-0.644 -0.161,-2.614 -0.362,-2.011c-0.201,0.603 -0.483,2.051 -0.603,2.574c-0.121,0.522 -0.684,1.447 -0.684,0.683c0,-0.764 0.081,-2.091 0.282,-2.975c0.201,-0.885 0.442,-1.729 0.925,-2.252c0.482,-0.523 0.522,0.04 0.844,-0.925c0.322,-0.965 0.04,-1.447 0.804,-1.287c0.764,0.161 0.161,1.368 0.684,1.649c0.522,0.281 0.965,1.247 0.884,1.608c-0.08,0.362 0.282,1.488 0.081,2.373c-0.201,0.884 -0.483,0.965 -0.724,1.528c-0.241,0.563 -0.282,1.769 -0.322,2.613c-0.04,0.845 -0.08,2.131 -0.08,2.131c-0,0 -0.04,1.006 -0.442,0.805Zm39.244,-4.625c0.442,-0.321 1.367,-0.763 1.045,-1.367c-0.321,-0.603 -0.603,-0.321 -0.884,-1.286c-0.282,-0.965 -0.201,-0.282 -0.161,-1.649c0.04,-1.367 -0.04,-3.136 -0.644,-4.061c-0.603,-0.925 -0.965,-1.528 -1.246,-2.091c-0.282,-0.563 -0.442,-1.407 -0.965,-1.327c-0.523,0.081 -2.051,-0.04 -1.327,0.724c0.724,0.764 0.965,0.684 0.724,1.447c-0.241,0.764 -0.362,1.729 -0.241,2.976c0.12,1.246 0.12,1.93 0.04,2.855c-0.081,0.925 0.683,1.97 0.563,2.453c-0.121,0.482 -0.684,0.563 -0.523,1.045c0.161,0.483 1.649,0.643 1.649,0.643l0.201,-1.327l0.804,-0.04c-0,0 0.522,1.327 0.965,1.005Zm-53.76,-2.573c0,0 -0.161,-0.322 -0.523,-0.764c-0.362,-0.442 -0.804,-0.563 -1.166,-1.126c-0.362,-0.563 -0.362,-0.04 -0.482,-0.844c-0.121,-0.804 -0.04,-1.206 -0.201,-2.212c-0.161,-1.005 -0.322,-1.93 -0.121,-2.774c0.201,-0.844 0.563,-2.091 0.885,-2.252c0.321,-0.161 0.764,-0.241 0.603,-0.603c-0.161,-0.362 -0.603,-0.643 -0.201,-0.925c0.402,-0.281 0.683,-1.206 1.085,-0.844c0.402,0.362 1.166,1.005 0.764,1.287c-0.402,0.281 -0.844,0.12 -0.362,0.683c0.483,0.563 0.966,0.483 0.966,1.206c-0,0.724 0.241,1.81 0.241,2.252c-0,0.442 0.241,1.769 0.241,1.769c0,0 -0.442,0.925 -0.563,1.287c-0.121,0.362 -0.281,1.005 -0.482,1.729c-0.201,0.724 -0.403,1.97 -0.684,2.131Zm37.515,-11.741c-0.328,0.246 -0.563,-0.281 -0.362,-0.925c0.201,-0.643 0.684,-0.925 0.603,-2.01c-0.08,-1.086 -0.321,-3.016 -0.562,-3.579c-0.242,-0.563 -0.604,0.483 -0.925,0.804c-0.322,0.322 -0.523,0.282 -0.402,-0.442c0.12,-0.724 0.442,-2.413 0.884,-2.855c0.443,-0.442 0.563,-0.281 0.804,-0.804c0.242,-0.523 0.523,-1.166 0.684,-0.844c0.161,0.321 0.04,0.764 0.362,1.085c0.322,0.322 0.925,0.925 1.126,1.327c0.201,0.402 1.327,1.689 0.884,1.769c-0.442,0.081 -0.924,-1.286 -1.206,-0.723c-0.281,0.562 -0.08,1.849 -0.281,2.452c-0.201,0.603 -0.322,1.85 -0.081,2.413c0.241,0.563 0.925,1.729 0.322,1.447c-0.603,-0.281 -0.965,-1.085 -1.086,-0.603c-0.12,0.483 -0.603,1.367 -0.764,1.488Zm-6.835,-7.439c-0,-0.603 -0.161,-1.407 0.04,-2.412c0.201,-1.005 1.729,-2.533 1.729,-2.533c-0,-0 -0.121,-0.965 0.322,-1.006c0.442,-0.04 0.522,0.603 0.723,1.207c0.201,0.603 0.764,0.603 0.724,1.487c-0.04,0.885 0.563,2.694 0.081,3.016c-0.483,0.322 -0.362,0.442 -0.604,1.166c-0.241,0.724 -0.723,1.608 -0.723,1.608c-0,0 -2.292,-1.93 -2.292,-2.533Z" style="fill:#24281a;"/><path d="M32.475,92.541c-0.239,0.109 -1.216,0.847 -1.759,1.369c-0.543,0.521 -1.108,0.325 -1.672,0.868c-0.565,0.543 -0.674,2.02 -0.63,2.628c0.043,0.608 -0.044,4.864 0.326,5.103c0.369,0.239 2.258,0.109 2.258,0.109c0,-0 0.304,3.236 0.239,3.67c-0.065,0.434 -0.934,0.065 -0.977,0.586c-0.044,0.522 -0.261,1.39 0.043,1.542c0.304,0.152 1.021,-0.087 1.129,0.304c0.109,0.391 0.565,4.821 0.565,4.821c0,0 0.196,0.413 0.478,-0.108c0.282,-0.521 -0.239,-4.43 0.13,-4.821c0.369,-0.391 1.803,-1.542 2.367,-1.455c0.565,0.086 1.434,-0.044 1.629,0.543c0.195,0.586 0.571,0.847 1.271,0.997c0.7,0.15 1.899,0.15 3.898,-0.15c1.999,-0.3 1.849,-0.4 2.949,-0.4c1.099,-0 3.698,-0.2 3.698,-0.2l0.35,2.699l0.5,0.05c-0,-0 0.3,-1.849 0.45,-3.099c0.15,-1.249 0.35,-1.299 0.05,-2.349c-0.3,-1.049 -0.2,-2.799 0.1,-3.948c0.3,-1.15 1.049,-3.998 0.949,-5.098c-0.1,-1.099 -0.15,-1.849 -0.649,-2.349c-0.5,-0.5 -1.15,-0.5 -1.15,-0.5c0,0 -16.303,-0.92 -16.542,-0.812Zm56.579,-15.665c-0.112,-2.294 -0,-2.776 0.113,-4.437c0.118,-1.725 0.024,-3.692 0.226,-3.949c0.096,-0.122 1.504,-0.489 1.88,-0.075c0.376,0.413 1.961,-1.197 1.923,-0.595c-0.038,0.602 10.154,11.169 10.981,11.094c0.828,-0.075 3.648,-0.865 4.024,0.451c0.376,1.317 0.771,0.474 0.884,1.677c0.113,1.204 0.414,2.106 -0.188,2.971c-0.602,0.865 1.824,2.798 -1.109,2.347c-0.55,-0.084 -1.742,-0.606 -2.018,-0.084c-0.46,0.87 0.017,1.823 -0.48,1.676c-0.45,-0.133 0.018,-0.858 -0.613,-1.934c-0.48,-0.82 -1.95,-0.888 -2.267,-0.936c-1.467,-0.226 -3.761,-0.301 -5.265,-0.226c-1.504,0.075 -1.504,0.564 -1.58,1.166c-0.075,0.601 -0.824,1.788 -0.902,0.225c-0.038,-0.752 -0.301,-1.203 -1.128,-1.241c-2.168,-0.098 -2.224,0.144 -2.299,-0.796c-0.076,-0.941 0.3,-1.693 -0.602,-3.46c-0.903,-1.768 -1.467,-1.58 -1.58,-3.874Zm-57.229,9.381c-0.6,0.299 -1,0.449 -1.2,-0.1c-0.2,-0.55 0,-2.099 -0.3,-3.049c-0.299,-0.95 -0.799,-2.099 -0.399,-2.299c0.399,-0.2 1.799,-0.7 1.799,-0.7l0.1,6.148Zm43.696,-22.762c-1.016,-0.79 -1.053,-0.827 -1.354,-1.88c-0.301,-1.053 -1.091,-1.392 -0.903,-2.445c0.188,-1.053 0.376,-1.617 0.903,-1.88c0.526,-0.263 0.602,-0.226 1.767,0.301c1.166,0.526 2.031,1.579 2.671,0.489c0.639,-1.091 -0.339,-1.881 0.977,-1.542c1.317,0.338 1.617,0.865 2.407,0.526c0.79,-0.338 1.956,-0.188 1.956,0.452c-0,0.639 0.005,2.613 0.005,3.256c0.001,1.182 -1.308,2.525 -1.628,1.773c-0.61,-1.435 -3.755,-1.645 -4.357,-1.118c-0.601,0.526 -1.429,2.858 -2.444,2.068Z" style="fill:#978762;"/><path d="M42.319,133.463c0,0 0.469,-12.659 0.469,-13.797c0,-1.139 0.402,-4.622 2.545,-6.296c2.144,-1.675 4.957,-4.019 7.368,-3.751c2.411,0.268 6.363,0.536 7.568,1.675c1.206,1.138 3.215,3.549 3.751,4.822c0.536,1.273 0.871,3.751 1.808,5.827c0.938,2.076 1.943,4.889 4.019,6.631c2.076,1.741 3.215,2.545 3.349,5.492c0.134,2.947 -0.611,7.308 -1.072,8.305c-1.265,2.744 -30.459,-6.851 -29.805,-8.908Zm-10.694,-80.925c0.127,-0.933 -0.021,-2.013 0.572,-2.755c0.593,-0.742 1.484,-1.611 2.501,-1.717c1.017,-0.106 2.161,-0.381 2.903,0.594c0.742,0.975 1.25,1.822 1.25,2.31c0,0.487 0.149,0.826 0.996,1.356c0.848,0.53 1.484,0.996 2.374,1.695c0.89,0.7 1.356,0.806 2.034,2.098c0.678,1.293 0.7,2.84 0.678,3.751c-0.021,0.911 0.382,1.399 -0.021,2.458c-0.402,1.06 -0.296,1.781 -0.975,2.501c-0.678,0.721 -1.441,1.017 -1.631,1.886c-0.191,0.869 -0,1.907 0.169,2.861c0.17,0.954 0.678,1.907 0.509,2.734c-0.17,0.826 0.407,4.356 0.407,5.428c0,1.071 0.804,3.148 1.34,5.157c0.535,2.009 3.147,4.354 3.616,6.564c0.469,2.21 1.273,4.554 0.871,5.894c-0.402,1.339 -1.139,5.09 -1.139,5.09c0,0 -14.802,1.34 -14.936,0.469c-0.134,-0.871 -0.602,-4.287 -0.736,-6.899c-0.134,-2.612 -0.737,-5.157 -0.938,-7.166c-0.201,-2.01 -0.268,-3.952 -0.804,-6.229c-0.536,-2.277 0.067,-5.693 -0.402,-7.234c-0.468,-1.54 -0.267,-5.559 0.335,-7.166c0.603,-1.608 1.675,-2.545 2.01,-3.416c0.335,-0.871 1.339,-1.608 0.669,-3.014c-0.669,-1.407 -1.071,-1.273 -1.339,-3.148c-0.268,-1.875 -0.44,-3.17 -0.313,-4.102Zm64.128,28.482c-0.526,-0.451 -1.542,-2.181 -1.955,-3.46c-0.414,-1.279 -0.752,-2.82 -0.752,-2.82l-1.129,-0.264c0,0 -0.488,-0.902 -0.677,-1.918c-0.188,-1.015 -1.053,-2.707 -1.09,-3.61c-0.038,-0.902 -0.451,-3.046 -0,-4.061c0.451,-1.016 0.564,-3.197 2.632,-3.648c2.069,-0.452 4.476,-1.091 5.265,-0.677c0.79,0.413 2.52,2.181 3.159,2.971c0.64,0.789 2.294,2.03 2.934,2.82c0.639,0.79 1.542,1.693 1.354,3.611c-0.188,1.917 1.674,8.497 1.787,8.986c0.113,0.489 0.151,1.091 -1.73,0.79c-1.88,-0.301 -3.108,-2.129 -4.741,-1.916c-1.55,0.203 -4.53,3.647 -5.057,3.196Zm-19.54,-21.458c-0,0 -0.591,-0.612 -0.854,-1.101c-0.263,-0.489 -0.156,-0.65 -0.532,-1.666c-0.376,-1.015 -0.209,-1.837 -0.246,-2.401c-0.038,-0.564 -0.151,-4.024 0.188,-4.55c0.338,-0.527 2.331,-1.881 2.971,-1.918c0.639,-0.038 1.993,-0.075 2.632,0.677c0.639,0.752 1.73,1.73 2.068,2.858c0.339,1.128 0.715,3.159 0.602,4.437c-0.113,1.279 -0.037,2.671 -0.451,3.197c-0.414,0.527 -0.827,1.166 -1.241,0.903c-0.414,-0.264 -1.317,-1.795 -2.144,-1.87c-0.827,-0.075 -1.827,1.246 -2.993,1.434Z" style="fill:#e7c196;"/></g></g></svg>