<?xml version="1.0" encoding="UTF-8" standalone="no"?><!DOCTYPE svg PUBLIC "-//W3C//DTD SVG 1.1//EN" "http://www.w3.org/Graphics/SVG/1.1/DTD/svg11.dtd"><svg width="100%" height="100%" viewBox="0 0 150 150" version="1.1" xmlns="http://www.w3.org/2000/svg" xmlns:xlink="http://www.w3.org/1999/xlink" xml:space="preserve" xmlns:serif="http://www.serif.com/" style="fill-rule:evenodd;clip-rule:evenodd;stroke-linejoin:round;stroke-miterlimit:2;"><path id="base" d="M150,75c0,-41.394 -33.606,-75 -75,-75c-41.394,0 -75,33.606 -75,75c0,41.394 33.606,75 75,75c41.394,0 75,-33.606 75,-75Z" style="fill:#72380a;"/><path id="outline" d="M144,75c0,-38.082 -30.918,-69 -69,-69c-38.082,0 -69,30.918 -69,69c0,38.082 30.918,69 69,69c38.082,0 69,-30.918 69,-69Z" style="fill:#140100;"/><path id="core" d="M141,75c0,-36.426 -29.574,-66 -66,-66c-36.426,0 -66,29.574 -66,66c0,36.426 29.574,66 66,66c36.426,0 66,-29.574 66,-66Z" style="fill:#faecc3;"/><clipPath id="_clip1"><path d="M141,75c0,-36.426 -29.574,-66 -66,-66c-36.426,0 -66,29.574 -66,66c0,36.426 29.574,66 66,66c36.426,0 66,-29.574 66,-66Z"/></clipPath><g clip-path="url(#_clip1)"><g id="fall-of-constantinople"><path d="M29.262,25.832c-0,0 1.599,0.246 3.403,0.328c1.804,0.082 2.747,0.041 5.208,0.082c2.46,0.041 2.952,0 5.453,-0.082c2.502,-0.082 2.379,-0.082 4.47,-0.164c2.091,-0.082 3.69,-0.615 4.633,-0.533c0.943,0.082 1.928,0.287 2.707,1.025c0.779,0.739 1.517,1.477 1.435,2.584c-0.082,1.107 0.328,5.781 0.123,6.52c-0.205,0.738 -1.23,1.968 -0.82,2.583c0.41,0.615 1.189,0.451 1.066,1.476c-0.123,1.025 -0.328,1.804 -0.492,2.214c-0.164,0.41 -0.697,-0.164 -0.082,1.107c0.615,1.272 1.394,3.937 1.517,4.593c0.123,0.656 -0.123,6.274 -0.369,8.488c-0.246,2.214 0.164,8.816 0.164,8.816c-0,-0 2.993,0.041 3.403,-0c0.41,-0.041 2.297,0.246 2.297,0.246c-0,-0 -1.025,-17.632 -1.066,-18.37c-0.041,-0.738 -0.288,-0.861 0.246,-1.353c0.533,-0.492 0.41,-0.615 1.066,-0.738c0.656,-0.123 3.362,-0.903 4.018,-0.533c0.656,0.369 1.189,0.123 1.189,0.123c0,-0 -0.328,-0.287 0.574,-0.575c0.902,-0.287 3.445,-0.656 4.101,-0.369c0.656,0.287 1.394,0.205 1.763,-0.246c0.369,-0.451 0.738,-0.82 2.091,-0.779c1.353,0.041 2.132,0.123 2.132,0.123l0.493,0.451c-0,0 0.697,-0.656 1.394,-0.902c0.697,-0.246 1.722,-0.287 2.706,-0.246c0.984,0.041 1.722,0.287 2.46,0.533c0.738,0.246 4.101,1.723 4.634,1.887c0.533,0.164 1.804,0.369 1.804,0.369c0,-0 1.845,-0.205 2.091,0.287c0.246,0.492 -0.41,1.968 -0.656,2.255c-0.246,0.287 -0.82,0.369 -0.205,0.656c0.615,0.287 1.804,2.583 1.804,2.583c0,0 -0.123,2.625 -0.123,3.978c0,1.353 0.164,2.788 0.164,2.788c0,0 8.652,-0.615 9.39,-0.697c0.739,-0.082 10.334,1.558 10.334,1.558l-0.041,8.611c-0,0 2.952,1.148 4.387,1.23c1.435,0.082 2.255,0.205 2.83,0.369c0.574,0.164 1.886,0.697 2.624,0.902c0.738,0.205 1.353,0.533 1.517,1.026c0.164,0.492 0.943,4.961 0.943,4.961c0,0 2.788,-0.41 3.527,-0.451c0.738,-0.041 1.722,0.492 1.722,0.492l0.123,6.561l3.854,0.861c0,-0 0.779,-0.451 0.943,0.041c0.164,0.492 0.492,1.394 0.492,1.394l2.338,0.861l1.105,16.33c-81.677,40.336 -224.296,-25.453 -112.884,-75.254Z" style="fill:#e5bea4;"/><path d="M4.945,90.061c-0,-0 6.89,0.306 9.953,0.612c3.062,0.306 3.215,-0.612 8.881,0.766c5.666,1.378 7.35,1.99 11.944,3.062c4.594,1.072 6.431,1.072 11.484,1.991c5.054,0.919 7.504,0.459 11.638,1.684c4.134,1.225 5.512,1.991 11.638,2.91c6.125,0.919 8.728,1.531 13.015,1.99c4.288,0.46 6.432,1.379 11.638,0.919c5.206,-0.459 13.934,-0.765 17.916,-1.225c3.981,-0.459 0.765,0.153 8.268,-1.072c7.504,-1.225 9.954,-1.378 13.475,-2.297c3.522,-0.918 7.657,-2.143 7.657,-2.143c-24.485,74.793 -132.471,54.603 -137.507,-7.197Z" style="fill:#af7045;"/><path d="M109.71,102.905c-0.131,-0.783 -0.666,-25.867 -0.666,-25.867l11.556,0.392l1.776,26.389l-4.244,1.306c-0,0 -8.292,-1.436 -8.422,-2.22Zm-58.445,-5.105l-0.914,-31.86l10.119,-1.176l8.161,1.698l0.261,1.175l-0.522,0.326l6.855,34.538l-23.96,-4.701Z" style="fill:#745344;"/><path d="M23.09,77.959l-0.235,0.047l2.694,13.295l0.236,-0.048l-2.695,-13.294Z" style="fill:#ab5b40;"/><path d="M15.388,92.114c-0.494,-1.751 -0.045,-1.617 -0.943,-2.47c-0.898,-0.853 -1.032,-0.179 -1.257,-1.391c-0.224,-1.212 -0.808,-0.808 -0.134,-2.38c0.673,-1.571 0.404,-0.987 1.167,-2.289c0.763,-1.302 1.122,-2.02 1.122,-2.02l1.706,1.301c0,0 -0.673,1.078 0.135,0.404c0.808,-0.673 0.763,-0.942 1.347,-1.301c0.583,-0.36 0.763,-0.764 1.616,-0.629c0.853,0.135 1.706,-0.494 1.885,0.135c0.18,0.628 -0.853,0.359 0.225,1.032c1.077,0.674 1.212,0.943 2.289,1.078c1.078,0.134 1.706,-0.404 2.155,-0.719c0.449,-0.314 0.808,-0.987 1.257,-0.987c0.449,-0 0.27,-0.719 1.213,-0c0.942,0.718 0.583,0.763 1.391,0.943c0.808,0.179 0.898,-0.36 1.751,0.089c0.853,0.449 1.392,0.404 2.469,1.078c1.078,0.673 0.898,1.212 1.527,2.379c0.628,1.167 0.538,-0.404 0.942,1.527c0.404,1.93 0.853,2.11 0.719,3.591c-0.135,1.482 -2.155,4.041 -2.604,3.906c-0.449,-0.135 -1.616,-1.975 -2.02,-1.841c-0.404,0.135 -0.764,0.539 -0.719,1.931c0.045,1.391 0.135,1.436 0.09,2.289c-0.045,0.853 -0.269,1.123 0,1.931c0.27,0.808 0.09,1.212 0.629,1.257c0.538,0.045 1.077,0.673 0.493,0.808c-0.583,0.134 -1.257,0.179 -1.257,0.179c0,0 -0.224,0.719 -0.538,-0.853c-0.315,-1.571 -0,-4.534 -0.943,-4.085c-0.943,0.449 -1.751,0.718 -1.841,1.482c-0.089,0.763 -0.673,1.122 -0.628,1.75c0.045,0.629 1.077,1.302 0.539,1.347c-0.539,0.045 -2.38,0.09 -2.2,-0.449c0.179,-0.538 -0.359,-2.289 -0.359,-2.963c-0,-0.673 0.359,-1.481 -0.404,-1.616c-0.764,-0.135 0.094,-0.889 0.094,-0.889c-0,0 -0,2.231 -1.008,1.799c-1.007,-0.432 -0.791,-2.086 -1.51,-1.871c-0.72,0.216 -0.576,1.511 -0.576,1.511l-3.956,-0.072c-0,0 -0.864,-0.072 -1.439,-0.431c-0.576,-0.36 -1.367,-1.583 -1.367,-1.583c0,-0 -0.564,-1.158 -1.058,-2.908Z" style="fill:#796767;"/><path d="M111.891,120.835c-1.202,-0.189 -3.607,-2.595 -4.114,-3.101c-0.506,-0.506 -0.443,-0.19 -0.759,-1.013c-0.317,-0.822 -0.697,-7.215 -0.19,-8.101c0.506,-0.886 1.709,-3.228 2.405,-3.545c0.696,-0.316 4.051,-0.822 5.507,-0.506c1.455,0.317 2.025,0.38 2.784,0.443c0.76,0.063 0.507,-0.063 1.899,0.317c1.393,0.379 0.95,0.126 2.659,0.759c1.709,0.633 2.974,0.76 3.86,0.886c0.887,0.127 1.14,0.253 1.773,0c0.633,-0.253 -1.013,-0.759 1.455,-0.633c2.469,0.127 4.684,2.089 4.684,2.089l-6.203,13.228c0,0 -3.86,0.95 -5.696,0.19c-1.836,-0.759 -2.342,-1.582 -2.342,-1.582c0,-0 -0.19,-0.76 -1.013,-0.38c-0.822,0.38 0.254,-0.126 -0.822,0.38c-1.076,0.506 -1.14,0.253 -2.089,0.19c-0.949,-0.064 -0.633,-0.127 -1.203,-0.064c-0.569,0.064 -1.392,0.633 -2.595,0.443Z" style="fill:#8c7e73;"/><path d="M126.903,95.428l-0.516,-0.366l-13.558,19.164l0.517,0.366l13.557,-19.164Z" style="fill:#ab5b40;"/><path d="M114.454,108.736c1.311,-0.536 3.034,-1.371 2.887,0.208c-0.146,1.58 -4.078,6.882 -4.078,6.882l-1.252,-1.728c0,0 1.133,-4.826 2.443,-5.362Z" style="fill:#8c7e73;"/><rect x="37.385" y="86.527" width="0.757" height="24.237" style="fill:#ab5b40;"/><path d="M75.36,125.537c-0.344,-0.885 -0.197,-1.18 -0.246,-2.016c-0.049,-0.836 -0.541,-0.983 0.147,-2.36c0.689,-1.376 0.59,-2.359 1.377,-2.212c0.787,0.148 1.524,1.082 1.966,1.917c0.443,0.836 0.541,1.279 0.443,2.163c-0.099,0.885 1.524,1.426 1.917,2.36c0.393,0.934 1.18,2.753 1.032,4.179c-0.147,1.425 -4.916,5.014 -4.916,5.014l-2.851,-2.261c0,-0 0.443,-2.802 0.639,-3.786c0.197,-0.983 0.983,-2.359 0.983,-2.359c0,-0 -0.147,0.245 -0.491,-0.639Zm-19.722,1.289c-1.392,-3.263 4.342,-1.354 4.59,-3.986c0.21,-2.222 1.121,-2.809 1.269,-3.301c0.147,-0.492 0.442,-0.737 0.147,-2.065c-0.295,-1.327 1.524,-3.982 2.016,-3.637c0.491,0.344 0.934,0.344 1.081,1.671c0.148,1.327 -0.786,1.868 0.295,2.605c1.082,0.738 1.917,0.984 2.606,1.918c0.688,0.934 0.59,3.785 0.393,4.326c-0.197,0.541 -0.393,2.556 -0.393,2.556c1.157,2.746 -8.451,8.244 -12.004,-0.087Z" style="fill:#685b55;"/><path d="M65.447,103.573c-0.384,-0.102 -0.843,-0.271 -1.01,-0.523c-0.308,-0.461 -1.107,-0.922 -1.107,-2.398c-0,-1.476 0.215,-1.138 0.031,-2.214c-0.185,-1.076 -0.831,-1.322 -0.369,-2.153c0.461,-0.83 0.584,-1.937 1.414,-1.076c0.83,0.861 1.538,0.461 1.722,1.968c0.185,1.507 -0.061,1.722 0.246,2.245c0.123,0.208 0.29,0.388 0.446,0.528c0.178,-0.854 0.671,-1.876 0.671,-1.876c-0,-0 1.371,-1.946 1.504,-0.442c0.132,1.504 -0.752,1.813 0.353,2.521c1.106,0.708 0.177,0.752 1.593,0.973c1.415,0.221 1.548,0.752 1.769,0.221c0.221,-0.531 0.796,-2.148 1.593,-2.123c0.706,0.022 1.017,0.929 0.663,1.902c-0.354,0.973 0.487,0.619 0.575,1.106c0.24,1.321 0.398,0.973 0.221,2.875c-0.177,1.902 -0.265,1.194 -0.398,3.141c-0.133,1.946 0.929,5.617 0.841,6.015c-0,0 -0.62,0.399 -0.885,-0.309c-0.265,-0.708 -0.265,-1.548 -0.664,-2.035c-0.398,-0.486 -1.459,-1.283 -1.459,-1.283c-0,0 -0.443,-0.398 -0.885,0.133c-0.442,0.531 -0.531,0.84 -0.663,1.416c-0.133,0.575 -0.089,1.105 -0.089,1.105l-0.752,0.398c0,0 -0.486,-0.398 -0.265,-1.725c0.221,-1.327 0.354,-0.796 -0.045,-2.742c-0.398,-1.946 0,-3.583 -0.486,-2.61c-0.487,0.973 -1.017,2.256 -1.592,2.389c-0.576,0.132 -1.106,-0.089 -1.991,-1.283c-0.885,-1.194 -1.106,-1.15 -1.327,-1.637c-0.221,-0.486 -0.973,0.177 0.221,-2.256c0.043,-0.086 0.084,-0.17 0.124,-0.251Zm-5.53,-0.277c-1.261,-0.061 -1.907,0.277 -2.153,-0.215c-0.246,-0.492 -0.246,-0.338 0.092,-2.368c0.339,-2.029 0.769,-2.337 0.308,-3.413c-0.461,-1.076 -0.738,-1.63 -0.215,-2.491c0.522,-0.861 2.367,-0.215 2.675,1.046c0.307,1.261 1.291,1.445 0.953,2.829c-0.338,1.384 -0.43,1.568 -0.523,2.46c-0.092,0.892 -1.137,2.152 -1.137,2.152Zm-9.455,-9.27l-1.257,-0.572l-0.691,4.547c-0,0 -1.321,-2.535 -1.46,-3.992c-0.138,-1.457 -0.416,-3.122 -0.069,-4.232c0.347,-1.11 0.971,-2.983 1.526,-2.428c0.555,0.555 0.417,0.555 1.457,1.387c1.041,0.833 1.735,0.764 1.665,1.527c-0.069,0.763 -0.069,0.694 -0.069,1.526c0,0.046 -0.002,0.093 -0.007,0.142c0.255,-0.33 0.518,-0.532 0.744,-0.381c0.46,0.306 2.106,1.417 2.183,2.182c0.076,0.766 0.038,1.226 -0,2.375c-0.038,1.148 0.618,2.273 0.618,2.273c0,0 0.764,0.555 0.764,1.319c-0,0.763 -0.272,1.233 -0.272,1.233c0,-0 -1.187,-1.302 -1.799,-2.03c-0.613,-0.728 -1.264,-1.8 -1.226,-2.221c0.039,-0.421 0.881,-2.106 0.307,-1.876c-0.575,0.229 -1.379,2.182 -1.149,3.408c0.23,1.225 -0.153,1.953 -0.46,2.297c-0.306,0.345 -0.306,-0.804 -0.383,-1.953c-0.076,-1.148 -0.766,-1.455 -0.651,-2.91c0.062,-0.786 0.124,-1.248 0.229,-1.621Z" style="fill:#605152;"/><path d="M36.288,118.908c0.122,-1.157 0.488,-1.462 0.122,-2.315c-0.365,-0.853 -1.523,-1.949 -1.523,-1.949c0,-0 0,-2.864 0.487,-3.656c0.488,-0.792 -0.243,-0.853 0.061,-1.645c0.305,-0.791 1.463,-2.315 2.315,-3.289c0.853,-0.975 1.341,-1.95 1.341,-1.95c-0,0 -0.061,-2.132 1.157,-2.437c1.219,-0.304 2.559,-0.121 2.559,-0.121l0.853,0.67l0.609,-2.437l2.376,0.487l0.731,2.254l1.34,0l0.853,-1.766l2.193,0.243c0,0 -0.426,2.864 0.122,3.534c0.549,0.67 1.097,1.401 1.158,2.376c0.061,0.974 0.426,2.68 0.061,3.472c-0.366,0.792 -0.792,0.488 -0.61,1.523c0.183,1.036 0.549,2.072 0.549,2.072l-2.742,3.777c0,-0 -9.382,4.691 -9.199,5.361c0.183,0.67 0.244,1.401 1.279,2.68c1.036,1.28 2.864,1.889 3.29,3.534c0.427,1.645 0.305,2.802 0.305,3.411c-0,0.61 -5.849,1.584 -5.849,1.584l-11.087,-7.676c-0,0 2.165,-2.008 3.421,-2.019c1.678,-0.014 3.152,-4.425 3.158,-5.23c0.005,-0.6 0.548,0.67 0.67,-0.488Zm-10.814,-11.393c-0.568,-1.251 -1.023,-1.052 -0.625,-2.189c0.398,-1.137 -1.081,-1.934 0.569,-1.45c1.649,0.483 1.393,-0.398 2.075,0.796c0.682,1.194 -0.256,1.109 1.137,1.99c1.394,0.882 1.28,0.114 1.991,1.28c0.71,1.165 1.677,1.905 1.848,3.326c0.17,1.422 -0.313,2.616 -0.512,3.725c-0.199,1.109 -0.398,1.194 -0.057,2.587c0.341,1.393 0.976,4.756 1.061,5.467c0.086,0.711 -1.288,1.357 -1.288,1.357c-0,0 -0.142,-2.559 -0.74,-3.014c-0.597,-0.455 -0.853,-1.393 -2.672,-1.592c-1.82,-0.199 -2.559,-0.398 -2.559,-0.398c-0,-0 -2.189,-1.137 -1.678,-2.161c0.512,-1.023 -1.649,-3.327 -1.933,-3.327c-0.284,0 0.54,-1.336 0.881,-1.734c0.341,-0.398 1.991,-2.303 2.161,-2.758c0.171,-0.455 0.91,-0.654 0.341,-1.905Z" style="fill:#60514a;"/><path d="M126.52,95.348c0.375,0.112 0.188,0.412 0.412,2.098c0.225,1.687 0.375,2.511 0.113,3.71c-0.262,1.2 0.075,4.797 -0.225,6.146c-0.3,1.349 -0.375,4.872 -0.749,5.509c-0.375,0.637 -0.038,1.499 -0.975,1.049c-0.937,-0.449 -1.761,0.188 -1.236,-0.637c0.524,-0.824 1.611,-1.424 1.461,-2.323c-0.15,-0.9 -0.45,-1.162 -1.461,-2.249c-1.012,-1.086 -0.937,-0.974 -1.2,-1.986c-0.262,-1.012 0.188,-1.087 -0.674,-1.611c-0.862,-0.525 -1.537,-0 -1.274,-1.012c0.262,-1.012 2.923,-4.16 3.372,-5.097c0.45,-0.936 2.436,-3.597 2.436,-3.597Zm-88.748,3.603l0.037,-12.929c0,0 1.574,0.6 2.661,1.237c1.087,0.637 1.124,0.675 2.136,1.274c1.012,0.6 1.349,0.113 2.361,1.05c1.012,0.936 2.436,1.873 0.862,1.611c-1.574,-0.262 -2.024,-0.6 -2.249,-0.3c-0.224,0.3 -1.124,0.937 0.263,1.312c1.386,0.375 2.773,1.199 1.611,1.536c-1.162,0.337 -2.286,0.038 -2.736,0.9c-0.449,0.862 -0.337,0.749 1.087,1.723c1.424,0.975 2.361,0.825 2.211,1.387c-0.15,0.562 0.712,1.349 -1.948,1.536c-2.661,0.188 -6.296,-0.337 -6.296,-0.337Zm-13.191,-17.536c-0.374,-0.113 -0.487,0.15 -0.824,-0.637c-0.337,-0.787 -0.862,-1.499 -0.712,-2.211c0.15,-0.712 0.075,-1.087 0.375,-1.275c0.299,-0.187 0.449,-0.449 1.274,0.3c0.824,0.75 1.086,0.375 1.236,1.199c0.15,0.825 0.637,0.338 0.113,1.125c-0.525,0.787 -1.199,1.349 -1.199,1.349c-0,-0 0.112,0.262 -0.263,0.15Z" style="fill:#ba3920;"/><path d="M48.68,113.348c1.253,-0.171 4.861,0.583 5.703,2.786c0.843,2.204 0.972,4.213 0.972,4.213l5.671,0.065c-0,-0 -0.227,2.462 -0.421,2.884c-0.195,0.421 -1.134,1.069 -1.75,1.361c-0.616,0.291 -3.305,1.296 -3.208,1.587c0.097,0.292 1.296,1.232 1.62,1.556c0.324,0.324 0.389,1.102 0.389,1.102c-0,-0 2.43,0.421 3.467,0.745c1.037,0.324 2.139,0.551 2.139,0.551c-0,-0 -0.843,-1.523 0.065,-2.009c0.907,-0.486 2.203,-1.297 3.24,-1.426c1.037,-0.13 3.208,-0.195 3.953,0.097c0.746,0.292 2.657,3.014 2.755,3.403c0.097,0.388 0.291,1.879 0.291,1.879c0,-0 7.249,-0.622 7.083,-0.235c-0.165,0.387 -0.773,2.154 -0.801,2.762c-0.027,0.607 -1.353,6.545 -1.408,6.793c-0.055,0.249 -25.573,-3.535 -25.573,-3.535c0,0 -0.083,-1.795 -0.276,-2.596c-0.193,-0.801 -0.083,-1.574 -0.083,-1.574c0,0 -1.961,1.63 -2.181,1.933c-0.221,0.304 -0.774,1.354 -0.774,1.354l-18.779,-10.771c0,0 1.906,-1.905 2.955,-2.485c1.05,-0.58 2.955,-1.243 4.281,-0.912c1.325,0.332 2.54,0.857 2.54,0.857l1.077,-0.719c0,0 -1.049,-2.43 -0.662,-3.341c0.386,-0.911 2.457,-4.115 3.535,-4.64c1.077,-0.524 1.346,-1.3 4.18,-1.685Zm-4.6,13.138c0,-0 1.269,2.086 1.549,3.01c0.279,0.925 0.344,2.99 0.344,2.99c-0,-0 8.752,-5.699 9.268,-6.022c0,0 -1.075,-1.247 -0.301,-1.763c0,-0 -4.752,-0 -5.763,0.322c-1.011,0.323 -5.097,1.463 -5.097,1.463Z" style="fill:#db9967;"/><path d="M77.776,142.229l9.178,-37.47c-0,-0 1.012,-1.329 1.772,-1.646c0.759,-0.316 1.076,-0.253 2.152,-0.379c1.076,-0.127 1.709,-0.38 2.911,-0.633c1.203,-0.254 1.646,-0.38 2.912,-0.57c1.266,-0.19 1.899,-0.253 2.975,-0.316c1.076,-0.064 1.329,-0.064 2.342,-0.19c1.012,-0.127 1.392,-0.19 2.784,-0.254c1.393,-0.063 2.406,-0.063 3.165,-0.063c0.76,0 2.089,-0.443 2.405,0.696c0.317,1.14 0,2.152 -0.379,3.418c-0.38,1.266 -4.304,19.938 -4.304,19.938c-0,-0 2.025,0.696 1.708,1.266c-0.316,0.569 -1.139,4.367 -1.392,5.063c-0.253,0.696 -2.025,5.57 -2.025,5.57l-26.204,5.57Z" style="fill:#553d25;"/><path d="M107.335,80.021c-0.603,-1.755 -0.603,-1.645 -1.097,-4.168c-0.494,-2.523 -1.042,-2.852 -1.042,-5.155c0,-2.303 -0.164,-2.413 0.219,-4.497c0.384,-2.084 0,-2.523 0.823,-4.661c0.823,-2.139 0.877,-1.7 0.987,-3.236c0.11,-1.535 -0.439,-1.261 1.097,-3.016c1.535,-1.755 2.632,-2.029 2.742,-3.4c0.11,-1.371 -1.645,-0.494 0.823,-2.907c2.467,-2.413 1.48,-1.535 3.18,-2.906c1.7,-1.371 0.549,-1.262 2.962,-1.92c2.413,-0.658 2.742,-0.603 5.155,0.055c2.413,0.658 4.003,0.11 5.648,-0.548c1.645,-0.658 1.207,-0.768 2.633,-0.878c1.425,-0.109 7.184,3.016 5.593,3.894c-1.59,0.877 -1.042,0.932 -3.016,1.261c-1.974,0.329 -1.426,-0.274 -2.632,0.494c-1.207,0.768 -0.713,0.439 -2.139,1.261c-1.426,0.823 -0.439,-0.274 -2.358,1.481c-1.92,1.755 0.987,1.864 -2.523,4.168c-3.51,2.303 -6.526,1.096 -6.965,2.632c-0.438,1.536 -1.425,2.632 -1.371,3.565c0.055,0.932 0.384,0.603 2.304,2.084c1.919,1.48 1.316,0.274 2.522,2.138c1.207,1.865 0.823,0.987 2.084,2.742c1.262,1.755 2.139,3.839 1.865,4.826c-0.274,0.987 -0.329,1.755 -0.713,3.071c-0.384,1.317 -0.384,0.878 -1.481,2.742c-1.097,1.865 -2.851,5.155 -2.851,5.155c-0,0 -9.323,-0.054 -9.817,-0.384c-0.493,-0.329 -2.029,-2.138 -2.632,-3.893Z" style="fill:#7d6c74;"/><path d="M111.947,73.913c-0.161,1.333 3.462,-0.534 3.709,-2.208c0.264,-1.79 1.066,-2.424 0.602,-3.832c-0.758,-2.299 1.109,1.505 1.916,5.09c0.218,0.969 0.202,1.558 0.138,2.042c0.408,0.715 0.451,1.138 1.011,2.118c0.657,1.149 1.314,0.766 1.478,1.861c0.164,1.095 0.821,2.682 0.657,3.503c-0.165,0.821 -0.055,1.861 -0.493,2.572c-0.438,0.712 -0.438,1.478 -1.259,1.533c-0.821,0.054 -1.368,0.054 -2.299,-0.493c-0.93,-0.547 -0.235,-1.424 -1.11,-1.37c-0.876,0.055 -1.423,0.219 -1.642,0.876c-0.219,0.657 -0.75,-1.148 -0.805,-0.491c-0.055,0.657 0.109,1.697 -1.259,1.697c-1.368,-0 -1.478,0.492 -2.025,-0.602c-0.547,-1.095 -0.712,-0.821 -0.931,-2.518c-0.218,-1.697 0.274,-1.423 -0.437,-2.627c-0.712,-1.204 -0.602,-1.259 -0.986,-2.025c-0.383,-0.767 -1.094,0.492 -0.492,-1.478c-0,-0 -0.329,-4.871 0.93,-6.021c0,0 0.132,1.551 0.704,2.885c0.093,-0.054 0.352,1.064 0.446,1.056c0.154,-0.013 0.156,-1.196 0.341,-1.24c0.484,-0.941 0.757,-0.673 1.301,-2.591c0.543,-1.918 0.173,-1.839 0.505,2.263Z" style="fill:#ea910f;"/></g></g></svg>