<?xml version="1.0" encoding="UTF-8" standalone="no"?><!DOCTYPE svg PUBLIC "-//W3C//DTD SVG 1.1//EN" "http://www.w3.org/Graphics/SVG/1.1/DTD/svg11.dtd"><svg width="100%" height="100%" viewBox="0 0 150 150" version="1.1" xmlns="http://www.w3.org/2000/svg" xmlns:xlink="http://www.w3.org/1999/xlink" xml:space="preserve" xmlns:serif="http://www.serif.com/" style="fill-rule:evenodd;clip-rule:evenodd;stroke-linejoin:round;stroke-miterlimit:2;"><path id="base" d="M150,75c0,-41.394 -33.606,-75 -75,-75c-41.394,0 -75,33.606 -75,75c0,41.394 33.606,75 75,75c41.394,0 75,-33.606 75,-75Z" style="fill:#72380a;"/><path id="outline" d="M144,75c0,-38.082 -30.918,-69 -69,-69c-38.082,0 -69,30.918 -69,69c0,38.082 30.918,69 69,69c38.082,0 69,-30.918 69,-69Z" style="fill:#140100;"/><path id="core" d="M141,75c0,-36.426 -29.574,-66 -66,-66c-36.426,0 -66,29.574 -66,66c0,36.426 29.574,66 66,66c36.426,0 66,-29.574 66,-66Z" style="fill:#faecc3;"/><clipPath id="_clip1"><path d="M141,75c0,-36.426 -29.574,-66 -66,-66c-36.426,0 -66,29.574 -66,66c0,36.426 29.574,66 66,66c36.426,0 66,-29.574 66,-66Z"/></clipPath><g clip-path="url(#_clip1)"><g id="ghandi-caste-separation"><path d="M44.479,122.571c-15.229,7.749 -17.071,-1.191 -17.071,-1.191l-2.931,-2.505c-0,-0 1.386,-0 2.984,-0.053c1.599,-0.054 3.357,0.746 4.903,0.852c1.545,0.107 3.517,-0.692 3.57,-1.918c0.054,-1.226 -0.053,-5.063 -0.106,-6.821c-0.054,-1.759 0.373,-12.044 0.586,-14.069c0.213,-2.025 0.533,-5.009 0.16,-6.554c-0.373,-1.546 -1.865,-7.834 -1.652,-9.646c0.213,-1.812 0.426,-3.623 0.106,-4.689c-0.319,-1.066 -1.865,-7.567 -2.025,-11.244c-0.16,-3.677 0.906,-11.937 1.492,-14.229c0.587,-2.291 1.546,-5.862 3.677,-6.341c2.132,-0.48 5.223,-0.107 6.502,0.852c1.279,0.96 3.037,3.571 4.37,3.997c1.332,0.427 2.238,-0.053 2.717,-1.172c0.48,-1.119 0.906,-2.878 1.066,-4.317c0.16,-1.438 0.533,-5.648 1.279,-8.153c0.746,-2.505 3.89,-6.235 5.169,-6.768c1.279,-0.533 6.768,-2.238 10.072,0.906c3.304,3.144 6.448,6.395 6.874,9.805c0.427,3.411 0.8,3.891 0.32,5.596c-0.48,1.705 -0.799,3.037 -1.759,3.57c-0.959,0.533 -1.705,0.64 -1.865,1.492c-0.16,0.853 -0.16,2.505 0.48,3.091c0.639,0.586 0.693,0.053 0.959,1.439c0.267,1.386 0.373,4.423 0.373,5.595c0,1.173 0.48,3.038 0.48,3.837c-0,0.8 -0.107,3.358 -0.16,4.743c-0.053,1.386 0.16,3.784 0.16,4.956c-0,1.172 0.213,5.542 0.852,6.342c0.64,0.799 2.025,2.611 2.878,3.783c0.853,1.172 3.038,3.517 4.317,4.636c1.278,1.119 2.504,2.079 3.463,3.038c0.96,0.959 2.558,2.558 4.05,3.197c1.492,0.64 3.251,0.906 4.157,0.48c0.906,-0.427 2.558,-1.173 3.197,-0.959c0.64,0.213 4.743,0.426 5.809,0.799c1.066,0.373 3.783,0.693 5.222,1.172c1.439,0.48 3.091,0.107 2.878,1.279l-0.213,1.173c-1.091,6.703 -45.476,8.315 -47.09,1.2c-0.34,-1.499 2.426,4.56 5.977,8.606l43.249,-0.46c0,-0 1.637,-0.381 2.97,-0.114c1.332,0.266 3.807,0.761 4.378,1.942c0.571,1.18 1.447,4.797 1.257,6.129c-0.191,1.333 -0.838,3.998 -1.104,4.645c-0.267,0.648 -2.285,3.541 -3.77,3.846c-1.484,0.304 -3.997,0.228 -5.634,0.19c-1.638,-0.038 -8.339,-0.228 -10.585,-0.343c-2.246,-0.114 -3.921,-0.495 -5.254,-0.114c-1.333,0.381 -7.691,2.513 -9.556,3.198c-1.866,0.686 -7.425,3.351 -8.262,3.617c-0.838,0.267 -0.838,0.457 -2.133,0.533c-1.294,0.077 -8.604,0.305 -9.708,-0.114c-1.104,-0.419 -3.008,-1.675 -5.102,-1.827c-2.094,-0.153 -3.655,-0.533 -4.645,-0.99c-0.99,-0.457 -1.409,-0.267 -2.323,-0.648c-0.913,-0.38 -4.53,-1.37 -5.177,-1.637c-0.292,-0.12 -4.435,-2.92 -4.828,-3.66Z" style="fill:#b37f5b;"/><path d="M56.78,42.543c0,0 0.577,-0.202 0.952,0.087c0.375,0.288 9.861,8.708 9.861,8.708c0,-0 -0.72,0.547 -0.49,0.98c0.231,0.432 1.067,1.153 1.673,1.096c0.605,-0.058 3.806,-2.394 3.777,-3.086c-0.029,-0.692 -0.779,-1.268 -1.557,-0.807c-0.779,0.461 -1.788,1.442 -2.278,1.413c-0.49,-0.029 -10.092,-8.708 -10.092,-8.708c-0,-0 -0.779,-0.635 -2.019,-0.433l0.173,0.75Zm14.418,7.583c0.481,-0.343 1.016,-0.136 0.548,0.26c-0.75,0.634 -2.019,1.788 -2.423,1.99c-0.403,0.201 -1.326,0.115 -0.72,-0.375c0.605,-0.49 2.191,-1.586 2.595,-1.875Z" style="fill:#49221c;"/><path d="M69.615,56.389c-0.395,-0.152 -1.64,-0.335 -2.096,-0.335c-0.456,0 -1.368,0.183 -1.398,-0.152c-0.03,-0.334 0.091,-0.759 0.425,-0.82c0.335,-0.061 1.581,-0.152 2.067,-0.03c0.486,0.121 1.397,0.547 1.549,0.85c0.152,0.304 0,0.639 0,0.639c0,-0 -0.152,-0 -0.547,-0.152Z" style="fill:#5c5b4f;"/><path d="M26.999,121.588c0,-0 0.164,-0.099 1.473,-0.753c1.31,-0.655 0.459,-1.375 1.539,-0.622c1.08,0.753 1.342,1.08 2.193,1.702c0.852,0.622 1.179,0.295 2.194,1.048c1.015,0.753 -0.033,0.818 1.964,1.145c1.997,0.328 1.67,-0.425 1.932,-0.818c0.262,-0.393 1.047,-0.851 0.294,-1.31c-0.753,-0.458 -1.964,-0.589 -1.767,-1.669c0.196,-1.08 0.654,-2.455 1.08,-3.536c0.425,-1.08 0.818,-2.488 2.488,-3.535c1.67,-1.048 1.768,-0.884 1.8,-1.441c0.033,-0.556 1.015,-5.14 1.114,-6.024c0.098,-0.884 1.244,-5.598 1.309,-6.842c0.066,-1.244 0.393,-5.598 0.393,-5.598c-0,-0 0.426,-0.196 1.866,-0.524c1.44,-0.327 2.75,-0.131 4.452,-0.425c1.703,-0.295 6.646,-0.852 8.381,-0.95c1.735,-0.098 4.453,-0.131 5.926,-0.556c1.473,-0.426 2.553,-0.524 2.946,-0.459c0.393,0.066 0.72,-0.196 0.851,-0.654c0.131,-0.459 0.491,-0.884 0.491,-0.884c0,-0 2.75,1.637 3.601,2.586c0.852,0.949 3.242,2.423 3.962,2.783c0.72,0.36 1.506,0.425 2.553,0.982c1.048,0.556 2.94,1.232 3.649,1.671c0.709,0.439 2.263,1.182 3.276,1.824c1.013,0.642 2.634,1.452 3.816,2.06c1.182,0.608 0.811,0.878 3.04,0.946c2.229,0.068 5.201,0.203 7.228,-0.203c2.026,-0.405 3.782,0.169 5.91,-0.776c2.128,-0.946 3.445,-1.655 5.133,-2.094c1.689,-0.439 4.83,-1.757 6.417,-1.79c1.588,-0.034 3.572,-0.204 5.093,-0.286c1.52,-0.082 2.013,-0.329 2.67,0.575c0.658,0.904 2.425,1.972 3.739,2.671c1.315,0.698 2.877,3.862 2.671,5.218c-0.205,1.356 1.972,3.904 -1.15,4.52c-3.123,0.616 -3.164,-0.165 -4.068,1.068c-0.904,1.233 1.315,3.205 -0.945,3.493c-2.26,0.287 -3.082,1.643 -3.616,-0.165c-0.534,-1.808 -0.329,-3.944 -2.671,-4.684c-2.342,-0.739 -2.547,-1.89 -4.437,-1.274c-1.89,0.617 -2.219,-0.369 -3.205,1.439c-0.986,1.807 -1.233,3.205 -1.233,3.78c0,0.575 -3.123,0.698 -3.903,0.698c-0.781,0 -4.602,3.78 -4.602,3.78c-0,0 -6.903,-2.547 -8.793,-2.547c-1.89,-0 -12.409,-0.288 -12.409,-0.288c0,0 -2.301,2.835 -4.396,2.753c-2.096,-0.082 -3.329,-1.356 -6.862,-1.274c-3.534,0.083 -5.67,0.617 -8.095,0.74c-2.424,0.123 -4.725,-1.438 -5.464,-0.493c-0.74,0.945 1.355,1.561 -0.822,2.137c-2.178,0.575 -2.753,-0.411 -3.493,0.205c-0.739,0.616 0.206,2.671 -1.315,3.164c-1.52,0.493 -2.177,-0.288 -2.588,0.411c-0.411,0.698 0.863,1.931 -0,2.671c-0.863,0.739 -2.507,1.109 -0.411,1.397c2.095,0.287 4.972,1.643 4.972,1.643c-0,0 -5.342,-0.945 -6.862,-0.575c-1.52,0.37 -1.356,0.452 -2.835,0.986c-1.479,0.534 -0.617,0.781 -3.328,0.781c-2.712,-0 -6.369,0.123 -6.369,0.123l-6.777,-7.951Z" style="fill:#c8c9a1;"/></g></g></svg>