<?xml version="1.0" encoding="UTF-8" standalone="no"?><!DOCTYPE svg PUBLIC "-//W3C//DTD SVG 1.1//EN" "http://www.w3.org/Graphics/SVG/1.1/DTD/svg11.dtd"><svg width="100%" height="100%" viewBox="0 0 150 150" version="1.1" xmlns="http://www.w3.org/2000/svg" xmlns:xlink="http://www.w3.org/1999/xlink" xml:space="preserve" xmlns:serif="http://www.serif.com/" style="fill-rule:evenodd;clip-rule:evenodd;stroke-linejoin:round;stroke-miterlimit:2;"><path id="base" d="M150,75c0,-41.394 -33.606,-75 -75,-75c-41.394,0 -75,33.606 -75,75c0,41.394 33.606,75 75,75c41.394,0 75,-33.606 75,-75Z" style="fill:#72380a;"/><path id="outline" d="M144,75c0,-38.082 -30.918,-69 -69,-69c-38.082,0 -69,30.918 -69,69c0,38.082 30.918,69 69,69c38.082,0 69,-30.918 69,-69Z" style="fill:#140100;"/><path id="core" d="M141,75c0,-36.426 -29.574,-66 -66,-66c-36.426,0 -66,29.574 -66,66c0,36.426 29.574,66 66,66c36.426,0 66,-29.574 66,-66Z" style="fill:#faecc3;"/><clipPath id="_clip1"><path d="M141,75c0,-36.426 -29.574,-66 -66,-66c-36.426,0 -66,29.574 -66,66c0,36.426 29.574,66 66,66c36.426,0 66,-29.574 66,-66Z"/></clipPath><g clip-path="url(#_clip1)"><g id="hidenburg"><path d="M19.615,122.289l117.749,0.428l-68.08,45.815l-49.669,-46.243Z" style="fill:#061e34;"/><path d="M26.38,85.898c0.02,-0.198 1.87,-1.836 3.4,-2.04c1.53,-0.204 6.137,-0.357 8.959,0.544c2.822,0.901 7.514,2.227 10.404,3.298c2.89,1.071 9.197,3.468 10.573,4.097c1.377,0.629 43.818,16.136 43.818,16.136l1.125,-0.212c0,-0 0.152,-0.852 0.487,-0.822c0.334,0.031 -0,1.369 -0,1.369c-0,-0 -0.487,1.855 -0.852,1.703c-0.365,-0.152 -1.977,0.487 -1.977,0.487c0,-0 -0.76,1.094 -1.034,1.216c-0.273,0.122 -0.729,0.03 -1.003,0.213c-0.274,0.182 -0.578,1.156 -0.578,1.156c0,-0 1.125,0.821 1.277,1.094c0.152,0.274 0.152,4.653 -0.091,4.866c-0.243,0.213 -7.147,1.886 -9.944,0.882c-2.798,-1.003 -4.41,-3.102 -4.41,-3.102c-0,0 -11.344,0.791 -13.016,0.669c-1.673,-0.121 -3.376,-0.334 -3.802,-0.517c-0.425,-0.182 -2.372,-1.855 -3.223,-2.25c-0.852,-0.396 -5.809,-3.376 -8.181,-4.349c-2.372,-0.973 -7.998,-3.741 -11.404,-5.626c-3.406,-1.886 -8.272,-4.927 -8.789,-5.049c-0.517,-0.121 -1.338,-0.456 -1.612,-0.273c-0.274,0.182 -0.061,0.73 -0.487,0.426c-0.425,-0.305 -0.212,-0.791 -0.912,-0.974c-0.699,-0.182 -0.365,-0.304 -0.639,-0.577c-0.273,-0.274 0.213,-0.335 0.548,-0.305c0.334,0.031 -0.487,-0.577 -1.46,-1.246c-0.973,-0.669 -6.265,-5.748 -6.812,-7.695c-0.547,-1.946 -0.486,-1.89 -0.365,-3.119Z" style="fill:#4a4420;"/><path d="M74.561,104.444l27.541,2.966c-0,-0 2.749,-1.031 2.846,-3.353c0.097,-2.323 -0,0.677 0.484,-3.871c0.484,-4.548 -0.678,-2.903 0.29,-6.774c0.968,-3.871 2.129,-3.871 1.452,-5.516c-0.678,-1.646 -2.323,-1.258 -1.162,-3.194c1.162,-1.935 4.452,-7.064 4.742,-8.806c0.291,-1.742 0.678,-1.258 0.871,-3.871c0.194,-2.613 0.097,-3.581 0.097,-4.645c0,-1.065 1.548,5.032 1.548,7.742l0,3.677c0,0.871 -0.096,-9.097 -0.483,-12.194c-0.388,-3.096 1.064,-8.903 1.064,-8.903c0,0 1.258,-2.129 2.226,-0.193c0.968,1.935 1.451,5.516 2.322,7.838c0.871,2.323 1.259,6.097 1.839,6.968c0.581,0.871 2.032,1.065 1.355,0c-0.677,-1.064 -0.581,-1.452 -0.581,-3.193c0,-1.742 2.033,1.064 -0.484,-3.678c-2.516,-4.742 -3.483,-4.935 -3.096,-7.161c0.387,-2.226 2.709,-0.774 4.935,-4.161c2.226,-3.387 4.065,-3.194 3.29,-5.613c-0.774,-2.42 -17.999,-16.258 -20.806,-16.548c-2.806,-0.291 -24.484,7.161 -24.484,7.161l-5.806,65.322Z" style="fill:#59380f;"/><path d="M65.992,111.62c-1.654,-1.177 -2.859,-1.457 -3.391,-1.99c-0.533,-0.532 -0.309,0.365 -0.813,-1.373c-0.505,-1.738 -0.897,-2.074 -1.205,-2.999c-0.309,-0.925 0.252,-0.869 -0.617,-1.71c-0.869,-0.84 -1.065,-0.7 -1.009,-1.205c0.056,-0.504 -0.813,-0.813 -0.308,-1.429c0.504,-0.617 1.065,-0.421 0.785,-1.037c-0.281,-0.617 -0.393,-0.365 -0.505,-0.925c-0.112,-0.561 0.14,-0.757 -0.14,-1.205c-0.28,-0.449 -0.533,-0.813 -0.841,-0.785c-0.308,0.028 -0.645,-0.028 -0.841,0.7c-0.196,0.729 0.617,1.514 -0.28,0.981c-0.897,-0.532 -0.981,-2.802 -0.981,-2.802c-0,-0 0.701,-0.701 1.065,-1.654c0.364,-0.953 0.224,-1.317 1.373,-1.906c1.15,-0.589 1.85,-0.729 1.85,-0.729c0,0 2.018,-0.476 0.981,-1.625c-1.037,-1.149 -1.233,-0.841 -1.261,-1.402c-0.028,-0.56 1.037,-0.981 0.953,-1.681c-0.084,-0.701 0.224,-0.365 -0.308,-1.037c-0.533,-0.673 -1.206,-0.449 -0.309,-1.29c0.897,-0.841 0.981,-0.785 0.673,-1.401c-0.308,-0.617 -0.645,-1.289 0.252,-1.626c0.897,-0.336 1.205,-1.233 1.009,-1.653c-0.196,-0.421 0.505,-2.103 -0.588,-2.971c-1.093,-0.869 -0.841,-1.037 -0.589,-2.215c0.252,-1.177 0.14,-1.737 0.897,-2.466c0.757,-0.729 1.71,-3.364 2.354,-3.84c0.645,-0.476 0.757,0.084 1.121,-0.42c0.365,-0.505 0.028,-0.561 0.309,-1.234c0.28,-0.672 -0.589,-0.616 0.504,-1.121c1.093,-0.504 2.887,-1.485 2.495,-2.354c-0.393,-0.869 0.616,-2.242 0.644,-3.868c0.028,-1.626 0.225,-1.345 0.113,-2.382c-0.113,-1.037 0.466,-0.141 -0.515,-0.842c-0.981,-0.701 -3.527,-1.619 -5.517,-1.815c-1.99,-0.196 -2.943,-0.448 -5.69,-1.513c-2.746,-1.065 -2.359,-1.239 -4.232,-1.934c-3.021,-1.121 -7.921,-14.561 -8.067,-15.983c-0.111,-1.088 0.83,-8.64 2.383,-10.594c0.842,-1.06 0.448,-1.906 2.158,-2.439c1.71,-0.532 1.738,-0.28 3.279,-1.205c1.542,-0.925 5.914,-4.4 7.119,-5.521c1.206,-1.122 1.402,-1.15 2.187,-1.99c0.784,-0.841 2.018,-2.859 3.811,-3.756c1.794,-0.897 9.586,-1.262 11.8,-0.729c2.215,0.533 5.017,1.233 6.391,1.934c1.373,0.701 3.195,0.561 3.615,2.158c0.421,1.598 0.785,5.325 1.374,4.933c0.588,-0.392 1.597,-1.541 2.803,-2.158c1.205,-0.617 1.569,-0.28 2.886,-0.785c1.318,-0.504 0.193,-1.227 1.037,-2.27c9.717,-11.994 49.488,27.509 42.884,35.203c-0.569,0.663 -3.084,1.766 -3.812,1.738c-0.729,-0.028 -0.841,0.056 -1.262,0.532c-0.42,0.477 -0.476,-0.084 -1.345,0.925c-0.869,1.009 0.477,0.757 -1.401,1.514c-1.878,0.757 -2.186,1.261 -3.252,1.205c-1.065,-0.056 -0.476,0.393 -2.046,-0.308c-1.569,-0.701 -0.812,-1.177 -2.242,-1.289c-1.429,-0.113 -0.168,-0.477 -2.242,0.252c-2.074,0.729 -2.214,1.373 -4.288,1.681c-2.075,0.309 0.333,0.206 -1.579,1.162c-1.912,0.956 -0.526,1.864 -1.721,2.628c-1.195,0.765 -0.143,0.239 -1.911,1.004c-1.769,0.765 -2.868,1.386 -4.302,1.96c-1.434,0.573 0.287,2.342 -3.298,0.621c-3.584,-1.721 -4.301,-1.243 -3.393,-2.485c0.908,-1.243 1.625,-2.39 2.82,-3.346c1.195,-0.956 2.485,-2.198 3.775,-2.772c1.291,-0.573 1.96,-0.573 2.629,-1.004c0.669,-0.43 1.386,0.335 1.195,-1.194c-0.191,-1.53 -0.574,-1.673 -0.621,-3.011c-0.048,-1.339 4.11,-0.909 0.095,-2.868c-4.014,-1.96 -2.485,-2.103 -6.834,-3.25c-4.35,-1.147 -4.397,-2.294 -8.173,-1.434c-3.776,0.86 -3.824,-0.812 -4.875,1.338c-1.052,2.151 1.529,0.239 -1.386,2.772c-2.916,2.533 -2.055,0.43 -3.441,3.537c-1.386,3.107 -2.008,0.191 -1.817,3.632c0.192,3.442 1.339,2.486 0.383,5.306c-0.956,2.819 -0.813,1.481 -1.386,3.871c-0.574,2.39 -0.144,-2.39 -0.86,3.728c-0.717,6.118 -0.574,7.695 -0.574,9.176c-0,1.482 -2.151,-0.382 -3.346,2.151c-1.194,2.533 -1.051,0.669 -1.242,3.25c-0.191,2.581 -0.048,1.291 -0.096,3.728c-0.048,2.438 -0.287,2.438 -0.239,4.923c0.048,2.485 0.239,3.345 0.287,4.636c0.048,1.29 0.096,0.765 -0.096,1.864c-0.191,1.099 0.287,1.386 1.004,3.107c0.717,1.72 0.908,1.338 1.004,2.819c0.095,1.482 0.095,3.633 1.195,3.537c1.099,-0.095 1.29,-1.004 1.911,-1.72c0.622,-0.717 0.096,0.191 1.147,-1.625c1.052,-1.817 0.765,-1.817 1.339,-2.103c0.573,-0.287 1.29,-2.295 1.29,-4.923c0,-2.629 -0.096,-2.294 0.143,-4.015c0.239,-1.721 0.144,-2.007 0.431,-3.202c0.286,-1.195 1.051,-2.533 1.051,-2.533c0,-0 0.765,0.526 0.813,1.481c0.047,0.956 -0.431,0.192 -0.478,1.291c-0.048,1.099 -0.239,-0.048 -0.239,2.103c-0,2.151 0.334,0.956 0.573,3.298c0.239,2.342 0.048,1.338 -0.143,2.963c-0.191,1.625 -0.191,1.051 -0.144,2.342c0.048,1.29 0.526,0.812 -0.143,1.625c-0.669,0.812 -3.25,2.533 -0.048,2.485c3.202,-0.048 3.25,-0.765 4.732,-0.143c1.481,0.621 0.956,-0.096 2.342,0.812c1.386,0.908 1.768,0.813 2.246,1.243c0.478,0.43 -0.382,2.103 1.052,0.573c1.433,-1.529 1.864,-2.676 3.154,-1.433c1.29,1.242 0.621,0.525 2.007,2.485c1.386,1.959 1.482,4.301 1.004,4.779c-0.478,0.478 -1.577,-0.287 -3.393,1.386c-1.817,1.673 -1.721,3.155 -2.39,2.868c-0.669,-0.287 0.43,-0.335 0.048,-1.625c-0.383,-1.291 0.048,-1.864 -0.908,-2.485c-0.956,-0.622 -0.287,-1.195 -2.008,-0.956c-1.72,0.239 -3.059,-1.291 -4.588,-0.765c-1.529,0.526 -3.537,1.052 -4.971,2.294c-1.433,1.243 -0.573,1.769 -3.154,2.342c-2.581,0.574 -1.768,0.478 -3.824,-0.191c-2.055,-0.669 -0.143,-1.147 -2.724,-0.86c-2.581,0.286 -1.577,0.525 -3.871,0.717c-2.294,0.191 -3.346,1.768 -4.636,1.099c-1.291,-0.669 -0.372,-0.105 -2.026,-1.283Z" style="fill:#fdcb74;"/></g></g></svg>