<?xml version="1.0" encoding="UTF-8" standalone="no"?><!DOCTYPE svg PUBLIC "-//W3C//DTD SVG 1.1//EN" "http://www.w3.org/Graphics/SVG/1.1/DTD/svg11.dtd"><svg width="100%" height="100%" viewBox="0 0 150 150" version="1.1" xmlns="http://www.w3.org/2000/svg" xmlns:xlink="http://www.w3.org/1999/xlink" xml:space="preserve" xmlns:serif="http://www.serif.com/" style="fill-rule:evenodd;clip-rule:evenodd;stroke-linejoin:round;stroke-miterlimit:2;"><path id="base" d="M150,75c0,-41.394 -33.606,-75 -75,-75c-41.394,0 -75,33.606 -75,75c0,41.394 33.606,75 75,75c41.394,0 75,-33.606 75,-75Z" style="fill:#72380a;"/><path id="outline" d="M144,75c0,-38.082 -30.918,-69 -69,-69c-38.082,0 -69,30.918 -69,69c0,38.082 30.918,69 69,69c38.082,0 69,-30.918 69,-69Z" style="fill:#140100;"/><path id="core" d="M141,75c0,-36.426 -29.574,-66 -66,-66c-36.426,0 -66,29.574 -66,66c0,36.426 29.574,66 66,66c36.426,0 66,-29.574 66,-66Z" style="fill:#faecc3;"/><clipPath id="_clip1"><path d="M141,75c0,-36.426 -29.574,-66 -66,-66c-36.426,0 -66,29.574 -66,66c0,36.426 29.574,66 66,66c36.426,0 66,-29.574 66,-66Z"/></clipPath><g clip-path="url(#_clip1)"><g id="normandy"><path d="M36.171,69.982c0,0 1.013,0.317 4.241,0.063c3.228,-0.253 2.658,-0.316 5.886,-0.253c3.228,0.064 5.633,-0.063 8.481,0.064c2.849,0.126 1.773,-0.127 6.266,0.189c4.494,0.317 5.697,0.19 8.925,0.507c3.228,0.316 2.974,0.316 6.962,0.19c3.987,-0.127 7.532,-0.443 8.987,-0.443c1.456,-0 10.064,0.253 12.849,-0c2.785,-0.254 3.987,-0.38 5.886,-0.254c1.899,0.127 3.671,0.254 5.19,0.254c1.519,-0 5.127,-0.064 5.127,-0.064l3.917,51.394l-90.312,-1.962l7.595,-49.685Z" style="fill:#98aab9;"/><path d="M29.775,124.056c0.027,-0.589 11.489,-12.465 11.489,-12.465l1.654,-11.659l3.688,-1.823l0.212,-0.764l0.721,-0.084l56.515,1.144l3.053,1.696l1.653,1.95l6.826,26.541c-0.663,18.246 -87.082,22.748 -85.811,-4.536Z" style="fill:#ccc9c4;"/><path d="M141.348,76.471l-26.748,-12.521l0.688,-0.214c-0,0 0.485,-0.026 0.476,-0.321c-0.008,-0.295 -0.043,-1.803 -0.043,-1.803l1.72,3.668l0.672,0.314l-2.271,-5.014l-0.121,-2.341c0,0 0.078,-0.425 -0.321,-0.442c-0.399,-0.017 -1.37,-0.044 -1.37,-0.044c0,0 0.113,-1.612 -1.214,-1.638c-1.326,-0.026 -1.031,2.167 -1.031,2.167l-0.078,4.336l-0.512,0.268l0.245,14.343l-0.233,0.337l-0.312,4.363l-1.454,11.999l-2.909,16.283l-1.039,3.35l7.272,17.115c13.843,-12.314 28.54,-23.491 28.583,-54.205Zm-110.973,-13.987l-0.616,0.157l3.817,-5.772l0.015,-1.083c0,-0 0.016,-0.238 0.115,-0.33c0.1,-0.093 0.408,-0.116 0.408,-0.116l1.26,-0.038c-0,-0 0.676,-1.614 1.928,-1.621c1.253,-0.008 1.483,1.636 1.483,1.636l-0.184,5.025l0.446,0.269l-0.154,4.28l-0.935,9.125l4.057,22.039l0.146,0.248l0.351,1.81c-0,0 0.584,0.423 0.656,0.774c0.073,0.35 -0.437,0.627 -0.437,0.627l-0.015,0.993c0,-0 0.423,0.452 0.438,0.861c0.014,0.409 -0.628,1.182 -0.628,1.182l-0.379,3.634l-0.205,0.044l-0.204,-0.642l0.044,-2.043l0.073,-0.92c-0,0 -0.219,-0.452 -0.234,-0.934c-0.014,-0.482 0.511,-1.08 0.511,-1.08l-0.029,-0.89c0,-0 -0.482,-0.161 -0.482,-0.555c0,-0.394 0.219,-0.613 0.219,-0.613l-0.175,-1.562l0,-0.905l-3.678,-20.418l0.336,12.23l0.963,9.677l0.423,4.306l0.54,0.087l0.132,3.255l1.474,7.663l-1.095,1.853l-9.968,9.546c-14.351,-7.308 -23.636,-23.236 -22.996,-56.051l25.976,-6.612c-0,-0 0.303,-0.225 0.096,-0.371c-0.208,-0.146 -0.277,-0.069 -0.284,-0.307c-0.008,-0.238 -0.039,-3.189 -0.039,-3.189l-3.17,4.731Z" style="fill:#7e736a;"/><path d="M38.097,85.158c0.103,-0.12 0.12,-0.274 0.445,-0.326c0.326,-0.051 1.73,-0.308 1.73,-0.308c-0,0 0.513,-0.479 0.685,-0.479c0.171,-0 0.154,0.034 0.428,0.205c0.274,0.172 0.787,0.531 0.89,0.343c0.103,-0.189 0.291,-0.463 0.103,-0.959c-0.188,-0.497 -0.171,-0.856 0.137,-1.267c0.308,-0.411 0.445,-0.24 0.582,-0.154c0.137,0.085 0.137,0.274 0.154,0.633c0.017,0.36 0.325,1.37 0.24,1.576c-0.086,0.205 0.034,0.616 -0.685,0.924c-0.719,0.308 -0.805,0.189 -1.284,0.548c-0.48,0.36 -0.634,0.856 -0.702,1.147c-0.069,0.291 0.77,0.874 1.233,0.942c0.462,0.069 0.736,-0.051 0.958,-0.205c0.223,-0.155 0.754,-0.326 0.754,-0.326c-0,0 0.377,-0.188 0.359,0.12c-0.017,0.308 -0.308,0.856 -0.616,1.404c-0.308,0.548 -0.514,0.634 -0.582,1.267c-0.069,0.634 0.068,1.165 0.291,1.25c0.223,0.086 0.805,-0.822 0.805,-0.822c-0,0 0.77,1.267 0.702,1.524c-0.069,0.257 -0.257,0.463 -0.017,0.702c0.239,0.24 0.154,0.565 0.222,0.839c0.069,0.274 0.514,0.257 0.908,0.291c0.394,0.035 1.695,-0.068 2.191,-0.137c0.497,-0.068 2.226,0 2.945,-0.137c0.72,-0.137 1.216,0 1.302,-0.393c0.085,-0.394 0.222,-1.199 0.377,-1.764c0.154,-0.565 0.342,-0.308 0.41,-1.267c0.069,-0.959 -0.068,-0.839 0.086,-1.353c0.154,-0.514 -0.137,-0.342 0.308,-0.873c0.445,-0.531 0.428,-0.137 0.634,-0.805c0.205,-0.668 0.222,-1.678 0.085,-2.055c-0.137,-0.376 -0.359,-1.01 -0.65,-1.438c-0.291,-0.428 -0.394,-0.805 -0.856,-1.267c-0.463,-0.462 -0.805,-1.062 -0.805,-1.062l0.051,-0.256c0,-0 0.668,0.102 1.147,0.017c0.48,-0.086 0.309,0.154 0.942,-0.12c0.634,-0.274 1.079,-0.428 1.079,-0.428c-0,-0 -0.017,0.428 0.223,0.582c0.239,0.154 0.017,0.445 1.198,0.445c1.182,0 1.524,-0.103 2.243,-0.034c0.719,0.068 1.182,-0.017 1.336,0.068c0.154,0.086 0.753,0.583 0.753,0.583c0,-0 -0.274,0.633 -0.479,1.198c-0.206,0.565 -0.308,0.908 -0.394,1.147c-0.086,0.24 -0.188,0.6 0.051,0.993c0.24,0.394 0.702,0.737 0.702,0.737c0,-0 -0.017,0.394 0.052,0.856c0.068,0.462 0.034,1.627 0.017,1.781c-0.017,0.154 0.822,0.154 1.061,0.12c0.24,-0.035 0.48,0.034 0.668,0.119c0.189,0.086 0.445,0.257 0.617,0.223c0.171,-0.034 0.342,-0.137 0.787,-0.274c0.445,-0.137 0.582,-0.223 0.908,-0.223c0.325,0 1.027,0.086 1.027,0.086c0,0 0.12,1.695 0.034,2.175c-0.085,0.479 -0.034,0.428 -0.325,0.667c-0.291,0.24 -1.318,0.565 -1.455,0.959c-0.137,0.394 -0.634,0.668 -0.223,0.702c0.411,0.035 1.746,0.086 1.746,0.086c0,-0 0.634,0.051 0.566,0.308c-0.069,0.257 -0.994,1.25 -1.113,1.678c-0.12,0.428 0.034,0.531 -0.274,0.856c-0.309,0.326 -0.257,1.096 -0.257,1.096c-0,0 0.272,0.076 0.564,0.112c0.292,0.037 1.076,0.274 1.897,0.11c0.821,-0.164 1.642,-0.092 2.025,-0.274c0.383,-0.182 1.35,-0.182 1.751,-0.383c0.401,-0.201 0.456,-0.274 0.857,-0.657c0.401,-0.383 1.167,-1.276 1.167,-1.276l0.384,-0.675c-0,-0 -0.019,0.784 0.018,1.003c0.036,0.219 0.729,0.511 -0.11,1.058c-0.839,0.547 -1.076,0.693 -1.295,0.948c-0.219,0.256 -1.441,1.003 -0.091,0.639c1.35,-0.365 3.812,0.073 4.104,0.054c0.292,-0.018 2.772,-0.164 2.937,-0.164c0.164,0 4.87,0.146 4.87,0.146l1.349,0c0,0 -1.058,-1.988 -1.276,-2.189c-0.219,-0.2 0.036,-0.328 0.583,-0.346c0.547,-0.018 1.35,-0.146 1.897,-0.037c0.547,0.11 1.952,0.146 2.262,0.165c0.31,0.018 1.058,-0.566 1.058,-0.566l0.438,-0.948c-0,-0 0.237,-0.42 0.109,-0.639c-0.128,-0.219 -0.091,-0.255 -0.292,-0.675c-0.2,-0.419 -0.219,-0.766 -0.456,-0.875c-0.237,-0.11 -0.419,-0.037 -0.419,-0.037l0.018,-0.912c-0,0 0.255,0.329 0.511,0.529c0.255,0.201 1.641,0.821 1.641,1.004c0,0.182 -0.182,0.51 0.11,0.583c0.291,0.073 0.912,0.237 0.912,-0.146c-0,-0.383 0.219,-1.003 0.018,-1.112c-0.201,-0.11 -1.131,-0.785 -1.131,-0.785l0.748,-0.529c-0,0 0.62,-0.456 0.565,-0.747c-0.054,-0.292 -0.255,-0.985 -0.346,-1.15c-0.091,-0.164 -0.274,-0.747 -0.274,-0.747c0,-0 0.857,-0.019 1.058,-0.165c0.201,-0.145 0.42,-0.383 0.748,-0.383l0.894,0c-0,0 -0.165,-0.674 -0.238,-0.93c-0.072,-0.255 -0.072,-1.514 -0.072,-1.514l0.401,0.055l0.182,-0.109l0.073,-0.949l-0.456,-0.128l-0.31,-0.109l0.073,-0.347l0.748,-0.255c-0,0 0.292,-0.383 0.164,-0.602c-0.128,-0.219 -1.605,-1.131 -1.86,-1.386c-0.256,-0.255 -0.529,-0.529 -0.639,-0.693c-0.109,-0.164 -0.401,-0.511 -0.164,-0.456c0.237,0.055 1.788,0.438 2.152,0.529c0.365,0.091 1.131,0.073 1.551,0.073c0.419,-0 1.696,-0.11 1.696,-0.11l-0.383,-0.51l-1.569,0.054l0.11,-0.583l0.146,-0.292l-0.858,-0.675c0,-0 0.128,-0.292 0.238,-0.456c0.109,-0.164 0.437,-0.967 0.291,-1.277c-0.146,-0.31 -0.401,-0.839 -1.021,-0.547c-0.62,0.292 -0.839,0.547 -0.967,0.912c-0.127,0.365 -0.365,0.383 -0.365,0.383l0.493,0.182l-0.219,0.365c0,0 -0.383,0.164 -0.547,0.292c-0.164,0.128 -0.018,0.565 -0.347,0.128c-0.328,-0.438 -1.039,-1.259 -1.039,-1.259c-0,0 -0.493,0.256 -0.73,0.383c-0.237,0.128 -0.237,0.073 -0.657,0.164c-0.419,0.092 -0.419,-0.036 -1.039,0.292c-0.62,0.329 -0.675,0.383 -0.785,0.857c-0.109,0.475 -0.109,0.548 -0.383,1.004c-0.273,0.456 -0.218,1.076 -0.218,1.076c-0,-0 -0.639,0.146 -1.478,0.146c-0.839,-0 -0.967,-0.091 -1.222,0.073c-0.255,0.164 -0.456,0.62 -0.456,0.62l-0.365,0.62c0,0 0.037,0.31 -0.437,0.237c-0.475,-0.073 -0.384,0.164 -0.712,-0.146c-0.328,-0.31 -0.492,-0.766 -0.492,-0.766c-0,0 -0.037,0.657 -0.256,1.04c-0.219,0.383 -0.054,0.511 -0.456,1.003c-0.401,0.492 -0.346,0.821 -0.529,0.821c-0.182,-0 -0.401,0.073 -0.401,0.073c0,-0 0.784,0.437 0.766,0.893c-0.018,0.456 0.055,0.858 -0.146,1.423c-0.2,0.566 -0.255,0.328 -0.456,0.766c-0.2,0.438 -0.346,0.785 -0.292,0.985c0.055,0.201 0.912,1.113 0.912,1.113c0,-0 -0.656,0.255 -1.021,0.529c-0.365,0.273 -0.584,0.784 -0.876,1.185c-0.291,0.402 -0.711,0.985 -0.711,0.985l0.784,0.785c0,-0 0.201,-0.037 -0.273,0.146c-0.474,0.182 -0.274,0.182 -1.277,-0.274c-1.003,-0.456 -1.277,-0.748 -1.55,-0.73c-0.274,0.019 -0.529,-0.2 -0.529,-0.2c-0,-0 1.24,-0.274 1.404,-0.256c0.164,0.019 0.93,-0.109 0.93,-0.109l0.019,-0.73c-0,0 -2.116,-0.091 -2.827,-0.091c-0.712,0 -1.004,-0.055 -1.004,-0.055c0,0 -0.31,-0.857 -0.109,-0.966c0.201,-0.11 0.31,-0.037 0.602,-0.292c0.292,-0.255 0.492,-0.456 0.328,-0.73c-0.164,-0.273 -0.237,-0.675 -0.128,-0.912c0.11,-0.237 0.019,-0.529 0.365,-0.62c0.347,-0.091 2.335,0.201 2.645,0.146c0.31,-0.055 0.675,-0.146 0.693,-0.365c0.018,-0.219 0.091,-1.24 0.128,-1.477c0.036,-0.237 0.492,-0.566 0.328,-0.967c-0.164,-0.401 -0.474,-0.821 -0.638,-1.094c-0.164,-0.274 -0.292,-1.149 -0.292,-1.149c-0,-0 0.346,-0.438 0.255,-0.803c-0.091,-0.365 -0.456,-0.784 -0.474,-0.967c-0.018,-0.182 0.693,-0.054 0.894,0.329c0.2,0.383 0.711,0.784 0.985,0.602c0.273,-0.183 0.711,-0.383 0.693,-0.748c-0.018,-0.365 0.292,-0.93 0.036,-1.095c-0.255,-0.164 -0.948,-0.729 -1.185,-1.039c-0.237,-0.31 -0.42,-0.566 -0.42,-0.566c0,0 0.566,0.201 0.876,0.237c0.31,0.037 1.076,0.11 1.24,0.073c0.164,-0.036 0.711,-0.273 0.711,-0.273c0,-0 0.365,0.419 0.584,0.565c0.219,0.146 0.894,0.219 1.277,0.237c0.383,0.019 1.167,0 1.459,-0.036c0.292,-0.037 0.748,-0.42 0.657,-0.857c-0.092,-0.438 -0.219,-1.004 0.018,-0.949c0.237,0.055 1.24,0.365 1.24,0.365c0,-0 0.985,-0.018 0.949,-0.255c-0.037,-0.238 -1.15,-0.876 -1.642,-1.004c-0.492,-0.127 -0.675,-0.401 -1.058,-0.474c-0.383,-0.073 -0.511,-0.109 -0.365,-0.219c0.146,-0.109 0.657,-0.346 0.548,-0.583c-0.11,-0.238 -0.11,-1.04 -0.438,-1.095c-0.329,-0.055 -0.639,-0.346 -0.912,-0.091c-0.274,0.255 -0.219,0.182 -0.401,0.565c-0.183,0.383 -0.347,0.475 -0.438,0.621c-0.091,0.146 -0.42,0.583 -0.42,0.583c0,0 0.018,-0.164 -0.219,0.11c-0.237,0.273 -0.054,0.219 -0.474,0.51c-0.419,0.292 -0.456,0.329 -0.711,0.146c-0.256,-0.182 -0.256,-0.127 -0.365,-0.328c-0.109,-0.201 -0.018,-0.438 0.018,-0.602c0.037,-0.164 0.128,-0.219 0.073,-0.547c-0.055,-0.328 -0.055,-0.602 -0.419,-0.62c-0.365,-0.018 -0.785,-0.256 -0.985,0.054c-0.201,0.311 -0.183,0.456 -0.11,0.803c0.073,0.347 0.347,0.474 0.146,0.62c-0.2,0.146 -0.127,0 -0.438,0.146c-0.31,0.146 -0.656,0.201 -0.857,0.401c-0.2,0.201 -0.2,0.584 -0.474,0.475c-0.274,-0.11 -0.365,-0.347 -0.675,-0.438c-0.31,-0.091 -0.419,0.237 -0.492,-0.219c-0.073,-0.456 0.073,-0.657 -0.219,-0.93c-0.292,-0.274 -0.766,-0.438 -1.076,-0.493c-0.31,-0.054 -0.329,-0.273 -0.912,-0.328c-0.584,-0.055 -0.821,0.018 -0.985,0.109c-0.165,0.092 -0.675,0.438 -0.675,0.438c-0,0 -0.11,-0.2 -0.383,-0.346c-0.274,-0.146 -0.766,-0.256 -0.967,-0.165c-0.201,0.092 -0.419,0.183 -0.474,0.529c-0.055,0.347 0.018,0.675 -0.091,0.876c-0.11,0.201 -0.165,0.438 -0.383,0.456c-0.219,0.018 -2.007,-0.383 -2.007,-0.383l1.532,0.766c0,-0 -0.2,-0.055 -0.292,0.237c-0.091,0.292 -0.182,0.657 -0.182,0.657c0,-0 -0.201,0.565 -0.255,0.839c-0.055,0.273 -0.164,0.729 0.219,0.547c0.383,-0.183 0.802,-0.493 0.802,-0.493c0,0 -0.146,0.511 0.091,0.548c0.237,0.036 1.04,0.091 1.441,0.018c0.402,-0.073 0.73,-0.11 0.584,0.091c-0.146,0.201 -0.565,0.584 -0.784,0.73c-0.219,0.146 -0.31,0.127 -0.657,0.474c-0.347,0.346 -0.839,0.748 -1.131,1.04c-0.292,0.291 -0.583,0.984 -0.656,1.13c-0.073,0.146 -0.238,0.456 -0.238,0.456c0,0 -0.529,0.803 -0.31,0.839c0.219,0.037 0.256,0.055 0.347,-0.127c0.091,-0.183 0.219,-0.547 0.346,-0.438c0.128,0.109 0.183,0.328 0.183,0.328c-0,0 0.128,0.237 0.273,0.092c0.146,-0.146 0.073,-0.238 0.292,-0.493c0.219,-0.255 0.566,-0.529 0.858,-0.675c0.291,-0.146 0.693,-0.328 0.912,-0.565c0.218,-0.237 1.112,-1.149 1.331,-1.295c0.219,-0.146 0.493,-0.329 0.401,0.091c-0.091,0.419 -0.091,0.638 -0.328,1.04c-0.237,0.401 -0.365,0.711 -0.328,1.003c0.036,0.292 0.273,0.894 0.328,1.058c0.055,0.164 -0.803,-0.073 -1.04,-0.073c-0.237,-0 -0.82,0.054 -1.24,0.2c-0.419,0.146 -1.131,0.347 -1.441,0.566c-0.31,0.219 0.128,0.565 -0.255,0.656c-0.383,0.092 -0.529,0.11 -0.657,-0.364c-0.128,-0.475 -0.073,-0.967 -0.201,-1.277c-0.127,-0.31 -0.528,-1.113 -0.82,-1.168c-0.292,-0.054 -1.405,-0.072 -1.569,-0.237c-0.164,-0.164 -0.401,-0.875 -0.802,-0.985c-0.402,-0.109 -1.533,-0.273 -1.606,-0.437c-0.073,-0.164 -0.182,-0.347 0.019,-0.456c0.2,-0.11 0.565,-0.347 0.565,-0.639c0,-0.292 -0.036,-1.349 -0.182,-1.532c-0.146,-0.182 -1.076,-0.638 -1.496,-0.656c-0.419,-0.019 -0.912,0.966 -1.076,1.039c-0.164,0.073 -0.201,-0.055 -0.347,-0.164c-0.146,-0.109 -0.419,-0.657 -0.802,-0.784c-0.383,-0.128 -0.675,-0.274 -0.675,-0.274c-0,0 -0.091,-0.164 -0.128,-0.456c-0.036,-0.292 0.037,-1.24 -0.383,-1.386c-0.419,-0.146 -0.583,-0.037 -0.857,-0.073c-0.274,-0.037 -0.438,-0.456 -0.839,-0.401c-0.401,0.054 -0.328,0.182 -0.876,0.638c-0.547,0.456 -0.985,1.113 -1.258,1.222c-0.274,0.11 -0.347,0.255 -0.73,0.347c-0.383,0.091 -0.2,-0.237 -0.821,-0.456c-0.62,-0.219 -0.729,-0.128 -0.984,-0.365c-0.256,-0.237 -0.548,-0.639 -0.712,-0.766c-0.164,-0.128 -0.273,-0.602 -0.273,-0.602c-0,-0 0.364,-0.365 0.255,-0.493c-0.109,-0.127 -0.438,-0.547 -0.438,-0.547c0,0 -0.62,-0.255 -0.894,-0.127c-0.273,0.127 -0.273,0.255 -0.437,0.601c-0.164,0.347 0.036,0.292 -0.329,0.511c-0.364,0.219 -0.51,0.329 -0.766,0.529c-0.255,0.201 -0.127,0.219 -0.638,0.584c-0.511,0.365 -0.493,0.693 -0.784,0.583c-0.292,-0.109 -0.238,-0.656 -0.712,-0.912c-0.474,-0.255 -0.365,-0.383 -0.893,-0.346c-0.529,0.036 -0.548,-0.109 -0.42,-0.31c0.128,-0.201 0.328,-0.219 0.073,-0.73c-0.255,-0.51 -0.31,-0.802 -0.584,-0.748c-0.273,0.055 -0.693,-0.073 -0.875,0.256c-0.183,0.328 -0.183,0.656 -0.164,0.894c0.018,0.237 0.127,0.419 -0.073,0.51c-0.201,0.091 -0.602,0.511 -0.821,0.42c-0.219,-0.091 -1.24,-0.566 -1.678,-0.675c-0.438,-0.11 -1.277,-0.711 -1.605,-0.766c-0.329,-0.055 -1.149,0.255 -1.35,0.62c-0.201,0.365 -0.31,0.93 -0.456,1.076c-0.146,0.146 -0.146,0.274 -0.347,0.547c-0.2,0.274 -0.218,0.42 -0.437,0.675c-0.219,0.256 -0.42,0.365 -0.42,0.365c0,-0 0.202,7.57 0.304,7.45Zm66.058,-6.955c-0.295,-0.168 0.587,-0.365 0.317,-0.553c-0.27,-0.188 -0.317,-0.118 -0.423,-0.27c-0.106,-0.153 -0.353,-0.341 0.153,-0.671c0.505,-0.329 0.47,-0.47 0.952,-0.54c0.482,-0.071 0.541,0.058 0.8,-0.2c0.258,-0.259 0.54,-1.082 0.658,-1.388c0.117,-0.305 0.882,-0.823 1.14,-0.482c0.259,0.341 0.377,0.635 0.259,1.058c-0.118,0.424 -0.517,0.424 -0.294,0.647c0.224,0.223 0.835,0.623 1.411,1.011c0.576,0.388 0.905,0.341 1.07,0.717c0.165,0.377 0.376,0.776 -0.012,0.765c-0.388,-0.012 -1.023,-0 -1.082,0.105c-0.058,0.106 -0.058,0.706 0.083,0.906c0.141,0.2 0.87,1.246 0.94,1.516c0.071,0.271 0.259,0.177 0.4,-0.035c0.141,-0.211 0.141,-0.646 0.247,-0.776c0.106,-0.129 0.388,-0.364 0.388,-0.364l0.858,0.188l-1.269,12.087c-0,-0 -1.317,0.164 -1.259,-0.059c0.059,-0.224 0.694,-1.458 0.518,-1.834c-0.177,-0.377 -0.635,-0.765 -0.576,-0.976c0.058,-0.212 0.435,-0.435 0.599,-0.741c0.165,-0.306 0.271,-0.423 0.259,-0.952c-0.012,-0.529 0.223,-0.941 0.106,-1.106c-0.118,-0.164 -0.682,-0.564 -1.047,-0.646c-0.364,-0.083 -0.928,-0.447 -0.881,-1.058c0.047,-0.612 -0.094,-0.988 0.117,-1.552c0.212,-0.565 0.13,-0.671 -0.07,-1c-0.2,-0.329 -0.106,-1.857 -0.341,-2.363c-0.235,-0.506 -0.812,-1.964 -0.812,-1.964c0,0 -0.223,0.106 -1.046,0.118c-0.823,0.012 -0.752,-0.235 -1.023,0.059c-0.27,0.294 -0.788,0.552 -1.14,0.353Zm-60.38,3.457c-0.111,-0.222 0.407,-0.406 0.709,-0.406c0.302,-0 0.814,0.081 1.092,-0.012c0.279,-0.093 0.895,-0.453 0.883,-0.116c-0.011,0.337 0.012,0.476 -0.22,0.755c-0.233,0.279 -0.442,0.663 -0.825,0.663c-0.384,-0 -0.581,0.046 -0.57,-0.326c0.012,-0.372 0,-0.662 -0.278,-0.616c-0.279,0.047 -0.593,0.454 -0.791,0.058Zm16.382,-1.897c0.112,-0.084 0.277,-0.172 0.84,-0.24c0.562,-0.067 0.734,-0.18 0.937,0.045c0.202,0.225 0.517,0.532 0.667,0.72c0.15,0.187 0.075,0.457 -0.158,0.629c-0.232,0.173 -0.09,0.255 -0.307,0.285c-0.217,0.03 -1.424,-0.899 -1.687,-1.109c-0.262,-0.21 -0.442,-0.218 -0.292,-0.33Zm-5.487,-0.128c-0.053,0.075 -0.218,0.413 -0.548,0.533c-0.329,0.12 -1.064,0.27 -1.296,0.12c-0.233,-0.15 -0.458,-0.742 -0.668,-0.96c-0.21,-0.217 -0.367,-0.51 -0.652,-0.615c-0.285,-0.105 -1.072,-0.052 -0.757,-0.322c0.315,-0.27 0.502,-0.36 0.997,-0.352c0.495,0.007 1.552,0.015 1.732,0.187c0.18,0.173 0.502,-0.045 0.345,0.39c-0.158,0.435 -0.293,0.607 -0.188,0.705c0.105,0.097 0.93,0.3 1.035,0.314Zm-4.513,-1.274c0.311,0.168 -0.472,0.585 -0.81,0.51c-0.337,-0.075 -0.974,-0.315 -1.049,-0.472c-0.075,-0.158 0.105,-0.368 0.532,-0.315c0.427,0.052 1.229,0.225 1.327,0.277Zm-8.06,-2.465c-0.024,-0.087 0.102,-0.338 0.298,-0.22c0.197,0.118 1.037,0.55 1.249,0.699c0.212,0.149 -0.252,0.392 -0.369,0.612c-0.118,0.22 -0.346,1.107 -0.668,0.974c-0.322,-0.134 -1.806,-0.809 -1.539,-0.95c0.267,-0.142 2.112,-0.149 2.175,-0.236c0.063,-0.086 -0.07,-0.259 -0.432,-0.463c-0.361,-0.204 -0.691,-0.33 -0.714,-0.416Z" style="fill:#7d7d75;"/></g></g></svg>