<?xml version="1.0" encoding="UTF-8" standalone="no"?><!DOCTYPE svg PUBLIC "-//W3C//DTD SVG 1.1//EN" "http://www.w3.org/Graphics/SVG/1.1/DTD/svg11.dtd"><svg width="100%" height="100%" viewBox="0 0 150 150" version="1.1" xmlns="http://www.w3.org/2000/svg" xmlns:xlink="http://www.w3.org/1999/xlink" xml:space="preserve" xmlns:serif="http://www.serif.com/" style="fill-rule:evenodd;clip-rule:evenodd;stroke-linejoin:round;stroke-miterlimit:2;"><path id="base" d="M150,75c0,-41.394 -33.606,-75 -75,-75c-41.394,0 -75,33.606 -75,75c0,41.394 33.606,75 75,75c41.394,0 75,-33.606 75,-75Z" style="fill:#72380a;"/><path id="outline" d="M144,75c0,-38.082 -30.918,-69 -69,-69c-38.082,0 -69,30.918 -69,69c0,38.082 30.918,69 69,69c38.082,0 69,-30.918 69,-69Z" style="fill:#140100;"/><path id="core" d="M141,75c0,-36.426 -29.574,-66 -66,-66c-36.426,0 -66,29.574 -66,66c0,36.426 29.574,66 66,66c36.426,0 66,-29.574 66,-66Z" style="fill:#faecc3;"/><clipPath id="_clip1"><path d="M141,75c0,-36.426 -29.574,-66 -66,-66c-36.426,0 -66,29.574 -66,66c0,36.426 29.574,66 66,66c36.426,0 66,-29.574 66,-66Z"/></clipPath><g clip-path="url(#_clip1)"><g id="woodstock"><path d="M39.017,131.899c0,-0 0.783,-1.173 1.33,-1.799c0.548,-0.626 1.955,-2.816 2.581,-4.145c0.626,-1.33 2.346,-4.849 2.815,-5.788c0.47,-0.938 3.051,-4.301 3.754,-5.396c0.704,-1.095 2.269,-3.519 3.363,-5.162c1.095,-1.642 2.972,-5.005 3.754,-6.647c0.783,-1.643 2.112,-3.129 2.425,-3.833c0.313,-0.704 1.251,-2.424 1.642,-3.363c0.391,-0.938 3.989,-5.005 4.927,-6.647c0.939,-1.643 2.347,-3.754 3.442,-5.006c1.095,-1.251 2.893,-3.519 3.363,-4.458c0.469,-0.938 16.267,-7.117 17.44,-6.96c1.173,0.156 9.933,1.955 11.262,2.424c1.33,0.469 22.759,2.737 24.245,2.972c1.486,0.235 5.162,0.939 8.368,1.251c3.207,0.313 9.464,0.626 9.464,0.626c-8.992,63.689 -64.945,78.553 -104.175,51.931Z" style="fill:#88929e;"/><path d="M78.137,82.083c-0,-0 -0.157,1.068 -1.069,1.32c-0.912,0.251 -1.98,0.786 -2.766,0.409c-0.786,-0.378 -2.389,-0.661 -2.326,-1.541c0.063,-0.88 0.408,-2.892 -0.063,-3.646c-0.472,-0.754 -1.1,-1.069 -1.32,-1.76c-0.22,-0.692 -0.629,-1.76 -0.535,-2.861c0.095,-1.1 0.598,-2.577 1.069,-3.489c0.472,-0.911 2.358,-1.854 3.018,-2.357c0.66,-0.503 1.76,-1.132 2.263,-1.195c0.503,-0.063 2.86,-0.471 3.3,-0.471c0.44,-0 0.912,-0.409 1.446,-0.283c0.535,0.126 1.352,0.629 2.295,0.943c0.943,0.314 0.849,-0.031 1.76,0.377c0.912,0.409 2.986,1.352 3.489,1.886c0.503,0.535 1.258,1.603 1.698,1.949c0.44,0.346 0.974,0.817 0.691,1.289c-0.283,0.471 -12.95,9.43 -12.95,9.43Z" style="fill:#4a393c;"/><path d="M76.219,81.423c0,-0 -1.446,-1.132 -2.294,-1.918c-0.849,-0.786 -1.635,-1.98 -1.666,-2.829c-0.032,-0.848 -0.063,-3.112 0.44,-4.055c0.503,-0.943 0.786,-1.32 1.163,-1.194c0.377,0.126 1.194,0.66 1.509,0.44c0.314,-0.22 1.037,-1.446 1.445,-2.075c0.409,-0.628 1.289,-1.477 2.452,-1.477c1.163,-0 3.332,-0.063 4.087,0.44c0.754,0.503 1.414,0.786 1.98,1.352c0.566,0.565 1.2,0.949 1.534,1.07c0.183,0.066 0.508,-0.155 0.472,-0.346c-0.047,-0.241 -0.309,-0.724 -0.749,-1.102c-0.44,-0.377 -0.911,-0.282 -1.194,-0.597c-0.283,-0.314 -0.22,-0.943 0.503,-1.006c0.723,-0.062 1.226,0.189 1.697,0.535c0.472,0.346 1.069,1.006 0.786,1.414c-0.283,0.409 -0.975,0.723 -0.597,1.038c0.377,0.314 1.288,1.257 1.697,1.54c0.409,0.283 1.289,0.817 1.697,1.068c0.409,0.252 2.201,1.321 2.578,2.075c0.377,0.754 1.194,2.609 1.194,2.609c-4.381,7.715 -10.581,8.882 -18.734,3.018Z" style="fill:#987c7e;"/><path d="M90.039,116.885c0,-0 -1.376,2.42 -1.681,2.981c-0.306,0.56 -0.943,1.579 -1.478,2.369c-0.535,0.79 -1.936,1.962 -2.268,2.191c-0.331,0.23 -1.528,0.714 -2.216,1.147c-0.688,0.433 -2.115,1.554 -3.618,1.605c-1.503,0.051 -4.255,0 -5.019,-0.535c-0.765,-0.535 -2.625,-1.529 -2.472,-2.905c0.153,-1.375 0.815,-3.668 0.866,-4.917c0.051,-1.248 0.179,-2.013 0.688,-2.42c0.51,-0.408 4.255,-2.599 4.535,-2.828c0.281,-0.23 2.166,-0.943 2.854,-1.555c0.688,-0.611 3.312,-1.656 3.542,-2.318c0.229,-0.662 0.917,-4.866 0.917,-4.866c-0,-0 -11.975,-12.867 -12.077,-13.249c-0.102,-0.382 -0.076,-2.624 0.178,-3.363c0.255,-0.739 1.504,-1.325 1.784,-2.191c0.28,-0.867 0.025,-1.07 0.586,-1.656c0.56,-0.586 1.376,-0.612 1.044,-1.198c-0.331,-0.586 -1.07,-1.605 -1.146,-1.885c-0.076,-0.281 -0.306,-1.147 0.408,-1.605c0.713,-0.459 0.968,-0.867 1.324,-0.892c0.357,-0.026 1.325,0.917 2.064,1.044c0.739,0.128 2.089,0.23 2.752,0.281c0.662,0.051 0.994,-0.255 1.529,0.79c0.535,1.044 2.063,2.293 2.318,2.522c0.255,0.229 1.452,1.427 1.452,1.427c11.645,13.927 7.869,23.124 3.134,32.026Zm3.897,-40.971c-0.41,0.274 0.411,1.275 0.757,1.664c0.346,0.39 3.74,-1.599 3.891,-2.01c0.151,-0.411 0.865,-1.275 -0.886,-1.124c-1.751,0.151 -2.983,0.951 -3.762,1.47Z" style="fill:#413442;"/><path d="M85.927,84.404c2.504,-3.783 10.575,1.781 7.819,5.744c-3.186,2.543 -6.472,3.638 -7.819,-5.744Z" style="fill:#27252e;"/><path d="M19.779,96.238c-0,0 -0.091,3.313 0.152,2.993c0.243,-0.319 1.139,-2.476 1.701,-3.099c0.563,-0.623 2.401,-2.523 4.529,-2.128c2.127,0.395 4.33,1.702 4.665,2.918c0.334,1.215 0.79,1.854 1.458,0.213c0.669,-1.642 2.751,-6.003 6.2,-8.89c3.449,-2.887 7.704,-6.108 8.676,-6.655c0.973,-0.547 9.553,-4.593 9.553,-4.593c0,0 0.425,-0.683 1.68,-2.952c1.255,-2.27 4.374,-6.33 6.311,-8.545c1.938,-2.214 6.219,-6.847 9.689,-8.821c3.469,-1.975 6.404,-2.658 6.551,-3.101c0.148,-0.442 -1.328,-2.38 -0.553,-5.185c0.775,-2.805 2.897,-6.589 3.764,-8.01c0.868,-1.421 3.211,-4.835 5.278,-6.791c2.067,-1.956 6.312,-4.816 7.456,-4.927c0,-0 -5.555,-1.827 -6.182,-5.74c-0.628,-3.912 1.402,-5.942 2.749,-6.551c1.348,-0.609 3.378,-1.882 -1.9,-0.443c-5.278,1.44 -7.539,1.734 -7.539,1.734c-41.127,18.953 -61.271,45.61 -64.238,78.573Z" style="fill:#19121a;"/><path d="M63.899,91.119c-0.456,0.562 -3.621,6.048 -3.621,6.048c0,0 -0.716,1.273 -1.273,2.029c-0.557,0.756 -2.666,3.343 -3.143,3.78c-0.478,0.438 -1.075,1.473 -1.87,2.507c-0.796,1.035 -1.353,1.273 -2.03,1.433c-0.676,0.159 -1.034,0.119 -1.034,0.119c-0,-0 0.159,1.194 -0.398,1.353c-0.557,0.159 -3.502,0.398 -3.462,-0.12c0.04,-0.517 0.756,-0.716 0.836,-1.154c0.079,-0.437 0.159,-0.557 -0.478,-0.915c-0.636,-0.358 -0.278,-0.358 -1.353,-0.875c-1.074,-0.517 -1.313,-0.995 -3.819,-1.512c-2.507,-0.517 -3.104,-0.637 -4.656,-1.194c-1.552,-0.557 -3.064,-1.114 -3.7,-1.631c-0.637,-0.517 -1.433,-0.796 -1.671,-1.433c-0.129,-0.343 0.477,-0.238 0.915,-0.835c0.438,-0.597 0.995,-1.194 1.631,-1.751c0.637,-0.557 0.995,-0.875 1.791,-1.592c0.796,-0.716 1.392,-1.233 2.109,-1.989c0.716,-0.756 1.591,-1.671 2.108,-2.547c0.518,-0.875 2.587,-3.143 2.945,-3.66c0.358,-0.517 1.472,-1.87 1.989,-2.348c0.518,-0.477 1.672,-0.159 1.672,-0.159c-0,0 -0.199,-2.308 -0,-3.302c0.198,-0.995 -0.04,-3.025 0.119,-3.582c0.159,-0.557 0.159,-1.114 0.676,-1.472c0.518,-0.358 2.109,-0.796 2.03,-1.154c-0.08,-0.358 -0.239,-0.716 -0.16,-1.193c0.08,-0.478 0.637,-1.433 1.234,-1.592c0.597,-0.159 2.706,-0.119 3.064,0.478c0.358,0.596 0.398,1.114 0.238,1.472c-0.159,0.358 -0.437,0.278 -0.039,0.756c0.398,0.477 1.512,0.597 1.87,0.796c0.358,0.198 0.875,0.198 1.074,1.034c0.199,0.836 0.637,3.86 0.677,4.417c0.039,0.557 -0,3.103 0.079,3.581c0.037,0.219 0.175,1.951 0.318,2.029c0.955,0.517 2.109,1.194 2.865,1.592c0.756,0.398 1.99,0.557 2.348,0.875c0.358,0.318 0.637,1.074 0.119,1.711Z" style="fill:#b2abaf;"/><path d="M89.597,83.079l-44.332,-35.917l0.618,-0.617l44.414,35.773l-0.7,0.761Zm-54.191,-45.41c-0.322,-0.216 -1.572,0.163 -1.98,0.388c-0.408,0.224 -1.51,0.347 -1.715,0.02c-0.204,-0.326 -1.224,-0.714 -0.449,-1.204c0.776,-0.49 2.123,-0.735 2.532,-0.939c0.408,-0.204 1.02,-0.245 1.265,-0.143c0.245,0.102 3.613,3.45 4.124,3.838c0.51,0.388 -0.429,1.286 -0.429,1.286c-0,-0 -0.143,-0.327 -1.123,-1.143c-0.98,-0.817 -0.918,-1.225 -2.225,-2.103Z" style="fill:#c7c6c2;"/><path d="M88.921,126.966c0,-0 -0.79,3.162 -0.752,4.291c0.037,1.13 -0.791,4.066 -1.168,5.196c-0.376,1.129 -2.221,4.706 -2.221,4.706l14.984,-2.937c-0,0 0.602,-4.141 0.451,-4.819c-0.15,-0.677 -0.64,-3.313 -0.677,-4.065c-0.038,-0.753 -10.617,-2.372 -10.617,-2.372Zm-35.065,-39.371c-0,0 1.476,-0.758 2.154,-0.877c0.678,-0.12 3.031,0.598 3.67,1.156c0.638,0.559 0.917,0.958 1.476,0.718c0.558,-0.239 0.997,-0.518 1.356,-0.558c0.359,-0.04 0.399,0.519 0.838,0.718c0.438,0.2 1.077,0.12 1.236,0.598c0.16,0.479 -0.518,1.077 -0.08,1.197c0.439,0.12 1.835,0.04 2.593,0.12c0.758,0.08 1.636,0.239 2.314,0.319c0.678,0.08 3.43,0.239 4.069,0.239c0.638,0 1.116,0.279 1.954,0.16c0.838,-0.12 1.675,-0.678 2.633,-1.077c0.957,-0.399 2.593,-0.678 2.194,-1.037c-0.399,-0.359 -1.037,-1.556 -0.918,-2.115c0.12,-0.558 0.599,-0.877 1.037,-0.638c0.439,0.24 0.479,0.519 0.838,0.2c0.359,-0.319 0.479,-0.599 1.117,-0.798c0.638,-0.2 1.197,-0.359 1.715,-0.2c0.519,0.16 0.918,0.758 1.197,0.32c0.279,-0.439 0.558,-1.317 1.077,-1.397c0.519,-0.079 0.758,0.16 0.997,0.718c0.24,0.559 1.277,2.234 1.516,2.713c0.239,0.479 0.678,1.037 1.077,1.436c0.399,0.399 1.995,2.034 1.995,2.034c-0,0 -1.357,5.026 -1.795,5.585c-0.439,0.558 -1.317,1.197 -1.835,2.074c-0.519,0.878 -1.995,4.468 -2.314,5.066c-0.319,0.599 -1.476,2.553 -2.114,3.87c-0.638,1.316 -1.117,2.353 -1.835,2.911c-0.718,0.559 -2.114,0.639 -2.752,0.399c-0.639,-0.239 -2.793,-0.638 -3.87,-1.515c-1.077,-0.878 -2.672,-2.992 -3.63,-3.511c-0.957,-0.518 -8.097,-4.428 -9.613,-5.664c-1.516,-1.237 -6.981,-8.297 -7.619,-9.893c-0.638,-1.595 -0.678,-3.271 -0.678,-3.271Z" style="fill:#4e3541;"/><path d="M94.032,130.093c-1.37,-0.261 -2.962,-0.256 -3.882,-0.919c-0.919,-0.664 -1.94,-1.686 -1.889,-2.554c0.051,-0.868 0.255,-1.379 0.306,-2.349c0.051,-0.971 0.46,-2.247 0.46,-3.626c-0,-1.379 0.051,-3.473 0.255,-4.443c0.204,-0.971 0.46,-2.298 0.46,-2.962c-0,-0.664 -0.153,-11.338 -0.102,-12.206c0.051,-0.868 0.715,-3.626 0.97,-4.545c0.255,-0.919 0.408,-1.634 0.46,-2.911c0.051,-1.277 0.153,-2.758 0.408,-3.473c0.255,-0.715 1.634,-2.707 1.634,-2.707c0,0 -0.255,-1.123 -0.817,-1.634c-0.562,-0.511 -1.608,-0.854 -2.502,-1.072c-0.813,-0.198 -4.128,0.171 -4.248,0.451c0,-0 -0.64,0.48 -0.845,0.366c-0.46,-0.256 -0.167,-0.766 0.343,-1.175c0.511,-0.408 1.737,-1.379 1.737,-1.379c-0,0 0.408,-0.919 1.327,-1.634c0.92,-0.715 3.014,-1.481 3.882,-2.043c0.868,-0.562 5.464,-3.268 6.332,-3.626c0.869,-0.357 4.188,-2.962 4.903,-3.626c0.715,-0.664 2.452,-2.043 3.013,-2.86c0.562,-0.817 0.868,-2.093 1.839,-2.86c0.97,-0.766 4.239,-1.889 5.056,-2.196c0.817,-0.306 3.575,-0.663 5.056,0.613c1.481,1.277 4.085,3.269 4.647,4.546c0.562,1.276 2.349,5.209 2.758,6.945c0.408,1.736 1.583,4.392 2.145,6.946c0.561,2.553 1.889,8.12 1.991,9.192c0.103,1.073 0.052,4.035 0.307,4.647c0.255,0.613 0.868,4.444 0.868,5.516c0,1.072 0.766,2.145 1.124,3.269c0.357,1.123 0.715,2.144 0.715,2.144l-11.338,15.372c0,0 -1.481,0.205 -2.502,0.256c-1.022,0.051 -2.86,0.306 -3.524,0.408c-0.664,0.103 -2.962,0.613 -4.188,0.715c-1.226,0.103 -3.83,0.307 -4.852,0.103c-1.021,-0.205 -3.626,-0.971 -3.626,-0.971c0,0 0,1.481 -0.102,2.349c-0.102,0.869 -0.204,1.737 -0.715,2.247c-0.51,0.511 -1.787,1.737 -2.757,1.89c-0.971,0.153 -4.035,0 -5.107,-0.204Z" style="fill:#3e4361;"/><path d="M26.821,78.141c-1.127,2.282 -3.188,6.647 -4.628,11.222c-1.55,4.921 -2.243,10.461 -2.367,9.706c-0.244,-1.477 -0.177,-18.267 -0.081,-19.25c0.097,-0.982 1.827,-11.834 3.196,-14.459c1.37,-2.625 3.937,-6.448 4.223,-7.817c0.285,-1.369 0.228,-4.051 1.027,-5.763c0.799,-1.712 2.91,-3.937 4.793,-5.535c1.883,-1.597 3.708,-4.678 5.762,-6.904c2.055,-2.225 4.166,-6.162 5.25,-7.36c1.084,-1.198 3.937,-2.111 4.907,-2.568c0.97,-0.456 7.303,-3.594 8.159,-4.735c0.856,-1.142 7.075,-4.451 8.787,-5.136c1.712,-0.684 7.304,-1.997 10.042,-2.51c2.739,-0.514 10.499,-1.427 13.637,-1.655c2.157,-0.157 5.377,-0.303 5.438,-0.069c0.028,0.106 -0.694,0.026 -2.3,0.525c-5.135,1.598 -9.186,3.995 -12.324,5.763c-3.138,1.769 -7.76,4.451 -9.244,6.448c-1.483,1.997 -2.282,4.393 -2.282,4.393c0,0 -2.625,0.685 -4.907,2.169c-2.282,1.483 -10.499,8.787 -15.805,14.835c-5.306,6.048 -14.436,16.261 -15.463,22.994c0,0 -0.856,-0.399 -1.54,0.057c-0.685,0.457 -1.94,0.913 -4.28,5.649Z" style="fill:#51516b;"/></g></g></svg>