<?xml version="1.0" encoding="UTF-8" standalone="no"?><!DOCTYPE svg PUBLIC "-//W3C//DTD SVG 1.1//EN" "http://www.w3.org/Graphics/SVG/1.1/DTD/svg11.dtd"><svg width="100%" height="100%" viewBox="0 0 150 150" version="1.1" xmlns="http://www.w3.org/2000/svg" xmlns:xlink="http://www.w3.org/1999/xlink" xml:space="preserve" xmlns:serif="http://www.serif.com/" style="fill-rule:evenodd;clip-rule:evenodd;stroke-linejoin:round;stroke-miterlimit:2;"><path id="base" d="M150,75c0,-41.394 -33.606,-75 -75,-75c-41.394,0 -75,33.606 -75,75c0,41.394 33.606,75 75,75c41.394,0 75,-33.606 75,-75Z" style="fill:#2c2c2c;"/><path id="outline" d="M144,75c0,-38.082 -30.918,-69 -69,-69c-38.082,0 -69,30.918 -69,69c0,38.082 30.918,69 69,69c38.082,0 69,-30.918 69,-69Z" style="fill:#78387b;"/><path id="core" d="M141,75c0,-36.426 -29.574,-66 -66,-66c-36.426,0 -66,29.574 -66,66c0,36.426 29.574,66 66,66c36.426,0 66,-29.574 66,-66Z" style="fill:#d8d8d8;"/><clipPath id="_clip1"><path d="M141,75c0,-36.426 -29.574,-66 -66,-66c-36.426,0 -66,29.574 -66,66c0,36.426 29.574,66 66,66c36.426,0 66,-29.574 66,-66Z"/></clipPath><g clip-path="url(#_clip1)"><g id="baldi"><path d="M95.78,31.235l8.694,-0.493l0.304,0.512l-8.2,93.737l-11.428,0.303l-0.19,-0.341l10.82,-93.718Z" style="fill:#be8900;"/><path d="M90.426,125.343l2.465,1.856c-0,-0 1.734,0.943 1.916,-0.396l-0.243,-1.582l-4.138,0.122Zm6.42,-3.718c-1.672,1.332 -3.864,2.177 -6.268,2.136c-5.324,-0.092 -9.766,-4.229 -5.263,-11.47c-0,-0 2.951,-3.834 7.545,-3.59c2.798,0.148 5.118,1.227 6.323,3.29c1.329,0.98 2.52,2.827 1.953,3.616c-0.283,0.393 -0.755,0.456 -1.086,0.444c-0.011,0.13 -0.026,0.26 -0.045,0.39c0.398,0.562 1.038,1.58 1.222,2.543c0.274,1.43 -1.278,1.126 -1.278,1.126l-1.216,-0.507c-0.133,0.195 -0.275,0.386 -0.425,0.572c0.328,0.282 1.004,0.881 1.276,1.243c0.365,0.487 0.274,1.156 -0.061,1.643c-0.334,0.487 -1.308,0.548 -1.308,0.548l-1.369,-0.609l-0,-1.375Zm10.557,-21.443c0,-0 1.826,-0.244 2.434,-1.004c0.609,-0.761 1.004,-1.887 1.004,-1.887c0,0 5.385,-0.912 6.176,-0.912c0.791,-0 5.294,-0.883 6.389,-0.822c1.096,0.061 3.651,-0.243 3.895,-0.03c0.243,0.213 0.122,0.365 0.122,0.365c-0,-0 1.551,-0.426 1.916,-0.304c0.365,0.121 0.913,0.669 -0.304,1.034c-1.217,0.365 -3.56,1.187 -3.56,1.187c0,-0 1.643,-0 2.282,-0.153c0.639,-0.152 1.278,-0.426 1.704,-0.304c0.426,0.122 0.73,0.943 -0.091,1.035c-0.822,0.091 -3.134,0.669 -3.134,0.669c-0,-0 0.974,0.548 0.061,1.126c-0.913,0.578 -7.85,0.578 -8.854,0.456c0,0 -2.342,0.791 -2.86,0.578c-0.517,-0.213 -2.677,0.669 -3.346,0.456c-0.67,-0.213 -4.138,-0.638 -3.834,-1.49Zm15.943,-0.822c-0,0 -0.548,-0.122 -1.126,-0.152c-0.578,-0.03 -0.943,0.183 -0.943,0.183c-0,-0 0.365,0.091 0.852,0.121c0.486,0.031 1.217,-0.152 1.217,-0.152Zm0.699,-2.373c0,0 -1.125,-0.274 -2.281,-0.243c-1.157,0.03 -2.708,0.456 -2.708,0.456c-0,0 1.612,0.152 2.373,0.152c0.76,0 1.643,-0.182 2.616,-0.365Zm-56.452,-16.583c0,-0 1.042,-8.146 0.805,-9.519c0,0 6.867,-9.092 7.482,-11.555c0,0 2.131,-8.429 2.036,-10.039c0,0 -4.167,-21.499 -23.819,-22.446c-0,-0 -20.887,-0.636 -17.611,27.508c-0,-0 5.741,8.571 6.493,9.186c0.752,0.615 11.825,8.475 12.303,9.09c0.479,0.615 4.583,10.001 4.583,10.001l7.728,-2.226Z" style="fill:#edcf8e;"/><path d="M85.334,121.714l-0.374,3.239l0.19,0.341l1.357,-0.036l2.98,15.839l-28.525,1.433l-4.404,-19.505c-0,-0 -4.999,0.979 -6.991,-1.364c-1.993,-2.342 -2.098,-8.214 -2.098,-8.214l-3.74,-30.062c0,-0 -0.14,-2.692 1.014,-3.636c1.153,-0.944 2.761,-1.678 2.761,-1.678c0,0 0.944,-1.118 1.503,-1.363c0.56,-0.245 4.16,-0.944 7.691,-0.979c-0,0 9.053,0.595 11.221,0.07l0.594,-4.719c-0,0 3.181,-0.419 4.09,-0.349c-0,-0 1.153,-0.874 2.342,-0.7c1.188,0.175 3.425,0.839 4.16,4.3c0.734,3.461 3.565,22.197 3.565,22.197l5.552,0.174l-0.751,6.507c-3.011,0.101 -5.081,0.17 -5.081,0.17l1.742,9.255l3.929,-0.106c0,-0 -0.862,1.409 -0.967,2.713c-0.094,1.162 -0.104,3.026 -0.105,3.417l-3.302,0.137c0,1.101 0.872,2.194 1.647,2.919Zm13.689,-24.674l11.577,0.362l0.28,4.16c-0,-0 0.035,0.839 -0.7,0.874c-0.322,0.015 -5.714,0.199 -11.664,0.4l0.507,-5.796Z" style="fill:#15d316;"/><path d="M55.176,32.337l-0.804,0c0,0 2.155,-4.095 10.078,-5.166l-0.597,0.725c-0,-0 -4.786,0.11 -8.677,4.441Z" style="fill:#cc7d24;"/></g></g></svg>