<?xml version="1.0" encoding="UTF-8" standalone="no"?><!DOCTYPE svg PUBLIC "-//W3C//DTD SVG 1.1//EN" "http://www.w3.org/Graphics/SVG/1.1/DTD/svg11.dtd"><svg width="100%" height="100%" viewBox="0 0 150 150" version="1.1" xmlns="http://www.w3.org/2000/svg" xmlns:xlink="http://www.w3.org/1999/xlink" xml:space="preserve" xmlns:serif="http://www.serif.com/" style="fill-rule:evenodd;clip-rule:evenodd;stroke-linejoin:round;stroke-miterlimit:2;"><path id="base" d="M150,75c0,-41.394 -33.606,-75 -75,-75c-41.394,0 -75,33.606 -75,75c0,41.394 33.606,75 75,75c41.394,0 75,-33.606 75,-75Z" style="fill:#2c2c2c;"/><path id="outline" d="M144,75c0,-38.082 -30.918,-69 -69,-69c-38.082,0 -69,30.918 -69,69c0,38.082 30.918,69 69,69c38.082,0 69,-30.918 69,-69Z" style="fill:#78387b;"/><path id="core" d="M141,75c0,-36.426 -29.574,-66 -66,-66c-36.426,0 -66,29.574 -66,66c0,36.426 29.574,66 66,66c36.426,0 66,-29.574 66,-66Z" style="fill:#d8d8d8;"/><clipPath id="_clip1"><path d="M141,75c0,-36.426 -29.574,-66 -66,-66c-36.426,0 -66,29.574 -66,66c0,36.426 29.574,66 66,66c36.426,0 66,-29.574 66,-66Z"/></clipPath><g clip-path="url(#_clip1)"><g id="csgo-t"><path d="M61.224,108.262c0,-0 -0.2,4.378 0.201,4.612c0.401,0.234 2.239,0.2 2.573,-0.067c0.334,-0.268 0.267,-5.414 0.267,-5.414l-3.041,0.869Z" style="fill:#30332c;"/><path d="M53.785,88.677c-0,-0 -0.564,0.18 -0.539,-0.667c0.026,-0.846 0.257,-1.821 0.564,-2.616c0.308,-0.795 0.693,-2.027 0.642,-2.873c-0.052,-0.847 0.231,-4.643 0.359,-5.848c0.128,-1.206 -0.026,-2.719 -0.205,-3.72c-0.18,-1 -0.513,-2.847 -0.513,-3.693c-0,-0.847 0.538,-6.054 1.051,-7.157c0.513,-1.103 1.026,-1.923 1.616,-2.385c0.59,-0.462 0.821,-1.154 2.283,-1.719c1.462,-0.564 7.003,-2.667 7.003,-2.667l12.107,-6.362c-0,0 2.436,0.436 3.232,0.642c0.795,0.205 4.719,0.744 6.156,0.949c1.436,0.205 2.718,0.051 4.411,0.872c1.693,0.821 3.771,1.718 3.771,1.718c-0,0 3.078,3.053 3.899,4.335c0.821,1.283 1.411,4.181 1.539,5.31c0.128,1.129 -0.103,6.233 0.051,7.464c0.154,1.231 -0.128,3.822 0.385,4.592c0.513,0.769 0.949,1.436 1.18,2.513c0.231,1.078 -0.154,2.334 0.385,4.002c0.538,1.667 0.666,2.334 1.026,3.745c0.359,1.41 0.82,2.129 0.718,3.155c-0.103,1.026 -0.334,3.437 -0.872,4.642c-0.539,1.206 -0.872,1.18 -0.924,2.181c-0.051,1 -0.102,1.308 0.154,2.539c0.257,1.231 0.79,2.392 0.277,3.161c-0.513,0.77 -0.975,1.052 -1.103,1.745c-0.129,0.692 0.025,1.41 0.025,1.41l-21.771,7.689c-0,-0 -8.972,-2.805 -10.998,-7.551c-2.026,-4.745 -2.35,-7.009 -2.171,-7.933c0.18,-0.923 0.523,-1.496 -0.22,-2.189c-0.744,-0.693 -1.155,-0.744 -1.463,-1.642c-0.307,-0.897 -0.051,-1.308 -0.615,-2.257c-0.564,-0.949 -0.629,-1.366 -1.347,-1.802c-0.718,-0.436 -5.607,-1.092 -6.505,-0.681c-0.898,0.41 -3.588,1.098 -3.588,1.098Z" style="fill:#bc9c5f;"/><path d="M47.956,108.693c-6.051,-6.417 16.531,-6.894 16.531,-6.894l3.031,-2.209c-0,-0 1.129,-0.565 2.379,-0.968c1.25,-0.403 4.717,-2.016 5.644,-2.54c0.928,-0.524 5.927,-3.83 7.016,-4.798c1.088,-0.968 3.628,-2.984 4.636,-3.467c1.008,-0.484 2.661,-0.968 3.992,-0.766c1.33,0.201 3.42,0.434 4.105,1.442c0.686,1.008 1.532,1.936 1.935,2.46c0.404,0.524 0.404,1.451 0.525,2.137c0.121,0.685 0.887,1.693 0.766,2.459c-0.121,0.766 -1.089,2.056 -1.815,2.5c-0.725,0.443 -3.024,1.33 -4.959,1.935c-1.935,0.605 -5.12,1.331 -6.894,2.137c-1.774,0.807 -5.363,1.573 -7.217,2.016c-1.855,0.444 -6.734,2.056 -7.459,2.258c-0.726,0.202 -3.468,0.927 -3.468,0.927c0,0 -0.564,1.411 -1.613,2.218c-1.048,0.806 -2.338,1.371 -2.661,0.967c-0.322,-0.403 -0.212,-1.204 -0.212,-1.204c-0,-0 -0.554,0.277 -1.158,0.559c-0.605,0.283 -1.613,0.645 -2.258,0.565c-0.645,-0.081 -7.177,0.242 -7.983,0.161c-0.807,-0.081 -1.666,-0.626 -2.863,-1.895Zm15.886,-14.837c-0.515,1.71 -9.934,1.63 -9.153,-0.323c0,0 -0.886,-1.081 -0.805,-4.831c0,0 0,-0.766 0.927,-1.37c0.928,-0.605 3.548,-0.404 4.556,-0.202c1.008,0.202 3.79,0.363 4.073,0.847c0.282,0.483 1.087,2.21 0.805,3.258c-0.282,1.048 -0.252,2.117 -0.403,2.621Zm-3.924,-45.297c-0,0 -0.93,-0.809 -1.285,-2.328c-0.356,-1.52 -0.598,-6.354 -0.598,-7.809c-0,-1.455 0.234,-6.579 2.4,-7.711c2.166,-1.132 7.178,-1.843 7.178,-1.843c3.794,-0.383 7.252,1.437 9.991,7.986c-0,0 1.293,2.587 1.778,3.137c0.485,0.549 1.003,1.293 0.873,1.875c-0.129,0.582 -0.614,2.813 -0.905,3.363c-0.291,0.549 -0.129,0.517 -0.614,1.099c-0.485,0.582 -0.55,1.002 -0.809,1.487c-0.258,0.485 -6.175,4.074 -6.175,4.074l-11.834,-3.33Z" style="fill:#deb07e;"/><path d="M30.827,111.982c-0,-0 -2.737,0.43 -2.581,-0.978c0.157,-1.407 1.76,-2.737 1.76,-2.737l0.273,-8.719c0,0 -0.195,-1.134 0.352,-1.72c0.548,-0.587 1.056,-0.587 1.056,-0.587c0,0 0.235,0.43 0.117,0.821c-0.117,0.391 -0.469,0.9 -0.078,1.056c0.391,0.156 1.173,0.117 1.173,0.117c0,0 0.157,-0.391 0.157,-0.86c-0,-0.469 0.273,-0.86 0.273,-0.86c0,-0 1.095,0.156 1.251,1.095c0.157,0.938 0,0.977 0.079,1.72c0.078,0.743 0.156,1.329 0.43,2.033c0.273,0.704 0.352,1.877 0.43,2.503c0.078,0.625 -0.157,1.055 0.274,1.094c0.43,0.04 1.094,-0.117 1.642,-0.43c0.547,-0.312 2.228,-0.821 2.541,-1.251c0.313,-0.43 0.821,-2.189 0.821,-2.541c0,-0.352 -0.586,-1.291 -0.039,-1.877c0.548,-0.587 0.743,-0.939 1.916,-1.369c1.173,-0.43 1.564,-0.508 2.19,-0.821c0.625,-0.313 0.391,-0.156 1.095,-0.664c0.703,-0.509 0.547,-0.626 2.267,-1.095c1.721,-0.469 3.48,-1.017 3.871,-1.251c0.391,-0.235 1.369,-1.408 1.838,-1.486c0.469,-0.078 2.072,-0.157 2.072,-0.157c0,0 0.939,-0.234 0.9,0.47c-0.04,0.703 -0.391,1.016 0.234,1.016c0.626,0 1.994,-0.469 2.346,-0.547c0.352,-0.078 0.587,-0.391 1.525,-0.43c0.938,-0.039 0.86,-0.43 1.642,-0.118c0.782,0.313 1.799,1.408 2.073,2.112c0.273,0.704 0.391,1.368 0.391,1.368l2.658,-1.759l0.039,4.105c0,0 -0.392,7.15 -1.019,6.631c-0.695,-0.573 -6.648,0.559 -6.521,1.259l-0.905,3.41c-0,0 -1.017,7.664 -1.095,8.563c-0.078,0.899 -1.408,9.345 -1.681,9.697c-0.274,0.352 -2.307,0.039 -2.659,-0c-0.352,-0.039 -0.43,-2.346 -0.391,-3.089c0.039,-0.743 -0.235,-1.681 0.078,-2.933c0.313,-1.251 0.939,-4.731 1.056,-5.63c0.117,-0.899 0.586,-3.558 0.625,-4.066c0.04,-0.509 0.118,-2.268 0.118,-2.268l-7.586,-4.497l-2.189,0.313c-0,0 -2.19,1.173 -2.855,1.603c-0.664,0.43 -0.273,0.782 -0.469,1.134c-0.195,0.352 -1.055,0.469 -2.385,0.821c-1.329,0.352 -0.86,-0.039 -1.759,0.469c-0.9,0.509 -1.447,0.978 -3.128,1.408c-1.682,0.43 -1.447,1.095 -2.698,0.86c-1.251,-0.234 -1.525,-0.938 -1.525,-0.938Zm8.758,-3.441c0.113,0.302 -0.942,0.918 -2.036,1.409c-1.094,0.492 -2.226,0.859 -2.265,0.663c-0.078,-0.391 4.067,-2.698 4.301,-2.072Zm5.748,-2.502c0.153,0.284 -0.512,0.704 -1.22,1.014c-0.708,0.31 -1.458,0.511 -1.478,0.354c-0.039,-0.313 2.424,-1.877 2.698,-1.368Zm-1.056,-4.301c0.213,-0.033 0.359,0.319 0.389,0.679c0.03,0.36 -0.056,0.728 -0.311,0.728c-0.508,0 -0.586,-1.329 -0.078,-1.407Z" style="fill:#30332c;"/><path d="M51.081,106.43l-0.235,4.34c0,-0 4.184,0.743 5.748,0.43c1.564,-0.313 2.776,-0.86 3.441,-1.564c0.664,-0.704 3.01,-3.206 3.558,-3.011c0.547,0.196 0.469,1.877 0.469,1.877c-0,-0 2.033,-0.821 2.737,-0.899c0.704,-0.079 4.887,-0.274 4.887,-0.274c0,-0 -2.033,-1.681 -2.228,-2.893c-0.196,-1.213 -1.252,-4.614 -1.486,-5.201c-0.235,-0.586 -0.469,-0.234 -1.33,0.313c-0.86,0.547 -2.502,0.704 -3.167,0.352c-0.664,-0.352 -1.055,-1.017 -1.642,-0.587c-0.586,0.431 -2.815,1.525 -2.815,1.525c-0,0 0.899,0.704 0.782,1.525c-0.117,0.821 -0.86,1.721 -1.603,1.838c-0.743,0.117 -1.603,0.117 -1.955,0.547c-0.352,0.43 -1.33,1.799 -5.161,1.682Z" style="fill:#3d3528;"/><path d="M60.035,104.279c-0,0 -5.944,0.274 -6.374,-0.234c-0.43,-0.509 -0.625,-2.464 0.196,-2.855c0.821,-0.391 5.396,-0.43 6.412,0.039c1.017,0.47 -0.234,3.05 -0.234,3.05Z" style="fill:#deb07e;"/><path d="M55.063,141.623c-0,-0 2.015,-3.685 2.74,-5.448c0.724,-1.764 3.684,-7.653 3.81,-8.661c0.126,-1.008 2.52,-6.299 2.772,-7.747c0.252,-1.449 0.441,-3.023 0.693,-3.37c0.252,-0.346 1.007,-1.071 2.015,-1.952c1.008,-0.882 2.047,-1.701 2.488,-2.551c0.441,-0.851 0.976,-1.512 1.228,-3.087c0.252,-1.574 0.473,-2.425 0.473,-2.425c-0,0 0.818,0.158 1.196,0.441c0.378,0.284 0.819,0.819 1.984,1.103c1.166,0.283 1.355,0.535 2.646,0.535c1.291,-0 3.496,-0.126 4.629,-0.252c1.134,-0.126 7.716,-0.724 9.039,-1.134c1.322,-0.409 4.629,-1.637 6.267,-2.047c1.637,-0.409 3.18,-1.385 4.346,-1.606c1.165,-0.22 1.984,-0.63 2.362,0.567c0.378,1.197 1.448,2.74 1.354,3.527c-0.095,0.787 -0.756,1.543 -0.599,2.362c0.158,0.819 0.158,0.158 0.693,1.764c0.536,1.606 3.527,6.928 3.527,7.967c0,1.04 0.63,1.481 0.945,2.551c0.315,1.071 1.008,2.488 1.26,4.063c0.252,1.574 0.283,2.393 0.567,3.684c0.283,1.292 -18.99,10.865 -18.99,10.865c-0,0 -1.071,-1.448 -1.134,-1.858c-0.063,-0.409 -0.126,-1.448 -0.882,-2.645c-0.756,-1.197 -0.661,-1.26 -1.7,-2.142c-1.04,-0.881 -1.323,-1.511 -2.488,-1.826c-1.166,-0.315 -1.386,-0.913 -2.866,-0.535c-1.48,0.377 -1.228,1.322 -2.457,2.267c-1.228,0.945 -2.582,1.197 -3.149,1.89c-0.567,0.692 -3.181,3.842 -3.621,4.723c-0.441,0.882 -0.378,1.26 -0.945,2.016c-0.567,0.756 -18.203,-1.039 -18.203,-1.039Z" style="fill:#bfc8c3;"/><path d="M74.662,109.202c1.435,0.318 4.586,0.911 7.423,0.44c0.091,1.269 0.447,3.081 0.658,4.077c-2.401,0.487 -4.771,0.764 -5.856,0.568c-0.656,-0.118 -1.492,-0.574 -2.327,-1.154c0.102,-1.205 0.109,-2.912 0.102,-3.931Zm10.694,-0.28c0.179,1.294 0.443,2.883 0.635,4.006c-0.696,0.202 -1.45,0.395 -2.219,0.57c-0.014,-1.069 -0.23,-2.934 -0.38,-4.114c0.596,-0.13 1.26,-0.287 1.964,-0.462Zm3.18,-0.822c2.744,-0.73 5.479,-1.494 6.869,-1.812c2.614,-0.598 6.708,-1.984 7.243,-1.732c0.536,0.252 1.858,3.999 1.292,3.999c-0.567,0 -3.591,0.347 -4.315,0.567c-0.653,0.199 -7.307,1.706 -10.821,2.854c-0.037,-1.073 -0.174,-2.786 -0.268,-3.876Zm-15.9,3.504c-0.805,-0.718 -1.425,-1.373 -1.606,-1.663c-0.473,-0.756 0.157,-3.37 0.157,-3.37c0,0 0.745,0.879 1.565,1.604c-0.099,1.042 -0.12,2.371 -0.116,3.429Z" style="fill:#534e48;"/><path d="M64.408,42.397c0.472,-0.177 4.07,0.887 5.116,1.206c1.046,0.318 3.456,1.068 4.98,1.978c1.523,0.909 4.16,1.373 4.275,1.923c0.116,0.55 0.029,3.155 -0.144,3.936c-0.174,0.782 -1.679,5.037 -2.316,5.673c-0.637,0.637 -5.673,7.266 -6.165,7.903c-0.492,0.636 -2.287,3.386 -2.287,3.386c-0,0 -1.997,-3.618 -2.605,-4.544c-0.608,-0.927 -1.882,-3.358 -2.345,-4.342c-0.463,-0.984 -1.013,-2.403 -1.563,-3.734c-0.55,-1.332 -0.955,-3.01 -1.244,-3.56c-0.29,-0.55 -1.39,-2.287 -1.419,-2.75c-0.029,-0.463 0.145,-1.505 0.492,-1.795c0.348,-0.289 3.126,-3.502 3.474,-3.907c0.347,-0.406 1.244,-1.182 1.751,-1.373Z" style="fill:#a0845d;"/><path d="M57.91,41.772c-0.087,-0.434 1.65,-1.91 2.489,-2.055c0.839,-0.144 2.981,0.203 3.879,0c0.897,-0.202 3.271,-1.331 3.936,-1.476c0.666,-0.145 7.989,-0.116 8.395,-0.058c0.405,0.058 1.649,0.811 1.649,0.811c0,-0 -3.82,0.029 -4.226,0.029c-0.405,-0 -1.071,0.318 -1.071,0.318c0,-0 -1.1,1.91 -1.794,2.316c-0.695,0.405 -0.811,0.55 -2.779,0.665c-1.968,0.116 -3.155,-1.302 -3.85,-1.331c-0.694,-0.029 -0.926,2.518 -3.589,2.402c-2.663,-0.115 -2.952,-1.186 -3.039,-1.621Z" style="fill:#322f2a;"/><path d="M58.026,37.17c-0,0 0.057,-4.602 0.81,-5.847c0.753,-1.245 2.258,-3.213 3.473,-3.908c1.216,-0.694 3.184,-1.997 5.992,-1.678c2.808,0.318 5.992,1.389 6.831,2.605c0.84,1.215 3.532,3.82 3.705,6.397c0.174,2.576 0.087,4.37 0.087,4.37c0,0 -2.026,-0.521 -2.142,1.216c-0.116,1.737 -0.695,4.429 -1.071,4.487c-0.376,0.058 -0.029,-4.024 -0.029,-4.024c0,0 -0.665,-3.589 -0.81,-4.342c-0.145,-0.752 -0.492,-1.678 -0.811,-1.852c-0.318,-0.174 -0.694,-0.116 -1.071,-0.637c-0.376,-0.521 -0.289,-1.447 -0.521,-1.881c-0.231,-0.435 -0.087,-1.303 -1.215,-0.927c-1.129,0.377 -1.824,0.956 -2.056,1.129c-0.231,0.174 -0.752,-0.289 -1.071,-0.723c-0.318,-0.435 -1.128,-0.782 -1.968,-0.348c-0.839,0.434 -0.145,0.666 -0.984,0.811c-0.839,0.144 -0.318,-0.203 -0.897,0.144c-0.579,0.348 -0.261,0.898 -1.187,0.464c-0.926,-0.435 -0.261,-0.782 -1.042,-0.608c-0.782,0.173 -0.695,0.173 -1.303,0.579c-0.607,0.405 -0.984,0.665 -1.563,1.592c-0.579,0.926 -1.1,2.402 -1.157,2.981Z" style="fill:#251c15;"/></g></g></svg>