<?xml version="1.0" encoding="UTF-8" standalone="no"?><!DOCTYPE svg PUBLIC "-//W3C//DTD SVG 1.1//EN" "http://www.w3.org/Graphics/SVG/1.1/DTD/svg11.dtd"><svg width="100%" height="100%" viewBox="0 0 150 150" version="1.1" xmlns="http://www.w3.org/2000/svg" xmlns:xlink="http://www.w3.org/1999/xlink" xml:space="preserve" xmlns:serif="http://www.serif.com/" style="fill-rule:evenodd;clip-rule:evenodd;stroke-linejoin:round;stroke-miterlimit:2;"><path id="base" d="M150,75c0,-41.394 -33.606,-75 -75,-75c-41.394,0 -75,33.606 -75,75c0,41.394 33.606,75 75,75c41.394,0 75,-33.606 75,-75Z" style="fill:#2c2c2c;"/><path id="outline" d="M144,75c0,-38.082 -30.918,-69 -69,-69c-38.082,0 -69,30.918 -69,69c0,38.082 30.918,69 69,69c38.082,0 69,-30.918 69,-69Z" style="fill:#78387b;"/><path id="core" d="M141,75c0,-36.426 -29.574,-66 -66,-66c-36.426,0 -66,29.574 -66,66c0,36.426 29.574,66 66,66c36.426,0 66,-29.574 66,-66Z" style="fill:#d8d8d8;"/><clipPath id="_clip1"><path d="M141,75c0,-36.426 -29.574,-66 -66,-66c-36.426,0 -66,29.574 -66,66c0,36.426 29.574,66 66,66c36.426,0 66,-29.574 66,-66Z"/></clipPath><g clip-path="url(#_clip1)"><g id="hollow"><path d="M54.269,138.861c-1.648,-3.142 -2.292,-6.258 -2.215,-6.851c0,0 -1.107,-0.85 -1.287,-1.802c-0.181,-0.953 0.309,-1.803 0.618,-2.138c0.309,-0.335 0.618,-0.489 0.618,-0.489l-0.078,-4.069c0,-0 -0.952,-0.438 -1.184,-0.928c-0.232,-0.489 -0.773,-1.468 -0.49,-2.163c0.284,-0.695 1.494,-2.807 1.983,-3.271c0.49,-0.463 1.881,-2.395 4.173,-2.292c-0,0 0.154,-1.416 0.54,-1.983c0.387,-0.566 1.855,-1.725 2.911,-1.725c1.056,-0 3.348,1.004 3.348,1.004c-0,0 2.421,0.155 3.322,0.309c0.901,0.155 4.043,0 4.842,0.077c0.798,0.078 4.017,0.258 4.945,0.464c0.927,0.206 3.914,1.313 4.996,2.086c-0,-0 3.528,-0.695 5.949,1.262c2.421,1.957 2.884,2.344 2.884,2.344c0,-0 4.121,0.412 5.641,0.927c1.519,0.515 3.914,1.983 4.275,2.137c0.36,0.155 2.781,0.155 4.558,0.876c1.777,0.721 5.177,3.399 6.104,5.305c0.927,1.906 2.034,2.627 2.034,2.627c-9.248,11.296 -22.812,14.539 -38.165,14.439c-0,0 -18.674,-3.004 -20.322,-6.146Z" style="fill:#6d665c;"/><path d="M69.783,85.41c-0,0 1.512,6.99 1.14,7.634c-0,0 0.793,-0.347 0.793,-0.099c0,0.248 0.719,2.305 0.62,3.842c-0.099,1.537 -0.322,7.659 -2.578,8.849c0,-0 3.966,1.264 6.717,-1.215c2.751,-2.478 -2.652,-17.226 -6.692,-19.011Z" style="fill:#335f5e;"/><path d="M69.288,113.359c0,0 -4.723,-2.656 -6.488,-6.303c-1.765,-3.648 -3.042,-8.287 -2.656,-9.262c0.387,-0.975 3.148,-2.243 5.346,-2.387c5.811,-0.38 11.094,0.42 11.094,0.42c-0.013,-0.207 23.655,1.362 26.431,11.725c2.602,9.708 3.505,14.859 2.944,17.102c-0.561,2.242 -3.995,-3.785 -5.257,-5.397c-1.261,-1.612 -5.116,-5.748 -8.901,-7.78c-2.1,-1.128 -6.211,-4.572 -11.954,-6.491c-4.612,-1.54 -11.221,-1.771 -11.56,-1.484c-0.17,0.145 -0.069,5.058 3.49,9.705c3.559,4.648 -2.489,0.152 -2.489,0.152Z"/><path d="M104.171,101.822l1.352,0.599c-0,-0 3.166,5.614 4.399,6.178c1.232,0.565 19.871,6.967 19.871,6.967l2.362,-5.443c0,-0 -20.607,-12.307 -22.576,-12.82c-1.968,-0.513 -6.469,3.32 -5.408,4.519Z" style="fill:#cdcec9;"/><path d="M59.568,76.155c-0,-0 1.445,3.921 2.703,5.312c1.259,1.391 5.112,4.975 6.238,5.792c1.126,0.817 4.989,4.106 5.431,5.431c0.441,1.325 1.655,5.718 1.479,8.632c-0.177,2.914 0.198,5.431 0.507,6.005c0.31,0.574 0.354,-0.066 0.398,-0.464c0.044,-0.397 0.441,-0.022 0.552,0.199c0.11,0.221 0.309,0.817 0.508,0.993c0.198,0.177 1.788,0.508 1.788,0.508l0.309,0.729c-0,-0 -0.751,1.523 -2.075,1.479c-1.325,-0.044 -2.164,0.11 -2.164,0.11c0,0 1.038,1.678 2.362,1.7c1.325,0.022 4.835,-0.486 5.387,-0.066c0.552,0.419 0.949,0.927 0.927,1.656c-0.022,0.728 0.685,4.503 1.038,4.812c0.353,0.309 0.861,1.016 0.949,-0.507c0.088,-1.524 -0.243,-2.738 0.375,-3.533c0.619,-0.794 1.281,-2.251 2.12,-2.119c0.839,0.132 1.589,-0.353 1.832,0.53c0.243,0.883 -0.287,1.832 -0.287,1.832c0,0 1.104,-0.53 1.833,-1.391c0.728,-0.861 1.589,-2.296 1.633,-2.649c0,0 2.671,1.921 4.018,2.208c1.347,0.287 3.025,-0.265 3.025,-0.265c-0,-0 -2.274,-0.795 -3.466,-1.59c-1.193,-0.794 -2.054,-1.368 -1.767,-1.567c0.287,-0.199 0.552,-0.419 0.552,-0.419c0,-0 -0.242,-0.199 -0.706,-0.95c-0.464,-0.75 0.022,-0.927 0.177,-1.126c0.154,-0.198 0.264,-0.905 0.331,-1.368c0.066,-0.464 -0.177,-0.884 0.265,-0.906c0.441,-0.022 0.75,0.309 0.75,0.309l0.861,0.067c0,-0 -0.905,-1.237 -0.861,-1.722c0.044,-0.486 -0.022,-1.237 0.618,-1.568c0.641,-0.331 1.347,-0.22 1.347,-0.22c0,-0 1.082,1.457 2.296,2.318c1.214,0.861 4.349,2.936 5.917,2.34c-0,-0 -0.376,-0.596 -0.994,-1.082c-0.618,-0.486 -2.428,-4.239 0.729,-4.724c3.157,-0.486 8.036,1.876 8.676,3.753c-0,-0 0.265,-2.208 -0.287,-3.334c-0.552,-1.126 -1.435,-2.428 -2.561,-3.599c-0,0 3.598,-0.529 3.62,-3.377c0,-0 -4.415,0.441 -3.642,-1.7c0.772,-2.142 9.427,-4.062 10.486,-0.927c0,-0 1.082,-1.833 0.022,-2.892c-1.059,-1.06 -1.457,-1.48 -0.198,-2.407c1.258,-0.927 4.194,-4.194 1.059,-7.373c0,-0 -0.596,3.311 -3.974,3.841c-3.377,0.53 -4.459,-2.362 -1.898,-3.51c2.561,-1.148 4.724,-1.59 5.784,-1.369c-0,0 0.883,-2.362 -5.674,-2.274c0,0 4,-8.698 -6.508,-12.054c-0,0 8.774,10.493 -4.57,13.092c-0,-0 -0.65,-2.413 -2.217,-3.406c-0,-0 0.287,2.759 -0.42,3.466c0,-0 -7.903,0.088 -12.341,1.192c0,0 -0.529,0.243 -2.384,-0.441c-1.854,-0.685 -5.654,-1.588 -6.044,-2.361c-0.927,-1.836 -14.87,-5.127 -14.818,-3.755l-9.046,4.709Z" style="fill:#335f5e;"/><path d="M62.904,82.136c-0,0 -1.177,-2.929 0.096,-4.346c1.272,-1.416 4.49,-3.986 9.676,-4.01c5.186,-0.024 9.964,0.913 10.588,1.177c0,-0 1.849,-0.96 2.689,-3.121c0.841,-2.161 2.474,-8.74 1.249,-12.87c-1.224,-4.13 -2.017,-6.026 -2.017,-6.026c0,-0 1.225,-1.585 2.569,-3.554c1.345,-1.969 5.114,-10.023 1.417,-15.367c-3.698,-5.343 -6.411,-8.176 -7.779,-8.368c-1.369,-0.192 -2.474,-0.649 -3.362,0.192c0,-0 -3.673,-1.513 -4.754,1.176c0,0 -0.168,1.393 1.537,2.545c1.704,1.153 3.529,2.738 4.322,4.418c0.792,1.681 3.577,7.059 -0.361,10.733c0,-0 -5.57,-4.082 -12.005,-3.65c-6.434,0.433 -13.061,3.77 -14.79,5.211c-0,-0 -1.969,-1.081 -1.945,-3.458c0.024,-2.377 0.936,-5.33 2.089,-6.435c1.152,-1.104 1.585,-3.913 -0.936,-3.673c-2.522,0.24 -1.969,0.576 -2.642,0.576c-0.672,0 -0.936,-0.504 -1.752,-0.504c-0.817,-0 -2.137,1.584 -3.098,3.001c-0.96,1.417 -3.025,7.419 -1.68,11.885c1.344,4.466 4.129,6.507 4.129,6.507c0,-0 -0.96,6.483 -0.864,9.028c0.096,2.545 1.729,10.276 3.578,12.581c1.848,2.305 7.251,6.557 14.046,6.352Z" style="fill:#e9e2dc;"/></g></g></svg>