<?xml version="1.0" encoding="UTF-8" standalone="no"?><!DOCTYPE svg PUBLIC "-//W3C//DTD SVG 1.1//EN" "http://www.w3.org/Graphics/SVG/1.1/DTD/svg11.dtd"><svg width="100%" height="100%" viewBox="0 0 150 150" version="1.1" xmlns="http://www.w3.org/2000/svg" xmlns:xlink="http://www.w3.org/1999/xlink" xml:space="preserve" xmlns:serif="http://www.serif.com/" style="fill-rule:evenodd;clip-rule:evenodd;stroke-linejoin:round;stroke-miterlimit:2;"><path id="base" d="M150,75c0,-41.394 -33.606,-75 -75,-75c-41.394,0 -75,33.606 -75,75c0,41.394 33.606,75 75,75c41.394,0 75,-33.606 75,-75Z" style="fill:#2c2c2c;"/><path id="outline" d="M144,75c0,-38.082 -30.918,-69 -69,-69c-38.082,0 -69,30.918 -69,69c0,38.082 30.918,69 69,69c38.082,0 69,-30.918 69,-69Z" style="fill:#78387b;"/><path id="core" d="M141,75c0,-36.426 -29.574,-66 -66,-66c-36.426,0 -66,29.574 -66,66c0,36.426 29.574,66 66,66c36.426,0 66,-29.574 66,-66Z" style="fill:#d8d8d8;"/><clipPath id="_clip1"><path d="M141,75c0,-36.426 -29.574,-66 -66,-66c-36.426,0 -66,29.574 -66,66c0,36.426 29.574,66 66,66c36.426,0 66,-29.574 66,-66Z"/></clipPath><g clip-path="url(#_clip1)"><g id="Jeanette"><path d="M59.489,154.908c-2.425,-18.352 -4.335,-36.961 -1.395,-57.994l4.986,-6.928c0,-0 -0.015,-2.261 -0.075,-3.452c-0.061,-1.19 -0.024,-9.608 -0.024,-9.608c-0,-0 -0.83,-1.383 -1.119,-2.43c-0.289,-1.046 -0.685,-3.62 -1.034,-4.702c-0.349,-1.082 -1.96,-3.68 -2.261,-3.8c-0.301,-0.12 -0.83,-0.914 -1.01,-1.251c-0.181,-0.337 -0.325,-0.637 -0.59,-0.95c-0.264,-0.313 -1.034,-2.946 -1.13,-3.788c-0.096,-0.842 -0.144,-2.79 -0.144,-3.283c-0,-0.493 -0.048,-3.524 0.072,-4.029c0.12,-0.505 0.685,-1.792 1.299,-1.708c0.613,0.084 0.601,0.229 0.601,0.229l3.238,-4.052c5.321,-11.332 11.985,-19.44 21.752,-20.098c9.562,3.582 16.498,10.694 17.016,26.434c-0,-0 -3.274,13.942 -3.694,14.839c-0.42,0.897 -0.988,1.531 -1.436,1.587c-0.449,0.056 -0.645,-0.196 -0.645,-0.196c0,-0 -0.084,1.149 -0.336,1.878c-0.253,0.729 -2.327,6.139 -3.7,7.456c-1.374,1.318 -2.383,2.439 -2.383,2.439c-0,0 -0.97,3.135 -0.084,4.261c27.805,35.333 30.951,66.38 13.119,63.004l-41.023,6.142" style="fill:#fec069;"/><path d="M23.247,134.635c0,-0 1.003,-7.689 1.624,-8.835c0.621,-1.147 2.483,-7.164 2.77,-8.215c0.287,-1.05 2.054,-5.301 2.865,-6.399c0.812,-1.099 3.439,-5.875 4.346,-6.686c0.908,-0.812 7.069,-4.203 7.069,-4.203c-0,-0 5.253,-1.194 6.924,-1.481c1.672,-0.286 5.254,-1.194 5.254,-1.194c-0,0 2.34,-2.626 3.295,-3.438c0.955,-0.812 4.967,-4.537 5.683,-4.967c0,0 0.812,4.012 0.43,4.919c-0.382,0.908 -2.483,3.009 -3.2,4.012c-0.716,1.003 -1.241,1.91 -1.241,1.91c-0,0 -0.144,5.683 -0.239,7.116c-0.096,1.433 -0.573,6.161 -0.43,7.785c0.143,1.623 0.239,2.913 0.43,4.68c0.191,1.767 1.624,5.54 1.958,6.877c0.334,1.337 0.43,2.627 0.573,4.107c0.143,1.481 0.621,2.77 0.907,3.821c0.287,1.05 0.191,3.152 0.669,4.775c0.478,1.624 0.764,2.77 1.098,3.773c0.335,1.003 0.526,0.239 0.812,2.723c0.287,2.483 0.63,3.707 0.43,4.202c-2.812,6.962 -45.169,-7.836 -42.027,-15.282Zm76.078,12.465c-0.228,-0.364 -0.095,-2.102 -0.429,-3.821c-0.335,-1.719 -0.478,-2.245 -0.478,-3.295c-0,-1.051 0.716,-4.824 0.764,-5.349c0.048,-0.526 0.239,-3.534 0.239,-4.824c-0,-1.289 0.239,-2.77 0.095,-4.68c-0.143,-1.91 -0.525,-4.059 -0.811,-5.253c-0.287,-1.194 -0.956,-5.158 -1.051,-6.161c-0.096,-1.003 0.191,-1.337 -0.191,-3.057c-0.382,-1.719 -0.908,-3.629 -0.908,-3.629c0,-0 -0.907,-6.639 -1.289,-7.928c-0.382,-1.289 -0.287,-1.672 -0.716,-2.197c-0.43,-0.525 -1.481,-1.624 -2.245,-2.197c-0.764,-0.573 -1.863,-1.623 -2.388,-2.149c-0.525,-0.525 -2.006,-5.014 -2.101,-5.826c-0,-0 1.432,-0 2.722,0.907c1.289,0.908 1.767,1.099 2.292,1.624c0.526,0.525 0.478,0.382 1.672,1.289c1.194,0.908 2.101,1.242 2.579,1.72c0.477,0.477 13.085,1.528 13.085,1.528c0,-0 0.956,-0.143 1.338,0.143c0.382,0.287 3.343,0.717 3.772,0.86c0.43,0.143 1.815,-0.096 2.197,0.382c0.382,0.477 2.149,1.576 2.675,2.197c0.525,0.621 3.008,3.008 3.438,3.534c0.43,0.525 1.051,0.621 1.815,1.767c0.764,1.146 2.579,5.014 3.391,6.399c0.812,1.385 5.93,12.44 7.02,14.184c5.747,9.194 -33.178,29.097 -36.487,23.832Z" style="fill:#ffc86d;"/><path d="M37.343,59.864c-0,0 0.715,2.446 0.075,3.8c-0.639,1.354 -0.338,1.58 -1.806,3.047c-1.467,1.468 -2.069,2.333 -2.746,3.725c-0.677,1.392 -1.166,2.22 -2.558,3.8c-1.392,1.58 -1.957,3.16 -2.446,4.74c-0.489,1.58 -0.639,2.709 -0.338,3.8c0.301,1.091 1.241,0.903 1.241,0.903c0,-0 -0.113,1.053 -0.79,2.144c-0.677,1.091 -0.903,1.844 -1.279,2.747c-0.376,0.903 0.113,1.655 0.527,1.091c0.414,-0.565 0.677,-0.188 0.489,0.978c-0.188,1.166 -0.188,1.731 -0.038,2.521c0.151,0.79 0.113,0.677 0.339,1.542c0.226,0.865 0.188,0.715 0.226,1.129c0.037,0.414 0.677,0.188 0.902,-0.339c0.226,-0.527 0.715,-1.204 1.204,-1.956c0.489,-0.753 0.903,-1.467 1.204,-2.032c0.301,-0.564 0.264,-1.241 0.527,-0.752c0.263,0.489 0.376,0.376 0.376,1.204c0,0.827 -0.075,1.316 0.113,2.182c0.188,0.865 -0.15,1.768 0.339,0.79c0.489,-0.978 0.865,-2.37 0.865,-2.37c-0,-0 0.113,-1.392 0.339,-0.678c0.225,0.715 -0.113,1.43 -0.151,2.295c-0.038,0.866 -0.075,0.264 0.075,1.242c0.151,0.978 0.301,1.542 0.452,2.182c0.15,0.64 0.827,2.22 0.865,2.934c0.038,0.715 -0.301,2.295 -0.301,2.295l-0.113,1.242c0,-0 1.58,-3.424 1.693,-3.913c0.113,-0.489 0.64,-1.806 0.978,-2.558c0.339,-0.752 0.866,-1.618 1.167,-2.295c0.301,-0.677 0.714,-1.731 1.015,-2.709c0.301,-0.978 1.731,-3.536 1.731,-3.536c0,-0 0.339,1.505 0.414,2.182c0.075,0.677 1.166,2.144 1.279,2.633c0.113,0.489 0.828,0.866 0.79,0.038c-0.038,-0.828 0.489,-1.994 0.865,-3.047c0.377,-1.054 0.565,-3.349 0.527,-4.139c-0.038,-0.79 0.038,-0.865 0.339,-2.671c0.301,-1.806 0.752,-5.831 0.978,-6.734c0.226,-0.903 0.376,-1.543 0.564,-2.333c0.188,-0.79 0.414,-1.58 1.129,-3.009c0.715,-1.43 1.58,-2.559 1.768,-3.085c0.188,-0.527 0.752,-2.559 1.053,-3.876c0.301,-1.316 0.64,-0.413 0.866,0c0.225,0.414 0.827,0.527 0.752,-0.564c-0.075,-1.091 -0.075,-2.107 -0.113,-2.934c-0.037,-0.828 -0.752,-4.515 -0.564,-5.155c0.188,-0.639 1.016,-3.122 1.279,-4.514c0.263,-1.392 0.527,-1.994 0.677,-2.634c0.151,-0.639 0.301,-1.429 0.377,-1.881c0.075,-0.451 3.122,-3.122 3.122,-3.122c0,-0 -3.16,-2.333 -4.138,-2.672c-0.978,-0.338 -2.069,-0.451 -3.8,-0.15c-1.731,0.301 -0.79,-0.038 -2.37,0.414c-1.58,0.451 -2.671,0.527 -3.424,1.768c-0.752,1.242 -2.859,2.107 -3.386,2.746c-0.526,0.64 -0.752,1.392 -1.241,2.258c-0.489,0.865 -1.054,1.693 -1.43,2.445c-0.376,0.753 -0.715,3.574 -0.828,3.988c-0.112,0.414 -0.225,1.392 -0.225,1.392c-0,0 -1.693,0.715 -2.822,0.715l-1.43,-0c0,-0 0.602,0.527 1.167,0.865c0.564,0.339 0.564,0.414 0.714,0.903c0.151,0.489 0.602,0.941 0.602,0.941c0,-0 1.468,0.113 2.333,0.037Zm22.987,10.196c-0,-0 -1.693,-3.236 -1.844,-4.402c-0.15,-1.166 -0.827,-8.39 -0.827,-9.706c-0,-1.317 0.414,-6.659 0.677,-8.089c0.263,-1.43 0.602,-3.311 0.941,-4.74c0.338,-1.43 2.069,-8.465 2.708,-9.933c0.64,-1.467 2.22,-3.912 3.198,-5.079c0.978,-1.166 4.139,-3.423 4.891,-3.837c0.752,-0.414 3.837,-1.806 5.38,-2.107c1.542,-0.301 7.9,0.866 9.819,1.167c1.919,0.3 4.703,0.94 5.907,1.956c1.204,1.016 4.665,4.213 5.493,5.756c0.827,1.542 2.295,5.53 2.483,7.186c0.188,1.655 1.354,4.025 1.768,5.643c0.414,1.618 0.451,4.816 0.451,4.816c0,-0 6.396,1.241 7.261,1.128c0,0 1.392,1.58 1.769,2.258c0.376,0.677 2.031,2.633 2.182,3.837c0.15,1.204 0.677,3.047 1.015,4.778c0.339,1.731 0.941,6.772 2.709,9.067c0,-0 -0.414,0.188 -1.128,-0.414c-0.715,-0.602 -0.753,-0.903 -0.828,-0.376c-0.075,0.526 -0.075,0.94 -0.038,1.467c0.038,0.527 0.452,1.242 0.978,1.693c0.527,0.451 1.844,2.257 3.273,3.16c0,0 -5.906,-3.198 -6.659,-4.477c0,0 -0.827,-0.226 -0.376,1.016c0.452,1.242 3.461,6.32 3.424,7.073c-0.038,0.752 -1.656,4.891 -1.693,5.305c-0.038,0.413 0.564,2.295 0.451,2.934c-0.113,0.64 -1.158,7.153 -1.158,7.153c-0.378,-0.012 -0.923,0.066 -1.112,-0.208c-0.586,-0.18 -0.854,-0.187 -1.026,-0.142c-0,0 0.211,2.226 -0.579,3.204c-0.79,0.979 -0.677,1.28 -1.843,1.28c-1.167,-0 -2.032,-0.038 -2.032,-0.038c0,0 -0.414,-1.053 -0.376,-1.994c0.038,-0.94 0.113,-2.107 -0.301,-1.881c-0.414,0.226 -0.677,1.129 -0.677,1.129c-0,-0 -0.075,0.301 -0.941,-0.301c-0.865,-0.602 -1.091,-0.979 -2.295,-1.091c-1.204,-0.113 -2.633,-0.565 -2.633,-0.565l-2.859,-2.144c-0,-0 0.978,-1.58 1.354,-2.747c0.376,-1.166 0.715,-2.52 1.166,-3.423c0.452,-0.903 2.634,-7.487 3.085,-8.465c0.452,-0.978 0.753,-0.79 0.715,-1.505c-0.038,-0.715 -0.414,-2.596 -0.564,-3.461c-0.151,-0.865 0.564,-1.768 -0.452,-1.543c-1.016,0.226 -1.429,0.339 -1.73,0.038c-0.301,-0.301 -0.903,-0.941 -0.715,-1.919c0.188,-0.978 0.226,-1.956 0.526,-2.445c0.301,-0.489 1.618,-1.731 1.618,-1.731c0,0 0.038,-4.138 -0.301,-4.853c-0.338,-0.715 -0.489,-1.317 -0.489,-1.317c0,0 -0.263,1.054 -0.602,2.07c-0.338,1.015 -3.273,9.292 -3.762,10.345c-0.489,1.054 -2.37,4.064 -2.37,4.064c-0,-0 1.204,-3.349 1.429,-3.8c0.226,-0.452 0.866,-2.182 1.129,-3.123c0.263,-0.94 2.145,-6.546 2.182,-8.314c0.038,-1.768 -0.037,-2.972 0.038,-3.95c0.075,-0.979 -0.376,-2.672 -0.414,-4.064c-0.038,-1.392 -0.865,-7.223 -1.166,-8.013c-0.301,-0.79 -1.881,-4.778 -2.559,-5.38c0,0 -2.52,6.245 -4.702,8.427c-0,0 1.843,-9.593 0.752,-11.625c-1.091,-2.031 -0.602,-1.505 -1.317,-1.655c-0.714,-0.151 -2.445,-1.317 -3.16,-1.656c-0.715,-0.338 -1.204,-0.827 -2.483,-0.94c-1.279,-0.113 -4.402,0.15 -5.568,0.451c-1.166,0.301 -0.978,0.339 -0.978,0.339c-0,-0 -1.806,-0.587 -2.107,13.13c0,-0 -3.386,-5.696 -2.972,-10.06c-0,0 -5.418,4.665 -6.922,9.293c-1.505,4.627 -2.897,7.449 -3.537,8.991c-0.639,1.543 -0.903,4.365 -1.053,6.095c-0.151,1.731 -0.301,9.886 0.376,11.264Z" style="fill:#f6b248;"/><path d="M63.1,89.324c-0,-0 5.933,5.155 12.88,4.854c6.948,-0.3 12.165,-5.527 12.278,-5.812c-0,-0 1.217,3.342 1.461,3.924c0,-0 -4.988,7.725 -13.1,8.101c-8.112,0.375 -12.536,-5.092 -13.062,-6.331c0,-0 -0.317,-4.267 -0.457,-4.736Zm-5.992,-48.551c0.413,-0.022 2.292,1.06 2.405,1.51c0.112,0.451 -0.64,3.879 -0.902,4.743c-0.263,0.864 -0.074,2.356 -0.938,1.887c-0.864,-0.47 -3.175,-1.737 -3.325,-2.112c-0.15,-0.376 -0.038,-3.455 0.3,-4.113c0.338,-0.657 1.766,-1.877 2.46,-1.915Z" style="fill:#410003;"/></g></g></svg>