<?xml version="1.0" encoding="UTF-8" standalone="no"?><!DOCTYPE svg PUBLIC "-//W3C//DTD SVG 1.1//EN" "http://www.w3.org/Graphics/SVG/1.1/DTD/svg11.dtd"><svg width="100%" height="100%" viewBox="0 0 150 150" version="1.1" xmlns="http://www.w3.org/2000/svg" xmlns:xlink="http://www.w3.org/1999/xlink" xml:space="preserve" xmlns:serif="http://www.serif.com/" style="fill-rule:evenodd;clip-rule:evenodd;stroke-linejoin:round;stroke-miterlimit:2;"><path id="base" d="M150,75c0,-41.394 -33.606,-75 -75,-75c-41.394,0 -75,33.606 -75,75c0,41.394 33.606,75 75,75c41.394,0 75,-33.606 75,-75Z" style="fill:#2c2c2c;"/><path id="outline" d="M144,75c0,-38.082 -30.918,-69 -69,-69c-38.082,0 -69,30.918 -69,69c0,38.082 30.918,69 69,69c38.082,0 69,-30.918 69,-69Z" style="fill:#78387b;"/><path id="core" d="M141,75c0,-36.426 -29.574,-66 -66,-66c-36.426,0 -66,29.574 -66,66c0,36.426 29.574,66 66,66c36.426,0 66,-29.574 66,-66Z" style="fill:#d8d8d8;"/><clipPath id="_clip1"><path d="M141,75c0,-36.426 -29.574,-66 -66,-66c-36.426,0 -66,29.574 -66,66c0,36.426 29.574,66 66,66c36.426,0 66,-29.574 66,-66Z"/></clipPath><g clip-path="url(#_clip1)"><g id="trapper"><path d="M34.333,127.907c0,0 0.061,-0.608 0.731,-1.642c0.669,-1.035 0.79,-1.704 0.882,-2.343c0.091,-0.639 0.061,-0.608 0.395,-1.643c0.335,-1.034 0,-0.578 0.487,-1.946c0.487,-1.369 0.213,-2.13 0.365,-2.525c0.152,-0.396 0.73,-3.103 0.76,-3.468c0.031,-0.365 0.031,-3.438 0.366,-4.198c0.334,-0.761 1.186,-4.685 1.216,-5.111c0.031,-0.426 0.274,-1.917 0.426,-2.981c0.152,-1.065 0.487,-1.825 0.669,-2.738c0.183,-0.913 0.822,-3.012 1.278,-3.529c0.456,-0.517 0.943,-0.912 1.399,-1.551c0.457,-0.639 0.944,-1.156 1.187,-1.856c0.243,-0.7 0.791,-2.525 0.943,-3.012c0.152,-0.486 0.547,-1.947 0.547,-2.342c0,-0.395 0.335,-3.377 0.731,-4.35c0.395,-0.974 0.669,-1.187 0.791,-1.977c0.121,-0.791 0.273,-1.248 0.395,-2.221c0.122,-0.974 -0.091,-5.445 -0.091,-6.206c-0,-0.76 0.791,-4.593 0.943,-5.324c0.152,-0.73 1.521,-3.011 2.19,-3.741c0.669,-0.73 2.221,-1.795 3.316,-2.525c1.095,-0.73 1.703,-0.7 2.038,-1.095c0.335,-0.396 2.251,-1.765 2.768,-2.13c0.517,-0.365 3.103,-2.038 3.316,-2.555c0.213,-0.517 0.487,-13.598 0.487,-13.598l2.038,-19.378l6.668,1.668c0.034,-0.845 7.466,7.092 7.447,8.589c-0.013,1.034 -0.243,3.858 -0.243,4.771c-0,0.912 -0.304,3.042 0.304,4.046c0.608,1.004 2.373,3.194 3.042,3.924c0.669,0.73 0.821,0.913 2.403,1.795c1.582,0.882 2.221,0.943 2.708,1.125c0.487,0.183 -0.213,-0.091 1.125,0.517c1.339,0.609 5.304,1.343 6.054,1.674c0.598,0.263 0.981,0.341 1.307,0.565c0.065,0.044 0.12,0.185 0.18,0.241c0.397,0.368 2.042,0.593 2.468,0.775c0.426,0.183 1.764,0.67 2.068,0.791c0.305,0.122 0.396,0.061 1.065,0.457c0.669,0.395 1.034,0.547 1.856,1.156c0.821,0.608 2.251,2.281 3.163,3.468c0.913,1.186 1.339,2.403 1.826,3.741c0.486,1.339 0.608,2.982 0.821,4.198c0.213,1.217 -0.091,0.822 0.456,2.039c0.548,1.216 1.43,2.555 1.917,3.893c0.487,1.339 0.578,1.521 1.065,3.073c0.486,1.551 0.79,1.947 0.882,3.164c0.091,1.216 0.061,2.494 0.182,3.133c0.122,0.639 0.396,1.551 1.217,2.464c0.821,0.913 0.913,1.126 1.43,1.947c0.517,0.821 1.369,2.312 1.764,3.437c0.396,1.126 0.609,2.89 0.791,3.833c0.183,0.943 0.244,2.13 0.943,3.316c0.7,1.187 1.035,1.46 1.247,2.464c0.213,1.004 0.365,2.343 0.548,3.316c0.183,0.974 0.517,6.297 0.578,7.027c0.061,0.73 0.152,2.13 0.152,2.677c0,0.548 0.213,2.464 0.335,3.56c0.121,1.095 0.608,1.703 0.699,2.403c0.092,0.699 0.305,0.304 0.305,1.399c-0,1.095 -0.152,0.548 -0.031,1.217c0.122,0.669 -6.875,8.944 -6.875,8.944c0,-0 -1.065,-1.187 -1.034,-1.643c0.03,-0.456 0.213,-0.7 0.122,-1.217c-0.092,-0.517 -0.213,-0.882 -0.548,-1.369c-0.335,-0.487 -0.197,-0.66 -0.487,-0.7c-0.882,-0.121 -1.056,0.068 -1.665,-0.237c-0.608,-0.304 -0.857,-0.785 -1.222,-0.359c-0.365,0.426 -0.946,0.779 -1.311,1.57c-0.365,0.791 -0.815,1.663 -1.149,2.484c-0.335,0.821 -1.756,1.454 -2.684,1.168c-1.234,-0.379 -3.987,-1.421 -3.767,-1.494c-0.013,0.164 3.25,-0.546 3.737,-2.28c0.382,-1.361 0.404,-1.576 0.678,-2.032c0.273,-0.456 0.964,-1.04 1.39,-1.77c0.426,-0.73 0.487,-0.883 0.913,-1.491c0.426,-0.608 0.395,-0.517 1.247,-1.186c0.852,-0.67 1.217,-0.761 1.704,-1.308c0.487,-0.548 0.852,-0.244 0.912,-1.187c0.061,-0.943 0.061,-1.49 -0.121,-2.312c-0.183,-0.821 -0.244,-1.369 -0.609,-2.068c-0.365,-0.7 -1.186,-1.917 -1.794,-2.982c-0.609,-1.064 -1.643,-3.376 -2.434,-4.076c-0.791,-0.7 -0.669,-0.548 -1.247,-1.491c-0.578,-0.943 -1.4,-2.829 -1.613,-3.833c-0.213,-1.003 -0.456,-1.825 -0.791,-2.859c-0.334,-1.034 -0.456,-0.974 -0.547,-1.886c-0.091,-0.913 0.091,-2.86 -0.517,-4.168c-0.609,-1.308 -0.791,-2.16 -1.156,-2.555c-0.365,-0.396 -1.187,-1.308 -1.187,-1.308c0,-0 -0.061,0.973 -0.486,1.521c-0.426,0.547 -1.369,2.099 -1.795,3.255c-0.426,1.156 -0.73,1.521 -0.822,2.16c-0.091,0.639 -0.091,1.703 -0.091,2.707c0,1.004 0.031,2.251 0.031,2.251l0.486,3.925l-43.957,1.916c-0,0 -0.396,-0.243 -0.791,0.852c-0.396,1.095 -1.096,2.281 -1.278,2.89c-0.183,0.608 -1.369,2.433 -1.551,3.224c-0.183,0.791 -0.244,1.187 -0.609,1.765c-0.365,0.578 -1.491,0.783 -1.703,1.49c-0.213,0.707 -1.582,2.198 -2.069,3.171c-0.487,0.974 -0.943,1.43 -1.217,2.008c-0.274,0.578 -0.547,1.399 -1.034,2.221c-0.487,0.821 -1.278,2.707 -1.704,3.559c-0.426,0.852 -0.578,1.339 -0.517,2.129c0.061,0.791 0.122,0.761 0.183,1.734c0.06,0.974 0.091,1.552 0.121,1.917c0.031,0.365 -0.061,1.247 0.092,2.16c0.152,0.912 -8.549,-5.088 -8.549,-5.088Z" style="fill:#ad8b72;"/><path d="M38.106,111.486c-0,-0 -1.116,0.756 -1.282,0.912c-0.167,0.156 -0.353,0.519 -0.25,0.768c0.104,0.25 0.385,0.54 0.769,0.603c0.384,0.062 0.65,0.046 0.65,0.046l0,-0.758c0,-0.145 0.063,-0.332 0.115,-0.477c0.051,-0.146 0.176,-0.322 0.166,-0.53c-0.011,-0.208 -0.168,-0.564 -0.168,-0.564Zm2.776,-13.062c0,-0 -2.086,1.174 -2.408,1.34c-0.322,0.166 -1.796,1.339 -1.868,1.474c-0.073,0.135 0.072,0.177 0.373,0.135c0.301,-0.041 1.454,-0.436 1.91,-0.592c0.457,-0.155 1.596,-0.726 1.596,-0.726c-0,0 0.335,-1.517 0.397,-1.631Zm78.547,-3.519c0,0 0.903,-0.768 1.194,-0.955c0.29,-0.187 0.83,-0.508 1.225,-0.747c0.394,-0.239 0.664,-0.447 0.757,-0.447c0.094,0 -0.052,0.302 0.063,0.26c0.114,-0.042 0.55,-0.343 0.633,-0.446c0.083,-0.104 1.121,-0.592 1.246,-0.665c0.124,-0.072 0.477,-0.176 0.477,-0.176c0,-0 0.125,0.207 -0.031,0.353c-0.156,0.145 -0.322,0.373 -0.571,0.571c-0.249,0.197 -0.602,0.602 -0.737,0.726c-0.135,0.125 -0.82,0.717 -1.111,0.966c-0.29,0.249 -2.491,2.2 -2.605,2.263c0,-0 -0.426,-0.374 -0.529,-0.592c-0.104,-0.218 -0.052,-0.976 -0.011,-1.111Zm-73.625,-9.54c-0,-0 -2.264,-3.384 -2.554,-4.122c-0.291,-0.737 -0.686,-0.726 -0.426,0.27c0.26,0.997 1.474,3.551 1.62,3.758c-0,0 -0.603,-0.155 -0.821,-0.155c-0.218,-0 -0.56,0.29 -0.633,0.581c-0.073,0.291 -0.124,0.779 0.114,0.934c0.239,0.156 0.665,0.333 1.101,0.385c0.436,0.051 0.882,0.145 1.131,0.249c0.249,0.103 0.65,0.12 0.65,0.12c0,-0 0.087,-0.453 0.119,-0.733c0.031,-0.28 0.166,-0.789 0.031,-0.955c-0.135,-0.166 -0.332,-0.332 -0.332,-0.332Zm38.072,-17.695c-0,0 -0.897,0.013 -1.214,-0.145c-0.316,-0.158 -0.804,-1.055 -0.712,-1.292c0.093,-0.238 0.356,-1.135 0.449,-1.57c0.092,-0.435 0.132,-0.712 0.197,-0.923c0.066,-0.211 0.238,-0.818 0.449,-0.936c0.211,-0.119 0.673,-0.185 0.831,-0.33c0.158,-0.145 0.211,-0.435 0.158,-0.567c-0.053,-0.132 -0.251,-0.541 -0.33,-0.831c-0.079,-0.29 0.066,-1.701 0.277,-2.176c0.211,-0.475 0.541,-1.965 0.805,-2.031c0.264,-0.066 1.081,-0.04 1.398,0.079c0.316,0.119 1.569,0.396 2.242,0.501c0.672,0.106 1.121,0.172 1.661,0.264c0.541,0.092 1.543,0.132 1.675,0.435c0.132,0.304 0.093,0.726 -0.092,1.306c-0.185,0.58 -0.435,1.358 -0.633,1.978c-0.198,0.62 -0.831,1.293 -0.95,1.424c-0.118,0.132 -0.105,0.792 -0.105,0.792c-0,-0 0.198,0.132 0.475,0.303c0.277,0.171 0.567,0.277 0.606,0.725c0.04,0.449 -0.039,2.084 -0.145,2.612c-0.105,0.527 0.066,1.042 -0.171,1.147c-0.238,0.106 -1.728,-0.026 -1.728,-0.026l-5.143,-0.739Zm-34.25,-2.285c-0,0 -1.209,-0.78 -1.764,-1.133c-0.555,-0.353 -1.349,-0.933 -1.715,-1.059c-0.366,-0.126 -1.084,-0.328 -1.034,-0.151c0.051,0.176 0.278,0.428 0.454,0.592c0.177,0.164 1.4,1.312 1.677,1.564c0.278,0.252 1.676,1.436 1.676,1.436c-0,-0 0.151,-0.328 0.378,-0.631c0.227,-0.303 0.214,-0.467 0.328,-0.618Zm10.33,-10.301c0,0 -1.198,3.292 -1.349,3.809c-0.152,0.517 -0.782,2.913 -0.807,3.165c-0,-0 -0.429,0.63 -0.555,0.794c-0.126,0.164 -0.517,0.694 -0.706,1.085c-0.19,0.391 -0.404,0.984 -0.366,1.185c0.038,0.202 1.437,0.858 1.954,0.757c0.518,-0.101 1.199,-0.177 1.489,-0.618c0.29,-0.441 0.933,-1.904 0.844,-2.32c-0.088,-0.417 -0.794,-1.11 -0.794,-1.11c0,-0 0.126,-0.795 0.252,-1.324c0.126,-0.53 1.034,-3.14 1.097,-3.481c0.063,-0.34 0.606,-2.144 0.606,-2.144l0.088,-1.135l1.236,0.58l-0.391,4.528c-0,-0 -0.984,0.782 -1.135,1.072c-0.151,0.29 -0.605,0.908 -0.53,1.475c0.076,0.568 -0.038,0.605 0.366,0.946c0.404,0.34 1.122,0.429 1.728,0.24c0.605,-0.19 2.005,-0.366 2.32,-0.593c0.315,-0.227 0.694,-0.517 0.744,-1.135c0.051,-0.618 0.404,-1.173 -0.101,-1.665c-0.504,-0.492 -1.009,-0.693 -1.16,-0.782c-0.151,-0.088 -0.353,-0.164 -0.353,-0.164c-0,0 0.132,-4.41 0.139,-4.628c0.05,-1.598 -4.431,-1.421 -4.616,1.463Zm-5.846,-14.3c-0,-0 -0.832,0.258 -0.922,0.607c-0.085,0.328 -0.168,1.079 -0.101,1.54c0.067,0.46 0.348,1.18 0.787,1.371c0.438,0.191 1.776,0.281 1.978,0.27c0.203,-0.011 -1.742,-3.788 -1.742,-3.788Z" style="fill:#807e7f;"/><path d="M58.507,63.093c-0.002,-0.316 -0.699,0.592 -0.795,0.645c-0.097,0.054 -0.624,0.312 -0.828,0.43c-0.204,0.119 -0.484,0.452 -0.548,0.893c-0.065,0.441 0.01,0.935 0.107,1.419c0.097,0.484 0.247,2.43 0.237,2.774c-0.011,0.344 -0.076,3.988 -0.129,4.655c-0.054,0.666 -0.194,4.257 -0.215,4.515c-0.022,0.258 -0.151,0.237 -0.452,0.527c-0.301,0.29 -0.57,0.452 -0.806,0.731c-0.237,0.28 -0.742,0.559 -0.85,0.785c-0.107,0.226 0.033,2.258 -0.01,2.688c-0.043,0.43 -0.108,0.795 -0.108,1.193c0,0.398 -0.075,1.505 -0.021,1.903c0.053,0.398 0.064,0.882 0.064,1.355c0,0.473 0.011,2.247 0.011,2.935c-0,0.688 -0.032,3.795 -0.032,4.515c-0,0.72 0.15,4.526 0.161,5.289c0.011,0.764 0.03,3.422 -0.085,3.747c-0.115,0.325 -0.535,2.694 -0.669,3.19c-0.133,0.497 -0.171,0.879 -0.229,1.299c-0.057,0.42 -0.114,0.573 -0.267,1.204c-0.153,0.63 -0.669,3.056 -0.783,3.629c-0.115,0.573 -0.325,1.127 -0.421,1.585c-0.095,0.459 -0.229,0.975 -0.363,1.987c-0.133,1.012 -0.324,3.305 -0.496,3.782c-0.172,0.478 -0.21,2.159 -0.038,2.503c0.171,0.343 0.573,2.578 0.611,3.266c0.038,0.688 -0.019,4.604 0.076,5.406c0.096,0.802 0.268,1.223 0.115,1.452c-0.153,0.229 -0.802,2.025 -0.802,2.445c-0,0.42 -0.058,1.05 -0.058,1.05c4.41,8.866 13.558,10.206 26.017,6.285c16.052,2.483 23.079,-3.583 30.029,-9.723c-0,0 -0.019,-0.592 -0.153,-0.955c-0.134,-0.363 -0.248,-0.669 -0.286,-0.86c-0.039,-0.191 -0.325,-0.84 -0.287,-1.585c0.038,-0.745 0.019,-1.07 0.019,-1.528c0,-0.459 0.019,-0.306 -0.191,-0.478c-0.21,-0.172 -0.535,-0.535 -0.535,-0.535c0,0 -0.057,-0.554 0.058,-0.802c0.114,-0.248 0.382,-0.611 0.458,-0.783c0.076,-0.172 0.172,-0.363 0.172,-0.726c-0,-0.363 -0.573,-2.999 -0.669,-3.381c-0.095,-0.382 -1.413,-3.095 -1.795,-3.687c-0.382,-0.592 -0.803,-2.388 -0.917,-3.553c-0.115,-1.165 -0.096,-4.107 -0.115,-4.699c-0.019,-0.592 -0.057,-2.98 -0.325,-3.4c-0.267,-0.42 -1.298,-3.324 -1.528,-4.088c-0.229,-0.764 -0.248,-1.127 -0.382,-1.337c-0.133,-0.21 -0.554,-0.516 -0.802,-0.726c-0.248,-0.21 -0.306,-0.84 -0.554,-1.032c-0.248,-0.191 -1.261,-2.177 -1.834,-3.438c-0.573,-1.261 -1.49,-3.534 -1.872,-4.756c-0.382,-1.223 -1.337,-3.859 -1.471,-4.852c-0.133,-0.994 -0.821,-3.744 -0.955,-4.298c-0.133,-0.554 -1.337,-4.948 -1.471,-5.483c-0.133,-0.534 -0.248,-1.47 -0.477,-1.642c-0.229,-0.172 -1.662,-0.688 -1.662,-0.688c-0,-0 0.134,-1.108 0.134,-1.7c-0,-0.592 0.152,-3.114 0.152,-3.4c0,-0.287 0.23,-2.063 0.077,-2.254c-0.153,-0.191 -1.681,-0.21 -1.987,-0.268c-0.305,-0.057 -3.075,-0.535 -3.476,-0.592c-0.401,-0.057 -0.841,-0.172 -0.879,0.229c-0.038,0.401 0.115,0.764 -0.038,1.318c-0.153,0.554 -0.306,1.624 -0.401,2.617c-0.096,0.994 -0.344,3.114 -0.344,3.114c-0,-0 -4.069,0.287 -5.444,0.344c-1.376,0.057 -4.68,0.134 -5.846,0.172c-1.165,0.038 -4.24,0.458 -4.775,0.898c-0,-0 -0.191,-2.006 -0.306,-2.732c-0.114,-0.726 -0.305,-2.923 -0.439,-3.572c-0.134,-0.65 -0.42,-3.267 -0.63,-3.973c-0.211,-0.707 -0.478,-2.216 -0.593,-2.636c-0.114,-0.421 -0.363,-1.013 -0.21,-1.319c0.153,-0.305 0.153,-0.573 0.038,-0.706c-0.114,-0.134 -0.286,-0.401 -0.554,-0.23c-0.267,0.172 -0.382,0.23 -0.611,0.306c-0.229,0.077 -0.535,0.096 -0.802,0.287c-0.267,0.191 -0.535,0.248 -0.745,0.496c-0.21,0.249 -0.153,0.65 -0.134,0.955c0.019,0.306 0.115,0.994 0.229,1.395c0.115,0.401 0.211,0.267 0.191,0.821c-0.019,0.554 0.134,1.815 0.058,2.331c-0.077,0.515 -0.401,6.131 -0.44,6.724c-0.038,0.592 -0.171,2.617 -0.171,2.922c-0,0.306 -0.191,0.363 -0.191,0.363l-0.363,0.172c-0,0 -0.44,-1.986 -0.497,-2.751c-0.057,-0.764 -0.21,-2.254 -0.344,-2.941c-0.134,-0.688 -0.401,-2.388 -0.554,-2.961c-0.153,-0.573 -0.821,-2.636 -0.936,-3.018c-0.115,-0.382 -0.017,-1.234 -0.018,-1.458Zm26.881,-6.232c-0,0 0.828,0.127 1.196,0.242c0.368,0.115 1.391,0.23 1.851,0.356c0.46,0.127 1.415,0.288 1.84,0.357c0.425,0.069 1.506,0.253 1.506,0.253c0,-0 0.173,-0.805 0.184,-1.208c0.012,-0.402 0.368,-1.552 0.495,-2.196c0.126,-0.644 1.242,-2.749 1.633,-3.231c0.391,-0.483 0.805,-0.95 1.035,-1.007c0.23,-0.058 0.774,0.399 0.799,0.436c0,0 -0.362,-0.97 -0.477,-1.085c-0.115,-0.115 -0.575,-0.081 -0.943,-0.127c-0.368,-0.046 -1.725,-0.46 -2.22,-0.598c-0.494,-0.138 -2.254,-0.885 -2.495,-0.828c-0.241,0.058 -0.678,0.391 -0.908,0.748c-0.23,0.356 -0.966,1.575 -1.185,1.955c-0.218,0.379 -1.069,2.299 -1.276,2.736c-0.207,0.437 -0.955,2.714 -1.035,3.197Z" style="fill:#393430;"/><path d="M79.199,32.669c-0.01,0.135 -5.289,-1.928 -5.449,-1.989c-0.16,-0.062 -0.136,-0.099 -0.431,-0.407c-0.296,-0.308 -1.06,-1.257 -1.195,-1.528c-0.136,-0.271 -0.358,-0.566 -0.432,-0.801c-0.074,-0.234 -0.135,-0.554 -0.258,-0.653c-0.124,-0.098 -0.234,-0.283 -0.234,-0.283c0.123,-0.32 1.256,-1.86 1.256,-1.86c-0.776,0.468 -1.626,1.49 -1.626,1.49c-0,0 -0.296,-0.295 -0.604,-0.813c-0.308,-0.517 -1.084,-1.293 -1.392,-1.737c-0.308,-0.444 -0.936,-0.924 -1.121,-1.097c-0.185,-0.172 -0.431,-0.209 -0.431,-0.209c0.11,0.246 0.455,0.764 0.554,0.924c0.099,0.16 0.136,0.32 0.246,0.604c0.111,0.283 0.062,0.628 0.161,0.85c0.098,0.222 0.628,0.801 0.8,1.22c0.173,0.419 -0.234,1.392 -0.394,1.749c-0.16,0.358 -0.357,1.134 -0.394,2.021c-0.037,0.887 0.776,2.292 0.912,2.637c0.135,0.345 0.369,1.392 0.566,1.897c0.198,0.505 0.247,1.713 0.247,1.713l0.973,1.983c0,0 0.234,0.025 0.37,0.136c0.135,0.111 0.714,0.222 1.158,0.357c0.444,0.136 0.591,0.727 0.678,1.023c0.086,0.295 0.012,1.01 -0.05,1.293c-0.061,0.284 0.197,0.678 0.432,1.602c0.234,0.924 -0.801,1.528 -1.011,1.651c-0.209,0.123 -0.702,0.481 -0.702,0.481l-0.025,1.996c0,-0 0,0.147 -0.283,0.283c-0.283,0.135 -1.873,1.996 -2.193,2.403c-0.321,0.406 -2.378,2.722 -2.834,3.154c-0.456,0.431 -2.267,1.774 -2.649,1.971c-0.382,0.197 -0.825,0.271 -1.318,0.111c-0.406,-0.132 -0.595,-0.372 -0.738,-0.529c0.022,0.376 0.047,1.155 -0.107,1.29c-0.318,0.279 -0.743,0.32 -0.996,0.085c-0.252,-0.234 -0.721,-0.505 -0.721,-0.505c-0,0 -0.668,0.054 -0.704,0.018c-0.036,-0.036 0.072,-0.577 0.072,-0.577c0,0 -0.324,-0.144 -0.721,-0.559c-0.397,-0.415 -0.722,-0.595 -0.812,-1.281c-0.09,-0.686 -0.162,-0.235 -0.361,-0.668c-0.198,-0.432 -0.234,-0.703 -0.09,-0.974c0.144,-0.27 0.234,-0.144 0.343,-0.342c0.108,-0.199 0.18,-0.902 0.18,-0.902c0,-0 -0.361,-0.433 -0.505,-0.704c-0.095,-0.178 -0.425,-0.982 -0.639,-1.51c-0.193,0.059 -0.406,0.081 -0.559,-0.025c-0.283,-0.197 -0.776,-1.245 -1.022,-1.676c-0.247,-0.431 -0.53,-1.959 -0.58,-2.255c-0.049,-0.295 -0.591,-1.774 -0.714,-2.365c-0.123,-0.592 -0.9,-1.676 -0.986,-2.021c-0.086,-0.345 -0.172,-2.205 -0.406,-2.858c-0.235,-0.653 -0.173,-5.495 -0.161,-5.865c0.013,-0.37 0.259,-1.047 0.456,-1.478c0.197,-0.432 0.974,-2.231 1.232,-2.748c0.259,-0.517 1.232,-1.281 1.54,-1.552c0.308,-0.271 1.208,-0.998 1.565,-1.331c0.358,-0.333 3.006,-2.119 3.623,-2.526c0.616,-0.406 0.813,-0.406 1.047,-0.419c0.234,-0.012 0.308,0 0.579,-0.283c0.271,-0.284 0.875,-0.924 0.875,-0.924c0.751,0.049 0.961,0.308 1.306,0.431c0.345,0.123 0.579,0.591 0.924,0.776c0.345,0.185 0.357,0.173 0.825,0.222c0.468,0.049 0.505,0.37 0.678,0.616c0.172,0.246 0.259,0.875 0.259,0.875c-0,-0 0.776,-0.012 1.244,-0.012c0.468,-0 1.811,0.394 2.415,0.48c0.604,0.086 1.922,0.345 1.922,0.345l2.205,1.799l-0.113,1.1c0.424,0.058 0.947,0.148 1.121,0.257c0.308,0.192 1.011,0.953 1.3,1.213c0.289,0.26 0.693,1.281 0.837,1.56c0.145,0.28 0.299,0.26 0.357,0.703c0.058,0.443 0.173,0.857 0.212,1.243c0.038,0.385 0.5,1.569 0.491,1.704Zm-3.187,-0.99c0,0 2.567,1.496 2.673,2.268c0.054,0.394 -0.155,0.521 -0.193,0.665c-0.039,0.145 0.193,0.348 0.299,0.357c0.106,0.01 0.733,-0.482 0.733,-0.482c0.238,-1.523 -2.33,-2.115 -3.512,-2.808Z" style="fill:#cec6bb;"/><path d="M67.891,32.805c-0.15,0.088 -0.518,0.163 -0.674,-0.089c-0.157,-0.251 -0.382,-0.789 -0.198,-1.048c0.184,-0.259 0.245,-0.429 0.647,-0.483c0.402,-0.055 0.885,-0.082 1.396,-0.089c0.51,-0.007 2.253,0.055 2.498,0.034c0.245,-0.02 0.81,-0.136 1.184,-0.197c0.375,-0.061 0.865,-0.089 0.865,-0.089c-0,0 0.47,-0.994 0.531,-1.633c0.061,-0.64 0.333,-2.308 0.279,-2.887c-0.054,-0.578 -0.129,-1.729 -0.313,-1.913c-0.184,-0.184 -1.062,-0.953 -1.355,-1.082c-0.293,-0.129 -1.355,-0.483 -1.355,-0.483c0,-0 1.696,-0.021 1.893,0.068c0.197,0.088 1.273,0.714 1.457,0.946c0.184,0.231 0.646,0.796 0.687,1.232c0.041,0.436 0.021,2.485 -0.027,2.995c-0.048,0.511 -0.259,2.723 -0.272,2.812c-0.014,0.088 0.245,0.041 0.32,0.054c-0,0 0.184,-0.034 0.415,-0.381c0.231,-0.347 0.994,-1.184 1.314,-1.525c0.32,-0.34 0.579,-1.021 0.361,-1.273c-0.218,-0.252 -0.3,-0.354 -0.3,-0.354c0,0 0.334,-0.286 0.558,-0.163c0.225,0.122 0.593,0.333 0.729,0.653c0.136,0.32 0.272,1.042 0.095,1.28c-0.177,0.238 -0.769,1.028 -0.899,1.157c-0.129,0.13 -0.803,0.987 -0.803,0.987c0,0 0.695,0.028 0.98,0.123c0.286,0.095 1.015,0.354 1.335,0.558c0.32,0.204 0.694,0.511 0.885,0.865c0.19,0.354 0.224,1.293 0.109,1.491c-0.116,0.197 -0.633,0.769 -0.858,0.878c-0.225,0.109 -0.517,0.224 -0.517,0.224l-0.014,-0.449c-0,0 0.211,-0.272 0.265,-0.456c0.055,-0.184 0.062,-0.79 -0.102,-0.98c-0.163,-0.191 -0.953,-0.613 -1.225,-0.729c-0.272,-0.115 -1.28,-0.476 -1.375,-0.497c-0.095,-0.02 -0.184,-0.054 -0.184,-0.054c0,-0 -0.177,0.279 -0.286,0.32c0,-0 -0.071,0.054 -0.314,0.063c-0.244,0.008 -0.437,-0.025 -0.697,0.176c-0.26,0.201 -0.445,0.277 -0.588,0.428c0,0 -0.167,0.722 -0.318,0.907c-0.152,0.184 -0.781,1.502 -1.083,1.88c-0.303,0.378 -1.083,1.1 -1.629,1.679c-0.545,0.579 -1.737,1.897 -1.914,1.956c-0.176,0.058 -0.436,0.042 -0.562,-0.152c-0.126,-0.193 -0.327,-0.604 -0.277,-0.797c0.05,-0.193 1.142,-1.074 1.335,-1.419c-0,0 -1.243,0.756 -1.637,1.066c-0.395,0.311 -1.545,0.848 -1.755,0.865c-0.209,0.017 -0.503,-0.092 -0.562,-0.311c-0.059,-0.218 -0.084,-0.688 0.193,-0.831c0.277,-0.142 1.175,-0.637 1.57,-0.898c0.394,-0.26 1.989,-1.318 2.258,-1.561c0.268,-0.243 2.543,-2.342 2.728,-2.51c0.185,-0.168 0.436,-0.881 0.487,-1.049c-0,-0 -0.361,0.092 -0.966,0.21c-0.604,0.117 -2.56,0.151 -2.753,0.151c-0.193,-0 -1.058,-0.16 -1.276,-0.025c-0.218,0.134 -0.137,0.26 -0.286,0.349Z" style="fill:#807e7f;"/></g></g></svg>