<?xml version="1.0" encoding="UTF-8" standalone="no"?><!DOCTYPE svg PUBLIC "-//W3C//DTD SVG 1.1//EN" "http://www.w3.org/Graphics/SVG/1.1/DTD/svg11.dtd"><svg width="100%" height="100%" viewBox="0 0 150 150" version="1.1" xmlns="http://www.w3.org/2000/svg" xmlns:xlink="http://www.w3.org/1999/xlink" xml:space="preserve" xmlns:serif="http://www.serif.com/" style="fill-rule:evenodd;clip-rule:evenodd;stroke-linejoin:round;stroke-miterlimit:2;"><path id="base" d="M150,75c0,-41.394 -33.606,-75 -75,-75c-41.394,0 -75,33.606 -75,75c0,41.394 33.606,75 75,75c41.394,0 75,-33.606 75,-75Z" style="fill:#333;"/><path id="outline" d="M144,75c0,-38.082 -30.918,-69 -69,-69c-38.082,0 -69,30.918 -69,69c0,38.082 30.918,69 69,69c38.082,0 69,-30.918 69,-69Z" style="fill:#ff7600;"/><path id="core" d="M141,75c0,-36.426 -29.574,-66 -66,-66c-36.426,0 -66,29.574 -66,66c0,36.426 29.574,66 66,66c36.426,0 66,-29.574 66,-66Z" style="fill:#fff;"/><clipPath id="_clip1"><path d="M141,75c0,-36.426 -29.574,-66 -66,-66c-36.426,0 -66,29.574 -66,66c0,36.426 29.574,66 66,66c36.426,0 66,-29.574 66,-66Z"/></clipPath><g clip-path="url(#_clip1)"><g id="chemical"><path d="M34.32,141.811l-3.44,-40.074l31.474,-38.87l5.332,-23.563l18.059,-9.803l15.135,32.162l-6.019,14.963l15.135,68.109l-75.676,-2.924Z" style="fill:#d8c7bd;"/><path d="M26.346,129.012c-0,0 0.773,-13.528 0.927,-15.383c0.155,-1.856 0.542,-12.678 0.542,-13.915c-0,-1.237 0.85,-6.88 1.159,-8.272c0.309,-1.391 0.387,-5.875 1.16,-7.034c0.773,-1.16 1.468,-4.638 1.778,-5.721c0.309,-1.082 1.623,-4.483 2.087,-5.334c0.464,-0.85 3.015,-3.633 3.788,-4.329c0.773,-0.695 2.242,-2.01 3.71,-2.319c1.469,-0.309 3.943,-1.159 4.948,-1.469c1.005,-0.309 2.705,-1.623 4.097,-2.087c1.391,-0.464 3.942,-0.541 4.716,-0.773c0.773,-0.232 1.546,-0.773 2.551,-1.159c1.005,-0.387 4.911,-1.351 6.766,-1.506c0,0 0.197,2.126 0.339,2.896c0.143,0.77 0.685,1.511 0.456,1.967c-0.228,0.456 -0.655,1.34 -0.655,1.34c-0,0 -0.314,2.681 -0.314,3.28c-0,0.598 0.428,3.507 0.855,4.818c0.428,1.312 1.426,2.88 2.225,3.935c0.798,1.056 2.879,3.308 3.336,3.85c0.456,0.542 2.338,2.053 3.051,2.338c0.713,0.285 3.564,0.684 4.277,0.684c0.713,0 4.22,-0.456 4.99,-0.684c0.77,-0.228 3.707,-2.424 4.477,-3.849c0.77,-1.426 2.138,-5.988 2.252,-6.274c0.114,-0.285 0.428,-0.769 0.428,-0.769c0,-0 1.625,-1.084 2.11,-1.597c0.485,-0.513 0.941,-1.141 1.369,-1.74c0.427,-0.598 0.912,-1.539 0.912,-1.539c0,-0 0.799,0.313 1.369,0.655c0.57,0.343 3.992,1.54 4.591,1.882c0.599,0.343 1.882,1.198 2.195,1.54c0.314,0.342 2.339,1.34 2.909,1.711c0.57,0.371 2.623,1.369 3.279,1.796c0.656,0.428 2.224,1.968 2.965,2.139c0.742,0.171 1.939,0.143 2.538,0.713c0.599,0.57 1.854,1.739 1.768,2.338c-0.085,0.599 0.342,1.568 0.713,1.882c0.371,0.314 1.426,1.169 1.454,1.54c0.029,0.37 0.456,1.026 0.599,1.54c0.143,0.513 2.13,9.644 2.33,10.414c0.199,0.769 3.289,13.336 3.374,13.963c0.086,0.627 0.058,2.338 -0.057,2.994c-0.114,0.656 -0.57,3.279 -1.026,4.562c-0.456,1.283 -4.378,15.302 -4.378,15.302l-41.247,14.641l-51.713,-18.967Zm45.109,8.405c0,0 -0.112,-7.344 0.045,-8.736c0.158,-1.393 0.449,-4.2 0.449,-4.2c0,0 3.167,-0.022 4.223,-0.067c1.055,-0.045 4.244,-0.247 4.918,-0.382c0.674,-0.135 3.055,-0.135 3.706,-0.225c0.651,-0.09 2.762,-0.853 3.75,-1.168c0.989,-0.314 3.257,-1.886 3.908,-2.335c0.652,-0.449 3.257,-1.864 3.571,-1.977c0.315,-0.112 2.246,0.584 2.381,0.831c0.135,0.247 0.135,0.854 0.247,1.281c0.112,0.426 0.247,1.639 0.269,2.133c0.023,0.494 0.09,2.583 0.045,2.965c-0.045,0.381 0.337,2.403 0.068,2.582c-0.27,0.18 -1.213,0.876 -1.46,1.281c-0.247,0.404 -1.258,0.965 -1.707,1.302c-0.449,0.337 -1.954,2.021 -2.201,2.426c-0.247,0.404 -0.561,0.696 -1.011,0.898c-0.449,0.202 -1.1,0.022 -1.549,0.112c-0.449,0.09 -0.764,0.382 -1.078,0.427c-0.315,0.045 -0.517,-0.202 -0.988,0c-0.472,0.202 -1.034,0.853 -1.864,0.853c-0.831,0 -4.964,0 -5.391,0.068c-0.426,0.067 -2.874,0.337 -3.66,0.494c-0.786,0.157 -4.088,0.988 -4.47,1.123c-0.381,0.135 -1.998,0.337 -2.201,0.314Zm-13.699,-14.194c-0,0 0.067,-0.224 -0.135,-0.381c-0.202,-0.158 -0.427,-0.135 -0.517,-0.629c-0.09,-0.494 -0.112,-0.584 -0.247,-1.078c-0.135,-0.494 -0.494,-1.348 -0.606,-2.022c-0.112,-0.673 -0.696,-1.976 -0.966,-2.223c-0.269,-0.247 -0.584,-0.494 -0.808,-0.786c-0.225,-0.292 -0.382,-1.145 -0.629,-1.46c-0.247,-0.314 -0.427,-0.494 -0.539,-0.853c-0.113,-0.36 -0.023,-0.517 -0.337,-0.854c-0.315,-0.337 -0.337,-0.561 -0.562,-0.673c-0.224,-0.113 -0.314,-0.135 -0.471,-0.27c-0.157,-0.135 -0.786,-0.674 -0.786,-0.674c-0,0 -1.235,-1.46 -1.527,-1.864c-0.292,-0.404 -1.55,-1.976 -1.954,-2.246c-0.405,-0.269 -3.369,-1.976 -4.02,-2.133c-0.652,-0.157 -2.628,-0.786 -3.302,-0.674c-0.674,0.112 -1.594,0.898 -1.392,1.639c0.202,0.742 0.179,0.742 0.786,1.213c0.606,0.472 2.582,1.078 2.874,1.235c0.292,0.158 2.112,1.393 2.628,1.887c0.517,0.494 1.55,0.921 1.954,1.303c0.404,0.381 0.517,0.741 0.696,0.898c0.18,0.157 -0.179,0.427 -0.404,0.225c-0.225,-0.203 -1.325,-1.303 -1.617,-1.438c-0.292,-0.135 -1.932,-1.145 -2.336,-1.325c-0.404,-0.18 -2.65,-1.235 -3.077,-1.347c-0.426,-0.113 -1.751,-0.472 -2.223,-0.629c-0.472,-0.157 -1.752,-0.652 -2.223,-0.629c-0.472,0.022 -1.617,0.449 -1.954,1.235c-0.337,0.786 -0.18,1.078 0.067,1.437c0.247,0.36 0.831,0.674 0.831,0.674c-0,0 -0.584,0.045 -0.988,0.247c-0.404,0.202 -0.831,0.629 -0.966,1.011c-0.135,0.382 -0.09,1.145 0.067,1.415c0.158,0.269 1.326,1.28 1.685,1.46c0.359,0.179 1.999,0.965 2.336,1.19c0.336,0.225 1.639,0.876 1.639,0.876c0,-0 -0.921,0.494 -0.966,1.055c-0.045,0.562 0.225,1.37 0.517,1.662c0.292,0.292 1.415,1.146 1.931,1.438c0.517,0.292 1.28,0.606 1.64,0.741c0.359,0.135 4.424,0.382 5.794,0.337c1.37,-0.045 4.11,0.404 4.649,0.561c0.539,0.157 2.875,0.595 3.369,0.607c0.494,0.011 1.617,0.078 2.089,-0.158Z" style="fill:#331f18;"/><path d="M93.602,75.849c-0.135,-0.368 -0.107,-0.517 -0.369,-1.137c-0.501,0.924 -1.214,1.445 -1.214,1.445c0.341,-0.551 0.652,-1.279 0.907,-1.973c-0.372,-0.461 -0.853,-0.669 -0.907,-0.941c-0.069,-0.347 -0.798,-0.694 -0.798,-0.694c0,0 1.318,-1.214 2.081,-2.081c0.764,-0.867 2.151,-3.677 2.463,-4.613c0.257,-0.772 0.303,-3.477 0.175,-4.908c-0.303,-0.843 -0.653,-1.678 -1.025,-2.481c-0.171,-0.252 -0.649,-1.337 -0.878,-1.773c-1.188,-0.024 -2.527,-0.158 -3.822,-0.515c-3.642,-1.006 -9.608,-8.117 -10.024,-8.95c-0.416,-0.832 -1.457,-2.566 -1.734,-3.399c-0.278,-0.832 -1.214,-2.254 -1.249,-3.33c-0.035,-1.075 -0.139,-1.56 -0.035,-2.497c0.104,-0.937 0.035,-2.012 -0.034,-2.359c-0.07,-0.347 -0.347,-0.52 -0.486,-0.104c-0.139,0.417 -0.694,0.833 -1.145,1.249c-0.45,0.416 -0.832,1.422 -1.318,2.012c-0.485,0.589 -0.867,1.699 -1.179,2.116c-0.312,0.416 -0.798,1.491 -0.971,2.428c-0.174,0.936 -0.451,1.179 -0.451,1.734c-0,0.555 -0.382,2.359 -0.451,3.087c-0.069,0.728 -0.416,2.047 -0.382,3.33c0.035,1.283 -0.069,2.983 0.035,3.885c0.104,0.902 -0.277,2.913 -0.277,2.913c-0,0 -0.243,-2.809 -0.313,-3.295c-0.069,-0.485 -0.104,-0.555 -0.52,-0.971c-0.416,-0.416 -0.624,-2.185 -0.728,-2.879c-0.104,-0.694 -0.104,-1.838 -0,-2.567c0.104,-0.728 0.034,-1.873 0.104,-2.358c0.069,-0.486 0.381,-1.943 0.243,-1.492c-0.139,0.451 -0.625,0.867 -0.625,0.867c0,0 -0.555,0.451 -0.728,1.214c-0.174,0.763 -0.278,0.833 -0.694,2.081c-0.416,1.249 -0.59,1.214 -0.971,2.151c-0.382,0.936 -0.486,2.151 -0.624,2.914c-0.139,0.763 -0.451,1.352 -0.451,1.977c-0,0.624 -0.486,3.434 -0.451,4.058c0.034,0.624 0.069,1.353 0.243,2.636c0.173,1.284 0.208,1.284 0.45,2.324c0.243,1.041 -0.381,0.312 -1.352,1.041c-0.972,0.728 -1.145,1.283 -2.359,1.873c-1.214,0.589 -0.624,-0.07 -0.624,-0.07c-0,0 0.242,-0.451 0.728,-1.352c0.486,-0.902 0.208,-0.243 0.382,-1.735c0.173,-1.491 -0.555,-0.659 -0.972,-0.659c-0.416,0 -0.208,0.208 -0.763,0.902c-0.555,0.694 -0.208,0.451 -0.555,1.283c-0.347,0.833 -1.04,1.804 -1.387,2.602c-0.347,0.798 -0.139,-0.416 -0.104,-1.11c0.035,-0.694 0.104,-1.145 0.139,-1.942c0.034,-0.798 0.312,-1.457 0.346,-2.047c0.035,-0.59 0.313,-0.832 0.659,-1.526c0.347,-0.694 0.59,-1.006 1.11,-1.63c0.521,-0.625 0.313,-0.278 0.798,-0.659c0.486,-0.382 0.208,-0.417 0.278,-0.833c0.069,-0.416 -0.659,-0.069 -0.659,-0.069l-0.694,0.52l-0.035,1.145c0,-0 -0.312,-0.139 -0.347,-0.451c-0.034,-0.312 0,-0.659 0,-0.659l-0.589,0.243c-0,-0 -1.735,1.179 -2.116,1.422c-0.382,0.242 -0.243,-0.208 0.035,-0.555c0.277,-0.347 0.728,-0.451 1.283,-0.763c0.555,-0.313 -0.069,-0.313 -0.069,-0.313l-0.659,-0.485c-0,-0 0.381,-0.07 0.971,-0.243c0.589,-0.173 0.485,-0.347 0.693,-0.624c0.209,-0.278 0.174,-0.347 0.174,-0.937c-0,-0.59 -0,-0.659 -0.555,-0.763c-0.555,-0.104 -0.902,0.486 -1.353,0.208c-0.451,-0.277 -0.347,-0.728 -0.798,0.035c-0.451,0.763 -0.659,2.497 -0.659,3.434c0,0.936 0.555,1.318 0.555,1.318c-1.11,-0.555 -1.387,-2.428 -1.352,-3.261c0.034,-0.832 0.693,-3.121 1.283,-4.162c0.59,-1.041 1.526,-2.255 2.012,-2.74c0.485,-0.486 1.387,-1.63 1.387,-1.63c-0.659,0.381 -1.838,0.451 -1.838,0.451c-0,-0 1.04,-0.451 1.769,-0.937c0.728,-0.486 1.249,-2.116 0.59,-1.457c-0.66,0.659 -2.602,1.7 -2.602,1.7c2.22,-1.353 2.22,-3.365 2.532,-3.989c0.312,-0.624 0.347,-1.526 0.659,-2.463c0.312,-0.936 0.486,-2.601 1.075,-3.781c0.59,-1.179 2.706,-4.648 3.192,-5.237c0.485,-0.59 2.983,-4.683 2.983,-4.683c-0.764,0.382 -1.596,2.081 -2.741,3.191c-1.144,1.11 -3.503,5.03 -3.503,5.03c0,-0 1.561,-3.053 2.914,-4.995c1.352,-1.942 3.676,-4.266 3.989,-4.613c0.312,-0.347 0.346,-1.076 1.595,-2.671c1.249,-1.596 3.989,-2.706 3.989,-2.706c2.081,-1.942 4.96,-3.191 5.827,-3.295c0.867,-0.104 4.405,0.694 5.134,0.867c0.728,0.174 3.226,2.151 3.677,2.186c0.451,0.034 2.324,0.104 2.324,0.104c0.138,-1.249 0.901,-1.769 1.491,-1.873c0.59,-0.105 1.075,0.901 1.075,0.901l0.902,0.07c1.353,-0.278 4.093,1.491 4.648,1.873c0.555,0.381 4.579,4.544 4.891,5.029c0.312,0.486 3.885,5.134 4.509,6.07c0.624,0.937 2.532,5.724 3.226,6.799c0.694,1.075 1.075,5.064 0.971,6.001c-0.104,0.936 -0.277,1.664 -0.451,2.219c-0.173,0.555 -0.312,0.868 -0.312,0.868c0,-0 -0.243,1.873 -0.312,2.393c-0.07,0.52 -0.347,1.387 -0.729,1.838c-0.381,0.451 -0.485,1.11 -0.485,1.492c-0,0.381 -0.694,1.249 -0.937,1.665c-0.243,0.416 -0.347,1.665 -0.555,2.567c-0.208,0.901 -0.971,1.942 -0.971,1.942c0,-0 0.312,-1.422 0.416,-2.324c0.104,-0.902 -0.104,-1.041 -0.104,-1.041c0,0 -0.381,0.798 -0.797,1.318c-0.417,0.521 -0.347,0.694 -0.486,1.457c-0.139,0.763 -0.139,1.457 -0.208,2.116c-0.07,0.659 -0.729,0.659 -0.902,1.249c-0.173,0.59 -1.734,1.353 -1.734,1.353l-0.763,0.208c-0,-0 -0.625,0.416 -0.972,0.936c-0.347,0.521 -0.624,0.833 -0.52,1.353c0.104,0.52 -0.382,1.7 -0.382,1.7c0.105,-0.417 -0.346,-1.18 -0.346,-1.18c-0,0 -0.208,0.382 -0.417,0.763c-0.208,0.382 -0.381,0.798 -0.485,1.318c-0.104,0.521 -0.59,1.388 -0.902,1.839c-0.12,0.172 -0.239,0.33 -0.361,0.501c-0.166,1.456 -0.646,2.686 -1.035,3.483c-0.139,0.372 -1.606,1.467 -1.834,1.738c0,-0 1.323,-1.356 1.624,-1.975c0.269,-0.716 0.6,-1.343 0.639,-2.196l-0.004,0.01c-0.347,0.763 -1.457,0.208 -2.428,0.659c-0.773,0.358 -0.733,0.454 -1.052,0.722c-1.068,1.458 -3.255,3.154 -3.255,3.154c0.998,-0.828 1.195,-2.096 1.143,-3.156c-0.008,-0.164 -0.022,-0.322 -0.04,-0.473Zm14.893,-19.81c-0,-0 -0.226,0.615 -0.408,1.374c-0.182,0.759 -0.32,1.661 -0.147,2.233c-0,0 0.867,-1.699 0.555,-3.607Zm-16.428,-2.943c-0.14,-0.34 -2.199,-2.884 -2.441,-3.197c-0.243,-0.312 -0.555,-0.555 -1.18,-1.769c-0.624,-1.214 -0.659,-1.04 -0.867,-1.665c-0.208,-0.624 -0.589,-1.179 -0.728,-2.185c-0.139,-1.006 -0.971,-2.671 -1.18,-3.156c-0.208,-0.486 -0.693,-0.867 -0.797,-1.318c-0.104,-0.451 -0.659,-1.804 -0.729,-2.636c-0.069,-0.833 -0.659,-0.278 -1.214,-0.209c-0.555,0.07 -0.659,0.209 -1.144,0.555c-0.486,0.347 -0.541,1.721 0.725,3.266c0.295,0.36 -2.182,-1.739 -2.217,-1.323c-0.035,0.416 0.486,2.948 1.041,4.127c0.555,1.18 1.734,5.307 5.896,9.088c1.915,1.739 4.074,2.621 6.106,3.12c-0.137,-0.248 -1.029,-2.108 -1.271,-2.698Zm19.792,-4.341c0,-0 0.555,1.63 0.451,2.809c-0.104,1.18 -0.797,2.914 -0.971,3.122c0,0 0.52,-4.405 0.52,-5.931Zm0.798,-6.001c0,-0 -0.381,2.983 -0.381,3.92c-0,0.936 0.243,2.705 0.381,3.087c0,-0 0.625,-2.186 0.486,-3.33c-0.139,-1.145 0.069,-2.255 -0.486,-3.677Zm-17.724,-20.846l-0.104,1.248c-0,0 3.052,1.076 4.301,1.7c1.248,0.624 5.619,3.885 5.619,3.885c-0,-0 -4.787,-4.995 -5.654,-5.411c-0.867,-0.416 -1.318,-1.526 -4.162,-1.422Zm-1.284,-0.417c0,0 -0.555,0.243 -0.555,0.694c0,0.451 0.902,0.867 0.902,0.867c0,0 0.243,-0.381 0.07,-0.832c-0.174,-0.451 -0.417,-0.729 -0.417,-0.729Zm-17.482,0.625c0,-0 0.885,-0.945 2.381,-1.539c1.496,-0.594 3.603,-0.837 6.048,0.568c0,-0 -5.411,-1.249 -8.429,0.971Z" style="fill:#140301;"/></g></g></svg>