<?xml version="1.0" encoding="UTF-8" standalone="no"?><!DOCTYPE svg PUBLIC "-//W3C//DTD SVG 1.1//EN" "http://www.w3.org/Graphics/SVG/1.1/DTD/svg11.dtd"><svg width="100%" height="100%" viewBox="0 0 150 150" version="1.1" xmlns="http://www.w3.org/2000/svg" xmlns:xlink="http://www.w3.org/1999/xlink" xml:space="preserve" xmlns:serif="http://www.serif.com/" style="fill-rule:evenodd;clip-rule:evenodd;stroke-linejoin:round;stroke-miterlimit:2;"><path id="base" d="M150,75c0,-41.394 -33.606,-75 -75,-75c-41.394,0 -75,33.606 -75,75c0,41.394 33.606,75 75,75c41.394,0 75,-33.606 75,-75Z" style="fill:#333;"/><path id="outline" d="M144,75c0,-38.082 -30.918,-69 -69,-69c-38.082,0 -69,30.918 -69,69c0,38.082 30.918,69 69,69c38.082,0 69,-30.918 69,-69Z" style="fill:#ff7600;"/><path id="core" d="M141,75c0,-36.426 -29.574,-66 -66,-66c-36.426,0 -66,29.574 -66,66c0,36.426 29.574,66 66,66c36.426,0 66,-29.574 66,-66Z" style="fill:#fff;"/><clipPath id="_clip1"><path d="M141,75c0,-36.426 -29.574,-66 -66,-66c-36.426,0 -66,29.574 -66,66c0,36.426 29.574,66 66,66c36.426,0 66,-29.574 66,-66Z"/></clipPath><g clip-path="url(#_clip1)"><g id="gambino"><path d="M60.919,40.229c0,0 -1.647,4.228 -1.811,5.436c-0.165,1.207 -0.824,3.184 -1.318,3.733c-0.494,0.549 -0.878,2.251 0.055,3.898c0.933,1.647 0.22,2.854 -0.11,4.172c-0.329,1.318 -0.768,4.831 -0.384,6.753c0.384,1.921 3.349,12.736 3.349,12.736l-3.514,10.98l-5.435,63.025l39.199,6.314l5.215,-66.099l-10.101,-18.337c0.138,0.02 3.736,-4.652 3.877,-5.975c0.109,-1.027 1.854,-0.047 2.898,-0.925c1.043,-0.878 8.926,-19.068 8.926,-19.068c-10.618,-12.756 -23.818,-14.478 -37.661,-13.45l-3.185,6.807Z" style="fill:#753d17;"/><path d="M17.452,142.877c0.082,-0.74 0.136,-1.439 0.097,-2.016c-0.11,-1.592 1.043,-7.082 1.043,-8.51c-0,-1.427 1.702,-12.736 1.866,-14.054c0.165,-1.318 1.428,-8.839 1.977,-10.925c0.549,-2.086 0.713,-6.259 0.713,-7.741c0,-1.482 0.769,-5.764 1.153,-7.411c0.385,-1.647 2.032,-6.094 2.581,-6.753c0.549,-0.659 1.482,-0.878 1.482,-0.878c1.317,-1.647 8.619,-4.118 16.634,-5.271c8.016,-1.153 8.62,-2.031 10.102,-2.415c1.482,-0.385 2.416,-0.934 3.074,-1.483c0.659,-0.549 1.757,-0.549 1.757,-0.549c0,0 2.306,7.741 2.251,8.29c-0.055,0.549 -2.361,10.98 -2.58,13.176c-0.22,2.196 -0.659,8.4 -0.714,9.827c-0.055,1.428 -0.055,10.376 -0.055,11.804c0,1.427 -0.768,13.889 -0.768,15.426c-0,0.944 -0.042,5.843 -0.074,9.483l-40.539,0Zm64.129,0c0.631,-3.491 1.595,-8.438 1.847,-9.592c0.385,-1.757 2.416,-14 2.91,-15.647c0.494,-1.647 2.141,-11.364 2.361,-12.572c0.219,-1.208 0.549,-6.204 0.713,-8.18c0.165,-1.976 -0.164,-2.745 -0.384,-4.337c-0.219,-1.592 -0.329,-1.482 -0.659,-3.184c-0.329,-1.702 -0.768,-3.514 -0.768,-4.612c-0,-1.098 -0.824,-4.502 -0.769,-5.654c0.055,-1.153 -0.11,-3.13 0,-3.953c0.11,-0.824 0.102,-1.779 0.482,-1.444c0.467,0.412 1.769,3.585 2.318,3.914c0.549,0.33 6.533,2.8 8.07,3.459c1.538,0.659 10.376,4.282 12.517,4.886c2.142,0.604 5.49,2.965 6.643,3.623c1.153,0.659 2.8,3.24 2.8,3.24c1.318,0.109 1.757,3.074 1.922,4.337c0.164,1.262 0.604,14.219 0.604,15.207c-0,0.988 -0.44,12.462 -0.494,13.78c-0.055,1.317 -0.33,11.199 -0.385,12.572c-0.02,0.495 -0.054,2.191 -0.089,4.157l-39.639,0Z" style="fill:#88570a;"/><path d="M66.245,36.606c-0.442,-0.344 -1.812,0.988 -2.69,1.812c-0.879,0.823 -1.922,2.47 -2.526,2.964c-0.604,0.494 -1.153,1.867 -1.702,1.812c-0.549,-0.055 -0.329,-1.427 0.11,-2.525c0.439,-1.098 0.549,-4.832 0.549,-5.875c0,-1.043 0.769,-1.976 0.879,-2.635c0.109,-0.659 -0.165,-3.019 0.494,-3.349c0.658,-0.329 0.988,0.33 1.756,0c0.769,-0.329 1.977,-1.811 1.977,-1.811c-0,-0 0.659,-0.989 1.153,-1.263c0.494,-0.275 0.823,-0.494 1.317,-0.714c0.494,-0.219 1.647,-0.604 1.647,-0.604c0,0 0.769,-0.658 1.208,-0.878c0.439,-0.22 1.263,-0.659 1.263,-0.659c-0,0 0.494,-0.274 1.263,-0.768c0.768,-0.495 0.384,-0.934 0.933,-1.044c0.549,-0.109 1.262,0.385 1.262,0.385c0,-0 0.275,0.274 0.769,0.713c0.494,0.44 0.494,0.385 1.702,0.385c1.208,-0 1.482,-0.22 2.251,-0.11c0.768,0.11 0.768,-0.659 1.702,-0.549c0.933,0.11 1.153,0.165 1.866,1.043c0.714,0.878 0.44,0.933 1.098,1.153c0.659,0.22 1.373,0.604 1.812,0.384c0.439,-0.219 1.922,-0.768 1.922,-0.768c-0,-0 0.878,0.384 1.152,0.988c0.275,0.604 0.549,0.659 1.208,0.878c0.659,0.22 0.549,-0.549 1.318,0.385c0.768,0.933 1.921,1.976 1.921,1.976c0,-0 -0.164,-0.439 0.659,-0.055c0.824,0.384 1.043,0.549 1.263,1.263c0.219,0.713 0.439,1.702 0.439,1.702c0,-0 0.824,-0.275 1.208,0.549c0.384,0.823 0.274,0.549 0.988,0.933c0.714,0.384 0.824,-0 1.153,0.933c0.329,0.933 -0.714,1.263 -0.165,1.702c0.549,0.439 1.043,0.055 1.483,0.604c0.439,0.549 0.164,0.329 0.274,1.208c0.11,0.878 -0.165,1.098 0.549,1.702c0.714,0.604 1.318,-0 1.592,0.878c0.275,0.878 0.988,1.427 0.549,2.141c-0.439,0.714 -0.384,-0.055 -0.055,0.824c0.33,0.878 0,1.702 0,1.702c0,-0 -0.164,-0.055 -0.604,0.549c-0.439,0.603 -0.658,1.043 -0.055,1.647c0.604,0.603 1.538,0.933 0.989,1.537c-0.549,0.604 -1.043,0.549 -1.373,0.933c-0.329,0.384 -0.329,0.165 -0.329,1.208c-0,1.043 -0.33,1.702 -0.33,1.702c0,-0 1.098,-0.604 0.934,0.055c-0.165,0.658 -0.604,1.427 -1.153,1.592c-0.549,0.164 -0.22,0.768 -0.22,0.768c0,0 1.812,0.22 0.988,0.604c-0.823,0.385 -2.086,1.043 -2.635,1.373c-0.549,0.329 -0.714,0.878 -1.153,1.647c-0.439,0.768 -0.768,0.878 -1.098,1.702c-0.329,0.823 0.659,0.768 -0.549,1.756c-1.208,0.989 -1.098,0.824 -1.372,1.263c-0.275,0.439 -0.659,0.879 -0.439,1.482c0.219,0.604 -0,0.495 -0.714,1.044c-0.714,0.549 -0.549,0.603 -1.318,1.152c-0.768,0.549 -0.11,0.549 -1.482,0.824c-1.373,0.274 -1.373,0.165 -1.812,0.549c-0.439,0.384 -0.274,-0.659 -0.274,-0.659c-0,0 -0.275,-0.604 0.164,-0.878c0.44,-0.275 1.263,0.439 1.922,-0.385c0.659,-0.823 2.251,-2.086 2.416,-2.799c0.164,-0.714 1.317,-3.13 1.152,-4.228c-0.164,-1.098 -0.439,-3.129 -0.439,-3.129c0,-0 -1.208,-0.769 -2.415,-0.384c-1.208,0.384 -2.471,1.153 -2.8,1.592c-0.33,0.439 -0.659,1.043 -0.769,1.866c-0.11,0.824 -0.055,1.867 -0.219,2.69c-0.165,0.824 0.164,1.977 0.054,2.636c-0.109,0.658 -0.274,2.305 -0.274,2.305l-0,2.361c-0,0.604 -0.11,1.812 -0.384,2.251c-0.275,0.439 -0.275,0.439 -0.604,0.988c-0.33,0.549 -0.439,0.933 -0.714,1.592c-0.274,0.659 -0.384,0.714 -0.823,1.263c-0.44,0.549 -0.604,0.384 -0.824,1.098c-0.22,0.714 -0.11,1.263 -0.22,2.031c-0.109,0.769 0.33,1.098 -0.274,1.537c-0.604,0.44 0.11,0.22 -1.757,0.824c-1.866,0.604 -2.47,0.933 -2.47,0.933c-0,0 0.549,0.11 -0.055,0.879c-0.604,0.768 0.164,0.823 -1.098,0.878c-1.263,0.055 -3.514,0.055 -3.953,0.329c-0.439,0.275 0.274,0.495 -2.031,0.989c-2.306,0.494 -2.196,0.384 -2.965,0.494c-0.768,0.11 -1.098,0.219 -2.525,0.384c-1.428,0.165 -2.141,0.055 -2.745,-0.165c-0.604,-0.219 -1.043,-1.207 -2.196,-2.031c-1.153,-0.823 -1.535,-1.139 -1.965,-1.798c-0.409,-0.625 -0.067,-1.167 -0.616,-2.155c-0.549,-0.988 -1.207,-3.349 -1.372,-4.117c-0.165,-0.769 -0.329,-1.263 -0.439,-2.306c-0.11,-1.043 -0.11,-2.361 -0.385,-3.294c-0.274,-0.933 -0.549,-1.757 -0.658,-2.8c-0.11,-1.043 -0.317,-3.146 -0.317,-3.146c-0,-0 0.975,0.676 1.085,1.334c0.11,0.659 0.275,0.934 0.439,1.647c0.165,0.714 -0.054,1.318 0.33,1.812c0.384,0.494 0.933,0.494 1.317,0c0.385,-0.494 0.659,-1.427 1.098,-1.647c0.44,-0.22 0.604,-0.988 1.153,-0.768c0.549,0.219 0.22,0.878 1.043,1.152c0.824,0.275 0.604,-0.329 1.538,-0.219c0.933,0.11 1.207,0.384 1.976,0.604c0.769,0.219 1.592,0.823 2.196,1.153c0.604,0.329 0.329,0.439 1.976,0.713c1.647,0.275 0.879,0.385 2.032,0.33c1.153,-0.055 1.427,-0.055 1.921,-0.714c0.494,-0.659 0.33,-0.11 0.933,-1.208c0.604,-1.098 1.373,-1.811 1.922,-2.141c0.549,-0.329 2.525,-0.878 3.459,-0.768c0.933,0.109 0.549,0.878 1.317,-0.055c0.769,-0.934 1.867,-1.647 2.141,-2.416c0.275,-0.769 1.538,-2.196 1.263,-3.294c-0.274,-1.098 -0.659,-2.58 -0.384,-3.623c0.274,-1.043 0.494,-1.538 1.098,-2.361c0.604,-0.824 1.427,-0.933 1.262,-1.812c-0.164,-0.878 0.714,-1.976 0.055,-3.953c-0.658,-1.976 -0.274,-2.141 -1.043,-2.909c-0.768,-0.769 -0.604,-1.647 -1.811,-1.647c-1.208,-0 -1.757,-0.22 -2.196,-0.714c-0.44,-0.494 0.384,-0.878 -1.593,-1.647c-1.976,-0.769 -4.062,-1.372 -5.929,-1.482c-1.866,-0.11 -3.458,-0.769 -4.447,-0.934c-0.988,-0.164 -2.525,-0.494 -3.458,-0.439c-0.934,0.055 -1.153,-0.055 -1.647,-0.439Zm-5.49,34.258c-0,-0 0.549,-0.769 1.811,-1.153c1.263,-0.385 2.196,-0.549 2.8,-0.33c0.604,0.22 2.8,1.483 3.679,1.977c0.878,0.494 1.866,0.658 2.305,1.207c0.44,0.549 1.263,1.538 0.549,1.867c-0.713,0.329 -1.372,0.275 -2.36,0.275c-0.988,-0 -2.196,0.274 -3.733,0.274c-1.538,0 -1.977,-0.11 -1.977,-0.11c0,0 0.33,0.275 -0.823,-0.274c-1.153,-0.549 -1.702,-1.263 -1.702,-1.263c-0,0 -0.33,-2.086 -0.549,-2.47Z" style="fill:#35211a;"/></g></g></svg>