<?xml version="1.0" encoding="UTF-8" standalone="no"?><!DOCTYPE svg PUBLIC "-//W3C//DTD SVG 1.1//EN" "http://www.w3.org/Graphics/SVG/1.1/DTD/svg11.dtd"><svg width="100%" height="100%" viewBox="0 0 150 150" version="1.1" xmlns="http://www.w3.org/2000/svg" xmlns:xlink="http://www.w3.org/1999/xlink" xml:space="preserve" xmlns:serif="http://www.serif.com/" style="fill-rule:evenodd;clip-rule:evenodd;stroke-linejoin:round;stroke-miterlimit:2;"><path id="base" d="M150,75c0,-41.394 -33.606,-75 -75,-75c-41.394,0 -75,33.606 -75,75c0,41.394 33.606,75 75,75c41.394,0 75,-33.606 75,-75Z" style="fill:#333;"/><path id="outline" d="M144,75c0,-38.082 -30.918,-69 -69,-69c-38.082,0 -69,30.918 -69,69c0,38.082 30.918,69 69,69c38.082,0 69,-30.918 69,-69Z" style="fill:#ff7600;"/><path id="core" d="M141,75c0,-36.426 -29.574,-66 -66,-66c-36.426,0 -66,29.574 -66,66c0,36.426 29.574,66 66,66c36.426,0 66,-29.574 66,-66Z" style="fill:#fff;"/><clipPath id="_clip1"><path d="M141,75c0,-36.426 -29.574,-66 -66,-66c-36.426,0 -66,29.574 -66,66c0,36.426 29.574,66 66,66c36.426,0 66,-29.574 66,-66Z"/></clipPath><g clip-path="url(#_clip1)"><g id="idealism"><path d="M67.314,65.017c-0,-0 -3.178,-2.392 -4.678,-2.392c-1.499,-0 -2.427,-0.107 -3.284,-0.822c-0.857,-0.714 -1.25,-2.142 -1.143,-3.034c0.107,-0.893 0.286,-2.643 -0.036,-3.357c-0.321,-0.714 -0.928,-1.285 -1.035,-1.713c-0.107,-0.429 -0.357,-1.072 -1.285,-1.072c-0.929,0 -2.607,-0.785 -1.929,-2.749c0.679,-1.964 2.393,-4.213 2.714,-4.784c0.321,-0.572 0.143,-2.571 -0.178,-3.714c-0.322,-1.142 -1,-4.391 -0.179,-5.034c0.821,-0.643 21.423,-6.927 21.423,-6.927l14.46,24.315c-6.656,7.016 -14.862,10.932 -24.85,11.283Z" style="fill:#4e3f38;"/><path d="M65.44,43.936c0,0 0.261,-2.368 0.181,-3.432c-0.08,-1.064 -0.923,-1.907 -1.706,-2.75c-0.783,-0.843 -2.994,0.261 -4.547,0.506c-1.553,0.245 -0.94,0.204 -0.695,0.613c0.245,0.408 1.839,1.552 1.839,1.552c-0,0 -2.615,-1.144 -3.146,-1.266c-0.532,-0.123 -1.39,0.245 -1.676,-0.45c-0.286,-0.694 0,-2.125 -0.694,-2.492c-0.695,-0.368 -0.613,0.163 -1.144,0.081c-0.532,-0.081 -0.491,-3.35 0.653,-3.391c1.144,-0.041 1.431,-0 1.88,-0.409c0.449,-0.408 1.716,-1.675 2.452,-1.961c0.735,-0.286 0.899,-1.226 2.288,-2.452c1.389,-1.225 2.819,-1.757 3.187,-2.002c0.368,-0.245 1.021,-1.593 0.613,-1.798c-0,0 0.94,0.777 1.553,0.205c0.612,-0.572 0.735,-1.43 0.735,-1.43c0,-0 1.103,0.04 1.839,-0.246c0.735,-0.286 2.206,-0.98 3.146,-1.185c0.94,-0.204 2.411,-0.122 2.983,-0.326c0.572,-0.205 1.144,-0.246 1.593,-0.45c0.45,-0.204 2.411,-0.368 3.147,0.613c0.735,0.981 0.878,1.614 1.327,1.573c0,-0 -0.235,-1.16 -0.878,-1.736c-1.164,-1.045 -2.86,-1.88 -3.882,-2.043c-1.021,-0.164 -2.288,-0.695 -2.288,-0.695c0,-0 3.473,0.49 5.435,1.716c1.961,1.226 2.124,2.983 3.269,3.065c1.144,0.081 1.261,-0.19 1.306,-0.419c0.21,-1.052 0.619,-4.065 0.011,-5.367c-0.758,-1.624 -0.95,-3.285 -0.95,-3.285c0,-0 3.351,4.494 3.433,7.068c0.081,2.575 -0.613,6.456 -0.613,6.456c-0,0 1.634,-1.266 1.757,-2.37c0.122,-1.103 0.286,-4.086 0.286,-4.086c-0,0 1.062,3.719 0.94,5.762c-0.123,2.043 0.122,2.615 0.694,2.901c0.572,0.286 1.349,2.288 0.613,2.574c-0.735,0.286 -0.981,1.389 -0.163,1.512c0.817,0.123 1.225,1.43 1.757,2.084c0.531,0.654 0.817,1.634 1.307,2.37c0.49,0.735 3.473,2.615 3.841,2.819c0.368,0.204 -1.348,-0.408 -1.716,-0.695c-0.368,-0.286 -1.308,-0.531 -1.757,-0.817c-0.45,-0.286 -1.553,-0.776 -1.308,0.123c0.246,0.899 0.041,0.94 0.981,1.757c0.94,0.817 1.512,1.307 1.512,1.307l-6.66,13.198c-0,0 -5.149,-1.511 -6.456,-1.879c-1.308,-0.368 -2.003,0.041 -2.902,-0.94c-0.898,-0.981 -2.941,-1.226 -2.819,-2.779c0.123,-1.552 0.695,-2.206 0.613,-3.391c-0.082,-1.185 0.082,-1.798 -0.245,-3.473c-0.327,-1.675 0.204,-4.413 -0.45,-5.475c-0.653,-1.063 -2.492,-1.226 -3.146,-0.858c-0.654,0.367 -1.103,0.858 -1.593,1.43c-0.491,0.572 -0.327,1.43 -1.553,2.329c-1.226,0.899 -2.973,2.282 -4.184,2.734Z" style="fill:#020912;"/><path d="M45.371,140.987c-0,-0 1.012,-12.354 1.282,-13.772c0.271,-1.418 0.811,-3.308 0.743,-5.063c-0.067,-1.755 1.283,-10.532 2.16,-15.392c0.878,-4.861 2.903,-10.667 3.781,-13.164c0.877,-2.498 1.485,-3.713 2.16,-5.199c0.675,-1.485 0.473,-2.16 1.553,-3.105c1.08,-0.945 3.308,-3.105 4.05,-4.118c0.743,-1.013 2.836,-2.43 3.578,-4.456c0.743,-2.025 2.363,-3.713 2.228,-4.523c-0.135,-0.81 0,-0.675 -0.607,-1.012c-0.608,-0.338 -0.946,-0.27 -0.541,-1.621c0.406,-1.35 1.233,-1.912 0.902,-2.905c-0.331,-0.993 -0.463,-1.39 -1.489,-1.886c-1.026,-0.496 -1.853,-0.794 -1.82,-1.258c0.033,-0.463 0.066,-0.86 0.066,-0.86c0,0 2.548,0.397 3.375,0.53c0.827,0.132 1.125,0.595 2.118,0.496c0.993,-0.099 1.588,-0.033 2.184,-0.629c0.595,-0.595 1.125,-1.82 1.588,-2.581c0.463,-0.761 1.588,-1.158 1.588,-1.158c0,0 0.398,-0.231 1.258,-1.059c0.86,-0.827 2.316,-2.051 2.647,-2.25c0.331,-0.198 1.919,-0.827 3.706,-2.217c1.787,-1.39 3.507,-2.018 4.368,-2.548c0.86,-0.529 2.746,-0.595 2.713,-1.389c-0.033,-0.795 0.766,-1.425 0.232,-2.251c-0.728,-1.125 -0.861,-1.786 -0.464,-2.448c0.398,-0.662 0.497,-0.463 1.655,-0.728c1.158,-0.265 1.787,-0.166 1.654,-0.927c-0.132,-0.761 -0.628,-1.489 -0.099,-1.753c0.53,-0.265 1.688,-0.298 2.383,-0.232c0.694,0.066 5.029,0.132 5.625,0.397c0.595,0.265 1.654,0.728 1.82,1.622c0.165,0.893 1.191,1.687 1.555,2.58c0.364,0.894 0.232,0.828 0.761,1.589c0.529,0.761 1.621,0.893 0.695,2.051c-0.927,1.158 -1.456,1.787 -1.158,2.184c0.297,0.397 1.423,1.853 1.555,2.383c0.132,0.529 0.232,1.224 0.595,1.687c0.364,0.463 0.795,0.166 1.059,1.059c0.265,0.893 1.059,1.621 -0.198,2.68c-1.258,1.059 -0.662,1.258 -2.78,1.489c-2.117,0.232 -7.842,0.563 -9.165,1.225c-0,-0 7.643,2.051 11.25,5.128c3.607,3.078 8.074,7.604 8.868,11.449c0.794,3.846 1.026,12.846 0.86,14.104c-0.165,1.257 0.265,4.93 0.364,6.055c0.099,1.125 0.099,2.515 -0.231,3.673c-0.331,1.158 0.066,4.93 0.099,5.989c0.033,1.059 0.761,10.523 0.827,11.515c0.066,0.993 -0.099,3.981 -0.86,5.404c-0.761,1.423 -4.831,8.603 -4.831,8.603l-32.858,11.582l-32.804,-4.97Z" style="fill:#1e1b1e;"/></g></g></svg>