<?xml version="1.0" encoding="UTF-8" standalone="no"?><!DOCTYPE svg PUBLIC "-//W3C//DTD SVG 1.1//EN" "http://www.w3.org/Graphics/SVG/1.1/DTD/svg11.dtd"><svg width="100%" height="100%" viewBox="0 0 150 150" version="1.1" xmlns="http://www.w3.org/2000/svg" xmlns:xlink="http://www.w3.org/1999/xlink" xml:space="preserve" xmlns:serif="http://www.serif.com/" style="fill-rule:evenodd;clip-rule:evenodd;stroke-linejoin:round;stroke-miterlimit:2;"><path id="base" d="M150,75c0,-41.394 -33.606,-75 -75,-75c-41.394,0 -75,33.606 -75,75c0,41.394 33.606,75 75,75c41.394,0 75,-33.606 75,-75Z" style="fill:#333;"/><path id="outline" d="M144,75c0,-38.082 -30.918,-69 -69,-69c-38.082,0 -69,30.918 -69,69c0,38.082 30.918,69 69,69c38.082,0 69,-30.918 69,-69Z" style="fill:#ff7600;"/><path id="core" d="M141,75c0,-36.426 -29.574,-66 -66,-66c-36.426,0 -66,29.574 -66,66c0,36.426 29.574,66 66,66c36.426,0 66,-29.574 66,-66Z" style="fill:#fff;"/><clipPath id="_clip1"><path d="M141,75c0,-36.426 -29.574,-66 -66,-66c-36.426,0 -66,29.574 -66,66c0,36.426 29.574,66 66,66c36.426,0 66,-29.574 66,-66Z"/></clipPath><g clip-path="url(#_clip1)"><g id="lil-peep" serif:id="lil peep"><path d="M48.102,106.867l3.9,-18.785c0,0 1.474,-1.864 2.934,-1.684c1.198,0.147 2.387,-1.41 2.549,-1.815c0.162,-0.404 0.283,-4.165 0.04,-4.772c-0.242,-0.607 -1.294,-2.305 -1.577,-2.871c-0.283,-0.567 -1.213,-2.144 -1.254,-3.155c-0.04,-1.011 -0.404,-2.831 -0.404,-3.923c-0,-1.092 -0.081,-4.934 -0.081,-4.934c0,0 -0.89,0.162 -1.537,-0.485c-0.647,-0.647 -1.334,-2.063 -1.496,-2.831c-0.162,-0.769 -0.405,-1.375 -0.526,-2.427c-0.121,-1.051 -0.202,-1.86 -0.162,-2.386c0.041,-0.526 0.283,-0.768 -0.202,-1.658c-0.485,-0.89 -0.97,-1.294 -0.93,-1.901c0.04,-0.606 0.04,-2.103 0.324,-3.114c0.283,-1.011 0.161,-1.456 0.97,-1.658c0.809,-0.202 1.173,-0.364 1.618,0.324c0.445,0.687 1.254,1.456 1.254,1.456c-0,-0 0.323,-2.791 0.283,-3.681c-0.041,-0.889 0.445,-4.974 0.606,-5.743c0.162,-0.768 1.052,-3.882 1.052,-3.882c-0,0 1.011,-2.912 1.456,-3.68c0.445,-0.769 1.213,-2.103 1.496,-2.386c0.283,-0.283 0.971,-1.173 1.254,-1.416c0.283,-0.242 15.934,-3.357 15.934,-3.357l16.824,6.309c0,0 2.224,4.328 2.467,5.177c0.243,0.849 1.133,5.783 0.849,8.169c-0.283,2.387 -1.375,8.696 -2.386,10.556l0.89,-0.364c0,-0 0.849,-0.566 1.416,-0.243c0.566,0.324 1.132,1.78 0.323,3.033c-0.809,1.254 -2.831,5.177 -3.478,7.078c-0.647,1.901 -1.254,3.64 -1.86,3.761l-0.405,0.081c0,-0 0.041,0.849 -0.445,0.728c-0.485,-0.121 -0.93,-0.202 -0.93,-0.202c0,-0 -1.375,3.963 -2.143,5.702c-0.769,1.739 -1.658,3.195 -1.658,3.195c-0,-0 1.566,2.316 3.614,2.766c1.47,0.322 12.758,5.184 12.758,5.184l-29.233,27.114l-24.104,-7.28Z" style="fill:#d9c8be;"/><path d="M90.574,65.122c0,0 -3.99,4.167 -6.063,7.54c-0.882,1.436 -0.397,4.211 0.176,4.542c0.574,0.331 1.235,-0.463 1.566,-0.617c0.331,-0.155 0.331,-0.441 0.331,-0.441l-0.397,0.044l-0.353,-1.169l-0.265,-0.308l1.081,-1.654l0.573,-0.815l0.639,-0.287l0.529,-0.176l-1.036,-0.023l3.307,-6.085l-0.088,-0.551Zm-5.909,10.803c0,0 -0.022,0.485 0.133,0.618c0.154,0.132 0.066,0.264 0.419,0.22c0.352,-0.044 0.463,-0.308 0.463,-0.308c-0,-0 0.22,-0.838 -0.089,-1.059c-0.308,-0.22 -0.683,0.287 -0.926,0.529Zm1.919,-3.13l-1.874,2.579c-0,0 -0.41,-1.132 0.154,-2.028c0.085,-0.135 0.838,-0.397 1.72,-0.551Zm3.417,-6.504c-0,-0 -2.675,2.731 -4.961,6.305c-0.101,0.159 1.742,-0.352 1.742,-0.352l3.219,-5.953Zm-31.309,5.436c0,0 -1.268,-2.117 -1.402,-2.46c-0.133,-0.344 -0.61,-1.364 -0.667,-1.497c-0.057,-0.134 -1.373,-1.688 -1.202,-1.831c0.172,-0.143 0.849,0.677 0.849,0.677c0,-0 -0.219,-1.536 -0.362,-1.803c-0.143,-0.267 -0.267,-0.362 -0.429,-0.677c-0.163,-0.315 -0.487,-0.906 -0.544,-1.154c-0.057,-0.248 -0.086,-0.934 -0.105,-1.287c-0.019,-0.353 -0.057,-0.467 -0.057,-0.792c-0,-0.324 0.048,-0.667 -0.019,-1.087c-0.067,-0.419 -0.143,-0.896 -0.124,-1.135c0.019,-0.238 -0.038,-0.715 0.105,-0.734c0.143,-0.019 0.276,0.095 0.343,0.219c0.067,0.124 0.124,0.449 0.191,0.744c0.066,0.296 0.229,0.258 0.457,0.448c0.229,0.191 0.363,0.41 0.411,0.811c0.047,0.401 0.009,0.629 0.095,1.049c0.086,0.42 0.143,0.496 0.229,0.839c0.086,0.344 0.171,0.696 0.143,0.992c-0.029,0.296 -0,0.83 -0.048,0.906c-0.048,0.076 -0.324,0.162 -0.334,0.429c-0.009,0.267 0,0.362 0.058,0.601c0.057,0.238 0.248,0.82 0.333,1.106c0.086,0.286 0.201,0.849 0.201,0.849c-0,-0 0.171,-0.572 0.362,-0.811c0.191,-0.238 0.219,-0.562 0.382,-0.267c0.162,0.296 0.2,0.925 0.152,1.288c-0.048,0.362 -0.238,0.562 -0.296,0.734c-0.057,0.172 -0.076,0.706 -0.076,0.706c0,-0 0.734,1.516 0.858,1.688c0.124,0.171 0.525,0.963 0.496,1.449Zm29.116,-6.269c0.188,0.059 0.623,-0.472 0.859,-0.405c0.235,0.068 0.522,1.028 0.084,1.398c-0.438,0.371 -0.741,0.977 -1.095,0.977c-0.354,0 -0.623,-0.64 -0.842,-1.01c-0.219,-0.371 -0.169,-1.466 0.337,-1.415c0.505,0.05 0.337,0.353 0.657,0.455Zm-22.759,-1.331c0.129,0.054 -0.058,0.742 0.098,0.966c0.156,0.224 0.936,0.263 0.926,0.488c-0.01,0.224 -0.829,0.409 -0.917,0.517c-0.087,0.107 0.508,1.024 0.283,1.121c-0.224,0.098 -0.692,-0.751 -0.926,-0.76c-0.234,-0.01 -0.81,0.731 -0.995,0.516c-0.186,-0.214 0.185,-0.673 0.195,-0.916c0.01,-0.244 -0.81,-0.878 -0.663,-1.093c0.146,-0.214 0.848,-0.039 1.131,-0.156c0.283,-0.117 0.566,-0.809 0.868,-0.683Zm9.086,-7.718c0,-0 0.418,0.282 0.418,0.565c0,0.282 -0.305,1.603 -0.135,1.897c0.169,0.294 1.027,0.915 1.434,0.373c0.407,-0.542 0.384,-1.581 0.644,-1.728c0.26,-0.147 0.937,-0.814 0.35,-0.61c-0.587,0.203 -0.926,0.519 -0.915,0.926c0.011,0.407 0.147,1.299 -0.734,1.073c-0.881,-0.226 -0.147,-1.706 -0.26,-1.909c-0.113,-0.203 -0.135,-0.621 -0.802,-0.587Zm-14.714,-6.667c0.203,-0.19 0.436,-0.436 0.574,-0.587c0.072,-0.078 0.313,-0.265 0.3,-0.115c-0.027,0.319 -0.087,0.78 0.014,0.75c-0.154,0.525 -0.407,1.29 -0.65,1.898c-0.356,0.891 0.356,-0.692 0.633,-1.246c0.244,-0.487 0.197,-0.592 0.262,-0.839c0.129,-0.132 0.265,-0.304 0.367,-0.42c0.123,-0.044 0.268,-0.075 0.42,-0.146c0.324,-0.153 0.336,-0.213 0.566,-0.5c0.071,-0.046 0.146,-0.096 0.226,-0.153c0.429,-0.307 0.359,-0.34 0.177,-0.331c0.061,-0.068 0.142,-0.156 0.258,-0.283c0.435,-0.475 -0.079,0 -0.376,0.139c-0.094,0.043 -0.172,0.101 -0.247,0.158c-0.223,-0.01 -0.809,0.586 -0.683,-0.317c0.03,-0.219 0.109,-0.49 0.168,-0.717c0.21,-0.212 0.45,-0.415 0.584,-0.549c0.277,-0.277 0.376,0.218 0.633,0.416c0.257,0.197 0.475,0.687 0.891,0.692c0.534,0.007 0.197,-0.092 1.127,0.026c0.93,0.119 0.587,-0.007 1.121,0.429c0.534,0.435 0.453,0.765 0.482,1.148c0.067,0.865 -0.907,1.381 -0.369,1.736c0.345,0.227 0.31,-0.667 0.765,-0.806c0.455,-0.139 0.297,-0.079 0.693,-0.198c0.396,-0.119 0.178,-0.039 0.494,0.139c0.315,0.176 0.57,0.353 1.057,0.549l0.012,0.005c-0.002,0.26 -0.789,1.503 -0.6,1.644c0.189,0.142 0.315,0.111 0.551,-0.472c0.236,-0.582 0.661,-1.164 0.865,-1.495c0.053,-0.085 0.074,-0.214 0.075,-0.359c0.071,-0.111 0.156,-0.243 0.257,-0.407c0.316,-0.514 0.791,-0.692 1.029,-0.969c0.237,-0.277 0.336,-0.356 0.91,-0.792c0.574,-0.435 0.93,0.02 1.445,0c0.514,-0.02 0.336,0.653 -0.198,1.247c-0.535,0.594 -0.93,0.712 -1.089,0.831c-0.158,0.119 -0.415,0.237 -0.712,0.514c-0.297,0.278 -0.147,0.518 0.011,0.656c0.158,0.139 0.25,0.524 0.597,0.318c0.458,-0.271 0.868,-0.23 1.054,0.081c0.142,0.492 -1.492,2.048 -0.934,2.218c0.516,0.158 1.035,-1.808 1.454,-2.006c0.224,-0.106 0.491,-0.198 0.529,0.119c0.03,0.25 -0.099,0.653 -0.099,0.653c-0,-0 -0.606,1.241 -0.368,1.478c0.237,0.238 0.328,0.283 0.625,0.105c0.297,-0.178 0.297,-0.396 0.713,-0.515c0.415,-0.118 0.851,0.93 0.692,1.168c-0.158,0.237 -0.791,0.316 -1.523,0.514c-0.733,0.198 -1.425,0.079 -2.058,0.119c-0.634,0.04 -1.386,-0.04 -1.92,-0.079c-0.534,-0.04 -1.385,-0.178 -1.939,-0.317c-0.554,-0.138 -0.732,-0.119 -1.465,-0.435c-0.732,-0.317 -0.474,-0.515 -0.653,-0.792c-0.178,-0.277 -0.277,-0.475 0.218,-0.712c0.495,-0.237 0.416,-0.356 0.416,-0.356c-0,-0 -0.297,-0.257 -0.653,-0.515c-0.357,-0.257 -0.357,0.238 -0.653,0.416c-0.297,0.178 -0.436,0.297 -0.634,0.574c-0.197,0.277 -0.831,0.316 -1.484,0.217c-0.653,-0.099 -0.475,-0.118 -0.633,-0.395c-0.158,-0.277 -0.435,-0.297 -0.613,-0.258c-0.178,0.04 -0.495,0.376 -0.891,0.653c-0.396,0.277 -0.495,0.238 -0.673,0.04c-0.178,-0.198 -0.158,-0.653 -0.138,-1.009c0.02,-0.356 0.198,-0.673 0.198,-0.673c-0,-0 -0.515,0.772 -0.653,0.91c-0.139,0.139 -0.455,0.633 -0.752,0.93c-0.297,0.297 -0.277,0.396 -0.594,0.812c-0.317,0.415 -0.594,0.85 -0.752,1.029c-0.158,0.178 -0.633,0.534 -0.633,0.534c-0,-0 -0.356,-0.139 -0.435,0.02c-0.08,0.158 -0.693,0.336 -1.109,0.376c-0.415,0.039 -0.138,-0.733 -0.138,-1.366c-0,-0.633 0.063,-0.552 0.297,-0.712c0.316,-0.218 0.217,-0.574 0.336,-0.851c0.119,-0.277 0.04,-0.633 0.198,-1.583c0.158,-0.95 -0.04,-0.752 0.356,-1.742c0.396,-0.989 0.218,-0.593 0.693,-1.444c0.475,-0.851 0.138,0.178 0.455,0.514c0.317,0.337 0.415,0 0.692,-0.257c0.278,-0.257 0.02,-0.158 0.396,-0.495c0.376,-0.336 1.029,-0.375 1.267,-0.277c0.048,0.021 0.077,0.052 0.091,0.096c-0.01,0.084 -0.021,0.149 -0.032,0.181c-0.059,0.179 -0.514,0.475 -0.95,0.812c-0.435,0.336 -1.167,1.306 -1.286,1.524c-0.119,0.217 0.851,-0.535 1.049,-0.654c0.047,-0.028 0.109,-0.077 0.179,-0.138c-0.005,0.167 -0.031,0.358 -0.111,0.497c-0.173,0.299 -0.708,1.951 -0.771,2.281c-0.063,0.331 0.598,0.236 0.566,-0.094c-0.031,-0.331 0.158,-1.495 0.331,-1.857c0.143,-0.299 0.253,-0.565 0.102,-0.933Zm-1.576,2.401c0,-0 0.055,0.341 -0.26,1.025c-0.314,0.683 -0.341,0.834 -0.478,1.23c-0.137,0.396 -0.533,0.957 -0.246,0.998c0.287,0.041 0.656,-0.014 0.929,-0.301c0.274,-0.287 0.629,-0.588 0.793,-0.943c0.164,-0.355 0.492,-0.902 0.629,-1.121c0.137,-0.218 0.164,-0.683 -0,-0.492c-0.164,0.191 -0.465,0.725 -0.547,0.93c-0.082,0.205 -0.164,0.478 -0.369,0.751c-0.205,0.274 -0.56,0.588 -0.588,0.451c-0.027,-0.136 0.123,-0.724 0.178,-1.025c0.055,-0.3 0.068,-0.71 0.041,-0.957c-0.027,-0.246 -0.082,-0.546 -0.082,-0.546Zm11.64,2.655c-0,-0 -1.055,-0.393 -1.558,-0.755c-0.504,-0.362 -1.055,-0.85 -1.354,-0.661c-0.299,0.189 0.236,0.834 0.913,1.117c0.677,0.283 1.668,0.409 1.999,0.299Zm-12.364,-3.739c0,-0 -0.058,0.513 0.206,0.528c0.264,0.015 0.455,-0.279 0.572,-0.396c0.118,-0.118 -0.191,0.455 -0.367,0.675c-0.176,0.22 -0.278,0.279 -0.322,0.44c-0.044,0.161 -0.044,0.279 -0.015,0.543c0.029,0.264 -0.044,0.587 -0.176,1.027c-0.132,0.441 -0.279,0.661 -0.279,0.661c-0,-0 -0.22,-0.103 -0.22,-0.397c-0,-0.293 0.029,-0.587 0.088,-0.968c0.059,-0.382 0.103,-0.763 0.176,-0.983c0.073,-0.221 0.235,-0.852 0.337,-1.13Zm14.53,0.827c-0,0 -0.376,0.614 -0.752,0.851c-0.376,0.238 -0.218,0.238 -0.693,0.356c-0.475,0.119 -1.306,0.178 -1.306,0.178c0,0 0.376,0.277 0.812,0.416c0.435,0.138 0.376,0.02 0.811,0.218c0.435,0.197 0.97,0.336 0.97,0.336c-0,-0 -0.218,-0.158 -0.278,-0.653c-0.059,-0.495 -0.118,-0.336 0.02,-0.732c0.139,-0.396 0.376,-0.713 0.416,-0.97Zm-3.286,1.51c-0.246,-0.015 -0.515,-0.224 -0.383,-0.423c0.132,-0.198 0.661,-0.118 0.727,0.027c0.066,0.145 -0.132,0.41 -0.344,0.396Zm-6.846,-0.58c-0.336,0.275 -0.495,0.515 -0.554,0.198c-0.059,-0.316 -0.435,-0.297 -0.039,-0.851c0.395,-0.554 0.336,-0.574 0.534,-0.712c0.198,-0.139 0.495,-0.534 0.475,-0.099c-0.02,0.435 0.079,0.435 -0.119,0.752c-0.198,0.316 -0.079,0.534 -0.297,0.712Zm8.84,-1.346c-0,-0 0.22,0.176 0.308,0.366c0.088,0.191 0.205,0.309 -0.059,0.529c-0.264,0.22 -0.352,0.396 -0.616,0.396c-0.264,-0 -0.455,0.073 -0.426,-0.161c0.029,-0.235 0.499,-0.91 0.793,-1.13Zm-6.228,-1.206c0.257,0.118 0.772,0.336 0.772,0.336c-0,-0 0.138,-0.317 0.138,0.356c0,0.673 0.317,0.732 0,1.108c-0.316,0.376 0.02,0.812 -0.969,0.653c-0.99,-0.158 -1.267,-0.217 -1.009,-0.534c0.257,-0.317 0.475,-0.534 0.653,-0.633c0.178,-0.099 0.257,-0.119 0.455,-0.257c0.198,-0.139 0.415,-0.02 0.277,-0.317c-0.139,-0.297 -0.574,-0.831 -0.317,-0.712Zm3.308,0.301c-0,-0 0.551,-0.173 0.409,0.204c-0.142,0.378 -0.094,0.41 -0.299,0.457c-0.205,0.047 -0.504,0.063 -0.504,0.063c0,-0 0.111,0.141 0.252,0.22c0.142,0.079 0.126,0.283 -0.078,0.425c-0.205,0.142 -0.111,0.378 -0.347,0.252c-0.236,-0.126 -0.503,-0.346 -0.456,-0.645c0.047,-0.299 0.157,-0.504 0.346,-0.646c0.189,-0.141 0.519,-0.188 0.677,-0.33Zm-13.337,0.12c0.263,0.022 0.337,0.421 0.893,0.421c0.556,0 0.842,0.185 0.994,-0.37c0.151,-0.556 0.084,-0.506 0.37,-1.651c0.287,-1.146 0.387,-0.808 0.725,-1.853c0.353,-1.095 0.673,-0.96 1.196,-1.6c0.522,-0.64 0.61,-1.086 1.111,-1.937c0.506,-0.859 0.472,-2.005 0.876,-2.544c0.326,-0.434 0.59,-1.229 0.809,-1.92c0.219,-0.691 0.657,-1.735 0.674,-2.375c0.016,-0.64 0.151,-0.91 -0.573,-1.752c-0.724,-0.842 -0.64,-1.634 -1.533,-1.499c-0.893,0.135 -1.548,0.106 -2.442,0.809c-0.944,0.741 -1.247,1.465 -1.247,1.465c0,-0 -0.202,0.741 0.152,0.371c0.353,-0.371 0.606,-0.927 0.876,-1.129c0.269,-0.202 0.202,-0.707 1.01,-0.825c0.809,-0.118 0.943,-0.257 1.584,-0.186c0.606,0.068 0.842,0.624 1.263,1.213c0.404,0.565 0.404,0.994 0.219,1.887c-0.185,0.892 -0.489,1.802 -0.606,2.324c-0.118,0.522 -0.523,1.432 -0.523,1.432c0,-0 -0.235,-0.489 -0.522,-0.758c-0.301,-0.283 -1.112,-0.169 -0.741,0.253c0.371,0.421 0.438,0.252 0.623,0.522c0.186,0.269 0.152,0.252 0.236,0.572c0.091,0.346 -0.017,0.961 -0.118,1.079c-0.101,0.117 -0.64,-0.489 -0.943,-0.725c-0.23,-0.178 -0.489,-0.505 -0.809,-0.252c-0.32,0.252 -0.606,0.572 -1.095,1.061c-0.488,0.488 -0.597,0.368 -0.64,0.977c-0.05,0.724 0.034,1.583 0.32,1.583c0.287,0 0.523,-0.505 0.472,-0.926c-0.05,-0.421 0.051,-0.876 0.253,-0.893c0.202,-0.017 0.134,0.32 0.37,0.606c0.236,0.287 0.859,0.455 0.893,0.725c0.034,0.269 -0.994,0.657 -1.246,1.027c-0.253,0.371 -0.219,0.101 -0.371,0.708c-0.152,0.606 -0.202,2.408 -0.286,1.6c-0.085,-0.809 -0.253,-1.735 -0.455,-1.904c-0.202,-0.168 -0.876,-0.842 -0.91,-0.488c-0.077,0.809 0.135,0.808 0.202,1.617c0.068,0.808 0.438,1.617 0.438,1.617c0,-0 0.472,0.371 0.32,0.775c-0.151,0.404 -0.185,1.01 -0.64,0.977c-0.454,-0.034 -1.314,-0.607 -1.314,-0.607c0,0 -0.067,0.556 0.135,0.573Zm8.604,-1.965c0,0 -0.079,0.099 -0.376,0.475c-0.296,0.376 -0.593,0.673 -0.534,0.95c0.06,0.277 0.416,0.574 0.713,0.237c0.296,-0.336 0.514,-0.969 0.435,-1.227c-0.079,-0.257 -0.059,-0.197 -0.238,-0.435Zm2.415,0.989c-0.636,0.354 -0.97,0 -0.653,-0.435c0.316,-0.435 0.534,-0.989 0.771,-1.009c0.238,-0.02 0.713,0.336 0.535,0.732c-0.178,0.396 -0.297,0.515 -0.653,0.712Zm6.72,-0.382c-0,-0 -0.03,-0.484 0.22,-0.704c0.249,-0.221 0.763,-0.309 0.763,-0.309c0,0 0.117,0.264 -0.22,0.587c-0.338,0.323 -0.528,0.323 -0.763,0.426Zm-7.675,-1.012c-0,-0 -0.583,0.676 -0.693,0.897c-0.11,0.22 0,-0.85 0,-0.85c0,-0 0.252,-0.032 0.693,-0.047Zm19.65,-1.858c-0.449,0 -0.321,-0.505 -0.337,-0.674c-0.017,-0.168 -0.337,-0.64 0.118,-0.69c0.454,-0.051 0.555,-0.101 0.943,0.067c0.387,0.169 0.909,0.185 1.499,0.185c0.59,0 0.505,-0.202 1.314,-0.033c0.808,0.168 0.455,0.101 1.246,0.252c0.792,0.152 -0.32,0.152 0.96,0.152c1.281,0 1.045,-0.067 1.415,0c0.371,0.067 0.421,-0.135 0.556,0.118c0.135,0.253 0.354,0.539 0.253,0.842c-0.101,0.303 0.741,0.489 -0.337,0.472c-1.078,-0.017 -0.775,-0.169 -1.617,-0.118c-0.842,0.05 -0.741,0.017 -1.247,0.067c-0.505,0.051 -0.421,0.371 -0.69,-0.067c-0.27,-0.438 -0.32,-0.64 -0.421,-0.91c-0.101,-0.269 -0.152,-0.623 -0.337,-0.387c-0.185,0.236 -0.27,0.101 -0.253,0.455c0.017,0.353 0.202,0.387 0.084,0.572c-0.118,0.186 0,0.253 -0.37,0.202c-0.371,-0.05 -0.539,-0.05 -0.826,-0.303c-0.286,-0.252 -0.32,-0.387 -0.842,-0.236c-0.522,0.152 -0.893,0.034 -1.111,0.034Zm-15.935,-2.678c-0.324,-0.044 -0.455,-0.185 -0.388,-0.404c0.068,-0.219 -0.117,-0.186 0.203,-0.489c0.32,-0.303 0.32,-0.539 0.69,-0.573c0.371,-0.033 0.101,-0.117 0.927,0.135c0.825,0.253 0.438,0.202 1.229,0.287c0.792,0.084 0.674,-0.051 1.146,0.117c0.471,0.169 0.522,-0.033 0.741,0.27c0.219,0.303 0.252,0.488 0.135,0.859c-0.118,0.371 0.202,0.371 -0.236,0.539c-0.438,0.169 -0.421,0.472 -0.657,0.017c-0.236,-0.455 0.033,-0.674 -0.388,-0.657c-0.421,0.017 -0.337,0.084 -0.892,0.051c-0.556,-0.034 -0.337,-0.051 -0.944,-0.051c-0.606,-0 -0.488,-0 -0.825,-0.017c-0.337,-0.017 -0.371,-0.034 -0.741,-0.084Zm-10.191,-1.87c0,0 0.101,-0.084 0.421,0.152c0.32,0.236 0.573,0.303 0.607,0.539c0.033,0.236 0.134,0.573 -0,0.775c-0.135,0.202 -0.337,0.454 -0.489,0.556c-0.152,0.101 -0.556,-0.085 -0.657,-0.455c-0.101,-0.371 -0.135,-0.842 -0.101,-1.045c0.034,-0.202 0.084,-0.269 0.219,-0.522Zm6.687,0.725c-0.232,-0.175 -0.421,0.134 -0.522,-0.034c-0.101,-0.169 -0.185,-0.169 0.017,-0.64c0.202,-0.472 0.236,-0.556 0.303,-0.691c0.067,-0.135 0.169,-0.269 1.011,-0.05c0.842,0.219 0.606,0.033 1.095,0.303c0.488,0.269 0.572,0.168 0.741,0.387c0.168,0.219 0.572,0.287 0.084,0.539c-0.488,0.253 -0.371,0.236 -0.59,0.472c-0.219,0.236 0.068,0.269 -0.32,0.286c-0.387,0.017 -0.353,-0.101 -0.589,-0.202c-0.236,-0.101 -0.64,-0.034 -0.842,-0.118c-0.202,-0.084 -0.186,-0.101 -0.388,-0.252Zm-8.119,-0.86c-0.204,0.062 -0.505,-0.69 -0.505,-1.027c-0,-0.337 -0.135,-0.775 -0.017,-1.129c0.118,-0.353 0.152,-0.64 0.354,-1.061c0.202,-0.421 0.253,-0.758 0.455,-0.775c0.202,-0.016 0.505,0.034 0.555,0.388c0.051,0.354 0.068,0.606 0.102,0.977c0.033,0.37 0.168,0.471 0.016,1.095c-0.151,0.623 0,0.791 -0.235,1.078c-0.236,0.286 -0.556,0.404 -0.725,0.454Zm0.118,-0.572c-0.195,-0.028 -0.118,-0.506 -0.101,-0.708c0.017,-0.202 -0.034,-0.657 -0.017,-1.044c0.017,-0.387 0.017,-0.489 0.135,-0.724c0.118,-0.236 0.135,-0.64 0.286,-0.388c0.152,0.253 0.203,0.506 0.253,0.741c0.051,0.236 0.202,0.455 0.152,0.775c-0.051,0.32 -0.068,0.623 -0.169,0.842c-0.101,0.219 -0.219,0.472 -0.219,0.472c0,0 -0.202,0.051 -0.32,0.034Zm-0.657,-3.335c0,-0 -0.219,-0.354 0.236,-0.607c0.455,-0.252 0.539,-0.37 0.792,-0.488c0.252,-0.118 0.37,-0.354 0.623,-0.253c0.253,0.101 0.539,0.168 0.64,0.438c0.101,0.269 0.118,0.741 0.051,1.044c-0.068,0.304 -0.085,0.556 -0.118,0.792c-0.034,0.236 -0.253,0.118 -0.202,-0.118c0.05,-0.236 -0,-0.505 0.033,-0.741c0.034,-0.236 0.169,-0.606 0.017,-0.741c-0.151,-0.135 -0.236,-0.354 -0.488,-0.27c-0.253,0.085 -0.27,0.051 -0.539,0.236c-0.27,0.185 -0.287,0.185 -0.539,0.438c-0.253,0.253 -0.203,0.371 -0.506,0.27Z" style="fill:#25323a;"/><path d="M58.941,25.659c-0,-0 0.809,-0 1.375,-0.283c0.566,-0.284 0.809,-0.85 1.213,-1.699c0.405,-0.849 0.405,-0.971 1.133,-1.294c0.728,-0.324 0.849,-0.405 1.941,-0.971c1.092,-0.566 1.577,-0.606 2.75,-1.092c1.173,-0.485 0.283,-0.526 2.305,-0.728c2.022,-0.202 1.658,-0.323 2.871,-0.404c1.214,-0.081 0.648,-0.364 2.629,-0.041c1.982,0.324 2.548,0.405 3.842,0.607c1.294,0.202 2.386,0.445 2.386,0.445l-0.161,-1.052l1.172,0.728c0,0 0.809,0.728 1.537,0.89c0.728,0.162 1.092,0.202 1.618,0.405c0.526,0.202 1.173,0.283 1.173,0.283l0.526,0.647c-0,-0 -0.122,0.242 0.687,0.323c0.809,0.081 0.566,-0.526 1.132,0.081c0.567,0.607 1.052,1.618 1.052,1.618c-0,-0 0.526,0.04 0.93,0.404c0.405,0.364 0.405,0.486 1.132,1.537c0.728,1.052 0.405,0.283 1.012,1.496c0.606,1.214 1.011,1.214 1.253,2.265c0.243,1.052 0.364,1.78 0.162,2.427c-0.202,0.647 0.162,0.323 -0.081,1.051c-0.243,0.728 -0.849,0.971 -1.092,1.335c-0.242,0.364 -0.809,0.566 -0.485,1.82c0.323,1.253 0.971,1.941 0.607,2.548c-0.364,0.606 -0.526,0.97 -0.728,1.941c-0.203,0.97 0.323,1.254 -0.284,2.022c-0.606,0.768 -0.687,0.89 -1.213,1.375c-0.526,0.485 -0.566,1.82 -1.334,1.092c-0.769,-0.728 -1.254,-1.456 -1.659,-1.658c-0.404,-0.202 -1.86,-0.243 -1.536,0.162c0.323,0.404 1.011,1.172 0.283,1.253c-0.728,0.081 0.323,-0.161 -1.578,0.405c-1.9,0.566 -0.363,2.79 -2.426,1.051c-2.063,-1.739 -2.103,-0.809 -2.103,-0.809c-0,0 0.809,0.688 -0.688,0.769c-1.496,0.081 -1.86,0.121 -1.86,0.121c0,0 -0.849,0.121 -1.294,-1.254c-0.445,-1.375 -0.849,-1.051 -1.213,-2.184c-0.364,-1.132 -0.324,-1.213 -0.486,-2.062c-0.161,-0.849 -0.283,-1.982 -0.728,-1.739c-0.444,0.243 -1.011,-0.647 -1.051,0.849c-0.041,1.497 0.202,2.467 -0.283,2.669c-0.486,0.203 -0.566,1.659 -1.537,-0.242c-0.971,-1.901 -0.243,-1.133 -1.132,-2.386c-0.89,-1.254 -1.052,-1.537 -1.052,-1.537c0,-0 -0.89,0.687 -1.456,1.051c-0.566,0.364 -2.103,-0.525 -2.346,-0.809c-0.242,-0.283 -0.485,-0.161 -1.617,-0.323c-1.133,-0.162 -1.618,-0.243 -1.618,-1.213c0,-0.971 0.364,-0.971 0.041,-1.82c-0.324,-0.85 -0.769,1.092 -0.728,-1.335c0.04,-2.426 0.687,-1.618 -0.081,-2.669c-0.769,-1.052 -0.445,-0.688 -0.93,-1.294c-0.486,-0.607 -0.89,-0.89 -1.012,-1.294c-0.121,-0.405 -0.404,-1.618 -0.404,-1.618l-0.485,-1.213c-0,-0 -0.122,-0.041 -0.081,-0.647Z" style="fill:#f6f2f1;"/><path d="M56.107,85.987c0,0 0.43,-0.307 -0.184,-0.369c-0.615,-0.061 -1.532,0.187 -2.054,0.556c-0.522,0.369 -0.819,0.226 -1.803,0.84c-0.983,0.615 -0.983,0.553 -2.12,1.106c-1.137,0.554 -0.922,0.277 -2.12,1.015c-1.199,0.737 -1.076,0.245 -2.274,1.229c-1.199,0.983 -1.847,0.768 -2.462,1.413c-0.218,0.229 -0.487,0.398 -1.567,0.953c-2.213,1.137 -2.735,1.598 -2.735,1.598l-6.719,3.68l-4.087,11.304l8.185,40.438l37.874,0.265l50.711,-34.978l-31.658,-33.271l-4.512,0.121c0,-0 0.483,0.395 0.821,0.579c0.338,0.185 0.359,0.172 0.706,0.369c0.995,0.564 0.738,0.307 1.291,0.83c0.553,0.522 0.676,0.123 0.584,0.737c-0.092,0.615 -0.092,0.277 -0.307,0.953c-0.215,0.676 -0.123,0.307 -0.246,0.922c-0.123,0.614 0.061,0.461 -0.308,0.768c-0.368,0.307 -0.245,0.492 -0.522,0.492c-0.276,-0 -0.355,0.09 -0.355,0.09c0,-0 -0.075,0.186 -0.075,0.647c-0,0.461 0.123,0.645 0.031,1.229c-0.093,0.584 -0.031,1.168 -0.308,1.629c-0.276,0.461 -0.522,0.707 -0.768,0.83c-0.246,0.123 -1.445,0.688 -1.867,1.282c-0.358,0.506 -0.57,1.326 -0.754,1.542c-0.185,0.215 -0.298,0.218 -0.913,0.648c-0.614,0.43 -2.305,2.428 -3.165,2.827c-0.86,0.4 -0.492,-0.123 -1.413,0.615c-0.922,0.737 -0.369,0.707 -1.506,1.444c-1.137,0.738 -0.953,0.707 -1.598,0.983c-0.645,0.277 -1.229,0.246 -1.629,0.492c-0.399,0.246 -0.307,0.768 -0.891,1.014c-0.584,0.246 -1.598,0.215 -2.059,0.307c-0.461,0.093 -0.061,0.492 -0.737,0.83c-0.676,0.338 -0.769,0.43 -1.352,0.861c-0.584,0.43 -1.875,0.737 -1.875,0.737c0,0 -0.553,-0.338 -0.983,-0.184c-0.43,0.153 0.061,0.43 -0.646,0.553c-0.706,0.123 -0.522,0.153 -1.167,0.123c-0.646,-0.031 -0.646,-0.523 -1.291,-0.461c-0.645,0.061 0.154,-0 -1.014,0.215c-1.168,0.215 -1.045,-0.246 -1.598,-0.307c-0.553,-0.062 -0.584,0.092 -0.922,-0.123c-0.338,-0.215 0.4,0.368 -0.952,-0.646c-1.353,-1.014 -0.922,-0.491 -1.598,-1.29c-0.676,-0.799 -1.014,-0.922 -1.199,-1.322c-0.184,-0.399 -0.215,-0.583 -0.522,-1.321c-0.307,-0.738 -0.523,-0.891 -0.861,-1.291c-0.338,-0.399 -0.491,-0.583 -0.706,-1.014c-0.216,-0.43 -0.492,-0.922 -0.492,-0.922c-0,0 -0.4,-0.461 -0.83,-0.86c-0.43,-0.399 -0.461,-0.615 -0.399,-1.291c0.061,-0.676 -0.338,-0.737 -0.646,-1.106c-0.307,-0.369 -0.245,-1.106 -0.153,-1.383c0.092,-0.276 0.184,-0.799 -0.123,-1.137c-0.307,-0.338 -0.338,-0.491 -0.185,-1.106c0.154,-0.615 0.185,-1.936 0.185,-1.936c-0,0 -0.092,-0.061 0.154,-0.584c0.245,-0.522 0.437,-0.649 0.891,-1.05c0.468,-0.415 1.09,-0.684 1.459,-0.868c0.369,-0.184 0.338,-0.246 0.338,-0.246Z" style="fill:#000304;"/><path d="M89.078,82.251c0,-0 1.237,0.065 1.705,0.137c0.468,0.072 0.792,0.252 1.44,0.613c0.649,0.36 0.865,0.18 1.441,0.576c0.576,0.396 0.599,-0.138 0.887,0.69c0.288,0.829 0.432,0.793 0.432,1.693c0,0.9 0,1.296 0.144,1.728c0.145,0.432 0.145,1.26 0.397,2.197c0.252,0.936 0.144,1.08 0.432,2.016c0.288,0.936 0.36,1.585 0.54,2.341c0.18,0.756 0.324,1.656 0.432,2.232c0.108,0.576 0.144,1.369 0.036,1.765c-0.108,0.396 -1.873,4.069 -2.161,4.681c-0.288,0.612 -4.249,8.426 -4.933,9.758c-0.684,1.333 -4.609,9.218 -4.933,9.615c-0.324,0.396 -0.756,0.792 -1.044,1.224c-0.288,0.432 -2.125,4.969 -2.665,6.193c-0.54,1.225 -2.016,4.393 -2.412,5.222c-0.397,0.828 -1.045,2.196 -1.945,3.24c-0.9,1.045 -2.809,3.529 -3.745,5.006c-0.936,1.476 40.816,1.732 40.816,1.732c-0,0 18.022,-30.251 17.59,-31.224c-0.432,-0.972 -2.52,-7.021 -3.024,-7.849c-0.505,-0.829 -3.349,-5.798 -3.565,-6.05c-0.216,-0.252 -1.657,-1.908 -1.837,-2.016c-0.18,-0.108 2.881,-1.585 3.421,-1.873c0.54,-0.288 2.449,-1.44 2.449,-1.44c-0,-0 0.936,-0.396 0.504,-1.08c-0.432,-0.685 -2.233,-0.18 -2.665,-0.108c-0.432,0.072 -5.185,0.756 -6.121,0.864c-0.937,0.108 -2.485,0.072 -3.781,-0.612c-1.297,-0.685 -8.534,-3.853 -9.399,-4.321c-0.864,-0.469 -3.276,-2.269 -4.069,-2.881c-0.792,-0.612 -3.636,-2.449 -4.501,-2.845c-0.864,-0.396 -4.429,-1.62 -5.401,-1.836c-0.972,-0.216 -3.709,-0.648 -4.753,-0.612c-1.044,0.036 -1.656,0.144 -1.656,0.144c-0,-0 1.08,0.684 1.944,1.08Zm-47.791,9.916c-0.097,-0.107 -0.866,0.386 -1.201,0.599c-0.469,0.3 -0.648,0.436 -1.584,0.76c-0.937,0.324 -0.844,0.345 -1.637,0.634c-0.792,0.288 -1.26,0.576 -2.628,1.296c-1.368,0.721 -1.504,1.059 -2.116,1.779c-0.612,0.72 -1.125,1.354 -1.305,2.002c-0.18,0.648 -0.9,2.375 -1.621,3.096c-0.701,0.704 -0.9,0.721 -1.332,1.333c-0.432,0.612 -1.008,1.944 -1.296,2.736c-0.288,0.793 -0.756,2.053 -0.972,3.097c-0.216,1.044 -0.432,1.116 -0.396,2.125c0.036,1.008 -0.361,1.018 -0.253,3.251c0.108,2.232 0.022,6.268 0.022,6.268l13.925,13.975c0,0 -0.767,-4.867 -1.055,-5.84c-0.288,-0.972 -0.505,-1.404 -0.721,-2.016c-0.216,-0.612 -0.396,-0.756 -0.612,-2.161c-0.216,-1.404 -0.108,-1.044 -0.288,-2.052c-0.18,-1.008 -0.216,-1.08 -0.468,-2.017c-0.252,-0.936 -0.756,-0.792 -0.792,-1.44c-0.036,-0.648 -0.288,-1.044 -0.396,-2.485c-0.108,-1.44 -0.396,-2.556 -0.576,-3.384c-0.18,-0.829 -0,-0.541 -0.504,-1.873c-0.505,-1.332 -0.469,-1.62 -0.721,-2.629c-0.252,-1.008 -0.468,-1.8 -0.756,-2.736c-0.288,-0.936 -0.324,-0.72 -0.54,-2.089c-0.216,-1.368 -0.149,-0.947 -0.149,-2.135c0,-1.189 0.331,-2.238 0.712,-2.718c0.636,-0.801 1.071,-1.191 2.282,-2.204c1.171,-0.981 1.563,-1.215 2.463,-1.719c0.901,-0.504 1.57,-0.874 1.894,-1.018c0.324,-0.144 1.042,-0.582 1.576,-1.016c0.536,-0.436 1.316,-1.12 1.045,-1.419Z" style="fill:#c89351;"/></g></g></svg>