<?xml version="1.0" encoding="UTF-8" standalone="no"?><!DOCTYPE svg PUBLIC "-//W3C//DTD SVG 1.1//EN" "http://www.w3.org/Graphics/SVG/1.1/DTD/svg11.dtd"><svg width="100%" height="100%" viewBox="0 0 150 150" version="1.1" xmlns="http://www.w3.org/2000/svg" xmlns:xlink="http://www.w3.org/1999/xlink" xml:space="preserve" xmlns:serif="http://www.serif.com/" style="fill-rule:evenodd;clip-rule:evenodd;stroke-linejoin:round;stroke-miterlimit:2;"><path id="base" d="M150,75c0,-41.394 -33.606,-75 -75,-75c-41.394,0 -75,33.606 -75,75c0,41.394 33.606,75 75,75c41.394,0 75,-33.606 75,-75Z" style="fill:#333;"/><path id="outline" d="M144,75c0,-38.082 -30.918,-69 -69,-69c-38.082,0 -69,30.918 -69,69c0,38.082 30.918,69 69,69c38.082,0 69,-30.918 69,-69Z" style="fill:#ff7600;"/><path id="core" d="M141,75c0,-36.426 -29.574,-66 -66,-66c-36.426,0 -66,29.574 -66,66c0,36.426 29.574,66 66,66c36.426,0 66,-29.574 66,-66Z" style="fill:#fff;"/><clipPath id="_clip1"><path d="M141,75c0,-36.426 -29.574,-66 -66,-66c-36.426,0 -66,29.574 -66,66c0,36.426 29.574,66 66,66c36.426,0 66,-29.574 66,-66Z"/></clipPath><g clip-path="url(#_clip1)"><g id="smrtdeath"><path d="M90.024,39.28l-26.147,-7.161l-10.515,51.496l31.432,4.547l5.23,-48.882Z" style="fill:#f9d3c1;"/><path d="M57.589,77.085c-0,0 4.936,4.54 6.071,5.164c1.135,0.624 3.235,2.156 4.71,2.27c1.476,0.113 8.172,-1.249 9.363,-2.043c1.192,-0.795 6.072,-0.795 6.072,-0.795l-7.571,72.09l-23.355,3.552l4.71,-80.238Z" style="fill:#384941;"/><path d="M82.03,76.644c-0,0 -2.675,6.822 -3.01,7.692c-0.334,0.869 -2.14,5.886 -3.277,7.491c-1.137,1.605 -1.338,4.882 -2.14,5.885c-0.803,1.004 -2.475,5.618 -3.01,6.22c-0.535,0.602 -0.468,1.672 -0.535,2.475c-0.067,0.803 -0.869,7.758 -0.736,8.962c0.134,1.204 0.201,6.822 0.268,8.227c0.067,1.404 0.535,5.35 0.669,6.755c0.133,1.404 0.133,5.886 -0.067,7.624c-0.201,1.739 -0.468,4.415 -0.468,4.415l33.508,3.143l18.927,-21.67c0,0 -0.237,-2.769 -0.04,-3.127c0.197,-0.358 0.824,-0.287 0.573,-0.734c-0.251,-0.448 -0.967,-0.502 -0.86,-0.878c0.108,-0.376 0.771,-0.269 0.341,-0.895c-0.43,-0.627 -0.699,-1.021 -0.77,-1.398c-0.072,-0.376 0.626,-1.074 0.662,-1.289c0.036,-0.215 -0.286,-0.86 -0.609,-1.272c-0.322,-0.412 -0.895,-0.501 -0.501,-0.967c0.394,-0.466 0.555,-0.967 0.555,-0.967c0,-0 -0.878,-0.072 -1.021,-0.34c-0.143,-0.269 -0.036,-0.681 0.108,-0.86c0.143,-0.179 0.519,-0.09 0.376,-0.466c-0.144,-0.376 0.053,-0.627 -0.269,-0.931c-0.322,-0.305 -0.394,-0.215 -0.537,-0.681c-0.144,-0.465 -0.179,-0.627 -0.466,-0.985c-0.286,-0.358 -0.233,-0.143 -0.376,-0.483c-0.143,-0.341 -0.358,-0.377 -0.251,-0.735c0.108,-0.358 0.555,-0.734 0.555,-0.734l-0.322,-0.645c0,0 -0.125,-0.054 -0.466,-0.215c-0.34,-0.161 -0.268,-0.286 -0.143,-0.412c0.125,-0.125 0.161,0 0.09,-0.448c-0.072,-0.447 0.286,-0.662 -0.126,-0.823c-0.412,-0.162 -0.501,0.268 -0.645,0.071c-0.143,-0.197 0.108,-0.501 0.072,-1.003c-0.036,-0.501 -0.125,-0.662 -0.501,-0.895c-0.376,-0.233 -0.699,-0.502 -0.806,-0.753c-0.108,-0.25 -0.287,-0.806 -0.681,-1.45c-0.394,-0.645 -1.898,-3.905 -2.328,-4.747c-0.43,-0.841 -1.433,-2.65 -1.63,-3.313c-0.197,-0.663 -1.433,-4.836 -3.009,-6.806c-1.576,-1.97 -6.179,-5.588 -8.06,-6.394c-1.881,-0.806 -19.044,-1.644 -19.044,-1.644Zm-55.252,47.617c0,-0 0.875,-4.191 0.691,-4.398c-0.184,-0.208 -0.852,-0.116 -0.622,-0.415c0.231,-0.299 0.737,-1.013 0.875,-1.428c0.139,-0.414 -0.207,-0.345 0.07,-0.898c0.276,-0.552 0.184,-0.667 0.437,-1.634c0.253,-0.968 0.576,-0.968 0.345,-1.336c-0.23,-0.368 -0.621,-0.161 -0.46,-0.714c0.161,-0.552 0.553,-1.243 0.553,-1.243c-0,-0 0.115,-0.622 -0.185,-0.875c-0.299,-0.253 -0.529,-0.76 -0.23,-1.128c0.299,-0.369 0.783,-0.668 0.76,-1.106c-0.023,-0.437 -0.161,-0.898 -0.23,-1.381c-0.069,-0.484 -0.714,-0.622 -0.3,-0.783c0.415,-0.161 1.06,-0.161 1.083,-0.484c0.023,-0.322 0.253,-1.22 -0,-1.658c-0.254,-0.437 -0.484,-0.368 -0.438,-0.783c0.046,-0.414 0.622,-0.99 0.829,-1.151c0.207,-0.161 0.737,-0.967 0.852,-1.589c0.115,-0.621 0.645,-2.003 0.852,-2.371c0.207,-0.369 1.405,-2.994 1.796,-3.5c0.391,-0.507 0.783,-4.191 1.197,-4.744c0.415,-0.552 0.898,-2.049 1.819,-3.154c0.922,-1.106 1.635,-4.928 2.464,-5.688c0.829,-0.76 3.055,-4.435 4.529,-5.218c1.474,-0.783 9.659,-0.335 10.764,0.056c1.105,0.392 2.209,0.333 2.923,1.001c0.713,0.668 2.14,6.97 2.14,6.97l0.529,6.747l-1.402,51.089l-31.641,-18.184Z" style="fill:#c9dae2;"/><path d="M60.018,87.286c1.216,-0 2.262,2.297 2.959,2.854c0.696,0.557 2.506,1.949 2.749,2.645c0.244,0.697 1.741,3.446 1.01,4.699c-0.731,1.253 -1.253,2.516 -2.228,2.506c-0.499,-0.004 -0.947,0.201 -0.916,0.856c0.026,0.543 0.638,-0.125 0.394,1.268c-0.244,1.392 0.557,2.958 0.557,3.654c-0,0.696 -0,4.456 0.035,5.709c0.034,1.253 -0.383,3.515 -0.383,4.873c-0,1.357 0.139,3.445 0.139,3.794c-0,0.348 -0.522,1.809 -0.487,2.158c0.034,0.348 -0.522,3.759 -0.488,5.081c0.035,1.323 -0.487,5.221 -0.487,6.161c0,0.94 -0.244,6.996 -0.244,6.996l-9.015,-1.496c0,-0 0.488,-2.506 0.836,-4.386c0.348,-1.88 1.044,-9.816 1.183,-10.895c0.139,-1.079 0.418,-8.458 0.418,-9.084c-0,-0.627 -0.383,-4.734 -0.313,-5.743c0.069,-1.01 -0.174,-7.101 0.104,-8.423c0.279,-1.323 -0.244,-2.889 0.453,-4.212c0.696,-1.323 1.461,-4.003 1.775,-5.012c0.313,-1.01 0.94,-4.003 1.949,-4.003Z" style="fill:#aba489;"/><path d="M74.739,61.878c0.508,-0.169 1.463,0.595 1.884,0.992c0.422,0.396 3.719,3.049 3.248,3.421c-0.471,0.371 -2.008,-0.67 -2.678,-1.141c-0.669,-0.471 -1.512,-0.669 -1.958,-0.793c-0.446,-0.124 -1.512,-0.793 -1.339,-1.388c0.174,-0.595 0.248,-0.893 0.843,-1.091Zm-2.38,0.099c0.153,0.55 -1.214,1.562 -1.958,1.413c-0.744,-0.149 -1.785,-0.496 -2.702,-0.421c-0.917,0.074 -2.702,0.892 -2.9,0.57c-0.199,-0.322 2.107,-2.157 2.801,-2.306c0.694,-0.148 3.148,-0.966 3.917,-0.446c0.768,0.521 0.718,0.744 0.842,1.19Z" style="fill:#89582e;"/><path d="M88.942,102.502c-0.787,-0.013 -0.315,-3.547 -0.707,-4.626c-0.392,-1.078 -2.451,-4.509 -2.647,-5.881c-0.196,-1.373 -0.686,-3.628 -1.029,-4.559c-0.343,-0.931 -0.981,-1.47 -1.716,-1.176c-0.735,0.294 -1.225,-0.147 -0.735,-0.932c0.49,-0.784 0.588,-1.225 0.49,-2.499c-0.098,-1.275 0.588,-1.422 -0.049,-2.598c-0.365,-0.674 -0.392,-1.026 -0.524,-1.351c-0.881,0.639 -2.081,1.534 -2.662,2.086c-0.98,0.931 -0.833,1.176 -1.519,2.108c-0.687,0.931 -0.393,1.127 -0.393,1.96c0,0.834 -0.049,1.422 0.295,2.059c0.343,0.637 2.646,2.108 2.646,2.108c0,-0 -0.539,0.049 -1.372,-0.294c-0.833,-0.344 -1.422,-0.883 -1.422,-0.883c0,0 -0.147,0.392 0.049,1.324c0.197,0.931 1.226,1.666 1.226,1.666c-0,0 -1.961,-0.735 -2.598,-1.176c-0.637,-0.441 -0.931,-1.226 -0.931,-1.226c-0,0 -0.588,1.765 -0.785,2.402c-0.196,0.637 -0.196,1.618 -0.196,2.892c0,1.275 -1.715,5.343 -1.715,5.343c0.343,-1.324 0.539,-3.725 0.588,-5.392c0.049,-1.666 -0.049,-3.823 -0.539,-5.98c-0.49,-2.156 -0.245,-1.372 -0.931,-2.696c-0.687,-1.323 -0.785,-0.784 -0.785,-0.784c0,0 -0.539,0.98 -0.539,1.618c0,0.637 0.049,2.107 -0.147,1.617c-0.196,-0.49 -0.882,-3.186 -0.588,-3.921c0.294,-0.735 1.568,-2.353 1.912,-3.186c0.247,-0.6 2.424,-1.987 4.759,-3.175c1.748,-1.773 3.595,-4.737 4.332,-6.378c0.418,-0.929 0.576,-1.089 1.237,-1.88c0.713,-0.854 1.092,-3.321 1.337,-4.497c0.245,-1.177 1.471,-3.48 1.716,-4.118c0.245,-0.637 0.98,-2.892 0.98,-3.578c0,-0.686 0.245,-2.99 0.784,-3.774c0.54,-0.784 0.295,-4.509 0.442,-5.343c0.147,-0.833 0.49,-3.137 -0.147,-4.068c-0.638,-0.931 -1.275,-2.647 -2.647,-2.843c-1.373,-0.196 -3.039,-0.49 -3.971,-0.735c-0.931,-0.245 -1.617,-0.392 -2.352,-1.128c-0.736,-0.735 -0.519,-0.384 -1.877,-1.319c-0.696,-0.479 -1.421,-0.91 -2.444,-0.569c-1.024,0.342 -1.478,0.285 -3.127,0.171c-1.648,-0.114 -3.239,0.057 -4.149,0.796c-0.909,0.739 -0.739,1.137 -1.08,2.558c-0.341,1.421 -0.227,3.808 -1.08,5.286c-0.852,1.477 -1.137,2.444 -1.762,4.263c-0.625,1.818 -0.852,3.41 -0.909,4.433c-0.057,1.023 0.146,4.255 0.305,5.154c0.16,0.898 0.979,6.209 0.919,7.407c-0.06,1.198 -0.1,2.935 -0.04,3.754c0.06,0.819 0.579,3.754 0.818,4.832c0.24,1.078 0.14,5.451 -0.059,5.99c-0.2,0.539 -0.857,4.839 -2.807,5.919c-3.076,1.704 -1.692,1.013 -1.825,-1.445c-0.069,-1.276 -0.784,-2.255 -1.911,-1.764c-1.128,0.49 -2.598,1.617 -4.167,2.058c-1.568,0.441 -4.705,2.108 -5.195,1.912c-0.49,-0.196 0.343,-1.029 1.078,-1.275c0.735,-0.245 2.941,-2.058 3.48,-2.842c0.539,-0.785 0.883,-0.932 1.618,-1.912c0.735,-0.98 0.637,-0.98 -1.618,-0.49c-2.254,0.49 -2.941,0.343 -3.921,0.98c-0.98,0.637 -1.127,0.931 -1.961,1.373c-0.833,0.441 -2.058,0.784 -2.058,0.784l-0.834,3.235c0,-0 -0.147,-0.735 -0.735,-0.784c-0.588,-0.049 -0.98,0.441 -1.764,0.686c-0.785,0.245 -1.373,0.833 -1.373,0.833c0,0 0.294,1.029 -0.49,1.52c-0.784,0.49 -1.421,1.568 -2.696,1.617c-1.274,0.049 -2.5,0.147 -2.941,0.735c-0.441,0.588 -0.588,3.333 -0.588,3.333l-1.002,0.62c0,-0 -0.348,-1.365 -0.299,-2.542c0.049,-1.176 0.52,-1.499 1.108,-2.038c0.588,-0.539 0.879,-0.304 1.958,-0.598c1.078,-0.294 1.47,-0.147 2.401,-0.98c0.932,-0.834 1.618,-0.687 1.128,-1.373c-0.49,-0.686 -0.981,-0.686 -1.422,-1.274c-0.441,-0.588 -1.274,-0.049 -2.254,0.196c-0.981,0.245 -1.716,-0 -1.471,-1.422c0.245,-1.421 0.343,-2.745 0.98,-3.774c0.638,-1.029 0.736,-1.029 1.03,-2.353c0.294,-1.323 1.47,-3.382 1.911,-4.313c0.441,-0.931 1.667,-2.157 2.01,-2.794c0.248,-0.46 0.751,-1.457 1.27,-2.252c-0.654,-1.163 -1.109,-2.911 -1.27,-4.196c-0.245,-1.961 3.186,-3.677 4.558,-4.216c1.373,-0.539 3.579,-1.911 5,-3.48c0.452,-0.498 1.19,-1.224 1.988,-1.983c0.292,-0.745 0.58,-1.387 0.806,-1.666c0.637,-0.784 1.863,-2.401 2.451,-3.725c0.588,-1.323 1.078,-1.715 0.98,-2.549c-0.098,-0.833 -0.441,-3.039 -0.196,-4.901c0.245,-1.863 1.52,-5.392 1.765,-6.225c0.245,-0.834 1.715,-3.873 3.039,-5.147c1.323,-1.274 3.382,-3.284 4.901,-3.48c1.52,-0.196 2.843,-0.637 3.725,-1.029c0.883,-0.393 1.912,-0.883 3.333,-0.834c1.422,0.049 1.373,0.245 1.863,0.294c0.49,0.049 1.372,-0.833 2.598,-0.637c1.225,0.196 2.304,1.373 2.941,2.059c0.637,0.686 0.637,1.519 2.059,1.813c1.421,0.294 3.529,0.834 4.558,1.177c1.029,0.343 3.382,2.009 3.97,2.941c0.588,0.931 1.667,3.382 1.912,4.264c0.245,0.882 2.5,7.009 2.451,8.921c-0,-0 0.245,0.637 0.686,1.225c0.441,0.589 2.745,4.804 3.823,6.176c1.078,1.373 2.843,3.873 4.117,6.323c1.275,2.451 3.088,5.539 2.353,8.284c-0.735,2.745 0.389,2.885 0.448,2.927c0.343,0.245 -0.399,1.681 -1.085,1.485c0,-0 0.539,0.98 0.784,1.862c0.245,0.882 0.392,3.48 0.392,3.48c0,0 -2.254,-2.205 -2.843,-2.549c-0.588,-0.343 -1.666,-0.245 -1.372,0.54c0.294,0.784 1.225,2.548 1.716,3.529c0.49,0.98 2.009,3.676 2.156,4.754c0.147,1.079 -0.245,3.971 -0.245,3.971c0,-0 0.147,-2.647 -0.637,-4.02c-0.784,-1.372 -3.578,-5.588 -3.578,-5.588c-0,0 0.343,1.618 0.245,2.696c-0.098,1.079 -0.588,4.118 -0.882,4.902c-0.294,0.784 -0.098,1.666 0.098,2.549c0.196,0.882 -0,1.96 -0,1.96l-0.785,-1.764c0,-0 0,0.539 -0.196,1.127c-0.196,0.588 -0.196,1.667 -0.637,2.5c-0.441,0.833 -0.735,1.519 -0.882,2.794c-0.147,1.274 0.098,3.48 0.245,4.754c0.147,1.275 0.245,6.253 -0.245,7.01c-0,-0 0.049,-4.929 -0.147,-5.812c-0.196,-0.882 -1.324,-4.803 -1.912,-5.244c-0.588,-0.441 -1.078,1.176 -1.715,1.568c-0.606,0.373 -2.188,1.899 -3.437,2.216c0.085,0.951 0.149,2.117 0.039,2.798c-0.21,1.294 -1.049,4.09 -1.643,4.86c0,-0 0.769,-3.461 0.664,-5.174c-0.044,-0.724 -0.151,-1.604 -0.259,-2.378Zm1.156,-11.635c0.559,-0.41 0.882,1.177 1.078,2.059c0.196,0.882 0.392,2.255 0.147,2.99c-0.245,0.735 0.147,2.353 -0.343,2.843c-0.49,0.49 -1.324,-0.686 -1.814,-1.52c-0.49,-0.833 -0.98,-1.47 -0.98,-1.47c-0,-0 0.287,-0.799 1.12,-0.308c0.834,0.49 1.141,1.027 1.141,1.027c0,0 0.288,-1.307 -0.3,-2.582c-0.589,-1.274 -0.785,-2.5 -0.049,-3.039Zm6.47,-2.99c-0,0 0.686,0.981 0.882,1.569c0.196,0.588 0.616,3.898 0.616,3.898c-0,0 -1.057,-1.398 -1.547,-2.085c-0.491,-0.686 0.049,-3.382 0.049,-3.382Zm-55.486,-5.98c0.476,-0.508 0.245,0.294 0.735,-0.098c0.49,-0.392 0.392,0.392 0.392,1.128c0,0.735 0.441,1.568 -0.196,2.107c-0.637,0.539 -1.863,1.177 -2.353,0.736c-0.49,-0.442 -0.588,-1.569 -0.245,-2.157c0.343,-0.588 0.931,-0.931 1.667,-1.716Zm8.528,-7.989c0,-0 -0.539,4.558 -1.666,6.274c-1.127,1.715 -3.578,2.843 -3.578,2.843c-0,-0 0.098,-2.892 0.98,-3.824c0.882,-0.931 3.382,-2.843 4.264,-5.293Zm3.432,5.391c-0,0 -0.883,1.03 -1.03,1.52c0,-0 0.49,-0.098 1.128,-0.245c0.637,-0.147 0.196,-0.686 -0.098,-1.275Zm-0.246,-8.381c0,-0 -1.225,1.568 -1.764,1.764c-0,0 -0.49,2.353 -0.784,3.382c-0.294,1.03 -0.883,2.941 -0.883,2.941c0,0 2.059,-2.107 2.549,-3.039c0.49,-0.931 0.294,-3.676 0.882,-5.048Zm46.124,-11.323c0,0 0.981,1.716 1.618,2.402c0.637,0.686 0.98,1.274 2.01,2.794c1.029,1.519 1.961,6.027 1.211,6.777c-0.176,0.176 -1.555,-1.189 -2.045,-2.023c-0.49,-0.833 -2.058,-8.136 -2.794,-9.95Zm-54.309,5.833c-0,-0 -0.882,-0.294 -1.569,-0.196c-0.686,0.098 -2.156,1.078 -2.352,1.274c-0.197,0.196 -0.981,0.392 -0.785,1.422c0.196,1.029 0.637,1.764 0.637,1.764c0,0 0.589,-1.568 1.03,-1.96c0.441,-0.392 1.666,-1.177 2.157,-1.226c0.49,-0.049 0.833,-0.343 0.882,-1.078Zm3.774,-2.451c0,0 -1.029,-0.196 -1.568,0c-0.54,0.196 -0.981,0.686 -0.981,0.686c0,0 0.539,0.393 1.03,0.245c0.49,-0.147 1.127,-0.49 1.519,-0.931Zm2.01,-4.509c-0,-0 -0.981,1.225 -1.667,1.862c-0.686,0.638 -1.813,1.471 -1.813,1.471c-0,-0 1.225,-0.049 1.617,-0.245c0.392,-0.196 1.422,-2.402 1.863,-3.088Zm10.293,-24.018c0,-0 -2.696,5 -2.941,6.47c-0.245,1.471 -0.686,5.784 -1.176,6.372c-0.49,0.588 -0.687,0.686 -0.981,0c-0.294,-0.686 0.589,-5.392 0.883,-6.421c0.294,-1.029 1.617,-5.196 4.215,-6.421Z" style="fill:#aa3026;"/></g></g></svg>