<?xml version="1.0" encoding="UTF-8" standalone="no"?><!DOCTYPE svg PUBLIC "-//W3C//DTD SVG 1.1//EN" "http://www.w3.org/Graphics/SVG/1.1/DTD/svg11.dtd"><svg width="100%" height="100%" viewBox="0 0 150 150" version="1.1" xmlns="http://www.w3.org/2000/svg" xmlns:xlink="http://www.w3.org/1999/xlink" xml:space="preserve" xmlns:serif="http://www.serif.com/" style="fill-rule:evenodd;clip-rule:evenodd;stroke-linejoin:round;stroke-miterlimit:2;"><path id="base" d="M150,75c0,-41.394 -33.606,-75 -75,-75c-41.394,0 -75,33.606 -75,75c0,41.394 33.606,75 75,75c41.394,0 75,-33.606 75,-75Z" style="fill:#333;"/><path id="outline" d="M144,75c0,-38.082 -30.918,-69 -69,-69c-38.082,0 -69,30.918 -69,69c0,38.082 30.918,69 69,69c38.082,0 69,-30.918 69,-69Z" style="fill:#ff7600;"/><path id="core" d="M141,75c0,-36.426 -29.574,-66 -66,-66c-36.426,0 -66,29.574 -66,66c0,36.426 29.574,66 66,66c36.426,0 66,-29.574 66,-66Z" style="fill:#fff;"/><clipPath id="_clip1"><path d="M141,75c0,-36.426 -29.574,-66 -66,-66c-36.426,0 -66,29.574 -66,66c0,36.426 29.574,66 66,66c36.426,0 66,-29.574 66,-66Z"/></clipPath><g clip-path="url(#_clip1)"><g id="top"><path d="M49.29,103.211l-5.88,-16.688c-0,-0 0.848,-1.557 0.82,-2.198c-0.028,-0.641 -0.726,-2.017 -1.056,-2.366c-0.33,-0.349 -1.828,-1.093 -2.347,-1.395c-0.518,-0.302 -1.64,-0.396 -2.337,-1.009c-0.698,-0.612 -1.706,-1.413 -1.565,-2.676c0.141,-1.264 0.434,-1.631 0.339,-2.187c-0.094,-0.556 -0.404,-1.629 -0.147,-2.09c0.256,-0.461 0.589,-0.308 0.538,-0.871c-0.052,-0.564 0.051,-1.282 0.435,-1.769c0.385,-0.487 0.846,-0.846 0.692,-1.102c-0.153,-0.256 -1.537,-0.974 -1.614,-1.358c-0.077,-0.385 0.102,-0.948 0.333,-1.333c0.231,-0.384 1.256,-1.409 1.743,-1.691c0.487,-0.282 1.973,-0.846 2.383,-1.307c0.41,-0.462 0.051,-2.615 0.051,-2.615l2.691,-2.716l14.992,22.723l0.539,7.288l-10.61,15.36Z" style="fill:#e5cabc;"/><path d="M46.943,54.408c-0,-0 1.18,-0.476 1.639,-0.59c0.459,-0.115 0.459,-0.066 1.23,-0.23c0.77,-0.164 0.754,-0.262 1.131,-0.295c0.377,-0.033 1.328,-0.098 2.164,-0.049c0.836,0.049 0.672,0.164 1.558,0.229c0.885,0.066 1.229,0.197 1.721,0.082c0.492,-0.114 0.541,-0.213 1.328,-0.557c0.787,-0.344 0.967,-0.656 1.459,-0.738c0.492,-0.082 1,-0.131 2.23,0.033c1.23,0.164 1.672,-0.148 2.312,0.393c0.639,0.541 1.246,0.771 1.541,0.837c0.295,0.065 1.033,0.098 1.295,0.229c0.262,0.131 0.705,0.574 1.246,0.721c0.541,0.148 0.754,-0.016 0.935,0.23c0.18,0.246 0.951,0.59 1.065,0.951c0.115,0.361 0.23,0.803 0.574,1.328c0.344,0.525 0.803,0.934 0.885,1.262c0.082,0.328 0.591,0.492 0.574,1.017c-0.016,0.524 -0.082,0.803 -0.196,1.164c-0.115,0.361 -0.623,2.197 -0.722,2.525c-0.098,0.328 -0.213,1 -0.311,1.344c-0.099,0.344 -0.246,0.246 -0.279,1.017c-0.033,0.77 -0.131,0.934 -0.328,1.426c-0.197,0.492 -1.016,1.951 -1.361,2.148c-0.344,0.196 -0.524,0.803 -0.639,1.18c-0.115,0.377 -0.443,1.59 -0.459,2.181c-0.017,0.59 -0.049,1.311 -0.099,1.524c-0.049,0.213 -2.18,2.312 -2.475,2.574c-0.295,0.263 -0.722,0.591 -1.033,0.673c-0.312,0.082 -16.985,-22.609 -16.985,-22.609Z" style="fill:#0f221c;"/><path d="M47.195,54.094c-0.927,0.032 -1.566,0.591 -1.998,0.911c-0.431,0.32 -1.805,1.566 -2.253,2.061c-0.447,0.496 -1.71,1.535 -1.822,2.398c-0.112,0.863 -0.175,2.221 -0.08,2.732c0.096,0.512 0.208,0.943 0.288,0.991c0,0 0.511,-0.303 0.527,-0.527c0.016,-0.224 0.064,-0.991 0.112,-1.327c0.048,-0.335 0.336,-0.655 0.592,-0.927c0.255,-0.271 0.655,-0.719 1.022,-0.623c0.368,0.096 0.783,0.48 1.007,0.799c0.224,0.32 1.534,1.79 1.71,2.046c0.176,0.256 1.71,2.413 1.87,2.637c0.16,0.223 1.822,2.78 2.109,3.244c0.288,0.463 2.078,3.052 2.302,3.388c0.223,0.335 1.678,2.637 1.853,2.956c0.176,0.32 1.487,3.021 1.71,3.276c0.224,0.256 1.471,2.845 1.694,3.164c0.224,0.32 1.518,2.302 1.742,2.493c0.224,0.192 0.544,0.048 0.767,-0.111c0.224,-0.16 0.656,-0.991 0.608,-1.295c-0.048,-0.303 0.111,-1.023 0.255,-1.406c0.144,-0.384 0.815,-1.502 1.119,-1.822c0.304,-0.32 1.662,-1.854 1.694,-2.157c0.032,-0.304 -0.32,-0.815 -0.575,-1.247c-0.256,-0.431 -1.535,-2.972 -1.838,-3.612c-0.304,-0.639 -1.391,-2.876 -1.662,-3.244c-0.272,-0.367 -1.838,-2.653 -2.158,-3.196c-0.319,-0.543 -2.173,-3.292 -2.509,-3.628c-0.335,-0.335 -1.518,-2.572 -1.773,-2.908c-0.256,-0.336 -2.43,-2.669 -2.765,-2.988c-0.336,-0.32 -1.806,-2.078 -3.548,-2.078" style="fill:#fba30d;"/><path d="M17.293,111.737c-0,-0 0.862,-1.519 1.272,-2.176c0.41,-0.656 1.847,-3.652 1.991,-4.001c0.143,-0.349 1.744,-3.181 2.011,-3.612c0.266,-0.431 1.231,-1.744 1.498,-2.114c0.267,-0.369 1.272,-1.785 1.539,-2.257c0.267,-0.472 1.785,-1.621 2.401,-1.888c0.616,-0.267 2.38,-1.375 2.668,-1.539c0.287,-0.164 1.046,-0.349 1.539,-0.534c0.492,-0.185 1.888,-0.616 2.565,-1.046c0.677,-0.431 2.134,-1.129 2.606,-1.293c0.472,-0.165 1.314,-0.247 2.155,-0.924c0.841,-0.677 1.56,-0.841 2.237,-1.395c0.677,-0.554 0.882,-2.093 1.067,-2.627c0.185,-0.534 0.657,-1.067 0.882,-1.231c0.226,-0.164 0.37,-0.288 0.37,-0.288c-0,0 -0.144,0.575 -0.144,0.985c0,0.411 0.308,1.54 0.411,1.868c0.102,0.328 0.779,1.642 1.067,1.929c0.287,0.287 1.149,1.026 1.559,1.231c0.411,0.205 0.575,0.329 0.883,0.513c0.308,0.185 0.492,0.267 0.964,0.349c0.472,0.082 0.513,0.144 0.78,0.103c0.267,-0.041 0.575,-0.39 0.575,-0.39c-0,-0 0.533,-0.205 0.882,-0.103c0.349,0.103 0.739,0.103 1.088,0.103c0.349,-0 0.061,-0.226 0.862,0.02c0.8,0.247 1.354,0.329 1.744,0.37c0.39,0.041 0.534,0.164 0.759,-0.082c0.226,-0.247 0.308,-0.472 0.493,-0.678c0.185,-0.205 0.718,-0.554 0.903,-0.738c0.184,-0.185 0.513,-0.37 0.677,-0.595c0.164,-0.226 0.534,-0.575 0.821,-0.883c0.287,-0.308 0.554,-0.369 0.657,-0.657c0.102,-0.287 0.41,-0.431 0.328,-0.882c-0.082,-0.452 -0.082,-0.636 -0.144,-0.965c-0.061,-0.328 -0.054,-1.147 0.003,-1.48c0.052,-0.3 0.334,-0.501 0.334,-0.501c0,-0 0.282,-0.034 0.508,0.068c0.226,0.103 0.571,0.641 0.571,0.641c0,0 0.164,0.144 0.472,0.513c0.308,0.37 0.472,0.636 0.698,1.006c0.226,0.369 0.287,0.554 0.39,0.841c0.102,0.287 -0,0.411 0.246,0.759c0.246,0.349 0.246,0.452 0.616,0.596c0.369,0.143 0.492,0.02 0.677,0.205c0.185,0.184 1.313,1.128 1.313,1.128l-4.686,55.936c-20.455,-2.697 -38.109,-9.414 -43.108,-34.285Z" style="fill:#031f17;"/><path d="M78.307,44.54l1.139,3.673c-0,0 0.231,1.984 0.213,2.402c-0.018,0.418 -0.071,0.596 -0.338,0.996c-0.267,0.4 -1.699,1.752 -1.832,2.17c-0.134,0.419 0.169,1.548 0.355,1.717c0.187,0.169 0.374,0.498 0.374,0.498c0,0 0.039,1.426 0.031,1.987c-0.009,0.56 -0.138,2.318 -0.147,2.896c-0.008,0.579 0.312,2.322 0.401,2.669c0.089,0.347 0.089,0.658 0.062,0.747c-0.027,0.089 -0.107,3.158 -0.107,3.158l4.812,6.697l25.431,-10.711l-5.484,-11.975l-21.871,-10.589c-2.441,0.636 -2.8,2.126 -3.039,3.665Z" style="fill:#e7bca0;"/><path d="M79.591,48.599c0,-0 -0.619,-0.993 -0.794,-1.32c-0.175,-0.328 -0.771,-1.613 -0.888,-2.045c-0.117,-0.433 -0.526,-1.309 -0.187,-2.197c0.339,-0.888 1.332,-2.454 1.53,-2.851c0.199,-0.397 1.227,-2.115 1.449,-2.617c0.222,-0.503 1.625,-2.384 2.466,-2.723c0.841,-0.339 1.554,-0.233 1.823,-0.514c0.268,-0.28 2.477,-1.928 3.096,-2.278c0.619,-0.351 1.519,-1.04 3.19,-1.181c1.671,-0.14 3.657,-0.245 4.428,-0.56c0.771,-0.316 1.893,-1.274 3.143,-1.262c1.251,0.011 5.469,0.35 6.485,0.222c1.017,-0.129 3.202,-0.818 3.786,-1.122c0.584,-0.304 1.764,-0.374 2.244,0.175c0.479,0.549 0.806,0.304 1.156,1.157c0.351,0.853 1.087,3.891 1.029,5.433c-0.059,1.543 0.058,3.926 0.058,4.674c-0,0.748 0.28,3.435 0.374,4.043c0.093,0.608 0.128,2.325 0.117,3.038c-0.012,0.713 -0.269,3.015 -0.398,3.716c-0.128,0.701 -0.035,1.098 -0.023,1.577c0.012,0.479 0.023,1.028 -0.28,1.624c-0.304,0.596 -1.356,2.209 -1.648,2.816c-0.292,0.608 -0.818,1.893 -1.087,2.232c-0.268,0.339 -1.425,1.262 -2.173,1.577c-0.748,0.316 -1.437,0.655 -1.881,0.69c-0.444,0.035 -0.97,-0.222 -1.32,-0.713c-0.351,-0.491 -1.286,-1.168 -1.578,-1.531c-0.292,-0.362 -2.15,-1.764 -2.57,-2.021c-0.421,-0.257 -2.326,-1.472 -2.781,-1.823c-0.456,-0.35 -2.746,-2.15 -3.155,-2.535c-0.409,-0.386 -3.552,-3.214 -3.961,-3.553c-0.409,-0.338 -2.98,-2.453 -3.284,-2.664c-0.303,-0.21 -3.411,-2.044 -3.961,-2.22c-0.549,-0.175 -2.897,-0.934 -3.622,-0.806c-0.724,0.129 -1.53,0.713 -1.647,1.052c-0.117,0.339 0.035,1.507 0.198,1.904c0.164,0.398 0.666,1.437 0.736,1.648c0.071,0.21 0.316,0.397 -0.07,0.958Z" style="fill:#ff630f;"/><path d="M80.81,69.256c-0.845,-0.707 -2.263,-2.276 -2.484,-3.154c0,0 -0.04,0.575 -0.334,1.521c-0.294,0.947 -0.392,1.371 -0.261,2.089c0.13,0.718 0.652,0.979 0.685,1.534c0.033,0.555 0.229,0.685 0.424,1.371c0.196,0.685 0.294,1.631 0.49,2.643c0.196,1.012 0.392,1.306 0.392,1.306c-0,-0 -3.224,1.309 -3.853,1.543c-0.629,0.234 -2.492,1.129 -3.024,1.468c-0.532,0.338 -3.709,2.765 -4.032,3.048c-0.322,0.282 -2.975,3.177 -3.225,3.709c-0.25,0.532 -1.266,4.483 -1.443,5.064c-0.178,0.58 -1.22,3.353 -1.418,3.87c-0.197,0.516 -1.291,3.828 -1.534,4.542c-0.243,0.714 -1.033,4.284 -1.337,5.393c-0.304,1.109 -0.714,2.477 -0.836,3.783c-0.121,1.307 0.031,4.208 0.167,5.074c0.137,0.866 0.517,2.127 0.365,3.206c-0.152,1.079 -0.38,2.871 -0.395,3.768c-0.015,0.896 0.122,1.382 0.122,1.382c-0,0 -1.823,0.836 -2.386,1.914c-0.562,1.079 -0.562,2.097 -0.486,2.598c0.076,0.501 -0.015,1.717 -0.03,2.978c-0.015,1.261 -0,1.413 0.03,1.808c0.031,0.395 0.137,0.304 0.061,0.957c-0.076,0.653 0.061,0.942 -0.076,1.382c-0.137,0.441 0.106,1.368 -0.289,1.99c-0.395,0.623 -0.349,0.851 -0.455,2.143c-0.107,1.291 11.029,6.411 11.029,6.411c36.57,9.381 62.657,-2.309 72.256,-47.138c-0,-0 -2.378,-3.486 -2.888,-4.592c-0.511,-1.106 -1.936,-3.721 -3.041,-5.04c-1.106,-1.318 -3.764,-3.934 -4.253,-4.487c-0.49,-0.553 -2.85,-2.786 -4.19,-3.721c-1.339,-0.936 -4.083,-2.68 -4.869,-3.105c-0.787,-0.425 -4.424,-2.19 -4.87,-2.509c-0.447,-0.319 -3.126,-5.572 -3.126,-5.572l-9.038,-4.083l-2.297,0.893c0,0 -1.573,0.851 -2.403,1.212c-0.829,0.362 -2.977,1.276 -3.53,1.425c-0.553,0.149 -6.193,2.661 -9.621,3.176c-3.32,0.5 -4.094,-0.959 -3.997,-1.8Z" style="fill:#0e0101;"/><path d="M99.615,65.652c-0,0 1.151,-1.175 1.559,-1.439c0.407,-0.263 1.558,-1.055 2.134,-1.415c0.576,-0.359 1.131,-1.484 1.672,-1.852c0.639,-0.435 0.174,-0.687 0.678,-1.047c0.503,-0.359 2.196,-4.585 2.196,-4.585c-0,-0 3.752,2.112 4.111,2.472c0.36,0.36 0.264,0.432 0.696,0.48c0.432,0.048 1.631,-0.144 1.895,-0c0.263,0.144 0.959,1.079 1.007,2.158c0.048,1.079 0.024,2.806 -0.528,3.549c-0.551,0.744 -1.127,1.727 -1.127,1.727c0,0 0.144,0.768 -0.024,1.487c-0.168,0.72 -0.408,1.199 -0.408,1.199c0,0 0.984,1.919 1.319,2.83c0.336,0.911 0.312,2.854 0.312,2.854c0,-0 -0.432,-0.168 -0.671,-0.384c-0.24,-0.216 -2.686,-3.141 -3.382,-3.597c-0.695,-0.456 -4.029,-3.813 -5.084,-4.101c-1.055,-0.288 -2.638,-1.127 -4.221,-0.791c-1.583,0.335 -1.846,0.383 -2.134,0.455Zm-20.823,-1.396c0,0 -0.296,1.51 -0.094,2.292c0.202,0.781 1.186,1.563 1.725,1.846c0.539,0.283 0.769,0.405 1.011,0.89c0.243,0.485 0.364,1.334 0.796,1.712c-0,-0 -0.944,-0.337 -1.968,-1.294c-1.025,-0.957 -1.47,-2.063 -1.901,-2.791c-0.431,-0.727 -1.078,-1.334 -0.31,-2.143c0.768,-0.809 0.566,-0.498 0.741,-0.512Z" style="fill:#c5d0c6;"/></g></g></svg>