<?xml version="1.0" encoding="UTF-8" standalone="no"?><!DOCTYPE svg PUBLIC "-//W3C//DTD SVG 1.1//EN" "http://www.w3.org/Graphics/SVG/1.1/DTD/svg11.dtd"><svg width="100%" height="100%" viewBox="0 0 150 150" version="1.1" xmlns="http://www.w3.org/2000/svg" xmlns:xlink="http://www.w3.org/1999/xlink" xml:space="preserve" xmlns:serif="http://www.serif.com/" style="fill-rule:evenodd;clip-rule:evenodd;stroke-linejoin:round;stroke-miterlimit:2;"><path id="base" d="M150,75c0,-41.394 -33.606,-75 -75,-75c-41.394,0 -75,33.606 -75,75c0,41.394 33.606,75 75,75c41.394,0 75,-33.606 75,-75Z" style="fill:#333;"/><path id="outline" d="M144,75c0,-38.082 -30.918,-69 -69,-69c-38.082,0 -69,30.918 -69,69c0,38.082 30.918,69 69,69c38.082,0 69,-30.918 69,-69Z" style="fill:#ff7600;"/><path id="core" d="M141,75c0,-36.426 -29.574,-66 -66,-66c-36.426,0 -66,29.574 -66,66c0,36.426 29.574,66 66,66c36.426,0 66,-29.574 66,-66Z" style="fill:#fff;"/><clipPath id="_clip1"><path d="M141,75c0,-36.426 -29.574,-66 -66,-66c-36.426,0 -66,29.574 -66,66c0,36.426 29.574,66 66,66c36.426,0 66,-29.574 66,-66Z"/></clipPath><g clip-path="url(#_clip1)"><g id="tyler"><path d="M47.068,118.868c-0,-0 15.094,-37.36 15.457,-37.813c0.362,-0.454 0.816,-1.678 0.589,-2.086c-0.227,-0.408 -1.088,-0.816 -1.632,-1.179c-0.545,-0.363 -2.087,-1.769 -2.631,-2.358c-0.544,-0.59 -2.086,-2.721 -2.313,-3.492c-0.226,-0.771 -0.861,-2.948 -0.634,-3.719c0.226,-0.771 0.136,-0.635 0.544,-1.179c0.408,-0.544 5.396,-17.867 5.396,-17.867c0,-0 26.271,-13.507 28.687,-10.975c3.701,3.881 6.184,9.565 6.459,9.977c0.453,0.68 1.133,2.222 1.36,3.038c0.227,0.817 0.499,2.494 0.726,3.311c0.226,0.816 0.997,3.401 1.542,4.172c0.544,0.771 1.95,3.855 1.995,5.034c0.045,1.179 0.68,5.759 0.726,6.893c0.045,1.133 0.272,11.155 0.317,11.972c0.045,0.816 0.59,3.446 0.408,4.217c-0.181,0.771 -1.134,3.311 -1.27,4.127c-0.136,0.816 -1.088,4.081 -1.995,4.807c-0.907,0.725 -0.634,26.33 -0.634,26.33l-53.097,-3.21Z" style="fill:#8b3e28;"/><path d="M19.84,142.406c-0,-0 0.163,-3.428 0.449,-4.325c0.285,-0.898 1.428,-5.55 1.55,-7.141c0.122,-1.591 -0.245,-5.998 -0.122,-7.304c0.122,-1.306 0.938,-5.916 1.591,-7.467c0.653,-1.551 2.897,-5.223 3.387,-6.447c0.489,-1.224 2.815,-5.1 3.468,-6.039c0.653,-0.938 4.08,-3.305 4.774,-3.958c0.694,-0.653 2.938,-3.346 3.673,-4.284c0.734,-0.939 3.672,-2.53 4.039,-2.816c0.367,-0.286 2.856,-2.285 3.672,-3.142c0.817,-0.857 4.489,-2.326 5.795,-2.774c1.305,-0.449 4.08,-2.489 5.019,-3.142c0.938,-0.653 5.835,-3.265 5.835,-3.265c-0,0 -0.694,1.306 -0.449,1.877c0.244,0.572 1.754,3.224 2.081,3.877c0.326,0.653 1.917,2.734 3.019,4.121c1.102,1.387 5.468,6.202 6.039,6.569c0.571,0.368 2.693,2.53 3.428,3.02c0.734,0.489 4.611,2.407 5.1,2.53c0.49,0.122 2.448,0.204 3.06,-0.164c0.613,-0.367 2.122,-1.754 2.367,-2.203c0.245,-0.449 0.775,-2.775 0.775,-3.264l0,-0.776c0,0 0.857,0.368 1.714,0.49c0.857,0.123 0.939,0.327 2.367,0.49c1.428,0.163 3.427,0.53 4.407,0.571c0.979,0.041 2.162,-0.204 2.774,-0.775c0.612,-0.572 1.74,-1.753 1.74,-1.753c0,-0 0.341,0.161 0.505,0.896c0.163,0.734 0.938,2.448 0.979,2.815c0.041,0.368 0.571,2.449 0.816,3.101c0.245,0.653 0.571,1.347 0.979,2.204c0.408,0.857 0.612,1.714 0.898,2.693c0.285,0.979 1.306,2.611 1.306,3.387c-0,0.775 1.061,4.651 0.816,5.386c-0.245,0.734 -0.653,3.958 -0.857,4.733c-0.204,0.775 -1.02,5.713 -1.102,6.61c-0.082,0.898 0.204,5.55 0.327,6.325c0.122,0.775 0.693,4.57 0.856,5.468c0.164,0.897 0.327,4.284 0.327,4.284l-87.402,-0.408Z" style="fill:#dbe19a;"/><path d="M60.283,65.693c0,0 -1.403,-0.156 -2.277,0.094c-0.873,0.249 -1.684,0.873 -1.684,0.873c-0,0 -0.936,-1.341 -1.342,-2.683c-0.405,-1.341 -1.403,-3.056 -1.933,-4.054c-0.531,-0.999 -0.843,-3.525 -0.749,-5.241c0.094,-1.715 0.156,-4.148 0.405,-5.022c0.25,-0.873 1.186,-4.024 1.529,-5.115c0.343,-1.092 0.53,-2.683 0.998,-3.275c0.468,-0.593 1.591,-1.404 1.591,-1.404c-0,-0 3.337,-2.651 4.242,-3.338c0.905,-0.686 2.683,-2.09 3.338,-2.651c0.655,-0.561 1.902,-1.404 2.526,-2.059c0.624,-0.655 1.903,-1.871 2.215,-2.152c0.312,-0.281 1.06,-1.279 1.622,-1.341c0.561,-0.063 1.84,-0.562 2.963,-0.219c1.123,0.344 0.281,0.531 1.684,0.811c1.404,0.281 3.12,0.437 3.432,0.468c0.311,0.032 0.966,0.063 2.277,0.375c1.31,0.312 2.37,0.686 2.37,0.686c0,-0 1.996,1.248 2.62,1.528c0.624,0.281 1.279,0.281 1.872,1.061c0.593,0.78 0.904,0.936 0.904,0.936c0,-0 2.184,-0.562 3.057,-0.874c0.874,-0.312 2.464,-0.343 4.554,-0.561c2.09,-0.219 4.087,-0.031 4.866,0.28c0.78,0.312 2.184,1.498 1.872,2.933c-0.312,1.434 -0.686,2.152 -0.874,2.932c-0.187,0.779 -0.998,2.401 -1.84,3.587c-0.842,1.185 -2.651,4.086 -3.369,4.679c-0.717,0.592 -0.686,0.311 -0.686,0.311c0,0 -1.653,-3.244 -3.93,-3.711c-2.277,-0.468 -3.182,-1.03 -5.646,-0.281c-2.464,0.748 -5.739,2.09 -8.141,3.681c-2.402,1.59 -8.172,6.269 -10.2,8.11c-2.027,1.84 -3.15,3.836 -5.209,6.487c-2.059,2.652 -1.872,4.399 -1.872,4.399c0,-0 -0.623,-0.156 -1.185,-0.25Z" style="fill:#7d97b2;"/><path d="M94.181,85.114c0,0 -1.885,-0.877 -2.763,-0.84c0,0 1.979,-2.856 2.689,-3.827c0.709,-0.971 2.949,-2.781 3.565,-2.968c0.616,-0.187 1.251,-0.037 1.792,-0.373c0.542,-0.336 0.953,-0.766 1.307,-0.785c0.355,-0.018 0.971,0.766 1.064,1.27c0.094,0.504 0.243,1.867 0.28,2.091c0.038,0.224 0.374,0.597 0.374,0.597c-0,0 -6.852,4.611 -8.308,4.835Z" style="fill:#130726;"/><path d="M101.675,89.961c-2.08,0.709 -3.943,-0.534 -5.085,-2.21c-1.142,-1.677 -2.34,-3.095 -2.837,-3.445c-0.497,-0.35 -1.032,-0.922 -0.94,-1.419c0.093,-0.497 0.258,-0.903 0.737,-1.05c0.479,-0.148 1.124,-0.35 1.622,-0.608c0.497,-0.258 0.829,-0.682 1.51,-0.977c0.682,-0.294 2.027,-0.626 2.451,-0.589c0.423,0.037 0.976,-0.497 1.326,-0.59c0.35,-0.092 1.29,0.479 1.769,1.051c0.479,0.571 1.105,1.584 1.289,3.113c0.184,1.529 0.516,3.906 0.184,4.532c-0.331,0.626 -0.35,1.621 -2.026,2.192Z" style="fill:#cd7b53;"/></g></g></svg>