<?xml version="1.0" encoding="UTF-8" standalone="no"?><!DOCTYPE svg PUBLIC "-//W3C//DTD SVG 1.1//EN" "http://www.w3.org/Graphics/SVG/1.1/DTD/svg11.dtd"><svg width="100%" height="100%" viewBox="0 0 150 150" version="1.1" xmlns="http://www.w3.org/2000/svg" xmlns:xlink="http://www.w3.org/1999/xlink" xml:space="preserve" xmlns:serif="http://www.serif.com/" style="fill-rule:evenodd;clip-rule:evenodd;stroke-linejoin:round;stroke-miterlimit:2;"><path id="base" d="M150,75c0,-41.394 -33.606,-75 -75,-75c-41.394,0 -75,33.606 -75,75c0,41.394 33.606,75 75,75c41.394,0 75,-33.606 75,-75Z" style="fill:#333;"/><path id="outline" d="M144,75c0,-38.082 -30.918,-69 -69,-69c-38.082,0 -69,30.918 -69,69c0,38.082 30.918,69 69,69c38.082,0 69,-30.918 69,-69Z" style="fill:#ff7600;"/><path id="core" d="M141,75c0,-36.426 -29.574,-66 -66,-66c-36.426,0 -66,29.574 -66,66c0,36.426 29.574,66 66,66c36.426,0 66,-29.574 66,-66Z" style="fill:#fff;"/><clipPath id="_clip1"><path d="M141,75c0,-36.426 -29.574,-66 -66,-66c-36.426,0 -66,29.574 -66,66c0,36.426 29.574,66 66,66c36.426,0 66,-29.574 66,-66Z"/></clipPath><g clip-path="url(#_clip1)"><g id="veorra-mia-vaile"><path d="M66.186,73.336c-0,0 -6.465,-55.102 17.707,-49.88c29.375,6.346 10.653,45.092 -17.707,49.88Z" style="fill:#fcdfd9;"/><path d="M59.721,60.531l5.282,-5.281c-0,-0 5.237,7.792 5.757,8.311c0.519,0.52 1.082,0.044 1.645,-0.216c0.563,-0.26 4.459,-2.597 5.281,-2.814c0.823,-0.216 2.511,-1.861 3.247,-2.294c0.736,-0.433 0.671,-0.658 1.025,-0.658c0.353,0 1.218,0 1.571,-0.108c0.354,-0.108 7.477,5.034 7.477,5.034l-8.474,82.793l-26.64,-1.108l3.829,-83.659Z" style="fill:#314261;"/><path d="M64.352,143.246c-0,0 -0.379,-3.519 -0.606,-4.087c0,-0 0,-3.444 0.076,-4.352c0.076,-0.909 0.038,-5.11 -0.076,-6.661c-0.113,-1.552 -1.476,-11.392 -1.589,-12.906c-0.114,-1.514 -0.038,-13.662 -0.152,-15.819c-0.113,-2.158 -2.308,-40.987 -2.308,-40.987c-0,-0 -11.24,4.011 -12.792,4.692c-1.552,0.682 -5.299,1.931 -6.358,2.877c-1.06,0.946 -2.649,3.595 -3.179,4.693c-0.53,1.097 -1.06,5.639 -1.476,7.266c-0.417,1.627 -0.644,5.601 -0.682,7.229c-0.037,1.627 -0.189,8.023 -0.264,9.65c-0.076,1.628 -0.038,6.472 -0.19,8.705c-0.151,2.233 0.227,10.37 0.19,11.164c-0.038,0.795 0.416,2.233 0.605,2.99c0.189,0.757 0.416,2.801 0.53,3.785c0.113,0.984 -0.038,2.044 0.416,3.103c0.454,1.06 0.492,1.098 0.681,2.12c0.19,1.022 0.152,1.665 0.152,2.346c-0,0.681 -1.968,11.203 -1.968,11.203l28.99,2.989Z" style="fill:#93afd6;"/><path d="M77.863,141.733c-0,-0 0.341,-3.634 0.719,-4.391c-0,0 -0.908,-5.336 -1.022,-6.85c-0.113,-1.514 -1.438,-9.915 -1.665,-11.732c-0.227,-1.817 -1.514,-6.585 -1.779,-7.91c-0.265,-1.324 -0.643,-3.141 -0.757,-4.352c-0.113,-1.211 -0.719,-4.05 -0.984,-5.185c-0.265,-1.135 -0.795,-4.693 -0.795,-5.677c0,-0.984 0.682,-3.52 0.568,-5.147c-0.113,-1.627 2.498,-9.688 2.649,-10.597c0.152,-0.908 1.931,-7.077 2.233,-7.947c0.303,-0.871 0.757,-2.99 0.757,-4.05c0,-1.06 0.152,-2.763 0.152,-2.763c-0,0 0.605,-0.719 1.324,-1.059c0.719,-0.341 5.147,-0.417 5.147,-0.417l20.021,11.089c-0,0 1.665,6.434 1.703,7.418c0.038,0.984 0.643,7.304 0.832,8.591c0.19,1.287 0.606,5.715 0.871,8.629c0.265,2.914 1.022,5.223 0.984,6.017c-0.038,0.795 0.189,1.287 0.341,2.006c0.151,0.719 0.302,2.536 0.302,3.596c0,1.059 -0.038,5.752 -0.151,7.493c-0.114,1.741 -0.681,4.996 -0.871,6.472c-0.189,1.476 -0.567,3.482 -0.946,4.125c0,-0 0.303,1.325 0.379,2.46c0.075,1.135 -0.038,6.358 -0.038,6.358l-29.974,3.823Z" style="fill:#93afd6;"/><path id="_-" serif:id=" " d="M105.82,44.269c-0.317,0.093 -0.657,0.172 -0.916,0.181c-0.664,0.023 -1.603,-0.115 -1.603,-0.115c0,0 0.229,0.733 0.413,1.947c0.016,0.107 0.029,0.215 0.04,0.322c0.318,0.746 1.067,2.876 2.227,5.158c0.352,0.693 0.588,1.342 0.743,1.922c1.692,0.986 2.078,2.489 2.078,2.489c-0.558,-0.727 -1.226,-1.219 -1.881,-1.553c0.087,0.577 0.095,1.043 0.081,1.361c0.5,0.379 0.944,0.657 1.12,0.764c0.031,0.014 0.058,0.03 0.08,0.048c-0,-0 -0.028,-0.017 -0.08,-0.048c-0.362,-0.16 -1.294,-0.044 -1.294,-0.044c0.206,0.206 0.481,1.077 0.824,1.58c0.344,0.504 0.573,1.558 0.573,1.558c-0.206,-0.802 -1.328,-0.916 -1.947,-1.054c-0.618,-0.137 -0.366,1.237 -0.137,1.718c0.229,0.481 1.328,2.198 2.336,3.252c1.007,1.053 -0.39,3.343 -0.39,3.343c0.71,0.389 0.436,1.763 0.436,1.763c0.366,0.344 1.763,2.222 1.832,3.046c0.068,0.824 -0.436,2.359 -1.352,2.794c-0.916,0.435 -0.389,0.985 -0.389,0.985c0.092,0.549 0.481,3.366 0.481,3.366c0.55,3.481 -0.687,3.481 -0.687,3.481c-0.412,0.091 -2.404,-0.985 -2.404,-0.985c-0.504,0.183 -2.268,0.847 -2.268,0.847c0,0 -0.801,0.504 -0.961,1.122c-0.161,0.619 -1.581,2.176 -1.878,2.611c-0.298,0.435 -1.557,2.519 -1.557,2.519c0.389,1.58 5.381,3.229 5.381,3.229c0,0 -2.725,-0.458 -3.801,-1.008c-1.077,-0.549 -2.199,-1.809 -2.199,-1.809c-0.412,0.733 -0.549,2.542 -0.549,2.542c-0.733,-1.03 -0.206,-3.504 -0.206,-3.504c-0.275,0.229 -0.871,0.504 -0.871,0.504c0,0 0.893,-1.671 1.26,-1.946c0.366,-0.275 0.458,-0.481 0.32,-0.641c-0.137,-0.161 -1.488,0.16 -1.786,0.526c-0.297,0.367 -0.091,0.687 -0.068,1.672c0.022,0.985 0.091,1.626 0.137,2.267c0.046,0.641 -0.137,1.145 -0.092,1.878c0.046,0.733 0.206,1.397 0.161,2.427c-0.046,1.031 -0.413,1.718 -0.481,2.153c-0.069,0.435 0.185,1.158 0.2,1.468c0.015,0.309 0.031,2.506 -0.093,3.032c-0.124,0.527 -0.866,0.913 -0.727,0.805c0.139,-0.108 0.34,-0.619 0.48,-1.114c0.139,-0.495 0.092,-2.243 -0,-2.553c-0.093,-0.309 -0.248,-0.34 -0.263,0.217c-0.016,0.557 -0.728,2.785 -0.728,2.785c0,-0 0.031,-0.681 0.078,-1.223c0.046,-0.541 0.201,-0.928 0.154,-2.135c-0.046,-1.207 -0.51,-0.727 -0.773,-1.532c-0.263,-0.804 -0.48,-0.247 -0.619,0.217c-0.139,0.464 -0.093,1.176 -0.093,1.176c0,-0 0.433,0.913 0.557,1.315c0.124,0.402 0.31,0.743 0.82,3.466c0.511,2.723 -0.541,7.086 -0.541,7.086c-0,0 0.309,-4.471 0.309,-5.152c0,-0.681 0,-1.331 -0.263,-1.965c-0.263,-0.634 -0.665,-0.542 -0.789,-0.634c-0.124,-0.093 -0.573,-0.418 -0.743,-0.557c-0.17,-0.14 -0.216,0.031 -0.603,0.557c-0.387,0.526 -0.433,1.005 -0.635,1.996c-0.201,0.99 0.248,2.645 0.681,3.558c0.433,0.913 0.418,1.021 1.733,3.42c1.315,2.398 0.628,4.296 0.468,5.025c-0.16,0.728 -1.866,2.968 -2.132,3.323c-0.267,0.356 -1.138,1.813 -1.458,2.524c-0.32,0.711 -0.977,1.368 -1.617,1.564c-0.64,0.195 -1.653,0.035 -1.653,0.035c0,0 1.138,0.889 1.386,1.12c0.249,0.231 0.925,0.498 1.102,0.889c0.178,0.391 -0.124,0.888 0,1.048c0.125,0.16 0.036,0.391 -0.089,0.249c-0.124,-0.142 -0.248,-0.409 -0.248,-0.16c-0,0.249 -0.445,0.036 -0.445,0.036c-0.266,-0.374 -0.355,-0.587 -0.355,-0.587c-0.302,-0.035 -2.311,-1.102 -2.897,-1.706c-0.587,-0.604 -0.764,-0.96 -0.96,-0.818c-0.163,0.119 -1.609,1.11 -2.076,1.43c-0.063,0.049 -0.113,0.083 -0.145,0.099l0.145,-0.099c0.441,-0.349 1.509,-1.429 1.65,-1.554c0.16,-0.142 -0.196,-0.515 -0.303,-0.746c-0.106,-0.231 -0.551,-0 -1.101,-0.018c-0.551,-0.018 -1.564,-0.711 -2.169,-1.386c-0.604,-0.676 -0.906,-2.737 -0.693,-4.053c0.213,-1.315 1.244,-4.336 1.351,-4.638c0.106,-0.302 0.888,-2.169 0.96,-2.435c0.071,-0.267 -0,-0.658 -0,-0.658c-1.013,0.48 -1.636,2.168 -1.636,2.168c-0.035,-1.51 1.493,-3.163 1.689,-3.43c0.195,-0.266 0.035,-0.639 -0.071,-1.35c-0.107,-0.711 -0.871,-1.724 -1.191,-2.346c-0.32,-0.622 -1.244,-2.275 -1.724,-3.04c-0.48,-0.764 -1.404,-2.63 -1.795,-3.945c-0.391,-1.315 -1.333,-4.745 -1.546,-5.616c-0.213,-0.871 -0.711,-3.413 -0.729,-4.319c-0.018,-0.906 0.178,-1.991 0.284,-2.541c0.107,-0.551 0.232,-2.311 0.303,-3.057c0.071,-0.747 0.231,-2.24 0.479,-3.022c0.249,-0.782 0.249,-2.221 0.267,-2.95c0.018,-0.729 0.071,-5.918 0.107,-6.576c0.018,-0.335 0.07,-3.581 0.053,-3.714c-0.02,-0.162 -0.034,-0.914 -0.028,-0.933c0.153,-0.504 0.262,-0.854 0.81,-1.752c0.548,-0.899 1.117,-1.271 1.972,-2.564c0.854,-1.292 1.073,-1.555 1.775,-2.497c0.145,-0.196 0.35,-0.444 0.584,-0.713c0.883,-0.166 2.222,-0.931 2.859,-1.374c0.722,-0.503 1.702,-2.154 2.296,-2.799c0.593,-0.645 0.993,-1.496 1.715,-2.103c0.723,-0.606 1.742,-3.108 1.935,-3.508c0.194,-0.4 0.684,-2.515 0.748,-2.902c0.065,-0.387 0.658,-1.393 0.658,-1.393c0.077,0.051 0.245,-0.09 0.464,-0.426c0.22,-0.335 0.748,-1.457 1.006,-2.218c0.258,-0.761 0.568,-2.141 0.452,-3.444c-0.116,-1.303 -0.116,-3.367 -0.503,-4.36c-0.387,-0.993 -1.393,-1.87 -2.09,-2.889c-0.696,-1.019 -1.328,-2.193 -2.618,-2.98c-1.29,-0.787 -2.193,-0.98 -3.057,-1.225c-0.864,-0.245 -3.057,-0.593 -4.128,-0.323c-1.07,0.271 -2.283,1.961 -2.631,2.322c-0.348,0.361 -2.915,2.077 -4.102,2.709c-1.186,0.632 -1.418,1.212 -1.638,2.167c-0.219,0.954 -1.715,1.986 -2.334,2.515c-0.619,0.529 -1.303,0.993 -1.367,1.767c-0.065,0.774 -1.239,4.785 -1.445,5.908c-0.05,0.272 -0.146,0.616 -0.261,0.995c0.218,0.484 0.451,1.027 0.648,1.539c0.539,1.407 1.196,2.884 1.336,4.127c0.078,0.685 0.276,1.533 0.349,2.349c0.329,1.297 0.687,2.827 0.73,3.237c0.07,0.68 0.187,1.477 -0.118,2.11c-0.206,0.429 -0.93,1.774 -1.63,2.975c0.349,1.361 0.711,2.87 0.803,3.208c0.093,0.341 0.108,1.218 0.094,2.092c0.686,1.238 1.415,2.634 1.634,3.346c0.447,1.452 1.508,4.802 1.731,5.864c0.224,1.061 0.168,3.909 -0.112,4.691c-0.279,0.781 -0.781,2.568 -1.061,3.294c-0.026,0.069 -0.056,0.171 -0.089,0.301c0.006,0.372 0.008,0.666 0.008,0.821c0,0.698 -0.007,1.62 0.022,2.372c0.028,0.751 -0.55,3.063 -0.737,3.526c-0.188,0.462 -1.33,3.511 -1.59,4.378c-0.26,0.867 0.159,1.734 0.173,3.006c0.015,1.271 0.304,2.21 0.304,2.21c-0.289,-0.317 -0.983,-1.589 -0.983,-1.589c-0.043,0.26 0.434,2.991 0.521,3.945c0.086,0.954 0.91,3.612 1.257,4.566c0.346,0.954 0.722,1.936 1.358,3.295c0.636,1.358 1.055,2.832 1.011,4.508c-0.043,1.676 -1.213,2.728 -1.878,3.581c-0.665,0.852 -2.76,3.742 -2.76,3.742c-0.029,0.463 -0.376,2.948 -0.535,3.526c-0.159,0.578 -0.216,0.752 -0.375,1.243c-0.159,0.491 -0.102,0.925 -0.145,1.257c-0.043,0.332 -0.173,0.593 -0.173,0.593c-0,-0 -0.246,-0.029 -0.362,-0.463c-0.115,-0.433 -0.216,-0.058 -0.216,-0.058c-0.176,0.258 -1.036,1.054 -1.514,1.488c-0.112,0.127 -0.221,0.227 -0.321,0.29c-0,-0 0.13,-0.116 0.321,-0.29c0.609,-0.69 1.315,-2.176 1.413,-2.774c0.115,-0.708 -0.463,-2.37 -0.839,-2.89c-0.375,-0.52 -1.011,-2.384 -1.228,-2.24c-0.217,0.145 -0.607,0.651 -0.78,0.81c-0.173,0.159 0.332,-1.272 0.246,-1.055c-0.087,0.217 -1.243,1.04 -1.547,1.185c-0.303,0.144 -2.572,1.04 -2.919,0.925c-0.346,-0.116 -1.82,-0.636 -2.413,-0.665c-0.592,-0.029 -0.505,-0.809 -0.216,-0.867c0.289,-0.058 4.479,-0.188 4.725,-0.318c0.245,-0.13 -0.737,-0.737 -0.954,-0.896c-0.217,-0.159 -1.185,-0.939 -1.185,-0.939c0,-0 -0.115,0.043 -0.361,0.39c-0.246,0.347 -0.361,-0.116 -0.231,-0.304c0.13,-0.187 0.216,-0.361 0.216,-0.361c0,0 -1.054,-0.766 -1.445,-1.098c-0.39,-0.332 -1.907,-2.124 -2.268,-2.601c-0.362,-0.477 -0.578,-1.72 -0.578,-2.442c-0,-0.723 0.245,-1.113 0.433,-1.503c0.188,-0.39 0.983,-1.474 1.113,-1.936c0.13,-0.463 0.014,-2.37 -0.101,-2.847c-0.116,-0.477 -0.188,-0.462 -0.188,-0.462c-0,-0 -0.246,0.578 -0.853,1.127c-0.607,0.549 -1.95,1.532 -2.731,2.37c-0.78,0.838 -1.373,2.326 -1.387,3.54c-0.014,1.214 0.029,2.63 0.029,2.63c-0.304,-0.723 -0.621,-3.959 -0.015,-5.405c0.607,-1.445 1.576,-2.08 2.009,-2.47c0.434,-0.391 2.457,-2.226 2.457,-2.529c-0,-0.304 -0.145,-0.39 -1.026,-0.492c-0.882,-0.101 -0.781,-0.852 -1.084,-1.589c-0.304,-0.737 -0.217,-0.708 -0.419,-1.272c-0.202,-0.563 -0.593,-1.56 -0.867,-1.979c-0.275,-0.419 -0.491,-2.052 -0.506,-2.63c-0.014,-0.578 0.838,-1.922 1.069,-2.24c0.232,-0.318 0.737,-1.069 0.737,-1.069c0,-0 -0.924,0.549 -1.315,0.794c-0.39,0.246 -0.91,0.434 -1.387,0.55c-0.477,0.115 -0.737,-0.044 -0.737,-0.044c0.231,-0.144 0.39,-0.39 0.593,-0.65c0.202,-0.26 -0.246,0.014 -0.448,-0.173c-0.203,-0.188 0.216,-0.477 1.098,-0.853c0.881,-0.376 2.254,-1.171 2.254,-1.171c0,0 0.087,-1.112 -0.101,-2.051c-0.188,-0.94 -0.549,-1.185 -0.968,-2.153c-0.419,-0.969 -0.708,-2.269 -0.752,-3.035c-0.043,-0.766 0.217,-2.558 0.217,-2.558c-0.506,-0.043 -1.344,0.318 -1.647,2.89c-0.304,2.572 0.679,3.844 0.679,3.844c-0.881,-0.65 -1.214,-2.789 -1.315,-4.349c-0.101,-1.561 0.188,-1.633 0.52,-2.544c0.333,-0.91 0.737,-0.896 0.954,-1.344c0.217,-0.447 0.347,-1.372 0.448,-1.762c0.101,-0.391 0.506,-1.33 0.116,-1.402c-0.391,-0.072 -0.911,-0.535 -1.041,-0.347c-0.13,0.188 -0.751,1.777 -0.751,1.777c-0,-0.852 0.505,-2.572 0.505,-2.572c-1.358,-0.896 -1.632,-4.812 -1.632,-5.736c-0,-0.925 0.621,-2.746 1.026,-3.873c0.404,-1.127 1.184,-2.63 0.809,-2.312c-0.376,0.318 -1.807,2.037 -2.63,3.54c-0.824,1.503 -1.026,3.974 -0.853,5.275c0.174,1.3 1.46,3.511 1.46,3.511c-0.809,-0.246 -2.572,-3.685 -2.731,-4.364c-0.159,-0.679 -0.217,-5.086 0.173,-5.881c0.39,-0.795 2.37,-3.54 2.977,-4.162c0.607,-0.621 3.15,-2.789 3.757,-3.28c0.607,-0.491 2.268,-1.864 2.948,-2.659c0.679,-0.795 2.283,-2.89 2.615,-3.656c0.332,-0.766 1.33,-6.762 1.387,-7.774c0.058,-1.011 1.301,-6.04 1.575,-7.182c0.275,-1.141 2.232,-4.895 2.608,-5.637c0.377,-0.742 2.88,-2.984 2.88,-2.984c0,0 0.311,-0.355 0.533,-0.976c0.222,-0.621 2.263,-2.174 2.263,-2.174c-0,-0 -0.133,-0.844 0.532,-1.509c0.666,-0.666 3.196,-1.11 3.196,-1.11c-0.021,-0.679 0.318,-1.175 0.959,-1.977c0.642,-0.801 2.725,-1.534 3.069,-1.717c0.343,-0.183 0.252,-0.412 1.443,-0.847c1.19,-0.436 3.274,0.389 4.03,0.687c0.331,0.13 0.881,0.427 1.458,0.744l0.497,0.274c0.577,0.318 1.127,0.615 1.457,0.745c0.756,0.298 2.702,1.328 3.183,1.649c0.481,0.32 0.573,0.297 1.787,0.389c1.213,0.092 3.87,1.603 4.694,2.702c0.825,1.099 2.565,6.527 3.275,8.954c0.71,2.428 2.061,3.939 3.572,5.794c1.512,1.855 2.954,1.855 2.954,1.855c-0.683,0.012 -1.241,-0.014 -1.729,-0.087c0.228,0.259 0.41,0.534 0.555,0.811c0.448,0.014 0.762,-0.014 0.762,-0.014c0,-0 -0.285,0.115 -0.654,0.235c0.558,1.23 0.431,2.434 0.431,2.434c-0.029,-0.823 -0.342,-1.646 -0.716,-2.346Zm-10.95,68.963c0,0 0.251,2.593 -0.46,3.408c-0.711,0.816 -2.299,3.408 -2.676,3.826c-0.376,0.418 -1.254,1.506 -2.153,1.798c-0.899,0.293 -2.405,0.084 -2.405,0.084c0,-0 0.544,-0.878 1.067,-1.401c0.522,-0.523 1.254,-1.171 1.881,-1.442c0.628,-0.272 1.506,-0.899 1.694,-1.401c0.188,-0.502 0.606,-1.652 1.338,-2.154c0.732,-0.501 1.568,-2.299 1.714,-2.718Zm-13.088,5.875c0,0 0.941,1.338 1.694,1.861c0.753,0.523 1.254,0.878 0.878,0.92c-0.376,0.042 -2.216,-0.46 -2.572,-2.781Zm6.105,-0.397c0,0 -1.505,2.572 -1.881,2.676c-0.377,0.105 -0.816,-0.251 -0.732,-0.585c0.084,-0.335 1.484,-1.882 2.613,-2.091Zm-23.646,-2.407c0,-0 1.088,2.049 0.899,2.801c-0.188,0.753 -0.92,1.234 -0.92,1.234c0,-0 -0.648,-0.544 -0.794,-0.753c-0.146,-0.209 0.669,-1.777 0.815,-3.282Zm23.04,2.114c-0,0 -1.568,0.837 -2.133,1.798c0,0 -0.543,-0.836 -0.501,-1.338c-0,0 1.819,-0.69 2.634,-0.46Zm-23.918,-1.09c0,0 -0.23,1.255 -0.397,1.422c-0.167,0.167 -0.878,-0.188 -1.066,-0.272c-0.188,-0.083 1.254,-0.941 1.463,-1.15Zm23.96,-8.422c-0,-0 0.982,-0.628 1.254,-0.837c0,0 0.816,1.819 1.004,2.614c0.188,0.794 0.188,2.78 0.167,3.387c-0.021,0.606 0.105,1.986 -0.272,2.446c-0.376,0.46 -0.334,0.564 -1.171,0.732c-0.836,0.167 -2.488,0.313 -3.115,0.606c-0.627,0.293 -0.711,0.46 -0.711,0.46c0,-0 0.419,-1.422 0.774,-2.133c0.355,-0.711 1.108,-2.216 1.296,-2.989c0.188,-0.774 1.087,-2.279 0.774,-4.286Zm-1.547,1.547c-0,-0 -2.007,2.279 -2.467,3.826c-0.46,1.547 -0.042,3.575 0.104,3.847c0,-0 0.669,-2.509 1.15,-3.596c0,-0 1.045,-2.886 1.213,-4.077Zm-27.451,5.098c-0.323,-0.293 -0.669,-0.46 -0.168,-0.962c0.502,-0.501 3.074,-1.944 3.429,-1.965c0.356,-0.021 2.07,2.425 2.028,2.781c-0.042,0.355 -1.798,2.634 -2.383,2.655c-0.586,0.021 -2.446,-2.091 -2.906,-2.509Zm15.568,-2.421c-0,0 -1.178,2.28 -1.51,2.59c-0.331,0.311 -1.22,2.002 -1.273,2.109c-0.054,0.107 0.118,0.182 0.246,0.042c0.128,-0.139 1.926,-2.525 2.076,-2.953c0.15,-0.429 0.471,-1.21 0.461,-1.788Zm-5.887,1.937c0,0 0.311,0.91 0.418,1.017c-0,0 -0.921,1.006 -0.985,1.188c-0,0 0.268,-1.67 0.567,-2.205Zm-2.05,-3.802c-0,0 -0.418,0.439 -0.669,0.565c-0,-0 0.69,2.634 -0.439,3.533c-0,0 1.045,2.028 1.066,1.798c0.021,-0.23 1.401,-2.488 1.756,-3.031c0,-0 -0.585,-1.61 -1.714,-2.865Zm3.591,4.798c0,-0 0.177,-0.461 0.382,-0.901c0.204,-0.44 0.437,-0.86 0.549,-0.78c0.225,0.161 -0.674,1.338 -0.931,1.681Zm-5.097,-3.982c0,-0 0,0.627 0.006,1.231c0.005,0.603 0.015,1.183 0.036,1.089c0.042,-0.188 0.46,-1.421 -0.042,-2.32Zm-6.92,2.069c0,0 2.237,-2.258 3.91,-2.55c-0,-0 -0.251,-2.572 -0.084,-3.053c0,0 -2.216,1.694 -3.01,2.76c-0.795,1.066 -0.816,1.756 -0.816,2.843Zm15.892,-2.593c-0,-0 0.104,0.31 0.111,0.733c0.006,0.423 -0.085,0.958 -0.475,1.407c-0,0 0.374,-0.899 0.364,-2.14Zm-9.703,1.757c-0,0 -0,-0.92 0.083,-1.129c0,0 -0.46,0.126 -0.69,0.314c0,-0 0.398,0.481 0.607,0.815Zm8.655,-3.191c-0.027,-0.069 -0.044,-0.107 -0.044,-0.107c0.024,0.096 0.045,0.207 0.065,0.328c0.016,0.172 0.034,0.384 0.05,0.608c0.039,0.548 0.065,1.17 0.013,1.463c-0,0 0.05,-0.097 0.103,-0.271c-0.014,-0.28 -0.064,-1.169 -0.166,-1.8c-0.008,-0.084 -0.015,-0.159 -0.021,-0.221Zm0.276,1.618c0.065,-0.449 0.049,-1.09 -0.297,-1.814c0,0 0.008,0.074 0.021,0.196c0.047,0.124 0.124,0.345 0.186,0.619c0.066,0.292 0.114,0.644 0.09,0.999c-0.023,0.16 -0.056,0.296 -0.089,0.403c0.003,0.056 0.004,0.087 0.004,0.087c0.048,-0.16 0.074,-0.325 0.085,-0.49Zm-10.039,-1.793c-0,0 -0.042,0.878 0.041,1.255c0,-0 0.439,-0.147 0.753,-0.126c0,0 -0.627,-0.92 -0.794,-1.129Zm2.488,0.92l-0.377,0.021c0,-0 -1.568,-2.049 -2.07,-2.572c0,0 0.063,-0.23 0.335,-0.209c-0,0 1.526,1.359 2.112,2.76Zm5.268,-3.931c0,0 -0.063,2.217 0,2.509c0.063,0.293 0.376,0.732 0.376,0.732c0,0 0.168,-0.418 0.168,-0.92c-0,-0.502 -0.377,-1.986 -0.544,-2.321Zm15.137,0.526c-0,0 -1.066,1.422 -1.296,2.321c-0,-0 1.024,-1.171 1.38,-1.61c-0,-0 0.041,-0.481 -0.084,-0.711Zm-0.251,-0.439c0,0 -1.045,0.92 -1.066,1.234c-0.021,0.313 0.042,0.522 0.042,0.522c-0,0 1.463,-1.672 1.024,-1.756Zm-15.806,1.628c0,-0 -0.46,-5.478 -1.547,-6.586c0,0 -0.523,1.234 -0.669,2.446c0,0 1.861,2.969 2.216,4.14Zm-4.077,-1.945c0,0 0.481,0.92 0.628,1.171c-0,0 -0.042,0.502 -0.021,0.774c-0,-0 -0.753,-0.669 -1.004,-0.816c0,0 0.293,-0.71 0.397,-1.129Zm2.635,1.38c-0,0 -0.058,-0.209 -0.144,-0.447c-0.086,-0.237 -0.201,-0.504 -0.316,-0.619c-0,0 -0.795,0.335 0.46,1.066Zm9.847,-19.318c-0,0 1.422,1.735 2.551,2.404c-0,0 0.627,6.44 0.899,7.423c0.271,0.982 1.965,5.059 2.592,5.874c0.627,0.816 1.045,1.631 1.108,1.966c0,-0 -0.439,0.731 -0.732,1.087c0,-0 -0.355,-1.715 -0.815,-2.3c-0.46,-0.585 -1.84,-2.572 -2.279,-3.491c-0.439,-0.92 -1.15,-2.01 -1.672,-3.997c-0.523,-1.986 -1.736,-7.568 -1.652,-8.966Zm-17.919,8.684c0,0 0.091,1.295 0.292,2.134c0.201,0.839 0.401,2.353 0.383,3.046c-0.018,0.693 -0.036,1.532 -0.036,1.532c-0,0 -0.329,-0.237 -0.566,-0.383c0,0 0.31,-1.167 -0.073,-1.605c-0.383,-0.438 -0.693,-0.967 -0.675,-1.423c0.019,-0.455 0.292,-2.608 0.675,-3.301Zm-4.103,-1.988c-0,0 -0.037,2.025 0.073,3.01c0.109,0.985 0.091,3.228 0.145,3.52c0,-0 -0.857,-1.35 -1.221,-2.535c-0.365,-1.186 -0.621,-2.773 -0.11,-3.229c0.511,-0.456 0.93,-0.474 1.113,-0.766Zm26.998,-2.721c-0,0 1.421,0.69 1.777,1.046c-0,-0 1.15,2.906 0.418,5.498c0,0 -0.355,1.715 -0.585,2.258c-0,0 -1.067,-2.906 -1.15,-3.993c-0.084,-1.087 -0.565,-3.784 -0.46,-4.809Zm-19.092,5.316c0.065,-0.189 0.079,-1.003 0.009,-1.026c-0.082,-0.027 -0.285,0.759 -0.298,0.892c-0.042,0.419 -0.09,0.834 -0.09,0.834c0.117,-0.131 0.302,-0.393 0.379,-0.7Zm-1.195,-2.668c0,0 -0.032,0.279 -0.041,0.595c-0.009,0.317 0.005,0.673 0.096,0.828c-0,0 0.201,-0.894 -0.055,-1.423Zm-4.541,-8.097c-0,-0 -0.529,1.951 -0.602,2.735c0,0 0.93,-1.823 1.131,-2.079c0.201,-0.255 -0.292,-0.346 -0.529,-0.656Zm0.875,-1.934c0,0 -0.437,0.821 -0.437,1.241c-0,0.419 0.364,0.766 0.364,0.766c0,-0 0.146,-0.511 0.219,-0.858c0.073,-0.346 0.164,-0.784 -0.146,-1.149Zm49.59,-3.747c0,0 -0.748,0.155 -1.128,0.06c0,-0 0.475,0.486 0.772,0.463c0.297,-0.024 0.32,-0.297 0.356,-0.523Zm-1.104,-0.498c0,-0 0.605,-0.487 0.748,-0.736c0.142,-0.25 0.166,-0.072 0.166,0.083c0,0.154 0.024,0.653 -0.237,0.676c-0.261,0.024 -0.475,-0.023 -0.677,-0.023Zm-55.799,-11.239c-0,0 -0.42,3.484 0.401,5.271c0,0 0.857,-0.511 0.985,-0.985c0.128,-0.474 0.128,-0.693 -0.091,-1.477c-0.219,-0.784 -1.131,-2.462 -1.295,-2.809Zm56.725,0.277c0,0 1.243,1.782 1.102,2.65c-0.141,0.867 -0.985,1.899 -1.266,1.946c-0.281,0.047 -1.336,-2.298 -1.454,-2.556c0,0 1.501,-0.797 1.618,-2.04Zm-1.242,-1.125c-0,0 0.562,0.352 0.679,0.586c0.118,0.235 0,0.985 -0.351,1.266c-0.352,0.282 -0.563,0.727 -0.891,0.657c-0.328,-0.071 -0.821,-0.657 -0.727,-0.915c0.094,-0.258 1.219,-1.102 1.29,-1.594Zm-35.744,-16.041c-0.034,0.268 -0.098,0.521 -0.205,0.748c-0.322,0.686 -0.994,1.763 -2.116,2.81c0.248,0.61 0.509,1.168 0.629,1.368c0.101,0.168 0.334,0.998 0.586,1.969c0.848,-1.439 1.476,-2.815 1.628,-3.474c0.119,-0.517 -0.212,-2.124 -0.522,-3.421Zm33.91,1.051c0.12,0.245 0.247,0.458 0.38,0.625c0.234,0.292 0.518,0.574 0.812,0.831c0.024,-0.342 -0.051,-0.713 -0.181,-1.176c-0.365,-0.133 -0.711,-0.221 -1.011,-0.28Zm-1.176,-3.881c0.165,0.745 0.421,1.854 0.752,2.827c0.418,0.079 0.795,0.187 1.133,0.317c-0.062,-0.211 -0.128,-0.438 -0.194,-0.684c-0.126,-0.464 -0.413,-1.151 -0.758,-1.895c-0.265,-0.174 -0.603,-0.375 -0.933,-0.565Zm-0.244,-1.806c-0.002,0.421 0.009,0.795 0.083,1.091c0.01,0.04 0.021,0.087 0.033,0.141c0.34,0.313 0.688,0.653 0.96,0.924c-0.345,-0.732 -0.736,-1.503 -1.076,-2.156Zm1.277,-5.27c-0.294,-0.064 -0.565,-0.149 -0.828,-0.257c-0.778,-0.321 -1.946,-1.397 -1.946,-1.397c0.183,0.939 1.351,1.9 1.351,1.9c0.546,0.407 1.341,0.561 1.99,0.613c-0.051,-0.088 -0.103,-0.173 -0.155,-0.255c-0.142,-0.224 -0.283,-0.428 -0.412,-0.604Z" style="fill:#e1d2d5;"/></g></g></svg>