<?xml version="1.0" encoding="UTF-8" standalone="no"?><!DOCTYPE svg PUBLIC "-//W3C//DTD SVG 1.1//EN" "http://www.w3.org/Graphics/SVG/1.1/DTD/svg11.dtd"><svg width="100%" height="100%" viewBox="0 0 150 150" version="1.1" xmlns="http://www.w3.org/2000/svg" xmlns:xlink="http://www.w3.org/1999/xlink" xml:space="preserve" xmlns:serif="http://www.serif.com/" style="fill-rule:evenodd;clip-rule:evenodd;stroke-linejoin:round;stroke-miterlimit:2;"><path id="base" d="M150,75c0,-41.394 -33.606,-75 -75,-75c-41.394,0 -75,33.606 -75,75c0,41.394 33.606,75 75,75c41.394,0 75,-33.606 75,-75Z" style="fill:#333;"/><path id="outline" d="M144,75c0,-38.082 -30.918,-69 -69,-69c-38.082,0 -69,30.918 -69,69c0,38.082 30.918,69 69,69c38.082,0 69,-30.918 69,-69Z" style="fill:#ff7600;"/><path id="core" d="M141,75c0,-36.426 -29.574,-66 -66,-66c-36.426,0 -66,29.574 -66,66c0,36.426 29.574,66 66,66c36.426,0 66,-29.574 66,-66Z" style="fill:#fff;"/><clipPath id="_clip1"><path d="M141,75c0,-36.426 -29.574,-66 -66,-66c-36.426,0 -66,29.574 -66,66c0,36.426 29.574,66 66,66c36.426,0 66,-29.574 66,-66Z"/></clipPath><g clip-path="url(#_clip1)"><g id="yolandi"><path d="M41.973,50.611c0,-0 -4.626,6.885 -4.787,8.284c-0.162,1.398 0.645,6.078 0.968,6.885c0.323,0.807 1.99,5.487 2.528,6.079c0.538,0.592 1.453,4.518 1.022,6.025c-0.43,1.506 -1.721,5.002 -1.237,5.648c0.484,0.645 3.326,1.569 4.088,2.528c0.677,0.852 0.269,2.582 0.484,3.228c0.216,0.645 2.206,1.345 2.636,1.614c0.431,0.268 0.054,0.161 -0.107,1.183c-0.162,1.022 -0.162,1.829 0.699,2.205c0.861,0.377 2.528,-0.215 3.066,0.807c0.538,1.022 2.044,4.035 3.228,4.304c1.183,0.269 5.271,-0.7 6.455,-1.291c1.183,-0.592 3.981,-2.26 5.056,-1.237c1.076,1.022 2.636,3.496 3.443,4.787c0.807,1.291 1.632,3.723 0.621,3.817c-1.346,0.126 -9.95,13.869 -9.668,14.125l-12.857,13.057l3.507,6.818l56.913,-3.605l0.215,-15.438c0,-0 -0.323,-3.174 -2.313,-6.832c-1.99,-3.658 -11.081,-18.774 -12.964,-23.292c-1.883,-4.519 -23.669,-40.668 -23.669,-40.668l-27.327,0.969Z" style="fill:#ffd7be;"/><path d="M70.619,104.258c0,0 0.266,0.796 0.123,1.062c-0.143,0.265 -2.082,1.714 -2.327,2.305c-0.244,0.592 -1.55,3.123 -1.693,4.102c-0.143,0.98 -0.776,2.939 -1.245,3.694c-0.469,0.755 -4.775,4.591 -5.714,5.387c-0.939,0.796 -7.224,7.061 -7.673,7.979c-0.449,0.918 -2.142,5.306 -2.02,6.897c0,0 1.02,-0.816 1.429,-1.326c0.408,-0.51 3.244,-3.408 4.326,-4.041c1.081,-0.632 5.224,-2.612 6.122,-3.04c0.897,-0.429 5.203,-2.612 6.203,-3.306c1,-0.694 5.081,-3.081 6.204,-3.714c1.122,-0.633 4.285,-2.571 4.979,-3.122c0.694,-0.551 4.693,-3.143 5.244,-3.428c0.551,-0.286 2.592,-1.653 3.408,-1.919c0.816,-0.265 3.102,-0.53 5.04,-0.04c1.939,0.489 1.837,0.489 3.735,1.142c1.898,0.653 1.938,0.776 3.857,1.327c1.918,0.551 2.938,1.408 4.305,2.061c1.368,0.653 2.918,2.285 3.592,2.897c0.673,0.613 1.469,1.776 1.694,3.163c0.224,1.388 0.367,2.592 0.51,3.857c0.143,1.265 0.551,3.469 0.653,4.163c0.102,0.694 0.653,3.571 0.694,4.755c0.04,1.183 0.775,4.999 0.775,6.081c-0,1.081 -66.123,10.161 -66.123,10.161l-2.623,-9.707c0,-0 -0.319,-0.516 -0.172,-1.302c0.148,-0.786 0.369,-0.958 0.442,-1.671c0.074,-0.712 0.05,-1.302 0.32,-1.989c0.27,-0.688 0.466,-1.057 0.712,-1.597c0.246,-0.541 0.712,-1.474 1.081,-1.867c0.368,-0.393 1.277,-1.572 1.842,-2.088c0.565,-0.516 1.843,-1.646 2.334,-2.383c0.491,-0.737 2.751,-3.39 3.193,-4.004c0.443,-0.614 3.513,-3.734 4.054,-4.471c0.54,-0.737 3.561,-3.783 4.028,-4.397c0.467,-0.614 2.26,-2.923 2.702,-3.93c0.442,-1.007 1.425,-2.309 1.916,-2.972c0.492,-0.664 2.039,-2.752 2.26,-3.12c0.221,-0.369 1.366,-1.797 1.813,-1.599Z" style="fill:#07050f;"/><path d="M114.789,31.653c0.957,0.096 2.459,0.226 3.02,0.44c0.432,0.165 2.342,0.304 4.06,0.382c1.834,0.024 3.239,0.048 2.683,0.063c-0.479,0.014 -1.538,-0.011 -2.683,-0.063c-2.116,-0.027 -4.804,-0.055 -5.702,-0.074c-1.677,-0.034 -5.169,0.172 -6.024,0.24c-0.856,0.069 -1.848,-0.103 -2.464,0.479c-0.617,0.582 -0.377,1.403 -1.198,1.472c-0.822,0.068 -1.814,-0.411 -1.369,-0.034c0.445,0.376 1.985,1.095 2.259,1.574c0.273,0.479 0.308,1.095 0.855,1.643c0.548,0.548 1.438,1.129 1.985,1.609c0.548,0.479 0.787,0.855 1.883,1.061c1.095,0.205 2.156,0.273 3.012,0.308c0.855,0.034 2.498,-0.206 3.628,-0.308c1.129,-0.103 4.928,-0.172 5.647,-0.103c-0,-0 -5.066,0.445 -6.366,0.719c-1.301,0.273 -2.362,1.061 -2.362,1.061c0,-0 1.301,0.445 2.533,0.171c1.232,-0.274 3.559,-1.369 5.442,-0.582c-0,-0 -3.252,-0.068 -4.415,0.821c-0,0 0.855,0.377 2.156,1.061c1.301,0.685 3.08,2.499 3.217,2.841c0,0 -3.936,-2.909 -6.811,-3.32c-2.875,-0.41 -4.655,-0.479 -4.655,-0.479c0,0 -0.735,0.061 -1.78,0.152c2.215,0.87 4.334,1.745 4.69,2.039c0.787,0.65 2.293,2.224 2.293,2.224c-0,0 -1.472,-1.027 -1.917,-1.232c-0.445,-0.205 0.924,0.958 1.472,1.574c0.548,0.617 5.168,4.895 5.168,4.895l-4.21,-3.286c0,0 1.267,2.362 1.575,3.252c0.308,0.889 -2.259,-3.081 -2.567,-3.526c-0.308,-0.445 -1.267,-1.471 -1.917,-1.916c-0.65,-0.445 -1.335,-0.856 -1.814,-1.061c-0.479,-0.206 0.342,1.403 1.198,2.156c0.856,0.753 1.335,1.095 1.917,1.882c0.581,0.788 1.369,1.335 1.814,1.746c0.445,0.411 1.266,0.787 1.54,1.3c0.274,0.514 1.574,4.039 1.574,4.039c0,0 -1.027,-1.54 -1.608,-1.985c-0.582,-0.445 -0.719,-0.616 -1.13,-1.232c-0.411,-0.616 -0.958,-1.198 -1.609,-1.951c-0.65,-0.753 -1.505,-1.917 -1.505,-1.917c-0,0 -0.651,-0.445 -1.096,-0.855c-0.445,-0.411 -1.232,-1.232 -1.232,-1.232c0,-0 1.54,2.019 1.917,2.703c0.376,0.685 1.232,1.917 1.814,2.841c0.582,0.924 1.574,2.944 1.916,3.594c0.343,0.65 1.438,2.875 1.438,2.875c-0,-0 -6.366,-10.918 -7.941,-12.082c0,0 -2.806,-3.423 -4.38,-3.731c-0,0 2.293,2.465 3.251,4.347c0.958,1.883 1.54,2.464 1.78,3.115c0.239,0.65 0.102,0.205 0.684,1.711c0.582,1.506 1.677,4.004 1.849,4.86c-0,0 0.171,0.479 0.752,0.993c0.582,0.513 1.849,1.3 3.081,2.19c1.232,0.89 8.556,5.202 8.556,5.202c0,0 -8.727,-4.141 -11.568,-6.776c-0,-0 0.068,2.053 0.548,3.491c0.479,1.437 1.54,4.894 1.54,4.894c-0,0 -1.917,-2.43 -2.807,-7.803c0,-0 -0.008,-0.15 -0.057,-0.366c-0.006,-0.004 -4.769,-2.92 -5.659,-3.399c-0.889,-0.479 -0.547,0.034 -0.342,0.479c0.206,0.445 0.069,0.068 0.103,0.787c0.034,0.719 2.327,4.621 2.327,4.621c0,-0 -2.704,-4.176 -3.217,-4.963c-0.513,-0.787 -1.061,-1.814 -1.677,-2.328c-0.616,-0.513 -0.856,-1.163 -2.259,-1.985c-1.403,-0.821 -1.095,-1.061 -2.396,-0.102c-0.095,0.07 -0.179,0.14 -0.252,0.211c0.229,0.631 0.462,1.298 0.684,1.953c0.146,0.018 0.311,0.037 0.487,0.058c1.273,-0.157 2.572,-0.032 2.572,-0.032c0,0 -0.344,0.111 -0.793,0.232c0.347,0.039 0.609,0.067 0.691,0.076c0.28,0.031 -1.824,0.261 -2.667,0.535c0.339,1.035 0.628,1.982 0.798,2.637c0.488,1.875 0.525,2.25 0.75,4.05c0.151,1.207 0.251,1.824 0.357,2.72c0.237,0.119 0.473,0.264 0.625,0.429c0.339,0.367 1.564,3.394 1.981,4.438c0.162,0.144 0.587,0.526 0.859,0.798c0.343,0.342 1.061,1.575 1.301,2.054c0.24,0.479 -0.616,0.821 -0.924,0.513c-0.308,-0.308 -0.445,-1.027 -0.753,-1.745c-0.308,-0.719 -1.061,-0.548 -0.685,-0.035c0.377,0.514 0.753,2.43 1.198,3.218c0.445,0.787 2.43,3.422 2.944,4.073c0.513,0.65 3.867,6.742 3.867,6.742c0,0 -1.882,-2.772 -2.293,-3.525c-0.411,-0.753 -2.464,-3.662 -2.464,-3.662c0.274,0.445 1.3,3.183 1.3,3.183c0,-0 -2.122,-3.526 -2.498,-4.279c-0.377,-0.753 -1.506,-2.087 -1.506,-2.087c0.342,0.684 0.137,5.681 0.137,5.681c-0,0 -0.342,-3.046 -0.582,-4.689c-0.212,-1.457 -0.829,-2.134 -1.515,-2.937c0.036,0.133 0.074,0.254 0.114,0.36c0.487,1.313 0.637,2.513 0.862,4.088c0.225,1.575 0.075,1.387 0,2.962c-0.02,0.424 -0.021,0.771 -0.016,1.069c0.608,1.086 1.446,2.618 1.719,3.288c0.445,1.096 0.855,2.054 1.711,2.602c0.856,0.547 2.841,1.198 3.936,1.061c1.095,-0.137 4.005,-1.438 4.005,-1.438c-0,0 -2.567,1.746 -4.039,1.78c-1.382,0.032 -1.919,-0.207 -1.979,-0.237l-0.003,-0.001c0.067,0.034 1.097,0.557 1.263,0.888c0.171,0.343 -1.437,-0.684 -2.396,-0.89c0,0 1.335,1.096 2.122,1.883c0.787,0.787 2.054,2.601 2.054,2.601c-0,-0 -1.301,-1.711 -2.567,-2.533c-1.266,-0.821 -1.917,-1.54 -1.917,-1.54l2.909,7.188l-3.422,-7.051c-0,-0 -0.616,-1.403 -1.095,-1.746c-0.38,-0.271 -0.996,-0.95 -1.763,-1.544c0.163,1.16 0.254,2.635 0.453,3.658c0.222,1.138 0.043,0.997 -0.266,2.431c0.041,0.408 0.106,0.854 0.207,1.171c0.239,0.753 0.41,2.191 0.924,3.32c0.513,1.13 0.89,0.685 1.471,3.183c0.582,2.499 0.856,6.537 0.856,6.537c0,0 -0.513,-3.867 -1.335,-5.955c-0.821,-2.088 -1.266,-3.012 -1.266,-3.012c-0,0 0.719,3.08 0.992,4.039c0.274,0.958 0.514,2.43 0.616,2.909c0.103,0.479 -0.684,-2.396 -1.848,-3.902c-0.333,-0.431 -0.352,-0.287 -0.204,0.188c0.182,0.228 0.366,0.484 0.547,0.771c0.464,0.735 0.797,2.138 1.035,3.686c0.17,0.567 0.295,1.084 0.334,1.482c0.069,0.718 0.084,1.51 0.073,2.244c0.133,1.768 0.166,3.129 0.166,3.129c0,0 -0.084,-0.79 -0.21,-1.851c-0.042,0.811 -0.098,1.372 -0.098,1.372c0,0 0.034,-5.305 -1.266,-7.461c-0.471,-0.781 -0.857,-1.405 -1.158,-1.883c-0.075,0.43 -0.132,0.843 -0.132,1.215c-0,1.312 0.487,2.475 1.012,3.637c0.525,1.163 0.45,1.238 0.638,2.663c0.187,1.425 0.15,2.362 0.262,3.525c0.113,1.162 1.049,5.347 1.162,6.247c0.112,0.9 -0.038,3.6 -0.188,4.388c-0.15,0.787 -0.6,1.762 -0.487,0.75c0.112,-1.013 -0.303,-3.498 -0.303,-3.498c0,0 -0.56,3.76 -0.635,3.01c-0.075,-0.75 -0.038,-1.687 -0.038,-2.437c0,-0.75 -0.225,-0.825 -0.562,-1.425c-0.338,-0.6 -0.997,-2.41 -0.997,-2.41c-0,0 0.499,1.787 0.274,1.337c-0.225,-0.45 -0.525,-0.712 -0.9,-0.487c-0.375,0.225 -1.094,1.692 -1.094,1.692c-0,-0 -0.031,-1.692 0.419,-2.067c0.45,-0.375 -0.15,-0.6 -1.387,-1.725c-1.238,-1.125 -2.802,-3.069 -1.864,-1.569c0.936,1.498 0.417,2.662 0.416,2.667c0.799,1.011 1.935,2.239 1.935,2.239c0,0 -1.912,-1.237 -3.375,-2.812c-1.462,-1.575 -1.826,-2.356 -2.501,-3.406c-0.675,-1.05 -1.388,-2.025 -1.088,-0.45c0.3,1.575 2.877,4.418 2.877,4.418c-0,0 -1.913,-1.237 -2.288,-1.687c-0.375,-0.45 -3.739,-6.6 -4.489,-7.838c-0.75,-1.237 -1.237,-2.137 -1.237,-2.137c-0,-0 -0.263,0.75 -0.263,1.312c0,0.563 -0.337,1.538 -0.337,1.538c-0,-0 -0.3,-0.938 -0.263,-1.65c0.038,-0.713 0.188,-1.913 -0.15,-2.588c-0.337,-0.675 -3.225,-4.237 -3.225,-4.237l-0.15,2.212l-0.187,-2.287c-0,-0 -0.338,0.112 -0.375,0.487c-0.038,0.375 -0.863,0.488 -0.638,-0.112c0.225,-0.6 -0.037,-2.55 -0.037,-2.55l-1.771,2.129c-0.065,0.935 -0.104,1.808 -0.104,1.808c-0,0 -0.338,-1.087 -0.413,-1.5c-0.075,-0.412 0.225,-3.562 0.225,-3.562c0,-0 -1.012,5.362 -1.087,6.337c-0.075,0.975 0.3,4.613 0.3,4.613c-0,-0 -0.675,-1.2 -0.863,-2.55c-0.187,-1.35 0.525,-8.813 0.675,-9.675c0.15,-0.863 0.15,-5.101 0.15,-5.101c0,0 -0.675,2.363 -0.862,3.225c-0.188,0.863 -0.45,4.951 -0.45,4.951l-0.6,8.437l0.075,-8.662c-0.188,0.45 -1.388,4.012 -1.65,4.875c-0.263,0.862 -0.488,9.15 -0.713,8.512c-0.225,-0.637 0.113,-8.7 0.263,-9.187c0.15,-0.488 0.562,-4.913 0.712,-5.588c0.15,-0.675 0.563,-3.9 0.563,-3.9c-0,-0 -2.288,2.438 -2.588,2.738c-0.3,0.3 -3.412,2.737 -3.825,3c-0.412,0.262 -3.3,2.437 -4.237,3.112c-0.938,0.675 -1.913,1.65 -1.913,1.65c0,0 0.863,-1.162 1.35,-1.725c0.488,-0.562 0.975,-1.012 0.975,-1.012l-3.9,1.987c-0,0 5.55,-3.75 9.338,-5.925c3.787,-2.175 4.875,-6.15 5.212,-7.238c0.338,-1.087 -0.3,-1.687 -0.75,-2.925c-0.45,-1.237 -1.162,-4.237 -1.65,-5.625c-0.487,-1.387 -1.312,-6.487 -1.425,-7.575c-0.112,-1.087 -2.137,-9.413 -2.775,-10.65c-0.637,-1.238 -2.737,-2.85 -3.3,-3.225c-0.562,-0.375 -2.55,-0.113 -2.887,-0.188c-0.338,-0.075 -2.401,-1.237 -3.188,-1.762c-0.788,-0.525 -7.988,-1.988 -9,-2.025c-1.013,-0.038 -7.613,-0.3 -8.775,-0.263c-1.163,0.038 -7.313,1.088 -8.175,1.125c-0.863,0.038 -5.28,0.96 -5.251,0.375c0.038,-0.75 0.263,-3.187 0.413,-4.2c0.15,-1.012 2.325,-5.4 2.888,-6.337c0.562,-0.938 5.175,-5.513 6.112,-6.338c0.938,-0.825 4.763,-3.9 5.288,-4.387c0.525,-0.488 1.537,-0.975 2.437,-1.651c0.9,-0.675 1.988,-1.875 2.813,-2.4c0.825,-0.525 0.6,-2.062 1.65,-2.737c1.05,-0.675 3.525,0.262 3.525,0.262c-0,0 0.337,-3.825 1.162,-4.275c0.825,-0.45 3.263,1.313 3.413,0.938c0.15,-0.375 0.787,-1.088 1.275,-1.725c0.487,-0.638 1.125,-0.488 2.175,-1.688c0.669,-0.764 0.805,-0.646 0.797,-0.285c0.6,-0.823 1.249,-1.782 1.249,-1.782c-1.369,-0.205 -4.484,1.575 -3.663,0.822c0.822,-0.753 3.8,-1.301 5.374,-1.609c0.465,-0.091 0.94,-0.122 1.377,-0.121c1.072,-0.547 5.582,-1.626 6.491,-1.525c1.013,0.113 1.05,0.413 2.288,0.563c0.754,0.091 1.452,0.043 2.018,-0.05c0.504,-1.128 1.574,-3.54 1.756,-4.138c0.24,-0.787 0.89,-2.19 1.301,-2.704c0.41,-0.513 1.163,-1.129 1.642,-1.335c0,0 -2.122,2.294 -2.532,3.868c-0.411,1.574 -1.198,2.635 -1.335,3.799c-0.009,0.074 -0.021,0.142 -0.035,0.206c0.799,-0.989 2.174,-2.4 2.67,-3.218c0.685,-1.129 8.215,-7.29 8.215,-7.29c-0,0 -5.511,5.476 -6.469,6.469c-0.715,0.74 -2.494,3.343 -3.354,4.621c0.043,0.04 0.087,0.081 0.13,0.124c1.427,-0.084 2.992,-0.227 3.84,-0.467c1.814,-0.513 8.625,-2.567 10.473,-2.567c1.848,0 7.119,0.924 7.632,0.924c0.514,0 2.431,0.24 2.431,0.24c-0,-0 -1.986,0.308 -2.465,0.274c0,-0 1.095,0.273 1.472,0.479c0.376,0.205 1.711,-0.342 2.293,-0.514c0.582,-0.171 2.259,-0.479 2.636,-0.479c-0,0 -2.396,0.719 -2.807,0.924c-0.411,0.206 -1.164,0.582 -1.164,0.582c0,0 1.369,0.856 2.157,1.267c0.787,0.41 8.043,5.921 8.282,6.229c0,-0 -7.666,-4.997 -8.556,-5.34c-0.89,-0.342 -1.5,-1.348 -2.328,-1.369c-1.804,-0.045 -1.807,-0.715 -2.599,-1.092c-0.526,-0.25 -0.789,-0.482 -2.945,-0.516c-2.157,-0.034 -4.552,0.376 -6.195,0.992c-1.643,0.616 -2.807,1.335 -2.807,1.335c0,0 1.335,0.137 2.122,-0.103c0.787,-0.239 1.335,-0.273 2.601,-0.479c1.267,-0.205 2.225,-0.342 2.841,-0.308c0.616,0.034 2.02,0.582 2.567,0.787c0.548,0.206 1.506,0.308 2.67,0.582c1.164,0.274 7.666,2.67 9.857,4.484c2.19,1.814 5.579,5.442 6.263,6.503c0,-0 -4.962,-5.203 -6.092,-5.75c-1.129,-0.548 -4.21,-2.191 -5.476,-2.636c-1.266,-0.444 -4.586,-2.258 -6.298,-2.43c-1.711,-0.171 -7.221,0.582 -7.221,0.582c-0,0 2.943,0.24 4.072,0.24c1.13,-0 4.724,0.308 5.511,0.547c0.787,0.24 3.559,1.712 3.559,1.712c0,-0 -5.065,-1.472 -5.886,-1.506c-0.822,-0.034 -3.834,-0.582 -6.093,-0.206c-2.259,0.377 -4.518,1.301 -5.442,1.814c-0.634,0.353 -2.173,1.851 -3.241,3.077c1.204,-0.354 2.429,-0.86 3.481,-1.297c1.814,-0.753 7.187,-1.3 10.336,-1.3c3.149,-0 5.374,1.163 8.214,1.882c2.841,0.719 5.579,1.198 5.579,1.198c-1.403,0.171 -5.818,-0.719 -6.845,-1.061c-1.027,-0.342 -4.456,-1.235 -5.882,-1.509c-1.808,-0.348 -6.85,0.14 -7.5,0.277c-0.651,0.137 -0.479,0.513 0.513,0.582c0.993,0.068 5.202,0.479 4.621,0.616c-0.582,0.137 -4.381,0.308 -5.613,0.376c-1.233,0.069 -2.225,0.89 -2.944,1.746c-0.105,0.125 -0.38,0.293 -0.772,0.488c0.718,0.189 1.482,0.347 2.175,0.402c2.157,0.171 5.511,0.068 6.982,-0.103c1.472,-0.171 4.279,-0.958 5.579,-0.958c1.301,-0 5.476,0.821 6.127,0.924c-0,-0 -4.313,-0.514 -6.092,-0.274c-1.78,0.239 -6.743,0.547 -7.667,1.54c-0,0 2.841,0.205 3.867,0.377c1.027,0.171 2.225,0.718 3.115,0.273c0.89,-0.445 0.856,-0.787 1.643,-0.924c0.787,-0.137 2.753,0.268 2.793,0.358c-0.9,0.101 -2.555,0.338 -2.961,0.956c-0,0 1.609,0.088 3.445,0.094Zm-10.824,86.184c-0.004,-0.008 -0.493,-1.657 -1.466,-3.228c-0.975,-1.575 -1.65,-2.213 -1.65,-2.213c-0,0 2.089,4.081 2.876,5.131l0.24,0.31Zm-16.375,-21.414c-0.231,0.382 -0.805,1.361 -0.954,1.867c-0.067,0.227 -0.129,0.792 -0.181,1.426l-0.005,0.062c0.322,-0.181 0.952,-1.306 1.419,-2.343c-0.08,-0.295 -0.167,-0.651 -0.258,-1.047l-0.021,0.035Zm20.233,-13.088c-0.013,0.155 -0.036,0.311 -0.074,0.479c-0.187,0.825 0.113,0.3 0.413,1.463c0.018,0.071 0.036,0.147 0.053,0.225c0.749,0.472 1.449,0.977 1.449,0.977l-1.841,-3.144Zm-1.865,-17.093c0.021,0.212 0.043,0.443 0.066,0.697c0.018,0.198 0.037,0.41 0.056,0.632c0.023,0.014 0.043,0.03 0.058,0.049c0.308,0.377 0.788,0.89 1.13,1.301c0.266,0.319 0.803,0.868 1.027,1.095c-0.42,-0.702 -1.152,-1.93 -1.438,-2.43c-0.178,-0.312 -0.543,-0.843 -0.899,-1.344Zm10.391,-6.483c-0.054,-0.235 -0.158,-0.547 -0.354,-0.832c-0.376,-0.548 -5.681,-3.834 -6.434,-4.381c-0,-0 4.176,3.149 4.655,3.559c0.478,0.411 2.129,1.651 2.133,1.654Zm-0.744,-1.885c-0,0 -0.478,-1.992 -1.408,-2.364c-0.93,-0.372 -3.268,-0.93 -3.268,-0.93c-0,-0 3.959,2.975 4.676,3.294Zm-2.657,-6.084c0,0 -1.275,0.292 -1.621,0.478c0,0 2.498,1.834 2.817,2.126c0.318,0.292 -0.691,-1.94 -1.196,-2.604Zm-4.091,-4.357l0.505,-0.611c-0,0 1.275,1.275 1.62,1.86c0.345,0.584 1.78,2.55 1.78,2.577c0,0.026 -0.637,0.292 -1.727,0.212c-1.089,-0.079 -0.584,-0.85 -0.876,-1.487c-0.293,-0.638 -0.797,-2.126 -1.037,-2.312c-0.239,-0.186 -0.265,-0.239 -0.265,-0.239Zm-1.435,2.577l1.461,1.063c0,-0 -0.717,0.186 -0.983,-0.133c-0.265,-0.319 -0.451,-0.452 -0.478,-0.93Zm-0.505,-1.541c0,0 0.877,0 1.196,0.372c0.319,0.372 1.009,1.647 1.009,1.647c0,0 -0.239,0.054 -0.664,-0.212c-0.425,-0.266 -1.408,-1.196 -1.541,-1.807Zm-0.504,1.966c-0,0 -2.392,-3.533 -3.189,-3.825c-0.797,-0.293 -1.168,0.053 -0.903,0.371c0.266,0.319 2.444,2.312 2.71,2.737c0.266,0.425 0.824,0.584 1.382,0.717Zm2.523,-4.197c0,-0 -0.717,-0.983 -1.514,-1.621c-0.797,-0.638 -1.541,-1.196 -1.541,-1.196c0,0 -0.611,0.054 -0.877,0.213c-0.265,0.159 -0.185,0.425 -0.185,0.425c-0,0 0.69,0.531 1.248,0.903c0.558,0.372 2.019,1.648 2.019,1.648c0,-0 0.399,-0 0.85,-0.372Zm-0.292,-14.187c0.277,0.162 -1.062,0.425 -1.806,0.425c-0.744,-0 -1.09,-0.797 -1.408,-0.85c-0.319,-0.054 2.444,-0.027 3.214,0.425Zm-34.956,-11.615c-1.029,0.376 -2.07,0.911 -2.7,1.355c-0.636,0.449 -1.037,1.072 -1.269,1.544c0.018,0.62 0.68,1.116 0.68,1.116c-0,-0 1.537,-0.938 2.175,-1.95c0.466,-0.741 0.852,-1.523 1.114,-2.065Z" style="fill:#efe7d0;"/></g></g></svg>